// Created by Crowbar 0.74
version 1
nodes
  0 "ValveBiped.Bip01_Pelvis" -1
  1 "ValveBiped.Bip01_Spine" 0
  2 "ValveBiped.Bip01_Spine1" 1
  3 "ValveBiped.Bip01_Spine2" 2
  4 "ValveBiped.Bip01_Spine4" 3
  5 "ValveBiped.Bip01_Neck1" 4
  6 "ValveBiped.Bip01_Head1" 5
  7 "ValveBiped.forward" 6
  8 "ValveBiped.Bip01_R_Clavicle" 4
  9 "ValveBiped.Bip01_R_UpperArm" 8
  10 "ValveBiped.Bip01_R_Forearm" 9
  11 "ValveBiped.Bip01_R_Hand" 10
  12 "ValveBiped.Anim_Attachment_RH" 11
  13 "ValveBiped.Bip01_L_Clavicle" 4
  14 "ValveBiped.Bip01_L_UpperArm" 13
  15 "ValveBiped.Bip01_L_Forearm" 14
  16 "ValveBiped.Bip01_L_Hand" 15
  17 "ValveBiped.Anim_Attachment_LH" 16
  18 "ValveBiped.Bip01_R_Thigh" 0
  19 "ValveBiped.Bip01_R_Calf" 18
  20 "ValveBiped.Bip01_R_Foot" 19
  21 "ValveBiped.Bip01_R_Toe0" 20
  22 "ValveBiped.Bip01_L_Thigh" 0
  23 "ValveBiped.Bip01_L_Calf" 22
  24 "ValveBiped.Bip01_L_Foot" 23
  25 "ValveBiped.Bip01_L_Toe0" 24
  26 "ValveBiped.Bip01_L_Finger4" 16
  27 "ValveBiped.Bip01_L_Finger41" 26
  28 "ValveBiped.Bip01_L_Finger42" 27
  29 "ValveBiped.Bip01_L_Finger3" 16
  30 "ValveBiped.Bip01_L_Finger31" 29
  31 "ValveBiped.Bip01_L_Finger32" 30
  32 "ValveBiped.Bip01_L_Finger2" 16
  33 "ValveBiped.Bip01_L_Finger21" 32
  34 "ValveBiped.Bip01_L_Finger22" 33
  35 "ValveBiped.Bip01_L_Finger1" 16
  36 "ValveBiped.Bip01_L_Finger11" 35
  37 "ValveBiped.Bip01_L_Finger12" 36
  38 "ValveBiped.Bip01_L_Finger0" 16
  39 "ValveBiped.Bip01_L_Finger01" 38
  40 "ValveBiped.Bip01_L_Finger02" 39
  41 "ValveBiped.Bip01_R_Finger4" 11
  42 "ValveBiped.Bip01_R_Finger41" 41
  43 "ValveBiped.Bip01_R_Finger42" 42
  44 "ValveBiped.Bip01_R_Finger3" 11
  45 "ValveBiped.Bip01_R_Finger31" 44
  46 "ValveBiped.Bip01_R_Finger32" 45
  47 "ValveBiped.Bip01_R_Finger2" 11
  48 "ValveBiped.Bip01_R_Finger21" 47
  49 "ValveBiped.Bip01_R_Finger22" 48
  50 "ValveBiped.Bip01_R_Finger1" 11
  51 "ValveBiped.Bip01_R_Finger11" 50
  52 "ValveBiped.Bip01_R_Finger12" 51
  53 "ValveBiped.Bip01_R_Finger0" 11
  54 "ValveBiped.Bip01_R_Finger01" 53
  55 "ValveBiped.Bip01_R_Finger02" 54
  56 "ValveBiped.Bip01_l_Hand_Weapon_Joint" 16
  57 "ValveBiped.Bip01_l_Hand_Weapon_Joint1" 56
  58 "ValveBiped.Bip01_l_Hand_Weapon_Joint2" 57
  59 "ValveBiped.Bip01_R_Hand_Weapon_Joint" 11
  60 "ValveBiped.Bip01_R_Hand_Weapon_Joint1" 59
  61 "ValveBiped.Bip01_R_Hand_Weapon_Joint2" 60
  62 "ValveBiped.Cod" 0
end
skeleton
  time 0
    0 2.669608 2.226635 33.062843 1.535740 0.074966 -0.578065
    1 0.000005 3.345128 -2.981901 1.518792 -0.175540 1.400554
    2 4.018331 0.000000 0.000000 -0.113620 0.054650 0.191199
    3 3.518568 0.000000 0.000000 -0.090917 0.084755 0.280296
    4 8.942642 0.000000 0.000000 -0.007137 0.016443 0.141032
    5 3.307271 0.000000 0.000000 3.141590 0.000000 0.400478
    6 3.593712 -0.000002 0.000000 0.887474 0.016845 0.517364
    7 1.999998 -3.000001 0.000000 -1.570796 0.000000 -1.326450
    8 2.033353 1.000771 -1.937610 -2.670331 1.094566 -4.402735
    9 6.028144 0.000003 0.000001 1.035546 0.177930 -0.881019
    10 11.692557 0.000001 0.000001 0.000000 0.000000 -1.692866
    11 11.481706 0.000004 0.000003 -1.333211 0.149629 -0.275865
    12 2.676089 -1.712444 0.000001 -1.570796 0.000000 -1.570796
    13 2.033346 1.000767 1.937660 0.194381 -1.479255 -1.938132
    14 6.028143 -0.000004 0.000000 -1.604775 -0.527025 -1.216069
    15 11.692557 0.000000 0.000002 0.000000 0.000000 -1.458835
    16 11.481679 0.000000 -0.000035 0.023355 0.254339 -0.210939
    17 -14.608391 -4.528953 14.409603 1.451041 -0.395945 -0.947480
    18 -3.890452 0.000004 0.000007 -1.426706 -0.102402 -1.811992
    19 17.848179 0.000000 0.000000 0.000000 0.000000 0.882422
    20 16.525261 0.000000 0.000000 0.345156 0.073441 -1.574657
    21 6.879457 0.000001 0.000000 -0.081333 -0.002951 -0.584373
    22 3.890452 -0.000004 -0.000003 -2.120710 -0.691469 -1.062054
    23 17.848183 0.000000 0.000000 0.000000 0.000000 0.722788
    24 16.525261 -0.000001 0.000000 -0.096843 -0.068835 -0.835129
    25 6.879451 0.000003 0.000000 -0.007299 -0.002950 -0.584373
    26 3.859707 -0.142407 -1.191975 -0.479144 0.152190 -0.879874
    27 1.312560 0.000000 0.000000 0.000000 0.009665 -0.439720
    28 0.729362 0.000002 0.000000 0.000000 0.004971 -0.244299
    29 3.942329 0.046772 -0.431443 -0.155014 0.073328 -0.810648
    30 1.539096 0.000002 0.000000 0.000000 0.004460 -0.247797
    31 1.196323 -0.000002 0.000000 0.000000 0.007361 -0.430802
    32 3.883688 -0.046767 0.431443 0.085902 0.021830 -0.587866
    33 1.719575 0.000002 0.000000 0.000000 0.005516 -0.366477
    34 1.209181 -0.000001 0.000000 0.000000 0.003084 -0.216400
    35 3.859861 -0.137951 1.332466 0.537926 -0.132414 -0.946670
    36 1.719429 0.000000 0.000000 0.023466 -0.208305 -0.755723
    37 1.099669 0.000001 0.000000 0.026030 -0.124608 -0.538676
    38 0.806048 -0.348922 1.321258 -1.269135 -0.727252 -0.266406
    39 1.789787 0.000000 0.000002 -0.001054 -0.012843 -0.131867
    40 1.206995 -0.000001 0.000001 -0.000096 -0.003199 -0.064858
    41 3.859675 -0.132568 1.193108 0.479140 -0.158545 -0.879041
    42 1.312560 -0.000001 -0.000001 0.000000 -0.011932 -0.439672
    43 0.729361 0.000001 0.000000 0.000000 -0.006134 -0.244271
    44 3.942295 0.050331 0.431044 0.154999 -0.079305 -0.810205
    45 1.539095 0.000001 0.000000 0.000000 -0.005854 -0.247771
    46 1.196326 0.000001 0.000000 0.000000 -0.009663 -0.430761
    47 3.883655 -0.050327 -0.431041 0.047699 -0.153441 -0.767461
    48 1.719575 -0.000005 0.000000 -0.053870 0.078878 -1.553253
    49 1.209182 -0.000001 0.000000 -0.013602 0.036958 -0.732253
    50 3.859831 -0.148938 -1.331280 -0.332631 0.218359 0.154965
    51 1.719424 -0.000001 0.000000 -0.042629 0.220735 -0.851598
    52 1.099669 0.000002 0.000000 0.008138 -0.000004 -0.000001
    53 0.806017 -0.359838 -1.318333 0.415074 0.423438 -0.720798
    54 1.789785 0.000003 0.000002 0.015099 0.038897 0.767137
    55 1.207003 0.000002 0.000002 0.004769 0.022536 0.418284
    56 2.857200 -1.804199 0.143500 -1.614350 -0.000760 0.762790
    57 0.000002 0.000000 0.000001 0.000000 0.000000 0.000000
    58 -0.616000 0.000000 0.000002 0.000000 0.000000 0.000000
    59 2.857301 -1.808099 -0.082899 1.551490 -0.023940 -2.379090
    60 0.000000 0.000000 0.000003 0.000000 0.000000 0.000000
    61 0.616000 0.000000 0.000000 0.000000 0.000000 0.000000
    62 -0.044717 2.313936 4.661499 -0.039270 0.000000 0.000000
  time 1
    0 2.669608 3.757932 33.656611 1.535740 0.074966 -0.578065
    1 0.000005 3.345128 -2.981901 1.518792 -0.175540 1.400554
    2 4.018331 0.000000 0.000000 -0.113620 0.054650 0.191199
    3 3.518568 0.000000 0.000000 -0.090917 0.084755 0.280296
    4 8.942642 0.000000 0.000000 -0.007137 0.016443 0.141032
    5 3.307271 0.000000 0.000000 3.141590 0.000000 0.400478
    6 3.593712 -0.000002 0.000000 0.887474 0.016845 0.517364
    7 1.999998 -3.000001 0.000000 -1.570796 0.000000 -1.326450
    8 2.033353 1.000771 -1.937610 -3.018537 1.150466 -4.787579
    9 6.028144 0.000003 0.000001 0.954263 -0.060042 -0.963136
    10 11.692557 0.000001 0.000001 0.000000 0.000000 -1.626743
    11 11.481706 0.000004 0.000003 -1.445735 0.202319 -0.710806
    12 2.676089 -1.712444 0.000001 -1.570796 0.000000 -1.570796
    13 2.033346 1.000767 1.937660 -1.053531 -1.390231 -0.682346
    14 6.028143 -0.000004 0.000000 -1.365264 -0.285587 -1.540875
    15 11.692557 0.000000 0.000002 0.000000 0.000000 -1.670970
    16 11.481679 0.000000 -0.000035 0.306048 0.118020 -0.226029
    17 -14.608391 -4.528953 14.409603 1.451041 -0.395945 -0.947480
    18 -3.890452 0.000004 0.000007 -1.414284 -0.142010 -1.783725
    19 17.848179 0.000000 0.000000 0.000000 0.000000 0.876985
    20 16.525261 0.000000 0.000000 0.311639 0.089766 -1.537055
    21 6.879457 0.000001 0.000000 -0.081333 -0.002951 -0.584373
    22 3.890452 -0.000004 -0.000003 -2.089009 -0.613580 -1.110924
    23 17.848183 0.000000 0.000000 0.000000 0.000000 0.475131
    24 16.525261 -0.000001 0.000000 -0.099722 -0.062984 -0.674095
    25 6.879451 0.000003 0.000000 -0.007299 -0.002950 -0.584373
    26 3.859707 -0.142407 -1.191975 -0.479144 0.152190 -0.879874
    27 1.312560 0.000000 0.000000 0.000000 0.009665 -0.439720
    28 0.729362 0.000002 0.000000 0.000000 0.004971 -0.244299
    29 3.942329 0.046772 -0.431443 -0.155014 0.073328 -0.810648
    30 1.539096 0.000002 0.000000 0.000000 0.004460 -0.247797
    31 1.196323 -0.000002 0.000000 0.000000 0.007361 -0.430802
    32 3.883688 -0.046767 0.431443 0.085902 0.021830 -0.587866
    33 1.719575 0.000002 0.000000 0.000000 0.005516 -0.366477
    34 1.209181 -0.000001 0.000000 0.000000 0.003084 -0.216400
    35 3.859861 -0.137951 1.332466 0.537926 -0.132414 -0.946670
    36 1.719429 0.000000 0.000000 0.023466 -0.208305 -0.755723
    37 1.099669 0.000001 0.000000 0.026030 -0.124608 -0.538676
    38 0.806048 -0.348922 1.321258 -1.269135 -0.727252 -0.266406
    39 1.789787 0.000000 0.000002 -0.001054 -0.012843 -0.131867
    40 1.206995 -0.000001 0.000001 -0.000096 -0.003199 -0.064858
    41 3.859675 -0.132568 1.193108 0.479140 -0.158545 -0.879041
    42 1.312560 -0.000001 -0.000001 0.000000 -0.011932 -0.439672
    43 0.729361 0.000001 0.000000 0.000000 -0.006134 -0.244271
    44 3.942295 0.050331 0.431044 0.154999 -0.079305 -0.810205
    45 1.539095 0.000001 0.000000 0.000000 -0.005854 -0.247771
    46 1.196326 0.000001 0.000000 0.000000 -0.009663 -0.430761
    47 3.883655 -0.050327 -0.431041 0.047699 -0.153441 -0.767461
    48 1.719575 -0.000005 0.000000 -0.053870 0.078878 -1.553253
    49 1.209182 -0.000001 0.000000 -0.013602 0.036958 -0.732253
    50 3.859831 -0.148938 -1.331280 -0.332631 0.218359 0.154965
    51 1.719424 -0.000001 0.000000 -0.042629 0.220735 -0.851598
    52 1.099669 0.000002 0.000000 0.008138 -0.000004 -0.000001
    53 0.806017 -0.359838 -1.318333 0.415050 0.423438 -0.720798
    54 1.789785 0.000003 0.000002 0.015099 0.038897 0.767137
    55 1.207003 0.000002 0.000002 0.004769 0.022536 0.418284
    56 2.857200 -1.804199 0.143500 -1.614350 -0.000760 0.762790
    57 0.000002 0.000000 0.000001 0.000000 0.000000 0.000000
    58 -0.616000 0.000000 0.000002 0.000000 0.000000 0.000000
    59 2.857301 -1.808099 -0.082899 1.551490 -0.023940 -2.379090
    60 0.000000 0.000000 0.000003 0.000000 0.000000 0.000000
    61 0.616000 0.000000 0.000000 0.000000 0.000000 0.000000
    62 -0.044717 2.313936 4.661499 -0.039270 0.000000 0.000000
  time 2
    0 2.669608 4.675929 34.015997 1.535740 0.074966 -0.578065
    1 0.000005 3.345128 -2.981901 1.518792 -0.175540 1.400554
    2 4.018331 0.000000 0.000000 -0.113620 0.054650 0.191199
    3 3.518568 0.000000 0.000000 -0.090917 0.084755 0.280296
    4 8.942642 0.000000 0.000000 -0.007137 0.016443 0.141032
    5 3.307271 0.000000 0.000000 3.141590 0.000000 0.400478
    6 3.593712 -0.000002 0.000000 0.887474 0.016845 0.517364
    7 1.999998 -3.000001 0.000000 -1.570796 0.000000 -1.326450
    8 2.033353 1.000771 -1.937610 -3.253066 1.147230 -5.045416
    9 6.028144 0.000003 0.000001 0.898672 -0.155507 -1.026778
    10 11.692557 0.000001 0.000001 0.000000 0.000000 -1.507186
    11 11.481706 0.000004 0.000003 -1.516994 0.222858 -1.002365
    12 2.676089 -1.712444 0.000001 -1.570796 0.000000 -1.570796
    13 2.033346 1.000767 1.937660 -1.236666 -1.293758 -0.494380
    14 6.028143 -0.000004 0.000000 -1.211755 -0.158077 -1.700825
    15 11.692557 0.000000 0.000002 0.000000 0.000000 -1.719647
    16 11.481679 0.000000 -0.000035 0.494158 0.028551 -0.294304
    17 -14.608391 -4.528953 14.409603 1.451041 -0.395945 -0.947480
    18 -3.890452 0.000004 0.000007 -1.406830 -0.163098 -1.766821
    19 17.848179 0.000000 0.000000 0.000000 0.000000 0.868030
    20 16.525261 0.000000 0.000000 0.291501 0.099484 -1.511825
    21 6.879457 0.000001 0.000000 -0.081333 -0.002951 -0.584373
    22 3.890452 -0.000004 -0.000003 -2.057396 -0.517701 -1.168386
    23 17.848183 0.000000 0.000000 0.000000 0.000000 0.214091
    24 16.525261 -0.000001 0.000000 -0.101362 -0.059687 -0.520342
    25 6.879451 0.000003 0.000000 -0.007299 -0.002950 -0.584373
    26 3.859707 -0.142407 -1.191975 -0.479144 0.152190 -0.879874
    27 1.312560 0.000000 0.000000 0.000000 0.009665 -0.439720
    28 0.729362 0.000002 0.000000 0.000000 0.004971 -0.244299
    29 3.942329 0.046772 -0.431443 -0.155014 0.073328 -0.810648
    30 1.539096 0.000002 0.000000 0.000000 0.004460 -0.247797
    31 1.196323 -0.000002 0.000000 0.000000 0.007361 -0.430802
    32 3.883688 -0.046767 0.431443 0.085902 0.021830 -0.587866
    33 1.719575 0.000002 0.000000 0.000000 0.005516 -0.366477
    34 1.209181 -0.000001 0.000000 0.000000 0.003084 -0.216400
    35 3.859861 -0.137951 1.332466 0.537926 -0.132414 -0.946670
    36 1.719429 0.000000 0.000000 0.023466 -0.208305 -0.755723
    37 1.099669 0.000001 0.000000 0.026030 -0.124608 -0.538676
    38 0.806048 -0.348922 1.321258 -1.269135 -0.727252 -0.266406
    39 1.789787 0.000000 0.000002 -0.001054 -0.012843 -0.131867
    40 1.206995 -0.000001 0.000001 -0.000096 -0.003199 -0.064858
    41 3.859675 -0.132568 1.193108 0.479140 -0.158545 -0.879041
    42 1.312560 -0.000001 -0.000001 0.000000 -0.011932 -0.439672
    43 0.729361 0.000001 0.000000 0.000000 -0.006134 -0.244271
    44 3.942295 0.050331 0.431044 0.154999 -0.079305 -0.810205
    45 1.539095 0.000001 0.000000 0.000000 -0.005854 -0.247771
    46 1.196326 0.000001 0.000000 0.000000 -0.009663 -0.430761
    47 3.883655 -0.050327 -0.431041 0.047699 -0.153441 -0.767461
    48 1.719575 -0.000005 0.000000 -0.053870 0.078878 -1.553253
    49 1.209182 -0.000001 0.000000 -0.013602 0.036958 -0.732253
    50 3.859831 -0.148938 -1.331280 -0.332631 0.218359 0.154965
    51 1.719424 -0.000001 0.000000 -0.042629 0.220735 -0.851598
    52 1.099669 0.000002 0.000000 0.008138 -0.000004 -0.000001
    53 0.806017 -0.359838 -1.318333 0.415074 0.423438 -0.720798
    54 1.789785 0.000003 0.000002 0.015099 0.038897 0.767137
    55 1.207003 0.000002 0.000002 0.004769 0.022536 0.418284
    56 2.857200 -1.804199 0.143500 -1.614350 -0.000760 0.762790
    57 0.000002 0.000000 0.000001 0.000000 0.000000 0.000000
    58 -0.616000 0.000000 0.000002 0.000000 0.000000 0.000000
    59 2.857301 -1.808099 -0.082899 1.551490 -0.023940 -2.379090
    60 0.000000 0.000000 0.000003 0.000000 0.000000 0.000000
    61 0.616000 0.000000 0.000000 0.000000 0.000000 0.000000
    62 -0.044717 2.313936 4.661499 -0.039270 0.000000 0.000000
  time 3
    0 2.669608 3.757932 33.656611 1.535740 0.074966 -0.578065
    1 0.000005 3.345128 -2.981901 1.518792 -0.175540 1.400554
    2 4.018331 0.000000 0.000000 -0.113620 0.054650 0.191199
    3 3.518568 0.000000 0.000000 -0.090917 0.084755 0.280296
    4 8.942642 0.000000 0.000000 -0.007137 0.016443 0.141032
    5 3.307271 0.000000 0.000000 3.141590 0.000000 0.400478
    6 3.593712 -0.000002 0.000000 0.887474 0.016845 0.517364
    7 1.999998 -3.000001 0.000000 -1.570796 0.000000 -1.326450
    8 2.033353 1.000771 -1.937610 -3.018537 1.150466 -4.787579
    9 6.028144 0.000003 0.000001 0.954263 -0.060042 -0.963136
    10 11.692557 0.000001 0.000001 0.000000 0.000000 -1.626743
    11 11.481706 0.000004 0.000003 -1.445735 0.202319 -0.710806
    12 2.676089 -1.712444 0.000001 -1.570796 0.000000 -1.570796
    13 2.033346 1.000767 1.937660 -1.053531 -1.390231 -0.682346
    14 6.028143 -0.000004 0.000000 -1.365264 -0.285587 -1.540875
    15 11.692557 0.000000 0.000002 0.000000 0.000000 -1.670970
    16 11.481679 0.000000 -0.000035 0.306048 0.118020 -0.226029
    17 -14.608391 -4.528953 14.409603 1.451041 -0.395945 -0.947480
    18 -3.890452 0.000004 0.000007 -1.414284 -0.142010 -1.783725
    19 17.848179 0.000000 0.000000 0.000000 0.000000 0.876985
    20 16.525261 0.000000 0.000000 0.311639 0.089766 -1.537055
    21 6.879457 0.000001 0.000000 -0.081333 -0.002951 -0.584373
    22 3.890452 -0.000004 -0.000003 -2.089009 -0.613580 -1.110924
    23 17.848183 0.000000 0.000000 0.000000 0.000000 0.475131
    24 16.525261 -0.000001 0.000000 -0.099722 -0.062984 -0.674095
    25 6.879451 0.000003 0.000000 -0.007299 -0.002950 -0.584373
    26 3.859707 -0.142407 -1.191975 -0.479144 0.152190 -0.879874
    27 1.312560 0.000000 0.000000 0.000000 0.009665 -0.439720
    28 0.729362 0.000002 0.000000 0.000000 0.004971 -0.244299
    29 3.942329 0.046772 -0.431443 -0.155014 0.073328 -0.810648
    30 1.539096 0.000002 0.000000 0.000000 0.004460 -0.247797
    31 1.196323 -0.000002 0.000000 0.000000 0.007361 -0.430802
    32 3.883688 -0.046767 0.431443 0.085902 0.021830 -0.587866
    33 1.719575 0.000002 0.000000 0.000000 0.005516 -0.366477
    34 1.209181 -0.000001 0.000000 0.000000 0.003084 -0.216400
    35 3.859861 -0.137951 1.332466 0.537926 -0.132414 -0.946670
    36 1.719429 0.000000 0.000000 0.023466 -0.208305 -0.755723
    37 1.099669 0.000001 0.000000 0.026030 -0.124608 -0.538676
    38 0.806048 -0.348922 1.321258 -1.269135 -0.727252 -0.266406
    39 1.789787 0.000000 0.000002 -0.001054 -0.012843 -0.131867
    40 1.206995 -0.000001 0.000001 -0.000096 -0.003199 -0.064858
    41 3.859675 -0.132568 1.193108 0.479140 -0.158545 -0.879041
    42 1.312560 -0.000001 -0.000001 0.000000 -0.011932 -0.439672
    43 0.729361 0.000001 0.000000 0.000000 -0.006134 -0.244271
    44 3.942295 0.050331 0.431044 0.154999 -0.079305 -0.810205
    45 1.539095 0.000001 0.000000 0.000000 -0.005854 -0.247771
    46 1.196326 0.000001 0.000000 0.000000 -0.009663 -0.430761
    47 3.883655 -0.050327 -0.431041 0.047699 -0.153441 -0.767461
    48 1.719575 -0.000005 0.000000 -0.053870 0.078878 -1.553253
    49 1.209182 -0.000001 0.000000 -0.013602 0.036958 -0.732253
    50 3.859831 -0.148938 -1.331280 -0.332631 0.218359 0.154965
    51 1.719424 -0.000001 0.000000 -0.042629 0.220735 -0.851598
    52 1.099669 0.000002 0.000000 0.008138 -0.000004 -0.000001
    53 0.806017 -0.359838 -1.318333 0.415050 0.423438 -0.720798
    54 1.789785 0.000003 0.000002 0.015099 0.038897 0.767137
    55 1.207003 0.000002 0.000002 0.004769 0.022536 0.418284
    56 2.857200 -1.804199 0.143500 -1.614350 -0.000760 0.762790
    57 0.000002 0.000000 0.000001 0.000000 0.000000 0.000000
    58 -0.616000 0.000000 0.000002 0.000000 0.000000 0.000000
    59 2.857301 -1.808099 -0.082899 1.551490 -0.023940 -2.379090
    60 0.000000 0.000000 0.000003 0.000000 0.000000 0.000000
    61 0.616000 0.000000 0.000000 0.000000 0.000000 0.000000
    62 -0.044717 2.313936 4.661499 -0.039270 0.000000 0.000000
  time 4
    0 2.669608 2.226635 33.062843 1.535740 0.074966 -0.578065
    1 0.000005 3.345128 -2.981901 1.518792 -0.175540 1.400554
    2 4.018331 0.000000 0.000000 -0.113620 0.054650 0.191199
    3 3.518568 0.000000 0.000000 -0.090917 0.084755 0.280296
    4 8.942642 0.000000 0.000000 -0.007137 0.016443 0.141032
    5 3.307271 0.000000 0.000000 3.141590 0.000000 0.400478
    6 3.593712 -0.000002 0.000000 0.887474 0.016845 0.517364
    7 1.999998 -3.000001 0.000000 -1.570796 0.000000 -1.326450
    8 2.033353 1.000771 -1.937610 -2.670331 1.094566 -4.402735
    9 6.028144 0.000003 0.000001 1.035546 0.177930 -0.881019
    10 11.692557 0.000001 0.000001 0.000000 0.000000 -1.692866
    11 11.481706 0.000004 0.000003 -1.333211 0.149629 -0.275865
    12 2.676089 -1.712444 0.000001 -1.570796 0.000000 -1.570796
    13 2.033346 1.000767 1.937660 0.194381 -1.479255 -1.938132
    14 6.028143 -0.000004 0.000000 -1.604775 -0.527025 -1.216069
    15 11.692557 0.000000 0.000002 0.000000 0.000000 -1.458835
    16 11.481679 0.000000 -0.000035 0.023355 0.254339 -0.210939
    17 -14.608391 -4.528953 14.409603 1.451041 -0.395945 -0.947480
    18 -3.890452 0.000004 0.000007 -1.426706 -0.102402 -1.811992
    19 17.848179 0.000000 0.000000 0.000000 0.000000 0.882422
    20 16.525261 0.000000 0.000000 0.345156 0.073441 -1.574657
    21 6.879457 0.000001 0.000000 -0.081333 -0.002951 -0.584373
    22 3.890452 -0.000004 -0.000003 -2.120710 -0.691469 -1.062054
    23 17.848183 0.000000 0.000000 0.000000 0.000000 0.722788
    24 16.525261 -0.000001 0.000000 -0.096843 -0.068835 -0.835129
    25 6.879451 0.000003 0.000000 -0.007299 -0.002950 -0.584373
    26 3.859707 -0.142407 -1.191975 -0.479144 0.152190 -0.879874
    27 1.312560 0.000000 0.000000 0.000000 0.009665 -0.439720
    28 0.729362 0.000002 0.000000 0.000000 0.004971 -0.244299
    29 3.942329 0.046772 -0.431443 -0.155014 0.073328 -0.810648
    30 1.539096 0.000002 0.000000 0.000000 0.004460 -0.247797
    31 1.196323 -0.000002 0.000000 0.000000 0.007361 -0.430802
    32 3.883688 -0.046767 0.431443 0.085902 0.021830 -0.587866
    33 1.719575 0.000002 0.000000 0.000000 0.005516 -0.366477
    34 1.209181 -0.000001 0.000000 0.000000 0.003084 -0.216400
    35 3.859861 -0.137951 1.332466 0.537926 -0.132414 -0.946670
    36 1.719429 0.000000 0.000000 0.023466 -0.208305 -0.755723
    37 1.099669 0.000001 0.000000 0.026030 -0.124608 -0.538676
    38 0.806048 -0.348922 1.321258 -1.269135 -0.727252 -0.266406
    39 1.789787 0.000000 0.000002 -0.001054 -0.012843 -0.131867
    40 1.206995 -0.000001 0.000001 -0.000096 -0.003199 -0.064858
    41 3.859675 -0.132568 1.193108 0.479140 -0.158545 -0.879041
    42 1.312560 -0.000001 -0.000001 0.000000 -0.011932 -0.439672
    43 0.729361 0.000001 0.000000 0.000000 -0.006134 -0.244271
    44 3.942295 0.050331 0.431044 0.154999 -0.079305 -0.810205
    45 1.539095 0.000001 0.000000 0.000000 -0.005854 -0.247771
    46 1.196326 0.000001 0.000000 0.000000 -0.009663 -0.430761
    47 3.883655 -0.050327 -0.431041 0.047699 -0.153441 -0.767461
    48 1.719575 -0.000005 0.000000 -0.053870 0.078878 -1.553253
    49 1.209182 -0.000001 0.000000 -0.013602 0.036958 -0.732253
    50 3.859831 -0.148938 -1.331280 -0.332631 0.218359 0.154965
    51 1.719424 -0.000001 0.000000 -0.042629 0.220735 -0.851598
    52 1.099669 0.000002 0.000000 0.008138 -0.000004 -0.000001
    53 0.806017 -0.359838 -1.318333 0.415074 0.423438 -0.720798
    54 1.789785 0.000003 0.000002 0.015099 0.038897 0.767137
    55 1.207003 0.000002 0.000002 0.004769 0.022536 0.418284
    56 2.857200 -1.804199 0.143500 -1.614350 -0.000760 0.762790
    57 0.000002 0.000000 0.000001 0.000000 0.000000 0.000000
    58 -0.616000 0.000000 0.000002 0.000000 0.000000 0.000000
    59 2.857301 -1.808099 -0.082899 1.551490 -0.023940 -2.379090
    60 0.000000 0.000000 0.000003 0.000000 0.000000 0.000000
    61 0.616000 0.000000 0.000000 0.000000 0.000000 0.000000
    62 -0.044717 2.313936 4.661499 -0.039270 0.000000 0.000000
end
