version 1
nodes
 0 "ValveBiped.Bip01_Pelvis" -1
 1 "ValveBiped.Bip01_Spine" 0
 2 "ValveBiped.Bip01_Spine1" 1
 3 "ValveBiped.Bip01_Spine2" 2
 4 "ValveBiped.Bip01_Spine4" 3
 5 "ValveBiped.Bip01_Neck1" 4
 6 "ValveBiped.Bip01_Head1" 5
 7 "ValveBiped.forward" 6
 8 "ValveBiped.Bip01_L_Clavicle" 4
 9 "ValveBiped.Bip01_L_UpperArm" 8
 10 "ValveBiped.Bip01_L_Forearm" 9
 11 "ValveBiped.Bip01_L_Hand" 10
 12 "ValveBiped.Anim_Attachment_LH" 11
 13 "ValveBiped.Bip01_R_Clavicle" 4
 14 "ValveBiped.Bip01_R_UpperArm" 13
 15 "ValveBiped.Bip01_R_Forearm" 14
 16 "ValveBiped.Bip01_R_Hand" 15
 17 "ValveBiped.Anim_Attachment_RH" 16
 18 "ValveBiped.Bip01_L_Thigh" 0
 19 "ValveBiped.Bip01_L_Calf" 18
 20 "ValveBiped.Bip01_L_Foot" 19
 21 "ValveBiped.Bip01_L_Toe0" 20
 22 "ValveBiped.Bip01_R_Thigh" 0
 23 "ValveBiped.Bip01_R_Calf" 22
 24 "ValveBiped.Bip01_R_Foot" 23
 25 "ValveBiped.Bip01_R_Toe0" 24
 26 "ValveBiped.Bip01_L_Finger4" 11
 27 "ValveBiped.Bip01_L_Finger41" 26
 28 "ValveBiped.Bip01_L_Finger42" 27
 29 "ValveBiped.Bip01_L_Finger3" 11
 30 "ValveBiped.Bip01_L_Finger31" 29
 31 "ValveBiped.Bip01_L_Finger32" 30
 32 "ValveBiped.Bip01_L_Finger2" 11
 33 "ValveBiped.Bip01_L_Finger21" 32
 34 "ValveBiped.Bip01_L_Finger22" 33
 35 "ValveBiped.Bip01_L_Finger1" 11
 36 "ValveBiped.Bip01_L_Finger11" 35
 37 "ValveBiped.Bip01_L_Finger12" 36
 38 "ValveBiped.Bip01_L_Finger0" 11
 39 "ValveBiped.Bip01_L_Finger01" 38
 40 "ValveBiped.Bip01_L_Finger02" 39
 41 "ValveBiped.Bip01_R_Finger4" 16
 42 "ValveBiped.Bip01_R_Finger41" 41
 43 "ValveBiped.Bip01_R_Finger42" 42
 44 "ValveBiped.Bip01_R_Finger3" 16
 45 "ValveBiped.Bip01_R_Finger31" 44
 46 "ValveBiped.Bip01_R_Finger32" 45
 47 "ValveBiped.Bip01_R_Finger2" 16
 48 "ValveBiped.Bip01_R_Finger21" 47
 49 "ValveBiped.Bip01_R_Finger22" 48
 50 "ValveBiped.Bip01_R_Finger1" 16
 51 "ValveBiped.Bip01_R_Finger11" 50
 52 "ValveBiped.Bip01_R_Finger12" 51
 53 "ValveBiped.Bip01_R_Finger0" 16
 54 "ValveBiped.Bip01_R_Finger01" 53
 55 "ValveBiped.Bip01_R_Finger02" 54
 56 "ValveBiped.Bip01_joint1" 3
 57 "ValveBiped.Bip01_L_Pectoral" 56
 58 "ValveBiped.Bip01_R_Pectoral" 56
 59 "ValveBiped.physgun_attachment" 16
end
skeleton
time 0
 0 -0.00462 -0.00340 23.30713 1.20501 0.00001 1.57078
 1 0.00157 4.21278 -1.68984 1.57444 -0.24424 1.55495
 2 3.83741 -0.00001 -0.00000 -0.00003 -0.01588 0.18934
 3 3.61786 0.00000 -0.00000 -0.00150 -0.01433 0.05799
 4 7.53977 -0.00000 0.00000 -0.00000 0.00000 0.15581
 5 3.17830 0.00000 -0.00000 -3.12925 0.02378 -0.03110
 6 2.97027 0.00000 0.00000 0.01881 -0.02481 0.10719
 7 0.00000 0.00000 0.00000 -1.57080 -0.00000 -1.32645
 8 2.02371 0.90745 0.85258 -2.71599 -0.88577 1.00756
 9 4.98367 -0.00001 0.00001 -1.02808 -1.17786 -1.12809
 10 11.12305 -0.00000 -0.00000 -0.00000 -0.00000 -0.54334
 11 11.20831 -0.00000 0.00001 -2.68865 -0.23740 0.41567
 12 2.67608 -1.71245 0.00000 1.57080 -0.00000 1.57080
 13 2.02370 0.90746 -0.85253 -1.71001 1.33415 2.90019
 14 4.98366 -0.00000 0.00001 1.57954 0.34780 -0.43212
 15 11.12304 -0.00001 -0.00001 0.00000 0.00000 -0.70786
 16 11.20829 0.00000 -0.00002 -2.03098 0.34454 -0.27008
 17 2.67608 -1.71243 -0.00000 -1.57080 -0.00000 -1.57080
 18 3.98401 -0.00000 -0.00001 -2.63825 -1.44593 -0.22212
 19 15.94000 0.00000 0.00000 0.00000 -0.00000 1.15187
 20 17.70956 -0.00001 0.00000 -0.35780 -0.05905 -1.33695
 21 6.20399 0.00000 -0.00000 -0.01115 0.00093 -0.50052
 22 -3.98401 0.00001 0.00000 2.77143 -1.47870 0.20028
 23 15.94002 -0.00001 -0.00000 0.00000 -0.00000 1.25235
 24 17.70958 -0.00000 0.00000 0.19450 0.21539 -1.37507
 25 6.20401 0.00001 -0.00000 -0.07865 -0.00618 -0.49894
 26 3.54925 0.19882 -1.48947 -0.02924 0.00744 -0.60025
 27 1.21900 0.00000 0.00000 -0.07679 0.06027 -1.22598
 28 0.68000 -0.00000 -0.00000 -0.00728 0.08740 -0.38626
 29 3.69801 0.26756 -0.72897 -0.24917 0.11119 -0.97739
 30 1.74900 -0.00001 0.00000 -0.02282 0.01460 -1.19950
 31 0.96000 0.00000 0.00000 -0.01761 0.03533 -0.75963
 32 3.76850 0.15255 0.07138 0.02556 0.08883 -0.98312
 33 2.03800 0.00000 0.00001 0.00450 -0.00105 -1.58466
 34 1.06700 0.00000 0.00000 0.00172 -0.00554 -0.62037
 35 3.78393 -0.01726 0.79456 0.33649 0.11412 -0.88677
 36 1.62899 -0.00000 0.00000 0.06644 -0.01959 -1.47794
 37 0.95600 -0.00000 0.00000 0.03476 -0.06044 -0.69246
 38 1.25897 -0.29798 1.25259 -1.25848 -0.39961 -1.21399
 39 1.39300 -0.00000 -0.00000 0.00120 -0.13943 0.59864
 40 1.10001 0.00000 -0.00000 -0.11909 -0.23457 0.62435
 41 3.54928 0.21141 1.48766 0.41604 -0.08909 -0.82624
 42 1.21900 0.00000 -0.00000 0.07652 -0.06061 -1.22154
 43 0.68000 -0.00000 0.00000 0.02912 -0.08275 -0.64195
 44 3.69802 0.27372 0.72661 0.25014 -0.10899 -0.98611
 45 1.74900 0.00000 0.00000 0.02026 -0.01799 -1.04322
 46 0.95999 0.00000 -0.00001 0.01567 -0.03623 -0.70557
 47 3.76850 0.15196 -0.07275 -0.03617 -0.08508 -0.86094
 48 2.03800 0.00001 -0.00000 -0.00427 0.00174 -1.42834
 49 1.06701 -0.00000 0.00000 -0.00143 0.00562 -0.56638
 50 3.78392 -0.02394 -0.79446 -0.34860 -0.06634 -0.75250
 51 1.62900 -0.00000 0.00000 -0.06259 0.02967 -1.32190
 52 0.95600 -0.00000 0.00000 -0.03145 0.06224 -0.63837
 53 1.25895 -0.30853 -1.25006 1.28901 0.53015 -0.65440
 54 1.39300 -0.00000 0.00000 -0.00179 0.37055 0.93238
 55 1.10000 -0.00000 -0.00001 0.00000 -0.01313 -0.28682
 56 0.57900 0.70430 -0.00000 0.00000 -1.57079 -3.04432
 57 2.57790 -4.07586 1.82556 1.57074 -1.47352 1.57085
 58 -2.57800 -4.07586 1.82556 1.57074 -1.47352 1.57085
 59 2.33067 -1.87775 0.10413 -1.86130 0.20791 -1.32839
end
triangles
end

