// Created by Crowbar 0.71
version 1
nodes
  0 "ValveBiped.Bip01_Pelvis" -1
  1 "ValveBiped.Bip01_Spine" 0
  2 "ValveBiped.Bip01_Spine1" 1
  3 "ValveBiped.Bip01_Spine2" 2
  4 "ValveBiped.Bip01_Spine4" 3
  5 "ValveBiped.Bip01_Neck1" 4
  6 "ValveBiped.Bip01_Head1" 5
  7 "ValveBiped.forward" 6
  8 "ValveBiped.Bip01_R_Clavicle" 4
  9 "ValveBiped.Bip01_R_UpperArm" 8
  10 "ValveBiped.Bip01_R_Forearm" 9
  11 "ValveBiped.Bip01_R_Hand" 10
  12 "ValveBiped.Anim_Attachment_RH" 11
  13 "ValveBiped.Bip01_L_Clavicle" 4
  14 "ValveBiped.Bip01_L_UpperArm" 13
  15 "ValveBiped.Bip01_L_Forearm" 14
  16 "ValveBiped.Bip01_L_Hand" 15
  17 "ValveBiped.Anim_Attachment_LH" 16
  18 "ValveBiped.Bip01_R_Thigh" 0
  19 "ValveBiped.Bip01_R_Calf" 18
  20 "ValveBiped.Bip01_R_Foot" 19
  21 "ValveBiped.Bip01_R_Toe0" 20
  22 "ValveBiped.Bip01_L_Thigh" 0
  23 "ValveBiped.Bip01_L_Calf" 22
  24 "ValveBiped.Bip01_L_Foot" 23
  25 "ValveBiped.Bip01_L_Toe0" 24
  26 "ValveBiped.Bip01_L_Finger4" 16
  27 "ValveBiped.Bip01_L_Finger41" 26
  28 "ValveBiped.Bip01_L_Finger42" 27
  29 "ValveBiped.Bip01_L_Finger3" 16
  30 "ValveBiped.Bip01_L_Finger31" 29
  31 "ValveBiped.Bip01_L_Finger32" 30
  32 "ValveBiped.Bip01_L_Finger2" 16
  33 "ValveBiped.Bip01_L_Finger21" 32
  34 "ValveBiped.Bip01_L_Finger22" 33
  35 "ValveBiped.Bip01_L_Finger1" 16
  36 "ValveBiped.Bip01_L_Finger11" 35
  37 "ValveBiped.Bip01_L_Finger12" 36
  38 "ValveBiped.Bip01_L_Finger0" 16
  39 "ValveBiped.Bip01_L_Finger01" 38
  40 "ValveBiped.Bip01_L_Finger02" 39
  41 "ValveBiped.Bip01_R_Finger4" 11
  42 "ValveBiped.Bip01_R_Finger41" 41
  43 "ValveBiped.Bip01_R_Finger42" 42
  44 "ValveBiped.Bip01_R_Finger3" 11
  45 "ValveBiped.Bip01_R_Finger31" 44
  46 "ValveBiped.Bip01_R_Finger32" 45
  47 "ValveBiped.Bip01_R_Finger2" 11
  48 "ValveBiped.Bip01_R_Finger21" 47
  49 "ValveBiped.Bip01_R_Finger22" 48
  50 "ValveBiped.Bip01_R_Finger1" 11
  51 "ValveBiped.Bip01_R_Finger11" 50
  52 "ValveBiped.Bip01_R_Finger12" 51
  53 "ValveBiped.Bip01_R_Finger0" 11
  54 "ValveBiped.Bip01_R_Finger01" 53
  55 "ValveBiped.Bip01_R_Finger02" 54
  56 "ValveBiped.baton_parent" 11
end
skeleton
  time 0
    0 1.610982 -0.335943 36.223096 1.553298 0.045237 -0.034349
    1 -0.124999 3.345128 -2.981903 1.575367 0.102068 1.617142
    2 4.018331 0.000000 0.000000 -0.078977 0.042905 0.217580
    3 3.518564 0.000000 0.000000 -0.015614 0.001942 0.254972
    4 8.942642 0.000000 0.000000 0.016194 -0.103511 0.235393
    5 3.307269 0.000000 -0.000004 3.137477 0.001222 0.577187
    6 3.593710 -0.000001 -0.000004 -0.003479 -0.072842 1.028690
    7 1.999994 -3.000001 0.000004 -1.570753 -0.000007 -1.326410
    8 2.033349 1.000771 -1.937607 -1.379791 1.273488 -3.056479
    9 6.028143 0.000002 -0.000004 1.637353 0.170550 -0.698723
    10 11.692545 0.000000 0.000000 -0.000011 0.000000 -1.890870
    11 11.481701 0.000000 0.000000 -0.853043 0.197800 -0.014374
    12 2.676086 -1.712440 0.000000 -1.570792 0.000003 -1.570793
    13 2.033341 1.000767 1.937660 2.412174 -1.487397 2.120583
    14 6.028140 0.000002 0.000000 -1.291715 0.364665 -0.903251
    15 11.692553 0.000000 0.000011 -0.000013 0.000000 -1.852967
    16 11.481667 0.000000 -0.000031 1.575391 -0.108951 -0.097558
    17 2.676086 -1.712440 0.000004 1.570793 0.000005 1.570793
    18 -3.890452 0.000004 0.000004 -1.141286 -0.154139 -1.645734
    19 17.848171 0.000000 0.000004 0.000009 0.000000 0.740305
    20 16.525251 0.000000 0.000004 -0.006575 -0.079586 -1.466313
    21 6.879454 0.000000 0.000008 -0.080776 -0.002858 -0.654180
    22 3.890452 -0.000004 -0.000004 -1.660469 -0.302642 -1.279162
    23 17.848175 0.000000 -0.000004 0.000010 0.000000 1.410555
    24 16.525246 0.000000 0.000004 0.048867 0.004305 -1.002217
    25 6.879452 0.000000 0.000000 -0.005597 -0.003040 -0.761173
    26 3.859703 -0.142403 -1.191975 -0.568929 -0.013613 -1.526889
    27 1.312565 0.000001 0.000004 -0.086569 0.239740 -1.554263
    28 0.729362 0.000002 0.000004 -0.176890 0.315566 -1.429227
    29 3.942326 0.046774 -0.431438 0.030304 -0.060024 -1.757047
    30 1.539093 0.000001 0.000000 -0.058651 0.149388 -1.571890
    31 1.196320 -0.000001 0.000004 -0.107662 0.188362 -1.488327
    32 3.883686 -0.046767 0.431446 0.134425 0.056053 -1.771010
    33 1.719570 0.000002 0.000004 -0.030686 0.057173 -1.750786
    34 1.209183 -0.000001 -0.000004 -0.034239 0.059372 -1.537001
    35 3.859859 -0.137950 1.332462 0.524244 -0.087934 -1.819404
    36 1.719429 0.000002 0.000000 0.072023 -0.125294 -1.808387
    37 1.099670 0.000001 0.000004 0.072020 -0.125295 -0.669563
    38 0.806049 -0.348922 1.321259 -0.786557 -0.413955 -0.992027
    39 1.789787 0.000000 0.000004 0.004364 0.030238 0.718398
    40 1.207001 0.000000 -0.000004 0.102534 0.030239 0.502412
    41 3.859665 -0.132565 1.193108 0.693436 -0.009816 -1.600821
    42 1.312561 0.000000 0.000000 0.110761 -0.297055 -1.436131
    43 0.729366 0.000002 0.000000 0.157643 -0.341690 -1.408450
    44 3.942291 0.050330 0.431042 0.331339 -0.008608 -1.603808
    45 1.539097 0.000003 0.000000 0.050214 -0.153911 -1.591790
    46 1.196320 0.000000 0.000000 0.132538 -0.225788 -1.824936
    47 3.883648 -0.050325 -0.431044 -0.022374 -0.010304 -1.305812
    48 1.719574 -0.000005 0.000000 0.038733 -0.074557 -1.586292
    49 1.209183 -0.000001 0.000000 0.047518 -0.079997 -1.582137
    50 3.859825 -0.148935 -1.331284 -0.549076 -0.024863 -1.454250
    51 1.719425 0.000000 0.000000 -0.002107 0.024342 -1.684730
    52 1.099663 0.000000 0.000000 -0.007967 0.046800 -1.711623
    53 0.806015 -0.359835 -1.318335 1.200555 0.246503 -0.836612
    54 1.789780 0.000001 0.000000 0.046973 0.150711 0.289172
    55 1.207001 0.000000 0.000004 0.215981 -0.000002 0.942472
    56 3.643179 -1.117762 -6.586830 1.677301 0.043048 -2.001890
  time 1
    0 1.610982 -0.335943 36.914523 1.560159 0.046112 -0.053882
    1 -0.124999 3.345128 -2.981903 1.575367 0.102068 1.617142
    2 4.018331 0.000000 0.000000 -0.078772 0.036889 0.218791
    3 3.518564 0.000000 0.000000 -0.015614 0.001942 0.254972
    4 8.942642 0.000000 0.000000 0.018182 -0.099400 0.235255
    5 3.307269 0.000000 -0.000004 3.137477 0.001222 0.577187
    6 3.593710 -0.000001 -0.000004 0.006912 -0.072219 1.028655
    7 1.999994 -3.000001 0.000004 -1.570753 -0.000007 -1.326410
    8 2.033349 1.000771 -1.937607 -1.379791 1.273488 -3.056479
    9 6.028143 0.000002 -0.000004 1.647187 0.031927 -0.658154
    10 11.692545 0.000000 0.000000 -0.000011 0.000000 -1.940396
    11 11.481701 0.000000 0.000000 -0.853043 0.197800 -0.014374
    12 2.676086 -1.712440 0.000000 -1.570792 0.000003 -1.570793
    13 2.033341 1.000767 1.937660 2.412174 -1.487397 2.120583
    14 6.028140 0.000002 0.000000 -1.311416 0.178717 -0.991177
    15 11.692553 0.000000 0.000011 -0.000013 0.000000 -1.876746
    16 11.481667 0.000000 -0.000031 1.575452 -0.108951 -0.097558
    17 2.676086 -1.712440 0.000004 1.570793 0.000005 1.570793
    18 -3.890452 0.000004 0.000004 -1.206192 -0.234513 -1.700711
    19 17.848171 0.000000 0.000004 0.000009 0.000000 0.658830
    20 16.525251 0.000000 0.000004 0.055677 -0.063587 -1.311728
    21 6.879454 0.000000 0.000008 -0.080884 -0.002846 -0.643885
    22 3.890452 -0.000004 -0.000004 -1.605890 -0.403796 -1.393826
    23 17.848175 0.000000 -0.000004 0.000010 0.000000 1.409115
    24 16.525246 0.000000 0.000004 -0.057167 -0.094248 -0.921245
    25 6.879452 0.000000 0.000000 -0.005310 -0.003052 -0.799001
    26 3.859703 -0.142403 -1.191975 -0.568929 -0.013613 -1.526889
    27 1.312565 0.000001 0.000004 -0.086569 0.239740 -1.554310
    28 0.729362 0.000002 0.000004 -0.176890 0.315566 -1.429227
    29 3.942326 0.046774 -0.431438 0.030304 -0.060024 -1.757047
    30 1.539093 0.000001 0.000000 -0.058651 0.149388 -1.571890
    31 1.196320 -0.000001 0.000004 -0.107662 0.188362 -1.488327
    32 3.883686 -0.046767 0.431446 0.134425 0.056053 -1.771010
    33 1.719570 0.000002 0.000004 -0.030686 0.057173 -1.750786
    34 1.209183 -0.000001 -0.000004 -0.034239 0.059372 -1.537048
    35 3.859859 -0.137950 1.332462 0.524244 -0.087934 -1.819404
    36 1.719429 0.000002 0.000000 0.072023 -0.125294 -1.808387
    37 1.099670 0.000001 0.000004 0.072020 -0.125295 -0.669563
    38 0.806049 -0.348922 1.321259 -0.786557 -0.413955 -0.992027
    39 1.789787 0.000000 0.000004 0.004364 0.030238 0.718398
    40 1.207001 0.000000 -0.000004 0.102534 0.030239 0.502412
    41 3.859665 -0.132565 1.193108 0.693436 -0.009816 -1.600821
    42 1.312561 0.000000 0.000000 0.110761 -0.297055 -1.436131
    43 0.729366 0.000002 0.000000 0.157643 -0.341690 -1.408450
    44 3.942291 0.050330 0.431042 0.331339 -0.008608 -1.603808
    45 1.539097 0.000003 0.000000 0.050214 -0.153911 -1.591790
    46 1.196320 0.000000 0.000000 0.132538 -0.225788 -1.824936
    47 3.883648 -0.050325 -0.431044 -0.022374 -0.010304 -1.305812
    48 1.719574 -0.000005 0.000000 0.038733 -0.074557 -1.586292
    49 1.209183 -0.000001 0.000000 0.047518 -0.079997 -1.582137
    50 3.859825 -0.148935 -1.331284 -0.549076 -0.024863 -1.454250
    51 1.719425 0.000000 0.000000 -0.002107 0.024342 -1.684730
    52 1.099663 0.000000 0.000000 -0.007967 0.046800 -1.711623
    53 0.806015 -0.359835 -1.318335 1.200555 0.246503 -0.836612
    54 1.789780 0.000001 0.000000 0.046973 0.150711 0.289172
    55 1.207001 0.000000 0.000004 0.215981 -0.000002 0.942472
    56 3.643179 -1.117762 -6.586830 1.677301 0.043048 -2.001890
  time 2
    0 1.610982 -0.335943 37.656733 1.568000 0.047562 -0.075686
    1 -0.124999 3.345128 -2.981903 1.575367 0.102068 1.617142
    2 4.018331 0.000000 0.000000 -0.078473 0.027553 0.219474
    3 3.518564 0.000000 0.000000 -0.015614 0.001942 0.249351
    4 8.942642 0.000000 0.000000 0.014308 -0.093216 0.235163
    5 3.307269 0.000000 -0.000004 3.137477 0.001222 0.577187
    6 3.593710 -0.000001 -0.000004 0.031604 -0.070757 1.028690
    7 1.999994 -3.000001 0.000004 -1.570753 -0.000007 -1.326410
    8 2.033349 1.000771 -1.937607 -1.379791 1.273488 -3.056479
    9 6.028143 0.000002 -0.000004 1.646452 -0.055501 -0.627656
    10 11.692545 0.000000 0.000000 -0.000011 0.000000 -1.952169
    11 11.481701 0.000000 0.000000 -0.853043 0.197800 -0.014374
    12 2.676086 -1.712440 0.000000 -1.570792 0.000003 -1.570793
    13 2.033341 1.000767 1.937660 2.412174 -1.487397 2.120583
    14 6.028140 0.000002 0.000000 -1.333221 0.031288 -1.054244
    15 11.692553 0.000000 0.000011 -0.000013 0.000000 -1.868773
    16 11.481667 0.000000 -0.000031 1.575391 -0.108951 -0.097558
    17 2.676086 -1.712440 0.000004 1.570793 0.000005 1.570793
    18 -3.890452 0.000004 0.000004 -1.320956 -0.250514 -1.721871
    19 17.848171 0.000000 0.000004 0.000009 0.000000 0.430325
    20 16.525251 0.000000 0.000004 0.150655 -0.022155 -1.076005
    21 6.879454 0.000000 0.000008 -0.081052 -0.002606 -0.598447
    22 3.890452 -0.000004 -0.000004 -1.636891 -0.413726 -1.372584
    23 17.848175 0.000000 -0.000004 0.000010 0.000000 1.294610
    24 16.525246 0.000000 0.000004 -0.102555 -0.096255 -0.836053
    25 6.879452 0.000000 0.000000 -0.004626 -0.003088 -0.899271
    26 3.859703 -0.142403 -1.191975 -0.568929 -0.013613 -1.526889
    27 1.312565 0.000001 0.000004 -0.086569 0.239740 -1.554263
    28 0.729362 0.000002 0.000004 -0.176890 0.315566 -1.429227
    29 3.942326 0.046774 -0.431438 0.030304 -0.060024 -1.757047
    30 1.539093 0.000001 0.000000 -0.058651 0.149388 -1.571890
    31 1.196320 -0.000001 0.000004 -0.107662 0.188362 -1.488327
    32 3.883686 -0.046767 0.431446 0.134425 0.056053 -1.771010
    33 1.719570 0.000002 0.000004 -0.030686 0.057173 -1.750786
    34 1.209183 -0.000001 -0.000004 -0.034239 0.059372 -1.537001
    35 3.859859 -0.137950 1.332462 0.524244 -0.087934 -1.819404
    36 1.719429 0.000002 0.000000 0.072023 -0.125294 -1.808387
    37 1.099670 0.000001 0.000004 0.072020 -0.125295 -0.669563
    38 0.806049 -0.348922 1.321259 -0.786557 -0.413955 -0.992027
    39 1.789787 0.000000 0.000004 0.004364 0.030238 0.718398
    40 1.207001 0.000000 -0.000004 0.102534 0.030239 0.502412
    41 3.859665 -0.132565 1.193108 0.693436 -0.009816 -1.600821
    42 1.312561 0.000000 0.000000 0.110761 -0.297055 -1.436131
    43 0.729366 0.000002 0.000000 0.157643 -0.341690 -1.408450
    44 3.942291 0.050330 0.431042 0.331339 -0.008608 -1.603808
    45 1.539097 0.000003 0.000000 0.050214 -0.153911 -1.591790
    46 1.196320 0.000000 0.000000 0.132538 -0.225788 -1.824936
    47 3.883648 -0.050325 -0.431044 -0.022374 -0.010304 -1.305812
    48 1.719574 -0.000005 0.000000 0.038733 -0.074557 -1.586292
    49 1.209183 -0.000001 0.000000 0.047518 -0.079997 -1.582137
    50 3.859825 -0.148935 -1.331284 -0.549076 -0.024863 -1.454250
    51 1.719425 0.000000 0.000000 -0.002107 0.024342 -1.684730
    52 1.099663 0.000000 0.000000 -0.007967 0.046800 -1.711623
    53 0.806015 -0.359835 -1.318335 1.200555 0.246503 -0.836612
    54 1.789780 0.000001 0.000000 0.046973 0.150711 0.289172
    55 1.207001 0.000000 0.000004 0.215981 -0.000002 0.942472
    56 3.643179 -1.117762 -6.586830 1.677301 0.043048 -2.001890
  time 3
    0 1.610982 -0.335943 38.293472 1.575787 0.047849 -0.092797
    1 -0.124999 3.345128 -2.981903 1.575367 0.102068 1.617142
    2 4.018331 0.000000 0.000000 -0.078155 0.017701 0.220025
    3 3.518564 0.000000 0.000000 -0.015614 0.001942 0.242209
    4 8.942642 0.000000 0.000000 0.009249 -0.086720 0.235055
    5 3.307269 0.000000 -0.000004 3.137477 0.001222 0.577187
    6 3.593710 -0.000001 -0.000004 0.061168 -0.069043 1.028901
    7 1.999994 -3.000001 0.000004 -1.570753 -0.000007 -1.326410
    8 2.033349 1.000771 -1.937607 -1.379791 1.273488 -3.056479
    9 6.028143 0.000002 -0.000004 1.646268 -0.111107 -0.605675
    10 11.692545 0.000000 0.000000 -0.000011 0.000000 -1.946907
    11 11.481701 0.000000 0.000000 -0.853043 0.197800 -0.014374
    12 2.676086 -1.712440 0.000000 -1.570792 0.000003 -1.570793
    13 2.033341 1.000767 1.937660 2.412174 -1.487397 2.120583
    14 6.028140 0.000002 0.000000 -1.350233 -0.084403 -1.096080
    15 11.692553 0.000000 0.000011 -0.000013 0.000000 -1.850520
    16 11.481667 0.000000 -0.000031 1.575391 -0.108951 -0.097558
    17 2.676086 -1.712440 0.000004 1.570793 0.000005 1.570793
    18 -3.890452 0.000004 0.000004 -1.445221 -0.234143 -1.750894
    19 17.848171 0.000000 0.000004 0.000009 0.000000 0.202119
    20 16.525251 0.000000 0.000004 0.250548 0.011862 -0.779704
    21 6.879454 0.000000 0.000008 -0.081076 -0.002402 -0.572386
    22 3.890452 -0.000004 -0.000004 -1.699140 -0.363822 -1.297585
    23 17.848175 0.000000 -0.000004 0.000010 0.000000 1.126390
    24 16.525246 0.000000 0.000004 -0.118543 -0.049402 -0.772928
    25 6.879452 0.000000 0.000000 -0.003871 -0.003136 -1.027613
    26 3.859703 -0.142403 -1.191975 -0.568929 -0.013613 -1.526889
    27 1.312565 0.000001 0.000004 -0.086569 0.239740 -1.554263
    28 0.729362 0.000002 0.000004 -0.176890 0.315566 -1.429227
    29 3.942326 0.046774 -0.431438 0.030304 -0.060024 -1.757047
    30 1.539093 0.000001 0.000000 -0.058651 0.149388 -1.571890
    31 1.196320 -0.000001 0.000004 -0.107662 0.188362 -1.488327
    32 3.883686 -0.046767 0.431446 0.134425 0.056053 -1.771010
    33 1.719570 0.000002 0.000004 -0.030686 0.057173 -1.750786
    34 1.209183 -0.000001 -0.000004 -0.034239 0.059372 -1.537001
    35 3.859859 -0.137950 1.332462 0.524244 -0.087934 -1.819404
    36 1.719429 0.000002 0.000000 0.072023 -0.125294 -1.808387
    37 1.099670 0.000001 0.000004 0.072020 -0.125295 -0.669563
    38 0.806049 -0.348922 1.321259 -0.786557 -0.413955 -0.992027
    39 1.789787 0.000000 0.000004 0.004364 0.030238 0.718398
    40 1.207001 0.000000 -0.000004 0.102534 0.030239 0.502412
    41 3.859665 -0.132565 1.193108 0.693436 -0.009816 -1.600821
    42 1.312561 0.000000 0.000000 0.110761 -0.297055 -1.436131
    43 0.729366 0.000002 0.000000 0.157643 -0.341690 -1.408450
    44 3.942291 0.050330 0.431042 0.331339 -0.008608 -1.603808
    45 1.539097 0.000003 0.000000 0.050214 -0.153911 -1.591790
    46 1.196320 0.000000 0.000000 0.132538 -0.225788 -1.824936
    47 3.883648 -0.050325 -0.431044 -0.022374 -0.010304 -1.305812
    48 1.719574 -0.000005 0.000000 0.038733 -0.074557 -1.586292
    49 1.209183 -0.000001 0.000000 0.047518 -0.079997 -1.582137
    50 3.859825 -0.148935 -1.331284 -0.549076 -0.024863 -1.454250
    51 1.719425 0.000000 0.000000 -0.002107 0.024342 -1.684730
    52 1.099663 0.000000 0.000000 -0.007967 0.046800 -1.711623
    53 0.806015 -0.359835 -1.318335 1.200555 0.246503 -0.836612
    54 1.789780 0.000001 0.000000 0.046973 0.150711 0.289172
    55 1.207001 0.000000 0.000004 0.215981 -0.000002 0.942472
    56 3.643179 -1.117762 -6.586830 1.677301 0.043048 -2.001890
  time 4
    0 1.610982 -0.335943 38.652858 1.582812 0.045273 -0.097869
    1 -0.124999 3.345128 -2.981903 1.575367 0.102068 1.617142
    2 4.018331 0.000000 0.000000 -0.077912 0.009899 0.220073
    3 3.518564 0.000000 0.000000 -0.015614 0.001942 0.234994
    4 8.942642 0.000000 0.000000 0.002381 -0.081651 0.235009
    5 3.307269 0.000000 -0.000004 3.137477 0.001222 0.577187
    6 3.593710 -0.000001 -0.000004 0.085952 -0.067605 1.029288
    7 1.999994 -3.000001 0.000004 -1.570753 -0.000007 -1.326410
    8 2.033349 1.000771 -1.937607 -1.379791 1.273488 -3.056479
    9 6.028143 0.000002 -0.000004 1.651322 -0.149625 -0.593342
    10 11.692545 0.000000 0.000000 -0.000011 0.000000 -1.935792
    11 11.481701 0.000000 0.000000 -0.853043 0.197800 -0.014374
    12 2.676086 -1.712440 0.000000 -1.570792 0.000003 -1.570793
    13 2.033341 1.000767 1.937660 2.412174 -1.487397 2.120583
    14 6.028140 0.000002 0.000000 -1.355728 -0.172638 -1.125116
    15 11.692553 0.000000 0.000011 -0.000013 0.000000 -1.819817
    16 11.481667 0.000000 -0.000031 1.575452 -0.108951 -0.097558
    17 2.676086 -1.712440 0.000004 1.570793 0.000005 1.570793
    18 -3.890452 0.000004 0.000004 -1.538744 -0.465655 -1.805616
    19 17.848171 0.000000 0.000004 0.000009 0.000000 0.582661
    20 16.525251 0.000000 0.000004 0.313295 0.052445 -0.810772
    21 6.879454 0.000000 0.000008 -0.080860 -0.002402 -0.589634
    22 3.890452 -0.000004 -0.000004 -1.753230 -0.295026 -1.227467
    23 17.848175 0.000000 -0.000004 0.000010 0.000000 0.956167
    24 16.525246 0.000000 0.000004 -0.120652 0.018807 -0.742601
    25 6.879452 0.000000 0.000000 -0.003416 -0.003076 -1.107961
    26 3.859703 -0.142403 -1.191975 -0.568929 -0.013613 -1.526889
    27 1.312565 0.000001 0.000004 -0.086569 0.239740 -1.554310
    28 0.729362 0.000002 0.000004 -0.176890 0.315566 -1.429227
    29 3.942326 0.046774 -0.431438 0.030304 -0.060024 -1.757047
    30 1.539093 0.000001 0.000000 -0.058651 0.149388 -1.571890
    31 1.196320 -0.000001 0.000004 -0.107662 0.188362 -1.488327
    32 3.883686 -0.046767 0.431446 0.134425 0.056053 -1.771010
    33 1.719570 0.000002 0.000004 -0.030686 0.057173 -1.750786
    34 1.209183 -0.000001 -0.000004 -0.034239 0.059372 -1.537001
    35 3.859859 -0.137950 1.332462 0.524244 -0.087934 -1.819404
    36 1.719429 0.000002 0.000000 0.072023 -0.125294 -1.808387
    37 1.099670 0.000001 0.000004 0.072020 -0.125295 -0.669563
    38 0.806049 -0.348922 1.321259 -0.786557 -0.413955 -0.992027
    39 1.789787 0.000000 0.000004 0.004364 0.030238 0.718398
    40 1.207001 0.000000 -0.000004 0.102534 0.030239 0.502412
    41 3.859665 -0.132565 1.193108 0.693436 -0.009816 -1.600821
    42 1.312561 0.000000 0.000000 0.110761 -0.297055 -1.436131
    43 0.729366 0.000002 0.000000 0.157643 -0.341690 -1.408450
    44 3.942291 0.050330 0.431042 0.331339 -0.008608 -1.603808
    45 1.539097 0.000003 0.000000 0.050214 -0.153911 -1.591790
    46 1.196320 0.000000 0.000000 0.132538 -0.225788 -1.824936
    47 3.883648 -0.050325 -0.431044 -0.022374 -0.010304 -1.305812
    48 1.719574 -0.000005 0.000000 0.038733 -0.074557 -1.586292
    49 1.209183 -0.000001 0.000000 0.047518 -0.079997 -1.582137
    50 3.859825 -0.148935 -1.331284 -0.549076 -0.024863 -1.454250
    51 1.719425 0.000000 0.000000 -0.002107 0.024342 -1.684730
    52 1.099663 0.000000 0.000000 -0.007967 0.046800 -1.711623
    53 0.806015 -0.359835 -1.318335 1.200555 0.246503 -0.836612
    54 1.789780 0.000001 0.000000 0.046973 0.150711 0.289172
    55 1.207001 0.000000 0.000004 0.215981 -0.000002 0.942472
    56 3.643179 -1.117762 -6.586830 1.677301 0.043048 -2.001890
  time 5
    0 1.610982 -0.335943 38.465352 1.588039 0.038381 -0.090677
    1 -0.124999 3.345128 -2.981903 1.574442 0.102080 1.614916
    2 4.018331 0.000000 0.000000 -0.082810 0.003535 0.219522
    3 3.518564 0.000000 0.000000 -0.020133 -0.000611 0.226605
    4 8.942642 0.000000 0.000000 -0.007520 -0.077588 0.234963
    5 3.307269 0.000000 -0.000004 3.137477 0.001222 0.577187
    6 3.593710 -0.000001 -0.000004 0.096343 -0.067018 1.029499
    7 1.999994 -3.000001 0.000004 -1.570753 -0.000007 -1.326410
    8 2.033349 1.000771 -1.937607 -1.379791 1.273488 -3.056479
    9 6.028143 0.000002 -0.000004 1.650495 -0.171473 -0.588819
    10 11.692545 0.000000 0.000000 -0.000011 0.000000 -1.925005
    11 11.481701 0.000000 0.000000 -0.852072 0.181073 -0.014276
    12 2.676086 -1.712440 0.000000 -1.570792 0.000003 -1.570793
    13 2.033341 1.000767 1.937660 2.412174 -1.487397 2.120583
    14 6.028140 0.000002 0.000000 -1.361574 -0.227683 -1.141663
    15 11.692553 0.000000 0.000011 -0.000013 0.000000 -1.786248
    16 11.481667 0.000000 -0.000031 1.575452 -0.108951 -0.097558
    17 2.676086 -1.712440 0.000004 1.570793 0.000005 1.570793
    18 -3.890452 0.000004 0.000004 -1.618519 -0.693860 -1.827351
    19 17.848171 0.000000 0.000004 0.000009 0.000000 1.021059
    20 16.525251 0.000000 0.000004 0.378906 0.062068 -0.881052
    21 6.879454 0.000000 0.000008 -0.080537 -0.002390 -0.616721
    22 3.890452 -0.000004 -0.000004 -1.781866 -0.255895 -1.185946
    23 17.848175 0.000000 -0.000004 0.000010 0.000000 0.853683
    24 16.525246 0.000000 0.000004 -0.113317 0.094720 -0.776847
    25 6.879452 0.000000 0.000000 -0.003332 -0.002944 -1.107961
    26 3.859703 -0.142403 -1.191975 -0.568929 -0.013613 -1.526889
    27 1.312565 0.000001 0.000004 -0.086569 0.239740 -1.554263
    28 0.729362 0.000002 0.000004 -0.176890 0.315566 -1.429227
    29 3.942326 0.046774 -0.431438 0.030304 -0.060024 -1.757047
    30 1.539093 0.000001 0.000000 -0.058651 0.149388 -1.571890
    31 1.196320 -0.000001 0.000004 -0.107662 0.188362 -1.488327
    32 3.883686 -0.046767 0.431446 0.134425 0.056053 -1.771010
    33 1.719570 0.000002 0.000004 -0.030686 0.057173 -1.750786
    34 1.209183 -0.000001 -0.000004 -0.034239 0.059372 -1.537001
    35 3.859859 -0.137950 1.332462 0.524244 -0.087934 -1.819404
    36 1.719429 0.000002 0.000000 0.072023 -0.125294 -1.808387
    37 1.099670 0.000001 0.000004 0.072020 -0.125295 -0.669563
    38 0.806049 -0.348922 1.321259 -0.786557 -0.413955 -0.992027
    39 1.789787 0.000000 0.000004 0.004364 0.030238 0.718398
    40 1.207001 0.000000 -0.000004 0.102534 0.030239 0.502412
    41 3.859665 -0.132565 1.193108 0.693436 -0.009816 -1.600821
    42 1.312561 0.000000 0.000000 0.110761 -0.297055 -1.436131
    43 0.729366 0.000002 0.000000 0.157643 -0.341690 -1.408450
    44 3.942291 0.050330 0.431042 0.331339 -0.008608 -1.603808
    45 1.539097 0.000003 0.000000 0.050214 -0.153911 -1.591790
    46 1.196320 0.000000 0.000000 0.132538 -0.225788 -1.824936
    47 3.883648 -0.050325 -0.431044 -0.022374 -0.010304 -1.305812
    48 1.719574 -0.000005 0.000000 0.038733 -0.074557 -1.586292
    49 1.209183 -0.000001 0.000000 0.047518 -0.079997 -1.582137
    50 3.859825 -0.148935 -1.331284 -0.549076 -0.024863 -1.454250
    51 1.719425 0.000000 0.000000 -0.002107 0.024342 -1.684730
    52 1.099663 0.000000 0.000000 -0.007967 0.046800 -1.711623
    53 0.806015 -0.359835 -1.318335 1.200555 0.246503 -0.836612
    54 1.789780 0.000001 0.000000 0.046973 0.150711 0.289172
    55 1.207001 0.000000 0.000004 0.215981 -0.000002 0.942472
    56 3.643179 -1.117762 -6.586830 1.677301 0.043048 -2.001890
  time 6
    0 1.610982 -0.335943 37.758299 1.590163 0.028386 -0.075535
    1 -0.124999 3.345128 -2.981903 1.573322 0.102080 1.612294
    2 4.018331 0.000000 0.000000 -0.088400 -0.002709 0.218611
    3 3.518564 0.000000 0.000000 -0.025166 -0.003775 0.221056
    4 8.942642 0.000000 0.000000 -0.019728 -0.073537 0.234902
    5 3.307269 0.000000 -0.000004 3.137477 0.001222 0.577187
    6 3.593710 -0.000001 -0.000004 0.093998 -0.069463 1.029394
    7 1.999994 -3.000001 0.000004 -1.570753 -0.000007 -1.326410
    8 2.033349 1.000771 -1.937607 -1.379791 1.273488 -3.056479
    9 6.028143 0.000002 -0.000004 1.649025 -0.182493 -0.590480
    10 11.692545 0.000000 0.000000 -0.000011 0.000000 -1.918033
    11 11.481701 0.000000 0.000000 -0.851748 0.175909 -0.014276
    12 2.676086 -1.712440 0.000000 -1.570792 0.000003 -1.570793
    13 2.033341 1.000767 1.937660 2.412174 -1.487397 2.120583
    14 6.028140 0.000002 0.000000 -1.364906 -0.256589 -1.148531
    15 11.692553 0.000000 0.000011 -0.000013 0.000000 -1.764987
    16 11.481667 0.000000 -0.000031 1.575391 -0.108951 -0.097558
    17 2.676086 -1.712440 0.000004 1.570793 0.000005 1.570793
    18 -3.890452 0.000004 0.000004 -1.653863 -0.792346 -1.821789
    19 17.848171 0.000000 0.000004 0.000009 0.000000 1.270418
    20 16.525251 0.000000 0.000004 0.428358 0.004681 -0.878136
    21 6.879454 0.000000 0.000008 -0.080117 -0.002354 -0.652927
    22 3.890452 -0.000004 -0.000004 -1.775176 -0.254548 -1.188490
    23 17.848175 0.000000 -0.000004 0.000010 0.000000 0.801783
    24 16.525246 0.000000 0.000004 -0.135952 0.182405 -0.861195
    25 6.879452 0.000000 0.000000 -0.003344 -0.002968 -1.107961
    26 3.859703 -0.142403 -1.191975 -0.568929 -0.013613 -1.526889
    27 1.312565 0.000001 0.000004 -0.086569 0.239740 -1.554310
    28 0.729362 0.000002 0.000004 -0.176890 0.315566 -1.429227
    29 3.942326 0.046774 -0.431438 0.030304 -0.060024 -1.757047
    30 1.539093 0.000001 0.000000 -0.058663 0.149388 -1.571890
    31 1.196320 -0.000001 0.000004 -0.107662 0.188362 -1.488327
    32 3.883686 -0.046767 0.431446 0.134425 0.056053 -1.771010
    33 1.719570 0.000002 0.000004 -0.030686 0.057173 -1.750786
    34 1.209183 -0.000001 -0.000004 -0.034239 0.059372 -1.537001
    35 3.859859 -0.137950 1.332462 0.524244 -0.087934 -1.819404
    36 1.719429 0.000002 0.000000 0.072023 -0.125294 -1.808387
    37 1.099670 0.000001 0.000004 0.072020 -0.125295 -0.669563
    38 0.806049 -0.348922 1.321259 -0.786557 -0.413955 -0.992027
    39 1.789787 0.000000 0.000004 0.004364 0.030238 0.718398
    40 1.207001 0.000000 -0.000004 0.102534 0.030239 0.502412
    41 3.859665 -0.132565 1.193108 0.693436 -0.009816 -1.600821
    42 1.312561 0.000000 0.000000 0.110761 -0.297055 -1.436131
    43 0.729366 0.000002 0.000000 0.157643 -0.341690 -1.408450
    44 3.942291 0.050330 0.431042 0.331339 -0.008608 -1.603808
    45 1.539097 0.000003 0.000000 0.050214 -0.153911 -1.591790
    46 1.196320 0.000000 0.000000 0.132538 -0.225788 -1.824936
    47 3.883648 -0.050325 -0.431044 -0.022374 -0.010304 -1.305812
    48 1.719574 -0.000005 0.000000 0.038733 -0.074557 -1.586292
    49 1.209183 -0.000001 0.000000 0.047518 -0.079997 -1.582137
    50 3.859825 -0.148935 -1.331284 -0.549076 -0.024863 -1.454250
    51 1.719425 0.000000 0.000000 -0.002107 0.024342 -1.684730
    52 1.099663 0.000000 0.000000 -0.007967 0.046800 -1.711623
    53 0.806015 -0.359835 -1.318335 1.200555 0.246503 -0.836612
    54 1.789780 0.000001 0.000000 0.046973 0.150711 0.289172
    55 1.207001 0.000000 0.000004 0.215981 -0.000002 0.942472
    56 3.643179 -1.117762 -6.586830 1.677301 0.043048 -2.001890
  time 7
    0 1.610982 -0.335943 36.863740 1.580361 0.017732 -0.054185
    1 -0.124999 3.345128 -2.981903 1.572105 0.102080 1.609376
    2 4.018331 0.000000 0.000000 -0.093691 -0.007922 0.217628
    3 3.518564 0.000000 0.000000 -0.029960 -0.006747 0.222302
    4 8.942642 0.000000 0.000000 -0.031732 -0.070266 0.234825
    5 3.307269 0.000000 -0.000004 3.137477 0.001222 0.577187
    6 3.593710 -0.000001 -0.000004 0.087331 -0.075527 1.029112
    7 1.999994 -3.000001 0.000004 -1.570753 -0.000007 -1.326410
    8 2.033349 1.000771 -1.937607 -1.379791 1.273488 -3.056479
    9 6.028143 0.000002 -0.000004 1.645349 -0.189694 -0.597053
    10 11.692545 0.000000 0.000000 -0.000011 0.000000 -1.916652
    11 11.481701 0.000000 0.000000 -0.852288 0.184970 -0.014325
    12 2.676086 -1.712440 0.000000 -1.570792 0.000003 -1.570793
    13 2.033341 1.000767 1.937660 2.412174 -1.487397 2.120583
    14 6.028140 0.000002 0.000000 -1.361750 -0.258545 -1.149585
    15 11.692553 0.000000 0.000011 -0.000013 0.000000 -1.756105
    16 11.481667 0.000000 -0.000031 1.575391 -0.108951 -0.097558
    17 2.676086 -1.712440 0.000004 1.570793 0.000005 1.570793
    18 -3.890452 0.000004 0.000004 -1.604299 -0.794057 -1.818210
    19 17.848171 0.000000 0.000004 0.000009 0.000000 1.400704
    20 16.525251 0.000000 0.000004 0.406735 -0.065766 -0.835656
    21 6.879454 0.000000 0.000008 -0.079566 -0.002414 -0.724046
    22 3.890452 -0.000004 -0.000004 -1.704932 -0.288841 -1.274556
    23 17.848175 0.000000 -0.000004 0.000010 0.000000 0.780372
    24 16.525246 0.000000 0.000004 -0.208910 0.150669 -1.030132
    25 6.879452 0.000000 0.000000 -0.003955 -0.003136 -1.012260
    26 3.859703 -0.142403 -1.191975 -0.568929 -0.013613 -1.526889
    27 1.312565 0.000001 0.000004 -0.086569 0.239740 -1.554263
    28 0.729362 0.000002 0.000004 -0.176890 0.315566 -1.429227
    29 3.942326 0.046774 -0.431438 0.030304 -0.060024 -1.757047
    30 1.539093 0.000001 0.000000 -0.058663 0.149388 -1.571890
    31 1.196320 -0.000001 0.000004 -0.107662 0.188362 -1.488327
    32 3.883686 -0.046767 0.431446 0.134425 0.056053 -1.771010
    33 1.719570 0.000002 0.000004 -0.030686 0.057173 -1.750786
    34 1.209183 -0.000001 -0.000004 -0.034239 0.059372 -1.537001
    35 3.859859 -0.137950 1.332462 0.524244 -0.087934 -1.819404
    36 1.719429 0.000002 0.000000 0.072023 -0.125294 -1.808387
    37 1.099670 0.000001 0.000004 0.072020 -0.125295 -0.669563
    38 0.806049 -0.348922 1.321259 -0.786557 -0.413955 -0.992027
    39 1.789787 0.000000 0.000004 0.004364 0.030238 0.718398
    40 1.207001 0.000000 -0.000004 0.102534 0.030239 0.502412
    41 3.859665 -0.132565 1.193108 0.693436 -0.009816 -1.600821
    42 1.312561 0.000000 0.000000 0.110761 -0.297055 -1.436131
    43 0.729366 0.000002 0.000000 0.157643 -0.341690 -1.408450
    44 3.942291 0.050330 0.431042 0.331339 -0.008608 -1.603808
    45 1.539097 0.000003 0.000000 0.050214 -0.153911 -1.591790
    46 1.196320 0.000000 0.000000 0.132538 -0.225788 -1.824936
    47 3.883648 -0.050325 -0.431044 -0.022374 -0.010304 -1.305812
    48 1.719574 -0.000005 0.000000 0.038733 -0.074557 -1.586292
    49 1.209183 -0.000001 0.000000 0.047518 -0.079997 -1.582137
    50 3.859825 -0.148935 -1.331284 -0.549076 -0.024863 -1.454250
    51 1.719425 0.000000 0.000000 -0.002107 0.024342 -1.684730
    52 1.099663 0.000000 0.000000 -0.007967 0.046800 -1.711623
    53 0.806015 -0.359835 -1.318335 1.200555 0.246503 -0.836612
    54 1.789780 0.000001 0.000000 0.046973 0.150711 0.289172
    55 1.207001 0.000000 0.000004 0.215981 -0.000002 0.942472
    56 3.643179 -1.117762 -6.586830 1.677301 0.043048 -2.001890
  time 8
    0 1.610982 -0.335943 36.148875 1.562010 0.008803 -0.029958
    1 -0.124999 3.345128 -2.981903 1.571180 0.102080 1.606754
    2 4.018331 0.000000 0.000000 -0.097692 -0.011122 0.216789
    3 3.518564 0.000000 0.000000 -0.033783 -0.008809 0.226125
    4 8.942642 0.000000 0.000000 -0.041085 -0.068516 0.234763
    5 3.307269 0.000000 -0.000004 3.137477 0.001222 0.577187
    6 3.593710 -0.000001 -0.000004 0.076894 -0.083125 1.028795
    7 1.999994 -3.000001 0.000004 -1.570753 -0.000007 -1.326410
    8 2.033349 1.000771 -1.937607 -1.379791 1.273488 -3.056479
    9 6.028143 0.000002 -0.000004 1.639467 -0.193461 -0.607690
    10 11.692545 0.000000 0.000000 -0.000011 0.000000 -1.920862
    11 11.481701 0.000000 0.000000 -0.853259 0.201316 -0.014374
    12 2.676086 -1.712440 0.000000 -1.570792 0.000003 -1.570793
    13 2.033341 1.000767 1.937660 2.412174 -1.487397 2.120583
    14 6.028140 0.000002 0.000000 -1.350935 -0.234699 -1.146424
    15 11.692553 0.000000 0.000011 -0.000013 0.000000 -1.758553
    16 11.481667 0.000000 -0.000031 1.575391 -0.108951 -0.097558
    17 2.676086 -1.712440 0.000004 1.570793 0.000005 1.570793
    18 -3.890452 0.000004 0.000004 -1.519567 -0.747424 -1.797050
    19 17.848171 0.000000 0.000004 0.000009 0.000000 1.486963
    20 16.525251 0.000000 0.000004 0.342114 -0.112345 -0.778850
    21 6.879454 0.000000 0.000008 -0.078931 -0.002510 -0.821872
    22 3.890452 -0.000004 -0.000004 -1.589899 -0.353303 -1.426616
    23 17.848175 0.000000 -0.000004 0.000010 0.000000 0.813177
    24 16.525246 0.000000 0.000004 -0.216787 -0.048082 -1.257251
    25 6.879452 0.000000 0.000000 -0.005705 -0.003028 -0.746684
    26 3.859703 -0.142403 -1.191975 -0.568929 -0.013613 -1.526889
    27 1.312565 0.000001 0.000004 -0.086569 0.239740 -1.554263
    28 0.729362 0.000002 0.000004 -0.176890 0.315566 -1.429227
    29 3.942326 0.046774 -0.431438 0.030304 -0.060024 -1.757047
    30 1.539093 0.000001 0.000000 -0.058651 0.149388 -1.571890
    31 1.196320 -0.000001 0.000004 -0.107662 0.188362 -1.488327
    32 3.883686 -0.046767 0.431446 0.134425 0.056053 -1.771010
    33 1.719570 0.000002 0.000004 -0.030686 0.057173 -1.750786
    34 1.209183 -0.000001 -0.000004 -0.034239 0.059372 -1.537001
    35 3.859859 -0.137950 1.332462 0.524244 -0.087934 -1.819404
    36 1.719429 0.000002 0.000000 0.072023 -0.125294 -1.808387
    37 1.099670 0.000001 0.000004 0.072020 -0.125295 -0.669563
    38 0.806049 -0.348922 1.321259 -0.786557 -0.413955 -0.992027
    39 1.789787 0.000000 0.000004 0.004364 0.030238 0.718398
    40 1.207001 0.000000 -0.000004 0.102534 0.030239 0.502412
    41 3.859665 -0.132565 1.193108 0.693436 -0.009816 -1.600821
    42 1.312561 0.000000 0.000000 0.110761 -0.297055 -1.436131
    43 0.729366 0.000002 0.000000 0.157643 -0.341690 -1.408450
    44 3.942291 0.050330 0.431042 0.331339 -0.008608 -1.603808
    45 1.539097 0.000003 0.000000 0.050214 -0.153911 -1.591790
    46 1.196320 0.000000 0.000000 0.132538 -0.225788 -1.824936
    47 3.883648 -0.050325 -0.431044 -0.022374 -0.010304 -1.305812
    48 1.719574 -0.000005 0.000000 0.038733 -0.074557 -1.586292
    49 1.209183 -0.000001 0.000000 0.047518 -0.079997 -1.582137
    50 3.859825 -0.148935 -1.331284 -0.549076 -0.024863 -1.454250
    51 1.719425 0.000000 0.000000 -0.002107 0.024342 -1.684730
    52 1.099663 0.000000 0.000000 -0.007967 0.046800 -1.711623
    53 0.806015 -0.359835 -1.318335 1.200555 0.246503 -0.836612
    54 1.789780 0.000001 0.000000 0.046973 0.150711 0.289172
    55 1.207001 0.000000 0.000004 0.215981 -0.000002 0.942472
    56 3.643179 -1.117762 -6.586830 1.677301 0.043060 -2.001890
  time 9
    0 1.610982 -0.335943 35.941837 1.551610 0.003926 -0.005958
    1 -0.124999 3.345128 -2.981903 1.570790 0.102080 1.604676
    2 4.018331 0.000000 0.000000 -0.099412 -0.011337 0.216418
    3 3.518564 0.000000 0.000000 -0.035880 -0.009168 0.229265
    4 8.942642 0.000000 0.000000 -0.045290 -0.069079 0.234733
    5 3.307269 0.000000 -0.000004 3.137477 0.001222 0.577187
    6 3.593710 -0.000001 -0.000004 0.063284 -0.090280 1.028444
    7 1.999994 -3.000001 0.000004 -1.570753 -0.000007 -1.326410
    8 2.033349 1.000771 -1.937607 -1.379791 1.273488 -3.056479
    9 6.028143 0.000002 -0.000004 1.640662 -0.178570 -0.626702
    10 11.692545 0.000000 0.000000 -0.000011 0.000000 -1.928359
    11 11.481701 0.000000 0.000000 -0.854661 0.224442 -0.014570
    12 2.676086 -1.712440 0.000000 -1.570792 0.000003 -1.570793
    13 2.033341 1.000767 1.937660 2.412174 -1.487397 2.120583
    14 6.028140 0.000002 0.000000 -1.335910 -0.198137 -1.134560
    15 11.692553 0.000000 0.000011 -0.000013 0.000000 -1.770582
    16 11.481667 0.000000 -0.000031 1.575391 -0.108951 -0.097558
    17 2.676086 -1.712440 0.000004 1.570793 0.000005 1.570793
    18 -3.890452 0.000004 0.000004 -1.436370 -0.656125 -1.735360
    19 17.848171 0.000000 0.000004 0.000009 0.000000 1.481208
    20 16.525251 0.000000 0.000004 0.267220 -0.106949 -0.690975
    21 6.879454 0.000000 0.000008 -0.078224 -0.002642 -0.950776
    22 3.890452 -0.000004 -0.000004 -1.487104 -0.394371 -1.568021
    23 17.848175 0.000000 -0.000004 0.000010 0.000000 0.750635
    24 16.525246 0.000000 0.000004 -0.168734 -0.194988 -1.294330
    25 6.879452 0.000000 0.000000 -0.007155 -0.002944 -0.597349
    26 3.859703 -0.142403 -1.191975 -0.568929 -0.013613 -1.526889
    27 1.312565 0.000001 0.000004 -0.086569 0.239740 -1.554263
    28 0.729362 0.000002 0.000004 -0.176890 0.315566 -1.429227
    29 3.942326 0.046774 -0.431438 0.030304 -0.060024 -1.757047
    30 1.539093 0.000001 0.000000 -0.058663 0.149388 -1.571890
    31 1.196320 -0.000001 0.000004 -0.107662 0.188362 -1.488327
    32 3.883686 -0.046767 0.431446 0.134425 0.056053 -1.771010
    33 1.719570 0.000002 0.000004 -0.030686 0.057173 -1.750786
    34 1.209183 -0.000001 -0.000004 -0.034239 0.059372 -1.537001
    35 3.859859 -0.137950 1.332462 0.524244 -0.087934 -1.819404
    36 1.719429 0.000002 0.000000 0.072023 -0.125294 -1.808387
    37 1.099670 0.000001 0.000004 0.072020 -0.125295 -0.669563
    38 0.806049 -0.348922 1.321259 -0.786557 -0.413955 -0.992027
    39 1.789787 0.000000 0.000004 0.004364 0.030238 0.718398
    40 1.207001 0.000000 -0.000004 0.102534 0.030239 0.502412
    41 3.859665 -0.132565 1.193108 0.693436 -0.009816 -1.600821
    42 1.312561 0.000000 0.000000 0.110761 -0.297055 -1.436131
    43 0.729366 0.000002 0.000000 0.157643 -0.341690 -1.408450
    44 3.942291 0.050330 0.431042 0.331339 -0.008608 -1.603808
    45 1.539097 0.000003 0.000000 0.050214 -0.153911 -1.591790
    46 1.196320 0.000000 0.000000 0.132538 -0.225788 -1.824936
    47 3.883648 -0.050325 -0.431044 -0.022374 -0.010304 -1.305812
    48 1.719574 -0.000005 0.000000 0.038733 -0.074557 -1.586292
    49 1.209183 -0.000001 0.000000 0.047518 -0.079997 -1.582137
    50 3.859825 -0.148935 -1.331284 -0.549076 -0.024863 -1.454250
    51 1.719425 0.000000 0.000000 -0.002107 0.024342 -1.684730
    52 1.099663 0.000000 0.000000 -0.007967 0.046800 -1.711623
    53 0.806015 -0.359835 -1.318335 1.200555 0.246503 -0.836612
    54 1.789780 0.000001 0.000000 0.046973 0.150711 0.289172
    55 1.207001 0.000000 0.000004 0.215981 -0.000002 0.942472
    56 3.643179 -1.117762 -6.586830 1.677301 0.043060 -2.001890
  time 10
    0 1.610982 -0.335943 36.305130 1.554005 0.002512 0.015014
    1 -0.124999 3.345128 -2.981903 1.570644 0.102068 1.603043
    2 4.018331 0.000000 0.000000 -0.098122 -0.007634 0.216370
    3 3.518564 0.000000 0.000000 -0.035964 -0.008269 0.230847
    4 8.942642 0.000000 0.000000 -0.045086 -0.072495 0.235117
    5 3.307269 0.000000 -0.000004 3.137477 0.001222 0.577187
    6 3.593710 -0.000001 -0.000004 0.047007 -0.094930 1.028197
    7 1.999994 -3.000001 0.000004 -1.570753 -0.000007 -1.326410
    8 2.033349 1.000771 -1.937607 -1.379791 1.273488 -3.056479
    9 6.028143 0.000002 -0.000004 1.647371 -0.131124 -0.661900
    10 11.692545 0.000000 0.000000 -0.000011 0.000000 -1.941448
    11 11.481701 0.000000 0.000000 -0.856496 0.254791 -0.014815
    12 2.676086 -1.712440 0.000000 -1.570792 0.000003 -1.570793
    13 2.033341 1.000767 1.937660 2.412174 -1.487397 2.120583
    14 6.028140 0.000002 0.000000 -1.321354 -0.140359 -1.106461
    15 11.692553 0.000000 0.000011 -0.000013 0.000000 -1.792053
    16 11.481667 0.000000 -0.000031 1.575452 -0.108951 -0.097558
    17 2.676086 -1.712440 0.000004 1.570793 0.000005 1.570793
    18 -3.890452 0.000004 0.000004 -1.346978 -0.552191 -1.658455
    19 17.848171 0.000000 0.000004 0.000009 0.000000 1.399060
    20 16.525251 0.000000 0.000004 0.185061 -0.044867 -0.594906
    21 6.879454 0.000000 0.000008 -0.077840 -0.002510 -1.003507
    22 3.890452 -0.000004 -0.000004 -1.400462 -0.445284 -1.689284
    23 17.848175 0.000000 -0.000004 0.000010 0.000000 0.652094
    24 16.525246 0.000000 0.000004 -0.146845 -0.280847 -1.109958
    25 6.879452 0.000000 0.000000 -0.006808 -0.002968 -0.629455
    26 3.859703 -0.142403 -1.191975 -0.568929 -0.013613 -1.526889
    27 1.312565 0.000001 0.000004 -0.086569 0.239740 -1.554310
    28 0.729362 0.000002 0.000004 -0.176890 0.315566 -1.429227
    29 3.942326 0.046774 -0.431438 0.030304 -0.060024 -1.757047
    30 1.539093 0.000001 0.000000 -0.058651 0.149388 -1.571890
    31 1.196320 -0.000001 0.000004 -0.107662 0.188362 -1.488327
    32 3.883686 -0.046767 0.431446 0.134425 0.056053 -1.771010
    33 1.719570 0.000002 0.000004 -0.030686 0.057173 -1.750786
    34 1.209183 -0.000001 -0.000004 -0.034239 0.059372 -1.537001
    35 3.859859 -0.137950 1.332462 0.524244 -0.087934 -1.819404
    36 1.719429 0.000002 0.000000 0.072023 -0.125294 -1.808387
    37 1.099670 0.000001 0.000004 0.072020 -0.125295 -0.669563
    38 0.806049 -0.348922 1.321259 -0.786557 -0.413955 -0.992027
    39 1.789787 0.000000 0.000004 0.004364 0.030238 0.718398
    40 1.207001 0.000000 -0.000004 0.102534 0.030239 0.502412
    41 3.859665 -0.132565 1.193108 0.693436 -0.009816 -1.600821
    42 1.312561 0.000000 0.000000 0.110761 -0.297055 -1.436131
    43 0.729366 0.000002 0.000000 0.157643 -0.341690 -1.408450
    44 3.942291 0.050330 0.431042 0.331339 -0.008608 -1.603808
    45 1.539097 0.000003 0.000000 0.050214 -0.153911 -1.591790
    46 1.196320 0.000000 0.000000 0.132538 -0.225788 -1.824936
    47 3.883648 -0.050325 -0.431044 -0.022374 -0.010304 -1.305812
    48 1.719574 -0.000005 0.000000 0.038733 -0.074557 -1.586292
    49 1.209183 -0.000001 0.000000 0.047518 -0.079997 -1.582137
    50 3.859825 -0.148935 -1.331284 -0.549076 -0.024863 -1.454250
    51 1.719425 0.000000 0.000000 -0.002107 0.024342 -1.684730
    52 1.099663 0.000000 0.000000 -0.007967 0.046800 -1.711623
    53 0.806015 -0.359835 -1.318335 1.200555 0.246503 -0.836612
    54 1.789780 0.000001 0.000000 0.046973 0.150711 0.289172
    55 1.207001 0.000000 0.000004 0.215981 -0.000002 0.942472
    56 3.643179 -1.117762 -6.586830 1.677301 0.043048 -2.001890
  time 11
    0 1.610982 -0.335943 36.934055 1.561139 0.002476 0.031518
    1 -0.124999 3.345128 -2.981903 1.570644 0.102068 1.601609
    2 4.018331 0.000000 0.000000 -0.094532 -0.000647 0.216394
    3 3.518564 0.000000 0.000000 -0.034562 -0.007035 0.232177
    4 8.942642 0.000000 0.000000 -0.043009 -0.077984 0.236746
    5 3.307269 0.000000 -0.000004 3.137477 0.001222 0.577187
    6 3.593710 -0.000001 -0.000004 0.028799 -0.095721 1.028127
    7 1.999994 -3.000001 0.000004 -1.570753 -0.000007 -1.326410
    8 2.033349 1.000771 -1.937607 -1.379791 1.273488 -3.056479
    9 6.028143 0.000002 -0.000004 1.652149 -0.045056 -0.711233
    10 11.692545 0.000000 0.000000 -0.000011 0.000000 -1.949801
    11 11.481701 0.000000 0.000000 -0.858654 0.290430 -0.015208
    12 2.676086 -1.712440 0.000000 -1.570792 0.000003 -1.570793
    13 2.033341 1.000767 1.937660 2.412174 -1.487397 2.120583
    14 6.028140 0.000002 0.000000 -1.310656 -0.040994 -1.057093
    15 11.692553 0.000000 0.000011 -0.000013 0.000000 -1.823314
    16 11.481667 0.000000 -0.000031 1.575391 -0.108951 -0.097558
    17 2.676086 -1.712440 0.000004 1.570793 0.000005 1.570793
    18 -3.890452 0.000004 0.000004 -1.282957 -0.441811 -1.565313
    19 17.848171 0.000000 0.000004 0.000009 0.000000 1.261598
    20 16.525251 0.000000 0.000004 0.122932 0.047809 -0.511606
    21 6.879454 0.000000 0.000008 -0.077672 -0.002366 -1.019540
    22 3.890452 -0.000004 -0.000004 -1.334705 -0.416798 -1.776450
    23 17.848175 0.000000 -0.000004 0.000010 0.000000 0.380201
    24 16.525246 0.000000 0.000004 -0.153522 -0.343504 -0.775520
    25 6.879452 0.000000 0.000000 -0.005993 -0.003016 -0.714784
    26 3.859703 -0.142403 -1.191975 -0.568929 -0.013613 -1.526889
    27 1.312565 0.000001 0.000004 -0.086569 0.239740 -1.554263
    28 0.729362 0.000002 0.000004 -0.176890 0.315566 -1.429270
    29 3.942326 0.046774 -0.431438 0.030304 -0.060024 -1.757047
    30 1.539093 0.000001 0.000000 -0.058651 0.149388 -1.571890
    31 1.196320 -0.000001 0.000004 -0.107662 0.188362 -1.488372
    32 3.883686 -0.046767 0.431446 0.134425 0.056053 -1.771064
    33 1.719570 0.000002 0.000004 -0.030686 0.057173 -1.750786
    34 1.209183 -0.000001 -0.000004 -0.034239 0.059372 -1.537001
    35 3.859859 -0.137950 1.332462 0.524244 -0.087934 -1.819404
    36 1.719429 0.000002 0.000000 0.072023 -0.125294 -1.808387
    37 1.099670 0.000001 0.000004 0.072020 -0.125295 -0.669563
    38 0.806049 -0.348922 1.321259 -0.786557 -0.413955 -0.992027
    39 1.789787 0.000000 0.000004 0.004364 0.030238 0.718398
    40 1.207001 0.000000 -0.000004 0.102534 0.030239 0.502412
    41 3.859665 -0.132565 1.193108 0.693436 -0.009816 -1.600821
    42 1.312561 0.000000 0.000000 0.110761 -0.297055 -1.436131
    43 0.729366 0.000002 0.000000 0.157643 -0.341690 -1.408450
    44 3.942291 0.050330 0.431042 0.331339 -0.008608 -1.603808
    45 1.539097 0.000003 0.000000 0.050214 -0.153911 -1.591790
    46 1.196320 0.000000 0.000000 0.132538 -0.225788 -1.824936
    47 3.883648 -0.050325 -0.431044 -0.022374 -0.010304 -1.305812
    48 1.719574 -0.000005 0.000000 0.038733 -0.074557 -1.586292
    49 1.209183 -0.000001 0.000000 0.047518 -0.079997 -1.582137
    50 3.859825 -0.148935 -1.331284 -0.549076 -0.024863 -1.454250
    51 1.719425 0.000000 0.000000 -0.002107 0.024342 -1.684730
    52 1.099663 0.000000 0.000000 -0.007967 0.046800 -1.711623
    53 0.806015 -0.359835 -1.318335 1.200555 0.246503 -0.836612
    54 1.789780 0.000001 0.000000 0.046973 0.150711 0.289172
    55 1.207001 0.000000 0.000004 0.215981 -0.000002 0.942472
    56 3.643179 -1.117762 -6.586830 1.677301 0.043060 -2.001890
  time 12
    0 1.610982 -0.335943 37.656733 1.570777 0.003818 0.043405
    1 -0.124999 3.345128 -2.981903 1.570790 0.102068 1.600619
    2 4.018331 0.000000 0.000000 -0.089671 0.008173 0.216490
    3 3.518564 0.000000 0.000000 -0.032141 -0.005477 0.233280
    4 8.942642 0.000000 0.000000 -0.039275 -0.084407 0.239036
    5 3.307269 0.000000 -0.000004 3.137477 0.001222 0.577187
    6 3.593710 -0.000001 -0.000004 0.009993 -0.093612 1.028197
    7 1.999994 -3.000001 0.000004 -1.570753 -0.000007 -1.326410
    8 2.033349 1.000771 -1.937607 -1.379791 1.273488 -3.056479
    9 6.028143 0.000002 -0.000004 1.655274 0.081518 -0.765479
    10 11.692545 0.000000 0.000000 -0.000011 0.000000 -1.930793
    11 11.481701 0.000000 0.000000 -0.860920 0.327083 -0.015649
    12 2.676086 -1.712440 0.000000 -1.570792 0.000003 -1.570793
    13 2.033341 1.000767 1.937660 2.412174 -1.487397 2.120583
    14 6.028140 0.000002 0.000000 -1.302004 0.097464 -0.988484
    15 11.692553 0.000000 0.000011 -0.000013 0.000000 -1.850240
    16 11.481667 0.000000 -0.000031 1.575391 -0.108951 -0.097558
    17 2.676086 -1.712440 0.000004 1.570793 0.000005 1.570793
    18 -3.890452 0.000004 0.000004 -1.273870 -0.330205 -1.454463
    19 17.848171 0.000000 0.000004 0.000009 0.000000 1.084146
    20 16.525251 0.000000 0.000004 0.107374 0.129897 -0.442432
    21 6.879454 0.000000 0.000008 -0.077577 -0.002330 -1.037965
    22 3.890452 -0.000004 -0.000004 -1.309577 -0.252318 -1.778650
    23 17.848175 0.000000 -0.000004 0.000010 0.000000 0.000000
    24 16.525246 0.000000 0.000004 -0.169964 -0.304951 -0.491546
    25 6.879452 0.000000 0.000000 -0.000588 -0.003267 -0.748866
    26 3.859703 -0.142403 -1.191975 -0.568929 -0.013613 -1.526889
    27 1.312565 0.000001 0.000004 -0.086569 0.239740 -1.554263
    28 0.729362 0.000002 0.000004 -0.176890 0.315566 -1.429227
    29 3.942326 0.046774 -0.431438 0.030304 -0.060024 -1.757047
    30 1.539093 0.000001 0.000000 -0.058651 0.149388 -1.571890
    31 1.196320 -0.000001 0.000004 -0.107662 0.188362 -1.488327
    32 3.883686 -0.046767 0.431446 0.134425 0.056053 -1.771010
    33 1.719570 0.000002 0.000004 -0.030686 0.057173 -1.750786
    34 1.209183 -0.000001 -0.000004 -0.034239 0.059372 -1.537001
    35 3.859859 -0.137950 1.332462 0.524244 -0.087934 -1.819404
    36 1.719429 0.000002 0.000000 0.072023 -0.125294 -1.808387
    37 1.099670 0.000001 0.000004 0.072020 -0.125295 -0.669563
    38 0.806049 -0.348922 1.321259 -0.786557 -0.413955 -0.992027
    39 1.789787 0.000000 0.000004 0.004364 0.030238 0.718398
    40 1.207001 0.000000 -0.000004 0.102534 0.030239 0.502412
    41 3.859665 -0.132565 1.193108 0.693436 -0.009816 -1.600821
    42 1.312561 0.000000 0.000000 0.110761 -0.297055 -1.436131
    43 0.729366 0.000002 0.000000 0.157643 -0.341690 -1.408450
    44 3.942291 0.050330 0.431042 0.331339 -0.008608 -1.603808
    45 1.539097 0.000003 0.000000 0.050214 -0.153911 -1.591790
    46 1.196320 0.000000 0.000000 0.132538 -0.225788 -1.824936
    47 3.883648 -0.050325 -0.431044 -0.022374 -0.010304 -1.305812
    48 1.719574 -0.000005 0.000000 0.038733 -0.074557 -1.586292
    49 1.209183 -0.000001 0.000000 0.047518 -0.079997 -1.582137
    50 3.859825 -0.148935 -1.331284 -0.549076 -0.024863 -1.454250
    51 1.719425 0.000000 0.000000 -0.002107 0.024342 -1.684730
    52 1.099663 0.000000 0.000000 -0.007967 0.046800 -1.711623
    53 0.806015 -0.359835 -1.318335 1.200555 0.246503 -0.836612
    54 1.789780 0.000001 0.000000 0.046973 0.150711 0.289172
    55 1.207001 0.000000 0.000004 0.215981 -0.000002 0.942472
    56 3.643179 -1.117762 -6.586830 1.677301 0.043060 -2.001890
  time 13
    0 1.610982 -0.335943 38.293472 1.580633 0.006466 0.051051
    1 -0.124999 3.345128 -2.981903 1.570985 0.102068 1.600224
    2 4.018331 0.000000 0.000000 -0.084530 0.017474 0.216669
    3 3.518564 0.000000 0.000000 -0.029217 -0.003643 0.234119
    4 8.942642 0.000000 0.000000 -0.034114 -0.090639 0.241372
    5 3.307269 0.000000 -0.000004 3.137477 0.001222 0.577187
    6 3.593710 -0.000001 -0.000004 -0.007801 -0.090232 1.028373
    7 1.999994 -3.000001 0.000004 -1.570753 -0.000007 -1.326410
    8 2.033349 1.000771 -1.937607 -1.379791 1.273488 -3.056479
    9 6.028143 0.000002 -0.000004 1.658491 0.227533 -0.814035
    10 11.692545 0.000000 0.000000 -0.000011 0.000000 -1.876794
    11 11.481701 0.000000 0.000000 -0.863078 0.360568 -0.016189
    12 2.676086 -1.712440 0.000000 -1.570792 0.000003 -1.570793
    13 2.033341 1.000767 1.937660 2.412174 -1.487397 2.120583
    14 6.028140 0.000002 0.000000 -1.292475 0.241689 -0.914881
    15 11.692553 0.000000 0.000011 -0.000013 0.000000 -1.846813
    16 11.481667 0.000000 -0.000031 1.575391 -0.108951 -0.097558
    17 2.676086 -1.712440 0.000004 1.570793 0.000005 1.570793
    18 -3.890452 0.000004 0.000004 -1.277293 -0.220652 -1.362280
    19 17.848171 0.000000 0.000004 0.000009 0.000000 0.900864
    20 16.525251 0.000000 0.000004 0.103767 0.193002 -0.397992
    21 6.879454 0.000000 0.000008 -0.077505 -0.002378 -1.057189
    22 3.890452 -0.000004 -0.000004 -1.278575 -0.355744 -1.828489
    23 17.848175 0.000000 -0.000004 0.000010 0.000000 0.292929
    24 16.525246 0.000000 0.000004 -0.115937 -0.198460 -0.648727
    25 6.879452 0.000000 0.000000 -0.005597 -0.003040 -0.760885
    26 3.859703 -0.142403 -1.191975 -0.568929 -0.013613 -1.526889
    27 1.312565 0.000001 0.000004 -0.086569 0.239740 -1.554310
    28 0.729362 0.000002 0.000004 -0.176890 0.315566 -1.429227
    29 3.942326 0.046774 -0.431438 0.030304 -0.060024 -1.757047
    30 1.539093 0.000001 0.000000 -0.058651 0.149388 -1.571890
    31 1.196320 -0.000001 0.000004 -0.107662 0.188362 -1.488327
    32 3.883686 -0.046767 0.431446 0.134425 0.056053 -1.771010
    33 1.719570 0.000002 0.000004 -0.030686 0.057173 -1.750786
    34 1.209183 -0.000001 -0.000004 -0.034239 0.059372 -1.537001
    35 3.859859 -0.137950 1.332462 0.524244 -0.087934 -1.819404
    36 1.719429 0.000002 0.000000 0.072023 -0.125294 -1.808387
    37 1.099670 0.000001 0.000004 0.072020 -0.125295 -0.669563
    38 0.806049 -0.348922 1.321259 -0.786557 -0.413955 -0.992027
    39 1.789787 0.000000 0.000004 0.004364 0.030238 0.718398
    40 1.207001 0.000000 -0.000004 0.102534 0.030239 0.502412
    41 3.859665 -0.132565 1.193108 0.693436 -0.009816 -1.600821
    42 1.312561 0.000000 0.000000 0.110761 -0.297055 -1.436131
    43 0.729366 0.000002 0.000000 0.157643 -0.341690 -1.408450
    44 3.942291 0.050330 0.431042 0.331339 -0.008596 -1.603808
    45 1.539097 0.000003 0.000000 0.050214 -0.153911 -1.591790
    46 1.196320 0.000000 0.000000 0.132538 -0.225788 -1.824936
    47 3.883648 -0.050325 -0.431044 -0.022374 -0.010304 -1.305812
    48 1.719574 -0.000005 0.000000 0.038733 -0.074557 -1.586292
    49 1.209183 -0.000001 0.000000 0.047518 -0.079997 -1.582137
    50 3.859825 -0.148935 -1.331284 -0.549076 -0.024863 -1.454250
    51 1.719425 0.000000 0.000000 -0.002107 0.024342 -1.684730
    52 1.099663 0.000000 0.000000 -0.007967 0.046800 -1.711623
    53 0.806015 -0.359835 -1.318335 1.200555 0.246503 -0.836612
    54 1.789780 0.000001 0.000000 0.046973 0.150711 0.289172
    55 1.207001 0.000000 0.000004 0.215981 -0.000002 0.942472
    56 3.643179 -1.117762 -6.586830 1.677301 0.043048 -2.001890
  time 14
    0 1.610982 -0.335943 38.660670 1.588257 0.010385 0.054610
    1 -0.124999 3.345128 -2.981903 1.571375 0.102068 1.600768
    2 4.018331 0.000000 0.000000 -0.080174 0.025779 0.216897
    3 3.518564 0.000000 0.000000 -0.026257 -0.001594 0.234694
    4 8.942642 0.000000 0.000000 -0.027730 -0.095529 0.243093
    5 3.307269 0.000000 -0.000004 3.137477 0.001222 0.577187
    6 3.593710 -0.000001 -0.000004 -0.023158 -0.087236 1.028584
    7 1.999994 -3.000001 0.000004 -1.570753 -0.000007 -1.326410
    8 2.033349 1.000771 -1.937607 -1.379791 1.273488 -3.056479
    9 6.028143 0.000002 -0.000004 1.663545 0.338972 -0.844921
    10 11.692545 0.000000 0.000000 -0.000011 0.000000 -1.817797
    11 11.481701 0.000000 0.000000 -0.864750 0.386640 -0.016630
    12 2.676086 -1.712440 0.000000 -1.570792 0.000003 -1.570793
    13 2.033341 1.000767 1.937660 2.412174 -1.487397 2.120583
    14 6.028140 0.000002 0.000000 -1.282127 0.338929 -0.860829
    15 11.692553 0.000000 0.000011 -0.000013 0.000000 -1.815621
    16 11.481667 0.000000 -0.000031 1.575452 -0.108951 -0.097558
    17 2.676086 -1.712440 0.000004 1.570793 0.000005 1.570793
    18 -3.890452 0.000004 0.000004 -1.266141 -0.129752 -1.307622
    19 17.848171 0.000000 0.000004 0.000009 0.000000 0.760263
    20 16.525251 0.000000 0.000004 0.092540 0.230982 -0.396233
    21 6.879454 0.000000 0.000008 -0.077469 -0.002462 -1.075576
    22 3.890452 -0.000004 -0.000004 -1.255324 -0.469226 -1.868223
    23 17.848175 0.000000 -0.000004 0.000010 0.000000 0.634690
    24 16.525246 0.000000 0.000004 -0.049480 -0.106345 -0.787760
    25 6.879452 0.000000 0.000000 -0.005597 -0.003040 -0.760062
    26 3.859703 -0.142403 -1.191975 -0.568929 -0.013613 -1.526889
    27 1.312565 0.000001 0.000004 -0.086569 0.239740 -1.554263
    28 0.729362 0.000002 0.000004 -0.176890 0.315566 -1.429227
    29 3.942326 0.046774 -0.431438 0.030304 -0.060024 -1.757047
    30 1.539093 0.000001 0.000000 -0.058651 0.149388 -1.571890
    31 1.196320 -0.000001 0.000004 -0.107662 0.188362 -1.488327
    32 3.883686 -0.046767 0.431446 0.134425 0.056053 -1.771010
    33 1.719570 0.000002 0.000004 -0.030686 0.057173 -1.750786
    34 1.209183 -0.000001 -0.000004 -0.034239 0.059372 -1.537001
    35 3.859859 -0.137950 1.332462 0.524244 -0.087934 -1.819404
    36 1.719429 0.000002 0.000000 0.072023 -0.125294 -1.808387
    37 1.099670 0.000001 0.000004 0.072020 -0.125295 -0.669563
    38 0.806049 -0.348922 1.321259 -0.786557 -0.413955 -0.992027
    39 1.789787 0.000000 0.000004 0.004364 0.030238 0.718398
    40 1.207001 0.000000 -0.000004 0.102534 0.030239 0.502412
    41 3.859665 -0.132565 1.193108 0.693436 -0.009816 -1.600821
    42 1.312561 0.000000 0.000000 0.110761 -0.297055 -1.436131
    43 0.729366 0.000002 0.000000 0.157643 -0.341690 -1.408450
    44 3.942291 0.050330 0.431042 0.331339 -0.008608 -1.603808
    45 1.539097 0.000003 0.000000 0.050214 -0.153911 -1.591790
    46 1.196320 0.000000 0.000000 0.132538 -0.225788 -1.824936
    47 3.883648 -0.050325 -0.431044 -0.022374 -0.010304 -1.305812
    48 1.719574 -0.000005 0.000000 0.038733 -0.074557 -1.586292
    49 1.209183 -0.000001 0.000000 0.047518 -0.079997 -1.582137
    50 3.859825 -0.148935 -1.331284 -0.549076 -0.024863 -1.454250
    51 1.719425 0.000000 0.000000 -0.002107 0.024342 -1.684730
    52 1.099663 0.000000 0.000000 -0.007967 0.046800 -1.711623
    53 0.806015 -0.359835 -1.318335 1.200555 0.246503 -0.836612
    54 1.789780 0.000001 0.000000 0.046973 0.150711 0.289172
    55 1.207001 0.000000 0.000004 0.215981 -0.000002 0.942472
    56 3.643179 -1.117762 -6.586830 1.677301 0.043060 -2.001890
  time 15
    0 1.610982 -0.335943 38.613794 1.588366 0.015479 0.051506
    1 -0.124999 3.345128 -2.981903 1.571910 0.102068 1.602252
    2 4.018331 0.000000 0.000000 -0.076640 0.033833 0.217149
    3 3.518564 0.000000 0.000000 -0.021607 0.000491 0.233256
    4 8.942642 0.000000 0.000000 -0.020607 -0.098825 0.244184
    5 3.307269 0.000000 -0.000004 3.137477 0.001222 0.577187
    6 3.593710 -0.000001 -0.000004 -0.034515 -0.086229 1.028760
    7 1.999994 -3.000001 0.000004 -1.570753 -0.000007 -1.326450
    8 2.033349 1.000771 -1.937607 -1.379791 1.273488 -3.056479
    9 6.028143 0.000002 -0.000004 1.666945 0.389050 -0.851812
    10 11.692545 0.000000 0.000000 -0.000011 0.000000 -1.782938
    11 11.481701 0.000000 0.000000 -0.864750 0.387147 -0.016679
    12 2.676086 -1.712440 0.000000 -1.570792 0.000003 -1.570793
    13 2.033341 1.000767 1.937660 2.412174 -1.487397 2.120583
    14 6.028140 0.000002 0.000000 -1.269149 0.396066 -0.831598
    15 11.692553 0.000000 0.000011 -0.000013 0.000000 -1.787227
    16 11.481667 0.000000 -0.000031 1.575452 -0.108951 -0.097558
    17 2.676086 -1.712440 0.000004 1.570793 0.000005 1.570793
    18 -3.890452 0.000004 0.000004 -1.223775 -0.039081 -1.290234
    19 17.848171 0.000000 0.000004 0.000009 0.000000 0.670939
    20 16.525251 0.000000 0.000004 0.044432 0.238382 -0.532770
    21 6.879454 0.000000 0.000008 -0.077397 -0.002486 -1.096015
    22 3.890452 -0.000004 -0.000004 -1.260953 -0.516478 -1.860386
    23 17.848175 0.000000 -0.000004 0.000010 0.000000 0.861195
    24 16.525246 0.000000 0.000004 -0.032584 -0.106418 -0.831411
    25 6.879452 0.000000 0.000000 -0.005609 -0.003040 -0.759732
    26 3.859703 -0.142403 -1.191975 -0.568929 -0.013613 -1.526889
    27 1.312565 0.000001 0.000004 -0.086569 0.239740 -1.554263
    28 0.729362 0.000002 0.000004 -0.176890 0.315566 -1.429227
    29 3.942326 0.046774 -0.431438 0.030304 -0.060024 -1.757047
    30 1.539093 0.000001 0.000000 -0.058651 0.149388 -1.571890
    31 1.196320 -0.000001 0.000004 -0.107662 0.188362 -1.488327
    32 3.883686 -0.046767 0.431446 0.134425 0.056053 -1.771010
    33 1.719570 0.000002 0.000004 -0.030686 0.057173 -1.750786
    34 1.209183 -0.000001 -0.000004 -0.034239 0.059372 -1.537001
    35 3.859859 -0.137950 1.332462 0.524244 -0.087934 -1.819404
    36 1.719429 0.000002 0.000000 0.072023 -0.125294 -1.808387
    37 1.099670 0.000001 0.000004 0.072020 -0.125295 -0.669563
    38 0.806049 -0.348922 1.321259 -0.786557 -0.413955 -0.992027
    39 1.789787 0.000000 0.000004 0.004364 0.030238 0.718398
    40 1.207001 0.000000 -0.000004 0.102534 0.030239 0.502412
    41 3.859665 -0.132565 1.193108 0.693436 -0.009816 -1.600821
    42 1.312561 0.000000 0.000000 0.110761 -0.297055 -1.436131
    43 0.729366 0.000002 0.000000 0.157643 -0.341690 -1.408450
    44 3.942291 0.050330 0.431042 0.331339 -0.008608 -1.603808
    45 1.539097 0.000003 0.000000 0.050214 -0.153911 -1.591790
    46 1.196320 0.000000 0.000000 0.132538 -0.225788 -1.824936
    47 3.883648 -0.050325 -0.431044 -0.022374 -0.010304 -1.305812
    48 1.719574 -0.000005 0.000000 0.038733 -0.074557 -1.586292
    49 1.209183 -0.000001 0.000000 0.047518 -0.079997 -1.582137
    50 3.859825 -0.148935 -1.331284 -0.549076 -0.024863 -1.454250
    51 1.719425 0.000000 0.000000 -0.002107 0.024342 -1.684730
    52 1.099663 0.000000 0.000000 -0.007955 0.046800 -1.711623
    53 0.806015 -0.359835 -1.318335 1.200555 0.246503 -0.836612
    54 1.789780 0.000001 0.000000 0.046973 0.150711 0.289172
    55 1.207001 0.000000 0.000004 0.215981 -0.000002 0.942472
    56 3.643179 -1.117762 -6.586830 1.677301 0.043048 -2.001890
  time 16
    0 1.610982 -0.335943 38.203625 1.578074 0.021579 0.040074
    1 -0.124999 3.345128 -2.981903 1.572543 0.102080 1.604527
    2 4.018331 0.000000 0.000000 -0.073126 0.040041 0.217424
    3 3.518564 0.000000 0.000000 -0.016381 0.002673 0.232537
    4 8.942642 0.000000 0.000000 -0.013433 -0.101126 0.245060
    5 3.307269 0.000000 -0.000004 3.137477 0.001222 0.577187
    6 3.593710 -0.000001 -0.000004 -0.036998 -0.085150 1.028795
    7 1.999994 -3.000001 0.000004 -1.570753 -0.000007 -1.326410
    8 2.033349 1.000771 -1.937607 -1.379791 1.273488 -3.056479
    9 6.028143 0.000002 -0.000004 1.664005 0.402634 -0.840610
    10 11.692545 0.000000 0.000000 -0.000011 0.000000 -1.764062
    11 11.481701 0.000000 0.000000 -0.863671 0.371054 -0.016385
    12 2.676086 -1.712440 0.000000 -1.570792 0.000003 -1.570793
    13 2.033341 1.000767 1.937660 2.412174 -1.487397 2.120583
    14 6.028140 0.000002 0.000000 -1.256229 0.438059 -0.816261
    15 11.692553 0.000000 0.000011 -0.000013 0.000000 -1.768484
    16 11.481667 0.000000 -0.000031 1.575452 -0.108951 -0.097558
    17 2.676086 -1.712440 0.000004 1.570793 0.000005 1.570793
    18 -3.890452 0.000004 0.000004 -1.173326 0.070786 -1.297266
    19 17.848171 0.000000 0.000004 0.000009 0.000000 0.568534
    20 16.525251 0.000000 0.000004 -0.019358 0.197784 -0.776487
    21 6.879454 0.000000 0.000008 -0.077313 -0.002486 -1.113187
    22 3.890452 -0.000004 -0.000004 -1.292608 -0.547742 -1.820171
    23 17.848175 0.000000 -0.000004 0.000010 0.000000 1.078810
    24 16.525246 0.000000 0.000004 -0.035497 -0.131770 -0.850463
    25 6.879452 0.000000 0.000000 -0.005609 -0.003040 -0.759815
    26 3.859703 -0.142403 -1.191975 -0.568929 -0.013613 -1.526889
    27 1.312565 0.000001 0.000004 -0.086569 0.239740 -1.554263
    28 0.729362 0.000002 0.000004 -0.176890 0.315566 -1.429270
    29 3.942326 0.046774 -0.431438 0.030304 -0.060024 -1.757047
    30 1.539093 0.000001 0.000000 -0.058651 0.149388 -1.571890
    31 1.196320 -0.000001 0.000004 -0.107662 0.188362 -1.488327
    32 3.883686 -0.046767 0.431446 0.134425 0.056053 -1.771010
    33 1.719570 0.000002 0.000004 -0.030686 0.057173 -1.750786
    34 1.209183 -0.000001 -0.000004 -0.034239 0.059372 -1.537001
    35 3.859859 -0.137950 1.332462 0.524244 -0.087934 -1.819404
    36 1.719429 0.000002 0.000000 0.072023 -0.125294 -1.808387
    37 1.099670 0.000001 0.000004 0.072020 -0.125295 -0.669563
    38 0.806049 -0.348922 1.321259 -0.786557 -0.413955 -0.992027
    39 1.789787 0.000000 0.000004 0.004364 0.030238 0.718398
    40 1.207001 0.000000 -0.000004 0.102534 0.030239 0.502412
    41 3.859665 -0.132565 1.193108 0.693436 -0.009816 -1.600821
    42 1.312561 0.000000 0.000000 0.110761 -0.297055 -1.436131
    43 0.729366 0.000002 0.000000 0.157643 -0.341690 -1.408450
    44 3.942291 0.050330 0.431042 0.331339 -0.008596 -1.603808
    45 1.539097 0.000003 0.000000 0.050214 -0.153911 -1.591790
    46 1.196320 0.000000 0.000000 0.132538 -0.225788 -1.824936
    47 3.883648 -0.050325 -0.431044 -0.022374 -0.010304 -1.305812
    48 1.719574 -0.000005 0.000000 0.038733 -0.074557 -1.586292
    49 1.209183 -0.000001 0.000000 0.047518 -0.079997 -1.582137
    50 3.859825 -0.148935 -1.331284 -0.549076 -0.024863 -1.454250
    51 1.719425 0.000000 0.000000 -0.002107 0.024342 -1.684730
    52 1.099663 0.000000 0.000000 -0.007967 0.046800 -1.711623
    53 0.806015 -0.359835 -1.318335 1.200555 0.246503 -0.836612
    54 1.789780 0.000001 0.000000 0.046973 0.150711 0.289172
    55 1.207001 0.000000 0.000004 0.215981 -0.000002 0.942472
    56 3.643179 -1.117762 -6.586830 1.677301 0.043060 -2.001890
  time 17
    0 1.610982 -0.335943 37.574700 1.564515 0.028350 0.023115
    1 -0.124999 3.345128 -2.981903 1.573225 0.102080 1.607248
    2 4.018331 0.000000 0.000000 -0.069555 0.042821 0.217700
    3 3.518564 0.000000 0.000000 -0.012654 0.004962 0.240519
    4 8.942642 0.000000 0.000000 -0.006781 -0.102624 0.245767
    5 3.307269 0.000000 -0.000004 3.137477 0.001222 0.577187
    6 3.593710 -0.000001 -0.000004 -0.030009 -0.081891 1.028795
    7 1.999994 -3.000001 0.000004 -1.570753 -0.000007 -1.326410
    8 2.033349 1.000771 -1.937607 -1.379791 1.273488 -3.056479
    9 6.028143 0.000002 -0.000004 1.661523 0.394386 -0.811278
    10 11.692545 0.000000 0.000000 -0.000011 0.000000 -1.761694
    11 11.481701 0.000000 0.000000 -0.862376 0.349987 -0.015993
    12 2.676086 -1.712440 0.000000 -1.570792 0.000003 -1.570793
    13 2.033341 1.000767 1.937660 2.412174 -1.487397 2.120583
    14 6.028140 0.000002 0.000000 -1.253482 0.457622 -0.814466
    15 11.692553 0.000000 0.000011 -0.000013 0.000000 -1.764358
    16 11.481667 0.000000 -0.000031 1.575391 -0.108951 -0.097558
    17 2.676086 -1.712440 0.000004 1.570793 0.000005 1.570793
    18 -3.890452 0.000004 0.000004 -1.137569 0.116478 -1.357805
    19 17.848171 0.000000 0.000004 0.000009 0.000000 0.520695
    20 16.525251 0.000000 0.000004 -0.055178 0.110051 -1.015277
    21 6.879454 0.000000 0.000008 -0.077385 -0.002702 -1.122305
    22 3.890452 -0.000004 -0.000004 -1.350124 -0.563058 -1.740979
    23 17.848175 0.000000 -0.000004 0.000010 0.000000 1.267377
    24 16.525246 0.000000 0.000004 -0.054385 -0.152710 -0.854442
    25 6.879452 0.000000 0.000000 -0.005597 -0.003040 -0.760103
    26 3.859703 -0.142403 -1.191975 -0.568929 -0.013613 -1.526889
    27 1.312565 0.000001 0.000004 -0.086569 0.239740 -1.554263
    28 0.729362 0.000002 0.000004 -0.176890 0.315566 -1.429227
    29 3.942326 0.046774 -0.431438 0.030304 -0.060024 -1.757047
    30 1.539093 0.000001 0.000000 -0.058651 0.149388 -1.571890
    31 1.196320 -0.000001 0.000004 -0.107662 0.188362 -1.488327
    32 3.883686 -0.046767 0.431446 0.134425 0.056053 -1.771010
    33 1.719570 0.000002 0.000004 -0.030686 0.057173 -1.750786
    34 1.209183 -0.000001 -0.000004 -0.034239 0.059372 -1.537001
    35 3.859859 -0.137950 1.332462 0.524244 -0.087934 -1.819404
    36 1.719429 0.000002 0.000000 0.072023 -0.125294 -1.808387
    37 1.099670 0.000001 0.000004 0.072020 -0.125295 -0.669563
    38 0.806049 -0.348922 1.321259 -0.786557 -0.413955 -0.992027
    39 1.789787 0.000000 0.000004 0.004364 0.030238 0.718398
    40 1.207001 0.000000 -0.000004 0.102534 0.030239 0.502412
    41 3.859665 -0.132565 1.193108 0.693436 -0.009816 -1.600821
    42 1.312561 0.000000 0.000000 0.110761 -0.297055 -1.436131
    43 0.729366 0.000002 0.000000 0.157643 -0.341690 -1.408450
    44 3.942291 0.050330 0.431042 0.331339 -0.008608 -1.603808
    45 1.539097 0.000003 0.000000 0.050214 -0.153911 -1.591790
    46 1.196320 0.000000 0.000000 0.132538 -0.225788 -1.824936
    47 3.883648 -0.050325 -0.431044 -0.022374 -0.010304 -1.305812
    48 1.719574 -0.000005 0.000000 0.038733 -0.074557 -1.586292
    49 1.209183 -0.000001 0.000000 0.047518 -0.079997 -1.582137
    50 3.859825 -0.148935 -1.331284 -0.549076 -0.024863 -1.454250
    51 1.719425 0.000000 0.000000 -0.002107 0.024342 -1.684730
    52 1.099663 0.000000 0.000000 -0.007967 0.046800 -1.711623
    53 0.806015 -0.359835 -1.318335 1.200555 0.246503 -0.836612
    54 1.789780 0.000001 0.000000 0.046973 0.150711 0.289172
    55 1.207001 0.000000 0.000004 0.215981 -0.000002 0.942472
    56 3.643179 -1.117762 -6.586830 1.677301 0.043060 -2.001890
  time 18
    0 1.610982 -0.335943 36.883272 1.554986 0.035313 0.003506
    1 -0.124999 3.345128 -2.981903 1.573907 0.102080 1.610217
    2 4.018331 0.000000 0.000000 -0.066002 0.044511 0.217976
    3 3.518564 0.000000 0.000000 -0.009239 0.007227 0.250885
    4 8.942642 0.000000 0.000000 0.003528 -0.104793 0.246397
    5 3.307269 0.000000 -0.000004 3.137477 0.001222 0.577187
    6 3.593710 -0.000001 -0.000004 -0.018698 -0.077804 1.028690
    7 1.999994 -3.000001 0.000004 -1.570753 -0.000007 -1.326410
    8 2.033349 1.000771 -1.937607 -1.379791 1.273488 -3.056479
    9 6.028143 0.000002 -0.000004 1.666302 0.363959 -0.766610
    10 11.692545 0.000000 0.000000 -0.000011 0.000000 -1.774783
    11 11.481701 0.000000 0.000000 -0.860866 0.325626 -0.015600
    12 2.676086 -1.712440 0.000000 -1.570792 0.000003 -1.570793
    13 2.033341 1.000767 1.937660 2.412174 -1.487397 2.120583
    14 6.028140 0.000002 0.000000 -1.255060 0.450168 -0.824417
    15 11.692553 0.000000 0.000011 -0.000013 0.000000 -1.774289
    16 11.481667 0.000000 -0.000031 1.575452 -0.108951 -0.097558
    17 2.676086 -1.712440 0.000004 1.570793 0.000005 1.570793
    18 -3.890452 0.000004 0.000004 -1.122522 0.054642 -1.455998
    19 17.848171 0.000000 0.000004 0.000009 0.000000 0.601871
    20 16.525251 0.000000 0.000004 -0.073194 0.015094 -1.264875
    21 6.879454 0.000000 0.000008 -0.078200 -0.002978 -0.997277
    22 3.890452 -0.000004 -0.000004 -1.433666 -0.547279 -1.617654
    23 17.848175 0.000000 -0.000004 0.000010 0.000000 1.411306
    24 16.525246 0.000000 0.000004 -0.066332 -0.146074 -0.876931
    25 6.879452 0.000000 0.000000 -0.005597 -0.003040 -0.760514
    26 3.859703 -0.142403 -1.191975 -0.568929 -0.013613 -1.526889
    27 1.312565 0.000001 0.000004 -0.086569 0.239740 -1.554263
    28 0.729362 0.000002 0.000004 -0.176890 0.315566 -1.429227
    29 3.942326 0.046774 -0.431438 0.030304 -0.060024 -1.757047
    30 1.539093 0.000001 0.000000 -0.058651 0.149388 -1.571890
    31 1.196320 -0.000001 0.000004 -0.107662 0.188362 -1.488327
    32 3.883686 -0.046767 0.431446 0.134425 0.056053 -1.771010
    33 1.719570 0.000002 0.000004 -0.030686 0.057173 -1.750786
    34 1.209183 -0.000001 -0.000004 -0.034239 0.059372 -1.537001
    35 3.859859 -0.137950 1.332462 0.524244 -0.087934 -1.819404
    36 1.719429 0.000002 0.000000 0.072023 -0.125294 -1.808387
    37 1.099670 0.000001 0.000004 0.072020 -0.125295 -0.669563
    38 0.806049 -0.348922 1.321259 -0.786557 -0.413955 -0.992027
    39 1.789787 0.000000 0.000004 0.004364 0.030238 0.718398
    40 1.207001 0.000000 -0.000004 0.102534 0.030239 0.502412
    41 3.859665 -0.132565 1.193108 0.693436 -0.009816 -1.600821
    42 1.312561 0.000000 0.000000 0.110761 -0.297055 -1.436131
    43 0.729366 0.000002 0.000000 0.157643 -0.341690 -1.408450
    44 3.942291 0.050330 0.431042 0.331339 -0.008608 -1.603808
    45 1.539097 0.000003 0.000000 0.050214 -0.153911 -1.591790
    46 1.196320 0.000000 0.000000 0.132538 -0.225788 -1.824936
    47 3.883648 -0.050325 -0.431044 -0.022374 -0.010304 -1.305812
    48 1.719574 -0.000005 0.000000 0.038733 -0.074557 -1.586292
    49 1.209183 -0.000001 0.000000 0.047518 -0.079997 -1.582137
    50 3.859825 -0.148935 -1.331284 -0.549076 -0.024863 -1.454250
    51 1.719425 0.000000 0.000000 -0.002107 0.024342 -1.684730
    52 1.099663 0.000000 0.000000 -0.007967 0.046800 -1.711623
    53 0.806015 -0.359835 -1.318335 1.200555 0.246503 -0.836612
    54 1.789780 0.000001 0.000000 0.046973 0.150711 0.289172
    55 1.207001 0.000000 0.000004 0.215981 -0.000002 0.942472
    56 3.643179 -1.117762 -6.586830 1.677301 0.043048 -2.001890
  time 19
    0 1.610982 -0.335943 36.285598 1.551501 0.041485 -0.016481
    1 -0.124999 3.345128 -2.981903 1.574540 0.102080 1.613234
    2 4.018331 0.000000 0.000000 -0.062394 0.045721 0.218227
    3 3.518564 0.000000 0.000000 -0.005943 0.009384 0.254157
    4 8.942642 0.000000 0.000000 0.008434 -0.105512 0.247042
    5 3.307269 0.000000 -0.000004 3.137477 0.001222 0.577187
    6 3.593710 -0.000001 -0.000004 -0.008123 -0.074304 1.028690
    7 1.999994 -3.000001 0.000004 -1.570753 -0.000007 -1.326410
    8 2.033349 1.000771 -1.937607 -1.379791 1.273488 -3.056479
    9 6.028143 0.000002 -0.000004 1.664464 0.312939 -0.723178
    10 11.692545 0.000000 0.000000 -0.000011 0.000000 -1.802209
    11 11.481701 0.000000 0.000000 -0.860056 0.312447 -0.015502
    12 2.676086 -1.712440 0.000000 -1.570792 0.000003 -1.570793
    13 2.033341 1.000767 1.937660 2.412174 -1.487397 2.120583
    14 6.028140 0.000002 0.000000 -1.261491 0.426254 -0.847911
    15 11.692553 0.000000 0.000011 -0.000013 0.000000 -1.792123
    16 11.481667 0.000000 -0.000031 1.575391 -0.108951 -0.097558
    17 2.676086 -1.712440 0.000004 1.570793 0.000005 1.570793
    18 -3.890452 0.000004 0.000004 -1.113672 -0.030981 -1.555980
    19 17.848171 0.000000 0.000004 0.000009 0.000000 0.682001
    20 16.525251 0.000000 0.000004 -0.051094 -0.063938 -1.462090
    21 6.879454 0.000000 0.000008 -0.079866 -0.002942 -0.758693
    22 3.890452 -0.000004 -0.000004 -1.542581 -0.468258 -1.451983
    23 17.848175 0.000000 -0.000004 0.000010 0.000000 1.482363
    24 16.525246 0.000000 0.000004 -0.037562 -0.096002 -0.942950
    25 6.879452 0.000000 0.000000 -0.005597 -0.003040 -0.760926
    26 3.859703 -0.142403 -1.191975 -0.568929 -0.013613 -1.526889
    27 1.312565 0.000001 0.000004 -0.086569 0.239740 -1.554263
    28 0.729362 0.000002 0.000004 -0.176890 0.315566 -1.429227
    29 3.942326 0.046774 -0.431438 0.030304 -0.060024 -1.757047
    30 1.539093 0.000001 0.000000 -0.058663 0.149388 -1.571890
    31 1.196320 -0.000001 0.000004 -0.107662 0.188362 -1.488327
    32 3.883686 -0.046767 0.431446 0.134425 0.056053 -1.771010
    33 1.719570 0.000002 0.000004 -0.030686 0.057173 -1.750786
    34 1.209183 -0.000001 -0.000004 -0.034239 0.059372 -1.537001
    35 3.859859 -0.137950 1.332462 0.524244 -0.087934 -1.819404
    36 1.719429 0.000002 0.000000 0.072023 -0.125294 -1.808387
    37 1.099670 0.000001 0.000004 0.072020 -0.125295 -0.669563
    38 0.806049 -0.348922 1.321259 -0.786557 -0.413955 -0.992027
    39 1.789787 0.000000 0.000004 0.004364 0.030238 0.718398
    40 1.207001 0.000000 -0.000004 0.102534 0.030239 0.502412
    41 3.859665 -0.132565 1.193108 0.693436 -0.009816 -1.600821
    42 1.312561 0.000000 0.000000 0.110761 -0.297055 -1.436131
    43 0.729366 0.000002 0.000000 0.157643 -0.341690 -1.408450
    44 3.942291 0.050330 0.431042 0.331339 -0.008608 -1.603808
    45 1.539097 0.000003 0.000000 0.050214 -0.153911 -1.591790
    46 1.196320 0.000000 0.000000 0.132538 -0.225788 -1.824936
    47 3.883648 -0.050325 -0.431044 -0.022374 -0.010304 -1.305812
    48 1.719574 -0.000005 0.000000 0.038733 -0.074557 -1.586292
    49 1.209183 -0.000001 0.000000 0.047518 -0.079997 -1.582137
    50 3.859825 -0.148935 -1.331284 -0.549076 -0.024863 -1.454250
    51 1.719425 0.000000 0.000000 -0.002107 0.024342 -1.684730
    52 1.099663 0.000000 0.000000 -0.007967 0.046800 -1.711623
    53 0.806015 -0.359835 -1.318335 1.200555 0.246503 -0.836612
    54 1.789780 0.000001 0.000000 0.046973 0.150711 0.289172
    55 1.207001 0.000000 0.000004 0.215981 -0.000002 0.942472
    56 3.643179 -1.117762 -6.586830 1.677301 0.043060 -2.001890
  time 20
    0 1.610982 -0.335943 36.223096 1.553298 0.045237 -0.034349
    1 -0.124999 3.345128 -2.981903 1.575367 0.102068 1.617142
    2 4.018331 0.000000 0.000000 -0.078977 0.042905 0.217580
    3 3.518564 0.000000 0.000000 -0.015614 0.001942 0.254972
    4 8.942642 0.000000 0.000000 0.016194 -0.103511 0.235393
    5 3.307269 0.000000 -0.000004 3.137477 0.001222 0.577187
    6 3.593710 -0.000001 -0.000004 -0.003479 -0.072842 1.028690
    7 1.999994 -3.000001 0.000004 -1.570753 -0.000007 -1.326410
    8 2.033349 1.000771 -1.937607 -1.379791 1.273488 -3.056479
    9 6.028143 0.000002 -0.000004 1.637353 0.170550 -0.698723
    10 11.692545 0.000000 0.000000 -0.000011 0.000000 -1.890870
    11 11.481701 0.000000 0.000000 -0.853043 0.197800 -0.014374
    12 2.676086 -1.712440 0.000000 -1.570792 0.000003 -1.570793
    13 2.033341 1.000767 1.937660 2.412174 -1.487397 2.120583
    14 6.028140 0.000002 0.000000 -1.291715 0.364665 -0.903251
    15 11.692553 0.000000 0.000011 -0.000013 0.000000 -1.852967
    16 11.481667 0.000000 -0.000031 1.575391 -0.108951 -0.097558
    17 2.676086 -1.712440 0.000004 1.570793 0.000005 1.570793
    18 -3.890452 0.000004 0.000004 -1.141286 -0.154139 -1.645734
    19 17.848171 0.000000 0.000004 0.000009 0.000000 0.740305
    20 16.525251 0.000000 0.000004 -0.006575 -0.079586 -1.466313
    21 6.879454 0.000000 0.000008 -0.080776 -0.002858 -0.654180
    22 3.890452 -0.000004 -0.000004 -1.660469 -0.302642 -1.279162
    23 17.848175 0.000000 -0.000004 0.000010 0.000000 1.410555
    24 16.525246 0.000000 0.000004 0.048867 0.004305 -1.002217
    25 6.879452 0.000000 0.000000 -0.005597 -0.003040 -0.761173
    26 3.859703 -0.142403 -1.191975 -0.568929 -0.013613 -1.526889
    27 1.312565 0.000001 0.000004 -0.086569 0.239740 -1.554263
    28 0.729362 0.000002 0.000004 -0.176890 0.315566 -1.429227
    29 3.942326 0.046774 -0.431438 0.030304 -0.060024 -1.757047
    30 1.539093 0.000001 0.000000 -0.058651 0.149388 -1.571890
    31 1.196320 -0.000001 0.000004 -0.107662 0.188362 -1.488327
    32 3.883686 -0.046767 0.431446 0.134425 0.056053 -1.771010
    33 1.719570 0.000002 0.000004 -0.030686 0.057173 -1.750786
    34 1.209183 -0.000001 -0.000004 -0.034239 0.059372 -1.537001
    35 3.859859 -0.137950 1.332462 0.524244 -0.087934 -1.819404
    36 1.719429 0.000002 0.000000 0.072023 -0.125294 -1.808387
    37 1.099670 0.000001 0.000004 0.072020 -0.125295 -0.669563
    38 0.806049 -0.348922 1.321259 -0.786557 -0.413955 -0.992027
    39 1.789787 0.000000 0.000004 0.004364 0.030238 0.718398
    40 1.207001 0.000000 -0.000004 0.102534 0.030239 0.502412
    41 3.859665 -0.132565 1.193108 0.693436 -0.009816 -1.600821
    42 1.312561 0.000000 0.000000 0.110761 -0.297055 -1.436131
    43 0.729366 0.000002 0.000000 0.157643 -0.341690 -1.408450
    44 3.942291 0.050330 0.431042 0.331339 -0.008608 -1.603808
    45 1.539097 0.000003 0.000000 0.050214 -0.153911 -1.591790
    46 1.196320 0.000000 0.000000 0.132538 -0.225788 -1.824936
    47 3.883648 -0.050325 -0.431044 -0.022374 -0.010304 -1.305812
    48 1.719574 -0.000005 0.000000 0.038733 -0.074557 -1.586292
    49 1.209183 -0.000001 0.000000 0.047518 -0.079997 -1.582137
    50 3.859825 -0.148935 -1.331284 -0.549076 -0.024863 -1.454250
    51 1.719425 0.000000 0.000000 -0.002107 0.024342 -1.684730
    52 1.099663 0.000000 0.000000 -0.007967 0.046800 -1.711623
    53 0.806015 -0.359835 -1.318335 1.200555 0.246503 -0.836612
    54 1.789780 0.000001 0.000000 0.046973 0.150711 0.289172
    55 1.207001 0.000000 0.000004 0.215981 -0.000002 0.942472
    56 3.643179 -1.117762 -6.586830 1.677301 0.043048 -2.001890
end
