// Created by Crowbar 0.71
version 1
nodes
  0 "ValveBiped.Bip01_Pelvis" -1
  1 "ValveBiped.Bip01_Spine" 0
  2 "ValveBiped.Bip01_Spine1" 1
  3 "ValveBiped.Bip01_Spine2" 2
  4 "ValveBiped.Bip01_Spine4" 3
  5 "ValveBiped.Bip01_Neck1" 4
  6 "ValveBiped.Bip01_Head1" 5
  7 "ValveBiped.forward" 6
  8 "ValveBiped.Bip01_R_Clavicle" 4
  9 "ValveBiped.Bip01_R_UpperArm" 8
  10 "ValveBiped.Bip01_R_Forearm" 9
  11 "ValveBiped.Bip01_R_Hand" 10
  12 "ValveBiped.Anim_Attachment_RH" 11
  13 "ValveBiped.Bip01_L_Clavicle" 4
  14 "ValveBiped.Bip01_L_UpperArm" 13
  15 "ValveBiped.Bip01_L_Forearm" 14
  16 "ValveBiped.Bip01_L_Hand" 15
  17 "ValveBiped.Anim_Attachment_LH" 16
  18 "ValveBiped.Bip01_R_Thigh" 0
  19 "ValveBiped.Bip01_R_Calf" 18
  20 "ValveBiped.Bip01_R_Foot" 19
  21 "ValveBiped.Bip01_R_Toe0" 20
  22 "ValveBiped.Bip01_L_Thigh" 0
  23 "ValveBiped.Bip01_L_Calf" 22
  24 "ValveBiped.Bip01_L_Foot" 23
  25 "ValveBiped.Bip01_L_Toe0" 24
  26 "ValveBiped.Bip01_L_Finger4" 16
  27 "ValveBiped.Bip01_L_Finger41" 26
  28 "ValveBiped.Bip01_L_Finger42" 27
  29 "ValveBiped.Bip01_L_Finger3" 16
  30 "ValveBiped.Bip01_L_Finger31" 29
  31 "ValveBiped.Bip01_L_Finger32" 30
  32 "ValveBiped.Bip01_L_Finger2" 16
  33 "ValveBiped.Bip01_L_Finger21" 32
  34 "ValveBiped.Bip01_L_Finger22" 33
  35 "ValveBiped.Bip01_L_Finger1" 16
  36 "ValveBiped.Bip01_L_Finger11" 35
  37 "ValveBiped.Bip01_L_Finger12" 36
  38 "ValveBiped.Bip01_L_Finger0" 16
  39 "ValveBiped.Bip01_L_Finger01" 38
  40 "ValveBiped.Bip01_L_Finger02" 39
  41 "ValveBiped.Bip01_R_Finger4" 11
  42 "ValveBiped.Bip01_R_Finger41" 41
  43 "ValveBiped.Bip01_R_Finger42" 42
  44 "ValveBiped.Bip01_R_Finger3" 11
  45 "ValveBiped.Bip01_R_Finger31" 44
  46 "ValveBiped.Bip01_R_Finger32" 45
  47 "ValveBiped.Bip01_R_Finger2" 11
  48 "ValveBiped.Bip01_R_Finger21" 47
  49 "ValveBiped.Bip01_R_Finger22" 48
  50 "ValveBiped.Bip01_R_Finger1" 11
  51 "ValveBiped.Bip01_R_Finger11" 50
  52 "ValveBiped.Bip01_R_Finger12" 51
  53 "ValveBiped.Bip01_R_Finger0" 11
  54 "ValveBiped.Bip01_R_Finger01" 53
  55 "ValveBiped.Bip01_R_Finger02" 54
  56 "ValveBiped.baton_parent" 11
end
skeleton
  time 0
    0 1.610982 -0.335943 36.914523 1.560104 0.046327 0.053474
    1 -0.124999 3.345128 -2.981903 1.573809 0.102068 1.613383
    2 4.018331 0.000000 0.000000 -0.052317 0.056136 0.225119
    3 3.518564 0.000000 0.000000 0.000229 0.012644 0.251413
    4 8.942642 0.000000 0.000000 0.023190 -0.113734 0.247795
    5 3.307269 0.000000 -0.000004 3.137477 0.001222 0.577187
    6 3.593710 -0.000001 -0.000004 -0.020905 -0.025551 1.036783
    7 1.999994 -3.000001 0.000004 -1.570753 -0.000007 -1.326410
    8 2.033349 1.000771 -1.937607 -1.388817 1.273953 -3.065898
    9 6.028143 0.000002 -0.000004 1.679444 0.087150 -0.696037
    10 11.692545 0.000000 0.000000 -0.000011 0.000000 -1.928886
    11 11.481701 0.000000 0.000000 -0.856711 0.258307 -0.014864
    12 2.676086 -1.712440 0.000000 -1.570793 0.000001 -1.570793
    13 2.033341 1.000767 1.937660 2.412174 -1.487397 2.120583
    14 6.028140 0.000002 0.000000 -1.107507 0.487404 -1.011861
    15 11.692553 0.000000 0.000011 -0.000013 0.000000 -2.035711
    16 11.481667 0.000000 -0.000031 1.575391 -0.108951 -0.097558
    17 2.676086 -1.712440 0.000004 1.570793 0.000005 1.570793
    18 -3.890452 0.000004 0.000004 -1.192089 -0.280206 -1.391367
    19 17.848171 0.000000 0.000004 0.000009 0.000000 0.514043
    20 16.525251 0.000000 0.000004 -0.229504 0.124091 -1.237075
    21 6.879454 0.000000 0.000008 -0.080764 -0.002774 -0.644189
    22 3.890452 -0.000004 -0.000004 -1.523327 -0.446294 -1.601980
    23 17.848175 0.000000 -0.000004 0.000010 0.000000 1.427646
    24 16.525246 0.000000 0.000004 -0.102438 -0.080957 -1.045567
    25 6.879452 0.000000 0.000000 -0.004794 -0.003076 -0.870087
    26 3.859703 -0.142403 -1.191975 -0.568914 -0.013612 -1.526846
    27 1.312565 0.000001 0.000004 -0.086569 0.239740 -1.554263
    28 0.729362 0.000002 0.000004 -0.176896 0.315567 -1.429267
    29 3.942326 0.046774 -0.431438 0.030304 -0.060024 -1.757047
    30 1.539093 0.000001 0.000000 -0.058663 0.149388 -1.571890
    31 1.196320 -0.000001 0.000004 -0.107664 0.188367 -1.488369
    32 3.883686 -0.046767 0.431446 0.134430 0.056057 -1.771061
    33 1.719570 0.000002 0.000004 -0.030687 0.057172 -1.750786
    34 1.209183 -0.000001 -0.000004 -0.034252 0.059379 -1.537043
    35 3.859859 -0.137950 1.332462 0.524242 -0.087933 -1.819403
    36 1.719429 0.000002 0.000000 0.072023 -0.125294 -1.808387
    37 1.099670 0.000001 0.000004 0.072020 -0.125295 -0.669563
    38 0.806049 -0.348922 1.321259 -0.786557 -0.413955 -0.992027
    39 1.789787 0.000000 0.000004 0.004364 0.030238 0.718398
    40 1.207001 0.000000 -0.000004 0.102533 0.030240 0.502412
    41 3.859665 -0.132565 1.193108 0.693436 -0.009816 -1.600821
    42 1.312561 0.000000 0.000000 0.110761 -0.297055 -1.436131
    43 0.729366 0.000002 0.000000 0.157637 -0.341681 -1.408413
    44 3.942291 0.050330 0.431042 0.331339 -0.008608 -1.603857
    45 1.539097 0.000003 0.000000 0.050214 -0.153911 -1.591790
    46 1.196320 0.000000 0.000000 0.132537 -0.225779 -1.824940
    47 3.883648 -0.050325 -0.431044 -0.022374 -0.010304 -1.305812
    48 1.719574 -0.000005 0.000000 0.038733 -0.074557 -1.586292
    49 1.209183 -0.000001 0.000000 0.047518 -0.079997 -1.582137
    50 3.859825 -0.148935 -1.331284 -0.549062 -0.024858 -1.454209
    51 1.719425 0.000000 0.000000 -0.002107 0.024342 -1.684730
    52 1.099663 0.000000 0.000000 -0.007967 0.046800 -1.711623
    53 0.806015 -0.359835 -1.318335 1.200555 0.246503 -0.836612
    54 1.789780 0.000001 0.000000 0.046975 0.150711 0.289172
    55 1.207001 0.000000 0.000004 0.215983 -0.000003 0.942472
    56 3.643179 -1.117762 -6.586830 1.677301 0.043048 -2.001890
  time 1
    0 1.610982 -0.335943 37.656733 1.567891 0.047705 0.027884
    1 -0.128905 3.345128 -2.981903 1.574004 0.102068 1.613630
    2 4.018331 0.000000 0.000000 -0.052354 0.050635 0.223129
    3 3.518564 0.000000 0.000000 0.001739 0.011745 0.245001
    4 8.942642 0.000000 0.000000 0.035398 -0.111097 0.249670
    5 3.307269 0.000000 -0.000004 3.137477 0.001222 0.577187
    6 3.593710 -0.000001 -0.000004 -0.011480 -0.023094 1.026966
    7 1.999994 -3.000001 0.000004 -1.570753 -0.000007 -1.326410
    8 2.033349 1.000771 -1.937607 -1.388539 1.273912 -3.065612
    9 6.028143 0.000002 -0.000004 1.680914 0.166784 -0.677308
    10 11.692545 0.000000 0.000000 -0.000011 0.000000 -1.880280
    11 11.481701 0.000000 0.000000 -0.855417 0.236987 -0.014668
    12 2.676086 -1.712440 0.000000 -1.570793 0.000001 -1.570793
    13 2.033341 1.000767 1.937660 2.412174 -1.487397 2.120583
    14 6.028140 0.000002 0.000000 -1.071028 0.573919 -1.007880
    15 11.692553 0.000000 0.000011 -0.000013 0.000000 -2.029697
    16 11.481667 0.000000 -0.000031 1.575391 -0.108951 -0.097558
    17 2.676086 -1.712440 0.000004 1.570793 0.000005 1.570793
    18 -3.890452 0.000004 0.000004 -1.272277 -0.320222 -1.314207
    19 17.848171 0.000000 0.000004 0.000009 0.000000 0.453347
    20 16.525251 0.000000 0.000004 -0.183978 0.112230 -0.983656
    21 6.879454 0.000000 0.000008 -0.080537 -0.002786 -0.667857
    22 3.890452 -0.000004 -0.000004 -1.491264 -0.380233 -1.675742
    23 17.848175 0.000000 -0.000004 0.000010 0.000000 1.308195
    24 16.525246 0.000000 0.000004 -0.186611 -0.063507 -0.973699
    25 6.879452 0.000000 0.000000 -0.003344 -0.002956 -1.106191
    26 3.859703 -0.142403 -1.191975 -0.568914 -0.013612 -1.526846
    27 1.312565 0.000001 0.000004 -0.086569 0.239740 -1.554263
    28 0.729362 0.000002 0.000004 -0.176896 0.315567 -1.429267
    29 3.942326 0.046774 -0.431438 0.030304 -0.060024 -1.757047
    30 1.539093 0.000001 0.000000 -0.058663 0.149388 -1.571890
    31 1.196320 -0.000001 0.000004 -0.107664 0.188367 -1.488369
    32 3.883686 -0.046767 0.431446 0.134430 0.056057 -1.771061
    33 1.719570 0.000002 0.000004 -0.030687 0.057172 -1.750786
    34 1.209183 -0.000001 -0.000004 -0.034252 0.059379 -1.537043
    35 3.859859 -0.137950 1.332462 0.524242 -0.087933 -1.819403
    36 1.719429 0.000002 0.000000 0.072023 -0.125294 -1.808387
    37 1.099670 0.000001 0.000004 0.072020 -0.125295 -0.669563
    38 0.806049 -0.348922 1.321259 -0.786557 -0.413955 -0.992027
    39 1.789787 0.000000 0.000004 0.004364 0.030238 0.718398
    40 1.207001 0.000000 -0.000004 0.102533 0.030240 0.502412
    41 3.859665 -0.132565 1.193108 0.693436 -0.009816 -1.600821
    42 1.312561 0.000000 0.000000 0.110761 -0.297055 -1.436131
    43 0.729366 0.000002 0.000000 0.157637 -0.341681 -1.408413
    44 3.942291 0.050330 0.431042 0.331339 -0.008608 -1.603857
    45 1.539097 0.000003 0.000000 0.050214 -0.153911 -1.591790
    46 1.196320 0.000000 0.000000 0.132537 -0.225779 -1.824940
    47 3.883648 -0.050325 -0.431044 -0.022374 -0.010304 -1.305812
    48 1.719574 -0.000005 0.000000 0.038733 -0.074557 -1.586292
    49 1.209183 -0.000001 0.000000 0.047518 -0.079997 -1.582137
    50 3.859825 -0.148935 -1.331284 -0.549062 -0.024858 -1.454209
    51 1.719425 0.000000 0.000000 -0.002107 0.024342 -1.684730
    52 1.099663 0.000000 0.000000 -0.007967 0.046800 -1.711623
    53 0.806015 -0.359835 -1.318335 1.200555 0.246503 -0.836612
    54 1.789780 0.000001 0.000000 0.046975 0.150711 0.289172
    55 1.207001 0.000000 0.000004 0.215983 -0.000003 0.942472
    56 3.643179 -1.117762 -6.586830 1.677301 0.043060 -2.001890
  time 2
    0 1.610982 -0.335943 38.293472 1.575678 0.047909 0.011531
    1 -0.124999 3.345128 -2.981903 1.574247 0.102068 1.613927
    2 4.018331 0.000000 0.000000 -0.053326 0.044487 0.218659
    3 3.518564 0.000000 0.000000 0.002267 0.010247 0.231027
    4 8.942642 0.000000 0.000000 0.038876 -0.105800 0.250869
    5 3.307269 0.000000 -0.000004 3.137477 0.001222 0.577187
    6 3.593710 -0.000001 -0.000004 -0.000260 -0.020134 1.015318
    7 1.999994 -3.000001 0.000004 -1.570753 -0.000007 -1.326410
    8 2.033349 1.000771 -1.937607 -1.388354 1.273912 -3.065325
    9 6.028143 0.000002 -0.000004 1.673103 0.226487 -0.668402
    10 11.692545 0.000000 0.000000 -0.000011 0.000000 -1.837068
    11 11.481701 0.000000 0.000000 -0.854176 0.216364 -0.014472
    12 2.676086 -1.712440 0.000000 -1.570793 0.000001 -1.570793
    13 2.033341 1.000767 1.937660 2.412174 -1.487397 2.120583
    14 6.028140 0.000002 0.000000 -1.044604 0.640871 -1.004446
    15 11.692553 0.000000 0.000011 -0.000013 0.000000 -2.019066
    16 11.481667 0.000000 -0.000031 1.575452 -0.108951 -0.097558
    17 2.676086 -1.712440 0.000004 1.570793 0.000005 1.570793
    18 -3.890452 0.000004 0.000004 -1.348040 -0.455986 -1.272654
    19 17.848171 0.000000 0.000004 0.000009 0.000000 0.604263
    20 16.525251 0.000000 0.000004 -0.135393 0.115462 -0.824446
    21 6.879454 0.000000 0.000008 -0.080189 -0.002798 -0.705658
    22 3.890452 -0.000004 -0.000004 -1.449167 -0.303231 -1.748953
    23 17.848175 0.000000 -0.000004 0.000010 0.000000 1.224555
    24 16.525246 0.000000 0.000004 -0.274987 -0.059836 -0.962907
    25 6.879452 0.000000 0.000000 -0.003224 -0.002692 -1.106232
    26 3.859703 -0.142403 -1.191975 -0.568914 -0.013612 -1.526846
    27 1.312565 0.000001 0.000004 -0.086569 0.239740 -1.554263
    28 0.729362 0.000002 0.000004 -0.176896 0.315567 -1.429267
    29 3.942326 0.046774 -0.431438 0.030304 -0.060024 -1.757047
    30 1.539093 0.000001 0.000000 -0.058651 0.149388 -1.571890
    31 1.196320 -0.000001 0.000004 -0.107664 0.188367 -1.488369
    32 3.883686 -0.046767 0.431446 0.134430 0.056057 -1.771061
    33 1.719570 0.000002 0.000004 -0.030687 0.057172 -1.750786
    34 1.209183 -0.000001 -0.000004 -0.034252 0.059379 -1.537043
    35 3.859859 -0.137950 1.332462 0.524242 -0.087933 -1.819403
    36 1.719429 0.000002 0.000000 0.072023 -0.125294 -1.808387
    37 1.099670 0.000001 0.000004 0.072020 -0.125295 -0.669563
    38 0.806049 -0.348922 1.321259 -0.786557 -0.413955 -0.992027
    39 1.789787 0.000000 0.000004 0.004364 0.030238 0.718398
    40 1.207001 0.000000 -0.000004 0.102533 0.030240 0.502412
    41 3.859665 -0.132565 1.193108 0.693436 -0.009816 -1.600821
    42 1.312561 0.000000 0.000000 0.110761 -0.297055 -1.436131
    43 0.729366 0.000002 0.000000 0.157637 -0.341681 -1.408413
    44 3.942291 0.050330 0.431042 0.331339 -0.008608 -1.603857
    45 1.539097 0.000003 0.000000 0.050214 -0.153911 -1.591790
    46 1.196320 0.000000 0.000000 0.132537 -0.225779 -1.824940
    47 3.883648 -0.050325 -0.431044 -0.022374 -0.010304 -1.305812
    48 1.719574 -0.000005 0.000000 0.038733 -0.074557 -1.586292
    49 1.209183 -0.000001 0.000000 0.047518 -0.079997 -1.582137
    50 3.859825 -0.148935 -1.331284 -0.549062 -0.024858 -1.454209
    51 1.719425 0.000000 0.000000 -0.002107 0.024342 -1.684730
    52 1.099663 0.000000 0.000000 -0.007967 0.046800 -1.711623
    53 0.806015 -0.359835 -1.318335 1.200555 0.246503 -0.836612
    54 1.789780 0.000001 0.000000 0.046975 0.150711 0.289172
    55 1.207001 0.000000 0.000004 0.215983 -0.000003 0.942472
    56 3.643179 -1.117762 -6.586830 1.677301 0.043060 -2.001890
  time 3
    0 1.610982 -0.335943 38.652858 1.582812 0.045273 0.011683
    1 -0.124999 3.345128 -2.981903 1.574442 0.102068 1.614273
    2 4.018331 0.000000 0.000000 -0.056729 0.036769 0.213110
    3 3.518564 0.000000 0.000000 0.000409 0.007227 0.216885
    4 8.942642 0.000000 0.000000 0.034582 -0.098393 0.250285
    5 3.307269 0.000000 -0.000004 3.137477 0.001222 0.577187
    6 3.593710 -0.000001 -0.000004 0.009073 -0.017689 1.005606
    7 1.999994 -3.000001 0.000004 -1.570753 -0.000007 -1.326410
    8 2.033349 1.000771 -1.937607 -1.388075 1.273912 -3.065134
    9 6.028143 0.000002 -0.000004 1.663269 0.262913 -0.672784
    10 11.692545 0.000000 0.000000 -0.000011 0.000000 -1.806221
    11 11.481701 0.000000 0.000000 -0.853043 0.197800 -0.014374
    12 2.676086 -1.712440 0.000000 -1.570793 0.000001 -1.570793
    13 2.033341 1.000767 1.937660 2.412174 -1.487397 2.120583
    14 6.028140 0.000002 0.000000 -1.030223 0.683673 -0.999451
    15 11.692553 0.000000 0.000011 -0.000013 0.000000 -2.011443
    16 11.481667 0.000000 -0.000031 1.575391 -0.108951 -0.097558
    17 2.676086 -1.712440 0.000004 1.570793 0.000005 1.570793
    18 -3.890452 0.000004 0.000004 -1.413004 -0.624893 -1.244526
    19 17.848171 0.000000 0.000004 0.000009 0.000000 0.827237
    20 16.525251 0.000000 0.000004 -0.081256 0.145414 -0.702135
    21 6.879454 0.000000 0.000008 -0.079770 -0.002834 -0.755464
    22 3.890452 -0.000004 -0.000004 -1.395811 -0.195093 -1.812059
    23 17.848175 0.000000 -0.000004 0.000010 0.000000 1.071861
    24 16.525246 0.000000 0.000004 -0.355017 -0.110613 -0.972433
    25 6.879452 0.000000 0.000000 -0.003212 -0.002680 -1.106232
    26 3.859703 -0.142403 -1.191975 -0.568931 -0.013612 -1.526846
    27 1.312565 0.000001 0.000004 -0.086569 0.239740 -1.554263
    28 0.729362 0.000002 0.000004 -0.176896 0.315567 -1.429267
    29 3.942326 0.046774 -0.431438 0.030304 -0.060024 -1.757047
    30 1.539093 0.000001 0.000000 -0.058663 0.149388 -1.571890
    31 1.196320 -0.000001 0.000004 -0.107664 0.188367 -1.488369
    32 3.883686 -0.046767 0.431446 0.134430 0.056057 -1.771061
    33 1.719570 0.000002 0.000004 -0.030687 0.057172 -1.750786
    34 1.209183 -0.000001 -0.000004 -0.034252 0.059379 -1.537043
    35 3.859859 -0.137950 1.332462 0.524242 -0.087933 -1.819403
    36 1.719429 0.000002 0.000000 0.072023 -0.125294 -1.808387
    37 1.099670 0.000001 0.000004 0.072020 -0.125295 -0.669563
    38 0.806049 -0.348922 1.321259 -0.786557 -0.413955 -0.992027
    39 1.789787 0.000000 0.000004 0.004364 0.030238 0.718398
    40 1.207001 0.000000 -0.000004 0.102533 0.030240 0.502412
    41 3.859665 -0.132565 1.193108 0.693436 -0.009816 -1.600821
    42 1.312561 0.000000 0.000000 0.110761 -0.297055 -1.436131
    43 0.729366 0.000002 0.000000 0.157637 -0.341681 -1.408413
    44 3.942291 0.050330 0.431042 0.331339 -0.008608 -1.603857
    45 1.539097 0.000003 0.000000 0.050214 -0.153911 -1.591790
    46 1.196320 0.000000 0.000000 0.132537 -0.225779 -1.824940
    47 3.883648 -0.050325 -0.431044 -0.022374 -0.010304 -1.305812
    48 1.719574 -0.000005 0.000000 0.038733 -0.074557 -1.586292
    49 1.209183 -0.000001 0.000000 0.047518 -0.079997 -1.582137
    50 3.859825 -0.148935 -1.331284 -0.549062 -0.024858 -1.454209
    51 1.719425 0.000000 0.000000 -0.002107 0.024342 -1.684730
    52 1.099663 0.000000 0.000000 -0.007967 0.046800 -1.711623
    53 0.806015 -0.359835 -1.318335 1.200555 0.246503 -0.836612
    54 1.789780 0.000001 0.000000 0.046975 0.150711 0.289172
    55 1.207001 0.000000 0.000004 0.215983 -0.000003 0.942472
    56 3.643179 -1.117762 -6.586830 1.677301 0.043048 -2.001890
  time 4
    0 1.610982 -0.335943 38.465352 1.588039 0.038058 0.025159
    1 -0.124999 3.345128 -2.981903 1.574637 0.102068 1.614570
    2 4.018331 0.000000 0.000000 -0.063553 0.026138 0.208520
    3 3.518564 0.000000 0.000000 -0.004864 -0.001330 0.206518
    4 8.942642 0.000000 0.000000 0.023942 -0.089669 0.247104
    5 3.307269 0.000000 -0.000004 3.137477 0.001222 0.577187
    6 3.593710 -0.000001 -0.000004 0.013074 -0.016647 1.001524
    7 1.999994 -3.000001 0.000004 -1.570753 -0.000007 -1.326410
    8 2.033349 1.000771 -1.937607 -1.387797 1.273872 -3.064848
    9 6.028143 0.000002 -0.000004 1.650403 0.275171 -0.692009
    10 11.692545 0.000000 0.000000 -0.000011 0.000000 -1.794580
    11 11.481701 0.000000 0.000000 -0.852072 0.181168 -0.014276
    12 2.676086 -1.712440 0.000000 -1.570793 0.000001 -1.570793
    13 2.033341 1.000767 1.937660 2.412174 -1.487397 2.120583
    14 6.028140 0.000002 0.000000 -1.035484 0.702831 -0.995002
    15 11.692553 0.000000 0.000011 -0.000013 0.000000 -2.010884
    16 11.481667 0.000000 -0.000031 1.575391 -0.108951 -0.097558
    17 2.676086 -1.712440 0.000004 1.570793 0.000005 1.570793
    18 -3.890452 0.000004 0.000004 -1.468705 -0.774320 -1.233850
    19 17.848171 0.000000 0.000004 0.000009 0.000000 1.031299
    20 16.525251 0.000000 0.000004 0.000391 0.202113 -0.583796
    21 6.879454 0.000000 0.000008 -0.079314 -0.002858 -0.815300
    22 3.890452 -0.000004 -0.000004 -1.340742 -0.075384 -1.853305
    23 17.848175 0.000000 -0.000004 0.000010 0.000000 0.843603
    24 16.525246 0.000000 0.000004 -0.398019 -0.244644 -0.970926
    25 6.879452 0.000000 0.000000 -0.003224 -0.002704 -1.106232
    26 3.859703 -0.142403 -1.191975 -0.568914 -0.013612 -1.526846
    27 1.312565 0.000001 0.000004 -0.086569 0.239740 -1.554263
    28 0.729362 0.000002 0.000004 -0.176896 0.315567 -1.429267
    29 3.942326 0.046774 -0.431438 0.030304 -0.060024 -1.757047
    30 1.539093 0.000001 0.000000 -0.058663 0.149388 -1.571890
    31 1.196320 -0.000001 0.000004 -0.107664 0.188367 -1.488369
    32 3.883686 -0.046767 0.431446 0.134430 0.056057 -1.771061
    33 1.719570 0.000002 0.000004 -0.030687 0.057172 -1.750786
    34 1.209183 -0.000001 -0.000004 -0.034252 0.059379 -1.537043
    35 3.859859 -0.137950 1.332462 0.524242 -0.087933 -1.819403
    36 1.719429 0.000002 0.000000 0.072023 -0.125294 -1.808387
    37 1.099670 0.000001 0.000004 0.072020 -0.125295 -0.669563
    38 0.806049 -0.348922 1.321259 -0.786557 -0.413955 -0.992027
    39 1.789787 0.000000 0.000004 0.004364 0.030238 0.718398
    40 1.207001 0.000000 -0.000004 0.102533 0.030240 0.502412
    41 3.859665 -0.132565 1.193108 0.693436 -0.009816 -1.600821
    42 1.312561 0.000000 0.000000 0.110761 -0.297055 -1.436131
    43 0.729366 0.000002 0.000000 0.157637 -0.341681 -1.408413
    44 3.942291 0.050330 0.431042 0.331339 -0.008608 -1.603857
    45 1.539097 0.000003 0.000000 0.050214 -0.153911 -1.591790
    46 1.196320 0.000000 0.000000 0.132537 -0.225779 -1.824940
    47 3.883648 -0.050325 -0.431044 -0.022374 -0.010304 -1.305812
    48 1.719574 -0.000005 0.000000 0.038733 -0.074557 -1.586292
    49 1.209183 -0.000001 0.000000 0.047518 -0.079997 -1.582137
    50 3.859825 -0.148935 -1.331284 -0.549062 -0.024858 -1.454209
    51 1.719425 0.000000 0.000000 -0.002107 0.024342 -1.684730
    52 1.099663 0.000000 0.000000 -0.007967 0.046800 -1.711623
    53 0.806015 -0.359835 -1.318335 1.200555 0.246503 -0.836612
    54 1.789780 0.000001 0.000000 0.046975 0.150711 0.289172
    55 1.207001 0.000000 0.000004 0.215983 -0.000003 0.942472
    56 3.643179 -1.117762 -6.586830 1.677301 0.043048 -2.001890
  time 5
    0 1.610982 -0.335943 37.758299 1.590054 0.027464 0.043026
    1 -0.124999 3.345128 -2.981903 1.574734 0.102068 1.614619
    2 4.018331 0.000000 0.000000 -0.072714 0.013327 0.206938
    3 3.518564 0.000000 0.000000 -0.012247 -0.011301 0.204805
    4 8.942642 0.000000 0.000000 0.010638 -0.080920 0.242063
    5 3.307269 0.000000 -0.000004 3.137477 0.001222 0.577187
    6 3.593710 -0.000001 -0.000004 0.017212 -0.022052 1.002016
    7 1.999994 -3.000001 0.000004 -1.570753 -0.000007 -1.326410
    8 2.033349 1.000771 -1.937607 -1.387611 1.273872 -3.064657
    9 6.028143 0.000002 -0.000004 1.637170 0.266260 -0.717453
    10 11.692545 0.000000 0.000000 -0.000011 0.000000 -1.805169
    11 11.481701 0.000000 0.000000 -0.851748 0.175909 -0.014276
    12 2.676086 -1.712440 0.000000 -1.570793 0.000001 -1.570793
    13 2.033341 1.000767 1.937660 2.412174 -1.487397 2.120583
    14 6.028140 0.000002 0.000000 -1.079271 0.677534 -1.005695
    15 11.692553 0.000000 0.000011 -0.000013 0.000000 -2.021934
    16 11.481667 0.000000 -0.000031 1.575452 -0.108951 -0.097558
    17 2.676086 -1.712440 0.000004 1.570793 0.000005 1.570793
    18 -3.890452 0.000004 0.000004 -1.515496 -0.877912 -1.252965
    19 17.848171 0.000000 0.000004 0.000009 0.000000 1.196268
    20 16.525251 0.000000 0.000004 0.121217 0.239274 -0.475109
    21 6.879454 0.000000 0.000008 -0.078847 -0.002882 -0.883532
    22 3.890452 -0.000004 -0.000004 -1.313575 0.022235 -1.846568
    23 17.848175 0.000000 -0.000004 0.000010 0.000000 0.592745
    24 16.525246 0.000000 0.000004 -0.365237 -0.387952 -0.966705
    25 6.879452 0.000000 0.000000 -0.003332 -0.002944 -1.106191
    26 3.859703 -0.142403 -1.191975 -0.568914 -0.013612 -1.526846
    27 1.312565 0.000001 0.000004 -0.086569 0.239740 -1.554263
    28 0.729362 0.000002 0.000004 -0.176896 0.315567 -1.429267
    29 3.942326 0.046774 -0.431438 0.030304 -0.060024 -1.757047
    30 1.539093 0.000001 0.000000 -0.058651 0.149388 -1.571890
    31 1.196320 -0.000001 0.000004 -0.107664 0.188367 -1.488369
    32 3.883686 -0.046767 0.431446 0.134430 0.056057 -1.771061
    33 1.719570 0.000002 0.000004 -0.030687 0.057172 -1.750786
    34 1.209183 -0.000001 -0.000004 -0.034252 0.059379 -1.537043
    35 3.859859 -0.137950 1.332462 0.524242 -0.087933 -1.819403
    36 1.719429 0.000002 0.000000 0.072023 -0.125294 -1.808387
    37 1.099670 0.000001 0.000004 0.072020 -0.125295 -0.669563
    38 0.806049 -0.348922 1.321259 -0.786557 -0.413955 -0.992027
    39 1.789787 0.000000 0.000004 0.004364 0.030238 0.718398
    40 1.207001 0.000000 -0.000004 0.102533 0.030240 0.502412
    41 3.859665 -0.132565 1.193108 0.693436 -0.009816 -1.600821
    42 1.312561 0.000000 0.000000 0.110761 -0.297055 -1.436131
    43 0.729366 0.000002 0.000000 0.157637 -0.341681 -1.408413
    44 3.942291 0.050330 0.431042 0.331339 -0.008608 -1.603857
    45 1.539097 0.000003 0.000000 0.050214 -0.153911 -1.591790
    46 1.196320 0.000000 0.000000 0.132537 -0.225779 -1.824940
    47 3.883648 -0.050325 -0.431044 -0.022374 -0.010304 -1.305812
    48 1.719574 -0.000005 0.000000 0.038733 -0.074557 -1.586292
    49 1.209183 -0.000001 0.000000 0.047518 -0.079997 -1.582137
    50 3.859825 -0.148935 -1.331284 -0.549062 -0.024858 -1.454209
    51 1.719425 0.000000 0.000000 -0.002107 0.024342 -1.684730
    52 1.099663 0.000000 0.000000 -0.007967 0.046800 -1.711623
    53 0.806015 -0.359835 -1.318335 1.200555 0.246503 -0.836612
    54 1.789780 0.000001 0.000000 0.046975 0.150711 0.289172
    55 1.207001 0.000000 0.000004 0.215983 -0.000003 0.942472
    56 3.643179 -1.117762 -6.586830 1.677301 0.043048 -2.001890
  time 6
    0 1.610982 -0.335943 36.863740 1.580198 0.016390 0.063392
    1 -0.124999 3.345128 -2.981903 1.574734 0.102068 1.614471
    2 4.018331 0.000000 0.000000 -0.082567 0.000384 0.212379
    3 3.518564 0.000000 0.000000 -0.020205 -0.018241 0.220540
    4 8.942642 0.000000 0.000000 -0.003646 -0.072950 0.236531
    5 3.307269 0.000000 -0.000004 3.137477 0.001222 0.577187
    6 3.593710 -0.000001 -0.000004 0.027419 -0.035606 1.003318
    7 1.999994 -3.000001 0.000004 -1.570753 -0.000007 -1.326410
    8 2.033349 1.000771 -1.937607 -1.387333 1.273872 -3.064371
    9 6.028143 0.000002 -0.000004 1.629634 0.243279 -0.741554
    10 11.692545 0.000000 0.000000 -0.000011 0.000000 -1.832991
    11 11.481701 0.000000 0.000000 -0.852288 0.184970 -0.014325
    12 2.676086 -1.712440 0.000000 -1.570793 0.000001 -1.570793
    13 2.033341 1.000767 1.937660 2.412174 -1.487397 2.120583
    14 6.028140 0.000002 0.000000 -1.146032 0.605557 -1.024037
    15 11.692553 0.000000 0.000011 -0.000013 0.000000 -2.033543
    16 11.481667 0.000000 -0.000031 1.575391 -0.108951 -0.097558
    17 2.676086 -1.712440 0.000004 1.570793 0.000005 1.570793
    18 -3.890452 0.000004 0.000004 -1.536620 -0.924716 -1.316956
    19 17.848171 0.000000 0.000004 0.000009 0.000000 1.339635
    20 16.525251 0.000000 0.000004 0.254950 0.222339 -0.416241
    21 6.879454 0.000000 0.000008 -0.078380 -0.002918 -0.958488
    22 3.890452 -0.000004 -0.000004 -1.330952 0.018743 -1.804910
    23 17.848175 0.000000 -0.000004 0.000010 0.000000 0.530140
    24 16.525246 0.000000 0.000004 -0.254811 -0.457952 -1.117314
    25 6.879452 0.000000 0.000000 -0.004327 -0.003112 -0.947594
    26 3.859703 -0.142403 -1.191975 -0.568914 -0.013612 -1.526846
    27 1.312565 0.000001 0.000004 -0.086569 0.239740 -1.554263
    28 0.729362 0.000002 0.000004 -0.176896 0.315567 -1.429267
    29 3.942326 0.046774 -0.431438 0.030304 -0.060024 -1.757047
    30 1.539093 0.000001 0.000000 -0.058651 0.149388 -1.571890
    31 1.196320 -0.000001 0.000004 -0.107664 0.188367 -1.488369
    32 3.883686 -0.046767 0.431446 0.134430 0.056057 -1.771061
    33 1.719570 0.000002 0.000004 -0.030687 0.057172 -1.750786
    34 1.209183 -0.000001 -0.000004 -0.034252 0.059379 -1.537043
    35 3.859859 -0.137950 1.332462 0.524242 -0.087933 -1.819403
    36 1.719429 0.000002 0.000000 0.072023 -0.125294 -1.808387
    37 1.099670 0.000001 0.000004 0.072020 -0.125295 -0.669563
    38 0.806049 -0.348922 1.321259 -0.786557 -0.413955 -0.992027
    39 1.789787 0.000000 0.000004 0.004364 0.030238 0.718398
    40 1.207001 0.000000 -0.000004 0.102533 0.030240 0.502412
    41 3.859665 -0.132565 1.193108 0.693436 -0.009816 -1.600821
    42 1.312561 0.000000 0.000000 0.110761 -0.297055 -1.436131
    43 0.729366 0.000002 0.000000 0.157637 -0.341681 -1.408413
    44 3.942291 0.050330 0.431042 0.331339 -0.008608 -1.603857
    45 1.539097 0.000003 0.000000 0.050214 -0.153911 -1.591790
    46 1.196320 0.000000 0.000000 0.132537 -0.225779 -1.824940
    47 3.883648 -0.050325 -0.431044 -0.022374 -0.010304 -1.305812
    48 1.719574 -0.000005 0.000000 0.038733 -0.074557 -1.586292
    49 1.209183 -0.000001 0.000000 0.047518 -0.079997 -1.582137
    50 3.859825 -0.148935 -1.331284 -0.549062 -0.024858 -1.454209
    51 1.719425 0.000000 0.000000 -0.002107 0.024342 -1.684730
    52 1.099663 0.000000 0.000000 -0.007967 0.046800 -1.711623
    53 0.806015 -0.359835 -1.318335 1.200555 0.246503 -0.836612
    54 1.789780 0.000001 0.000000 0.046975 0.150711 0.289172
    55 1.207001 0.000000 0.000004 0.215983 -0.000003 0.942472
    56 3.643179 -1.117762 -6.586830 1.677301 0.043048 -2.001890
  time 7
    0 1.610982 -0.335943 36.148875 1.561792 0.007593 0.084818
    1 -0.124999 3.345128 -2.981903 1.574588 0.102068 1.613927
    2 4.018331 0.000000 0.000000 -0.091448 -0.010546 0.221943
    3 3.518564 0.000000 0.000000 -0.027623 -0.024173 0.242161
    4 8.942642 0.000000 0.000000 -0.017294 -0.066574 0.231782
    5 3.307269 0.000000 -0.000004 3.137477 0.001222 0.577187
    6 3.593710 -0.000001 -0.000004 0.040340 -0.053319 1.005359
    7 1.999994 -3.000001 0.000004 -1.570753 -0.000007 -1.326410
    8 2.033349 1.000771 -1.937607 -1.387148 1.273832 -3.064180
    9 6.028143 0.000002 -0.000004 1.623660 0.202023 -0.766327
    10 11.692545 0.000000 0.000000 -0.000011 0.000000 -1.872454
    11 11.481701 0.000000 0.000000 -0.853259 0.201316 -0.014374
    12 2.676086 -1.712440 0.000000 -1.570793 0.000001 -1.570793
    13 2.033341 1.000767 1.937660 2.412174 -1.487397 2.120583
    14 6.028140 0.000002 0.000000 -1.209929 0.508485 -1.032038
    15 11.692553 0.000000 0.000011 -0.000013 0.000000 -2.034313
    16 11.481667 0.000000 -0.000031 1.575391 -0.108951 -0.097558
    17 2.676086 -1.712440 0.000004 1.570793 0.000005 1.570793
    18 -3.890452 0.000004 0.000004 -1.525704 -0.905892 -1.420774
    19 17.848171 0.000000 0.000004 0.000009 0.000000 1.451010
    20 16.525251 0.000000 0.000004 0.338684 0.154861 -0.430266
    21 6.879454 0.000000 0.000008 -0.077936 -0.002942 -1.038649
    22 3.890452 -0.000004 -0.000004 -1.388387 -0.073196 -1.722143
    23 17.848175 0.000000 -0.000004 0.000010 0.000000 0.628054
    24 16.525246 0.000000 0.000004 -0.164635 -0.374155 -1.373192
    25 6.879452 0.000000 0.000000 -0.006041 -0.003004 -0.707827
    26 3.859703 -0.142403 -1.191975 -0.568914 -0.013612 -1.526846
    27 1.312565 0.000001 0.000004 -0.086569 0.239740 -1.554263
    28 0.729362 0.000002 0.000004 -0.176896 0.315567 -1.429267
    29 3.942326 0.046774 -0.431438 0.030304 -0.060024 -1.757047
    30 1.539093 0.000001 0.000000 -0.058663 0.149388 -1.571890
    31 1.196320 -0.000001 0.000004 -0.107664 0.188367 -1.488369
    32 3.883686 -0.046767 0.431446 0.134430 0.056057 -1.771061
    33 1.719570 0.000002 0.000004 -0.030687 0.057172 -1.750786
    34 1.209183 -0.000001 -0.000004 -0.034252 0.059379 -1.537043
    35 3.859859 -0.137950 1.332462 0.524242 -0.087933 -1.819403
    36 1.719429 0.000002 0.000000 0.072023 -0.125294 -1.808387
    37 1.099670 0.000001 0.000004 0.072020 -0.125295 -0.669563
    38 0.806049 -0.348922 1.321259 -0.786557 -0.413955 -0.992027
    39 1.789787 0.000000 0.000004 0.004364 0.030238 0.718398
    40 1.207001 0.000000 -0.000004 0.102533 0.030240 0.502412
    41 3.859665 -0.132565 1.193108 0.693436 -0.009816 -1.600821
    42 1.312561 0.000000 0.000000 0.110761 -0.297055 -1.436131
    43 0.729366 0.000002 0.000000 0.157637 -0.341681 -1.408413
    44 3.942291 0.050330 0.431042 0.331339 -0.008608 -1.603808
    45 1.539097 0.000003 0.000000 0.050214 -0.153911 -1.591790
    46 1.196320 0.000000 0.000000 0.132537 -0.225779 -1.824940
    47 3.883648 -0.050325 -0.431044 -0.022374 -0.010304 -1.305812
    48 1.719574 -0.000005 0.000000 0.038733 -0.074557 -1.586292
    49 1.209183 -0.000001 0.000000 0.047518 -0.079997 -1.582137
    50 3.859825 -0.148935 -1.331284 -0.549062 -0.024858 -1.454209
    51 1.719425 0.000000 0.000000 -0.002107 0.024342 -1.684730
    52 1.099663 0.000000 0.000000 -0.007967 0.046800 -1.711623
    53 0.806015 -0.359835 -1.318335 1.200555 0.246503 -0.836612
    54 1.789780 0.000001 0.000000 0.046975 0.150711 0.289172
    55 1.207001 0.000000 0.000004 0.215983 -0.000003 0.942472
    56 3.643179 -1.117762 -6.586830 1.677301 0.043060 -2.001890
  time 8
    0 1.610982 -0.335943 35.941837 1.551501 0.003926 0.106471
    1 -0.124999 3.345128 -2.981903 1.574247 0.102068 1.612937
    2 4.018331 0.000000 0.000000 -0.097767 -0.017486 0.227156
    3 3.518564 0.000000 0.000000 -0.033160 -0.027445 0.253186
    4 8.942642 0.000000 0.000000 -0.028635 -0.062607 0.229200
    5 3.307269 0.000000 -0.000004 3.137477 0.001222 0.577187
    6 3.593710 -0.000001 -0.000004 0.052708 -0.071212 1.007928
    7 1.999994 -3.000001 0.000004 -1.570753 -0.000007 -1.326450
    8 2.033349 1.000771 -1.937607 -1.386869 1.273832 -3.063893
    9 6.028143 0.000002 -0.000004 1.617319 0.140227 -0.790216
    10 11.692545 0.000000 0.000000 -0.000011 0.000000 -1.917902
    11 11.481701 0.000000 0.000000 -0.854661 0.224442 -0.014570
    12 2.676086 -1.712440 0.000000 -1.570793 0.000001 -1.570793
    13 2.033341 1.000767 1.937660 2.412174 -1.487397 2.120583
    14 6.028140 0.000002 0.000000 -1.259795 0.400114 -1.025286
    15 11.692553 0.000000 0.000011 -0.000013 0.000000 -2.019906
    16 11.481667 0.000000 -0.000031 1.575391 -0.108951 -0.097558
    17 2.676086 -1.712440 0.000004 1.570793 0.000005 1.570793
    18 -3.890452 0.000004 0.000004 -1.485875 -0.827371 -1.547030
    19 17.848171 0.000000 0.000004 0.000009 0.000000 1.492121
    20 16.525251 0.000000 0.000004 0.340469 0.059947 -0.494011
    21 6.879454 0.000000 0.000008 -0.077565 -0.002918 -1.105361
    22 3.890452 -0.000004 -0.000004 -1.443701 -0.175780 -1.624390
    23 17.848175 0.000000 -0.000004 0.000010 0.000000 0.672191
    24 16.525246 0.000000 0.000004 -0.164869 -0.262456 -1.424319
    25 6.879452 0.000000 0.000000 -0.007155 -0.002944 -0.595621
    26 3.859703 -0.142403 -1.191975 -0.568914 -0.013612 -1.526846
    27 1.312565 0.000001 0.000004 -0.086569 0.239740 -1.554263
    28 0.729362 0.000002 0.000004 -0.176896 0.315567 -1.429267
    29 3.942326 0.046774 -0.431438 0.030304 -0.060024 -1.757047
    30 1.539093 0.000001 0.000000 -0.058651 0.149388 -1.571890
    31 1.196320 -0.000001 0.000004 -0.107664 0.188367 -1.488369
    32 3.883686 -0.046767 0.431446 0.134430 0.056057 -1.771061
    33 1.719570 0.000002 0.000004 -0.030687 0.057172 -1.750786
    34 1.209183 -0.000001 -0.000004 -0.034252 0.059379 -1.537043
    35 3.859859 -0.137950 1.332462 0.524242 -0.087933 -1.819403
    36 1.719429 0.000002 0.000000 0.072023 -0.125294 -1.808387
    37 1.099670 0.000001 0.000004 0.072020 -0.125295 -0.669563
    38 0.806049 -0.348922 1.321259 -0.786557 -0.413955 -0.992027
    39 1.789787 0.000000 0.000004 0.004364 0.030238 0.718398
    40 1.207001 0.000000 -0.000004 0.102533 0.030240 0.502412
    41 3.859665 -0.132565 1.193108 0.693436 -0.009816 -1.600821
    42 1.312561 0.000000 0.000000 0.110761 -0.297055 -1.436131
    43 0.729366 0.000002 0.000000 0.157637 -0.341681 -1.408413
    44 3.942291 0.050330 0.431042 0.331339 -0.008608 -1.603857
    45 1.539097 0.000003 0.000000 0.050214 -0.153911 -1.591790
    46 1.196320 0.000000 0.000000 0.132537 -0.225779 -1.824940
    47 3.883648 -0.050325 -0.431044 -0.022374 -0.010304 -1.305812
    48 1.719574 -0.000005 0.000000 0.038733 -0.074557 -1.586292
    49 1.209183 -0.000001 0.000000 0.047518 -0.079997 -1.582137
    50 3.859825 -0.148935 -1.331284 -0.549062 -0.024858 -1.454209
    51 1.719425 0.000000 0.000000 -0.002107 0.024342 -1.684730
    52 1.099663 0.000000 0.000000 -0.007967 0.046800 -1.711623
    53 0.806015 -0.359835 -1.318335 1.200555 0.246503 -0.836612
    54 1.789780 0.000001 0.000000 0.046975 0.150711 0.289172
    55 1.207001 0.000000 0.000004 0.215983 -0.000003 0.942472
    56 3.643179 -1.117762 -6.586830 1.677301 0.043060 -2.001890
  time 9
    0 1.610982 -0.335943 36.305130 1.554060 0.004453 0.127064
    1 -0.124999 3.345128 -2.981903 1.573225 0.102068 1.610513
    2 4.018331 0.000000 0.000000 -0.101618 -0.019834 0.225874
    3 3.518564 0.000000 0.000000 -0.037115 -0.028427 0.251233
    4 8.942642 0.000000 0.000000 -0.038422 -0.060870 0.229431
    5 3.307269 0.000000 -0.000004 3.137477 0.001222 0.577187
    6 3.593710 -0.000001 -0.000004 0.061077 -0.085270 1.010990
    7 1.999994 -3.000001 0.000004 -1.570753 -0.000007 -1.326410
    8 2.033349 1.000771 -1.937607 -1.386591 1.273832 -3.063607
    9 6.028143 0.000002 -0.000004 1.609599 0.064987 -0.811950
    10 11.692545 0.000000 0.000000 -0.000011 0.000000 -1.963876
    11 11.481701 0.000000 0.000000 -0.856496 0.254791 -0.014815
    12 2.676086 -1.712440 0.000000 -1.570793 0.000001 -1.570793
    13 2.033341 1.000767 1.937660 2.412174 -1.487397 2.120583
    14 6.028140 0.000002 0.000000 -1.298028 0.288572 -1.007802
    15 11.692553 0.000000 0.000011 -0.000013 0.000000 -1.989763
    16 11.481667 0.000000 -0.000031 1.575391 -0.108951 -0.097558
    17 2.676086 -1.712440 0.000004 1.570793 0.000005 1.570793
    18 -3.890452 0.000004 0.000004 -1.454780 -0.717561 -1.661971
    19 17.848171 0.000000 0.000004 0.000009 0.000000 1.465585
    20 16.525251 0.000000 0.000004 0.319342 -0.034162 -0.572384
    21 6.879454 0.000000 0.000008 -0.077481 -0.002738 -1.105361
    22 3.890452 -0.000004 -0.000004 -1.494691 -0.272178 -1.522651
    23 17.848175 0.000000 -0.000004 0.000010 0.000000 0.639761
    24 16.525246 0.000000 0.000004 -0.201941 -0.145260 -1.301505
    25 6.879452 0.000000 0.000000 -0.007167 -0.002944 -0.595456
    26 3.859703 -0.142403 -1.191975 -0.568914 -0.013612 -1.526846
    27 1.312565 0.000001 0.000004 -0.086569 0.239740 -1.554263
    28 0.729362 0.000002 0.000004 -0.176896 0.315567 -1.429267
    29 3.942326 0.046774 -0.431438 0.030304 -0.060024 -1.757047
    30 1.539093 0.000001 0.000000 -0.058651 0.149388 -1.571890
    31 1.196320 -0.000001 0.000004 -0.107664 0.188367 -1.488369
    32 3.883686 -0.046767 0.431446 0.134430 0.056057 -1.771061
    33 1.719570 0.000002 0.000004 -0.030687 0.057172 -1.750786
    34 1.209183 -0.000001 -0.000004 -0.034252 0.059379 -1.537043
    35 3.859859 -0.137950 1.332462 0.524242 -0.087933 -1.819403
    36 1.719429 0.000002 0.000000 0.072023 -0.125294 -1.808387
    37 1.099670 0.000001 0.000004 0.072020 -0.125295 -0.669563
    38 0.806049 -0.348922 1.321259 -0.786557 -0.413955 -0.992027
    39 1.789787 0.000000 0.000004 0.004364 0.030238 0.718398
    40 1.207001 0.000000 -0.000004 0.102533 0.030240 0.502412
    41 3.859665 -0.132565 1.193108 0.693436 -0.009816 -1.600821
    42 1.312561 0.000000 0.000000 0.110761 -0.297055 -1.436131
    43 0.729366 0.000002 0.000000 0.157637 -0.341681 -1.408413
    44 3.942291 0.050330 0.431042 0.331339 -0.008608 -1.603857
    45 1.539097 0.000003 0.000000 0.050214 -0.153911 -1.591790
    46 1.196320 0.000000 0.000000 0.132537 -0.225779 -1.824940
    47 3.883648 -0.050325 -0.431044 -0.022374 -0.010304 -1.305812
    48 1.719574 -0.000005 0.000000 0.038733 -0.074557 -1.586292
    49 1.209183 -0.000001 0.000000 0.047518 -0.079997 -1.582137
    50 3.859825 -0.148935 -1.331284 -0.549062 -0.024858 -1.454209
    51 1.719425 0.000000 0.000000 -0.002107 0.024342 -1.684730
    52 1.099663 0.000000 0.000000 -0.007967 0.046800 -1.711623
    53 0.806015 -0.359835 -1.318335 1.200555 0.246503 -0.836612
    54 1.789780 0.000001 0.000000 0.046975 0.150711 0.289172
    55 1.207001 0.000000 0.000004 0.215983 -0.000003 0.942472
    56 3.643179 -1.117762 -6.586830 1.677301 0.043048 -2.001890
  time 10
    0 1.610982 -0.335943 36.934055 1.561357 0.006191 0.144780
    1 -0.124999 3.345128 -2.981903 1.571472 0.102068 1.606407
    2 4.018331 0.000000 0.000000 -0.104086 -0.019044 0.222242
    3 3.518564 0.000000 0.000000 -0.040459 -0.028583 0.245720
    4 8.942642 0.000000 0.000000 -0.047724 -0.060714 0.231567
    5 3.307269 0.000000 -0.000004 3.137477 0.001222 0.577187
    6 3.593710 -0.000001 -0.000004 0.063192 -0.092509 1.014438
    7 1.999994 -3.000001 0.000004 -1.570753 -0.000007 -1.326410
    8 2.033349 1.000771 -1.937607 -1.386406 1.273792 -3.063416
    9 6.028143 0.000002 -0.000004 1.600134 -0.012345 -0.829902
    10 11.692545 0.000000 0.000000 -0.000011 0.000000 -2.006233
    11 11.481701 0.000000 0.000000 -0.858654 0.290398 -0.015208
    12 2.676086 -1.712440 0.000000 -1.570793 0.000001 -1.570793
    13 2.033341 1.000767 1.937660 2.412174 -1.487397 2.120583
    14 6.028140 0.000002 0.000000 -1.330590 0.177941 -0.984582
    15 11.692553 0.000000 0.000011 -0.000013 0.000000 -1.946053
    16 11.481667 0.000000 -0.000031 1.575391 -0.108951 -0.097558
    17 2.676086 -1.712440 0.000004 1.570793 0.000005 1.570793
    18 -3.890452 0.000004 0.000004 -1.456786 -0.569989 -1.739004
    19 17.848171 0.000000 0.000004 0.000009 0.000000 1.350324
    20 16.525251 0.000000 0.000004 0.317697 -0.117259 -0.631353
    21 6.879454 0.000000 0.000008 -0.077421 -0.002618 -1.105361
    22 3.890452 -0.000004 -0.000004 -1.541765 -0.278322 -1.427922
    23 17.848175 0.000000 -0.000004 0.000010 0.000000 0.413006
    24 16.525246 0.000000 0.000004 -0.230199 -0.047539 -1.078546
    25 6.879452 0.000000 0.000000 -0.007143 -0.002944 -0.596650
    26 3.859703 -0.142403 -1.191975 -0.568914 -0.013612 -1.526846
    27 1.312565 0.000001 0.000004 -0.086569 0.239740 -1.554310
    28 0.729362 0.000002 0.000004 -0.176896 0.315567 -1.429267
    29 3.942326 0.046774 -0.431438 0.030304 -0.060024 -1.757047
    30 1.539093 0.000001 0.000000 -0.058651 0.149388 -1.571890
    31 1.196320 -0.000001 0.000004 -0.107664 0.188367 -1.488369
    32 3.883686 -0.046767 0.431446 0.134430 0.056057 -1.771061
    33 1.719570 0.000002 0.000004 -0.030687 0.057172 -1.750786
    34 1.209183 -0.000001 -0.000004 -0.034252 0.059379 -1.537043
    35 3.859859 -0.137950 1.332462 0.524242 -0.087933 -1.819403
    36 1.719429 0.000002 0.000000 0.072023 -0.125294 -1.808387
    37 1.099670 0.000001 0.000004 0.072020 -0.125295 -0.669563
    38 0.806049 -0.348922 1.321259 -0.786557 -0.413955 -0.992027
    39 1.789787 0.000000 0.000004 0.004364 0.030238 0.718398
    40 1.207001 0.000000 -0.000004 0.102533 0.030240 0.502412
    41 3.859665 -0.132565 1.193108 0.693436 -0.009816 -1.600821
    42 1.312561 0.000000 0.000000 0.110761 -0.297055 -1.436131
    43 0.729366 0.000002 0.000000 0.157637 -0.341681 -1.408413
    44 3.942291 0.050330 0.431042 0.331339 -0.008608 -1.603857
    45 1.539097 0.000003 0.000000 0.050214 -0.153911 -1.591790
    46 1.196320 0.000000 0.000000 0.132537 -0.225779 -1.824940
    47 3.883648 -0.050325 -0.431044 -0.022374 -0.010304 -1.305812
    48 1.719574 -0.000005 0.000000 0.038733 -0.074557 -1.586292
    49 1.209183 -0.000001 0.000000 0.047518 -0.079997 -1.582137
    50 3.859825 -0.148935 -1.331284 -0.549062 -0.024858 -1.454209
    51 1.719425 0.000000 0.000000 -0.002107 0.024342 -1.684730
    52 1.099663 0.000000 0.000000 -0.007967 0.046800 -1.711623
    53 0.806015 -0.359835 -1.318335 1.200555 0.246503 -0.836612
    54 1.789780 0.000001 0.000000 0.046975 0.150711 0.289172
    55 1.207001 0.000000 0.000004 0.215983 -0.000003 0.942472
    56 3.643179 -1.117762 -6.586830 1.677301 0.043060 -2.001890
  time 11
    0 1.610982 -0.335943 37.656733 1.571104 0.008839 0.157877
    1 -0.124999 3.345128 -2.981903 1.569573 0.102068 1.601906
    2 4.018331 0.000000 0.000000 -0.104983 -0.015832 0.217424
    3 3.518564 0.000000 0.000000 -0.042676 -0.027744 0.237882
    4 8.942642 0.000000 0.000000 -0.055370 -0.062200 0.234702
    5 3.307269 0.000000 -0.000004 3.137477 0.001222 0.577187
    6 3.593710 -0.000001 -0.000004 0.060111 -0.094283 1.018239
    7 1.999994 -3.000001 0.000004 -1.570753 -0.000007 -1.326410
    8 2.033349 1.000771 -1.937607 -1.386127 1.273792 -3.063130
    9 6.028143 0.000002 -0.000004 1.590392 -0.087358 -0.842907
    10 11.692545 0.000000 0.000000 -0.000011 0.000000 -2.042079
    11 11.481701 0.000000 0.000000 -0.860920 0.327051 -0.015649
    12 2.676086 -1.712440 0.000000 -1.570793 0.000001 -1.570793
    13 2.033341 1.000767 1.937660 2.412174 -1.487397 2.120583
    14 6.028140 0.000002 0.000000 -1.356897 0.074326 -0.958746
    15 11.692553 0.000000 0.000011 -0.000013 0.000000 -1.892831
    16 11.481667 0.000000 -0.000031 1.575391 -0.108951 -0.097558
    17 2.676086 -1.712440 0.000004 1.570793 0.000005 1.570793
    18 -3.890452 0.000004 0.000004 -1.468705 -0.410779 -1.790018
    19 17.848171 0.000000 0.000004 0.000009 0.000000 1.184009
    20 16.525251 0.000000 0.000004 0.333327 -0.176766 -0.675642
    21 6.879454 0.000000 0.000008 -0.077373 -0.002534 -1.105361
    22 3.890452 -0.000004 -0.000004 -1.581741 -0.359951 -1.354092
    23 17.848175 0.000000 -0.000004 0.000010 0.000000 0.345517
    24 16.525246 0.000000 0.000004 -0.224723 0.062189 -0.831471
    25 6.879452 0.000000 0.000000 -0.006340 -0.002980 -0.674733
    26 3.859703 -0.142403 -1.191975 -0.568914 -0.013612 -1.526846
    27 1.312565 0.000001 0.000004 -0.086569 0.239740 -1.554263
    28 0.729362 0.000002 0.000004 -0.176896 0.315567 -1.429267
    29 3.942326 0.046774 -0.431438 0.030304 -0.060024 -1.757047
    30 1.539093 0.000001 0.000000 -0.058663 0.149388 -1.571890
    31 1.196320 -0.000001 0.000004 -0.107664 0.188367 -1.488369
    32 3.883686 -0.046767 0.431446 0.134430 0.056057 -1.771061
    33 1.719570 0.000002 0.000004 -0.030687 0.057172 -1.750786
    34 1.209183 -0.000001 -0.000004 -0.034252 0.059379 -1.537043
    35 3.859859 -0.137950 1.332462 0.524242 -0.087933 -1.819403
    36 1.719429 0.000002 0.000000 0.072023 -0.125294 -1.808387
    37 1.099670 0.000001 0.000004 0.072020 -0.125295 -0.669563
    38 0.806049 -0.348922 1.321259 -0.786557 -0.413955 -0.992027
    39 1.789787 0.000000 0.000004 0.004364 0.030238 0.718398
    40 1.207001 0.000000 -0.000004 0.102533 0.030240 0.502412
    41 3.859665 -0.132565 1.193108 0.693436 -0.009816 -1.600821
    42 1.312561 0.000000 0.000000 0.110761 -0.297055 -1.436131
    43 0.729366 0.000002 0.000000 0.157637 -0.341681 -1.408413
    44 3.942291 0.050330 0.431042 0.331339 -0.008608 -1.603857
    45 1.539097 0.000003 0.000000 0.050214 -0.153911 -1.591790
    46 1.196320 0.000000 0.000000 0.132537 -0.225779 -1.824940
    47 3.883648 -0.050325 -0.431044 -0.022374 -0.010304 -1.305812
    48 1.719574 -0.000005 0.000000 0.038733 -0.074557 -1.586292
    49 1.209183 -0.000001 0.000000 0.047518 -0.079997 -1.582137
    50 3.859825 -0.148935 -1.331284 -0.549062 -0.024858 -1.454209
    51 1.719425 0.000000 0.000000 -0.002107 0.024342 -1.684730
    52 1.099663 0.000000 0.000000 -0.007955 0.046800 -1.711623
    53 0.806015 -0.359835 -1.318335 1.200555 0.246503 -0.836612
    54 1.789780 0.000001 0.000000 0.046975 0.150711 0.289172
    55 1.207001 0.000000 0.000004 0.215983 -0.000003 0.942472
    56 3.643179 -1.117762 -6.586830 1.677301 0.043048 -2.001890
  time 12
    0 1.610982 -0.335943 38.293472 1.581069 0.012087 0.164918
    1 -0.124999 3.345128 -2.981903 1.567966 0.102068 1.598146
    2 4.018331 0.000000 0.000000 -0.104161 -0.011002 0.212607
    3 3.518564 0.000000 0.000000 -0.043383 -0.025803 0.228882
    4 8.942642 0.000000 0.000000 -0.060148 -0.065412 0.237914
    5 3.307269 0.000000 -0.000004 3.137477 0.001222 0.577187
    6 3.593710 -0.000001 -0.000004 0.054272 -0.092905 1.022109
    7 1.999994 -3.000001 0.000004 -1.570753 -0.000007 -1.326410
    8 2.033349 1.000771 -1.937607 -1.385942 1.273792 -3.062843
    9 6.028143 0.000002 -0.000004 1.581386 -0.154925 -0.850010
    10 11.692545 0.000000 0.000000 -0.000011 0.000000 -2.069637
    11 11.481701 0.000000 0.000000 -0.863078 0.360536 -0.016189
    12 2.676086 -1.712440 0.000000 -1.570793 0.000001 -1.570793
    13 2.033341 1.000767 1.937660 2.412174 -1.487397 2.120583
    14 6.028140 0.000002 0.000000 -1.376189 -0.016675 -0.934589
    15 11.692553 0.000000 0.000011 -0.000013 0.000000 -1.836392
    16 11.481667 0.000000 -0.000031 1.575391 -0.108951 -0.097558
    17 2.676086 -1.712440 0.000004 1.570793 0.000005 1.570793
    18 -3.890452 0.000004 0.000004 -1.474900 -0.268654 -1.828885
    19 17.848171 0.000000 0.000004 0.000009 0.000000 1.028608
    20 16.525251 0.000000 0.000004 0.352050 -0.213723 -0.728528
    21 6.879454 0.000000 0.000008 -0.077361 -0.002498 -1.105361
    22 3.890452 -0.000004 -0.000004 -1.610295 -0.462157 -1.306109
    23 17.848175 0.000000 -0.000004 0.000010 0.000000 0.408686
    24 16.525246 0.000000 0.000004 -0.187417 0.135099 -0.695754
    25 6.879452 0.000000 0.000000 -0.006196 -0.002992 -0.690457
    26 3.859703 -0.142403 -1.191975 -0.568914 -0.013612 -1.526846
    27 1.312565 0.000001 0.000004 -0.086569 0.239740 -1.554310
    28 0.729362 0.000002 0.000004 -0.176896 0.315567 -1.429267
    29 3.942326 0.046774 -0.431438 0.030304 -0.060024 -1.757047
    30 1.539093 0.000001 0.000000 -0.058663 0.149388 -1.571890
    31 1.196320 -0.000001 0.000004 -0.107664 0.188367 -1.488369
    32 3.883686 -0.046767 0.431446 0.134430 0.056057 -1.771061
    33 1.719570 0.000002 0.000004 -0.030687 0.057172 -1.750786
    34 1.209183 -0.000001 -0.000004 -0.034252 0.059379 -1.537043
    35 3.859859 -0.137950 1.332462 0.524242 -0.087933 -1.819403
    36 1.719429 0.000002 0.000000 0.072023 -0.125294 -1.808387
    37 1.099670 0.000001 0.000004 0.072020 -0.125295 -0.669563
    38 0.806049 -0.348922 1.321259 -0.786557 -0.413955 -0.992027
    39 1.789787 0.000000 0.000004 0.004364 0.030238 0.718398
    40 1.207001 0.000000 -0.000004 0.102533 0.030240 0.502412
    41 3.859665 -0.132565 1.193108 0.693436 -0.009816 -1.600821
    42 1.312561 0.000000 0.000000 0.110761 -0.297055 -1.436131
    43 0.729366 0.000002 0.000000 0.157637 -0.341681 -1.408413
    44 3.942291 0.050330 0.431042 0.331339 -0.008608 -1.603857
    45 1.539097 0.000003 0.000000 0.050214 -0.153911 -1.591790
    46 1.196320 0.000000 0.000000 0.132537 -0.225779 -1.824940
    47 3.883648 -0.050325 -0.431044 -0.022374 -0.010304 -1.305812
    48 1.719574 -0.000005 0.000000 0.038733 -0.074557 -1.586292
    49 1.209183 -0.000001 0.000000 0.047518 -0.079997 -1.582137
    50 3.859825 -0.148935 -1.331284 -0.549062 -0.024858 -1.454209
    51 1.719425 0.000000 0.000000 -0.002107 0.024342 -1.684730
    52 1.099663 0.000000 0.000000 -0.007967 0.046800 -1.711623
    53 0.806015 -0.359835 -1.318335 1.200555 0.246503 -0.836612
    54 1.789780 0.000001 0.000000 0.046975 0.150711 0.289172
    55 1.207001 0.000000 0.000004 0.215983 -0.000003 0.942472
    56 3.643179 -1.117762 -6.586830 1.677301 0.043048 -2.001890
  time 13
    0 1.610982 -0.335943 38.660670 1.588856 0.015862 0.164161
    1 -0.124999 3.345128 -2.981903 1.567236 0.102056 1.596365
    2 4.018331 0.000000 0.000000 -0.101394 -0.005309 0.208903
    3 3.518564 0.000000 0.000000 -0.042148 -0.022603 0.219905
    4 8.942642 0.000000 0.000000 -0.060887 -0.070385 0.240280
    5 3.307269 0.000000 -0.000004 3.137477 0.001222 0.577187
    6 3.593710 -0.000001 -0.000004 0.047742 -0.090699 1.026015
    7 1.999994 -3.000001 0.000004 -1.570753 -0.000007 -1.326410
    8 2.033349 1.000771 -1.937607 -1.385663 1.273752 -3.062652
    9 6.028143 0.000002 -0.000004 1.574218 -0.209956 -0.850080
    10 11.692545 0.000000 0.000000 -0.000011 0.000000 -2.088448
    11 11.481701 0.000000 0.000000 -0.864750 0.386640 -0.016630
    12 2.676086 -1.712440 0.000000 -1.570793 0.000001 -1.570793
    13 2.033341 1.000767 1.937660 2.412174 -1.487397 2.120583
    14 6.028140 0.000002 0.000000 -1.387414 -0.088585 -0.917183
    15 11.692553 0.000000 0.000011 -0.000013 0.000000 -1.785479
    16 11.481667 0.000000 -0.000031 1.575391 -0.108951 -0.097558
    17 2.676086 -1.712440 0.000004 1.570793 0.000005 1.570793
    18 -3.890452 0.000004 0.000004 -1.466286 -0.145867 -1.857397
    19 17.848171 0.000000 0.000004 0.000009 0.000000 0.887559
    20 16.525251 0.000000 0.000004 0.359369 -0.229356 -0.788703
    21 6.879454 0.000000 0.000008 -0.077349 -0.002474 -1.105361
    22 3.890452 -0.000004 -0.000004 -1.627346 -0.549383 -1.285830
    23 17.848175 0.000000 -0.000004 0.000010 0.000000 0.575528
    24 16.525246 0.000000 0.000004 -0.144151 0.156347 -0.748510
    25 6.879452 0.000000 0.000000 -0.007311 -0.002944 -0.582655
    26 3.859703 -0.142403 -1.191975 -0.568914 -0.013612 -1.526846
    27 1.312565 0.000001 0.000004 -0.086569 0.239740 -1.554263
    28 0.729362 0.000002 0.000004 -0.176896 0.315567 -1.429267
    29 3.942326 0.046774 -0.431438 0.030304 -0.060024 -1.757047
    30 1.539093 0.000001 0.000000 -0.058663 0.149388 -1.571890
    31 1.196320 -0.000001 0.000004 -0.107664 0.188367 -1.488369
    32 3.883686 -0.046767 0.431446 0.134430 0.056057 -1.771061
    33 1.719570 0.000002 0.000004 -0.030687 0.057172 -1.750786
    34 1.209183 -0.000001 -0.000004 -0.034252 0.059379 -1.537043
    35 3.859859 -0.137950 1.332462 0.524242 -0.087933 -1.819403
    36 1.719429 0.000002 0.000000 0.072023 -0.125294 -1.808387
    37 1.099670 0.000001 0.000004 0.072020 -0.125295 -0.669563
    38 0.806049 -0.348922 1.321259 -0.786557 -0.413955 -0.992027
    39 1.789787 0.000000 0.000004 0.004364 0.030238 0.718398
    40 1.207001 0.000000 -0.000004 0.102533 0.030240 0.502412
    41 3.859665 -0.132565 1.193108 0.693436 -0.009816 -1.600821
    42 1.312561 0.000000 0.000000 0.110761 -0.297055 -1.436131
    43 0.729366 0.000002 0.000000 0.157637 -0.341681 -1.408413
    44 3.942291 0.050330 0.431042 0.331339 -0.008608 -1.603857
    45 1.539097 0.000003 0.000000 0.050214 -0.153911 -1.591790
    46 1.196320 0.000000 0.000000 0.132537 -0.225779 -1.824940
    47 3.883648 -0.050325 -0.431044 -0.022374 -0.010304 -1.305812
    48 1.719574 -0.000005 0.000000 0.038733 -0.074557 -1.586292
    49 1.209183 -0.000001 0.000000 0.047518 -0.079997 -1.582137
    50 3.859825 -0.148935 -1.331284 -0.549062 -0.024858 -1.454209
    51 1.719425 0.000000 0.000000 -0.002107 0.024342 -1.684730
    52 1.099663 0.000000 0.000000 -0.007967 0.046800 -1.711623
    53 0.806015 -0.359835 -1.318335 1.200555 0.246503 -0.836612
    54 1.789780 0.000001 0.000000 0.046975 0.150711 0.289172
    55 1.207001 0.000000 0.000004 0.215983 -0.000003 0.942472
    56 3.643179 -1.117762 -6.586830 1.677301 0.043048 -2.001890
  time 14
    0 1.610982 -0.335943 38.594262 1.590108 0.019997 0.157423
    1 -0.124999 3.345128 -2.981903 1.567528 0.102068 1.597156
    2 4.018331 0.000000 0.000000 -0.096122 0.007095 0.206878
    3 3.518564 0.000000 0.000000 -0.038277 -0.017689 0.212151
    4 8.942642 0.000000 0.000000 -0.056147 -0.077277 0.241710
    5 3.307269 0.000000 -0.000004 3.137477 0.001222 0.577187
    6 3.593710 -0.000001 -0.000004 0.042869 -0.090028 1.029640
    7 1.999994 -3.000001 0.000004 -1.570753 -0.000007 -1.326410
    8 2.033349 1.000771 -1.937607 -1.385385 1.273752 -3.062366
    9 6.028143 0.000002 -0.000004 1.575228 -0.250776 -0.839090
    10 11.692545 0.000000 0.000000 -0.000011 0.000000 -2.098642
    11 11.481701 0.000000 0.000000 -0.864858 0.388604 -0.016679
    12 2.676086 -1.712440 0.000000 -1.570793 0.000001 -1.570793
    13 2.033341 1.000767 1.937660 2.412174 -1.487397 2.120583
    14 6.028140 0.000002 0.000000 -1.383497 -0.132804 -0.918354
    15 11.692553 0.000000 0.000011 -0.000013 0.000000 -1.753238
    16 11.481667 0.000000 -0.000031 1.575391 -0.108951 -0.097558
    17 2.676086 -1.712440 0.000004 1.570793 0.000005 1.570793
    18 -3.890452 0.000004 0.000004 -1.432948 -0.020827 -1.865899
    19 17.848171 0.000000 0.000004 0.000009 0.000000 0.721618
    20 16.525251 0.000000 0.000004 0.343528 -0.221752 -0.843800
    21 6.879454 0.000000 0.000008 -0.077361 -0.002510 -1.105361
    22 3.890452 -0.000004 -0.000004 -1.638034 -0.689963 -1.281568
    23 17.848175 0.000000 -0.000004 0.000010 0.000000 0.936008
    24 16.525246 0.000000 0.000004 -0.087255 0.158770 -0.868550
    25 6.879452 0.000000 0.000000 -0.007503 -0.003052 -0.582613
    26 3.859703 -0.142403 -1.191975 -0.568914 -0.013612 -1.526846
    27 1.312565 0.000001 0.000004 -0.086569 0.239740 -1.554310
    28 0.729362 0.000002 0.000004 -0.176896 0.315567 -1.429267
    29 3.942326 0.046774 -0.431438 0.030304 -0.060024 -1.757047
    30 1.539093 0.000001 0.000000 -0.058651 0.149388 -1.571890
    31 1.196320 -0.000001 0.000004 -0.107664 0.188367 -1.488369
    32 3.883686 -0.046767 0.431446 0.134430 0.056057 -1.771061
    33 1.719570 0.000002 0.000004 -0.030687 0.057172 -1.750786
    34 1.209183 -0.000001 -0.000004 -0.034252 0.059379 -1.537043
    35 3.859859 -0.137950 1.332462 0.524242 -0.087933 -1.819403
    36 1.719429 0.000002 0.000000 0.072023 -0.125294 -1.808387
    37 1.099670 0.000001 0.000004 0.072020 -0.125295 -0.669563
    38 0.806049 -0.348922 1.321259 -0.786557 -0.413955 -0.992027
    39 1.789787 0.000000 0.000004 0.004364 0.030238 0.718398
    40 1.207001 0.000000 -0.000004 0.102533 0.030240 0.502412
    41 3.859665 -0.132565 1.193108 0.693436 -0.009816 -1.600821
    42 1.312561 0.000000 0.000000 0.110761 -0.297055 -1.436131
    43 0.729366 0.000002 0.000000 0.157637 -0.341681 -1.408413
    44 3.942291 0.050330 0.431042 0.331339 -0.008608 -1.603857
    45 1.539097 0.000003 0.000000 0.050214 -0.153911 -1.591790
    46 1.196320 0.000000 0.000000 0.132537 -0.225779 -1.824940
    47 3.883648 -0.050325 -0.431044 -0.022374 -0.010304 -1.305812
    48 1.719574 -0.000005 0.000000 0.038733 -0.074557 -1.586292
    49 1.209183 -0.000001 0.000000 0.047518 -0.079997 -1.582137
    50 3.859825 -0.148935 -1.331284 -0.549062 -0.024858 -1.454209
    51 1.719425 0.000000 0.000000 -0.002107 0.024342 -1.684730
    52 1.099663 0.000000 0.000000 -0.007967 0.046800 -1.711623
    53 0.806015 -0.359835 -1.318335 1.200555 0.246503 -0.836612
    54 1.789780 0.000001 0.000000 0.046975 0.150711 0.289172
    55 1.207001 0.000000 0.000004 0.215983 -0.000003 0.942472
    56 3.643179 -1.117762 -6.586830 1.677301 0.043060 -2.001890
  time 15
    0 1.610982 -0.335943 38.223157 1.585643 0.024336 0.148565
    1 -0.124999 3.345128 -2.981903 1.568551 0.102068 1.599581
    2 4.018331 0.000000 0.000000 -0.088381 0.022915 0.207921
    3 3.518564 0.000000 0.000000 -0.032057 -0.011170 0.206782
    4 8.942642 0.000000 0.000000 -0.046590 -0.085618 0.242785
    5 3.307269 0.000000 -0.000004 3.137477 0.001222 0.577187
    6 3.593710 -0.000001 -0.000004 0.033627 -0.084000 1.033018
    7 1.999994 -3.000001 0.000004 -1.570753 -0.000007 -1.326410
    8 2.033349 1.000771 -1.937607 -1.385200 1.273752 -3.062079
    9 6.028143 0.000002 -0.000004 1.586440 -0.264934 -0.822551
    10 11.692545 0.000000 0.000000 -0.000011 0.000000 -2.098445
    11 11.481701 0.000000 0.000000 -0.863779 0.371655 -0.016385
    12 2.676086 -1.712440 0.000000 -1.570793 0.000001 -1.570793
    13 2.033341 1.000767 1.937660 2.412174 -1.487397 2.120583
    14 6.028140 0.000002 0.000000 -1.361048 -0.128520 -0.938570
    15 11.692553 0.000000 0.000011 -0.000013 0.000000 -1.761840
    16 11.481667 0.000000 -0.000031 1.575391 -0.108951 -0.097558
    17 2.676086 -1.712440 0.000004 1.570793 0.000005 1.570793
    18 -3.890452 0.000004 0.000004 -1.354412 0.117533 -1.840904
    19 17.848171 0.000000 0.000004 0.000009 0.000000 0.497747
    20 16.525251 0.000000 0.000004 0.295049 -0.191596 -0.920213
    21 6.879454 0.000000 0.000008 -0.077457 -0.002702 -1.105361
    22 3.890452 -0.000004 -0.000004 -1.620004 -0.757202 -1.325701
    23 17.848175 0.000000 -0.000004 0.000010 0.000000 1.251225
    24 16.525246 0.000000 0.000004 -0.031061 0.119892 -0.961158
    25 6.879452 0.000000 0.000000 -0.007659 -0.003159 -0.582613
    26 3.859703 -0.142403 -1.191975 -0.568914 -0.013612 -1.526846
    27 1.312565 0.000001 0.000004 -0.086569 0.239740 -1.554263
    28 0.729362 0.000002 0.000004 -0.176896 0.315567 -1.429267
    29 3.942326 0.046774 -0.431438 0.030304 -0.060024 -1.757047
    30 1.539093 0.000001 0.000000 -0.058651 0.149388 -1.571890
    31 1.196320 -0.000001 0.000004 -0.107664 0.188367 -1.488369
    32 3.883686 -0.046767 0.431446 0.134430 0.056057 -1.771061
    33 1.719570 0.000002 0.000004 -0.030687 0.057172 -1.750786
    34 1.209183 -0.000001 -0.000004 -0.034252 0.059379 -1.537043
    35 3.859859 -0.137950 1.332462 0.524242 -0.087933 -1.819403
    36 1.719429 0.000002 0.000000 0.072023 -0.125294 -1.808387
    37 1.099670 0.000001 0.000004 0.072020 -0.125295 -0.669563
    38 0.806049 -0.348922 1.321259 -0.786557 -0.413955 -0.992027
    39 1.789787 0.000000 0.000004 0.004364 0.030238 0.718398
    40 1.207001 0.000000 -0.000004 0.102533 0.030240 0.502412
    41 3.859665 -0.132565 1.193108 0.693436 -0.009816 -1.600821
    42 1.312561 0.000000 0.000000 0.110761 -0.297055 -1.436131
    43 0.729366 0.000002 0.000000 0.157637 -0.341681 -1.408413
    44 3.942291 0.050330 0.431042 0.331339 -0.008608 -1.603808
    45 1.539097 0.000003 0.000000 0.050214 -0.153911 -1.591790
    46 1.196320 0.000000 0.000000 0.132537 -0.225779 -1.824940
    47 3.883648 -0.050325 -0.431044 -0.022374 -0.010304 -1.305812
    48 1.719574 -0.000005 0.000000 0.038733 -0.074557 -1.586292
    49 1.209183 -0.000001 0.000000 0.047518 -0.079997 -1.582137
    50 3.859825 -0.148935 -1.331284 -0.549062 -0.024858 -1.454209
    51 1.719425 0.000000 0.000000 -0.002107 0.024342 -1.684730
    52 1.099663 0.000000 0.000000 -0.007967 0.046800 -1.711623
    53 0.806015 -0.359835 -1.318335 1.200555 0.246503 -0.836612
    54 1.789780 0.000001 0.000000 0.046975 0.150711 0.289172
    55 1.207001 0.000000 0.000004 0.215983 -0.000003 0.942472
    56 3.643179 -1.117762 -6.586830 1.677301 0.043060 -2.001890
  time 16
    0 1.610982 -0.335943 37.691891 1.578183 0.028842 0.138420
    1 -0.124999 3.345128 -2.981903 1.570060 0.102068 1.602944
    2 4.018331 0.000000 0.000000 -0.079015 0.034971 0.212715
    3 3.518564 0.000000 0.000000 -0.024507 -0.003691 0.223081
    4 8.942642 0.000000 0.000000 -0.034255 -0.094606 0.243631
    5 3.307269 0.000000 -0.000004 3.137477 0.001222 0.577187
    6 3.593710 -0.000001 -0.000004 0.016522 -0.068336 1.036150
    7 1.999994 -3.000001 0.000004 -1.570753 -0.000007 -1.326410
    8 2.033349 1.000771 -1.937607 -1.384921 1.273752 -3.061889
    9 6.028143 0.000002 -0.000004 1.614102 -0.230322 -0.809829
    10 11.692545 0.000000 0.000000 -0.000011 0.000000 -2.087330
    11 11.481701 0.000000 0.000000 -0.862430 0.351381 -0.016042
    12 2.676086 -1.712440 0.000000 -1.570793 0.000001 -1.570793
    13 2.033341 1.000767 1.937660 2.412174 -1.487397 2.120583
    14 6.028140 0.000002 0.000000 -1.331818 -0.081468 -0.964015
    15 11.692553 0.000000 0.000011 -0.000013 0.000000 -1.815901
    16 11.481667 0.000000 -0.000031 1.575452 -0.108951 -0.097558
    17 2.676086 -1.712440 0.000004 1.570793 0.000005 1.570793
    18 -3.890452 0.000004 0.000004 -1.245489 0.184474 -1.784072
    19 17.848171 0.000000 0.000004 0.000009 0.000000 0.354979
    20 16.525251 0.000000 0.000004 0.219183 -0.165418 -1.056650
    21 6.879454 0.000000 0.000008 -0.078224 -0.002918 -0.985462
    22 3.890452 -0.000004 -0.000004 -1.570074 -0.742812 -1.423110
    23 17.848175 0.000000 -0.000004 0.000010 0.000000 1.483051
    24 16.525246 0.000000 0.000004 -0.003315 0.036475 -1.005654
    25 6.879452 0.000000 0.000000 -0.007742 -0.003219 -0.582613
    26 3.859703 -0.142403 -1.191975 -0.568914 -0.013612 -1.526846
    27 1.312565 0.000001 0.000004 -0.086569 0.239740 -1.554263
    28 0.729362 0.000002 0.000004 -0.176896 0.315567 -1.429267
    29 3.942326 0.046774 -0.431438 0.030304 -0.060024 -1.757047
    30 1.539093 0.000001 0.000000 -0.058651 0.149388 -1.571890
    31 1.196320 -0.000001 0.000004 -0.107664 0.188367 -1.488369
    32 3.883686 -0.046767 0.431446 0.134430 0.056057 -1.771061
    33 1.719570 0.000002 0.000004 -0.030687 0.057172 -1.750786
    34 1.209183 -0.000001 -0.000004 -0.034252 0.059379 -1.537043
    35 3.859859 -0.137950 1.332462 0.524242 -0.087933 -1.819403
    36 1.719429 0.000002 0.000000 0.072023 -0.125294 -1.808387
    37 1.099670 0.000001 0.000004 0.072020 -0.125295 -0.669563
    38 0.806049 -0.348922 1.321259 -0.786557 -0.413955 -0.992027
    39 1.789787 0.000000 0.000004 0.004364 0.030238 0.718398
    40 1.207001 0.000000 -0.000004 0.102533 0.030240 0.502412
    41 3.859665 -0.132565 1.193108 0.693436 -0.009816 -1.600821
    42 1.312561 0.000000 0.000000 0.110761 -0.297055 -1.436131
    43 0.729366 0.000002 0.000000 0.157637 -0.341681 -1.408413
    44 3.942291 0.050330 0.431042 0.331339 -0.008608 -1.603857
    45 1.539097 0.000003 0.000000 0.050214 -0.153911 -1.591790
    46 1.196320 0.000000 0.000000 0.132537 -0.225779 -1.824940
    47 3.883648 -0.050325 -0.431044 -0.022374 -0.010304 -1.305812
    48 1.719574 -0.000005 0.000000 0.038733 -0.074557 -1.586292
    49 1.209183 -0.000001 0.000000 0.047518 -0.079997 -1.582137
    50 3.859825 -0.148935 -1.331284 -0.549062 -0.024858 -1.454209
    51 1.719425 0.000000 0.000000 -0.002107 0.024342 -1.684730
    52 1.099663 0.000000 0.000000 -0.007967 0.046800 -1.711623
    53 0.806015 -0.359835 -1.318335 1.200555 0.246503 -0.836612
    54 1.789780 0.000001 0.000000 0.046975 0.150711 0.289172
    55 1.207001 0.000000 0.000004 0.215983 -0.000003 0.942472
    56 3.643179 -1.117762 -6.586830 1.677301 0.043060 -2.001890
  time 17
    0 1.610982 -0.335943 37.078591 1.569361 0.033336 0.127442
    1 -0.124999 3.345128 -2.981903 1.571521 0.102068 1.606556
    2 4.018331 0.000000 0.000000 -0.069255 0.046356 0.219246
    3 3.518564 0.000000 0.000000 -0.016645 0.003979 0.244689
    4 8.942642 0.000000 0.000000 -0.021117 -0.103499 0.244399
    5 3.307269 0.000000 -0.000004 3.137477 0.001222 0.577187
    6 3.593710 -0.000001 -0.000004 -0.002605 -0.049353 1.038613
    7 1.999994 -3.000001 0.000004 -1.570753 -0.000007 -1.326410
    8 2.033349 1.000771 -1.937607 -1.384643 1.273752 -3.061602
    9 6.028143 0.000002 -0.000004 1.646084 -0.167951 -0.790216
    10 11.692545 0.000000 0.000000 -0.000011 0.000000 -2.065296
    11 11.481701 0.000000 0.000000 -0.860920 0.326924 -0.015649
    12 2.676086 -1.712440 0.000000 -1.570793 0.000001 -1.570793
    13 2.033341 1.000767 1.937660 2.412174 -1.487397 2.120583
    14 6.028140 0.000002 0.000000 -1.289727 0.014862 -0.992114
    15 11.692553 0.000000 0.000011 -0.000013 0.000000 -1.894719
    16 11.481667 0.000000 -0.000031 1.575391 -0.108951 -0.097558
    17 2.676086 -1.712440 0.000004 1.570793 0.000005 1.570793
    18 -3.890452 0.000004 0.000004 -1.154916 0.064539 -1.727816
    19 17.848171 0.000000 0.000004 0.000009 0.000000 0.505596
    20 16.525251 0.000000 0.000004 0.117204 -0.123913 -1.327765
    21 6.879454 0.000000 0.000008 -0.079842 -0.002822 -0.746194
    22 3.890452 -0.000004 -0.000004 -1.517208 -0.678728 -1.528631
    23 17.848175 0.000000 -0.000004 0.000010 0.000000 1.612143
    24 16.525246 0.000000 0.000004 -0.021002 -0.056798 -1.000649
    25 6.879452 0.000000 0.000000 -0.007778 -0.003231 -0.582613
    26 3.859703 -0.142403 -1.191975 -0.568914 -0.013612 -1.526846
    27 1.312565 0.000001 0.000004 -0.086569 0.239740 -1.554263
    28 0.729362 0.000002 0.000004 -0.176896 0.315567 -1.429267
    29 3.942326 0.046774 -0.431438 0.030304 -0.060024 -1.757047
    30 1.539093 0.000001 0.000000 -0.058663 0.149388 -1.571890
    31 1.196320 -0.000001 0.000004 -0.107664 0.188367 -1.488369
    32 3.883686 -0.046767 0.431446 0.134430 0.056057 -1.771061
    33 1.719570 0.000002 0.000004 -0.030687 0.057172 -1.750786
    34 1.209183 -0.000001 -0.000004 -0.034252 0.059379 -1.537043
    35 3.859859 -0.137950 1.332462 0.524242 -0.087933 -1.819403
    36 1.719429 0.000002 0.000000 0.072023 -0.125294 -1.808387
    37 1.099670 0.000001 0.000004 0.072020 -0.125295 -0.669563
    38 0.806049 -0.348922 1.321259 -0.786557 -0.413955 -0.992027
    39 1.789787 0.000000 0.000004 0.004364 0.030238 0.718398
    40 1.207001 0.000000 -0.000004 0.102533 0.030240 0.502412
    41 3.859665 -0.132565 1.193108 0.693436 -0.009816 -1.600821
    42 1.312561 0.000000 0.000000 0.110761 -0.297055 -1.436131
    43 0.729366 0.000002 0.000000 0.157637 -0.341681 -1.408413
    44 3.942291 0.050330 0.431042 0.331339 -0.008608 -1.603857
    45 1.539097 0.000003 0.000000 0.050214 -0.153911 -1.591790
    46 1.196320 0.000000 0.000000 0.132537 -0.225779 -1.824940
    47 3.883648 -0.050325 -0.431044 -0.022374 -0.010304 -1.305812
    48 1.719574 -0.000005 0.000000 0.038733 -0.074557 -1.586292
    49 1.209183 -0.000001 0.000000 0.047518 -0.079997 -1.582137
    50 3.859825 -0.148935 -1.331284 -0.549062 -0.024858 -1.454209
    51 1.719425 0.000000 0.000000 -0.002107 0.024342 -1.684730
    52 1.099663 0.000000 0.000000 -0.007967 0.046800 -1.711623
    53 0.806015 -0.359835 -1.318335 1.200555 0.246503 -0.836612
    54 1.789780 0.000001 0.000000 0.046975 0.150711 0.289172
    55 1.207001 0.000000 0.000004 0.215983 -0.000003 0.942472
    56 3.643179 -1.117762 -6.586830 1.677301 0.043060 -2.001890
  time 18
    0 1.610982 -0.335943 36.457478 1.560213 0.037674 0.115934
    1 -0.124999 3.345128 -2.981903 1.572884 0.102068 1.609722
    2 4.018331 0.000000 0.000000 -0.060263 0.057730 0.225778
    3 3.518564 0.000000 0.000000 -0.009418 0.011206 0.255488
    4 8.942642 0.000000 0.000000 -0.009228 -0.111433 0.245198
    5 3.307269 0.000000 -0.000004 3.137477 0.001222 0.577187
    6 3.593710 -0.000001 -0.000004 -0.018376 -0.033317 1.040267
    7 1.999994 -3.000001 0.000004 -1.570753 -0.000007 -1.326410
    8 2.033349 1.000771 -1.937607 -1.384457 1.273752 -3.061316
    9 6.028143 0.000002 -0.000004 1.669886 -0.098186 -0.759153
    10 11.692545 0.000000 0.000000 -0.000011 0.000000 -2.032279
    11 11.481701 0.000000 0.000000 -0.859409 0.302436 -0.015355
    12 2.676086 -1.712440 0.000000 -1.570793 0.000001 -1.570793
    13 2.033341 1.000767 1.937660 2.412174 -1.487397 2.120583
    14 6.028140 0.000002 0.000000 -1.230682 0.155950 -1.012486
    15 11.692553 0.000000 0.000011 -0.000013 0.000000 -1.969412
    16 11.481667 0.000000 -0.000031 1.575391 -0.108951 -0.097558
    17 2.676086 -1.712440 0.000004 1.570793 0.000005 1.570793
    18 -3.890452 0.000004 0.000004 -1.092430 -0.047210 -1.668684
    19 17.848171 0.000000 0.000004 0.000009 0.000000 0.607552
    20 16.525251 0.000000 0.000004 0.011088 -0.104521 -1.497130
    21 6.879454 0.000000 0.000008 -0.081436 -0.002726 -0.581845
    22 3.890452 -0.000004 -0.000004 -1.507010 -0.640648 -1.564996
    23 17.848175 0.000000 -0.000004 0.000010 0.000000 1.673120
    24 16.525246 0.000000 0.000004 -0.037503 -0.100830 -0.984913
    25 6.879452 0.000000 0.000000 -0.007754 -0.003219 -0.582613
    26 3.859703 -0.142403 -1.191975 -0.568914 -0.013612 -1.526846
    27 1.312565 0.000001 0.000004 -0.086569 0.239740 -1.554310
    28 0.729362 0.000002 0.000004 -0.176896 0.315567 -1.429267
    29 3.942326 0.046774 -0.431438 0.030304 -0.060024 -1.757047
    30 1.539093 0.000001 0.000000 -0.058663 0.149388 -1.571890
    31 1.196320 -0.000001 0.000004 -0.107664 0.188367 -1.488369
    32 3.883686 -0.046767 0.431446 0.134430 0.056057 -1.771061
    33 1.719570 0.000002 0.000004 -0.030687 0.057172 -1.750786
    34 1.209183 -0.000001 -0.000004 -0.034252 0.059379 -1.537043
    35 3.859859 -0.137950 1.332462 0.524242 -0.087933 -1.819403
    36 1.719429 0.000002 0.000000 0.072023 -0.125294 -1.808387
    37 1.099670 0.000001 0.000004 0.072020 -0.125295 -0.669563
    38 0.806049 -0.348922 1.321259 -0.786557 -0.413955 -0.992027
    39 1.789787 0.000000 0.000004 0.004364 0.030238 0.718398
    40 1.207001 0.000000 -0.000004 0.102533 0.030240 0.502412
    41 3.859665 -0.132565 1.193108 0.693436 -0.009816 -1.600821
    42 1.312561 0.000000 0.000000 0.110761 -0.297055 -1.436131
    43 0.729366 0.000002 0.000000 0.157637 -0.341681 -1.408456
    44 3.942291 0.050330 0.431042 0.331339 -0.008608 -1.603857
    45 1.539097 0.000003 0.000000 0.050214 -0.153911 -1.591790
    46 1.196320 0.000000 0.000000 0.132537 -0.225779 -1.824940
    47 3.883648 -0.050325 -0.431044 -0.022374 -0.010304 -1.305812
    48 1.719574 -0.000005 0.000000 0.038733 -0.074557 -1.586292
    49 1.209183 -0.000001 0.000000 0.047518 -0.079997 -1.582137
    50 3.859825 -0.148935 -1.331284 -0.549078 -0.024858 -1.454209
    51 1.719425 0.000000 0.000000 -0.002107 0.024342 -1.684730
    52 1.099663 0.000000 0.000000 -0.007967 0.046800 -1.711623
    53 0.806015 -0.359835 -1.318335 1.200555 0.246503 -0.836612
    54 1.789780 0.000001 0.000000 0.046975 0.150711 0.289172
    55 1.207001 0.000000 0.000004 0.215983 -0.000003 0.942472
    56 3.643179 -1.117762 -6.586830 1.677301 0.043048 -2.001890
  time 19
    0 1.610982 -0.335943 36.223096 1.553352 0.045512 0.081032
    1 -0.124999 3.345128 -2.981903 1.573663 0.102068 1.613284
    2 4.018331 0.000000 0.000000 -0.051831 0.061960 0.226245
    3 3.518564 0.000000 0.000000 -0.000778 0.013830 0.255643
    4 8.942642 0.000000 0.000000 0.007516 -0.114716 0.246259
    5 3.307269 0.000000 -0.000004 3.137477 0.001222 0.577187
    6 3.593710 -0.000001 -0.000004 -0.024860 -0.026594 1.040865
    7 1.999994 -3.000001 0.000004 -1.570753 -0.000007 -1.326410
    8 2.033349 1.000771 -1.937607 -1.389096 1.273953 -3.066089
    9 6.028143 0.000002 -0.000004 1.677054 -0.000575 -0.718690
    10 11.692545 0.000000 0.000000 -0.000011 0.000000 -1.976899
    11 11.481701 0.000000 0.000000 -0.857952 0.279310 -0.015061
    12 2.676086 -1.712440 0.000000 -1.570793 0.000001 -1.570793
    13 2.033341 1.000767 1.937660 2.412174 -1.487397 2.120583
    14 6.028140 0.000002 0.000000 -1.150417 0.370770 -1.016076
    15 11.692553 0.000000 0.000011 -0.000013 0.000000 -2.026690
    16 11.481667 0.000000 -0.000031 1.575391 -0.108951 -0.097558
    17 2.676086 -1.712440 0.000004 1.570793 0.000005 1.570793
    18 -3.890452 0.000004 0.000004 -1.116917 -0.266002 -1.536546
    19 17.848171 0.000000 0.000004 0.000009 0.000000 0.740230
    20 16.525251 0.000000 0.000004 -0.157051 0.022479 -1.419963
    21 6.879454 0.000000 0.000008 -0.080836 -0.002762 -0.637198
    22 3.890452 -0.000004 -0.000004 -1.540215 -0.482396 -1.546161
    23 17.848175 0.000000 -0.000004 0.000010 0.000000 1.581842
    24 16.525246 0.000000 0.000004 -0.042554 -0.100324 -1.141250
    25 6.879452 0.000000 0.000000 -0.007407 -0.002992 -0.582613
    26 3.859703 -0.142403 -1.191975 -0.568914 -0.013612 -1.526846
    27 1.312565 0.000001 0.000004 -0.086569 0.239740 -1.554263
    28 0.729362 0.000002 0.000004 -0.176896 0.315567 -1.429267
    29 3.942326 0.046774 -0.431438 0.030304 -0.060024 -1.757047
    30 1.539093 0.000001 0.000000 -0.058651 0.149388 -1.571890
    31 1.196320 -0.000001 0.000004 -0.107664 0.188367 -1.488369
    32 3.883686 -0.046767 0.431446 0.134430 0.056057 -1.771061
    33 1.719570 0.000002 0.000004 -0.030687 0.057172 -1.750786
    34 1.209183 -0.000001 -0.000004 -0.034252 0.059379 -1.537043
    35 3.859859 -0.137950 1.332462 0.524242 -0.087933 -1.819403
    36 1.719429 0.000002 0.000000 0.072023 -0.125294 -1.808387
    37 1.099670 0.000001 0.000004 0.072020 -0.125295 -0.669563
    38 0.806049 -0.348922 1.321259 -0.786557 -0.413955 -0.992027
    39 1.789787 0.000000 0.000004 0.004364 0.030238 0.718398
    40 1.207001 0.000000 -0.000004 0.102533 0.030240 0.502412
    41 3.859665 -0.132565 1.193108 0.693436 -0.009816 -1.600821
    42 1.312561 0.000000 0.000000 0.110761 -0.297055 -1.436131
    43 0.729366 0.000002 0.000000 0.157637 -0.341681 -1.408413
    44 3.942291 0.050330 0.431042 0.331339 -0.008608 -1.603857
    45 1.539097 0.000003 0.000000 0.050214 -0.153911 -1.591790
    46 1.196320 0.000000 0.000000 0.132537 -0.225779 -1.824940
    47 3.883648 -0.050325 -0.431044 -0.022374 -0.010304 -1.305812
    48 1.719574 -0.000005 0.000000 0.038733 -0.074557 -1.586292
    49 1.209183 -0.000001 0.000000 0.047518 -0.079997 -1.582137
    50 3.859825 -0.148935 -1.331284 -0.549062 -0.024858 -1.454209
    51 1.719425 0.000000 0.000000 -0.002107 0.024342 -1.684730
    52 1.099663 0.000000 0.000000 -0.007967 0.046800 -1.711623
    53 0.806015 -0.359835 -1.318335 1.200555 0.246503 -0.836612
    54 1.789780 0.000001 0.000000 0.046975 0.150711 0.289172
    55 1.207001 0.000000 0.000004 0.215983 -0.000003 0.942472
    56 3.643179 -1.117762 -6.586830 1.677301 0.043048 -2.001890
  time 20
    0 1.610982 -0.335943 36.914523 1.560104 0.046327 0.053474
    1 -0.124999 3.345128 -2.981903 1.573809 0.102068 1.613383
    2 4.018331 0.000000 0.000000 -0.052317 0.056136 0.225119
    3 3.518564 0.000000 0.000000 0.000229 0.012644 0.251413
    4 8.942642 0.000000 0.000000 0.023190 -0.113734 0.247795
    5 3.307269 0.000000 -0.000004 3.137477 0.001222 0.577187
    6 3.593710 -0.000001 -0.000004 -0.020905 -0.025551 1.036783
    7 1.999994 -3.000001 0.000004 -1.570753 -0.000007 -1.326410
    8 2.033349 1.000771 -1.937607 -1.388817 1.273953 -3.065898
    9 6.028143 0.000002 -0.000004 1.679444 0.087150 -0.696037
    10 11.692545 0.000000 0.000000 -0.000011 0.000000 -1.928886
    11 11.481701 0.000000 0.000000 -0.856711 0.258307 -0.014864
    12 2.676086 -1.712440 0.000000 -1.570793 0.000001 -1.570793
    13 2.033341 1.000767 1.937660 2.412174 -1.487397 2.120583
    14 6.028140 0.000002 0.000000 -1.107507 0.487404 -1.011861
    15 11.692553 0.000000 0.000011 -0.000013 0.000000 -2.035711
    16 11.481667 0.000000 -0.000031 1.575391 -0.108951 -0.097558
    17 2.676086 -1.712440 0.000004 1.570793 0.000005 1.570793
    18 -3.890452 0.000004 0.000004 -1.192089 -0.280206 -1.391367
    19 17.848171 0.000000 0.000004 0.000009 0.000000 0.514043
    20 16.525251 0.000000 0.000004 -0.229504 0.124091 -1.237075
    21 6.879454 0.000000 0.000008 -0.080764 -0.002774 -0.644189
    22 3.890452 -0.000004 -0.000004 -1.523327 -0.446294 -1.601980
    23 17.848175 0.000000 -0.000004 0.000010 0.000000 1.427646
    24 16.525246 0.000000 0.000004 -0.102438 -0.080957 -1.045567
    25 6.879452 0.000000 0.000000 -0.004794 -0.003076 -0.870087
    26 3.859703 -0.142403 -1.191975 -0.568914 -0.013612 -1.526846
    27 1.312565 0.000001 0.000004 -0.086569 0.239740 -1.554263
    28 0.729362 0.000002 0.000004 -0.176896 0.315567 -1.429267
    29 3.942326 0.046774 -0.431438 0.030304 -0.060024 -1.757047
    30 1.539093 0.000001 0.000000 -0.058663 0.149388 -1.571890
    31 1.196320 -0.000001 0.000004 -0.107664 0.188367 -1.488369
    32 3.883686 -0.046767 0.431446 0.134430 0.056057 -1.771061
    33 1.719570 0.000002 0.000004 -0.030687 0.057172 -1.750786
    34 1.209183 -0.000001 -0.000004 -0.034252 0.059379 -1.537043
    35 3.859859 -0.137950 1.332462 0.524242 -0.087933 -1.819403
    36 1.719429 0.000002 0.000000 0.072023 -0.125294 -1.808387
    37 1.099670 0.000001 0.000004 0.072020 -0.125295 -0.669563
    38 0.806049 -0.348922 1.321259 -0.786557 -0.413955 -0.992027
    39 1.789787 0.000000 0.000004 0.004364 0.030238 0.718398
    40 1.207001 0.000000 -0.000004 0.102533 0.030240 0.502412
    41 3.859665 -0.132565 1.193108 0.693436 -0.009816 -1.600821
    42 1.312561 0.000000 0.000000 0.110761 -0.297055 -1.436131
    43 0.729366 0.000002 0.000000 0.157637 -0.341681 -1.408413
    44 3.942291 0.050330 0.431042 0.331339 -0.008608 -1.603857
    45 1.539097 0.000003 0.000000 0.050214 -0.153911 -1.591790
    46 1.196320 0.000000 0.000000 0.132537 -0.225779 -1.824940
    47 3.883648 -0.050325 -0.431044 -0.022374 -0.010304 -1.305812
    48 1.719574 -0.000005 0.000000 0.038733 -0.074557 -1.586292
    49 1.209183 -0.000001 0.000000 0.047518 -0.079997 -1.582137
    50 3.859825 -0.148935 -1.331284 -0.549062 -0.024858 -1.454209
    51 1.719425 0.000000 0.000000 -0.002107 0.024342 -1.684730
    52 1.099663 0.000000 0.000000 -0.007967 0.046800 -1.711623
    53 0.806015 -0.359835 -1.318335 1.200555 0.246503 -0.836612
    54 1.789780 0.000001 0.000000 0.046975 0.150711 0.289172
    55 1.207001 0.000000 0.000004 0.215983 -0.000003 0.942472
    56 3.643179 -1.117762 -6.586830 1.677301 0.043048 -2.001890
end
