// Created by Crowbar 0.71
version 1
nodes
  0 "ValveBiped.Bip01_Pelvis" -1
  1 "ValveBiped.Bip01_Spine" 0
  2 "ValveBiped.Bip01_Spine1" 1
  3 "ValveBiped.Bip01_Spine2" 2
  4 "ValveBiped.Bip01_Spine4" 3
  5 "ValveBiped.Bip01_Neck1" 4
  6 "ValveBiped.Bip01_Head1" 5
  7 "ValveBiped.forward" 6
  8 "ValveBiped.Bip01_R_Clavicle" 4
  9 "ValveBiped.Bip01_R_UpperArm" 8
  10 "ValveBiped.Bip01_R_Forearm" 9
  11 "ValveBiped.Bip01_R_Hand" 10
  12 "ValveBiped.Anim_Attachment_RH" 11
  13 "ValveBiped.Bip01_L_Clavicle" 4
  14 "ValveBiped.Bip01_L_UpperArm" 13
  15 "ValveBiped.Bip01_L_Forearm" 14
  16 "ValveBiped.Bip01_L_Hand" 15
  17 "ValveBiped.Anim_Attachment_LH" 16
  18 "ValveBiped.Bip01_R_Thigh" 0
  19 "ValveBiped.Bip01_R_Calf" 18
  20 "ValveBiped.Bip01_R_Foot" 19
  21 "ValveBiped.Bip01_R_Toe0" 20
  22 "ValveBiped.Bip01_L_Thigh" 0
  23 "ValveBiped.Bip01_L_Calf" 22
  24 "ValveBiped.Bip01_L_Foot" 23
  25 "ValveBiped.Bip01_L_Toe0" 24
  26 "ValveBiped.Bip01_L_Finger4" 16
  27 "ValveBiped.Bip01_L_Finger41" 26
  28 "ValveBiped.Bip01_L_Finger42" 27
  29 "ValveBiped.Bip01_L_Finger3" 16
  30 "ValveBiped.Bip01_L_Finger31" 29
  31 "ValveBiped.Bip01_L_Finger32" 30
  32 "ValveBiped.Bip01_L_Finger2" 16
  33 "ValveBiped.Bip01_L_Finger21" 32
  34 "ValveBiped.Bip01_L_Finger22" 33
  35 "ValveBiped.Bip01_L_Finger1" 16
  36 "ValveBiped.Bip01_L_Finger11" 35
  37 "ValveBiped.Bip01_L_Finger12" 36
  38 "ValveBiped.Bip01_L_Finger0" 16
  39 "ValveBiped.Bip01_L_Finger01" 38
  40 "ValveBiped.Bip01_L_Finger02" 39
  41 "ValveBiped.Bip01_R_Finger4" 11
  42 "ValveBiped.Bip01_R_Finger41" 41
  43 "ValveBiped.Bip01_R_Finger42" 42
  44 "ValveBiped.Bip01_R_Finger3" 11
  45 "ValveBiped.Bip01_R_Finger31" 44
  46 "ValveBiped.Bip01_R_Finger32" 45
  47 "ValveBiped.Bip01_R_Finger2" 11
  48 "ValveBiped.Bip01_R_Finger21" 47
  49 "ValveBiped.Bip01_R_Finger22" 48
  50 "ValveBiped.Bip01_R_Finger1" 11
  51 "ValveBiped.Bip01_R_Finger11" 50
  52 "ValveBiped.Bip01_R_Finger12" 51
  53 "ValveBiped.Bip01_R_Finger0" 11
  54 "ValveBiped.Bip01_R_Finger01" 53
  55 "ValveBiped.Bip01_R_Finger02" 54
  56 "ValveBiped.baton_parent" 11
end
skeleton
  time 0
    0 1.610982 -0.335943 35.711362 1.747589 0.031598 -0.027081
    1 -0.124999 3.345128 -2.981903 1.571326 0.102068 1.605814
    2 4.018331 0.000000 0.000000 -0.069368 0.049472 0.171835
    3 3.518564 0.000000 0.000000 -0.018551 0.005513 0.244689
    4 8.942642 0.000000 0.000000 -0.022417 -0.106675 0.245337
    5 3.307269 0.000000 -0.000004 3.137477 0.001222 0.577187
    6 3.593710 -0.000001 -0.000004 0.068755 -0.020386 1.083550
    7 1.999994 -3.000001 0.000004 -1.570753 -0.000007 -1.326410
    8 2.033349 1.000771 -1.937607 -1.379819 1.273471 -3.056542
    9 6.028143 0.000002 -0.000004 1.682752 0.156444 -0.622886
    10 11.692545 0.000000 0.000000 -0.000011 0.000000 -1.962166
    11 11.481701 0.000000 0.000000 -0.860973 0.328350 -0.015649
    12 2.676086 -1.712440 0.000000 -1.570792 0.000005 -1.570792
    13 2.033341 1.000767 1.937660 2.412174 -1.487397 2.120583
    14 6.028140 0.000002 0.000000 -1.369876 -0.032764 -1.119301
    15 11.692553 0.000000 0.000011 -0.000013 0.000000 -1.897727
    16 11.481667 0.000000 -0.000031 1.575391 -0.108951 -0.097558
    17 2.676086 -1.712440 0.000004 1.570793 0.000003 1.570795
    18 -3.890452 0.000004 0.000004 -1.348335 -0.383740 -1.552144
    19 17.848171 0.000000 0.000004 0.000009 0.000000 0.769980
    20 16.525251 0.000000 0.000004 -0.005196 0.105342 -1.590082
    21 6.879454 0.000000 0.000008 -0.081328 -0.002906 -0.612010
    22 3.890452 -0.000004 -0.000004 -1.770607 -0.478735 -1.448477
    23 17.848175 0.000000 -0.000004 0.000010 0.000000 1.574079
    24 16.525246 0.000000 0.000004 0.077007 -0.091662 -1.085239
    25 6.879452 0.000000 0.000000 -0.007047 -0.002716 -0.576522
    26 3.859703 -0.142403 -1.191975 -0.568926 -0.013610 -1.526889
    27 1.312565 0.000001 0.000004 -0.086569 0.239740 -1.554310
    28 0.729362 0.000002 0.000004 -0.176890 0.315566 -1.429227
    29 3.942326 0.046774 -0.431438 0.030308 -0.060029 -1.757075
    30 1.539093 0.000001 0.000000 -0.058663 0.149388 -1.571890
    31 1.196320 -0.000001 0.000004 -0.107664 0.188367 -1.488369
    32 3.883686 -0.046767 0.431446 0.134430 0.056057 -1.771061
    33 1.719570 0.000002 0.000004 -0.030677 0.057167 -1.750736
    34 1.209183 -0.000001 -0.000004 -0.034252 0.059379 -1.537043
    35 3.859859 -0.137950 1.332462 0.524258 -0.087937 -1.819439
    36 1.719429 0.000002 0.000000 0.072020 -0.125287 -1.808335
    37 1.099670 0.000001 0.000004 0.072020 -0.125295 -0.669563
    38 0.806049 -0.348922 1.321259 -0.786547 -0.413953 -0.991999
    39 1.789787 0.000000 0.000004 0.004363 0.030240 0.718398
    40 1.207001 0.000000 -0.000004 0.102533 0.030242 0.502412
    41 3.859665 -0.132565 1.193108 0.693436 -0.009816 -1.600821
    42 1.312561 0.000000 0.000000 0.110758 -0.297050 -1.436091
    43 0.729366 0.000002 0.000000 0.157644 -0.341690 -1.408420
    44 3.942291 0.050330 0.431042 0.331339 -0.008608 -1.603808
    45 1.539097 0.000003 0.000000 0.050214 -0.153911 -1.591790
    46 1.196320 0.000000 0.000000 0.132537 -0.225779 -1.824896
    47 3.883648 -0.050325 -0.431044 -0.022374 -0.010304 -1.305812
    48 1.719574 -0.000005 0.000000 0.038733 -0.074557 -1.586292
    49 1.209183 -0.000001 0.000000 0.047516 -0.080001 -1.582137
    50 3.859825 -0.148935 -1.331284 -0.549076 -0.024863 -1.454250
    51 1.719425 0.000000 0.000000 -0.002107 0.024342 -1.684730
    52 1.099663 0.000000 0.000000 -0.007967 0.046800 -1.711623
    53 0.806015 -0.359835 -1.318335 1.200555 0.246503 -0.836612
    54 1.789780 0.000001 0.000000 0.046975 0.150711 0.289172
    55 1.207001 0.000000 0.000004 0.215983 -0.000003 0.942472
    56 3.643179 -1.117762 -6.586830 1.677301 0.043060 -2.001890
  time 1
    0 1.610982 -0.335943 35.570732 1.740238 0.036044 -0.029428
    1 -0.124999 3.345128 -2.981903 1.572056 0.102068 1.609722
    2 4.018331 0.000000 0.000000 -0.060263 0.057730 0.175898
    3 3.518564 0.000000 0.000000 -0.009574 0.008881 0.255488
    4 8.942642 0.000000 0.000000 -0.009228 -0.111433 0.245198
    5 3.307269 0.000000 -0.000004 3.137477 0.001222 0.577187
    6 3.593710 -0.000001 -0.000004 0.061812 -0.015125 1.082917
    7 1.999994 -3.000001 0.000004 -1.570753 -0.000007 -1.326410
    8 2.033349 1.000771 -1.937607 -1.384457 1.273752 -3.061316
    9 6.028143 0.000002 -0.000004 1.710414 0.274316 -0.609209
    10 11.692545 0.000000 0.000000 -0.000011 0.000000 -1.906326
    11 11.481701 0.000000 0.000000 -0.859193 0.299934 -0.015306
    12 2.676086 -1.712440 0.000000 -1.570792 0.000005 -1.570792
    13 2.033341 1.000767 1.937660 2.412174 -1.487397 2.120583
    14 6.028140 0.000002 0.000000 -1.334624 0.111934 -1.096002
    15 11.692553 0.000000 0.000011 -0.000013 0.000000 -1.868144
    16 11.481667 0.000000 -0.000031 1.575452 -0.108951 -0.097558
    17 2.676086 -1.712440 0.000004 1.570793 0.000003 1.570795
    18 -3.890452 0.000004 0.000004 -1.345915 -0.071111 -1.532135
    19 17.848171 0.000000 0.000004 0.000009 0.000000 0.515014
    20 16.525251 0.000000 0.000004 0.035380 0.067377 -1.605565
    21 6.879454 0.000000 0.000008 -0.081316 -0.002942 -0.617063
    22 3.890452 -0.000004 -0.000004 -1.758778 -0.678433 -1.450195
    23 17.848175 0.000000 -0.000004 0.000010 0.000000 1.678629
    24 16.525246 0.000000 0.000004 0.056202 -0.124284 -1.064438
    25 6.879452 0.000000 0.000000 -0.007527 -0.003088 -0.584342
    26 3.859703 -0.142403 -1.191975 -0.568926 -0.013610 -1.526889
    27 1.312565 0.000001 0.000004 -0.086569 0.239740 -1.554310
    28 0.729362 0.000002 0.000004 -0.176890 0.315566 -1.429227
    29 3.942326 0.046774 -0.431438 0.030308 -0.060029 -1.757075
    30 1.539093 0.000001 0.000000 -0.058651 0.149388 -1.571938
    31 1.196320 -0.000001 0.000004 -0.107664 0.188367 -1.488369
    32 3.883686 -0.046767 0.431446 0.134430 0.056057 -1.771061
    33 1.719570 0.000002 0.000004 -0.030677 0.057167 -1.750790
    34 1.209183 -0.000001 -0.000004 -0.034252 0.059379 -1.537043
    35 3.859859 -0.137950 1.332462 0.524258 -0.087937 -1.819439
    36 1.719429 0.000002 0.000000 0.072020 -0.125287 -1.808390
    37 1.099670 0.000001 0.000004 0.072020 -0.125295 -0.669563
    38 0.806049 -0.348922 1.321259 -0.786547 -0.413953 -0.992029
    39 1.789787 0.000000 0.000004 0.004363 0.030240 0.718398
    40 1.207001 0.000000 -0.000004 0.102533 0.030242 0.502412
    41 3.859665 -0.132565 1.193108 0.693436 -0.009816 -1.600821
    42 1.312561 0.000000 0.000000 0.110758 -0.297050 -1.436091
    43 0.729366 0.000002 0.000000 0.157644 -0.341690 -1.408420
    44 3.942291 0.050330 0.431042 0.331339 -0.008608 -1.603808
    45 1.539097 0.000003 0.000000 0.050214 -0.153911 -1.591790
    46 1.196320 0.000000 0.000000 0.132537 -0.225779 -1.824896
    47 3.883648 -0.050325 -0.431044 -0.022374 -0.010304 -1.305812
    48 1.719574 -0.000005 0.000000 0.038733 -0.074557 -1.586292
    49 1.209183 -0.000001 0.000000 0.047516 -0.080001 -1.582137
    50 3.859825 -0.148935 -1.331284 -0.549076 -0.024863 -1.454250
    51 1.719425 0.000000 0.000000 -0.002107 0.024342 -1.684730
    52 1.099663 0.000000 0.000000 -0.007967 0.046800 -1.711623
    53 0.806015 -0.359835 -1.318335 1.200555 0.246503 -0.836612
    54 1.789780 0.000001 0.000000 0.046975 0.150711 0.289172
    55 1.207001 0.000000 0.000004 0.215983 -0.000003 0.942472
    56 3.643179 -1.117762 -6.586830 1.677301 0.043048 -2.001890
  time 2
    0 1.610982 -0.335943 35.875429 1.740020 0.041977 -0.030563
    1 -0.124999 3.345128 -2.981903 1.573663 0.102068 1.613284
    2 4.018331 0.000000 0.000000 -0.051831 0.061960 0.176401
    3 3.518564 0.000000 0.000000 -0.000778 0.013830 0.255643
    4 8.942642 0.000000 0.000000 0.007516 -0.114716 0.246259
    5 3.307269 0.000000 -0.000004 3.137477 0.001222 0.577187
    6 3.593710 -0.000001 -0.000004 0.048386 -0.015149 1.083304
    7 1.999994 -3.000001 0.000004 -1.570753 -0.000007 -1.326410
    8 2.033349 1.000771 -1.937607 -1.389096 1.273953 -3.066089
    9 6.028143 0.000002 -0.000004 1.740834 0.379216 -0.597335
    10 11.692545 0.000000 0.000000 -0.000011 0.000000 -1.836016
    11 11.481701 0.000000 0.000000 -0.857952 0.279310 -0.015061
    12 2.676086 -1.712440 0.000000 -1.570792 0.000005 -1.570792
    13 2.033341 1.000767 1.937660 2.412174 -1.487397 2.120583
    14 6.028140 0.000002 0.000000 -1.291481 0.226983 -1.066810
    15 11.692553 0.000000 0.000011 -0.000013 0.000000 -1.791773
    16 11.481667 0.000000 -0.000031 1.575391 -0.108951 -0.097558
    17 2.676086 -1.712440 0.000004 1.570793 0.000003 1.570795
    18 -3.890452 0.000004 0.000004 -1.320956 0.179597 -1.525359
    19 17.848171 0.000000 0.000004 0.000009 0.000000 0.293386
    20 16.525251 0.000000 0.000004 0.081260 -0.000862 -1.320878
    21 6.879454 0.000000 0.000008 -0.078955 -0.002762 -0.852303
    22 3.890452 -0.000004 -0.000004 -1.771260 -0.849183 -1.427372
    23 17.848175 0.000000 -0.000004 0.000010 0.000000 1.661914
    24 16.525246 0.000000 0.000004 0.033918 -0.124103 -1.078124
    25 6.879452 0.000000 0.000000 -0.007431 -0.003004 -0.582613
    26 3.859703 -0.142403 -1.191975 -0.568926 -0.013610 -1.526889
    27 1.312565 0.000001 0.000004 -0.086569 0.239740 -1.554310
    28 0.729362 0.000002 0.000004 -0.176890 0.315566 -1.429227
    29 3.942326 0.046774 -0.431438 0.030308 -0.060029 -1.757075
    30 1.539093 0.000001 0.000000 -0.058651 0.149388 -1.571890
    31 1.196320 -0.000001 0.000004 -0.107664 0.188367 -1.488369
    32 3.883686 -0.046767 0.431446 0.134430 0.056057 -1.771061
    33 1.719570 0.000002 0.000004 -0.030677 0.057167 -1.750736
    34 1.209183 -0.000001 -0.000004 -0.034252 0.059379 -1.537043
    35 3.859859 -0.137950 1.332462 0.524258 -0.087937 -1.819439
    36 1.719429 0.000002 0.000000 0.072020 -0.125287 -1.808335
    37 1.099670 0.000001 0.000004 0.072020 -0.125295 -0.669563
    38 0.806049 -0.348922 1.321259 -0.786547 -0.413953 -0.991999
    39 1.789787 0.000000 0.000004 0.004363 0.030240 0.718398
    40 1.207001 0.000000 -0.000004 0.102533 0.030242 0.502412
    41 3.859665 -0.132565 1.193108 0.693436 -0.009816 -1.600821
    42 1.312561 0.000000 0.000000 0.110758 -0.297050 -1.436091
    43 0.729366 0.000002 0.000000 0.157644 -0.341690 -1.408420
    44 3.942291 0.050330 0.431042 0.331339 -0.008608 -1.603808
    45 1.539097 0.000003 0.000000 0.050214 -0.153911 -1.591790
    46 1.196320 0.000000 0.000000 0.132537 -0.225779 -1.824896
    47 3.883648 -0.050325 -0.431044 -0.022374 -0.010304 -1.305812
    48 1.719574 -0.000005 0.000000 0.038733 -0.074557 -1.586292
    49 1.209183 -0.000001 0.000000 0.047516 -0.080001 -1.582137
    50 3.859825 -0.148935 -1.331284 -0.549076 -0.024863 -1.454250
    51 1.719425 0.000000 0.000000 -0.002107 0.024342 -1.684730
    52 1.099663 0.000000 0.000000 -0.007967 0.046800 -1.711623
    53 0.806015 -0.359835 -1.318335 1.200555 0.246503 -0.836612
    54 1.789780 0.000001 0.000000 0.046975 0.150711 0.289172
    55 1.207001 0.000000 0.000004 0.215983 -0.000003 0.942472
    56 3.643179 -1.117762 -6.586830 1.677301 0.043048 -2.001890
  time 3
    0 1.610982 -0.335943 36.625452 1.749549 0.046183 -0.021781
    1 -0.124999 3.345128 -2.981903 1.575075 0.102068 1.616499
    2 4.018331 0.000000 0.000000 -0.046783 0.061565 0.176317
    3 3.518564 0.000000 0.000000 0.004627 0.016874 0.253462
    4 8.942642 0.000000 0.000000 0.023164 -0.115579 0.248118
    5 3.307269 0.000000 -0.000004 3.137477 0.001222 0.577187
    6 3.593710 -0.000001 -0.000004 0.015832 -0.016275 1.084571
    7 1.999994 -3.000001 0.000004 -1.570753 -0.000007 -1.326410
    8 2.033349 1.000771 -1.937607 -1.392157 1.274113 -3.069526
    9 6.028143 0.000002 -0.000004 1.779248 0.475938 -0.594862
    10 11.692545 0.000000 0.000000 -0.000011 0.000000 -1.762023
    11 11.481701 0.000000 0.000000 -0.856711 0.258877 -0.014864
    12 2.676086 -1.712440 0.000000 -1.570792 0.000005 -1.570792
    13 2.033341 1.000767 1.937660 2.412174 -1.487397 2.120583
    14 6.028140 0.000002 0.000000 -1.251436 0.290326 -1.035394
    15 11.692553 0.000000 0.000011 -0.000013 0.000000 -1.681063
    16 11.481667 0.000000 -0.000031 1.575391 -0.108951 -0.097558
    17 2.676086 -1.712440 0.000004 1.570793 0.000003 1.570795
    18 -3.890452 0.000004 0.000004 -1.281246 0.325430 -1.521331
    19 17.848171 0.000000 0.000004 0.000009 0.000000 0.133724
    20 16.525251 0.000000 0.000004 0.074895 -0.088156 -0.877332
    21 6.879454 0.000000 0.000008 -0.078128 -0.002258 -0.914874
    22 3.890452 -0.000004 -0.000004 -1.772647 -0.939733 -1.415480
    23 17.848175 0.000000 -0.000004 0.000010 0.000000 1.491253
    24 16.525246 0.000000 0.000004 -0.019538 -0.130450 -1.149389
    25 6.879452 0.000000 0.000000 -0.006963 -0.002932 -0.611468
    26 3.859703 -0.142403 -1.191975 -0.568926 -0.013610 -1.526889
    27 1.312565 0.000001 0.000004 -0.086569 0.239740 -1.554263
    28 0.729362 0.000002 0.000004 -0.176890 0.315566 -1.429227
    29 3.942326 0.046774 -0.431438 0.030308 -0.060029 -1.757075
    30 1.539093 0.000001 0.000000 -0.058651 0.149388 -1.571890
    31 1.196320 -0.000001 0.000004 -0.107664 0.188367 -1.488369
    32 3.883686 -0.046767 0.431446 0.134430 0.056057 -1.771061
    33 1.719570 0.000002 0.000004 -0.030677 0.057167 -1.750736
    34 1.209183 -0.000001 -0.000004 -0.034252 0.059379 -1.537043
    35 3.859859 -0.137950 1.332462 0.524258 -0.087937 -1.819439
    36 1.719429 0.000002 0.000000 0.072020 -0.125287 -1.808335
    37 1.099670 0.000001 0.000004 0.072020 -0.125295 -0.669563
    38 0.806049 -0.348922 1.321259 -0.786547 -0.413953 -0.991999
    39 1.789787 0.000000 0.000004 0.004363 0.030240 0.718398
    40 1.207001 0.000000 -0.000004 0.102533 0.030242 0.502412
    41 3.859665 -0.132565 1.193108 0.693436 -0.009816 -1.600821
    42 1.312561 0.000000 0.000000 0.110758 -0.297050 -1.436091
    43 0.729366 0.000002 0.000000 0.157644 -0.341690 -1.408420
    44 3.942291 0.050330 0.431042 0.331339 -0.008596 -1.603808
    45 1.539097 0.000003 0.000000 0.050214 -0.153911 -1.591790
    46 1.196320 0.000000 0.000000 0.132537 -0.225779 -1.824896
    47 3.883648 -0.050325 -0.431044 -0.022374 -0.010304 -1.305812
    48 1.719574 -0.000005 0.000000 0.038733 -0.074557 -1.586292
    49 1.209183 -0.000001 0.000000 0.047516 -0.080001 -1.582137
    50 3.859825 -0.148935 -1.331284 -0.549076 -0.024863 -1.454250
    51 1.719425 0.000000 0.000000 -0.002107 0.024342 -1.684730
    52 1.099663 0.000000 0.000000 -0.007967 0.046800 -1.711623
    53 0.806015 -0.359835 -1.318335 1.200555 0.246503 -0.836612
    54 1.789780 0.000001 0.000000 0.046975 0.150711 0.289172
    55 1.207001 0.000000 0.000004 0.215983 -0.000003 0.942472
    56 3.643179 -1.117762 -6.586830 1.677301 0.043048 -2.001890
  time 4
    0 1.610982 -0.335943 37.484853 1.761638 0.049048 -0.005125
    1 -0.124999 3.345128 -2.981903 1.576244 0.102068 1.619220
    2 4.018331 0.000000 0.000000 -0.046764 0.056555 0.173249
    3 3.518564 0.000000 0.000000 0.006245 0.017078 0.245001
    4 8.942642 0.000000 0.000000 0.034671 -0.113794 0.249855
    5 3.307269 0.000000 -0.000004 3.137477 0.001222 0.577187
    6 3.593710 -0.000001 -0.000004 -0.024446 -0.020194 1.086823
    7 1.999994 -3.000001 0.000004 -1.570753 -0.000007 -1.326410
    8 2.033349 1.000771 -1.937607 -1.394105 1.274234 -3.071435
    9 6.028143 0.000002 -0.000004 1.807278 0.549173 -0.609881
    10 11.692545 0.000000 0.000000 -0.000011 0.000000 -1.697632
    11 11.481701 0.000000 0.000000 -0.855471 0.238698 -0.014668
    12 2.676086 -1.712440 0.000000 -1.570792 0.000005 -1.570792
    13 2.033341 1.000767 1.937660 2.412174 -1.487397 2.120583
    14 6.028140 0.000002 0.000000 -1.218523 0.322773 -1.007607
    15 11.692553 0.000000 0.000011 -0.000013 0.000000 -1.559164
    16 11.481667 0.000000 -0.000031 1.575391 -0.108951 -0.097558
    17 2.676086 -1.712440 0.000004 1.570793 0.000003 1.570795
    18 -3.890452 0.000004 0.000004 -1.267793 0.176916 -1.573560
    19 17.848171 0.000000 0.000004 0.000009 0.000000 0.451628
    20 16.525251 0.000000 0.000004 0.022562 -0.129909 -0.613758
    21 6.879454 0.000000 0.000008 -0.078404 -0.001611 -0.759643
    22 3.890452 -0.000004 -0.000004 -1.746703 -0.952903 -1.431841
    23 17.848175 0.000000 -0.000004 0.000010 0.000000 1.239768
    24 16.525246 0.000000 0.000004 -0.050461 -0.146616 -1.218061
    25 6.879452 0.000000 0.000000 -0.006424 -0.002932 -0.658145
    26 3.859703 -0.142403 -1.191975 -0.568926 -0.013610 -1.526889
    27 1.312565 0.000001 0.000004 -0.086569 0.239740 -1.554263
    28 0.729362 0.000002 0.000004 -0.176890 0.315566 -1.429227
    29 3.942326 0.046774 -0.431438 0.030308 -0.060029 -1.757075
    30 1.539093 0.000001 0.000000 -0.058651 0.149388 -1.571890
    31 1.196320 -0.000001 0.000004 -0.107664 0.188367 -1.488369
    32 3.883686 -0.046767 0.431446 0.134430 0.056057 -1.771061
    33 1.719570 0.000002 0.000004 -0.030677 0.057167 -1.750736
    34 1.209183 -0.000001 -0.000004 -0.034252 0.059379 -1.537043
    35 3.859859 -0.137950 1.332462 0.524258 -0.087937 -1.819439
    36 1.719429 0.000002 0.000000 0.072020 -0.125287 -1.808335
    37 1.099670 0.000001 0.000004 0.072020 -0.125295 -0.669563
    38 0.806049 -0.348922 1.321259 -0.786547 -0.413953 -0.991999
    39 1.789787 0.000000 0.000004 0.004363 0.030240 0.718398
    40 1.207001 0.000000 -0.000004 0.102533 0.030242 0.502412
    41 3.859665 -0.132565 1.193108 0.693436 -0.009816 -1.600821
    42 1.312561 0.000000 0.000000 0.110758 -0.297050 -1.436091
    43 0.729366 0.000002 0.000000 0.157644 -0.341690 -1.408420
    44 3.942291 0.050330 0.431042 0.331339 -0.008596 -1.603808
    45 1.539097 0.000003 0.000000 0.050214 -0.153911 -1.591790
    46 1.196320 0.000000 0.000000 0.132537 -0.225779 -1.824896
    47 3.883648 -0.050325 -0.431044 -0.022374 -0.010304 -1.305812
    48 1.719574 -0.000005 0.000000 0.038733 -0.074557 -1.586292
    49 1.209183 -0.000001 0.000000 0.047516 -0.080001 -1.582137
    50 3.859825 -0.148935 -1.331284 -0.549076 -0.024863 -1.454250
    51 1.719425 0.000000 0.000000 -0.002107 0.024342 -1.684730
    52 1.099663 0.000000 0.000000 -0.007967 0.046800 -1.711623
    53 0.806015 -0.359835 -1.318335 1.200555 0.246503 -0.836612
    54 1.789780 0.000001 0.000000 0.046975 0.150711 0.289172
    55 1.207001 0.000000 0.000004 0.215983 -0.000003 0.942472
    56 3.643179 -1.117762 -6.586830 1.677301 0.043060 -2.001890
  time 5
    0 1.610982 -0.335943 38.156749 1.772529 0.050210 0.016982
    1 -0.124999 3.345128 -2.981903 1.577023 0.102068 1.621149
    2 4.018331 0.000000 0.000000 -0.050410 0.047831 0.167269
    3 3.518564 0.000000 0.000000 0.004783 0.013878 0.231087
    4 8.942642 0.000000 0.000000 0.038596 -0.108916 0.250854
    5 3.307269 0.000000 -0.000004 3.137477 0.001222 0.577187
    6 3.593710 -0.000001 -0.000004 -0.061230 -0.028499 1.089919
    7 1.999994 -3.000001 0.000004 -1.570753 -0.000007 -1.326410
    8 2.033349 1.000771 -1.937607 -1.394847 1.274274 -3.072294
    9 6.028143 0.000002 -0.000004 1.816744 0.586418 -0.644478
    10 11.692545 0.000000 0.000000 -0.000011 0.000000 -1.657051
    11 11.481701 0.000000 0.000000 -0.854284 0.218391 -0.014521
    12 2.676086 -1.712440 0.000000 -1.570792 0.000005 -1.570792
    13 2.033341 1.000767 1.937660 2.412174 -1.487397 2.120583
    14 6.028140 0.000002 0.000000 -1.194496 0.342302 -0.983333
    15 11.692553 0.000000 0.000011 -0.000013 0.000000 -1.458036
    16 11.481667 0.000000 -0.000031 1.575391 -0.108951 -0.097558
    17 2.676086 -1.712440 0.000004 1.570793 0.000003 1.570795
    18 -3.890452 0.000004 0.000004 -1.249501 0.092291 -1.588966
    19 17.848171 0.000000 0.000004 0.000009 0.000000 0.635284
    20 16.525251 0.000000 0.000004 -0.009492 -0.130260 -0.473148
    21 6.879454 0.000000 0.000008 -0.078571 -0.001408 -0.689056
    22 3.890452 -0.000004 -0.000004 -1.692124 -0.860123 -1.480030
    23 17.848175 0.000000 -0.000004 0.000010 0.000000 0.872276
    24 16.525246 0.000000 0.000004 -0.038367 -0.169021 -1.254055
    25 6.879452 0.000000 0.000000 -0.006903 -0.002860 -0.607640
    26 3.859703 -0.142403 -1.191975 -0.568926 -0.013610 -1.526889
    27 1.312565 0.000001 0.000004 -0.086569 0.239740 -1.554263
    28 0.729362 0.000002 0.000004 -0.176890 0.315566 -1.429227
    29 3.942326 0.046774 -0.431438 0.030308 -0.060029 -1.757075
    30 1.539093 0.000001 0.000000 -0.058663 0.149388 -1.571890
    31 1.196320 -0.000001 0.000004 -0.107664 0.188367 -1.488369
    32 3.883686 -0.046767 0.431446 0.134430 0.056057 -1.771061
    33 1.719570 0.000002 0.000004 -0.030677 0.057167 -1.750736
    34 1.209183 -0.000001 -0.000004 -0.034252 0.059379 -1.537043
    35 3.859859 -0.137950 1.332462 0.524258 -0.087937 -1.819439
    36 1.719429 0.000002 0.000000 0.072020 -0.125287 -1.808335
    37 1.099670 0.000001 0.000004 0.072020 -0.125295 -0.669563
    38 0.806049 -0.348922 1.321259 -0.786547 -0.413953 -0.991999
    39 1.789787 0.000000 0.000004 0.004363 0.030240 0.718398
    40 1.207001 0.000000 -0.000004 0.102533 0.030242 0.502412
    41 3.859665 -0.132565 1.193108 0.693436 -0.009816 -1.600821
    42 1.312561 0.000000 0.000000 0.110758 -0.297050 -1.436091
    43 0.729366 0.000002 0.000000 0.157644 -0.341690 -1.408420
    44 3.942291 0.050330 0.431042 0.331339 -0.008608 -1.603808
    45 1.539097 0.000003 0.000000 0.050214 -0.153911 -1.591790
    46 1.196320 0.000000 0.000000 0.132537 -0.225779 -1.824896
    47 3.883648 -0.050325 -0.431044 -0.022374 -0.010304 -1.305812
    48 1.719574 -0.000005 0.000000 0.038733 -0.074557 -1.586292
    49 1.209183 -0.000001 0.000000 0.047516 -0.080001 -1.582137
    50 3.859825 -0.148935 -1.331284 -0.549076 -0.024863 -1.454250
    51 1.719425 0.000000 0.000000 -0.002107 0.024342 -1.684730
    52 1.099663 0.000000 0.000000 -0.007967 0.046800 -1.711623
    53 0.806015 -0.359835 -1.318335 1.200555 0.246503 -0.836612
    54 1.789780 0.000001 0.000000 0.046975 0.150711 0.289172
    55 1.207001 0.000000 0.000004 0.215983 -0.000003 0.942472
    56 3.643179 -1.117762 -6.586830 1.677301 0.043060 -2.001890
  time 6
    0 1.610982 -0.335943 38.313003 1.780969 0.048940 0.041512
    1 -0.124999 3.345128 -2.981903 1.577412 0.102068 1.622238
    2 4.018331 0.000000 0.000000 -0.056729 0.036769 0.161265
    3 3.518564 0.000000 0.000000 0.000409 0.007227 0.216885
    4 8.942642 0.000000 0.000000 0.033830 -0.101186 0.250362
    5 3.307269 0.000000 -0.000004 3.137477 0.001222 0.577187
    6 3.593710 -0.000001 -0.000004 -0.083070 -0.042905 1.093227
    7 1.999994 -3.000001 0.000004 -1.570753 -0.000007 -1.326410
    8 2.033349 1.000771 -1.937607 -1.394662 1.274274 -3.072104
    9 6.028143 0.000002 -0.000004 1.812792 0.576444 -0.681124
    10 11.692545 0.000000 0.000000 -0.000011 0.000000 -1.651132
    11 11.481701 0.000000 0.000000 -0.853043 0.197800 -0.014374
    12 2.676086 -1.712440 0.000000 -1.570792 0.000005 -1.570792
    13 2.033341 1.000767 1.937660 2.412174 -1.487397 2.120583
    14 6.028140 0.000002 0.000000 -1.183856 0.358189 -0.961517
    15 11.692553 0.000000 0.000011 -0.000013 0.000000 -1.416634
    16 11.481667 0.000000 -0.000031 1.575391 -0.108951 -0.097558
    17 2.676086 -1.712440 0.000004 1.570793 0.000003 1.570795
    18 -3.890452 0.000004 0.000004 -1.231859 0.007324 -1.597085
    19 17.848171 0.000000 0.000004 0.000009 0.000000 0.815202
    20 16.525251 0.000000 0.000004 -0.015963 -0.117376 -0.448967
    21 6.879454 0.000000 0.000008 -0.078607 -0.001455 -0.694147
    22 3.890452 -0.000004 -0.000004 -1.636565 -0.683188 -1.530556
    23 17.848175 0.000000 -0.000004 0.000010 0.000000 0.412755
    24 16.525246 0.000000 0.000004 0.008412 -0.180214 -1.283418
    25 6.879452 0.000000 0.000000 -0.007862 -0.003040 -0.555076
    26 3.859703 -0.142403 -1.191975 -0.568926 -0.013610 -1.526889
    27 1.312565 0.000001 0.000004 -0.086569 0.239740 -1.554310
    28 0.729362 0.000002 0.000004 -0.176890 0.315566 -1.429227
    29 3.942326 0.046774 -0.431438 0.030308 -0.060029 -1.757075
    30 1.539093 0.000001 0.000000 -0.058663 0.149388 -1.571890
    31 1.196320 -0.000001 0.000004 -0.107664 0.188367 -1.488369
    32 3.883686 -0.046767 0.431446 0.134430 0.056057 -1.771061
    33 1.719570 0.000002 0.000004 -0.030677 0.057167 -1.750736
    34 1.209183 -0.000001 -0.000004 -0.034252 0.059379 -1.537043
    35 3.859859 -0.137950 1.332462 0.524258 -0.087937 -1.819439
    36 1.719429 0.000002 0.000000 0.072020 -0.125287 -1.808335
    37 1.099670 0.000001 0.000004 0.072020 -0.125295 -0.669563
    38 0.806049 -0.348922 1.321259 -0.786547 -0.413953 -0.991999
    39 1.789787 0.000000 0.000004 0.004363 0.030240 0.718398
    40 1.207001 0.000000 -0.000004 0.102533 0.030242 0.502412
    41 3.859665 -0.132565 1.193108 0.693436 -0.009816 -1.600821
    42 1.312561 0.000000 0.000000 0.110758 -0.297050 -1.436091
    43 0.729366 0.000002 0.000000 0.157644 -0.341690 -1.408420
    44 3.942291 0.050330 0.431042 0.331339 -0.008608 -1.603808
    45 1.539097 0.000003 0.000000 0.050214 -0.153911 -1.591790
    46 1.196320 0.000000 0.000000 0.132537 -0.225779 -1.824896
    47 3.883648 -0.050325 -0.431044 -0.022374 -0.010304 -1.305812
    48 1.719574 -0.000005 0.000000 0.038733 -0.074557 -1.586292
    49 1.209183 -0.000001 0.000000 0.047516 -0.080001 -1.582137
    50 3.859825 -0.148935 -1.331284 -0.549076 -0.024863 -1.454250
    51 1.719425 0.000000 0.000000 -0.002107 0.024342 -1.684730
    52 1.099663 0.000000 0.000000 -0.007967 0.046800 -1.711623
    53 0.806015 -0.359835 -1.318335 1.200555 0.246503 -0.836612
    54 1.789780 0.000001 0.000000 0.046975 0.150711 0.289172
    55 1.207001 0.000000 0.000004 0.215983 -0.000003 0.942472
    56 3.643179 -1.117762 -6.586830 1.677301 0.043048 -2.001890
  time 7
    0 1.610982 -0.335943 37.863771 1.784291 0.044697 0.065663
    1 -0.124999 3.345128 -2.981903 1.577510 0.102068 1.622485
    2 4.018331 0.000000 0.000000 -0.064694 0.024808 0.156950
    3 3.518564 0.000000 0.000000 -0.005847 -0.001941 0.205476
    4 8.942642 0.000000 0.000000 0.025178 -0.092389 0.247626
    5 3.307269 0.000000 -0.000004 3.137477 0.001222 0.577187
    6 3.593710 -0.000001 -0.000004 -0.084863 -0.062991 1.096007
    7 1.999994 -3.000001 0.000004 -1.570753 -0.000007 -1.326410
    8 2.033349 1.000771 -1.937607 -1.393641 1.274194 -3.070958
    9 6.028143 0.000002 -0.000004 1.803969 0.519513 -0.706745
    10 11.692545 0.000000 0.000000 -0.000011 0.000000 -1.674678
    11 11.481701 0.000000 0.000000 -0.852072 0.181675 -0.014276
    12 2.676086 -1.712440 0.000000 -1.570792 0.000005 -1.570792
    13 2.033341 1.000767 1.937660 2.412174 -1.487397 2.120583
    14 6.028140 0.000002 0.000000 -1.182687 0.372861 -0.940209
    15 11.692553 0.000000 0.000011 -0.000013 0.000000 -1.456777
    16 11.481667 0.000000 -0.000031 1.575452 -0.108951 -0.097558
    17 2.676086 -1.712440 0.000004 1.570793 0.000003 1.570795
    18 -3.890452 0.000004 0.000004 -1.217638 -0.115662 -1.608464
    19 17.848171 0.000000 0.000004 0.000009 0.000000 1.035485
    20 16.525251 0.000000 0.000004 0.000939 -0.094006 -0.490492
    21 6.879454 0.000000 0.000008 -0.078715 -0.001623 -0.708469
    22 3.890452 -0.000004 -0.000004 -1.599526 -0.506969 -1.558534
    23 17.848175 0.000000 -0.000004 0.000010 0.000000 0.000000
    24 16.525246 0.000000 0.000004 0.007300 -0.165676 -1.050933
    25 6.879452 0.000000 0.000000 -0.004483 -0.003112 -0.555570
    26 3.859703 -0.142403 -1.191975 -0.568926 -0.013610 -1.526889
    27 1.312565 0.000001 0.000004 -0.086569 0.239740 -1.554263
    28 0.729362 0.000002 0.000004 -0.176890 0.315566 -1.429227
    29 3.942326 0.046774 -0.431438 0.030308 -0.060029 -1.757075
    30 1.539093 0.000001 0.000000 -0.058651 0.149388 -1.571890
    31 1.196320 -0.000001 0.000004 -0.107664 0.188367 -1.488369
    32 3.883686 -0.046767 0.431446 0.134430 0.056057 -1.771061
    33 1.719570 0.000002 0.000004 -0.030677 0.057167 -1.750736
    34 1.209183 -0.000001 -0.000004 -0.034252 0.059379 -1.537043
    35 3.859859 -0.137950 1.332462 0.524258 -0.087937 -1.819439
    36 1.719429 0.000002 0.000000 0.072020 -0.125287 -1.808335
    37 1.099670 0.000001 0.000004 0.072020 -0.125295 -0.669563
    38 0.806049 -0.348922 1.321259 -0.786547 -0.413953 -0.991999
    39 1.789787 0.000000 0.000004 0.004363 0.030240 0.718398
    40 1.207001 0.000000 -0.000004 0.102533 0.030242 0.502412
    41 3.859665 -0.132565 1.193108 0.693436 -0.009816 -1.600821
    42 1.312561 0.000000 0.000000 0.110758 -0.297050 -1.436091
    43 0.729366 0.000002 0.000000 0.157644 -0.341690 -1.408420
    44 3.942291 0.050330 0.431042 0.331339 -0.008608 -1.603808
    45 1.539097 0.000003 0.000000 0.050214 -0.153911 -1.591790
    46 1.196320 0.000000 0.000000 0.132537 -0.225779 -1.824896
    47 3.883648 -0.050325 -0.431044 -0.022374 -0.010304 -1.305812
    48 1.719574 -0.000005 0.000000 0.038733 -0.074557 -1.586292
    49 1.209183 -0.000001 0.000000 0.047516 -0.080001 -1.582137
    50 3.859825 -0.148935 -1.331284 -0.549076 -0.024863 -1.454250
    51 1.719425 0.000000 0.000000 -0.002107 0.024342 -1.684730
    52 1.099663 0.000000 0.000000 -0.007967 0.046800 -1.711623
    53 0.806015 -0.359835 -1.318335 1.200555 0.246503 -0.836612
    54 1.789780 0.000001 0.000000 0.046975 0.150711 0.289172
    55 1.207001 0.000000 0.000004 0.215983 -0.000003 0.942472
    56 3.643179 -1.117762 -6.586830 1.677301 0.043060 -2.001890
  time 8
    0 1.610982 -0.335943 36.973119 1.777702 0.037495 0.087089
    1 -0.124999 3.345128 -2.981903 1.577315 0.102068 1.621496
    2 4.018331 0.000000 0.000000 -0.073443 0.012800 0.157490
    3 3.518564 0.000000 0.000000 -0.012978 -0.011266 0.204805
    4 8.942642 0.000000 0.000000 0.013709 -0.083401 0.243262
    5 3.307269 0.000000 -0.000004 3.137477 0.001222 0.577187
    6 3.593710 -0.000001 -0.000004 -0.073874 -0.085546 1.098118
    7 1.999994 -3.000001 0.000004 -1.570753 -0.000007 -1.326410
    8 2.033349 1.000771 -1.937607 -1.391971 1.274113 -3.069239
    9 6.028143 0.000002 -0.000004 1.792298 0.439931 -0.731129
    10 11.692545 0.000000 0.000000 -0.000011 0.000000 -1.718087
    11 11.481701 0.000000 0.000000 -0.851748 0.175909 -0.014276
    12 2.676086 -1.712440 0.000000 -1.570792 0.000005 -1.570792
    13 2.033341 1.000767 1.937660 2.412174 -1.487397 2.120583
    14 6.028140 0.000002 0.000000 -1.195314 0.373670 -0.924481
    15 11.692553 0.000000 0.000011 -0.000013 0.000000 -1.558115
    16 11.481667 0.000000 -0.000031 1.575391 -0.108951 -0.097558
    17 2.676086 -1.712440 0.000004 1.570793 0.000003 1.570795
    18 -3.890452 0.000004 0.000004 -1.202120 -0.260297 -1.627195
    19 17.848171 0.000000 0.000004 0.000009 0.000000 1.253525
    20 16.525251 0.000000 0.000004 0.033789 -0.064406 -0.564693
    21 6.879454 0.000000 0.000008 -0.079075 -0.001779 -0.684953
    22 3.890452 -0.000004 -0.000004 -1.588594 -0.634000 -1.554204
    23 17.848175 0.000000 -0.000004 0.000010 0.000000 0.468161
    24 16.525246 0.000000 0.000004 -0.028821 -0.140414 -1.160000
    25 6.879452 0.000000 0.000000 -0.007826 -0.002896 -0.540711
    26 3.859703 -0.142403 -1.191975 -0.568926 -0.013610 -1.526889
    27 1.312565 0.000001 0.000004 -0.086569 0.239740 -1.554263
    28 0.729362 0.000002 0.000004 -0.176890 0.315566 -1.429227
    29 3.942326 0.046774 -0.431438 0.030308 -0.060029 -1.757075
    30 1.539093 0.000001 0.000000 -0.058663 0.149388 -1.571890
    31 1.196320 -0.000001 0.000004 -0.107664 0.188367 -1.488369
    32 3.883686 -0.046767 0.431446 0.134430 0.056057 -1.771061
    33 1.719570 0.000002 0.000004 -0.030677 0.057167 -1.750736
    34 1.209183 -0.000001 -0.000004 -0.034252 0.059379 -1.537043
    35 3.859859 -0.137950 1.332462 0.524258 -0.087937 -1.819439
    36 1.719429 0.000002 0.000000 0.072020 -0.125287 -1.808335
    37 1.099670 0.000001 0.000004 0.072020 -0.125295 -0.669563
    38 0.806049 -0.348922 1.321259 -0.786547 -0.413953 -0.991999
    39 1.789787 0.000000 0.000004 0.004363 0.030240 0.718398
    40 1.207001 0.000000 -0.000004 0.102533 0.030242 0.502412
    41 3.859665 -0.132565 1.193108 0.693436 -0.009816 -1.600821
    42 1.312561 0.000000 0.000000 0.110758 -0.297050 -1.436091
    43 0.729366 0.000002 0.000000 0.157644 -0.341690 -1.408420
    44 3.942291 0.050330 0.431042 0.331339 -0.008608 -1.603808
    45 1.539097 0.000003 0.000000 0.050214 -0.153911 -1.591790
    46 1.196320 0.000000 0.000000 0.132537 -0.225779 -1.824896
    47 3.883648 -0.050325 -0.431044 -0.022374 -0.010304 -1.305812
    48 1.719574 -0.000005 0.000000 0.038733 -0.074557 -1.586292
    49 1.209183 -0.000001 0.000000 0.047516 -0.080001 -1.582137
    50 3.859825 -0.148935 -1.331284 -0.549076 -0.024863 -1.454250
    51 1.719425 0.000000 0.000000 -0.002107 0.024342 -1.684730
    52 1.099663 0.000000 0.000000 -0.007967 0.046800 -1.711623
    53 0.806015 -0.359835 -1.318335 1.200555 0.246503 -0.836612
    54 1.789780 0.000001 0.000000 0.046975 0.150711 0.289172
    55 1.207001 0.000000 0.000004 0.215983 -0.000003 0.942472
    56 3.643179 -1.117762 -6.586830 1.677301 0.043048 -2.001890
  time 9
    0 1.610982 -0.335943 36.152781 1.762945 0.027931 0.105108
    1 -0.124999 3.345128 -2.981903 1.576633 0.102068 1.619368
    2 4.018331 0.000000 0.000000 -0.082287 0.001330 0.163686
    3 3.518564 0.000000 0.000000 -0.020253 -0.018816 0.216885
    4 8.942642 0.000000 0.000000 0.000342 -0.074928 0.238144
    5 3.307269 0.000000 -0.000004 3.137477 0.001222 0.577187
    6 3.593710 -0.000001 -0.000004 -0.055252 -0.107490 1.099456
    7 1.999994 -3.000001 0.000004 -1.570753 -0.000007 -1.326410
    8 2.033349 1.000771 -1.937607 -1.389745 1.273993 -3.066853
    9 6.028143 0.000002 -0.000004 1.782740 0.345790 -0.751590
    10 11.692545 0.000000 0.000000 -0.000011 0.000000 -1.773993
    11 11.481701 0.000000 0.000000 -0.852072 0.181073 -0.014276
    12 2.676086 -1.712440 0.000000 -1.570792 0.000005 -1.570792
    13 2.033341 1.000767 1.937660 2.412174 -1.487397 2.120583
    14 6.028140 0.000002 0.000000 -1.226415 0.337108 -0.920891
    15 11.692553 0.000000 0.000011 -0.000013 0.000000 -1.685609
    16 11.481667 0.000000 -0.000031 1.575391 -0.108951 -0.097558
    17 2.676086 -1.712440 0.000004 1.570793 0.000003 1.570795
    18 -3.890452 0.000004 0.000004 -1.175450 -0.425325 -1.666830
    19 17.848171 0.000000 0.000004 0.000009 0.000000 1.451234
    20 16.525251 0.000000 0.000004 0.068725 -0.030447 -0.654075
    21 6.879454 0.000000 0.000008 -0.079938 -0.001479 -0.536826
    22 3.890452 -0.000004 -0.000004 -1.587370 -0.607702 -1.543823
    23 17.848175 0.000000 -0.000004 0.000010 0.000000 0.791391
    24 16.525246 0.000000 0.000004 -0.049509 -0.107069 -1.372468
    25 6.879452 0.000000 0.000000 -0.007515 -0.002680 -0.536389
    26 3.859703 -0.142403 -1.191975 -0.568926 -0.013610 -1.526889
    27 1.312565 0.000001 0.000004 -0.086569 0.239740 -1.554263
    28 0.729362 0.000002 0.000004 -0.176890 0.315566 -1.429227
    29 3.942326 0.046774 -0.431438 0.030308 -0.060029 -1.757075
    30 1.539093 0.000001 0.000000 -0.058651 0.149388 -1.571890
    31 1.196320 -0.000001 0.000004 -0.107664 0.188367 -1.488369
    32 3.883686 -0.046767 0.431446 0.134430 0.056057 -1.771061
    33 1.719570 0.000002 0.000004 -0.030677 0.057167 -1.750736
    34 1.209183 -0.000001 -0.000004 -0.034252 0.059379 -1.537043
    35 3.859859 -0.137950 1.332462 0.524258 -0.087937 -1.819439
    36 1.719429 0.000002 0.000000 0.072020 -0.125287 -1.808335
    37 1.099670 0.000001 0.000004 0.072020 -0.125295 -0.669563
    38 0.806049 -0.348922 1.321259 -0.786547 -0.413953 -0.991999
    39 1.789787 0.000000 0.000004 0.004363 0.030240 0.718398
    40 1.207001 0.000000 -0.000004 0.102533 0.030242 0.502412
    41 3.859665 -0.132565 1.193108 0.693436 -0.009816 -1.600821
    42 1.312561 0.000000 0.000000 0.110758 -0.297050 -1.436091
    43 0.729366 0.000002 0.000000 0.157644 -0.341690 -1.408420
    44 3.942291 0.050330 0.431042 0.331339 -0.008608 -1.603808
    45 1.539097 0.000003 0.000000 0.050214 -0.153911 -1.591790
    46 1.196320 0.000000 0.000000 0.132537 -0.225779 -1.824896
    47 3.883648 -0.050325 -0.431044 -0.022374 -0.010304 -1.305812
    48 1.719574 -0.000005 0.000000 0.038733 -0.074557 -1.586292
    49 1.209183 -0.000001 0.000000 0.047516 -0.080001 -1.582137
    50 3.859825 -0.148935 -1.331284 -0.549076 -0.024863 -1.454250
    51 1.719425 0.000000 0.000000 -0.002107 0.024342 -1.684730
    52 1.099663 0.000000 0.000000 -0.007967 0.046800 -1.711623
    53 0.806015 -0.359835 -1.318335 1.200555 0.246503 -0.836612
    54 1.789780 0.000001 0.000000 0.046975 0.150711 0.289172
    55 1.207001 0.000000 0.000004 0.215983 -0.000003 0.942472
    56 3.643179 -1.117762 -6.586830 1.677301 0.043048 -2.001890
  time 10
    0 1.610982 -0.335943 35.715268 1.746990 0.017420 0.117903
    1 -0.124999 3.345128 -2.981903 1.575562 0.102068 1.616450
    2 4.018331 0.000000 0.000000 -0.090588 -0.008940 0.172614
    3 3.518564 0.000000 0.000000 -0.027108 -0.024137 0.236096
    4 8.942642 0.000000 0.000000 -0.014057 -0.067749 0.233150
    5 3.307269 0.000000 -0.000004 3.137477 0.001222 0.577187
    6 3.593710 -0.000001 -0.000004 -0.032170 -0.125275 1.100089
    7 1.999994 -3.000001 0.000004 -1.570753 -0.000007 -1.326410
    8 2.033349 1.000771 -1.937607 -1.387148 1.273872 -3.064275
    9 6.028143 0.000002 -0.000004 1.775021 0.243139 -0.768518
    10 11.692545 0.000000 0.000000 -0.000011 0.000000 -1.833385
    11 11.481701 0.000000 0.000000 -0.853043 0.197451 -0.014374
    12 2.676086 -1.712440 0.000000 -1.570792 0.000005 -1.570792
    13 2.033341 1.000767 1.937660 2.412174 -1.487397 2.120583
    14 6.028140 0.000002 0.000000 -1.272832 0.246883 -0.930491
    15 11.692553 0.000000 0.000011 -0.000013 0.000000 -1.799676
    16 11.481667 0.000000 -0.000031 1.575452 -0.108951 -0.097558
    17 2.676086 -1.712440 0.000004 1.570793 0.000003 1.570795
    18 -3.890452 0.000004 0.000004 -1.137392 -0.570074 -1.722958
    19 17.848171 0.000000 0.000004 0.000009 0.000000 1.556703
    20 16.525251 0.000000 0.000004 0.091868 0.004081 -0.724355
    21 6.879454 0.000000 0.000008 -0.081028 -0.001180 -0.403250
    22 3.890452 -0.000004 -0.000004 -1.593978 -0.400808 -1.530831
    23 17.848175 0.000000 -0.000004 0.000010 0.000000 0.795397
    24 16.525246 0.000000 0.000004 -0.060666 -0.077756 -1.562689
    25 6.879452 0.000000 0.000000 -0.007527 -0.002680 -0.535030
    26 3.859703 -0.142403 -1.191975 -0.568926 -0.013610 -1.526889
    27 1.312565 0.000001 0.000004 -0.086569 0.239740 -1.554263
    28 0.729362 0.000002 0.000004 -0.176890 0.315566 -1.429227
    29 3.942326 0.046774 -0.431438 0.030308 -0.060029 -1.757075
    30 1.539093 0.000001 0.000000 -0.058651 0.149388 -1.571890
    31 1.196320 -0.000001 0.000004 -0.107664 0.188367 -1.488369
    32 3.883686 -0.046767 0.431446 0.134430 0.056057 -1.771061
    33 1.719570 0.000002 0.000004 -0.030677 0.057167 -1.750736
    34 1.209183 -0.000001 -0.000004 -0.034252 0.059379 -1.537043
    35 3.859859 -0.137950 1.332462 0.524258 -0.087937 -1.819439
    36 1.719429 0.000002 0.000000 0.072020 -0.125287 -1.808335
    37 1.099670 0.000001 0.000004 0.072020 -0.125295 -0.669563
    38 0.806049 -0.348922 1.321259 -0.786547 -0.413953 -0.991999
    39 1.789787 0.000000 0.000004 0.004363 0.030240 0.718398
    40 1.207001 0.000000 -0.000004 0.102533 0.030242 0.502412
    41 3.859665 -0.132565 1.193108 0.693436 -0.009816 -1.600821
    42 1.312561 0.000000 0.000000 0.110758 -0.297050 -1.436091
    43 0.729366 0.000002 0.000000 0.157644 -0.341690 -1.408420
    44 3.942291 0.050330 0.431042 0.331339 -0.008608 -1.603808
    45 1.539097 0.000003 0.000000 0.050214 -0.153911 -1.591790
    46 1.196320 0.000000 0.000000 0.132537 -0.225779 -1.824896
    47 3.883648 -0.050325 -0.431044 -0.022374 -0.010304 -1.305812
    48 1.719574 -0.000005 0.000000 0.038733 -0.074557 -1.586292
    49 1.209183 -0.000001 0.000000 0.047516 -0.080001 -1.582137
    50 3.859825 -0.148935 -1.331284 -0.549076 -0.024863 -1.454250
    51 1.719425 0.000000 0.000000 -0.002107 0.024342 -1.684730
    52 1.099663 0.000000 0.000000 -0.007967 0.046800 -1.711623
    53 0.806015 -0.359835 -1.318335 1.200555 0.246503 -0.836612
    54 1.789780 0.000001 0.000000 0.046975 0.150711 0.289172
    55 1.207001 0.000000 0.000004 0.215983 -0.000003 0.942472
    56 3.643179 -1.117762 -6.586830 1.677301 0.043048 -2.001890
  time 11
    0 1.610982 -0.335943 35.594170 1.736971 0.007665 0.123051
    1 -0.124999 3.345128 -2.981903 1.574247 0.102068 1.612937
    2 4.018331 0.000000 0.000000 -0.097767 -0.017486 0.179697
    3 3.518564 0.000000 0.000000 -0.033160 -0.027445 0.253186
    4 8.942642 0.000000 0.000000 -0.028635 -0.062607 0.229200
    5 3.307269 0.000000 -0.000004 3.137477 0.001222 0.577187
    6 3.593710 -0.000001 -0.000004 -0.008031 -0.134934 1.100019
    7 1.999994 -3.000001 0.000004 -1.570753 -0.000007 -1.326410
    8 2.033349 1.000771 -1.937607 -1.384457 1.273752 -3.061316
    9 6.028143 0.000002 -0.000004 1.764268 0.136897 -0.781523
    10 11.692545 0.000000 0.000000 -0.000011 0.000000 -1.886989
    11 11.481701 0.000000 0.000000 -0.854661 0.224442 -0.014570
    12 2.676086 -1.712440 0.000000 -1.570792 0.000005 -1.570792
    13 2.033341 1.000767 1.937660 2.412174 -1.487397 2.120583
    14 6.028140 0.000002 0.000000 -1.323458 0.107110 -0.947311
    15 11.692553 0.000000 0.000011 -0.000013 0.000000 -1.870871
    16 11.481667 0.000000 -0.000031 1.575391 -0.108951 -0.097558
    17 2.676086 -1.712440 0.000004 1.570793 0.000003 1.570795
    18 -3.890452 0.000004 0.000004 -1.095262 -0.675919 -1.792575
    19 17.848171 0.000000 0.000004 0.000009 0.000000 1.576138
    20 16.525251 0.000000 0.000004 0.094786 0.028738 -0.804287
    21 6.879454 0.000000 0.000008 -0.082203 -0.000952 -0.308386
    22 3.890452 -0.000004 -0.000004 -1.617393 -0.084051 -1.513576
    23 17.848175 0.000000 -0.000004 0.000010 0.000000 0.537903
    24 16.525246 0.000000 0.000004 -0.076186 -0.035695 -1.606943
    25 6.879452 0.000000 0.000000 -0.007539 -0.002692 -0.537500
    26 3.859703 -0.142403 -1.191975 -0.568926 -0.013610 -1.526889
    27 1.312565 0.000001 0.000004 -0.086569 0.239740 -1.554263
    28 0.729362 0.000002 0.000004 -0.176890 0.315566 -1.429227
    29 3.942326 0.046774 -0.431438 0.030308 -0.060029 -1.757075
    30 1.539093 0.000001 0.000000 -0.058663 0.149388 -1.571890
    31 1.196320 -0.000001 0.000004 -0.107664 0.188367 -1.488369
    32 3.883686 -0.046767 0.431446 0.134430 0.056057 -1.771061
    33 1.719570 0.000002 0.000004 -0.030677 0.057167 -1.750736
    34 1.209183 -0.000001 -0.000004 -0.034252 0.059379 -1.537043
    35 3.859859 -0.137950 1.332462 0.524258 -0.087937 -1.819439
    36 1.719429 0.000002 0.000000 0.072020 -0.125287 -1.808335
    37 1.099670 0.000001 0.000004 0.072020 -0.125295 -0.669563
    38 0.806049 -0.348922 1.321259 -0.786547 -0.413953 -0.991999
    39 1.789787 0.000000 0.000004 0.004363 0.030240 0.718398
    40 1.207001 0.000000 -0.000004 0.102533 0.030242 0.502412
    41 3.859665 -0.132565 1.193108 0.693436 -0.009816 -1.600821
    42 1.312561 0.000000 0.000000 0.110758 -0.297050 -1.436091
    43 0.729366 0.000002 0.000000 0.157644 -0.341690 -1.408420
    44 3.942291 0.050330 0.431042 0.331339 -0.008608 -1.603808
    45 1.539097 0.000003 0.000000 0.050214 -0.153911 -1.591790
    46 1.196320 0.000000 0.000000 0.132537 -0.225779 -1.824896
    47 3.883648 -0.050325 -0.431044 -0.022374 -0.010304 -1.305812
    48 1.719574 -0.000005 0.000000 0.038733 -0.074557 -1.586292
    49 1.209183 -0.000001 0.000000 0.047516 -0.080001 -1.582137
    50 3.859825 -0.148935 -1.331284 -0.549076 -0.024863 -1.454250
    51 1.719425 0.000000 0.000000 -0.002107 0.024342 -1.684730
    52 1.099663 0.000000 0.000000 -0.007967 0.046800 -1.711623
    53 0.806015 -0.359835 -1.318335 1.200555 0.246503 -0.836612
    54 1.789780 0.000001 0.000000 0.046975 0.150711 0.289172
    55 1.207001 0.000000 0.000004 0.215983 -0.000003 0.942472
    56 3.643179 -1.117762 -6.586830 1.677301 0.043060 -2.001890
  time 12
    0 1.610982 -0.335943 35.926212 1.736807 0.000294 0.119796
    1 -0.124999 3.345128 -2.981903 1.572689 0.102068 1.609178
    2 4.018331 0.000000 0.000000 -0.103320 -0.023382 0.180560
    3 3.518564 0.000000 0.000000 -0.038098 -0.029111 0.257609
    4 8.942642 0.000000 0.000000 -0.042372 -0.060151 0.227202
    5 3.307269 0.000000 -0.000004 3.137477 0.001222 0.577187
    6 3.593710 -0.000001 -0.000004 0.018131 -0.136169 1.099209
    7 1.999994 -3.000001 0.000004 -1.570753 -0.000007 -1.326410
    8 2.033349 1.000771 -1.937607 -1.381674 1.273591 -3.058547
    9 6.028143 0.000002 -0.000004 1.745429 0.029748 -0.787177
    10 11.692545 0.000000 0.000000 -0.000011 0.000000 -1.928096
    11 11.481701 0.000000 0.000000 -0.856765 0.259954 -0.014864
    12 2.676086 -1.712440 0.000000 -1.570792 0.000005 -1.570792
    13 2.033341 1.000767 1.937660 2.412174 -1.487397 2.120583
    14 6.028140 0.000002 0.000000 -1.364614 -0.052529 -0.965732
    15 11.692553 0.000000 0.000011 -0.000013 0.000000 -1.889824
    16 11.481667 0.000000 -0.000031 1.575391 -0.108951 -0.097558
    17 2.676086 -1.712440 0.000004 1.570793 0.000003 1.570795
    18 -3.890452 0.000004 0.000004 -1.054608 -0.772552 -1.861296
    19 17.848171 0.000000 0.000004 0.000009 0.000000 1.531364
    20 16.525251 0.000000 0.000004 0.081190 0.061439 -0.987527
    21 6.879454 0.000000 0.000008 -0.082418 -0.001348 -0.349189
    22 3.890452 -0.000004 -0.000004 -1.676704 0.158145 -1.487660
    23 17.848175 0.000000 -0.000004 0.000010 0.000000 0.323668
    24 16.525246 0.000000 0.000004 -0.085908 0.072333 -1.290291
    25 6.879452 0.000000 0.000000 -0.004782 -0.002956 -0.856998
    26 3.859703 -0.142403 -1.191975 -0.568926 -0.013610 -1.526889
    27 1.312565 0.000001 0.000004 -0.086569 0.239740 -1.554310
    28 0.729362 0.000002 0.000004 -0.176890 0.315566 -1.429227
    29 3.942326 0.046774 -0.431438 0.030308 -0.060029 -1.757075
    30 1.539093 0.000001 0.000000 -0.058651 0.149388 -1.571890
    31 1.196320 -0.000001 0.000004 -0.107664 0.188367 -1.488369
    32 3.883686 -0.046767 0.431446 0.134430 0.056057 -1.771061
    33 1.719570 0.000002 0.000004 -0.030677 0.057167 -1.750736
    34 1.209183 -0.000001 -0.000004 -0.034252 0.059379 -1.537043
    35 3.859859 -0.137950 1.332462 0.524258 -0.087937 -1.819439
    36 1.719429 0.000002 0.000000 0.072020 -0.125287 -1.808335
    37 1.099670 0.000001 0.000004 0.072020 -0.125295 -0.669563
    38 0.806049 -0.348922 1.321259 -0.786547 -0.413953 -0.991999
    39 1.789787 0.000000 0.000004 0.004363 0.030240 0.718398
    40 1.207001 0.000000 -0.000004 0.102533 0.030242 0.502412
    41 3.859665 -0.132565 1.193108 0.693436 -0.009816 -1.600821
    42 1.312561 0.000000 0.000000 0.110758 -0.297050 -1.436091
    43 0.729366 0.000002 0.000000 0.157644 -0.341690 -1.408420
    44 3.942291 0.050330 0.431042 0.331339 -0.008596 -1.603808
    45 1.539097 0.000003 0.000000 0.050214 -0.153911 -1.591790
    46 1.196320 0.000000 0.000000 0.132537 -0.225779 -1.824896
    47 3.883648 -0.050325 -0.431044 -0.022374 -0.010304 -1.305812
    48 1.719574 -0.000005 0.000000 0.038733 -0.074557 -1.586292
    49 1.209183 -0.000001 0.000000 0.047516 -0.080001 -1.582137
    50 3.859825 -0.148935 -1.331284 -0.549076 -0.024863 -1.454250
    51 1.719425 0.000000 0.000000 -0.002107 0.024342 -1.684730
    52 1.099663 0.000000 0.000000 -0.007967 0.046800 -1.711623
    53 0.806015 -0.359835 -1.318335 1.200555 0.246503 -0.836612
    54 1.789780 0.000001 0.000000 0.046975 0.150711 0.289172
    55 1.207001 0.000000 0.000004 0.215983 -0.000003 0.942472
    56 3.643179 -1.117762 -6.586830 1.677301 0.043048 -2.001890
  time 13
    0 1.610982 -0.335943 36.707486 1.743505 -0.003277 0.110105
    1 -0.124999 3.345128 -2.981903 1.571034 0.102068 1.605270
    2 4.018331 0.000000 0.000000 -0.106760 -0.025395 0.176773
    3 3.518564 0.000000 0.000000 -0.041669 -0.029482 0.252288
    4 8.942642 0.000000 0.000000 -0.053968 -0.060342 0.228094
    5 3.307269 0.000000 -0.000004 3.137477 0.001222 0.577187
    6 3.593710 -0.000001 -0.000004 0.046869 -0.131998 1.097872
    7 1.999994 -3.000001 0.000004 -1.570753 -0.000007 -1.326410
    8 2.033349 1.000771 -1.937607 -1.379170 1.273431 -3.055779
    9 6.028143 0.000002 -0.000004 1.722086 -0.065178 -0.784032
    10 11.692545 0.000000 0.000000 -0.000011 0.000000 -1.954668
    11 11.481701 0.000000 0.000000 -0.859193 0.300029 -0.015306
    12 2.676086 -1.712440 0.000000 -1.570792 0.000005 -1.570792
    13 2.033341 1.000767 1.937660 2.412174 -1.487397 2.120583
    14 6.028140 0.000002 0.000000 -1.391564 -0.204916 -0.987118
    15 11.692553 0.000000 0.000011 -0.000013 0.000000 -1.868004
    16 11.481667 0.000000 -0.000031 1.575391 -0.108951 -0.097558
    17 2.676086 -1.712440 0.000004 1.570793 0.000003 1.570795
    18 -3.890452 0.000004 0.000004 -1.055906 -0.814821 -1.860274
    19 17.848171 0.000000 0.000004 0.000009 0.000000 1.368189
    20 16.525251 0.000000 0.000004 0.032693 0.107404 -1.326910
    21 6.879454 0.000000 0.000008 -0.082610 -0.001743 -0.391321
    22 3.890452 -0.000004 -0.000004 -1.763346 0.228792 -1.449095
    23 17.848175 0.000000 -0.000004 0.000010 0.000000 0.327299
    24 16.525246 0.000000 0.000004 0.025294 0.192640 -0.823211
    25 6.879452 0.000000 0.000000 -0.002601 -0.003004 -1.272196
    26 3.859703 -0.142403 -1.191975 -0.568926 -0.013610 -1.526889
    27 1.312565 0.000001 0.000004 -0.086569 0.239740 -1.554263
    28 0.729362 0.000002 0.000004 -0.176890 0.315566 -1.429227
    29 3.942326 0.046774 -0.431438 0.030308 -0.060029 -1.757075
    30 1.539093 0.000001 0.000000 -0.058663 0.149388 -1.571890
    31 1.196320 -0.000001 0.000004 -0.107664 0.188367 -1.488369
    32 3.883686 -0.046767 0.431446 0.134430 0.056057 -1.771061
    33 1.719570 0.000002 0.000004 -0.030677 0.057167 -1.750736
    34 1.209183 -0.000001 -0.000004 -0.034252 0.059379 -1.537043
    35 3.859859 -0.137950 1.332462 0.524258 -0.087937 -1.819439
    36 1.719429 0.000002 0.000000 0.072020 -0.125287 -1.808335
    37 1.099670 0.000001 0.000004 0.072020 -0.125295 -0.669563
    38 0.806049 -0.348922 1.321259 -0.786547 -0.413953 -0.991999
    39 1.789787 0.000000 0.000004 0.004363 0.030240 0.718398
    40 1.207001 0.000000 -0.000004 0.102533 0.030242 0.502412
    41 3.859665 -0.132565 1.193108 0.693436 -0.009816 -1.600821
    42 1.312561 0.000000 0.000000 0.110758 -0.297050 -1.436091
    43 0.729366 0.000002 0.000000 0.157644 -0.341690 -1.408420
    44 3.942291 0.050330 0.431042 0.331339 -0.008608 -1.603808
    45 1.539097 0.000003 0.000000 0.050214 -0.153911 -1.591790
    46 1.196320 0.000000 0.000000 0.132537 -0.225779 -1.824896
    47 3.883648 -0.050325 -0.431044 -0.022374 -0.010304 -1.305812
    48 1.719574 -0.000005 0.000000 0.038733 -0.074557 -1.586292
    49 1.209183 -0.000001 0.000000 0.047516 -0.080001 -1.582137
    50 3.859825 -0.148935 -1.331284 -0.549076 -0.024863 -1.454250
    51 1.719425 0.000000 0.000000 -0.002107 0.024342 -1.684730
    52 1.099663 0.000000 0.000000 -0.007967 0.046800 -1.711623
    53 0.806015 -0.359835 -1.318335 1.200555 0.246503 -0.836612
    54 1.789780 0.000001 0.000000 0.046975 0.150711 0.289172
    55 1.207001 0.000000 0.000004 0.215983 -0.000003 0.942472
    56 3.643179 -1.117762 -6.586830 1.677301 0.043048 -2.001890
  time 14
    0 1.610982 -0.335943 37.586419 1.754559 -0.002822 0.095039
    1 -0.124999 3.345128 -2.981903 1.569378 0.102068 1.601510
    2 4.018331 0.000000 0.000000 -0.107657 -0.022759 0.171128
    3 3.518564 0.000000 0.000000 -0.043658 -0.028607 0.240339
    4 8.942642 0.000000 0.000000 -0.061766 -0.063147 0.231382
    5 3.307269 0.000000 -0.000004 3.137477 0.001222 0.577187
    6 3.593710 -0.000001 -0.000004 0.074227 -0.123046 1.096183
    7 1.999994 -3.000001 0.000004 -1.570753 -0.000007 -1.326410
    8 2.033349 1.000771 -1.937607 -1.376943 1.273310 -3.053583
    9 6.028143 0.000002 -0.000004 1.697916 -0.135850 -0.771875
    10 11.692545 0.000000 0.000000 -0.000011 0.000000 -1.970256
    11 11.481701 0.000000 0.000000 -0.861675 0.338867 -0.015845
    12 2.676086 -1.712440 0.000000 -1.570792 0.000005 -1.570792
    13 2.033341 1.000767 1.937660 2.412174 -1.487397 2.120583
    14 6.028140 0.000002 0.000000 -1.403256 -0.329983 -1.018574
    15 11.692553 0.000000 0.000011 -0.000013 0.000000 -1.826322
    16 11.481667 0.000000 -0.000031 1.575391 -0.108951 -0.097558
    17 2.676086 -1.712440 0.000004 1.570793 0.000003 1.570795
    18 -3.890452 0.000004 0.000004 -1.103110 -0.798478 -1.795899
    19 17.848171 0.000000 0.000004 0.000009 0.000000 1.107168
    20 16.525251 0.000000 0.000004 -0.034244 0.121034 -1.578067
    21 6.879454 0.000000 0.000008 -0.082754 -0.002175 -0.433415
    22 3.890452 -0.000004 -0.000004 -1.809033 0.176701 -1.421117
    23 17.848175 0.000000 -0.000004 0.000010 0.000000 0.431474
    24 16.525246 0.000000 0.000004 0.182821 0.155587 -0.354986
    25 6.879452 0.000000 0.000000 -0.002661 -0.003028 -1.264993
    26 3.859703 -0.142403 -1.191975 -0.568926 -0.013610 -1.526889
    27 1.312565 0.000001 0.000004 -0.086569 0.239740 -1.554263
    28 0.729362 0.000002 0.000004 -0.176890 0.315566 -1.429227
    29 3.942326 0.046774 -0.431438 0.030308 -0.060029 -1.757075
    30 1.539093 0.000001 0.000000 -0.058651 0.149388 -1.571890
    31 1.196320 -0.000001 0.000004 -0.107664 0.188367 -1.488369
    32 3.883686 -0.046767 0.431446 0.134430 0.056057 -1.771061
    33 1.719570 0.000002 0.000004 -0.030677 0.057167 -1.750736
    34 1.209183 -0.000001 -0.000004 -0.034252 0.059379 -1.537043
    35 3.859859 -0.137950 1.332462 0.524258 -0.087937 -1.819439
    36 1.719429 0.000002 0.000000 0.072020 -0.125287 -1.808335
    37 1.099670 0.000001 0.000004 0.072020 -0.125295 -0.669563
    38 0.806049 -0.348922 1.321259 -0.786547 -0.413953 -0.991999
    39 1.789787 0.000000 0.000004 0.004363 0.030240 0.718398
    40 1.207001 0.000000 -0.000004 0.102533 0.030242 0.502412
    41 3.859665 -0.132565 1.193108 0.693436 -0.009816 -1.600821
    42 1.312561 0.000000 0.000000 0.110758 -0.297050 -1.436091
    43 0.729366 0.000002 0.000000 0.157644 -0.341690 -1.408420
    44 3.942291 0.050330 0.431042 0.331339 -0.008608 -1.603808
    45 1.539097 0.000003 0.000000 0.050214 -0.153911 -1.591790
    46 1.196320 0.000000 0.000000 0.132537 -0.225779 -1.824896
    47 3.883648 -0.050325 -0.431044 -0.022374 -0.010304 -1.305812
    48 1.719574 -0.000005 0.000000 0.038733 -0.074557 -1.586292
    49 1.209183 -0.000001 0.000000 0.047516 -0.080001 -1.582137
    50 3.859825 -0.148935 -1.331284 -0.549076 -0.024863 -1.454250
    51 1.719425 0.000000 0.000000 -0.002107 0.024342 -1.684730
    52 1.099663 0.000000 0.000000 -0.007967 0.046800 -1.711623
    53 0.806015 -0.359835 -1.318335 1.200555 0.246503 -0.836612
    54 1.789780 0.000001 0.000000 0.046975 0.150711 0.289172
    55 1.207001 0.000000 0.000004 0.215983 -0.000003 0.942472
    56 3.643179 -1.117762 -6.586830 1.677301 0.043048 -2.001890
  time 15
    0 1.610982 -0.335943 38.207531 1.766920 0.000258 0.075733
    1 -0.124999 3.345128 -2.981903 1.567966 0.102068 1.598294
    2 4.018331 0.000000 0.000000 -0.105750 -0.015916 0.165399
    3 3.518564 0.000000 0.000000 -0.043850 -0.026342 0.226533
    4 8.942642 0.000000 0.000000 -0.064340 -0.068372 0.235901
    5 3.307269 0.000000 -0.000004 3.137477 0.001222 0.577187
    6 3.593710 -0.000001 -0.000004 0.097171 -0.109839 1.094283
    7 1.999994 -3.000001 0.000004 -1.570753 -0.000007 -1.326410
    8 2.033349 1.000771 -1.937607 -1.375274 1.273230 -3.051674
    9 6.028143 0.000002 -0.000004 1.677238 -0.174245 -0.753039
    10 11.692545 0.000000 0.000000 -0.000011 0.000000 -1.981766
    11 11.481701 0.000000 0.000000 -0.863617 0.369723 -0.016336
    12 2.676086 -1.712440 0.000000 -1.570792 0.000005 -1.570792
    13 2.033341 1.000767 1.937660 2.412174 -1.487397 2.120583
    14 6.028140 0.000002 0.000000 -1.400626 -0.418016 -1.063688
    15 11.692553 0.000000 0.000011 -0.000013 0.000000 -1.786318
    16 11.481667 0.000000 -0.000031 1.575391 -0.108951 -0.097558
    17 2.676086 -1.712440 0.000004 1.570793 0.000003 1.570795
    18 -3.890452 0.000004 0.000004 -1.174211 -0.736044 -1.700903
    19 17.848171 0.000000 0.000004 0.000009 0.000000 0.791134
    20 16.525251 0.000000 0.000004 -0.085269 0.112757 -1.642113
    21 6.879454 0.000000 0.000008 -0.082814 -0.002570 -0.474217
    22 3.890452 -0.000004 -0.000004 -1.815805 0.149813 -1.431978
    23 17.848175 0.000000 -0.000004 0.000010 0.000000 0.494142
    24 16.525246 0.000000 0.000004 0.205339 0.097360 -0.296020
    25 6.879452 0.000000 0.000000 -0.003236 -0.002740 -1.107961
    26 3.859703 -0.142403 -1.191975 -0.568926 -0.013610 -1.526889
    27 1.312565 0.000001 0.000004 -0.086569 0.239740 -1.554263
    28 0.729362 0.000002 0.000004 -0.176890 0.315566 -1.429227
    29 3.942326 0.046774 -0.431438 0.030308 -0.060029 -1.757075
    30 1.539093 0.000001 0.000000 -0.058663 0.149388 -1.571890
    31 1.196320 -0.000001 0.000004 -0.107664 0.188367 -1.488369
    32 3.883686 -0.046767 0.431446 0.134430 0.056057 -1.771061
    33 1.719570 0.000002 0.000004 -0.030677 0.057167 -1.750736
    34 1.209183 -0.000001 -0.000004 -0.034252 0.059379 -1.537043
    35 3.859859 -0.137950 1.332462 0.524258 -0.087937 -1.819439
    36 1.719429 0.000002 0.000000 0.072020 -0.125287 -1.808335
    37 1.099670 0.000001 0.000004 0.072020 -0.125295 -0.669563
    38 0.806049 -0.348922 1.321259 -0.786547 -0.413953 -0.991999
    39 1.789787 0.000000 0.000004 0.004363 0.030240 0.718398
    40 1.207001 0.000000 -0.000004 0.102533 0.030242 0.502412
    41 3.859665 -0.132565 1.193108 0.693436 -0.009816 -1.600821
    42 1.312561 0.000000 0.000000 0.110758 -0.297050 -1.436091
    43 0.729366 0.000002 0.000000 0.157644 -0.341690 -1.408420
    44 3.942291 0.050330 0.431042 0.331339 -0.008608 -1.603808
    45 1.539097 0.000003 0.000000 0.050214 -0.153911 -1.591790
    46 1.196320 0.000000 0.000000 0.132537 -0.225779 -1.824896
    47 3.883648 -0.050325 -0.431044 -0.022374 -0.010304 -1.305812
    48 1.719574 -0.000005 0.000000 0.038733 -0.074557 -1.586292
    49 1.209183 -0.000001 0.000000 0.047516 -0.080001 -1.582137
    50 3.859825 -0.148935 -1.331284 -0.549076 -0.024863 -1.454250
    51 1.719425 0.000000 0.000000 -0.002107 0.024342 -1.684730
    52 1.099663 0.000000 0.000000 -0.007967 0.046800 -1.711623
    53 0.806015 -0.359835 -1.318335 1.200555 0.246503 -0.836612
    54 1.789780 0.000001 0.000000 0.046975 0.150711 0.289172
    55 1.207001 0.000000 0.000004 0.215983 -0.000003 0.942472
    56 3.643179 -1.117762 -6.586830 1.677301 0.043048 -2.001890
  time 16
    0 1.610982 -0.335943 38.316910 1.777648 0.005124 0.053777
    1 -0.124999 3.345128 -2.981903 1.567236 0.102056 1.596365
    2 4.018331 0.000000 0.000000 -0.101394 -0.005309 0.160078
    3 3.518564 0.000000 0.000000 -0.042148 -0.022603 0.214249
    4 8.942642 0.000000 0.000000 -0.062251 -0.075395 0.240373
    5 3.307269 0.000000 -0.000004 3.137477 0.001222 0.577187
    6 3.593710 -0.000001 -0.000004 0.112666 -0.093180 1.092207
    7 1.999994 -3.000001 0.000004 -1.570753 -0.000007 -1.326450
    8 2.033349 1.000771 -1.937607 -1.374253 1.273150 -3.050623
    9 6.028143 0.000002 -0.000004 1.661431 -0.176338 -0.729221
    10 11.692545 0.000000 0.000000 -0.000011 0.000000 -1.995447
    11 11.481701 0.000000 0.000000 -0.864750 0.386640 -0.016630
    12 2.676086 -1.712440 0.000000 -1.570792 0.000005 -1.570792
    13 2.033341 1.000767 1.937660 2.412174 -1.487397 2.120583
    14 6.028140 0.000002 0.000000 -1.396299 -0.458052 -1.101817
    15 11.692553 0.000000 0.000011 -0.000013 0.000000 -1.768904
    16 11.481667 0.000000 -0.000031 1.575452 -0.108951 -0.097558
    17 2.676086 -1.712440 0.000004 1.570793 0.000003 1.570795
    18 -3.890452 0.000004 0.000004 -1.247554 -0.640124 -1.603158
    19 17.848171 0.000000 0.000004 0.000009 0.000000 0.455515
    20 16.525251 0.000000 0.000004 -0.119021 0.104640 -1.565801
    21 6.879454 0.000000 0.000008 -0.082742 -0.002894 -0.512360
    22 3.890452 -0.000004 -0.000004 -1.830735 0.018196 -1.407024
    23 17.848175 0.000000 -0.000004 0.000010 0.000000 0.819876
    24 16.525246 0.000000 0.000004 0.213875 0.060380 -0.469419
    25 6.879452 0.000000 0.000000 -0.004602 -0.001506 -0.656334
    26 3.859703 -0.142403 -1.191975 -0.568926 -0.013610 -1.526889
    27 1.312565 0.000001 0.000004 -0.086569 0.239740 -1.554263
    28 0.729362 0.000002 0.000004 -0.176890 0.315566 -1.429270
    29 3.942326 0.046774 -0.431438 0.030308 -0.060029 -1.757075
    30 1.539093 0.000001 0.000000 -0.058651 0.149388 -1.571890
    31 1.196320 -0.000001 0.000004 -0.107664 0.188367 -1.488369
    32 3.883686 -0.046767 0.431446 0.134430 0.056057 -1.771061
    33 1.719570 0.000002 0.000004 -0.030677 0.057167 -1.750736
    34 1.209183 -0.000001 -0.000004 -0.034252 0.059379 -1.537043
    35 3.859859 -0.137950 1.332462 0.524258 -0.087937 -1.819439
    36 1.719429 0.000002 0.000000 0.072020 -0.125287 -1.808335
    37 1.099670 0.000001 0.000004 0.072020 -0.125295 -0.669563
    38 0.806049 -0.348922 1.321259 -0.786547 -0.413953 -0.991999
    39 1.789787 0.000000 0.000004 0.004363 0.030240 0.718398
    40 1.207001 0.000000 -0.000004 0.102533 0.030242 0.502412
    41 3.859665 -0.132565 1.193108 0.693436 -0.009816 -1.600821
    42 1.312561 0.000000 0.000000 0.110758 -0.297050 -1.436134
    43 0.729366 0.000002 0.000000 0.157644 -0.341690 -1.408420
    44 3.942291 0.050330 0.431042 0.331339 -0.008608 -1.603808
    45 1.539097 0.000003 0.000000 0.050214 -0.153911 -1.591790
    46 1.196320 0.000000 0.000000 0.132537 -0.225779 -1.824896
    47 3.883648 -0.050325 -0.431044 -0.022374 -0.010304 -1.305812
    48 1.719574 -0.000005 0.000000 0.038733 -0.074557 -1.586292
    49 1.209183 -0.000001 0.000000 0.047516 -0.080001 -1.582137
    50 3.859825 -0.148935 -1.331284 -0.549076 -0.024863 -1.454250
    51 1.719425 0.000000 0.000000 -0.002107 0.024342 -1.684730
    52 1.099663 0.000000 0.000000 -0.007967 0.046800 -1.711623
    53 0.806015 -0.359835 -1.318335 1.200555 0.246503 -0.836612
    54 1.789780 0.000001 0.000000 0.046975 0.150711 0.289172
    55 1.207001 0.000000 0.000004 0.215983 -0.000003 0.942472
    56 3.643179 -1.117762 -6.586830 1.677301 0.043048 -2.001890
  time 17
    0 1.610982 -0.335943 37.816895 1.783855 0.011164 0.030913
    1 -0.124999 3.345128 -2.981903 1.567382 0.102068 1.596563
    2 4.018331 0.000000 0.000000 -0.095075 0.008114 0.155620
    3 3.518564 0.000000 0.000000 -0.038625 -0.017210 0.204996
    4 8.942642 0.000000 0.000000 -0.056249 -0.083461 0.243569
    5 3.307269 0.000000 -0.000004 3.137477 0.001222 0.577187
    6 3.593710 -0.000001 -0.000004 0.114045 -0.073573 1.089849
    7 1.999994 -3.000001 0.000004 -1.570753 -0.000007 -1.326410
    8 2.033349 1.000771 -1.937607 -1.374068 1.273150 -3.050433
    9 6.028143 0.000002 -0.000004 1.650311 -0.141098 -0.702434
    10 11.692545 0.000000 0.000000 -0.000011 0.000000 -2.008798
    11 11.481701 0.000000 0.000000 -0.864642 0.385689 -0.016630
    12 2.676086 -1.712440 0.000000 -1.570792 0.000005 -1.570792
    13 2.033341 1.000767 1.937660 2.412174 -1.487397 2.120583
    14 6.028140 0.000002 0.000000 -1.401386 -0.421625 -1.110676
    15 11.692553 0.000000 0.000011 -0.000013 0.000000 -1.792542
    16 11.481667 0.000000 -0.000031 1.575391 -0.108951 -0.097558
    17 2.676086 -1.712440 0.000004 1.570793 0.000003 1.570795
    18 -3.890452 0.000004 0.000004 -1.299360 -0.592493 -1.539998
    19 17.848171 0.000000 0.000004 0.000009 0.000000 0.235681
    20 16.525251 0.000000 0.000004 -0.122681 0.128478 -1.272818
    21 6.879454 0.000000 0.000008 -0.081963 -0.002750 -0.546552
    22 3.890452 -0.000004 -0.000004 -1.840606 -0.083294 -1.393482
    23 17.848175 0.000000 -0.000004 0.000010 0.000000 1.079311
    24 16.525246 0.000000 0.000004 0.205032 0.033220 -0.673688
    25 6.879452 0.000000 0.000000 -0.004566 -0.001721 -0.703300
    26 3.859703 -0.142403 -1.191975 -0.568926 -0.013610 -1.526889
    27 1.312565 0.000001 0.000004 -0.086569 0.239740 -1.554263
    28 0.729362 0.000002 0.000004 -0.176890 0.315566 -1.429270
    29 3.942326 0.046774 -0.431438 0.030308 -0.060029 -1.757075
    30 1.539093 0.000001 0.000000 -0.058651 0.149388 -1.571890
    31 1.196320 -0.000001 0.000004 -0.107664 0.188367 -1.488369
    32 3.883686 -0.046767 0.431446 0.134430 0.056057 -1.771061
    33 1.719570 0.000002 0.000004 -0.030677 0.057167 -1.750736
    34 1.209183 -0.000001 -0.000004 -0.034252 0.059379 -1.537043
    35 3.859859 -0.137950 1.332462 0.524258 -0.087937 -1.819439
    36 1.719429 0.000002 0.000000 0.072020 -0.125287 -1.808335
    37 1.099670 0.000001 0.000004 0.072020 -0.125295 -0.669563
    38 0.806049 -0.348922 1.321259 -0.786547 -0.413953 -0.991999
    39 1.789787 0.000000 0.000004 0.004363 0.030240 0.718398
    40 1.207001 0.000000 -0.000004 0.102533 0.030242 0.502412
    41 3.859665 -0.132565 1.193108 0.693436 -0.009816 -1.600821
    42 1.312561 0.000000 0.000000 0.110758 -0.297050 -1.436091
    43 0.729366 0.000002 0.000000 0.157644 -0.341690 -1.408420
    44 3.942291 0.050330 0.431042 0.331339 -0.008608 -1.603808
    45 1.539097 0.000003 0.000000 0.050214 -0.153911 -1.591790
    46 1.196320 0.000000 0.000000 0.132537 -0.225779 -1.824896
    47 3.883648 -0.050325 -0.431044 -0.022374 -0.010304 -1.305812
    48 1.719574 -0.000005 0.000000 0.038733 -0.074557 -1.586292
    49 1.209183 -0.000001 0.000000 0.047516 -0.080001 -1.582137
    50 3.859825 -0.148935 -1.331284 -0.549076 -0.024863 -1.454250
    51 1.719425 0.000000 0.000000 -0.002107 0.024342 -1.684730
    52 1.099663 0.000000 0.000000 -0.007967 0.046800 -1.711623
    53 0.806015 -0.359835 -1.318335 1.200555 0.246503 -0.836612
    54 1.789780 0.000001 0.000000 0.046975 0.150711 0.289172
    55 1.207001 0.000000 0.000004 0.215983 -0.000003 0.942472
    56 3.643179 -1.117762 -6.586830 1.677301 0.043048 -2.001890
  time 18
    0 1.610982 -0.335943 36.914523 1.778791 0.017876 0.007897
    1 -0.124999 3.345128 -2.981903 1.568161 0.102068 1.598443
    2 4.018331 0.000000 0.000000 -0.087297 0.022939 0.157358
    3 3.518564 0.000000 0.000000 -0.033376 -0.009779 0.206782
    4 8.942642 0.000000 0.000000 -0.047087 -0.091850 0.245029
    5 3.307269 0.000000 -0.000004 3.137477 0.001222 0.577187
    6 3.593710 -0.000001 -0.000004 0.102320 -0.052792 1.087386
    7 1.999994 -3.000001 0.000004 -1.570753 -0.000007 -1.326410
    8 2.033349 1.000771 -1.937607 -1.374810 1.273190 -3.051196
    9 6.028143 0.000002 -0.000004 1.648473 -0.068090 -0.674339
    10 11.692545 0.000000 0.000000 -0.000011 0.000000 -2.011824
    11 11.481701 0.000000 0.000000 -0.863779 0.371655 -0.016385
    12 2.676086 -1.712440 0.000000 -1.570792 0.000005 -1.570792
    13 2.033341 1.000767 1.937660 2.412174 -1.487397 2.120583
    14 6.028140 0.000002 0.000000 -1.399398 -0.320944 -1.121369
    15 11.692553 0.000000 0.000011 -0.000013 0.000000 -1.839190
    16 11.481667 0.000000 -0.000031 1.575391 -0.108951 -0.097558
    17 2.676086 -1.712440 0.000004 1.570793 0.000003 1.570795
    18 -3.890452 0.000004 0.000004 -1.309981 -0.671356 -1.553998
    19 17.848171 0.000000 0.000004 0.000009 0.000000 0.516659
    20 16.525251 0.000000 0.000004 -0.087851 0.152097 -1.235366
    21 6.879454 0.000000 0.000008 -0.081088 -0.002714 -0.608933
    22 3.890452 -0.000004 -0.000004 -1.814663 -0.209483 -1.412111
    23 17.848175 0.000000 -0.000004 0.000010 0.000000 1.280712
    24 16.525246 0.000000 0.000004 0.150639 -0.008932 -0.839791
    25 6.879452 0.000000 0.000000 -0.004590 -0.002380 -0.806739
    26 3.859703 -0.142403 -1.191975 -0.568926 -0.013610 -1.526889
    27 1.312565 0.000001 0.000004 -0.086569 0.239740 -1.554310
    28 0.729362 0.000002 0.000004 -0.176890 0.315566 -1.429227
    29 3.942326 0.046774 -0.431438 0.030308 -0.060029 -1.757075
    30 1.539093 0.000001 0.000000 -0.058651 0.149388 -1.571938
    31 1.196320 -0.000001 0.000004 -0.107664 0.188367 -1.488369
    32 3.883686 -0.046767 0.431446 0.134430 0.056057 -1.771061
    33 1.719570 0.000002 0.000004 -0.030677 0.057167 -1.750736
    34 1.209183 -0.000001 -0.000004 -0.034252 0.059379 -1.537043
    35 3.859859 -0.137950 1.332462 0.524258 -0.087937 -1.819439
    36 1.719429 0.000002 0.000000 0.072020 -0.125287 -1.808335
    37 1.099670 0.000001 0.000004 0.072020 -0.125295 -0.669563
    38 0.806049 -0.348922 1.321259 -0.786547 -0.413953 -0.991999
    39 1.789787 0.000000 0.000004 0.004363 0.030240 0.718398
    40 1.207001 0.000000 -0.000004 0.102533 0.030242 0.502412
    41 3.859665 -0.132565 1.193108 0.693436 -0.009816 -1.600821
    42 1.312561 0.000000 0.000000 0.110758 -0.297050 -1.436091
    43 0.729366 0.000002 0.000000 0.157644 -0.341690 -1.408420
    44 3.942291 0.050330 0.431042 0.331339 -0.008608 -1.603808
    45 1.539097 0.000003 0.000000 0.050214 -0.153911 -1.591790
    46 1.196320 0.000000 0.000000 0.132537 -0.225779 -1.824896
    47 3.883648 -0.050325 -0.431044 -0.022374 -0.010304 -1.305812
    48 1.719574 -0.000005 0.000000 0.038733 -0.074557 -1.586292
    49 1.209183 -0.000001 0.000000 0.047516 -0.080001 -1.582137
    50 3.859825 -0.148935 -1.331284 -0.549076 -0.024863 -1.454250
    51 1.719425 0.000000 0.000000 -0.002107 0.024342 -1.684730
    52 1.099663 0.000000 0.000000 -0.007967 0.046800 -1.711675
    53 0.806015 -0.359835 -1.318335 1.200555 0.246503 -0.836612
    54 1.789780 0.000001 0.000000 0.046975 0.150711 0.289172
    55 1.207001 0.000000 0.000004 0.215983 -0.000003 0.942472
    56 3.643179 -1.117762 -6.586830 1.677301 0.043048 -2.001890
  time 19
    0 1.610982 -0.335943 36.141062 1.763599 0.024827 -0.012999
    1 -0.124999 3.345128 -2.981903 1.569671 0.102068 1.601757
    2 4.018331 0.000000 0.000000 -0.078547 0.037368 0.163638
    3 3.518564 0.000000 0.000000 -0.026592 -0.001606 0.223081
    4 8.942642 0.000000 0.000000 -0.035503 -0.099844 0.245444
    5 3.307269 0.000000 -0.000004 3.137477 0.001222 0.577187
    6 3.593710 -0.000001 -0.000004 0.084756 -0.034000 1.085134
    7 1.999994 -3.000001 0.000004 -1.570753 -0.000007 -1.326410
    8 2.033349 1.000771 -1.937607 -1.376665 1.273310 -3.053297
    9 6.028143 0.000002 -0.000004 1.659226 0.035746 -0.646881
    10 11.692545 0.000000 0.000000 -0.000011 0.000000 -1.997617
    11 11.481701 0.000000 0.000000 -0.862538 0.351951 -0.016042
    12 2.676086 -1.712440 0.000000 -1.570792 0.000005 -1.570792
    13 2.033341 1.000767 1.937660 2.412174 -1.487397 2.120583
    14 6.028140 0.000002 0.000000 -1.390044 -0.183229 -1.126560
    15 11.692553 0.000000 0.000011 -0.000013 0.000000 -1.882620
    16 11.481667 0.000000 -0.000031 1.575391 -0.108951 -0.097558
    17 2.676086 -1.712440 0.000004 1.570793 0.000003 1.570795
    18 -3.890452 0.000004 0.000004 -1.327919 -0.602532 -1.562820
    19 17.848171 0.000000 0.000004 0.000009 0.000000 0.778202
    20 16.525251 0.000000 0.000004 -0.047982 0.135864 -1.460281
    21 6.879454 0.000000 0.000008 -0.081160 -0.002834 -0.617785
    22 3.890452 -0.000004 -0.000004 -1.789943 -0.347118 -1.431978
    23 17.848175 0.000000 -0.000004 0.000010 0.000000 1.466398
    24 16.525246 0.000000 0.000004 0.104343 -0.052729 -0.995645
    25 6.879452 0.000000 0.000000 -0.005537 -0.002464 -0.692515
    26 3.859703 -0.142403 -1.191975 -0.568926 -0.013610 -1.526889
    27 1.312565 0.000001 0.000004 -0.086569 0.239740 -1.554263
    28 0.729362 0.000002 0.000004 -0.176890 0.315566 -1.429227
    29 3.942326 0.046774 -0.431438 0.030308 -0.060029 -1.757075
    30 1.539093 0.000001 0.000000 -0.058651 0.149388 -1.571890
    31 1.196320 -0.000001 0.000004 -0.107664 0.188367 -1.488369
    32 3.883686 -0.046767 0.431446 0.134430 0.056057 -1.771061
    33 1.719570 0.000002 0.000004 -0.030677 0.057167 -1.750736
    34 1.209183 -0.000001 -0.000004 -0.034252 0.059379 -1.537043
    35 3.859859 -0.137950 1.332462 0.524258 -0.087937 -1.819439
    36 1.719429 0.000002 0.000000 0.072020 -0.125287 -1.808335
    37 1.099670 0.000001 0.000004 0.072020 -0.125295 -0.669563
    38 0.806049 -0.348922 1.321259 -0.786547 -0.413953 -0.991999
    39 1.789787 0.000000 0.000004 0.004363 0.030240 0.718398
    40 1.207001 0.000000 -0.000004 0.102533 0.030242 0.502412
    41 3.859665 -0.132565 1.193108 0.693436 -0.009816 -1.600821
    42 1.312561 0.000000 0.000000 0.110758 -0.297050 -1.436091
    43 0.729366 0.000002 0.000000 0.157644 -0.341690 -1.408420
    44 3.942291 0.050330 0.431042 0.331339 -0.008608 -1.603808
    45 1.539097 0.000003 0.000000 0.050214 -0.153911 -1.591790
    46 1.196320 0.000000 0.000000 0.132537 -0.225779 -1.824896
    47 3.883648 -0.050325 -0.431044 -0.022374 -0.010304 -1.305812
    48 1.719574 -0.000005 0.000000 0.038733 -0.074557 -1.586292
    49 1.209183 -0.000001 0.000000 0.047516 -0.080001 -1.582137
    50 3.859825 -0.148935 -1.331284 -0.549076 -0.024863 -1.454250
    51 1.719425 0.000000 0.000000 -0.002107 0.024342 -1.684730
    52 1.099663 0.000000 0.000000 -0.007967 0.046800 -1.711623
    53 0.806015 -0.359835 -1.318335 1.200555 0.246503 -0.836612
    54 1.789780 0.000001 0.000000 0.046975 0.150711 0.289172
    55 1.207001 0.000000 0.000004 0.215983 -0.000003 0.942472
    56 3.643179 -1.117762 -6.586830 1.677301 0.043048 -2.001890
  time 20
    0 1.610982 -0.335943 35.711362 1.747589 0.031598 -0.027081
    1 -0.124999 3.345128 -2.981903 1.571326 0.102068 1.605814
    2 4.018331 0.000000 0.000000 -0.069368 0.049472 0.171835
    3 3.518564 0.000000 0.000000 -0.018551 0.005513 0.244689
    4 8.942642 0.000000 0.000000 -0.022417 -0.106675 0.245337
    5 3.307269 0.000000 -0.000004 3.137477 0.001222 0.577187
    6 3.593710 -0.000001 -0.000004 0.068755 -0.020386 1.083550
    7 1.999994 -3.000001 0.000004 -1.570753 -0.000007 -1.326410
    8 2.033349 1.000771 -1.937607 -1.379819 1.273471 -3.056542
    9 6.028143 0.000002 -0.000004 1.682752 0.156444 -0.622886
    10 11.692545 0.000000 0.000000 -0.000011 0.000000 -1.962166
    11 11.481701 0.000000 0.000000 -0.860973 0.328350 -0.015649
    12 2.676086 -1.712440 0.000000 -1.570792 0.000005 -1.570792
    13 2.033341 1.000767 1.937660 2.412174 -1.487397 2.120583
    14 6.028140 0.000002 0.000000 -1.369876 -0.032764 -1.119301
    15 11.692553 0.000000 0.000011 -0.000013 0.000000 -1.897727
    16 11.481667 0.000000 -0.000031 1.575391 -0.108951 -0.097558
    17 2.676086 -1.712440 0.000004 1.570793 0.000003 1.570795
    18 -3.890452 0.000004 0.000004 -1.348335 -0.383740 -1.552144
    19 17.848171 0.000000 0.000004 0.000009 0.000000 0.769980
    20 16.525251 0.000000 0.000004 -0.005196 0.105342 -1.590082
    21 6.879454 0.000000 0.000008 -0.081328 -0.002906 -0.612010
    22 3.890452 -0.000004 -0.000004 -1.770607 -0.478735 -1.448477
    23 17.848175 0.000000 -0.000004 0.000010 0.000000 1.574079
    24 16.525246 0.000000 0.000004 0.077007 -0.091662 -1.085239
    25 6.879452 0.000000 0.000000 -0.007047 -0.002716 -0.576522
    26 3.859703 -0.142403 -1.191975 -0.568926 -0.013610 -1.526889
    27 1.312565 0.000001 0.000004 -0.086569 0.239740 -1.554310
    28 0.729362 0.000002 0.000004 -0.176890 0.315566 -1.429227
    29 3.942326 0.046774 -0.431438 0.030308 -0.060029 -1.757075
    30 1.539093 0.000001 0.000000 -0.058663 0.149388 -1.571890
    31 1.196320 -0.000001 0.000004 -0.107664 0.188367 -1.488369
    32 3.883686 -0.046767 0.431446 0.134430 0.056057 -1.771061
    33 1.719570 0.000002 0.000004 -0.030677 0.057167 -1.750736
    34 1.209183 -0.000001 -0.000004 -0.034252 0.059379 -1.537043
    35 3.859859 -0.137950 1.332462 0.524258 -0.087937 -1.819439
    36 1.719429 0.000002 0.000000 0.072020 -0.125287 -1.808335
    37 1.099670 0.000001 0.000004 0.072020 -0.125295 -0.669563
    38 0.806049 -0.348922 1.321259 -0.786547 -0.413953 -0.991999
    39 1.789787 0.000000 0.000004 0.004363 0.030240 0.718398
    40 1.207001 0.000000 -0.000004 0.102533 0.030242 0.502412
    41 3.859665 -0.132565 1.193108 0.693436 -0.009816 -1.600821
    42 1.312561 0.000000 0.000000 0.110758 -0.297050 -1.436091
    43 0.729366 0.000002 0.000000 0.157644 -0.341690 -1.408420
    44 3.942291 0.050330 0.431042 0.331339 -0.008608 -1.603808
    45 1.539097 0.000003 0.000000 0.050214 -0.153911 -1.591790
    46 1.196320 0.000000 0.000000 0.132537 -0.225779 -1.824896
    47 3.883648 -0.050325 -0.431044 -0.022374 -0.010304 -1.305812
    48 1.719574 -0.000005 0.000000 0.038733 -0.074557 -1.586292
    49 1.209183 -0.000001 0.000000 0.047516 -0.080001 -1.582137
    50 3.859825 -0.148935 -1.331284 -0.549076 -0.024863 -1.454250
    51 1.719425 0.000000 0.000000 -0.002107 0.024342 -1.684730
    52 1.099663 0.000000 0.000000 -0.007967 0.046800 -1.711623
    53 0.806015 -0.359835 -1.318335 1.200555 0.246503 -0.836612
    54 1.789780 0.000001 0.000000 0.046975 0.150711 0.289172
    55 1.207001 0.000000 0.000004 0.215983 -0.000003 0.942472
    56 3.643179 -1.117762 -6.586830 1.677301 0.043060 -2.001890
end
