// Created by Crowbar 0.71
version 1
nodes
  0 "ValveBiped.Bip01_Pelvis" -1
  1 "ValveBiped.Bip01_Spine" 0
  2 "ValveBiped.Bip01_Spine1" 1
  3 "ValveBiped.Bip01_Spine2" 2
  4 "ValveBiped.Bip01_Spine4" 3
  5 "ValveBiped.Bip01_Neck1" 4
  6 "ValveBiped.Bip01_Head1" 5
  7 "ValveBiped.forward" 6
  8 "ValveBiped.Bip01_R_Clavicle" 4
  9 "ValveBiped.Bip01_R_UpperArm" 8
  10 "ValveBiped.Bip01_R_Forearm" 9
  11 "ValveBiped.Bip01_R_Hand" 10
  12 "ValveBiped.Anim_Attachment_RH" 11
  13 "ValveBiped.Bip01_L_Clavicle" 4
  14 "ValveBiped.Bip01_L_UpperArm" 13
  15 "ValveBiped.Bip01_L_Forearm" 14
  16 "ValveBiped.Bip01_L_Hand" 15
  17 "ValveBiped.Anim_Attachment_LH" 16
  18 "ValveBiped.Bip01_R_Thigh" 0
  19 "ValveBiped.Bip01_R_Calf" 18
  20 "ValveBiped.Bip01_R_Foot" 19
  21 "ValveBiped.Bip01_R_Toe0" 20
  22 "ValveBiped.Bip01_L_Thigh" 0
  23 "ValveBiped.Bip01_L_Calf" 22
  24 "ValveBiped.Bip01_L_Foot" 23
  25 "ValveBiped.Bip01_L_Toe0" 24
  26 "ValveBiped.Bip01_L_Finger4" 16
  27 "ValveBiped.Bip01_L_Finger41" 26
  28 "ValveBiped.Bip01_L_Finger42" 27
  29 "ValveBiped.Bip01_L_Finger3" 16
  30 "ValveBiped.Bip01_L_Finger31" 29
  31 "ValveBiped.Bip01_L_Finger32" 30
  32 "ValveBiped.Bip01_L_Finger2" 16
  33 "ValveBiped.Bip01_L_Finger21" 32
  34 "ValveBiped.Bip01_L_Finger22" 33
  35 "ValveBiped.Bip01_L_Finger1" 16
  36 "ValveBiped.Bip01_L_Finger11" 35
  37 "ValveBiped.Bip01_L_Finger12" 36
  38 "ValveBiped.Bip01_L_Finger0" 16
  39 "ValveBiped.Bip01_L_Finger01" 38
  40 "ValveBiped.Bip01_L_Finger02" 39
  41 "ValveBiped.Bip01_R_Finger4" 11
  42 "ValveBiped.Bip01_R_Finger41" 41
  43 "ValveBiped.Bip01_R_Finger42" 42
  44 "ValveBiped.Bip01_R_Finger3" 11
  45 "ValveBiped.Bip01_R_Finger31" 44
  46 "ValveBiped.Bip01_R_Finger32" 45
  47 "ValveBiped.Bip01_R_Finger2" 11
  48 "ValveBiped.Bip01_R_Finger21" 47
  49 "ValveBiped.Bip01_R_Finger22" 48
  50 "ValveBiped.Bip01_R_Finger1" 11
  51 "ValveBiped.Bip01_R_Finger11" 50
  52 "ValveBiped.Bip01_R_Finger12" 51
  53 "ValveBiped.Bip01_R_Finger0" 11
  54 "ValveBiped.Bip01_R_Finger01" 53
  55 "ValveBiped.Bip01_R_Finger02" 54
  56 "ValveBiped.baton_parent" 11
end
skeleton
  time 0
    0 1.610982 -0.335943 35.320725 1.650117 0.036512 0.140389
    1 -0.124999 3.345128 -2.981903 1.572056 0.102068 1.609722
    2 4.018331 0.000000 0.000000 -0.060263 0.057730 0.175898
    3 3.518564 0.000000 0.000000 -0.009574 0.008881 0.255488
    4 8.942642 0.000000 0.000000 -0.009228 -0.111433 0.245198
    5 3.307269 0.000000 -0.000004 3.137477 0.001222 0.577187
    6 3.593710 -0.000001 -0.000004 -0.085139 -0.073861 1.083163
    7 1.999994 -3.000001 0.000004 -1.570793 0.000002 -1.326448
    8 2.033349 1.000771 -1.937607 -1.384457 1.273752 -3.061316
    9 6.028143 0.000002 -0.000004 1.749472 0.131596 -0.749117
    10 11.692545 0.000000 0.000000 -0.000011 0.000000 -1.936121
    11 11.481701 0.000000 0.000000 -0.859193 0.299934 -0.015306
    12 2.676086 -1.712440 0.000000 -1.570792 0.000003 -1.570793
    13 2.033341 1.000767 1.937660 2.412174 -1.487397 2.120583
    14 6.028140 0.000002 0.000000 -1.277626 0.043565 -0.865473
    15 11.692553 0.000000 0.000011 -0.000013 0.000000 -1.990253
    16 11.481667 0.000000 -0.000031 1.575452 -0.108951 -0.097558
    17 2.676086 -1.712440 0.000004 1.570793 0.000005 1.570793
    18 -3.890452 0.000004 0.000004 -0.978255 -0.128383 -1.638766
    19 17.848171 0.000000 0.000004 0.000009 0.000000 0.730289
    20 16.525251 0.000000 0.000004 -0.033024 -0.111292 -1.632008
    21 6.879454 0.000000 0.000008 -0.081316 -0.002942 -0.617063
    22 3.890452 -0.000004 -0.000004 -1.330218 -1.037688 -1.479617
    23 17.848175 0.000000 -0.000004 0.000010 0.000000 1.748058
    24 16.525246 0.000000 0.000004 -0.058338 0.138553 -0.847448
    25 6.879452 0.000000 0.000000 -0.007982 -0.003387 -0.584342
    26 3.859703 -0.142403 -1.191975 -0.568926 -0.013610 -1.526889
    27 1.312565 0.000001 0.000004 -0.086569 0.239740 -1.554310
    28 0.729362 0.000002 0.000004 -0.176890 0.315566 -1.429227
    29 3.942326 0.046774 -0.431438 0.030302 -0.060016 -1.757025
    30 1.539093 0.000001 0.000000 -0.058664 0.149390 -1.571935
    31 1.196320 -0.000001 0.000004 -0.107664 0.188367 -1.488369
    32 3.883686 -0.046767 0.431446 0.134425 0.056053 -1.771010
    33 1.719570 0.000002 0.000004 -0.030687 0.057172 -1.750786
    34 1.209183 -0.000001 -0.000004 -0.034239 0.059372 -1.537001
    35 3.859859 -0.137950 1.332462 0.524244 -0.087934 -1.819404
    36 1.719429 0.000002 0.000000 0.072023 -0.125294 -1.808387
    37 1.099670 0.000001 0.000004 0.072020 -0.125295 -0.669563
    38 0.806049 -0.348922 1.321259 -0.786558 -0.413953 -0.992027
    39 1.789787 0.000000 0.000004 0.004364 0.030239 0.718398
    40 1.207001 0.000000 -0.000004 0.102534 0.030239 0.502412
    41 3.859665 -0.132565 1.193108 0.693436 -0.009816 -1.600821
    42 1.312561 0.000000 0.000000 0.110761 -0.297055 -1.436131
    43 0.729366 0.000002 0.000000 0.157645 -0.341689 -1.408450
    44 3.942291 0.050330 0.431042 0.331339 -0.008608 -1.603808
    45 1.539097 0.000003 0.000000 0.050214 -0.153911 -1.591790
    46 1.196320 0.000000 0.000000 0.132534 -0.225778 -1.824887
    47 3.883648 -0.050325 -0.431044 -0.022374 -0.010304 -1.305812
    48 1.719574 -0.000005 0.000000 0.038733 -0.074557 -1.586292
    49 1.209183 -0.000001 0.000000 0.047506 -0.079997 -1.582092
    50 3.859825 -0.148935 -1.331284 -0.549076 -0.024863 -1.454250
    51 1.719425 0.000000 0.000000 -0.002107 0.024342 -1.684730
    52 1.099663 0.000000 0.000000 -0.007967 0.046800 -1.711623
    53 0.806015 -0.359835 -1.318335 1.200555 0.246503 -0.836612
    54 1.789780 0.000001 0.000000 0.046975 0.150711 0.289172
    55 1.207001 0.000000 0.000004 0.215981 -0.000002 0.942472
    56 3.643179 -1.117762 -6.586830 1.677301 0.043048 -2.001890
  time 1
    0 1.610982 -0.335943 35.625421 1.653602 0.041917 0.095493
    1 -0.124999 3.345128 -2.981903 1.573663 0.102068 1.613284
    2 4.018331 0.000000 0.000000 -0.051831 0.061960 0.176401
    3 3.518564 0.000000 0.000000 -0.000778 0.013830 0.255643
    4 8.942642 0.000000 0.000000 0.007516 -0.114716 0.246259
    5 3.307269 0.000000 -0.000004 3.137477 0.001222 0.577187
    6 3.593710 -0.000001 -0.000004 -0.063345 -0.068192 1.082741
    7 1.999994 -3.000001 0.000004 -1.570793 0.000002 -1.326448
    8 2.033349 1.000771 -1.937607 -1.389096 1.273953 -3.066089
    9 6.028143 0.000002 -0.000004 1.748002 0.272834 -0.741731
    10 11.692545 0.000000 0.000000 -0.000011 0.000000 -1.868376
    11 11.481701 0.000000 0.000000 -0.857952 0.279310 -0.015061
    12 2.676086 -1.712440 0.000000 -1.570792 0.000003 -1.570793
    13 2.033341 1.000767 1.937660 2.412174 -1.487397 2.120583
    14 6.028140 0.000002 0.000000 -1.279146 0.212682 -0.836438
    15 11.692553 0.000000 0.000011 -0.000013 0.000000 -1.934653
    16 11.481667 0.000000 -0.000031 1.575391 -0.108951 -0.097558
    17 2.676086 -1.712440 0.000004 1.570793 0.000005 1.570793
    18 -3.890452 0.000004 0.000004 -1.073194 -0.172849 -1.459705
    19 17.848171 0.000000 0.000004 0.000009 0.000000 0.712274
    20 16.525251 0.000000 0.000004 -0.149608 0.026793 -1.533627
    21 6.879454 0.000000 0.000008 -0.080273 -0.002630 -0.675569
    22 3.890452 -0.000004 -0.000004 -1.120792 -0.954544 -1.840588
    23 17.848175 0.000000 -0.000004 0.000010 0.000000 1.708367
    24 16.525246 0.000000 0.000004 -0.193434 -0.079781 -0.973759
    25 6.879452 0.000000 0.000000 -0.007706 -0.003183 -0.582613
    26 3.859703 -0.142403 -1.191975 -0.568926 -0.013610 -1.526889
    27 1.312565 0.000001 0.000004 -0.086569 0.239740 -1.554310
    28 0.729362 0.000002 0.000004 -0.176890 0.315566 -1.429227
    29 3.942326 0.046774 -0.431438 0.030302 -0.060016 -1.757025
    30 1.539093 0.000001 0.000000 -0.058664 0.149390 -1.571935
    31 1.196320 -0.000001 0.000004 -0.107664 0.188367 -1.488369
    32 3.883686 -0.046767 0.431446 0.134425 0.056053 -1.771010
    33 1.719570 0.000002 0.000004 -0.030687 0.057172 -1.750786
    34 1.209183 -0.000001 -0.000004 -0.034239 0.059372 -1.537001
    35 3.859859 -0.137950 1.332462 0.524244 -0.087934 -1.819404
    36 1.719429 0.000002 0.000000 0.072023 -0.125294 -1.808387
    37 1.099670 0.000001 0.000004 0.072020 -0.125295 -0.669563
    38 0.806049 -0.348922 1.321259 -0.786558 -0.413953 -0.992027
    39 1.789787 0.000000 0.000004 0.004364 0.030239 0.718398
    40 1.207001 0.000000 -0.000004 0.102534 0.030239 0.502412
    41 3.859665 -0.132565 1.193108 0.693436 -0.009816 -1.600821
    42 1.312561 0.000000 0.000000 0.110761 -0.297055 -1.436131
    43 0.729366 0.000002 0.000000 0.157645 -0.341689 -1.408450
    44 3.942291 0.050330 0.431042 0.331339 -0.008608 -1.603808
    45 1.539097 0.000003 0.000000 0.050214 -0.153911 -1.591790
    46 1.196320 0.000000 0.000000 0.132534 -0.225778 -1.824887
    47 3.883648 -0.050325 -0.431044 -0.022374 -0.010304 -1.305812
    48 1.719574 -0.000005 0.000000 0.038733 -0.074557 -1.586292
    49 1.209183 -0.000001 0.000000 0.047506 -0.079997 -1.582092
    50 3.859825 -0.148935 -1.331284 -0.549076 -0.024863 -1.454250
    51 1.719425 0.000000 0.000000 -0.002107 0.024342 -1.684730
    52 1.099663 0.000000 0.000000 -0.007967 0.046800 -1.711623
    53 0.806015 -0.359835 -1.318335 1.200555 0.246503 -0.836612
    54 1.789780 0.000001 0.000000 0.046975 0.150711 0.289172
    55 1.207001 0.000000 0.000004 0.215981 -0.000002 0.942472
    56 3.643179 -1.117762 -6.586830 1.677301 0.043048 -2.001890
  time 2
    0 1.610982 -0.335943 36.371538 1.661606 0.046471 0.034471
    1 -0.124999 3.345128 -2.981903 1.575075 0.102068 1.616499
    2 4.018331 0.000000 0.000000 -0.046783 0.061565 0.176317
    3 3.518564 0.000000 0.000000 0.004627 0.016874 0.253462
    4 8.942642 0.000000 0.000000 0.023164 -0.115579 0.248118
    5 3.307269 0.000000 -0.000004 3.137477 0.001222 0.577187
    6 3.593710 -0.000001 -0.000004 -0.011526 -0.054650 1.082248
    7 1.999994 -3.000001 0.000004 -1.570793 0.000002 -1.326448
    8 2.033349 1.000771 -1.937607 -1.392157 1.274113 -3.069526
    9 6.028143 0.000002 -0.000004 1.728427 0.411509 -0.745194
    10 11.692545 0.000000 0.000000 -0.000011 0.000000 -1.794580
    11 11.481701 0.000000 0.000000 -0.856711 0.258877 -0.014864
    12 2.676086 -1.712440 0.000000 -1.570792 0.000003 -1.570793
    13 2.033341 1.000767 1.937660 2.412174 -1.487397 2.120583
    14 6.028140 0.000002 0.000000 -1.297794 0.342505 -0.837569
    15 11.692553 0.000000 0.000011 -0.000013 0.000000 -1.834644
    16 11.481667 0.000000 -0.000031 1.575391 -0.108951 -0.097558
    17 2.676086 -1.712440 0.000004 1.570793 0.000005 1.570793
    18 -3.890452 0.000004 0.000004 -1.194568 -0.209272 -1.293367
    19 17.848171 0.000000 0.000004 0.000009 0.000000 0.686636
    20 16.525251 0.000000 0.000004 -0.162302 -0.032963 -1.037849
    21 6.879454 0.000000 0.000008 -0.079207 -0.002234 -0.742813
    22 3.890452 -0.000004 -0.000004 -1.059441 -0.846910 -2.028463
    23 17.848175 0.000000 -0.000004 0.000010 0.000000 1.480923
    24 16.525246 0.000000 0.000004 -0.248164 -0.222619 -0.988591
    25 6.879452 0.000000 0.000000 -0.006568 -0.002944 -0.649542
    26 3.859703 -0.142403 -1.191975 -0.568926 -0.013610 -1.526889
    27 1.312565 0.000001 0.000004 -0.086569 0.239740 -1.554263
    28 0.729362 0.000002 0.000004 -0.176890 0.315566 -1.429227
    29 3.942326 0.046774 -0.431438 0.030302 -0.060016 -1.757025
    30 1.539093 0.000001 0.000000 -0.058664 0.149390 -1.571935
    31 1.196320 -0.000001 0.000004 -0.107664 0.188367 -1.488369
    32 3.883686 -0.046767 0.431446 0.134425 0.056053 -1.771010
    33 1.719570 0.000002 0.000004 -0.030687 0.057172 -1.750786
    34 1.209183 -0.000001 -0.000004 -0.034239 0.059372 -1.537001
    35 3.859859 -0.137950 1.332462 0.524244 -0.087934 -1.819404
    36 1.719429 0.000002 0.000000 0.072023 -0.125294 -1.808387
    37 1.099670 0.000001 0.000004 0.072020 -0.125295 -0.669563
    38 0.806049 -0.348922 1.321259 -0.786558 -0.413953 -0.992027
    39 1.789787 0.000000 0.000004 0.004364 0.030239 0.718398
    40 1.207001 0.000000 -0.000004 0.102534 0.030239 0.502412
    41 3.859665 -0.132565 1.193108 0.693436 -0.009816 -1.600821
    42 1.312561 0.000000 0.000000 0.110761 -0.297055 -1.436131
    43 0.729366 0.000002 0.000000 0.157645 -0.341689 -1.408450
    44 3.942291 0.050330 0.431042 0.331339 -0.008608 -1.603808
    45 1.539097 0.000003 0.000000 0.050214 -0.153911 -1.591790
    46 1.196320 0.000000 0.000000 0.132534 -0.225778 -1.824887
    47 3.883648 -0.050325 -0.431044 -0.022374 -0.010304 -1.305812
    48 1.719574 -0.000005 0.000000 0.038733 -0.074557 -1.586292
    49 1.209183 -0.000001 0.000000 0.047506 -0.079997 -1.582092
    50 3.859825 -0.148935 -1.331284 -0.549076 -0.024863 -1.454250
    51 1.719425 0.000000 0.000000 -0.002107 0.024342 -1.684730
    52 1.099663 0.000000 0.000000 -0.007967 0.046800 -1.711623
    53 0.806015 -0.359835 -1.318335 1.200555 0.246503 -0.836612
    54 1.789780 0.000001 0.000000 0.046975 0.150711 0.289172
    55 1.207001 0.000000 0.000004 0.215981 -0.000002 0.942472
    56 3.643179 -1.117762 -6.586830 1.677301 0.043060 -2.001890
  time 3
    0 1.610982 -0.335943 37.234846 1.671571 0.049539 -0.033667
    1 -0.128905 3.345128 -2.981903 1.576244 0.102068 1.619220
    2 4.018331 0.000000 0.000000 -0.046764 0.056555 0.173249
    3 3.518564 0.000000 0.000000 0.006245 0.017078 0.245001
    4 8.942642 0.000000 0.000000 0.034671 -0.113794 0.249855
    5 3.307269 0.000000 -0.000004 3.137477 0.001222 0.577187
    6 3.593710 -0.000001 -0.000004 0.050179 -0.038447 1.082530
    7 1.999994 -3.000001 0.000004 -1.570793 0.000002 -1.326448
    8 2.033349 1.000771 -1.937607 -1.394105 1.274234 -3.071435
    9 6.028143 0.000002 -0.000004 1.681374 0.525563 -0.769472
    10 11.692545 0.000000 0.000000 -0.000011 0.000000 -1.729203
    11 11.481701 0.000000 0.000000 -0.855471 0.238698 -0.014668
    12 2.676086 -1.712440 0.000000 -1.570792 0.000003 -1.570793
    13 2.033341 1.000767 1.937660 2.412174 -1.487397 2.120583
    14 6.028140 0.000002 0.000000 -1.332461 0.439745 -0.866527
    15 11.692553 0.000000 0.000011 -0.000013 0.000000 -1.717710
    16 11.481667 0.000000 -0.000031 1.575391 -0.108951 -0.097558
    17 2.676086 -1.712440 0.000004 1.570793 0.000005 1.570793
    18 -3.890452 0.000004 0.000004 -1.309981 -0.154025 -1.163658
    19 17.848171 0.000000 0.000004 0.000009 0.000000 0.603740
    20 16.525251 0.000000 0.000004 -0.234755 -0.163780 -0.687657
    21 6.879454 0.000000 0.000008 -0.079350 -0.001731 -0.642555
    22 3.890452 -0.000004 -0.000004 -1.068497 -0.796544 -2.104562
    23 17.848175 0.000000 -0.000004 0.000010 0.000000 1.249973
    24 16.525246 0.000000 0.000004 -0.304900 -0.203126 -0.958445
    25 6.879452 0.000000 0.000000 -0.004578 -0.003052 -0.901411
    26 3.859703 -0.142403 -1.191975 -0.568926 -0.013610 -1.526889
    27 1.312565 0.000001 0.000004 -0.086569 0.239740 -1.554263
    28 0.729362 0.000002 0.000004 -0.176890 0.315566 -1.429227
    29 3.942326 0.046774 -0.431438 0.030302 -0.060016 -1.757025
    30 1.539093 0.000001 0.000000 -0.058664 0.149390 -1.571935
    31 1.196320 -0.000001 0.000004 -0.107664 0.188367 -1.488369
    32 3.883686 -0.046767 0.431446 0.134425 0.056053 -1.771010
    33 1.719570 0.000002 0.000004 -0.030687 0.057172 -1.750786
    34 1.209183 -0.000001 -0.000004 -0.034239 0.059372 -1.537001
    35 3.859859 -0.137950 1.332462 0.524244 -0.087934 -1.819404
    36 1.719429 0.000002 0.000000 0.072023 -0.125294 -1.808387
    37 1.099670 0.000001 0.000004 0.072020 -0.125295 -0.669563
    38 0.806049 -0.348922 1.321259 -0.786558 -0.413953 -0.992027
    39 1.789787 0.000000 0.000004 0.004364 0.030239 0.718398
    40 1.207001 0.000000 -0.000004 0.102534 0.030239 0.502412
    41 3.859665 -0.132565 1.193108 0.693436 -0.009816 -1.600821
    42 1.312561 0.000000 0.000000 0.110761 -0.297055 -1.436131
    43 0.729366 0.000002 0.000000 0.157645 -0.341689 -1.408450
    44 3.942291 0.050330 0.431042 0.331339 -0.008596 -1.603808
    45 1.539097 0.000003 0.000000 0.050214 -0.153911 -1.591790
    46 1.196320 0.000000 0.000000 0.132534 -0.225778 -1.824887
    47 3.883648 -0.050325 -0.431044 -0.022374 -0.010304 -1.305812
    48 1.719574 -0.000005 0.000000 0.038733 -0.074557 -1.586292
    49 1.209183 -0.000001 0.000000 0.047506 -0.079997 -1.582092
    50 3.859825 -0.148935 -1.331284 -0.549076 -0.024863 -1.454250
    51 1.719425 0.000000 0.000000 -0.002107 0.024342 -1.684730
    52 1.099663 0.000000 0.000000 -0.007967 0.046800 -1.711623
    53 0.806015 -0.359835 -1.318335 1.200555 0.246503 -0.836612
    54 1.789780 0.000001 0.000000 0.046975 0.150711 0.289172
    55 1.207001 0.000000 0.000004 0.215981 -0.000002 0.942472
    56 3.643179 -1.117762 -6.586830 1.677301 0.043060 -2.001890
  time 4
    0 1.610982 -0.335943 37.906741 1.681482 0.050774 -0.088103
    1 -0.124999 3.345128 -2.981903 1.577023 0.102068 1.621149
    2 4.018331 0.000000 0.000000 -0.050410 0.047831 0.167269
    3 3.518564 0.000000 0.000000 0.004783 0.013878 0.231087
    4 8.942642 0.000000 0.000000 0.038596 -0.108916 0.250854
    5 3.307269 0.000000 -0.000004 3.137477 0.001222 0.577187
    6 3.593710 -0.000001 -0.000004 0.101999 -0.024928 1.083585
    7 1.999994 -3.000001 0.000004 -1.570793 0.000002 -1.326448
    8 2.033349 1.000771 -1.937607 -1.394847 1.274274 -3.072294
    9 6.028143 0.000002 -0.000004 1.619249 0.592608 -0.814812
    10 11.692545 0.000000 0.000000 -0.000011 0.000000 -1.688030
    11 11.481701 0.000000 0.000000 -0.854284 0.218391 -0.014521
    12 2.676086 -1.712440 0.000000 -1.570792 0.000003 -1.570793
    13 2.033341 1.000767 1.937660 2.412174 -1.487397 2.120583
    14 6.028140 0.000002 0.000000 -1.370694 0.508755 -0.901612
    15 11.692553 0.000000 0.000011 -0.000013 0.000000 -1.619589
    16 11.481667 0.000000 -0.000031 1.575391 -0.108951 -0.097558
    17 2.676086 -1.712440 0.000004 1.570793 0.000005 1.570793
    18 -3.890452 0.000004 0.000004 -1.390641 -0.101630 -1.095064
    19 17.848171 0.000000 0.000004 0.000009 0.000000 0.634910
    20 16.525251 0.000000 0.000004 -0.301887 -0.211163 -0.595911
    21 6.879454 0.000000 0.000008 -0.079878 -0.001276 -0.504952
    22 3.890452 -0.000004 -0.000004 -1.109371 -0.733639 -2.106830
    23 17.848175 0.000000 -0.000004 0.000010 0.000000 1.013451
    24 16.525246 0.000000 0.000004 -0.342147 -0.190648 -0.877835
    25 6.879452 0.000000 0.000000 -0.003524 -0.003076 -1.086927
    26 3.859703 -0.142403 -1.191975 -0.568926 -0.013610 -1.526889
    27 1.312565 0.000001 0.000004 -0.086569 0.239740 -1.554310
    28 0.729362 0.000002 0.000004 -0.176890 0.315566 -1.429227
    29 3.942326 0.046774 -0.431438 0.030302 -0.060016 -1.757025
    30 1.539093 0.000001 0.000000 -0.058664 0.149390 -1.571935
    31 1.196320 -0.000001 0.000004 -0.107664 0.188367 -1.488369
    32 3.883686 -0.046767 0.431446 0.134425 0.056053 -1.771010
    33 1.719570 0.000002 0.000004 -0.030687 0.057172 -1.750786
    34 1.209183 -0.000001 -0.000004 -0.034239 0.059372 -1.537001
    35 3.859859 -0.137950 1.332462 0.524244 -0.087934 -1.819404
    36 1.719429 0.000002 0.000000 0.072023 -0.125294 -1.808387
    37 1.099670 0.000001 0.000004 0.072020 -0.125295 -0.669563
    38 0.806049 -0.348922 1.321259 -0.786558 -0.413953 -0.992027
    39 1.789787 0.000000 0.000004 0.004364 0.030239 0.718398
    40 1.207001 0.000000 -0.000004 0.102534 0.030239 0.502412
    41 3.859665 -0.132565 1.193108 0.693436 -0.009816 -1.600821
    42 1.312561 0.000000 0.000000 0.110761 -0.297055 -1.436131
    43 0.729366 0.000002 0.000000 0.157645 -0.341689 -1.408450
    44 3.942291 0.050330 0.431042 0.331339 -0.008608 -1.603808
    45 1.539097 0.000003 0.000000 0.050214 -0.153911 -1.591790
    46 1.196320 0.000000 0.000000 0.132534 -0.225778 -1.824887
    47 3.883648 -0.050325 -0.431044 -0.022374 -0.010304 -1.305812
    48 1.719574 -0.000005 0.000000 0.038733 -0.074557 -1.586292
    49 1.209183 -0.000001 0.000000 0.047506 -0.079997 -1.582092
    50 3.859825 -0.148935 -1.331284 -0.549076 -0.024863 -1.454250
    51 1.719425 0.000000 0.000000 -0.002107 0.024342 -1.684730
    52 1.099663 0.000000 0.000000 -0.007967 0.046800 -1.711623
    53 0.806015 -0.359835 -1.318335 1.200555 0.246503 -0.836612
    54 1.789780 0.000001 0.000000 0.046975 0.150711 0.289172
    55 1.207001 0.000000 0.000004 0.215981 -0.000002 0.942472
    56 3.643179 -1.117762 -6.586830 1.677301 0.043060 -2.001890
  time 5
    0 1.610982 -0.335943 38.062996 1.689541 0.049431 -0.113011
    1 -0.124999 3.345128 -2.981903 1.577412 0.102068 1.622238
    2 4.018331 0.000000 0.000000 -0.056729 0.036769 0.161265
    3 3.518564 0.000000 0.000000 0.000409 0.007227 0.216885
    4 8.942642 0.000000 0.000000 0.033830 -0.101186 0.250362
    5 3.307269 0.000000 -0.000004 3.137477 0.001222 0.577187
    6 3.593710 -0.000001 -0.000004 0.123747 -0.019295 1.084219
    7 1.999994 -3.000001 0.000004 -1.570793 0.000002 -1.326448
    8 2.033349 1.000771 -1.937607 -1.394662 1.274274 -3.072104
    9 6.028143 0.000002 -0.000004 1.567233 0.599949 -0.859834
    10 11.692545 0.000000 0.000000 -0.000011 0.000000 -1.685596
    11 11.481701 0.000000 0.000000 -0.853043 0.197800 -0.014374
    12 2.676086 -1.712440 0.000000 -1.570792 0.000003 -1.570793
    13 2.033341 1.000767 1.937660 2.412174 -1.487397 2.120583
    14 6.028140 0.000002 0.000000 -1.401795 0.551658 -0.922842
    15 11.692553 0.000000 0.000011 -0.000013 0.000000 -1.579586
    16 11.481667 0.000000 -0.000031 1.575391 -0.108951 -0.097558
    17 2.676086 -1.712440 0.000004 1.570793 0.000005 1.570793
    18 -3.890452 0.000004 0.000004 -1.423507 -0.095868 -1.081320
    19 17.848171 0.000000 0.000004 0.000009 0.000000 0.784406
    20 16.525251 0.000000 0.000004 -0.283517 -0.123343 -0.680166
    21 6.879454 0.000000 0.000008 -0.080561 -0.000940 -0.393752
    22 3.890452 -0.000004 -0.000004 -1.133846 -0.657100 -2.097000
    23 17.848175 0.000000 -0.000004 0.000010 0.000000 0.804725
    24 16.525246 0.000000 0.000004 -0.349395 -0.209997 -0.774013
    25 6.879452 0.000000 0.000000 -0.003464 -0.002896 -1.078612
    26 3.859703 -0.142403 -1.191975 -0.568926 -0.013610 -1.526889
    27 1.312565 0.000001 0.000004 -0.086569 0.239740 -1.554263
    28 0.729362 0.000002 0.000004 -0.176890 0.315566 -1.429227
    29 3.942326 0.046774 -0.431438 0.030302 -0.060016 -1.757025
    30 1.539093 0.000001 0.000000 -0.058664 0.149390 -1.571935
    31 1.196320 -0.000001 0.000004 -0.107664 0.188367 -1.488369
    32 3.883686 -0.046767 0.431446 0.134425 0.056053 -1.771010
    33 1.719570 0.000002 0.000004 -0.030687 0.057172 -1.750786
    34 1.209183 -0.000001 -0.000004 -0.034239 0.059372 -1.537001
    35 3.859859 -0.137950 1.332462 0.524244 -0.087934 -1.819404
    36 1.719429 0.000002 0.000000 0.072023 -0.125294 -1.808387
    37 1.099670 0.000001 0.000004 0.072020 -0.125295 -0.669563
    38 0.806049 -0.348922 1.321259 -0.786558 -0.413953 -0.992027
    39 1.789787 0.000000 0.000004 0.004364 0.030239 0.718398
    40 1.207001 0.000000 -0.000004 0.102534 0.030239 0.502412
    41 3.859665 -0.132565 1.193108 0.693436 -0.009816 -1.600821
    42 1.312561 0.000000 0.000000 0.110761 -0.297055 -1.436131
    43 0.729366 0.000002 0.000000 0.157645 -0.341689 -1.408450
    44 3.942291 0.050330 0.431042 0.331339 -0.008608 -1.603808
    45 1.539097 0.000003 0.000000 0.050214 -0.153911 -1.591790
    46 1.196320 0.000000 0.000000 0.132534 -0.225778 -1.824887
    47 3.883648 -0.050325 -0.431044 -0.022374 -0.010304 -1.305812
    48 1.719574 -0.000005 0.000000 0.038733 -0.074557 -1.586292
    49 1.209183 -0.000001 0.000000 0.047506 -0.079997 -1.582092
    50 3.859825 -0.148935 -1.331284 -0.549076 -0.024863 -1.454250
    51 1.719425 0.000000 0.000000 -0.002107 0.024342 -1.684730
    52 1.099663 0.000000 0.000000 -0.007967 0.046800 -1.711623
    53 0.806015 -0.359835 -1.318335 1.200555 0.246503 -0.836612
    54 1.789780 0.000001 0.000000 0.046975 0.150711 0.289172
    55 1.207001 0.000000 0.000004 0.215981 -0.000002 0.942472
    56 3.643179 -1.117762 -6.586830 1.677301 0.043048 -2.001890
  time 6
    0 1.610982 -0.335943 37.613763 1.693299 0.045201 -0.117402
    1 -0.124999 3.345128 -2.981903 1.577510 0.102068 1.622485
    2 4.018331 0.000000 0.000000 -0.064694 0.024808 0.156950
    3 3.518564 0.000000 0.000000 -0.005847 -0.001941 0.205476
    4 8.942642 0.000000 0.000000 0.025178 -0.092389 0.247626
    5 3.307269 0.000000 -0.000004 3.137477 0.001222 0.577187
    6 3.593710 -0.000001 -0.000004 0.120712 -0.022926 1.084078
    7 1.999994 -3.000001 0.000004 -1.570793 0.000002 -1.326448
    8 2.033349 1.000771 -1.937607 -1.393641 1.274194 -3.070958
    9 6.028143 0.000002 -0.000004 1.538744 0.555520 -0.874853
    10 11.692545 0.000000 0.000000 -0.000011 0.000000 -1.716377
    11 11.481701 0.000000 0.000000 -0.852072 0.181675 -0.014276
    12 2.676086 -1.712440 0.000000 -1.570792 0.000003 -1.570793
    13 2.033341 1.000767 1.937660 2.412174 -1.487397 2.120583
    14 6.028140 0.000002 0.000000 -1.423951 0.574223 -0.931155
    15 11.692553 0.000000 0.000011 -0.000013 0.000000 -1.620498
    16 11.481667 0.000000 -0.000031 1.575452 -0.108951 -0.097558
    17 2.676086 -1.712440 0.000004 1.570793 0.000005 1.570793
    18 -3.890452 0.000004 0.000004 -1.419790 -0.124904 -1.108936
    19 17.848171 0.000000 0.000004 0.000009 0.000000 0.970454
    20 16.525251 0.000000 0.000004 -0.224978 -0.008306 -0.798606
    21 6.879454 0.000000 0.000008 -0.081364 -0.000593 -0.293418
    22 3.890452 -0.000004 -0.000004 -1.158729 -0.551318 -2.059122
    23 17.848175 0.000000 -0.000004 0.000010 0.000000 0.569581
    24 16.525246 0.000000 0.000004 -0.426497 -0.393070 -0.564680
    25 6.879452 0.000000 0.000000 -0.003536 -0.002956 -1.070833
    26 3.859703 -0.142403 -1.191975 -0.568926 -0.013610 -1.526889
    27 1.312565 0.000001 0.000004 -0.086569 0.239740 -1.554263
    28 0.729362 0.000002 0.000004 -0.176890 0.315566 -1.429227
    29 3.942326 0.046774 -0.431438 0.030302 -0.060016 -1.757025
    30 1.539093 0.000001 0.000000 -0.058664 0.149390 -1.571935
    31 1.196320 -0.000001 0.000004 -0.107664 0.188367 -1.488369
    32 3.883686 -0.046767 0.431446 0.134425 0.056053 -1.771010
    33 1.719570 0.000002 0.000004 -0.030687 0.057172 -1.750786
    34 1.209183 -0.000001 -0.000004 -0.034239 0.059372 -1.537001
    35 3.859859 -0.137950 1.332462 0.524244 -0.087934 -1.819404
    36 1.719429 0.000002 0.000000 0.072023 -0.125294 -1.808387
    37 1.099670 0.000001 0.000004 0.072020 -0.125295 -0.669563
    38 0.806049 -0.348922 1.321259 -0.786558 -0.413953 -0.992027
    39 1.789787 0.000000 0.000004 0.004364 0.030239 0.718398
    40 1.207001 0.000000 -0.000004 0.102534 0.030239 0.502412
    41 3.859665 -0.132565 1.193108 0.693436 -0.009816 -1.600821
    42 1.312561 0.000000 0.000000 0.110761 -0.297055 -1.436131
    43 0.729366 0.000002 0.000000 0.157645 -0.341689 -1.408450
    44 3.942291 0.050330 0.431042 0.331339 -0.008608 -1.603808
    45 1.539097 0.000003 0.000000 0.050214 -0.153911 -1.591790
    46 1.196320 0.000000 0.000000 0.132534 -0.225778 -1.824887
    47 3.883648 -0.050325 -0.431044 -0.022374 -0.010304 -1.305812
    48 1.719574 -0.000005 0.000000 0.038733 -0.074557 -1.586292
    49 1.209183 -0.000001 0.000000 0.047506 -0.079997 -1.582092
    50 3.859825 -0.148935 -1.331284 -0.549076 -0.024863 -1.454250
    51 1.719425 0.000000 0.000000 -0.002107 0.024342 -1.684730
    52 1.099663 0.000000 0.000000 -0.007955 0.046800 -1.711623
    53 0.806015 -0.359835 -1.318335 1.200555 0.246503 -0.836612
    54 1.789780 0.000001 0.000000 0.046975 0.150711 0.289172
    55 1.207001 0.000000 0.000004 0.215981 -0.000002 0.942472
    56 3.643179 -1.117762 -6.586830 1.677301 0.043060 -2.001890
  time 7
    0 1.610982 -0.335943 36.723111 1.688071 0.038058 -0.110740
    1 -0.124999 3.345128 -2.981903 1.577315 0.102068 1.621496
    2 4.018331 0.000000 0.000000 -0.073443 0.012800 0.157490
    3 3.518564 0.000000 0.000000 -0.012978 -0.011266 0.204805
    4 8.942642 0.000000 0.000000 0.013709 -0.083401 0.243262
    5 3.307269 0.000000 -0.000004 3.137477 0.001222 0.577187
    6 3.593710 -0.000001 -0.000004 0.112206 -0.032838 1.083726
    7 1.999994 -3.000001 0.000004 -1.570793 0.000002 -1.326448
    8 2.033349 1.000771 -1.937607 -1.391971 1.274113 -3.069239
    9 6.028143 0.000002 -0.000004 1.531392 0.482895 -0.858032
    10 11.692545 0.000000 0.000000 -0.000011 0.000000 -1.764325
    11 11.481701 0.000000 0.000000 -0.851748 0.175909 -0.014276
    12 2.676086 -1.712440 0.000000 -1.570792 0.000003 -1.570793
    13 2.033341 1.000767 1.937660 2.412174 -1.487397 2.120583
    14 6.028140 0.000002 0.000000 -1.445698 0.566060 -0.936111
    15 11.692553 0.000000 0.000011 -0.000013 0.000000 -1.721487
    16 11.481667 0.000000 -0.000031 1.575391 -0.108951 -0.097558
    17 2.676086 -1.712440 0.000004 1.570793 0.000005 1.570793
    18 -3.890452 0.000004 0.000004 -1.386334 -0.172906 -1.179001
    19 17.848171 0.000000 0.000004 0.000009 0.000000 1.148953
    20 16.525251 0.000000 0.000004 -0.146620 0.099712 -0.882610
    21 6.879454 0.000000 0.000008 -0.081963 -0.000437 -0.245853
    22 3.890452 -0.000004 -0.000004 -1.168029 -0.536213 -2.043724
    23 17.848175 0.000000 -0.000004 0.000010 0.000000 0.589239
    24 16.525246 0.000000 0.000004 -0.417302 -0.561333 -0.585300
    25 6.879452 0.000000 0.000000 -0.004015 -0.003028 -0.988386
    26 3.859703 -0.142403 -1.191975 -0.568926 -0.013610 -1.526889
    27 1.312565 0.000001 0.000004 -0.086569 0.239740 -1.554263
    28 0.729362 0.000002 0.000004 -0.176890 0.315566 -1.429227
    29 3.942326 0.046774 -0.431438 0.030302 -0.060016 -1.757025
    30 1.539093 0.000001 0.000000 -0.058664 0.149390 -1.571935
    31 1.196320 -0.000001 0.000004 -0.107664 0.188367 -1.488369
    32 3.883686 -0.046767 0.431446 0.134425 0.056053 -1.771010
    33 1.719570 0.000002 0.000004 -0.030687 0.057172 -1.750786
    34 1.209183 -0.000001 -0.000004 -0.034239 0.059372 -1.537001
    35 3.859859 -0.137950 1.332462 0.524244 -0.087934 -1.819404
    36 1.719429 0.000002 0.000000 0.072023 -0.125294 -1.808387
    37 1.099670 0.000001 0.000004 0.072020 -0.125295 -0.669563
    38 0.806049 -0.348922 1.321259 -0.786558 -0.413953 -0.992027
    39 1.789787 0.000000 0.000004 0.004364 0.030239 0.718398
    40 1.207001 0.000000 -0.000004 0.102534 0.030239 0.502412
    41 3.859665 -0.132565 1.193108 0.693436 -0.009816 -1.600821
    42 1.312561 0.000000 0.000000 0.110761 -0.297055 -1.436131
    43 0.729366 0.000002 0.000000 0.157645 -0.341689 -1.408450
    44 3.942291 0.050330 0.431042 0.331339 -0.008596 -1.603808
    45 1.539097 0.000003 0.000000 0.050214 -0.153911 -1.591790
    46 1.196320 0.000000 0.000000 0.132534 -0.225778 -1.824943
    47 3.883648 -0.050325 -0.431044 -0.022374 -0.010304 -1.305812
    48 1.719574 -0.000005 0.000000 0.038733 -0.074557 -1.586292
    49 1.209183 -0.000001 0.000000 0.047506 -0.079997 -1.582092
    50 3.859825 -0.148935 -1.331284 -0.549076 -0.024863 -1.454250
    51 1.719425 0.000000 0.000000 -0.002107 0.024342 -1.684730
    52 1.099663 0.000000 0.000000 -0.007967 0.046800 -1.711623
    53 0.806015 -0.359835 -1.318335 1.200555 0.246503 -0.836612
    54 1.789780 0.000001 0.000000 0.046975 0.150711 0.289172
    55 1.207001 0.000000 0.000004 0.215981 -0.000002 0.942472
    56 3.643179 -1.117762 -6.586830 1.677301 0.043060 -2.001890
  time 8
    0 1.610982 -0.335943 35.902774 1.675220 0.028422 -0.091585
    1 -0.124999 3.345128 -2.981903 1.576633 0.102068 1.619368
    2 4.018331 0.000000 0.000000 -0.082287 0.001330 0.163686
    3 3.518564 0.000000 0.000000 -0.020253 -0.018816 0.216885
    4 8.942642 0.000000 0.000000 0.000342 -0.074928 0.238144
    5 3.307269 0.000000 -0.000004 3.137477 0.001222 0.577187
    6 3.593710 -0.000001 -0.000004 0.099148 -0.047603 1.083163
    7 1.999994 -3.000001 0.000004 -1.570793 0.000002 -1.326448
    8 2.033349 1.000771 -1.937607 -1.389745 1.273993 -3.066853
    9 6.028143 0.000002 -0.000004 1.544166 0.388667 -0.824000
    10 11.692545 0.000000 0.000000 -0.000011 0.000000 -1.821546
    11 11.481701 0.000000 0.000000 -0.852072 0.181073 -0.014276
    12 2.676086 -1.712440 0.000000 -1.570792 0.000003 -1.570793
    13 2.033341 1.000767 1.937660 2.412174 -1.487397 2.120583
    14 6.028140 0.000002 0.000000 -1.467445 0.498063 -0.936891
    15 11.692553 0.000000 0.000011 -0.000013 0.000000 -1.843386
    16 11.481667 0.000000 -0.000031 1.575391 -0.108951 -0.097558
    17 2.676086 -1.712440 0.000004 1.570793 0.000005 1.570793
    18 -3.890452 0.000004 0.000004 -1.320897 -0.211411 -1.301038
    19 17.848171 0.000000 0.000004 0.000009 0.000000 1.285293
    20 16.525251 0.000000 0.000004 -0.079789 0.154291 -0.935194
    21 6.879454 0.000000 0.000008 -0.082251 -0.000485 -0.242738
    22 3.890452 -0.000004 -0.000004 -1.201316 -0.585485 -1.983574
    23 17.848175 0.000000 -0.000004 0.000010 0.000000 0.794333
    24 16.525246 0.000000 0.000004 -0.311942 -0.593032 -0.909850
    25 6.879452 0.000000 0.000000 -0.005118 -0.002908 -0.804311
    26 3.859703 -0.142403 -1.191975 -0.568926 -0.013610 -1.526889
    27 1.312565 0.000001 0.000004 -0.086569 0.239740 -1.554263
    28 0.729362 0.000002 0.000004 -0.176890 0.315566 -1.429227
    29 3.942326 0.046774 -0.431438 0.030302 -0.060016 -1.757025
    30 1.539093 0.000001 0.000000 -0.058664 0.149390 -1.571935
    31 1.196320 -0.000001 0.000004 -0.107664 0.188367 -1.488369
    32 3.883686 -0.046767 0.431446 0.134425 0.056053 -1.771010
    33 1.719570 0.000002 0.000004 -0.030687 0.057172 -1.750786
    34 1.209183 -0.000001 -0.000004 -0.034239 0.059372 -1.537001
    35 3.859859 -0.137950 1.332462 0.524244 -0.087934 -1.819404
    36 1.719429 0.000002 0.000000 0.072023 -0.125294 -1.808387
    37 1.099670 0.000001 0.000004 0.072020 -0.125295 -0.669563
    38 0.806049 -0.348922 1.321259 -0.786558 -0.413953 -0.992027
    39 1.789787 0.000000 0.000004 0.004364 0.030239 0.718398
    40 1.207001 0.000000 -0.000004 0.102534 0.030239 0.502412
    41 3.859665 -0.132565 1.193108 0.693436 -0.009816 -1.600821
    42 1.312561 0.000000 0.000000 0.110761 -0.297055 -1.436131
    43 0.729366 0.000002 0.000000 0.157645 -0.341689 -1.408450
    44 3.942291 0.050330 0.431042 0.331339 -0.008608 -1.603808
    45 1.539097 0.000003 0.000000 0.050214 -0.153911 -1.591790
    46 1.196320 0.000000 0.000000 0.132534 -0.225778 -1.824887
    47 3.883648 -0.050325 -0.431044 -0.022374 -0.010304 -1.305812
    48 1.719574 -0.000005 0.000000 0.038733 -0.074557 -1.586292
    49 1.209183 -0.000001 0.000000 0.047506 -0.079997 -1.582092
    50 3.859825 -0.148935 -1.331284 -0.549076 -0.024863 -1.454250
    51 1.719425 0.000000 0.000000 -0.002107 0.024342 -1.684730
    52 1.099663 0.000000 0.000000 -0.007967 0.046800 -1.711623
    53 0.806015 -0.359835 -1.318335 1.200555 0.246503 -0.836612
    54 1.789780 0.000001 0.000000 0.046975 0.150711 0.289172
    55 1.207001 0.000000 0.000004 0.215981 -0.000002 0.942472
    56 3.643179 -1.117762 -6.586830 1.677301 0.043060 -2.001890
  time 9
    0 1.610982 -0.335943 35.461354 1.660953 0.017768 -0.059484
    1 -0.124999 3.345128 -2.981903 1.575562 0.102068 1.616450
    2 4.018331 0.000000 0.000000 -0.090588 -0.008940 0.172614
    3 3.518564 0.000000 0.000000 -0.027108 -0.024137 0.236096
    4 8.942642 0.000000 0.000000 -0.014057 -0.067749 0.233150
    5 3.307269 0.000000 -0.000004 3.137477 0.001222 0.577187
    6 3.593710 -0.000001 -0.000004 0.082503 -0.065747 1.082494
    7 1.999994 -3.000001 0.000004 -1.570793 0.000002 -1.326448
    8 2.033349 1.000771 -1.937607 -1.387148 1.273872 -3.064275
    9 6.028143 0.000002 -0.000004 1.571277 0.275136 -0.788308
    10 11.692545 0.000000 0.000000 -0.000011 0.000000 -1.877715
    11 11.481701 0.000000 0.000000 -0.853043 0.197451 -0.014374
    12 2.676086 -1.712440 0.000000 -1.570792 0.000003 -1.570793
    13 2.033341 1.000767 1.937660 2.412174 -1.487397 2.120583
    14 6.028140 0.000002 0.000000 -1.483171 0.351544 -0.931155
    15 11.692553 0.000000 0.000011 -0.000013 0.000000 -1.942486
    16 11.481667 0.000000 -0.000031 1.575452 -0.108951 -0.097558
    17 2.676086 -1.712440 0.000004 1.570793 0.000005 1.570793
    18 -3.890452 0.000004 0.000004 -1.232508 -0.232517 -1.466482
    19 17.848171 0.000000 0.000004 0.000009 0.000000 1.359966
    20 16.525251 0.000000 0.000004 -0.057193 0.136098 -0.964955
    21 6.879454 0.000000 0.000008 -0.082287 -0.000700 -0.270243
    22 3.890452 -0.000004 -0.000004 -1.284694 -0.590660 -1.823539
    23 17.848175 0.000000 -0.000004 0.000010 0.000000 0.893875
    24 16.525246 0.000000 0.000004 -0.235353 -0.486342 -1.213901
    25 6.879452 0.000000 0.000000 -0.006520 -0.002752 -0.628179
    26 3.859703 -0.142403 -1.191975 -0.568926 -0.013610 -1.526889
    27 1.312565 0.000001 0.000004 -0.086569 0.239740 -1.554263
    28 0.729362 0.000002 0.000004 -0.176890 0.315566 -1.429227
    29 3.942326 0.046774 -0.431438 0.030302 -0.060016 -1.757025
    30 1.539093 0.000001 0.000000 -0.058664 0.149390 -1.571935
    31 1.196320 -0.000001 0.000004 -0.107664 0.188367 -1.488369
    32 3.883686 -0.046767 0.431446 0.134425 0.056053 -1.771010
    33 1.719570 0.000002 0.000004 -0.030687 0.057172 -1.750786
    34 1.209183 -0.000001 -0.000004 -0.034239 0.059372 -1.537001
    35 3.859859 -0.137950 1.332462 0.524244 -0.087934 -1.819404
    36 1.719429 0.000002 0.000000 0.072023 -0.125294 -1.808387
    37 1.099670 0.000001 0.000004 0.072020 -0.125295 -0.669563
    38 0.806049 -0.348922 1.321259 -0.786558 -0.413953 -0.992027
    39 1.789787 0.000000 0.000004 0.004364 0.030239 0.718398
    40 1.207001 0.000000 -0.000004 0.102534 0.030239 0.502412
    41 3.859665 -0.132565 1.193108 0.693436 -0.009816 -1.600821
    42 1.312561 0.000000 0.000000 0.110761 -0.297055 -1.436131
    43 0.729366 0.000002 0.000000 0.157645 -0.341689 -1.408450
    44 3.942291 0.050330 0.431042 0.331339 -0.008608 -1.603808
    45 1.539097 0.000003 0.000000 0.050214 -0.153911 -1.591790
    46 1.196320 0.000000 0.000000 0.132534 -0.225778 -1.824887
    47 3.883648 -0.050325 -0.431044 -0.022374 -0.010304 -1.305812
    48 1.719574 -0.000005 0.000000 0.038733 -0.074557 -1.586292
    49 1.209183 -0.000001 0.000000 0.047506 -0.079997 -1.582092
    50 3.859825 -0.148935 -1.331284 -0.549076 -0.024863 -1.454250
    51 1.719425 0.000000 0.000000 -0.002107 0.024342 -1.684730
    52 1.099663 0.000000 0.000000 -0.007967 0.046800 -1.711623
    53 0.806015 -0.359835 -1.318335 1.200555 0.246503 -0.836612
    54 1.789780 0.000001 0.000000 0.046975 0.150711 0.289172
    55 1.207001 0.000000 0.000004 0.215981 -0.000002 0.942472
    56 3.643179 -1.117762 -6.586830 1.677301 0.043048 -2.001890
  time 10
    0 1.610982 -0.335943 35.340256 1.651478 0.007881 -0.015421
    1 -0.124999 3.345128 -2.981903 1.574247 0.102068 1.612937
    2 4.018331 0.000000 0.000000 -0.097767 -0.017486 0.179697
    3 3.518564 0.000000 0.000000 -0.033160 -0.027445 0.253186
    4 8.942642 0.000000 0.000000 -0.028635 -0.062607 0.229200
    5 3.307269 0.000000 -0.000004 3.137477 0.001222 0.577187
    6 3.593710 -0.000001 -0.000004 0.063100 -0.085834 1.081755
    7 1.999994 -3.000001 0.000004 -1.570793 0.000002 -1.326448
    8 2.033349 1.000771 -1.937607 -1.384457 1.273752 -3.061316
    9 6.028143 0.000002 -0.000004 1.604637 0.145232 -0.763535
    10 11.692545 0.000000 0.000000 -0.000011 0.000000 -1.923295
    11 11.481701 0.000000 0.000000 -0.854661 0.224442 -0.014570
    12 2.676086 -1.712440 0.000000 -1.570792 0.000003 -1.570793
    13 2.033341 1.000767 1.937660 2.412174 -1.487397 2.120583
    14 6.028140 0.000002 0.000000 -1.484223 0.137669 -0.921866
    15 11.692553 0.000000 0.000011 -0.000013 0.000000 -1.985637
    16 11.481667 0.000000 -0.000031 1.575452 -0.108951 -0.097558
    17 2.676086 -1.712440 0.000004 1.570793 0.000005 1.570793
    18 -3.890452 0.000004 0.000004 -1.137392 -0.234143 -1.648035
    19 17.848171 0.000000 0.000004 0.000009 0.000000 1.377084
    20 16.525251 0.000000 0.000004 -0.092730 0.040394 -0.986521
    21 6.879454 0.000000 0.000008 -0.082203 -0.000952 -0.308386
    22 3.890452 -0.000004 -0.000004 -1.373865 -0.569075 -1.638827
    23 17.848175 0.000000 -0.000004 0.000010 0.000000 0.888303
    24 16.525246 0.000000 0.000004 -0.240858 -0.342076 -1.352210
    25 6.879452 0.000000 0.000000 -0.007527 -0.002692 -0.537500
    26 3.859703 -0.142403 -1.191975 -0.568926 -0.013610 -1.526889
    27 1.312565 0.000001 0.000004 -0.086569 0.239740 -1.554310
    28 0.729362 0.000002 0.000004 -0.176890 0.315566 -1.429227
    29 3.942326 0.046774 -0.431438 0.030302 -0.060016 -1.757025
    30 1.539093 0.000001 0.000000 -0.058664 0.149390 -1.571935
    31 1.196320 -0.000001 0.000004 -0.107664 0.188367 -1.488369
    32 3.883686 -0.046767 0.431446 0.134425 0.056053 -1.771010
    33 1.719570 0.000002 0.000004 -0.030687 0.057172 -1.750786
    34 1.209183 -0.000001 -0.000004 -0.034239 0.059372 -1.537048
    35 3.859859 -0.137950 1.332462 0.524244 -0.087934 -1.819404
    36 1.719429 0.000002 0.000000 0.072023 -0.125294 -1.808387
    37 1.099670 0.000001 0.000004 0.072020 -0.125295 -0.669563
    38 0.806049 -0.348922 1.321259 -0.786558 -0.413953 -0.992027
    39 1.789787 0.000000 0.000004 0.004364 0.030239 0.718398
    40 1.207001 0.000000 -0.000004 0.102534 0.030239 0.502412
    41 3.859665 -0.132565 1.193108 0.693436 -0.009816 -1.600821
    42 1.312561 0.000000 0.000000 0.110761 -0.297055 -1.436131
    43 0.729366 0.000002 0.000000 0.157645 -0.341689 -1.408450
    44 3.942291 0.050330 0.431042 0.331339 -0.008608 -1.603808
    45 1.539097 0.000003 0.000000 0.050214 -0.153911 -1.591790
    46 1.196320 0.000000 0.000000 0.132534 -0.225778 -1.824887
    47 3.883648 -0.050325 -0.431044 -0.022374 -0.010304 -1.305812
    48 1.719574 -0.000005 0.000000 0.038733 -0.074557 -1.586292
    49 1.209183 -0.000001 0.000000 0.047506 -0.079997 -1.582092
    50 3.859825 -0.148935 -1.331284 -0.549076 -0.024863 -1.454250
    51 1.719425 0.000000 0.000000 -0.002107 0.024342 -1.684730
    52 1.099663 0.000000 0.000000 -0.007967 0.046800 -1.711623
    53 0.806015 -0.359835 -1.318335 1.200555 0.246503 -0.836612
    54 1.789780 0.000001 0.000000 0.046975 0.150711 0.289172
    55 1.207001 0.000000 0.000004 0.215981 -0.000002 0.942472
    56 3.643179 -1.117762 -6.586830 1.677301 0.043048 -2.001890
  time 11
    0 1.610982 -0.335943 35.676204 1.650171 0.000498 0.036364
    1 -0.124999 3.345128 -2.981903 1.572689 0.102068 1.609178
    2 4.018331 0.000000 0.000000 -0.103320 -0.023382 0.180560
    3 3.518564 0.000000 0.000000 -0.038098 -0.029111 0.257609
    4 8.942642 0.000000 0.000000 -0.042372 -0.060151 0.227202
    5 3.307269 0.000000 -0.000004 3.137477 0.001222 0.577187
    6 3.593710 -0.000001 -0.000004 0.041811 -0.106423 1.081087
    7 1.999994 -3.000001 0.000004 -1.570793 0.000002 -1.326448
    8 2.033349 1.000771 -1.937607 -1.381674 1.273591 -3.058547
    9 6.028143 0.000002 -0.000004 1.634504 0.004534 -0.752827
    10 11.692545 0.000000 0.000000 -0.000011 0.000000 -1.951314
    11 11.481701 0.000000 0.000000 -0.856765 0.259954 -0.014864
    12 2.676086 -1.712440 0.000000 -1.570792 0.000003 -1.570793
    13 2.033341 1.000767 1.937660 2.412174 -1.487397 2.120583
    14 6.028140 0.000002 0.000000 -1.462301 -0.097355 -0.923310
    15 11.692553 0.000000 0.000011 -0.000013 0.000000 -1.964866
    16 11.481667 0.000000 -0.000031 1.575391 -0.108951 -0.097558
    17 2.676086 -1.712440 0.000004 1.570793 0.000005 1.570793
    18 -3.890452 0.000004 0.000004 -1.049651 -0.218655 -1.815205
    19 17.848171 0.000000 0.000004 0.000009 0.000000 1.320724
    20 16.525251 0.000000 0.000004 -0.135870 -0.102298 -1.006178
    21 6.879454 0.000000 0.000008 -0.081843 -0.001324 -0.374719
    22 3.890452 -0.000004 -0.000004 -1.463118 -0.528765 -1.447652
    23 17.848175 0.000000 -0.000004 0.000010 0.000000 0.772359
    24 16.525246 0.000000 0.000004 -0.303816 -0.159527 -1.276484
    25 6.879452 0.000000 0.000000 -0.007467 -0.002716 -0.544703
    26 3.859703 -0.142403 -1.191975 -0.568926 -0.013610 -1.526889
    27 1.312565 0.000001 0.000004 -0.086569 0.239740 -1.554263
    28 0.729362 0.000002 0.000004 -0.176890 0.315566 -1.429227
    29 3.942326 0.046774 -0.431438 0.030302 -0.060016 -1.757079
    30 1.539093 0.000001 0.000000 -0.058664 0.149390 -1.571935
    31 1.196320 -0.000001 0.000004 -0.107664 0.188367 -1.488369
    32 3.883686 -0.046767 0.431446 0.134425 0.056053 -1.771010
    33 1.719570 0.000002 0.000004 -0.030687 0.057172 -1.750786
    34 1.209183 -0.000001 -0.000004 -0.034239 0.059372 -1.537001
    35 3.859859 -0.137950 1.332462 0.524244 -0.087934 -1.819404
    36 1.719429 0.000002 0.000000 0.072023 -0.125294 -1.808387
    37 1.099670 0.000001 0.000004 0.072020 -0.125295 -0.669563
    38 0.806049 -0.348922 1.321259 -0.786558 -0.413953 -0.992027
    39 1.789787 0.000000 0.000004 0.004364 0.030239 0.718398
    40 1.207001 0.000000 -0.000004 0.102534 0.030239 0.502412
    41 3.859665 -0.132565 1.193108 0.693436 -0.009816 -1.600821
    42 1.312561 0.000000 0.000000 0.110761 -0.297055 -1.436131
    43 0.729366 0.000002 0.000000 0.157645 -0.341689 -1.408450
    44 3.942291 0.050330 0.431042 0.331339 -0.008608 -1.603808
    45 1.539097 0.000003 0.000000 0.050214 -0.153911 -1.591790
    46 1.196320 0.000000 0.000000 0.132534 -0.225778 -1.824887
    47 3.883648 -0.050325 -0.431044 -0.022374 -0.010304 -1.305812
    48 1.719574 -0.000005 0.000000 0.038733 -0.074557 -1.586292
    49 1.209183 -0.000001 0.000000 0.047506 -0.079997 -1.582092
    50 3.859825 -0.148935 -1.331284 -0.549076 -0.024863 -1.454250
    51 1.719425 0.000000 0.000000 -0.002107 0.024342 -1.684730
    52 1.099663 0.000000 0.000000 -0.007967 0.046800 -1.711623
    53 0.806015 -0.359835 -1.318335 1.200555 0.246503 -0.836612
    54 1.789780 0.000001 0.000000 0.046975 0.150711 0.289172
    55 1.207001 0.000000 0.000004 0.215981 -0.000002 0.942472
    56 3.643179 -1.117762 -6.586830 1.677301 0.043048 -2.001890
  time 12
    0 1.610982 -0.335943 36.457478 1.654691 -0.002893 0.088830
    1 -0.124999 3.345128 -2.981903 1.571034 0.102068 1.605270
    2 4.018331 0.000000 0.000000 -0.106760 -0.025395 0.176773
    3 3.518564 0.000000 0.000000 -0.041669 -0.029482 0.252288
    4 8.942642 0.000000 0.000000 -0.053968 -0.060342 0.228094
    5 3.307269 0.000000 -0.000004 3.137477 0.001222 0.577187
    6 3.593710 -0.000001 -0.000004 0.019603 -0.126054 1.080453
    7 1.999994 -3.000001 0.000004 -1.570793 0.000002 -1.326448
    8 2.033349 1.000771 -1.937607 -1.379170 1.273431 -3.055779
    9 6.028143 0.000002 -0.000004 1.659593 -0.126939 -0.752262
    10 11.692545 0.000000 0.000000 -0.000011 0.000000 -1.960982
    11 11.481701 0.000000 0.000000 -0.859193 0.300029 -0.015306
    12 2.676086 -1.712440 0.000000 -1.570792 0.000003 -1.570793
    13 2.033341 1.000767 1.937660 2.412174 -1.487397 2.120583
    14 6.028140 0.000002 0.000000 -1.416351 -0.310792 -0.954063
    15 11.692553 0.000000 0.000011 -0.000013 0.000000 -1.898216
    16 11.481667 0.000000 -0.000031 1.575391 -0.108951 -0.097558
    17 2.676086 -1.712440 0.000004 1.570793 0.000005 1.570793
    18 -3.890452 0.000004 0.000004 -0.979966 -0.177241 -1.933982
    19 17.848171 0.000000 0.000004 0.000009 0.000000 1.167714
    20 16.525251 0.000000 0.000004 -0.123600 -0.234197 -1.016835
    21 6.879454 0.000000 0.000008 -0.081280 -0.001695 -0.463504
    22 3.890452 -0.000004 -0.000004 -1.527406 -0.500110 -1.299304
    23 17.848175 0.000000 -0.000004 0.000010 0.000000 0.644143
    24 16.525246 0.000000 0.000004 -0.341547 0.018554 -1.122981
    25 6.879452 0.000000 0.000000 -0.006172 -0.003819 -0.786570
    26 3.859703 -0.142403 -1.191975 -0.568926 -0.013610 -1.526889
    27 1.312565 0.000001 0.000004 -0.086569 0.239740 -1.554263
    28 0.729362 0.000002 0.000004 -0.176890 0.315566 -1.429227
    29 3.942326 0.046774 -0.431438 0.030302 -0.060016 -1.757025
    30 1.539093 0.000001 0.000000 -0.058664 0.149390 -1.571935
    31 1.196320 -0.000001 0.000004 -0.107664 0.188367 -1.488369
    32 3.883686 -0.046767 0.431446 0.134425 0.056053 -1.771010
    33 1.719570 0.000002 0.000004 -0.030687 0.057172 -1.750786
    34 1.209183 -0.000001 -0.000004 -0.034239 0.059372 -1.537001
    35 3.859859 -0.137950 1.332462 0.524244 -0.087934 -1.819404
    36 1.719429 0.000002 0.000000 0.072023 -0.125294 -1.808387
    37 1.099670 0.000001 0.000004 0.072020 -0.125295 -0.669563
    38 0.806049 -0.348922 1.321259 -0.786558 -0.413953 -0.992027
    39 1.789787 0.000000 0.000004 0.004364 0.030239 0.718398
    40 1.207001 0.000000 -0.000004 0.102534 0.030239 0.502412
    41 3.859665 -0.132565 1.193108 0.693436 -0.009816 -1.600821
    42 1.312561 0.000000 0.000000 0.110761 -0.297055 -1.436131
    43 0.729366 0.000002 0.000000 0.157645 -0.341689 -1.408450
    44 3.942291 0.050330 0.431042 0.331339 -0.008608 -1.603808
    45 1.539097 0.000003 0.000000 0.050214 -0.153911 -1.591790
    46 1.196320 0.000000 0.000000 0.132534 -0.225778 -1.824887
    47 3.883648 -0.050325 -0.431044 -0.022374 -0.010304 -1.305812
    48 1.719574 -0.000005 0.000000 0.038733 -0.074557 -1.586292
    49 1.209183 -0.000001 0.000000 0.047506 -0.079997 -1.582140
    50 3.859825 -0.148935 -1.331284 -0.549076 -0.024863 -1.454250
    51 1.719425 0.000000 0.000000 -0.002107 0.024342 -1.684730
    52 1.099663 0.000000 0.000000 -0.007967 0.046800 -1.711623
    53 0.806015 -0.359835 -1.318335 1.200555 0.246503 -0.836612
    54 1.789780 0.000001 0.000000 0.046975 0.150711 0.289172
    55 1.207001 0.000000 0.000004 0.215981 -0.000002 0.942472
    56 3.643179 -1.117762 -6.586830 1.677301 0.043048 -2.001890
  time 13
    0 1.610982 -0.335943 37.336411 1.663240 -0.002043 0.134180
    1 -0.128905 3.345128 -2.981903 1.569378 0.102068 1.601510
    2 4.018331 0.000000 0.000000 -0.107657 -0.022759 0.171128
    3 3.518564 0.000000 0.000000 -0.043658 -0.028607 0.240339
    4 8.942642 0.000000 0.000000 -0.061766 -0.063147 0.231382
    5 3.307269 0.000000 -0.000004 3.137477 0.001222 0.577187
    6 3.593710 -0.000001 -0.000004 -0.002559 -0.143276 1.080031
    7 1.999994 -3.000001 0.000004 -1.570793 0.000002 -1.326448
    8 2.033349 1.000771 -1.937607 -1.376943 1.273310 -3.053583
    9 6.028143 0.000002 -0.000004 1.680179 -0.231560 -0.755124
    10 11.692545 0.000000 0.000000 -0.000011 0.000000 -1.957957
    11 11.481701 0.000000 0.000000 -0.861675 0.338867 -0.015845
    12 2.676086 -1.712440 0.000000 -1.570792 0.000003 -1.570793
    13 2.033341 1.000767 1.937660 2.412174 -1.487397 2.120583
    14 6.028140 0.000002 0.000000 -1.349239 -0.474343 -1.021149
    15 11.692553 0.000000 0.000011 -0.000013 0.000000 -1.814992
    16 11.481667 0.000000 -0.000031 1.575452 -0.108951 -0.097558
    17 2.676086 -1.712440 0.000004 1.570793 0.000005 1.570793
    18 -3.890452 0.000004 0.000004 -0.930107 -0.110586 -1.993498
    19 17.848171 0.000000 0.000004 0.000009 0.000000 0.939359
    20 16.525251 0.000000 0.000004 -0.058608 -0.335487 -1.028749
    21 6.879454 0.000000 0.000008 -0.080657 -0.002055 -0.560988
    22 3.890452 -0.000004 -0.000004 -1.557918 -0.474780 -1.210831
    23 17.848175 0.000000 -0.000004 0.000010 0.000000 0.543788
    24 16.525246 0.000000 0.000004 -0.347184 0.117776 -1.074145
    25 6.879452 0.000000 0.000000 -0.006736 -0.003915 -0.741415
    26 3.859703 -0.142403 -1.191975 -0.568926 -0.013610 -1.526889
    27 1.312565 0.000001 0.000004 -0.086569 0.239740 -1.554310
    28 0.729362 0.000002 0.000004 -0.176890 0.315566 -1.429227
    29 3.942326 0.046774 -0.431438 0.030302 -0.060016 -1.757025
    30 1.539093 0.000001 0.000000 -0.058664 0.149390 -1.571935
    31 1.196320 -0.000001 0.000004 -0.107664 0.188367 -1.488369
    32 3.883686 -0.046767 0.431446 0.134425 0.056053 -1.771010
    33 1.719570 0.000002 0.000004 -0.030687 0.057172 -1.750786
    34 1.209183 -0.000001 -0.000004 -0.034239 0.059372 -1.537001
    35 3.859859 -0.137950 1.332462 0.524244 -0.087934 -1.819404
    36 1.719429 0.000002 0.000000 0.072023 -0.125294 -1.808387
    37 1.099670 0.000001 0.000004 0.072020 -0.125295 -0.669563
    38 0.806049 -0.348922 1.321259 -0.786558 -0.413953 -0.992027
    39 1.789787 0.000000 0.000004 0.004364 0.030239 0.718398
    40 1.207001 0.000000 -0.000004 0.102534 0.030239 0.502412
    41 3.859665 -0.132565 1.193108 0.693436 -0.009816 -1.600821
    42 1.312561 0.000000 0.000000 0.110761 -0.297055 -1.436131
    43 0.729366 0.000002 0.000000 0.157645 -0.341689 -1.408450
    44 3.942291 0.050330 0.431042 0.331339 -0.008608 -1.603808
    45 1.539097 0.000003 0.000000 0.050214 -0.153911 -1.591790
    46 1.196320 0.000000 0.000000 0.132534 -0.225778 -1.824887
    47 3.883648 -0.050325 -0.431044 -0.022374 -0.010304 -1.305812
    48 1.719574 -0.000005 0.000000 0.038733 -0.074557 -1.586292
    49 1.209183 -0.000001 0.000000 0.047506 -0.079997 -1.582092
    50 3.859825 -0.148935 -1.331284 -0.549076 -0.024863 -1.454250
    51 1.719425 0.000000 0.000000 -0.002107 0.024342 -1.684730
    52 1.099663 0.000000 0.000000 -0.007967 0.046800 -1.711623
    53 0.806015 -0.359835 -1.318335 1.200555 0.246503 -0.836612
    54 1.789780 0.000001 0.000000 0.046975 0.150711 0.289172
    55 1.207001 0.000000 0.000004 0.215981 -0.000002 0.942472
    56 3.643179 -1.117762 -6.586830 1.677301 0.043048 -2.001890
  time 14
    0 1.610982 -0.335943 37.953617 1.673750 0.001277 0.167190
    1 -0.124999 3.345128 -2.981903 1.567966 0.102068 1.598294
    2 4.018331 0.000000 0.000000 -0.105750 -0.015916 0.165399
    3 3.518564 0.000000 0.000000 -0.043850 -0.026342 0.226533
    4 8.942642 0.000000 0.000000 -0.064340 -0.068372 0.235901
    5 3.307269 0.000000 -0.000004 3.137477 0.001222 0.577187
    6 3.593710 -0.000001 -0.000004 -0.024032 -0.156591 1.079820
    7 1.999994 -3.000001 0.000004 -1.570793 0.000002 -1.326448
    8 2.033349 1.000771 -1.937607 -1.375274 1.273230 -3.051674
    9 6.028143 0.000002 -0.000004 1.697640 -0.298552 -0.755407
    10 11.692545 0.000000 0.000000 -0.000011 0.000000 -1.951445
    11 11.481701 0.000000 0.000000 -0.863617 0.369723 -0.016336
    12 2.676086 -1.712440 0.000000 -1.570792 0.000003 -1.570793
    13 2.033341 1.000767 1.937660 2.412174 -1.487397 2.120583
    14 6.028140 0.000002 0.000000 -1.273884 -0.577250 -1.107554
    15 11.692553 0.000000 0.000011 -0.000013 0.000000 -1.745055
    16 11.481667 0.000000 -0.000031 1.575391 -0.108951 -0.097558
    17 2.676086 -1.712440 0.000004 1.570793 0.000005 1.570793
    18 -3.890452 0.000004 0.000004 -0.896061 -0.022253 -1.997845
    19 17.848171 0.000000 0.000004 0.000009 0.000000 0.654046
    20 16.525251 0.000000 0.000004 0.036777 -0.395667 -1.034179
    21 6.879454 0.000000 0.000008 -0.080105 -0.002342 -0.652129
    22 3.890452 -0.000004 -0.000004 -1.573909 -0.483700 -1.157280
    23 17.848175 0.000000 -0.000004 0.000010 0.000000 0.522189
    24 16.525246 0.000000 0.000004 -0.332689 0.191283 -1.042673
    25 6.879452 0.000000 0.000000 -0.007682 -0.003183 -0.584342
    26 3.859703 -0.142403 -1.191975 -0.568926 -0.013610 -1.526889
    27 1.312565 0.000001 0.000004 -0.086569 0.239740 -1.554263
    28 0.729362 0.000002 0.000004 -0.176890 0.315566 -1.429270
    29 3.942326 0.046774 -0.431438 0.030302 -0.060016 -1.757025
    30 1.539093 0.000001 0.000000 -0.058664 0.149390 -1.571935
    31 1.196320 -0.000001 0.000004 -0.107664 0.188367 -1.488369
    32 3.883686 -0.046767 0.431446 0.134425 0.056053 -1.771064
    33 1.719570 0.000002 0.000004 -0.030687 0.057172 -1.750786
    34 1.209183 -0.000001 -0.000004 -0.034239 0.059372 -1.537001
    35 3.859859 -0.137950 1.332462 0.524244 -0.087934 -1.819404
    36 1.719429 0.000002 0.000000 0.072023 -0.125294 -1.808387
    37 1.099670 0.000001 0.000004 0.072020 -0.125295 -0.669563
    38 0.806049 -0.348922 1.321259 -0.786558 -0.413953 -0.992027
    39 1.789787 0.000000 0.000004 0.004364 0.030239 0.718398
    40 1.207001 0.000000 -0.000004 0.102534 0.030239 0.502412
    41 3.859665 -0.132565 1.193108 0.693436 -0.009816 -1.600821
    42 1.312561 0.000000 0.000000 0.110761 -0.297055 -1.436131
    43 0.729366 0.000002 0.000000 0.157645 -0.341689 -1.408450
    44 3.942291 0.050330 0.431042 0.331339 -0.008608 -1.603808
    45 1.539097 0.000003 0.000000 0.050214 -0.153911 -1.591790
    46 1.196320 0.000000 0.000000 0.132534 -0.225778 -1.824887
    47 3.883648 -0.050325 -0.431044 -0.022374 -0.010304 -1.305812
    48 1.719574 -0.000005 0.000000 0.038733 -0.074557 -1.586292
    49 1.209183 -0.000001 0.000000 0.047506 -0.079997 -1.582092
    50 3.859825 -0.148935 -1.331284 -0.549076 -0.024863 -1.454250
    51 1.719425 0.000000 0.000000 -0.002107 0.024342 -1.684730
    52 1.099663 0.000000 0.000000 -0.007967 0.046800 -1.711623
    53 0.806015 -0.359835 -1.318335 1.200555 0.246503 -0.836612
    54 1.789780 0.000001 0.000000 0.046975 0.150711 0.289172
    55 1.207001 0.000000 0.000004 0.215981 -0.000002 0.942472
    56 3.643179 -1.117762 -6.586830 1.677301 0.043048 -2.001890
  time 15
    0 1.610982 -0.335943 38.066902 1.683606 0.006227 0.185663
    1 -0.124999 3.345128 -2.981903 1.567236 0.102056 1.596365
    2 4.018331 0.000000 0.000000 -0.101394 -0.005309 0.160078
    3 3.518564 0.000000 0.000000 -0.042148 -0.022603 0.214249
    4 8.942642 0.000000 0.000000 -0.062251 -0.075395 0.240373
    5 3.307269 0.000000 -0.000004 3.137477 0.001222 0.577187
    6 3.593710 -0.000001 -0.000004 -0.043803 -0.164596 1.079926
    7 1.999994 -3.000001 0.000004 -1.570793 0.000002 -1.326448
    8 2.033349 1.000771 -1.937607 -1.374253 1.273150 -3.050623
    9 6.028143 0.000002 -0.000004 1.710690 -0.323644 -0.748163
    10 11.692545 0.000000 0.000000 -0.000011 0.000000 -1.950788
    11 11.481701 0.000000 0.000000 -0.864750 0.386640 -0.016630
    12 2.676086 -1.712440 0.000000 -1.570792 0.000003 -1.570793
    13 2.033341 1.000767 1.937660 2.412174 -1.487397 2.120583
    14 6.028140 0.000002 0.000000 -1.221387 -0.619884 -1.160083
    15 11.692553 0.000000 0.000011 -0.000013 0.000000 -1.716941
    16 11.481667 0.000000 -0.000031 1.575391 -0.108951 -0.097558
    17 2.676086 -1.712440 0.000004 1.570793 0.000005 1.570793
    18 -3.890452 0.000004 0.000004 -0.871869 0.082850 -1.951306
    19 17.848171 0.000000 0.000004 0.000009 0.000000 0.321118
    20 16.525251 0.000000 0.000004 0.126592 -0.416668 -0.997380
    21 6.879454 0.000000 0.000008 -0.079698 -0.002558 -0.726895
    22 3.890452 -0.000004 -0.000004 -1.590878 -0.584012 -1.116241
    23 17.848175 0.000000 -0.000004 0.000010 0.000000 0.688781
    24 16.525246 0.000000 0.000004 -0.281488 0.272856 -1.011381
    25 6.879452 0.000000 0.000000 -0.008989 -0.000043 -0.132798
    26 3.859703 -0.142403 -1.191975 -0.568926 -0.013610 -1.526889
    27 1.312565 0.000001 0.000004 -0.086569 0.239740 -1.554310
    28 0.729362 0.000002 0.000004 -0.176890 0.315566 -1.429227
    29 3.942326 0.046774 -0.431438 0.030302 -0.060016 -1.757025
    30 1.539093 0.000001 0.000000 -0.058664 0.149390 -1.571935
    31 1.196320 -0.000001 0.000004 -0.107664 0.188367 -1.488369
    32 3.883686 -0.046767 0.431446 0.134425 0.056053 -1.771010
    33 1.719570 0.000002 0.000004 -0.030687 0.057172 -1.750786
    34 1.209183 -0.000001 -0.000004 -0.034239 0.059372 -1.537001
    35 3.859859 -0.137950 1.332462 0.524244 -0.087934 -1.819404
    36 1.719429 0.000002 0.000000 0.072023 -0.125294 -1.808387
    37 1.099670 0.000001 0.000004 0.072020 -0.125295 -0.669563
    38 0.806049 -0.348922 1.321259 -0.786558 -0.413953 -0.992027
    39 1.789787 0.000000 0.000004 0.004364 0.030239 0.718398
    40 1.207001 0.000000 -0.000004 0.102534 0.030239 0.502412
    41 3.859665 -0.132565 1.193108 0.693436 -0.009816 -1.600821
    42 1.312561 0.000000 0.000000 0.110761 -0.297055 -1.436131
    43 0.729366 0.000002 0.000000 0.157645 -0.341689 -1.408450
    44 3.942291 0.050330 0.431042 0.331339 -0.008608 -1.603808
    45 1.539097 0.000003 0.000000 0.050214 -0.153911 -1.591790
    46 1.196320 0.000000 0.000000 0.132534 -0.225778 -1.824887
    47 3.883648 -0.050325 -0.431044 -0.022374 -0.010304 -1.305812
    48 1.719574 -0.000005 0.000000 0.038733 -0.074557 -1.586292
    49 1.209183 -0.000001 0.000000 0.047506 -0.079997 -1.582092
    50 3.859825 -0.148935 -1.331284 -0.549076 -0.024863 -1.454250
    51 1.719425 0.000000 0.000000 -0.002107 0.024342 -1.684730
    52 1.099663 0.000000 0.000000 -0.007967 0.046800 -1.711623
    53 0.806015 -0.359835 -1.318335 1.200555 0.246503 -0.836612
    54 1.789780 0.000001 0.000000 0.046975 0.150711 0.289172
    55 1.207001 0.000000 0.000004 0.215981 -0.000002 0.942472
    56 3.643179 -1.117762 -6.586830 1.677301 0.043048 -2.001890
  time 16
    0 1.610982 -0.335943 37.566887 1.689814 0.012087 0.192931
    1 -0.124999 3.345128 -2.981903 1.567382 0.102068 1.596563
    2 4.018331 0.000000 0.000000 -0.095075 0.008114 0.155620
    3 3.518564 0.000000 0.000000 -0.038625 -0.017210 0.204996
    4 8.942642 0.000000 0.000000 -0.056249 -0.083461 0.243569
    5 3.307269 0.000000 -0.000004 3.137477 0.001222 0.577187
    6 3.593710 -0.000001 -0.000004 -0.060034 -0.158256 1.080489
    7 1.999994 -3.000001 0.000004 -1.570793 0.000002 -1.326448
    8 2.033349 1.000771 -1.937607 -1.374068 1.273150 -3.050433
    9 6.028143 0.000002 -0.000004 1.719880 -0.308143 -0.732578
    10 11.692545 0.000000 0.000000 -0.000011 0.000000 -1.955457
    11 11.481701 0.000000 0.000000 -0.864642 0.385689 -0.016630
    12 2.676086 -1.712440 0.000000 -1.570792 0.000003 -1.570793
    13 2.033341 1.000767 1.937660 2.412174 -1.487397 2.120583
    14 6.028140 0.000002 0.000000 -1.202037 -0.589224 -1.160083
    15 11.692553 0.000000 0.000011 -0.000013 0.000000 -1.749671
    16 11.481667 0.000000 -0.000031 1.575391 -0.108951 -0.097558
    17 2.676086 -1.712440 0.000004 1.570793 0.000005 1.570793
    18 -3.890452 0.000004 0.000004 -0.857590 0.140892 -1.903041
    19 17.848171 0.000000 0.000004 0.000009 0.000000 0.112272
    20 16.525251 0.000000 0.000004 0.169803 -0.411915 -0.957062
    21 6.879454 0.000000 0.000008 -0.079434 -0.002714 -0.781146
    22 3.890452 -0.000004 -0.000004 -1.609969 -0.726906 -1.080563
    23 17.848175 0.000000 -0.000004 0.000010 0.000000 0.957670
    24 16.525246 0.000000 0.000004 -0.199833 0.336707 -0.992872
    25 6.879452 0.000000 0.000000 -0.009037 -0.000403 -0.179722
    26 3.859703 -0.142403 -1.191975 -0.568926 -0.013610 -1.526889
    27 1.312565 0.000001 0.000004 -0.086569 0.239740 -1.554263
    28 0.729362 0.000002 0.000004 -0.176890 0.315566 -1.429227
    29 3.942326 0.046774 -0.431438 0.030302 -0.060016 -1.757025
    30 1.539093 0.000001 0.000000 -0.058664 0.149390 -1.571935
    31 1.196320 -0.000001 0.000004 -0.107664 0.188367 -1.488369
    32 3.883686 -0.046767 0.431446 0.134425 0.056053 -1.771010
    33 1.719570 0.000002 0.000004 -0.030687 0.057172 -1.750786
    34 1.209183 -0.000001 -0.000004 -0.034239 0.059372 -1.537001
    35 3.859859 -0.137950 1.332462 0.524244 -0.087934 -1.819404
    36 1.719429 0.000002 0.000000 0.072023 -0.125294 -1.808387
    37 1.099670 0.000001 0.000004 0.072020 -0.125295 -0.669563
    38 0.806049 -0.348922 1.321259 -0.786558 -0.413953 -0.992027
    39 1.789787 0.000000 0.000004 0.004364 0.030239 0.718398
    40 1.207001 0.000000 -0.000004 0.102534 0.030239 0.502412
    41 3.859665 -0.132565 1.193108 0.693436 -0.009816 -1.600821
    42 1.312561 0.000000 0.000000 0.110761 -0.297055 -1.436131
    43 0.729366 0.000002 0.000000 0.157645 -0.341689 -1.408450
    44 3.942291 0.050330 0.431042 0.331339 -0.008596 -1.603808
    45 1.539097 0.000003 0.000000 0.050214 -0.153911 -1.591790
    46 1.196320 0.000000 0.000000 0.132534 -0.225778 -1.824887
    47 3.883648 -0.050325 -0.431044 -0.022374 -0.010304 -1.305812
    48 1.719574 -0.000005 0.000000 0.038733 -0.074557 -1.586292
    49 1.209183 -0.000001 0.000000 0.047506 -0.079997 -1.582092
    50 3.859825 -0.148935 -1.331284 -0.549076 -0.024863 -1.454250
    51 1.719425 0.000000 0.000000 -0.002107 0.024342 -1.684730
    52 1.099663 0.000000 0.000000 -0.007967 0.046800 -1.711623
    53 0.806015 -0.359835 -1.318335 1.200555 0.246503 -0.836612
    54 1.789780 0.000001 0.000000 0.046975 0.150711 0.289172
    55 1.207001 0.000000 0.000004 0.215981 -0.000002 0.942472
    56 3.643179 -1.117762 -6.586830 1.677301 0.043048 -2.001890
  time 17
    0 1.610982 -0.335943 36.660609 1.684477 0.018367 0.192325
    1 -0.124999 3.345128 -2.981903 1.568161 0.102068 1.598443
    2 4.018331 0.000000 0.000000 -0.087297 0.022939 0.157358
    3 3.518564 0.000000 0.000000 -0.033376 -0.009779 0.206782
    4 8.942642 0.000000 0.000000 -0.047087 -0.091850 0.245029
    5 3.307269 0.000000 -0.000004 3.137477 0.001222 0.577187
    6 3.593710 -0.000001 -0.000004 -0.071805 -0.136169 1.081509
    7 1.999994 -3.000001 0.000004 -1.570793 0.000002 -1.326448
    8 2.033349 1.000771 -1.937607 -1.374810 1.273190 -3.051196
    9 6.028143 0.000002 -0.000004 1.731092 -0.253531 -0.711057
    10 11.692545 0.000000 0.000000 -0.000011 0.000000 -1.956115
    11 11.481701 0.000000 0.000000 -0.863779 0.371655 -0.016385
    12 2.676086 -1.712440 0.000000 -1.570792 0.000003 -1.570793
    13 2.033341 1.000767 1.937660 2.412174 -1.487397 2.120583
    14 6.028140 0.000002 0.000000 -1.195840 -0.490432 -1.140882
    15 11.692553 0.000000 0.000011 -0.000013 0.000000 -1.825272
    16 11.481667 0.000000 -0.000031 1.575452 -0.108951 -0.097558
    17 2.676086 -1.712440 0.000004 1.570793 0.000005 1.570793
    18 -3.890452 0.000004 0.000004 -0.864729 0.125747 -1.840264
    19 17.848171 0.000000 0.000004 0.000009 0.000000 0.134397
    20 16.525251 0.000000 0.000004 0.178961 -0.347918 -1.115619
    21 6.879454 0.000000 0.000008 -0.080633 -0.002750 -0.653268
    22 3.890452 -0.000004 -0.000004 -1.616822 -0.862184 -1.063584
    23 17.848175 0.000000 -0.000004 0.000010 0.000000 1.236888
    24 16.525246 0.000000 0.000004 -0.100827 0.365351 -0.952718
    25 6.879452 0.000000 0.000000 -0.008905 -0.001278 -0.291724
    26 3.859703 -0.142403 -1.191975 -0.568926 -0.013610 -1.526889
    27 1.312565 0.000001 0.000004 -0.086569 0.239740 -1.554263
    28 0.729362 0.000002 0.000004 -0.176890 0.315566 -1.429270
    29 3.942326 0.046774 -0.431438 0.030302 -0.060016 -1.757025
    30 1.539093 0.000001 0.000000 -0.058664 0.149390 -1.571935
    31 1.196320 -0.000001 0.000004 -0.107664 0.188367 -1.488369
    32 3.883686 -0.046767 0.431446 0.134425 0.056053 -1.771010
    33 1.719570 0.000002 0.000004 -0.030687 0.057172 -1.750786
    34 1.209183 -0.000001 -0.000004 -0.034239 0.059372 -1.537001
    35 3.859859 -0.137950 1.332462 0.524244 -0.087934 -1.819404
    36 1.719429 0.000002 0.000000 0.072023 -0.125294 -1.808387
    37 1.099670 0.000001 0.000004 0.072020 -0.125295 -0.669563
    38 0.806049 -0.348922 1.321259 -0.786558 -0.413953 -0.992027
    39 1.789787 0.000000 0.000004 0.004364 0.030239 0.718398
    40 1.207001 0.000000 -0.000004 0.102534 0.030239 0.502412
    41 3.859665 -0.132565 1.193108 0.693436 -0.009816 -1.600821
    42 1.312561 0.000000 0.000000 0.110761 -0.297055 -1.436131
    43 0.729366 0.000002 0.000000 0.157645 -0.341689 -1.408450
    44 3.942291 0.050330 0.431042 0.331339 -0.008596 -1.603808
    45 1.539097 0.000003 0.000000 0.050214 -0.153911 -1.591790
    46 1.196320 0.000000 0.000000 0.132534 -0.225778 -1.824887
    47 3.883648 -0.050325 -0.431044 -0.022374 -0.010304 -1.305812
    48 1.719574 -0.000005 0.000000 0.038733 -0.074557 -1.586292
    49 1.209183 -0.000001 0.000000 0.047506 -0.079997 -1.582092
    50 3.859825 -0.148935 -1.331284 -0.549076 -0.024863 -1.454250
    51 1.719425 0.000000 0.000000 -0.002107 0.024342 -1.684730
    52 1.099663 0.000000 0.000000 -0.007967 0.046800 -1.711623
    53 0.806015 -0.359835 -1.318335 1.200555 0.246503 -0.836612
    54 1.789780 0.000001 0.000000 0.046975 0.150711 0.289172
    55 1.207001 0.000000 0.000004 0.215981 -0.000002 0.942472
    56 3.643179 -1.117762 -6.586830 1.677301 0.043048 -2.001890
  time 18
    0 1.610982 -0.335943 35.891055 1.667978 0.024695 0.184073
    1 -0.124999 3.345128 -2.981903 1.569671 0.102068 1.601757
    2 4.018331 0.000000 0.000000 -0.078547 0.037368 0.163638
    3 3.518564 0.000000 0.000000 -0.026592 -0.001606 0.223081
    4 8.942642 0.000000 0.000000 -0.035503 -0.099844 0.245444
    5 3.307269 0.000000 -0.000004 3.137477 0.001222 0.577187
    6 3.593710 -0.000001 -0.000004 -0.079576 -0.108149 1.082459
    7 1.999994 -3.000001 0.000004 -1.570793 0.000002 -1.326448
    8 2.033349 1.000771 -1.937607 -1.376665 1.273310 -3.053297
    9 6.028143 0.000002 -0.000004 1.746715 -0.164080 -0.685047
    10 11.692545 0.000000 0.000000 -0.000011 0.000000 -1.945394
    11 11.481701 0.000000 0.000000 -0.862538 0.351951 -0.016042
    12 2.676086 -1.712440 0.000000 -1.570792 0.000003 -1.570793
    13 2.033341 1.000767 1.937660 2.412174 -1.487397 2.120583
    14 6.028140 0.000002 0.000000 -1.196249 -0.346679 -1.103066
    15 11.692553 0.000000 0.000011 -0.000013 0.000000 -1.911644
    16 11.481667 0.000000 -0.000031 1.575452 -0.108951 -0.097558
    17 2.676086 -1.712440 0.000004 1.570793 0.000005 1.570793
    18 -3.890452 0.000004 0.000004 -0.896828 -0.038796 -1.819744
    19 17.848171 0.000000 0.000004 0.000009 0.000000 0.576681
    20 16.525251 0.000000 0.000004 0.102370 -0.250240 -1.455706
    21 6.879454 0.000000 0.000008 -0.081376 -0.002822 -0.597650
    22 3.890452 -0.000004 -0.000004 -1.583128 -0.960140 -1.104829
    23 17.848175 0.000000 -0.000004 0.000010 0.000000 1.468715
    24 16.525246 0.000000 0.000004 -0.018235 0.340215 -0.891582
    25 6.879452 0.000000 0.000000 -0.008581 -0.002285 -0.425417
    26 3.859703 -0.142403 -1.191975 -0.568926 -0.013610 -1.526889
    27 1.312565 0.000001 0.000004 -0.086569 0.239740 -1.554310
    28 0.729362 0.000002 0.000004 -0.176890 0.315566 -1.429227
    29 3.942326 0.046774 -0.431438 0.030302 -0.060016 -1.757025
    30 1.539093 0.000001 0.000000 -0.058664 0.149390 -1.571935
    31 1.196320 -0.000001 0.000004 -0.107664 0.188367 -1.488369
    32 3.883686 -0.046767 0.431446 0.134425 0.056053 -1.771010
    33 1.719570 0.000002 0.000004 -0.030687 0.057172 -1.750786
    34 1.209183 -0.000001 -0.000004 -0.034239 0.059372 -1.537001
    35 3.859859 -0.137950 1.332462 0.524244 -0.087934 -1.819404
    36 1.719429 0.000002 0.000000 0.072023 -0.125294 -1.808387
    37 1.099670 0.000001 0.000004 0.072020 -0.125295 -0.669563
    38 0.806049 -0.348922 1.321259 -0.786558 -0.413953 -0.992027
    39 1.789787 0.000000 0.000004 0.004364 0.030239 0.718398
    40 1.207001 0.000000 -0.000004 0.102534 0.030239 0.502412
    41 3.859665 -0.132565 1.193108 0.693436 -0.009816 -1.600821
    42 1.312561 0.000000 0.000000 0.110761 -0.297055 -1.436131
    43 0.729366 0.000002 0.000000 0.157645 -0.341689 -1.408450
    44 3.942291 0.050330 0.431042 0.331339 -0.008608 -1.603808
    45 1.539097 0.000003 0.000000 0.050214 -0.153911 -1.591790
    46 1.196320 0.000000 0.000000 0.132534 -0.225778 -1.824887
    47 3.883648 -0.050325 -0.431044 -0.022374 -0.010304 -1.305812
    48 1.719574 -0.000005 0.000000 0.038733 -0.074557 -1.586292
    49 1.209183 -0.000001 0.000000 0.047506 -0.079997 -1.582092
    50 3.859825 -0.148935 -1.331284 -0.549076 -0.024863 -1.454250
    51 1.719425 0.000000 0.000000 -0.002107 0.024342 -1.684730
    52 1.099663 0.000000 0.000000 -0.007967 0.046800 -1.711623
    53 0.806015 -0.359835 -1.318335 1.200555 0.246503 -0.836612
    54 1.789780 0.000001 0.000000 0.046975 0.150711 0.289172
    55 1.207001 0.000000 0.000004 0.215981 -0.000002 0.942472
    56 3.643179 -1.117762 -6.586830 1.677301 0.043048 -2.001890
  time 19
    0 1.610982 -0.335943 35.457448 1.654418 0.030819 0.167795
    1 -0.124999 3.345128 -2.981903 1.571326 0.102068 1.605814
    2 4.018331 0.000000 0.000000 -0.069368 0.049472 0.171835
    3 3.518564 0.000000 0.000000 -0.018551 0.005513 0.244689
    4 8.942642 0.000000 0.000000 -0.022417 -0.106675 0.245337
    5 3.307269 0.000000 -0.000004 3.137477 0.001222 0.577187
    6 3.593710 -0.000001 -0.000004 -0.083806 -0.084084 1.082987
    7 1.999994 -3.000001 0.000004 -1.570793 0.000002 -1.326448
    8 2.033349 1.000771 -1.937607 -1.379819 1.273471 -3.056542
    9 6.028143 0.000002 -0.000004 1.767209 -0.044829 -0.657483
    10 11.692545 0.000000 0.000000 -0.000011 0.000000 -1.917704
    11 11.481701 0.000000 0.000000 -0.860973 0.328350 -0.015649
    12 2.676086 -1.712440 0.000000 -1.570792 0.000003 -1.570793
    13 2.033341 1.000767 1.937660 2.412174 -1.487397 2.120583
    14 6.028140 0.000002 0.000000 -1.198412 -0.178540 -1.050107
    15 11.692553 0.000000 0.000011 -0.000013 0.000000 -1.978014
    16 11.481667 0.000000 -0.000031 1.575391 -0.108951 -0.097558
    17 2.676086 -1.712440 0.000004 1.570793 0.000005 1.570793
    18 -3.890452 0.000004 0.000004 -0.939076 -0.110871 -1.693360
    19 17.848171 0.000000 0.000004 0.000009 0.000000 0.715414
    20 16.525251 0.000000 0.000004 0.001363 -0.146201 -1.601896
    21 6.879454 0.000000 0.000008 -0.081328 -0.002906 -0.612010
    22 3.890452 -0.000004 -0.000004 -1.490449 -1.020984 -1.236335
    23 17.848175 0.000000 -0.000004 0.000010 0.000000 1.639752
    24 16.525246 0.000000 0.000004 0.005513 0.262748 -0.842082
    25 6.879452 0.000000 0.000000 -0.008186 -0.003076 -0.537418
    26 3.859703 -0.142403 -1.191975 -0.568926 -0.013610 -1.526889
    27 1.312565 0.000001 0.000004 -0.086569 0.239740 -1.554263
    28 0.729362 0.000002 0.000004 -0.176890 0.315566 -1.429270
    29 3.942326 0.046774 -0.431438 0.030302 -0.060016 -1.757025
    30 1.539093 0.000001 0.000000 -0.058664 0.149390 -1.571935
    31 1.196320 -0.000001 0.000004 -0.107664 0.188367 -1.488369
    32 3.883686 -0.046767 0.431446 0.134425 0.056053 -1.771010
    33 1.719570 0.000002 0.000004 -0.030687 0.057172 -1.750786
    34 1.209183 -0.000001 -0.000004 -0.034239 0.059372 -1.537001
    35 3.859859 -0.137950 1.332462 0.524244 -0.087934 -1.819404
    36 1.719429 0.000002 0.000000 0.072023 -0.125294 -1.808387
    37 1.099670 0.000001 0.000004 0.072020 -0.125295 -0.669563
    38 0.806049 -0.348922 1.321259 -0.786558 -0.413953 -0.992027
    39 1.789787 0.000000 0.000004 0.004364 0.030239 0.718398
    40 1.207001 0.000000 -0.000004 0.102534 0.030239 0.502412
    41 3.859665 -0.132565 1.193108 0.693436 -0.009816 -1.600821
    42 1.312561 0.000000 0.000000 0.110761 -0.297055 -1.436131
    43 0.729366 0.000002 0.000000 0.157645 -0.341689 -1.408450
    44 3.942291 0.050330 0.431042 0.331339 -0.008608 -1.603808
    45 1.539097 0.000003 0.000000 0.050214 -0.153911 -1.591790
    46 1.196320 0.000000 0.000000 0.132534 -0.225778 -1.824887
    47 3.883648 -0.050325 -0.431044 -0.022374 -0.010304 -1.305812
    48 1.719574 -0.000005 0.000000 0.038733 -0.074557 -1.586292
    49 1.209183 -0.000001 0.000000 0.047506 -0.079997 -1.582092
    50 3.859825 -0.148935 -1.331284 -0.549076 -0.024863 -1.454250
    51 1.719425 0.000000 0.000000 -0.002107 0.024342 -1.684730
    52 1.099663 0.000000 0.000000 -0.007967 0.046800 -1.711623
    53 0.806015 -0.359835 -1.318335 1.200555 0.246503 -0.836612
    54 1.789780 0.000001 0.000000 0.046975 0.150711 0.289172
    55 1.207001 0.000000 0.000004 0.215981 -0.000002 0.942472
    56 3.643179 -1.117762 -6.586830 1.677301 0.043048 -2.001890
  time 20
    0 1.610982 -0.335943 35.320725 1.650117 0.036512 0.140389
    1 -0.124999 3.345128 -2.981903 1.572056 0.102068 1.609722
    2 4.018331 0.000000 0.000000 -0.060263 0.057730 0.175898
    3 3.518564 0.000000 0.000000 -0.009574 0.008881 0.255488
    4 8.942642 0.000000 0.000000 -0.009228 -0.111433 0.245198
    5 3.307269 0.000000 -0.000004 3.137477 0.001222 0.577187
    6 3.593710 -0.000001 -0.000004 -0.085139 -0.073861 1.083163
    7 1.999994 -3.000001 0.000004 -1.570793 0.000002 -1.326448
    8 2.033349 1.000771 -1.937607 -1.384457 1.273752 -3.061316
    9 6.028143 0.000002 -0.000004 1.749472 0.131596 -0.749117
    10 11.692545 0.000000 0.000000 -0.000011 0.000000 -1.936121
    11 11.481701 0.000000 0.000000 -0.859193 0.299934 -0.015306
    12 2.676086 -1.712440 0.000000 -1.570792 0.000003 -1.570793
    13 2.033341 1.000767 1.937660 2.412174 -1.487397 2.120583
    14 6.028140 0.000002 0.000000 -1.277626 0.043565 -0.865473
    15 11.692553 0.000000 0.000011 -0.000013 0.000000 -1.990253
    16 11.481667 0.000000 -0.000031 1.575452 -0.108951 -0.097558
    17 2.676086 -1.712440 0.000004 1.570793 0.000005 1.570793
    18 -3.890452 0.000004 0.000004 -0.978255 -0.128383 -1.638766
    19 17.848171 0.000000 0.000004 0.000009 0.000000 0.730289
    20 16.525251 0.000000 0.000004 -0.033024 -0.111292 -1.632008
    21 6.879454 0.000000 0.000008 -0.081316 -0.002942 -0.617063
    22 3.890452 -0.000004 -0.000004 -1.330218 -1.037688 -1.479617
    23 17.848175 0.000000 -0.000004 0.000010 0.000000 1.748058
    24 16.525246 0.000000 0.000004 -0.058338 0.138553 -0.847448
    25 6.879452 0.000000 0.000000 -0.007982 -0.003387 -0.584342
    26 3.859703 -0.142403 -1.191975 -0.568926 -0.013610 -1.526889
    27 1.312565 0.000001 0.000004 -0.086569 0.239740 -1.554310
    28 0.729362 0.000002 0.000004 -0.176890 0.315566 -1.429227
    29 3.942326 0.046774 -0.431438 0.030302 -0.060016 -1.757025
    30 1.539093 0.000001 0.000000 -0.058664 0.149390 -1.571935
    31 1.196320 -0.000001 0.000004 -0.107664 0.188367 -1.488369
    32 3.883686 -0.046767 0.431446 0.134425 0.056053 -1.771010
    33 1.719570 0.000002 0.000004 -0.030687 0.057172 -1.750786
    34 1.209183 -0.000001 -0.000004 -0.034239 0.059372 -1.537001
    35 3.859859 -0.137950 1.332462 0.524244 -0.087934 -1.819404
    36 1.719429 0.000002 0.000000 0.072023 -0.125294 -1.808387
    37 1.099670 0.000001 0.000004 0.072020 -0.125295 -0.669563
    38 0.806049 -0.348922 1.321259 -0.786558 -0.413953 -0.992027
    39 1.789787 0.000000 0.000004 0.004364 0.030239 0.718398
    40 1.207001 0.000000 -0.000004 0.102534 0.030239 0.502412
    41 3.859665 -0.132565 1.193108 0.693436 -0.009816 -1.600821
    42 1.312561 0.000000 0.000000 0.110761 -0.297055 -1.436131
    43 0.729366 0.000002 0.000000 0.157645 -0.341689 -1.408450
    44 3.942291 0.050330 0.431042 0.331339 -0.008608 -1.603808
    45 1.539097 0.000003 0.000000 0.050214 -0.153911 -1.591790
    46 1.196320 0.000000 0.000000 0.132534 -0.225778 -1.824887
    47 3.883648 -0.050325 -0.431044 -0.022374 -0.010304 -1.305812
    48 1.719574 -0.000005 0.000000 0.038733 -0.074557 -1.586292
    49 1.209183 -0.000001 0.000000 0.047506 -0.079997 -1.582092
    50 3.859825 -0.148935 -1.331284 -0.549076 -0.024863 -1.454250
    51 1.719425 0.000000 0.000000 -0.002107 0.024342 -1.684730
    52 1.099663 0.000000 0.000000 -0.007967 0.046800 -1.711623
    53 0.806015 -0.359835 -1.318335 1.200555 0.246503 -0.836612
    54 1.789780 0.000001 0.000000 0.046975 0.150711 0.289172
    55 1.207001 0.000000 0.000004 0.215981 -0.000002 0.942472
    56 3.643179 -1.117762 -6.586830 1.677301 0.043048 -2.001890
end
