// Created by Crowbar 0.71
version 1
nodes
  0 "ValveBiped.Bip01_Pelvis" -1
  1 "ValveBiped.Bip01_Spine" 0
  2 "ValveBiped.Bip01_Spine1" 1
  3 "ValveBiped.Bip01_Spine2" 2
  4 "ValveBiped.Bip01_Spine4" 3
  5 "ValveBiped.Bip01_Neck1" 4
  6 "ValveBiped.Bip01_Head1" 5
  7 "ValveBiped.forward" 6
  8 "ValveBiped.Bip01_R_Clavicle" 4
  9 "ValveBiped.Bip01_R_UpperArm" 8
  10 "ValveBiped.Bip01_R_Forearm" 9
  11 "ValveBiped.Bip01_R_Hand" 10
  12 "ValveBiped.Anim_Attachment_RH" 11
  13 "ValveBiped.Bip01_L_Clavicle" 4
  14 "ValveBiped.Bip01_L_UpperArm" 13
  15 "ValveBiped.Bip01_L_Forearm" 14
  16 "ValveBiped.Bip01_L_Hand" 15
  17 "ValveBiped.Anim_Attachment_LH" 16
  18 "ValveBiped.Bip01_R_Thigh" 0
  19 "ValveBiped.Bip01_R_Calf" 18
  20 "ValveBiped.Bip01_R_Foot" 19
  21 "ValveBiped.Bip01_R_Toe0" 20
  22 "ValveBiped.Bip01_L_Thigh" 0
  23 "ValveBiped.Bip01_L_Calf" 22
  24 "ValveBiped.Bip01_L_Foot" 23
  25 "ValveBiped.Bip01_L_Toe0" 24
  26 "ValveBiped.Bip01_L_Finger4" 16
  27 "ValveBiped.Bip01_L_Finger41" 26
  28 "ValveBiped.Bip01_L_Finger42" 27
  29 "ValveBiped.Bip01_L_Finger3" 16
  30 "ValveBiped.Bip01_L_Finger31" 29
  31 "ValveBiped.Bip01_L_Finger32" 30
  32 "ValveBiped.Bip01_L_Finger2" 16
  33 "ValveBiped.Bip01_L_Finger21" 32
  34 "ValveBiped.Bip01_L_Finger22" 33
  35 "ValveBiped.Bip01_L_Finger1" 16
  36 "ValveBiped.Bip01_L_Finger11" 35
  37 "ValveBiped.Bip01_L_Finger12" 36
  38 "ValveBiped.Bip01_L_Finger0" 16
  39 "ValveBiped.Bip01_L_Finger01" 38
  40 "ValveBiped.Bip01_L_Finger02" 39
  41 "ValveBiped.Bip01_R_Finger4" 11
  42 "ValveBiped.Bip01_R_Finger41" 41
  43 "ValveBiped.Bip01_R_Finger42" 42
  44 "ValveBiped.Bip01_R_Finger3" 11
  45 "ValveBiped.Bip01_R_Finger31" 44
  46 "ValveBiped.Bip01_R_Finger32" 45
  47 "ValveBiped.Bip01_R_Finger2" 11
  48 "ValveBiped.Bip01_R_Finger21" 47
  49 "ValveBiped.Bip01_R_Finger22" 48
  50 "ValveBiped.Bip01_R_Finger1" 11
  51 "ValveBiped.Bip01_R_Finger11" 50
  52 "ValveBiped.Bip01_R_Finger12" 51
  53 "ValveBiped.Bip01_R_Finger0" 11
  54 "ValveBiped.Bip01_R_Finger01" 53
  55 "ValveBiped.Bip01_R_Finger02" 54
  56 "ValveBiped.baton_parent" 11
end
skeleton
  time 0
    0 1.610982 -0.335943 35.320725 1.650117 0.036512 0.140389
    1 -0.124999 3.345128 -2.981903 1.577412 0.102068 1.622238
    2 4.018331 0.000000 0.000000 -0.056729 0.036769 0.161265
    3 3.518564 0.000000 0.000000 0.004196 0.011481 0.256770
    4 8.942642 0.000000 0.000000 0.033830 -0.101186 0.250362
    5 3.307269 0.000000 -0.000004 3.137477 0.001222 0.577187
    6 3.593710 -0.000001 -0.000004 -0.195123 -0.041431 1.067891
    7 1.999994 -3.000001 0.000004 -1.570793 0.000002 -1.326448
    8 2.033349 1.000771 -1.937607 -1.394662 1.274274 -3.072104
    9 6.028143 0.000002 -0.000004 1.791287 0.484744 -0.801419
    10 11.692545 0.000000 0.000000 -0.000011 0.000000 -1.685596
    11 11.481701 0.000000 0.000000 -0.859193 0.299934 -0.015306
    12 2.676086 -1.712440 0.000000 -1.570792 0.000003 -1.570793
    13 2.033341 1.000767 1.937660 2.412169 -1.487395 2.120588
    14 6.028140 0.000002 0.000000 -1.186019 0.406286 -0.724939
    15 11.692553 0.000000 0.000011 -0.000013 0.000000 -1.579586
    16 11.481667 0.000000 -0.000031 1.575391 -0.108951 -0.097558
    17 2.676086 -1.712440 0.000004 1.570795 0.000001 1.570795
    18 -3.890452 0.000004 0.000004 -1.001798 -0.128640 -1.542875
    19 17.848171 0.000000 0.000004 0.000009 0.000000 0.689775
    20 16.525251 0.000000 0.000004 -0.064778 -0.070723 -1.626478
    21 6.879454 0.000000 0.000008 -0.081316 -0.002942 -0.617063
    22 3.890452 -0.000004 -0.000004 -1.378189 -0.962707 -1.417817
    23 17.848175 0.000000 -0.000004 0.000010 0.000000 1.607635
    24 16.525246 0.000000 0.000004 -0.025819 -0.071969 -1.002338
    25 6.879452 0.000000 0.000000 -0.007982 -0.003387 -0.584342
    26 3.859703 -0.142403 -1.191975 -0.568926 -0.013610 -1.526889
    27 1.312565 0.000001 0.000004 -0.086569 0.239740 -1.554263
    28 0.729362 0.000002 0.000004 -0.176890 0.315566 -1.429227
    29 3.942326 0.046774 -0.431438 0.030309 -0.060027 -1.757075
    30 1.539093 0.000001 0.000000 -0.058663 0.149388 -1.571890
    31 1.196320 -0.000001 0.000004 -0.107662 0.188362 -1.488327
    32 3.883686 -0.046767 0.431446 0.134425 0.056053 -1.771010
    33 1.719570 0.000002 0.000004 -0.030687 0.057172 -1.750786
    34 1.209183 -0.000001 -0.000004 -0.034252 0.059379 -1.537043
    35 3.859859 -0.137950 1.332462 0.524258 -0.087937 -1.819439
    36 1.719429 0.000002 0.000000 0.072018 -0.125293 -1.808386
    37 1.099670 0.000001 0.000004 0.072020 -0.125295 -0.669563
    38 0.806049 -0.348922 1.321259 -0.786557 -0.413955 -0.992027
    39 1.789787 0.000000 0.000004 0.004363 0.030240 0.718398
    40 1.207001 0.000000 -0.000004 0.102533 0.030240 0.502412
    41 3.859665 -0.132565 1.193108 0.693436 -0.009816 -1.600821
    42 1.312561 0.000000 0.000000 0.110761 -0.297055 -1.436131
    43 0.729366 0.000002 0.000000 0.157637 -0.341681 -1.408413
    44 3.942291 0.050330 0.431042 0.331346 -0.008608 -1.603851
    45 1.539097 0.000003 0.000000 0.050214 -0.153911 -1.591790
    46 1.196320 0.000000 0.000000 0.132539 -0.225789 -1.824936
    47 3.883648 -0.050325 -0.431044 -0.022374 -0.010304 -1.305812
    48 1.719574 -0.000005 0.000000 0.038733 -0.074557 -1.586292
    49 1.209183 -0.000001 0.000000 0.047518 -0.079997 -1.582092
    50 3.859825 -0.148935 -1.331284 -0.549062 -0.024858 -1.454209
    51 1.719425 0.000000 0.000000 -0.002108 0.024344 -1.684730
    52 1.099663 0.000000 0.000000 -0.007967 0.046800 -1.711623
    53 0.806015 -0.359835 -1.318335 1.200555 0.246503 -0.836612
    54 1.789780 0.000001 0.000000 0.046975 0.150711 0.289172
    55 1.207001 0.000000 0.000004 0.215983 -0.000003 0.942472
    56 3.643179 -1.117762 -6.586830 1.677301 0.043060 -2.001890
  time 1
    0 1.610982 -0.335943 35.625421 1.653602 0.041917 0.083834
    1 -0.124999 3.345128 -2.981903 1.577364 0.102068 1.622089
    2 4.018331 0.000000 0.000000 -0.064712 0.024748 0.159095
    3 3.518564 0.000000 0.000000 -0.001928 0.006268 0.256794
    4 8.942642 0.000000 0.000000 0.024847 -0.092305 0.247181
    5 3.307269 0.000000 -0.000004 3.137477 0.001222 0.577187
    6 3.593710 -0.000001 -0.000004 -0.089691 -0.070505 1.067856
    7 1.999994 -3.000001 0.000004 -1.570793 0.000002 -1.326448
    8 2.033349 1.000771 -1.937607 -1.393641 1.274194 -3.070958
    9 6.028143 0.000002 -0.000004 1.712620 0.475171 -0.811349
    10 11.692545 0.000000 0.000000 -0.000011 0.000000 -1.716377
    11 11.481701 0.000000 0.000000 -0.857952 0.279310 -0.015061
    12 2.676086 -1.712440 0.000000 -1.570792 0.000003 -1.570793
    13 2.033341 1.000767 1.937660 2.412169 -1.487395 2.120588
    14 6.028140 0.000002 0.000000 -1.252254 0.456846 -0.768805
    15 11.692553 0.000000 0.000011 -0.000013 0.000000 -1.610288
    16 11.481667 0.000000 -0.000031 1.575391 -0.108951 -0.097558
    17 2.676086 -1.712440 0.000004 1.570795 0.000001 1.570795
    18 -3.890452 0.000004 0.000004 -1.038735 -0.190989 -1.734401
    19 17.848171 0.000000 0.000004 0.000009 0.000000 0.822079
    20 16.525251 0.000000 0.000004 0.030536 -0.157901 -1.492203
    21 6.879454 0.000000 0.000008 -0.080021 -0.002942 -0.741787
    22 3.890452 -0.000004 -0.000004 -1.620330 -0.888020 -1.130952
    23 17.848175 0.000000 -0.000004 0.000010 0.000000 1.461953
    24 16.525246 0.000000 0.000004 -0.007635 0.038518 -0.995766
    25 6.879452 0.000000 0.000000 -0.007862 -0.002944 -0.543510
    26 3.859703 -0.142403 -1.191975 -0.568926 -0.013610 -1.526889
    27 1.312565 0.000001 0.000004 -0.086569 0.239740 -1.554310
    28 0.729362 0.000002 0.000004 -0.176890 0.315566 -1.429227
    29 3.942326 0.046774 -0.431438 0.030309 -0.060027 -1.757075
    30 1.539093 0.000001 0.000000 -0.058663 0.149388 -1.571890
    31 1.196320 -0.000001 0.000004 -0.107662 0.188362 -1.488327
    32 3.883686 -0.046767 0.431446 0.134425 0.056053 -1.771010
    33 1.719570 0.000002 0.000004 -0.030687 0.057172 -1.750786
    34 1.209183 -0.000001 -0.000004 -0.034252 0.059379 -1.537043
    35 3.859859 -0.137950 1.332462 0.524258 -0.087937 -1.819439
    36 1.719429 0.000002 0.000000 0.072018 -0.125293 -1.808386
    37 1.099670 0.000001 0.000004 0.072020 -0.125295 -0.669563
    38 0.806049 -0.348922 1.321259 -0.786557 -0.413955 -0.992027
    39 1.789787 0.000000 0.000004 0.004363 0.030240 0.718398
    40 1.207001 0.000000 -0.000004 0.102533 0.030240 0.502412
    41 3.859665 -0.132565 1.193108 0.693436 -0.009816 -1.600821
    42 1.312561 0.000000 0.000000 0.110761 -0.297055 -1.436131
    43 0.729366 0.000002 0.000000 0.157637 -0.341681 -1.408413
    44 3.942291 0.050330 0.431042 0.331346 -0.008608 -1.603851
    45 1.539097 0.000003 0.000000 0.050214 -0.153911 -1.591790
    46 1.196320 0.000000 0.000000 0.132539 -0.225789 -1.824936
    47 3.883648 -0.050325 -0.431044 -0.022374 -0.010304 -1.305812
    48 1.719574 -0.000005 0.000000 0.038733 -0.074557 -1.586292
    49 1.209183 -0.000001 0.000000 0.047518 -0.079997 -1.582092
    50 3.859825 -0.148935 -1.331284 -0.549062 -0.024858 -1.454209
    51 1.719425 0.000000 0.000000 -0.002108 0.024344 -1.684730
    52 1.099663 0.000000 0.000000 -0.007967 0.046800 -1.711623
    53 0.806015 -0.359835 -1.318335 1.200555 0.246503 -0.836612
    54 1.789780 0.000001 0.000000 0.046975 0.150711 0.289172
    55 1.207001 0.000000 0.000004 0.215983 -0.000003 0.942472
    56 3.643179 -1.117762 -6.586830 1.677301 0.043060 -2.001890
  time 2
    0 1.610982 -0.335943 36.371538 1.661498 0.046471 0.018496
    1 -0.124999 3.345128 -2.981903 1.576779 0.102068 1.620655
    2 4.018331 0.000000 0.000000 -0.073556 0.012608 0.161852
    3 3.518564 0.000000 0.000000 -0.009718 0.001618 0.256554
    4 8.942642 0.000000 0.000000 0.013161 -0.083257 0.242663
    5 3.307269 0.000000 -0.000004 3.137477 0.001222 0.577187
    6 3.593710 -0.000001 -0.000004 0.033167 -0.104062 1.078448
    7 1.999994 -3.000001 0.000004 -1.570793 0.000002 -1.326448
    8 2.033349 1.000771 -1.937607 -1.391971 1.274113 -3.069239
    9 6.028143 0.000002 -0.000004 1.635699 0.447882 -0.800570
    10 11.692545 0.000000 0.000000 -0.000011 0.000000 -1.764325
    11 11.481701 0.000000 0.000000 -0.856711 0.258877 -0.014864
    12 2.676086 -1.712440 0.000000 -1.570792 0.000003 -1.570793
    13 2.033341 1.000767 1.937660 2.412169 -1.487395 2.120588
    14 6.028140 0.000002 0.000000 -1.345089 0.487539 -0.833276
    15 11.692553 0.000000 0.000011 -0.000013 0.000000 -1.687078
    16 11.481667 0.000000 -0.000031 1.575391 -0.108951 -0.097558
    17 2.676086 -1.712440 0.000004 1.570795 0.000001 1.570795
    18 -3.890452 0.000004 0.000004 -1.134441 -0.255791 -1.881561
    19 17.848171 0.000000 0.000004 0.000009 0.000000 0.816174
    20 16.525251 0.000000 0.000004 0.105730 -0.243118 -1.176297
    21 6.879454 0.000000 0.000008 -0.078535 -0.002894 -0.931894
    22 3.890452 -0.000004 -0.000004 -1.779337 -0.761283 -0.964112
    23 17.848175 0.000000 -0.000004 0.000010 0.000000 1.218733
    24 16.525246 0.000000 0.000004 -0.054560 0.089910 -0.876207
    25 6.879452 0.000000 0.000000 -0.007035 -0.002237 -0.517701
    26 3.859703 -0.142403 -1.191975 -0.568926 -0.013610 -1.526889
    27 1.312565 0.000001 0.000004 -0.086569 0.239740 -1.554310
    28 0.729362 0.000002 0.000004 -0.176890 0.315566 -1.429227
    29 3.942326 0.046774 -0.431438 0.030309 -0.060027 -1.757075
    30 1.539093 0.000001 0.000000 -0.058663 0.149388 -1.571890
    31 1.196320 -0.000001 0.000004 -0.107662 0.188362 -1.488327
    32 3.883686 -0.046767 0.431446 0.134425 0.056053 -1.771010
    33 1.719570 0.000002 0.000004 -0.030687 0.057172 -1.750786
    34 1.209183 -0.000001 -0.000004 -0.034252 0.059379 -1.537043
    35 3.859859 -0.137950 1.332462 0.524258 -0.087937 -1.819439
    36 1.719429 0.000002 0.000000 0.072018 -0.125293 -1.808386
    37 1.099670 0.000001 0.000004 0.072020 -0.125295 -0.669563
    38 0.806049 -0.348922 1.321259 -0.786557 -0.413955 -0.992027
    39 1.789787 0.000000 0.000004 0.004363 0.030240 0.718398
    40 1.207001 0.000000 -0.000004 0.102533 0.030240 0.502412
    41 3.859665 -0.132565 1.193108 0.693436 -0.009816 -1.600821
    42 1.312561 0.000000 0.000000 0.110761 -0.297055 -1.436131
    43 0.729366 0.000002 0.000000 0.157637 -0.341681 -1.408413
    44 3.942291 0.050330 0.431042 0.331346 -0.008608 -1.603851
    45 1.539097 0.000003 0.000000 0.050214 -0.153911 -1.591790
    46 1.196320 0.000000 0.000000 0.132539 -0.225789 -1.824936
    47 3.883648 -0.050325 -0.431044 -0.022374 -0.010304 -1.305812
    48 1.719574 -0.000005 0.000000 0.038733 -0.074557 -1.586292
    49 1.209183 -0.000001 0.000000 0.047518 -0.079997 -1.582092
    50 3.859825 -0.148935 -1.331284 -0.549062 -0.024858 -1.454209
    51 1.719425 0.000000 0.000000 -0.002108 0.024344 -1.684730
    52 1.099663 0.000000 0.000000 -0.007967 0.046800 -1.711623
    53 0.806015 -0.359835 -1.318335 1.200555 0.246503 -0.836612
    54 1.789780 0.000001 0.000000 0.046975 0.150711 0.289172
    55 1.207001 0.000000 0.000004 0.215983 -0.000003 0.942472
    56 3.643179 -1.117762 -6.586830 1.677301 0.043048 -2.001890
  time 3
    0 1.610982 -0.335943 37.234846 1.671408 0.049539 -0.043283
    1 -0.124999 3.345128 -2.981903 1.575806 0.102068 1.618330
    2 4.018331 0.000000 0.000000 -0.082474 0.001031 0.167473
    3 3.518564 0.000000 0.000000 -0.017975 -0.001750 0.255943
    4 8.942642 0.000000 0.000000 -0.000295 -0.074748 0.237637
    5 3.307269 0.000000 -0.000004 3.137477 0.001222 0.577187
    6 3.593710 -0.000001 -0.000004 0.132023 -0.131135 1.099139
    7 1.999994 -3.000001 0.000004 -1.570793 0.000002 -1.326448
    8 2.033349 1.000771 -1.937607 -1.389745 1.273993 -3.066853
    9 6.028143 0.000002 -0.000004 1.574126 0.400873 -0.774561
    10 11.692545 0.000000 0.000000 -0.000011 0.000000 -1.821546
    11 11.481701 0.000000 0.000000 -0.855471 0.238698 -0.014668
    12 2.676086 -1.712440 0.000000 -1.570792 0.000003 -1.570793
    13 2.033341 1.000767 1.937660 2.412169 -1.487395 2.120588
    14 6.028140 0.000002 0.000000 -1.447920 0.476206 -0.902080
    15 11.692553 0.000000 0.000011 -0.000013 0.000000 -1.783800
    16 11.481667 0.000000 -0.000031 1.575452 -0.108951 -0.097558
    17 2.676086 -1.712440 0.000004 1.570795 0.000001 1.570795
    18 -3.890452 0.000004 0.000004 -1.268088 -0.158560 -1.937754
    19 17.848171 0.000000 0.000004 0.000009 0.000000 0.459252
    20 16.525251 0.000000 0.000004 0.220668 -0.313931 -0.897189
    21 6.879454 0.000000 0.000008 -0.078547 -0.002654 -0.897816
    22 3.890452 -0.000004 -0.000004 -1.887762 -0.673931 -0.866153
    23 17.848175 0.000000 -0.000004 0.000010 0.000000 1.029165
    24 16.525246 0.000000 0.000004 -0.115352 0.103400 -0.741456
    25 6.879452 0.000000 0.000000 -0.005441 -0.002177 -0.660039
    26 3.859703 -0.142403 -1.191975 -0.568926 -0.013610 -1.526889
    27 1.312565 0.000001 0.000004 -0.086569 0.239740 -1.554263
    28 0.729362 0.000002 0.000004 -0.176890 0.315566 -1.429227
    29 3.942326 0.046774 -0.431438 0.030309 -0.060027 -1.757075
    30 1.539093 0.000001 0.000000 -0.058663 0.149388 -1.571890
    31 1.196320 -0.000001 0.000004 -0.107662 0.188362 -1.488327
    32 3.883686 -0.046767 0.431446 0.134425 0.056053 -1.771010
    33 1.719570 0.000002 0.000004 -0.030687 0.057172 -1.750786
    34 1.209183 -0.000001 -0.000004 -0.034252 0.059379 -1.537043
    35 3.859859 -0.137950 1.332462 0.524258 -0.087937 -1.819439
    36 1.719429 0.000002 0.000000 0.072018 -0.125293 -1.808386
    37 1.099670 0.000001 0.000004 0.072020 -0.125295 -0.669563
    38 0.806049 -0.348922 1.321259 -0.786557 -0.413955 -0.992027
    39 1.789787 0.000000 0.000004 0.004363 0.030240 0.718398
    40 1.207001 0.000000 -0.000004 0.102533 0.030240 0.502412
    41 3.859665 -0.132565 1.193108 0.693436 -0.009816 -1.600821
    42 1.312561 0.000000 0.000000 0.110761 -0.297055 -1.436131
    43 0.729366 0.000002 0.000000 0.157637 -0.341681 -1.408413
    44 3.942291 0.050330 0.431042 0.331346 -0.008608 -1.603851
    45 1.539097 0.000003 0.000000 0.050214 -0.153911 -1.591790
    46 1.196320 0.000000 0.000000 0.132539 -0.225789 -1.824936
    47 3.883648 -0.050325 -0.431044 -0.022374 -0.010304 -1.305812
    48 1.719574 -0.000005 0.000000 0.038733 -0.074557 -1.586292
    49 1.209183 -0.000001 0.000000 0.047518 -0.079997 -1.582092
    50 3.859825 -0.148935 -1.331284 -0.549062 -0.024858 -1.454209
    51 1.719425 0.000000 0.000000 -0.002108 0.024344 -1.684730
    52 1.099663 0.000000 0.000000 -0.007967 0.046800 -1.711623
    53 0.806015 -0.359835 -1.318335 1.200555 0.246503 -0.836612
    54 1.789780 0.000001 0.000000 0.046975 0.150711 0.289172
    55 1.207001 0.000000 0.000004 0.215983 -0.000003 0.942472
    56 3.643179 -1.117762 -6.586830 1.677301 0.043060 -2.001890
  time 4
    0 1.610982 -0.335943 37.906741 1.681428 0.050774 -0.089920
    1 -0.124999 3.345128 -2.981903 1.574588 0.102068 1.615361
    2 4.018331 0.000000 0.000000 -0.090812 -0.009300 0.174124
    3 3.518564 0.000000 0.000000 -0.025586 -0.003392 0.254840
    4 8.942642 0.000000 0.000000 -0.014707 -0.067557 0.232842
    5 3.307269 0.000000 -0.000004 3.137477 0.001222 0.577187
    6 3.593710 -0.000001 -0.000004 0.196625 -0.149040 1.122716
    7 1.999994 -3.000001 0.000004 -1.570793 0.000002 -1.326448
    8 2.033349 1.000771 -1.937607 -1.387148 1.273872 -3.064275
    9 6.028143 0.000002 -0.000004 1.535711 0.331387 -0.740211
    10 11.692545 0.000000 0.000000 -0.000011 0.000000 -1.877715
    11 11.481701 0.000000 0.000000 -0.854284 0.218391 -0.014521
    12 2.676086 -1.712440 0.000000 -1.570792 0.000003 -1.570793
    13 2.033341 1.000767 1.937660 2.412169 -1.487395 2.120588
    14 6.028140 0.000002 0.000000 -1.537130 0.409490 -0.953243
    15 11.692553 0.000000 0.000011 -0.000013 0.000000 -1.871850
    16 11.481667 0.000000 -0.000031 1.575452 -0.108951 -0.097558
    17 2.676086 -1.712440 0.000004 1.570795 0.000001 1.570795
    18 -3.890452 0.000004 0.000004 -1.388045 -0.224702 -2.019772
    19 17.848171 0.000000 0.000004 0.000009 0.000000 0.593948
    20 16.525251 0.000000 0.000004 0.235255 -0.310976 -0.864613
    21 6.879454 0.000000 0.000008 -0.079183 -0.002318 -0.758010
    22 3.890452 -0.000004 -0.000004 -1.947073 -0.597729 -0.829582
    23 17.848175 0.000000 -0.000004 0.000010 0.000000 0.880603
    24 16.525246 0.000000 0.000004 -0.158397 0.090217 -0.669528
    25 6.879452 0.000000 0.000000 -0.004710 -0.002165 -0.756069
    26 3.859703 -0.142403 -1.191975 -0.568926 -0.013610 -1.526889
    27 1.312565 0.000001 0.000004 -0.086569 0.239740 -1.554263
    28 0.729362 0.000002 0.000004 -0.176890 0.315566 -1.429227
    29 3.942326 0.046774 -0.431438 0.030309 -0.060027 -1.757075
    30 1.539093 0.000001 0.000000 -0.058663 0.149388 -1.571890
    31 1.196320 -0.000001 0.000004 -0.107662 0.188362 -1.488327
    32 3.883686 -0.046767 0.431446 0.134425 0.056053 -1.771010
    33 1.719570 0.000002 0.000004 -0.030687 0.057172 -1.750786
    34 1.209183 -0.000001 -0.000004 -0.034252 0.059379 -1.537043
    35 3.859859 -0.137950 1.332462 0.524258 -0.087937 -1.819439
    36 1.719429 0.000002 0.000000 0.072018 -0.125293 -1.808386
    37 1.099670 0.000001 0.000004 0.072020 -0.125295 -0.669563
    38 0.806049 -0.348922 1.321259 -0.786557 -0.413955 -0.992027
    39 1.789787 0.000000 0.000004 0.004363 0.030240 0.718398
    40 1.207001 0.000000 -0.000004 0.102533 0.030240 0.502412
    41 3.859665 -0.132565 1.193108 0.693436 -0.009816 -1.600821
    42 1.312561 0.000000 0.000000 0.110761 -0.297055 -1.436131
    43 0.729366 0.000002 0.000000 0.157637 -0.341681 -1.408413
    44 3.942291 0.050330 0.431042 0.331346 -0.008608 -1.603851
    45 1.539097 0.000003 0.000000 0.050214 -0.153911 -1.591790
    46 1.196320 0.000000 0.000000 0.132539 -0.225789 -1.824936
    47 3.883648 -0.050325 -0.431044 -0.022374 -0.010304 -1.305812
    48 1.719574 -0.000005 0.000000 0.038733 -0.074557 -1.586292
    49 1.209183 -0.000001 0.000000 0.047518 -0.079997 -1.582092
    50 3.859825 -0.148935 -1.331284 -0.549062 -0.024858 -1.454209
    51 1.719425 0.000000 0.000000 -0.002108 0.024344 -1.684730
    52 1.099663 0.000000 0.000000 -0.007967 0.046800 -1.711623
    53 0.806015 -0.359835 -1.318335 1.200555 0.246503 -0.836612
    54 1.789780 0.000001 0.000000 0.046975 0.150711 0.289172
    55 1.207001 0.000000 0.000004 0.215983 -0.000003 0.942472
    56 3.643179 -1.117762 -6.586830 1.677301 0.043048 -2.001890
  time 5
    0 1.610982 -0.335943 38.062996 1.689541 0.049431 -0.113011
    1 -0.124999 3.345128 -2.981903 1.573274 0.102068 1.611997
    2 4.018331 0.000000 0.000000 -0.097972 -0.017761 0.179697
    3 3.518564 0.000000 0.000000 -0.031734 -0.002996 0.253162
    4 8.942642 0.000000 0.000000 -0.029209 -0.062452 0.229108
    5 3.307269 0.000000 -0.000004 3.137477 0.001222 0.577187
    6 3.593710 -0.000001 -0.000004 0.219891 -0.155560 1.137214
    7 1.999994 -3.000001 0.000004 -1.570793 0.000002 -1.326448
    8 2.033349 1.000771 -1.937607 -1.384457 1.273752 -3.061316
    9 6.028143 0.000002 -0.000004 1.522202 0.238641 -0.705402
    10 11.692545 0.000000 0.000000 -0.000011 0.000000 -1.923295
    11 11.481701 0.000000 0.000000 -0.853043 0.197800 -0.014374
    12 2.676086 -1.712440 0.000000 -1.570792 0.000003 -1.570793
    13 2.033341 1.000767 1.937660 2.412169 -1.487395 2.120588
    14 6.028140 0.000002 0.000000 -1.593427 0.292012 -0.974708
    15 11.692553 0.000000 0.000011 -0.000013 0.000000 -1.929618
    16 11.481667 0.000000 -0.000031 1.575452 -0.108951 -0.097558
    17 2.676086 -1.712440 0.000004 1.570795 0.000001 1.570795
    18 -3.890452 0.000004 0.000004 -1.489180 -0.236852 -2.059279
    19 17.848171 0.000000 0.000004 0.000009 0.000000 0.776034
    20 16.525251 0.000000 0.000004 0.199523 -0.181300 -0.960028
    21 6.879454 0.000000 0.000008 -0.079986 -0.002091 -0.629562
    22 3.890452 -0.000004 -0.000004 -1.963390 -0.562300 -0.838381
    23 17.848175 0.000000 -0.000004 0.000010 0.000000 0.825510
    24 16.525246 0.000000 0.000004 -0.183156 0.054051 -0.733135
    25 6.879452 0.000000 0.000000 -0.004686 -0.001889 -0.715237
    26 3.859703 -0.142403 -1.191975 -0.568926 -0.013610 -1.526889
    27 1.312565 0.000001 0.000004 -0.086569 0.239740 -1.554263
    28 0.729362 0.000002 0.000004 -0.176890 0.315566 -1.429227
    29 3.942326 0.046774 -0.431438 0.030309 -0.060027 -1.757075
    30 1.539093 0.000001 0.000000 -0.058663 0.149388 -1.571890
    31 1.196320 -0.000001 0.000004 -0.107662 0.188362 -1.488327
    32 3.883686 -0.046767 0.431446 0.134425 0.056053 -1.771010
    33 1.719570 0.000002 0.000004 -0.030687 0.057172 -1.750786
    34 1.209183 -0.000001 -0.000004 -0.034252 0.059379 -1.537043
    35 3.859859 -0.137950 1.332462 0.524258 -0.087937 -1.819439
    36 1.719429 0.000002 0.000000 0.072018 -0.125293 -1.808386
    37 1.099670 0.000001 0.000004 0.072020 -0.125295 -0.669563
    38 0.806049 -0.348922 1.321259 -0.786557 -0.413955 -0.992027
    39 1.789787 0.000000 0.000004 0.004363 0.030240 0.718398
    40 1.207001 0.000000 -0.000004 0.102533 0.030240 0.502412
    41 3.859665 -0.132565 1.193108 0.693436 -0.009816 -1.600821
    42 1.312561 0.000000 0.000000 0.110761 -0.297055 -1.436131
    43 0.729366 0.000002 0.000000 0.157637 -0.341681 -1.408413
    44 3.942291 0.050330 0.431042 0.331346 -0.008608 -1.603851
    45 1.539097 0.000003 0.000000 0.050214 -0.153911 -1.591790
    46 1.196320 0.000000 0.000000 0.132539 -0.225789 -1.824936
    47 3.883648 -0.050325 -0.431044 -0.022374 -0.010304 -1.305812
    48 1.719574 -0.000005 0.000000 0.038733 -0.074557 -1.586292
    49 1.209183 -0.000001 0.000000 0.047518 -0.079997 -1.582092
    50 3.859825 -0.148935 -1.331284 -0.549062 -0.024858 -1.454209
    51 1.719425 0.000000 0.000000 -0.002108 0.024344 -1.684730
    52 1.099663 0.000000 0.000000 -0.007967 0.046800 -1.711623
    53 0.806015 -0.359835 -1.318335 1.200555 0.246503 -0.836612
    54 1.789780 0.000001 0.000000 0.046975 0.150711 0.289172
    55 1.207001 0.000000 0.000004 0.215983 -0.000003 0.942472
    56 3.643179 -1.117762 -6.586830 1.677301 0.043048 -2.001890
  time 6
    0 1.610982 -0.335943 37.613763 1.693299 0.045201 -0.117402
    1 -0.124999 3.345128 -2.981903 1.571813 0.102068 1.608386
    2 4.018331 0.000000 0.000000 -0.103450 -0.023514 0.180584
    3 3.518564 0.000000 0.000000 -0.036324 -0.001246 0.247638
    4 8.942642 0.000000 0.000000 -0.042818 -0.060031 0.227202
    5 3.307269 0.000000 -0.000004 3.137477 0.001222 0.577187
    6 3.593710 -0.000001 -0.000004 0.221454 -0.155105 1.142527
    7 1.999994 -3.000001 0.000004 -1.570793 0.000002 -1.326448
    8 2.033349 1.000771 -1.937607 -1.381674 1.273591 -3.058547
    9 6.028143 0.000002 -0.000004 1.521558 0.128492 -0.674728
    10 11.692545 0.000000 0.000000 -0.000011 0.000000 -1.951314
    11 11.481701 0.000000 0.000000 -0.852072 0.181675 -0.014276
    12 2.676086 -1.712440 0.000000 -1.570792 0.000003 -1.570793
    13 2.033341 1.000767 1.937660 2.412169 -1.487395 2.120588
    14 6.028140 0.000002 0.000000 -1.615466 0.152240 -0.979508
    15 11.692553 0.000000 0.000011 -0.000013 0.000000 -1.949620
    16 11.481667 0.000000 -0.000031 1.575391 -0.108951 -0.097558
    17 2.676086 -1.712440 0.000004 1.570795 0.000001 1.570795
    18 -3.890452 0.000004 0.000004 -1.554557 -0.276754 -2.093864
    19 17.848171 0.000000 0.000004 0.000009 0.000000 1.036008
    20 16.525251 0.000000 0.000004 0.200142 -0.113515 -1.049260
    21 6.879454 0.000000 0.000008 -0.080968 -0.001743 -0.491047
    22 3.890452 -0.000004 -0.000004 -1.925943 -0.514417 -0.914892
    23 17.848175 0.000000 -0.000004 0.000010 0.000000 0.735985
    24 16.525246 0.000000 0.000004 -0.186333 -0.007847 -0.838766
    25 6.879452 0.000000 0.000000 -0.004578 -0.002201 -0.781342
    26 3.859703 -0.142403 -1.191975 -0.568926 -0.013610 -1.526889
    27 1.312565 0.000001 0.000004 -0.086569 0.239740 -1.554263
    28 0.729362 0.000002 0.000004 -0.176890 0.315566 -1.429227
    29 3.942326 0.046774 -0.431438 0.030309 -0.060027 -1.757075
    30 1.539093 0.000001 0.000000 -0.058663 0.149388 -1.571890
    31 1.196320 -0.000001 0.000004 -0.107662 0.188362 -1.488327
    32 3.883686 -0.046767 0.431446 0.134425 0.056053 -1.771010
    33 1.719570 0.000002 0.000004 -0.030687 0.057172 -1.750786
    34 1.209183 -0.000001 -0.000004 -0.034252 0.059379 -1.537043
    35 3.859859 -0.137950 1.332462 0.524258 -0.087937 -1.819439
    36 1.719429 0.000002 0.000000 0.072018 -0.125293 -1.808386
    37 1.099670 0.000001 0.000004 0.072020 -0.125295 -0.669563
    38 0.806049 -0.348922 1.321259 -0.786557 -0.413955 -0.992027
    39 1.789787 0.000000 0.000004 0.004363 0.030240 0.718398
    40 1.207001 0.000000 -0.000004 0.102533 0.030240 0.502412
    41 3.859665 -0.132565 1.193108 0.693436 -0.009816 -1.600821
    42 1.312561 0.000000 0.000000 0.110761 -0.297055 -1.436131
    43 0.729366 0.000002 0.000000 0.157637 -0.341681 -1.408413
    44 3.942291 0.050330 0.431042 0.331346 -0.008608 -1.603851
    45 1.539097 0.000003 0.000000 0.050214 -0.153911 -1.591790
    46 1.196320 0.000000 0.000000 0.132539 -0.225789 -1.824936
    47 3.883648 -0.050325 -0.431044 -0.022374 -0.010304 -1.305812
    48 1.719574 -0.000005 0.000000 0.038733 -0.074557 -1.586292
    49 1.209183 -0.000001 0.000000 0.047518 -0.079997 -1.582092
    50 3.859825 -0.148935 -1.331284 -0.549062 -0.024858 -1.454209
    51 1.719425 0.000000 0.000000 -0.002108 0.024344 -1.684730
    52 1.099663 0.000000 0.000000 -0.007967 0.046800 -1.711623
    53 0.806015 -0.359835 -1.318335 1.200555 0.246503 -0.836612
    54 1.789780 0.000001 0.000000 0.046975 0.150711 0.289172
    55 1.207001 0.000000 0.000004 0.215983 -0.000003 0.942472
    56 3.643179 -1.117762 -6.586830 1.677301 0.043048 -2.001890
  time 7
    0 1.610982 -0.335943 36.723111 1.688071 0.038058 -0.110740
    1 -0.124999 3.345128 -2.981903 1.570401 0.102068 1.604725
    2 4.018331 0.000000 0.000000 -0.106816 -0.025395 0.176773
    3 3.518564 0.000000 0.000000 -0.039524 0.000995 0.237223
    4 8.942642 0.000000 0.000000 -0.054223 -0.060270 0.228078
    5 3.307269 0.000000 -0.000004 3.137477 0.001222 0.577187
    6 3.593710 -0.000001 -0.000004 0.220948 -0.152935 1.146222
    7 1.999994 -3.000001 0.000004 -1.570793 0.000002 -1.326448
    8 2.033349 1.000771 -1.937607 -1.379170 1.273431 -3.055779
    9 6.028143 0.000002 -0.000004 1.523948 0.013933 -0.646209
    10 11.692545 0.000000 0.000000 -0.000011 0.000000 -1.960982
    11 11.481701 0.000000 0.000000 -0.851748 0.175909 -0.014276
    12 2.676086 -1.712440 0.000000 -1.570792 0.000003 -1.570793
    13 2.033341 1.000767 1.937660 2.412169 -1.487395 2.120588
    14 6.028140 0.000002 0.000000 -1.609035 0.020461 -0.990123
    15 11.692553 0.000000 0.000011 -0.000013 0.000000 -1.938640
    16 11.481667 0.000000 -0.000031 1.575391 -0.108951 -0.097558
    17 2.676086 -1.712440 0.000004 1.570795 0.000001 1.570795
    18 -3.890452 0.000004 0.000004 -1.624065 -0.295180 -2.015169
    19 17.848171 0.000000 0.000004 0.000009 0.000000 1.197763
    20 16.525251 0.000000 0.000004 0.256418 -0.104696 -1.030610
    21 6.879454 0.000000 0.000008 -0.081831 -0.001264 -0.367500
    22 3.890452 -0.000004 -0.000004 -1.852273 -0.465986 -1.029487
    23 17.848175 0.000000 -0.000004 0.000010 0.000000 0.634127
    24 16.525246 0.000000 0.000004 -0.230199 0.131808 -0.856251
    25 6.879452 0.000000 0.000000 -0.004830 -0.002512 -0.789904
    26 3.859703 -0.142403 -1.191975 -0.568926 -0.013610 -1.526889
    27 1.312565 0.000001 0.000004 -0.086569 0.239740 -1.554263
    28 0.729362 0.000002 0.000004 -0.176890 0.315566 -1.429227
    29 3.942326 0.046774 -0.431438 0.030309 -0.060027 -1.757075
    30 1.539093 0.000001 0.000000 -0.058663 0.149388 -1.571890
    31 1.196320 -0.000001 0.000004 -0.107662 0.188362 -1.488372
    32 3.883686 -0.046767 0.431446 0.134425 0.056053 -1.771064
    33 1.719570 0.000002 0.000004 -0.030687 0.057172 -1.750786
    34 1.209183 -0.000001 -0.000004 -0.034252 0.059379 -1.537043
    35 3.859859 -0.137950 1.332462 0.524258 -0.087937 -1.819439
    36 1.719429 0.000002 0.000000 0.072018 -0.125293 -1.808386
    37 1.099670 0.000001 0.000004 0.072020 -0.125295 -0.669563
    38 0.806049 -0.348922 1.321259 -0.786557 -0.413955 -0.992027
    39 1.789787 0.000000 0.000004 0.004363 0.030240 0.718398
    40 1.207001 0.000000 -0.000004 0.102533 0.030240 0.502412
    41 3.859665 -0.132565 1.193108 0.693436 -0.009816 -1.600821
    42 1.312561 0.000000 0.000000 0.110761 -0.297055 -1.436131
    43 0.729366 0.000002 0.000000 0.157637 -0.341681 -1.408413
    44 3.942291 0.050330 0.431042 0.331346 -0.008608 -1.603851
    45 1.539097 0.000003 0.000000 0.050214 -0.153911 -1.591790
    46 1.196320 0.000000 0.000000 0.132539 -0.225789 -1.824936
    47 3.883648 -0.050325 -0.431044 -0.022374 -0.010304 -1.305812
    48 1.719574 -0.000005 0.000000 0.038733 -0.074557 -1.586292
    49 1.209183 -0.000001 0.000000 0.047518 -0.079997 -1.582092
    50 3.859825 -0.148935 -1.331284 -0.549062 -0.024858 -1.454209
    51 1.719425 0.000000 0.000000 -0.002108 0.024344 -1.684730
    52 1.099663 0.000000 0.000000 -0.007967 0.046800 -1.711623
    53 0.806015 -0.359835 -1.318335 1.200555 0.246503 -0.836612
    54 1.789780 0.000001 0.000000 0.046975 0.150711 0.289172
    55 1.207001 0.000000 0.000004 0.215983 -0.000003 0.942472
    56 3.643179 -1.117762 -6.586830 1.677301 0.043048 -2.001890
  time 8
    0 1.610982 -0.335943 35.902774 1.675220 0.028422 -0.091585
    1 -0.124999 3.345128 -2.981903 1.568989 0.102068 1.601164
    2 4.018331 0.000000 0.000000 -0.107657 -0.022759 0.170553
    3 3.518564 0.000000 0.000000 -0.041226 0.003571 0.224915
    4 8.942642 0.000000 0.000000 -0.061817 -0.063135 0.231382
    5 3.307269 0.000000 -0.000004 3.137477 0.001222 0.577187
    6 3.593710 -0.000001 -0.000004 0.211246 -0.148010 1.148193
    7 1.999994 -3.000001 0.000004 -1.570793 0.000002 -1.326448
    8 2.033349 1.000771 -1.937607 -1.376943 1.273310 -3.053583
    9 6.028143 0.000002 -0.000004 1.533506 -0.091595 -0.621719
    10 11.692545 0.000000 0.000000 -0.000011 0.000000 -1.957957
    11 11.481701 0.000000 0.000000 -0.852072 0.181073 -0.014276
    12 2.676086 -1.712440 0.000000 -1.570792 0.000003 -1.570793
    13 2.033341 1.000767 1.937660 2.412169 -1.487395 2.120588
    14 6.028140 0.000002 0.000000 -1.576005 -0.088619 -1.017247
    15 11.692553 0.000000 0.000011 -0.000013 0.000000 -1.911924
    16 11.481667 0.000000 -0.000031 1.575391 -0.108951 -0.097558
    17 2.676086 -1.712440 0.000004 1.570795 0.000001 1.570795
    18 -3.890452 0.000004 0.000004 -1.648847 -0.284969 -1.895050
    19 17.848171 0.000000 0.000004 0.000009 0.000000 1.332758
    20 16.525251 0.000000 0.000004 0.301697 -0.106056 -1.050819
    21 6.879454 0.000000 0.000008 -0.082239 -0.001024 -0.316402
    22 3.890452 -0.000004 -0.000004 -1.728918 -0.531668 -1.189590
    23 17.848175 0.000000 -0.000004 0.000010 0.000000 0.781749
    24 16.525246 0.000000 0.000004 -0.277242 0.113490 -1.101638
    25 6.879452 0.000000 0.000000 -0.005873 -0.002560 -0.666666
    26 3.859703 -0.142403 -1.191975 -0.568926 -0.013610 -1.526889
    27 1.312565 0.000001 0.000004 -0.086569 0.239740 -1.554263
    28 0.729362 0.000002 0.000004 -0.176890 0.315566 -1.429227
    29 3.942326 0.046774 -0.431438 0.030309 -0.060027 -1.757075
    30 1.539093 0.000001 0.000000 -0.058663 0.149388 -1.571890
    31 1.196320 -0.000001 0.000004 -0.107662 0.188362 -1.488327
    32 3.883686 -0.046767 0.431446 0.134425 0.056053 -1.771010
    33 1.719570 0.000002 0.000004 -0.030687 0.057172 -1.750786
    34 1.209183 -0.000001 -0.000004 -0.034252 0.059379 -1.537043
    35 3.859859 -0.137950 1.332462 0.524258 -0.087937 -1.819439
    36 1.719429 0.000002 0.000000 0.072018 -0.125293 -1.808386
    37 1.099670 0.000001 0.000004 0.072020 -0.125295 -0.669563
    38 0.806049 -0.348922 1.321259 -0.786557 -0.413955 -0.992027
    39 1.789787 0.000000 0.000004 0.004363 0.030240 0.718398
    40 1.207001 0.000000 -0.000004 0.102533 0.030240 0.502412
    41 3.859665 -0.132565 1.193108 0.693436 -0.009816 -1.600821
    42 1.312561 0.000000 0.000000 0.110761 -0.297055 -1.436131
    43 0.729366 0.000002 0.000000 0.157637 -0.341681 -1.408413
    44 3.942291 0.050330 0.431042 0.331346 -0.008608 -1.603851
    45 1.539097 0.000003 0.000000 0.050214 -0.153911 -1.591790
    46 1.196320 0.000000 0.000000 0.132539 -0.225789 -1.824936
    47 3.883648 -0.050325 -0.431044 -0.022374 -0.010304 -1.305812
    48 1.719574 -0.000005 0.000000 0.038733 -0.074557 -1.586292
    49 1.209183 -0.000001 0.000000 0.047518 -0.079997 -1.582092
    50 3.859825 -0.148935 -1.331284 -0.549062 -0.024858 -1.454209
    51 1.719425 0.000000 0.000000 -0.002108 0.024344 -1.684730
    52 1.099663 0.000000 0.000000 -0.007967 0.046800 -1.711623
    53 0.806015 -0.359835 -1.318335 1.200555 0.246503 -0.836612
    54 1.789780 0.000001 0.000000 0.046975 0.150711 0.289172
    55 1.207001 0.000000 0.000004 0.215983 -0.000003 0.942472
    56 3.643179 -1.117762 -6.586830 1.677301 0.043060 -2.001890
  time 9
    0 1.610982 -0.335943 35.461354 1.660953 0.017768 -0.059484
    1 -0.124999 3.345128 -2.981903 1.567869 0.102068 1.598195
    2 4.018331 0.000000 0.000000 -0.105750 -0.015916 0.163757
    3 3.518564 0.000000 0.000000 -0.041154 0.006304 0.213458
    4 8.942642 0.000000 0.000000 -0.064175 -0.068420 0.235901
    5 3.307269 0.000000 -0.000004 3.137477 0.001222 0.577187
    6 3.593710 -0.000001 -0.000004 0.185820 -0.139273 1.148263
    7 1.999994 -3.000001 0.000004 -1.570793 0.000002 -1.326448
    8 2.033349 1.000771 -1.937607 -1.375274 1.273230 -3.051674
    9 6.028143 0.000002 -0.000004 1.555929 -0.176948 -0.607584
    10 11.692545 0.000000 0.000000 -0.000011 0.000000 -1.951445
    11 11.481701 0.000000 0.000000 -0.853043 0.197451 -0.014374
    12 2.676086 -1.712440 0.000000 -1.570792 0.000003 -1.570793
    13 2.033341 1.000767 1.937660 2.412169 -1.487395 2.120588
    14 6.028140 0.000002 0.000000 -1.520644 -0.166971 -1.055766
    15 11.692553 0.000000 0.000011 -0.000013 0.000000 -1.886677
    16 11.481667 0.000000 -0.000031 1.575391 -0.108951 -0.097558
    17 2.676086 -1.712440 0.000004 1.570795 0.000001 1.570795
    18 -3.890452 0.000004 0.000004 -1.607662 -0.244297 -1.776081
    19 17.848171 0.000000 0.000004 0.000009 0.000000 1.372449
    20 16.525251 0.000000 0.000004 0.303588 -0.114422 -1.045289
    21 6.879454 0.000000 0.000008 -0.082275 -0.001000 -0.310514
    22 3.890452 -0.000004 -0.000004 -1.537849 -0.571347 -1.438028
    23 17.848175 0.000000 -0.000004 0.000010 0.000000 0.874029
    24 16.525246 0.000000 0.000004 -0.237110 -0.116345 -1.314468
    25 6.879452 0.000000 0.000000 -0.007203 -0.002452 -0.530873
    26 3.859703 -0.142403 -1.191975 -0.568926 -0.013610 -1.526889
    27 1.312565 0.000001 0.000004 -0.086569 0.239740 -1.554310
    28 0.729362 0.000002 0.000004 -0.176890 0.315566 -1.429227
    29 3.942326 0.046774 -0.431438 0.030309 -0.060027 -1.757075
    30 1.539093 0.000001 0.000000 -0.058663 0.149388 -1.571890
    31 1.196320 -0.000001 0.000004 -0.107662 0.188362 -1.488327
    32 3.883686 -0.046767 0.431446 0.134425 0.056053 -1.771010
    33 1.719570 0.000002 0.000004 -0.030687 0.057172 -1.750786
    34 1.209183 -0.000001 -0.000004 -0.034252 0.059379 -1.537043
    35 3.859859 -0.137950 1.332462 0.524258 -0.087937 -1.819439
    36 1.719429 0.000002 0.000000 0.072018 -0.125293 -1.808386
    37 1.099670 0.000001 0.000004 0.072020 -0.125295 -0.669563
    38 0.806049 -0.348922 1.321259 -0.786557 -0.413955 -0.992027
    39 1.789787 0.000000 0.000004 0.004363 0.030240 0.718398
    40 1.207001 0.000000 -0.000004 0.102533 0.030240 0.502412
    41 3.859665 -0.132565 1.193108 0.693436 -0.009816 -1.600821
    42 1.312561 0.000000 0.000000 0.110761 -0.297055 -1.436131
    43 0.729366 0.000002 0.000000 0.157637 -0.341681 -1.408413
    44 3.942291 0.050330 0.431042 0.331346 -0.008608 -1.603851
    45 1.539097 0.000003 0.000000 0.050214 -0.153911 -1.591790
    46 1.196320 0.000000 0.000000 0.132539 -0.225789 -1.824936
    47 3.883648 -0.050325 -0.431044 -0.022374 -0.010304 -1.305812
    48 1.719574 -0.000005 0.000000 0.038733 -0.074557 -1.586292
    49 1.209183 -0.000001 0.000000 0.047518 -0.079997 -1.582092
    50 3.859825 -0.148935 -1.331284 -0.549062 -0.024858 -1.454209
    51 1.719425 0.000000 0.000000 -0.002108 0.024344 -1.684730
    52 1.099663 0.000000 0.000000 -0.007967 0.046800 -1.711623
    53 0.806015 -0.359835 -1.318335 1.200555 0.246503 -0.836612
    54 1.789780 0.000001 0.000000 0.046975 0.150711 0.289172
    55 1.207001 0.000000 0.000004 0.215983 -0.000003 0.942472
    56 3.643179 -1.117762 -6.586830 1.677301 0.043048 -2.001890
  time 10
    0 1.610982 -0.335943 35.340256 1.651478 0.007881 -0.015421
    1 -0.124999 3.345128 -2.981903 1.567236 0.102056 1.596365
    2 4.018331 0.000000 0.000000 -0.101394 -0.005309 0.158161
    3 3.518564 0.000000 0.000000 -0.039044 0.009000 0.205272
    4 8.942642 0.000000 0.000000 -0.061996 -0.075467 0.240373
    5 3.307269 0.000000 -0.000004 3.137477 0.001222 0.577187
    6 3.593710 -0.000001 -0.000004 0.138047 -0.125778 1.146926
    7 1.999994 -3.000001 0.000004 -1.570793 0.000002 -1.326448
    8 2.033349 1.000771 -1.937607 -1.374253 1.273150 -3.050623
    9 6.028143 0.000002 -0.000004 1.594160 -0.231839 -0.608644
    10 11.692545 0.000000 0.000000 -0.000011 0.000000 -1.950788
    11 11.481701 0.000000 0.000000 -0.854661 0.224442 -0.014570
    12 2.676086 -1.712440 0.000000 -1.570792 0.000003 -1.570793
    13 2.033341 1.000767 1.937660 2.412169 -1.487395 2.120588
    14 6.028140 0.000002 0.000000 -1.455403 -0.208964 -1.081094
    15 11.692553 0.000000 0.000011 -0.000013 0.000000 -1.878914
    16 11.481667 0.000000 -0.000031 1.575452 -0.108951 -0.097558
    17 2.676086 -1.712440 0.000004 1.570795 0.000001 1.570795
    18 -3.890452 0.000004 0.000004 -1.515319 -0.187310 -1.669706
    19 17.848171 0.000000 0.000004 0.000009 0.000000 1.317211
    20 16.525251 0.000000 0.000004 0.253182 -0.126897 -0.982801
    21 6.879454 0.000000 0.000008 -0.082179 -0.001036 -0.319176
    22 3.890452 -0.000004 -0.000004 -1.336418 -0.565414 -1.696433
    23 17.848175 0.000000 -0.000004 0.000010 0.000000 0.885423
    24 16.525246 0.000000 0.000004 -0.165191 -0.306850 -1.366017
    25 6.879452 0.000000 0.000000 -0.007611 -0.002524 -0.511651
    26 3.859703 -0.142403 -1.191975 -0.568926 -0.013610 -1.526889
    27 1.312565 0.000001 0.000004 -0.086569 0.239740 -1.554310
    28 0.729362 0.000002 0.000004 -0.176890 0.315566 -1.429227
    29 3.942326 0.046774 -0.431438 0.030309 -0.060027 -1.757075
    30 1.539093 0.000001 0.000000 -0.058663 0.149388 -1.571890
    31 1.196320 -0.000001 0.000004 -0.107662 0.188362 -1.488327
    32 3.883686 -0.046767 0.431446 0.134425 0.056053 -1.771010
    33 1.719570 0.000002 0.000004 -0.030687 0.057172 -1.750786
    34 1.209183 -0.000001 -0.000004 -0.034252 0.059379 -1.537043
    35 3.859859 -0.137950 1.332462 0.524258 -0.087937 -1.819439
    36 1.719429 0.000002 0.000000 0.072018 -0.125293 -1.808386
    37 1.099670 0.000001 0.000004 0.072020 -0.125295 -0.669563
    38 0.806049 -0.348922 1.321259 -0.786557 -0.413955 -0.992027
    39 1.789787 0.000000 0.000004 0.004363 0.030240 0.718398
    40 1.207001 0.000000 -0.000004 0.102533 0.030240 0.502412
    41 3.859665 -0.132565 1.193108 0.693436 -0.009816 -1.600821
    42 1.312561 0.000000 0.000000 0.110761 -0.297055 -1.436131
    43 0.729366 0.000002 0.000000 0.157637 -0.341681 -1.408413
    44 3.942291 0.050330 0.431042 0.331346 -0.008608 -1.603851
    45 1.539097 0.000003 0.000000 0.050214 -0.153911 -1.591790
    46 1.196320 0.000000 0.000000 0.132539 -0.225789 -1.824936
    47 3.883648 -0.050325 -0.431044 -0.022374 -0.010304 -1.305812
    48 1.719574 -0.000005 0.000000 0.038733 -0.074557 -1.586292
    49 1.209183 -0.000001 0.000000 0.047518 -0.079997 -1.582092
    50 3.859825 -0.148935 -1.331284 -0.549062 -0.024858 -1.454209
    51 1.719425 0.000000 0.000000 -0.002108 0.024344 -1.684730
    52 1.099663 0.000000 0.000000 -0.007967 0.046800 -1.711623
    53 0.806015 -0.359835 -1.318335 1.200555 0.246503 -0.836612
    54 1.789780 0.000001 0.000000 0.046975 0.150711 0.289172
    55 1.207001 0.000000 0.000004 0.215983 -0.000003 0.942472
    56 3.643179 -1.117762 -6.586830 1.677301 0.043048 -2.001890
  time 11
    0 1.610982 -0.335943 35.676204 1.650171 0.000498 0.036364
    1 -0.124999 3.345128 -2.981903 1.567236 0.102056 1.596266
    2 4.018331 0.000000 0.000000 -0.095075 0.008114 0.155620
    3 3.518564 0.000000 0.000000 -0.034922 0.011553 0.206626
    4 8.942642 0.000000 0.000000 -0.056007 -0.083533 0.243585
    5 3.307269 0.000000 -0.000004 3.137477 0.001222 0.577187
    6 3.593710 -0.000001 -0.000004 0.064663 -0.108233 1.145061
    7 1.999994 -3.000001 0.000004 -1.570793 0.000002 -1.326448
    8 2.033349 1.000771 -1.937607 -1.374068 1.273150 -3.050433
    9 6.028143 0.000002 -0.000004 1.649117 -0.243138 -0.627939
    10 11.692545 0.000000 0.000000 -0.000011 0.000000 -1.957299
    11 11.481701 0.000000 0.000000 -0.856765 0.259954 -0.014864
    12 2.676086 -1.712440 0.000000 -1.570792 0.000003 -1.570793
    13 2.033341 1.000767 1.937660 2.412169 -1.487395 2.120588
    14 6.028140 0.000002 0.000000 -1.391915 -0.205220 -1.076489
    15 11.692553 0.000000 0.000011 -0.000013 0.000000 -1.899335
    16 11.481667 0.000000 -0.000031 1.575452 -0.108951 -0.097558
    17 2.676086 -1.712440 0.000004 1.570795 0.000001 1.570795
    18 -3.890452 0.000004 0.000004 -1.403799 -0.159387 -1.574838
    19 17.848171 0.000000 0.000004 0.000009 0.000000 1.226392
    20 16.525251 0.000000 0.000004 0.126716 -0.148658 -0.834098
    21 6.879454 0.000000 0.000008 -0.081196 -0.001455 -0.433681
    22 3.890452 -0.000004 -0.000004 -1.161584 -0.491611 -1.913524
    23 17.848175 0.000000 -0.000004 0.000010 0.000000 0.767037
    24 16.525246 0.000000 0.000004 -0.121150 -0.462093 -1.231627
    25 6.879452 0.000000 0.000000 -0.007215 -0.002644 -0.554418
    26 3.859703 -0.142403 -1.191975 -0.568926 -0.013610 -1.526889
    27 1.312565 0.000001 0.000004 -0.086569 0.239740 -1.554263
    28 0.729362 0.000002 0.000004 -0.176890 0.315566 -1.429270
    29 3.942326 0.046774 -0.431438 0.030309 -0.060027 -1.757075
    30 1.539093 0.000001 0.000000 -0.058663 0.149388 -1.571890
    31 1.196320 -0.000001 0.000004 -0.107662 0.188362 -1.488372
    32 3.883686 -0.046767 0.431446 0.134425 0.056053 -1.771010
    33 1.719570 0.000002 0.000004 -0.030687 0.057172 -1.750786
    34 1.209183 -0.000001 -0.000004 -0.034252 0.059379 -1.537043
    35 3.859859 -0.137950 1.332462 0.524258 -0.087937 -1.819439
    36 1.719429 0.000002 0.000000 0.072018 -0.125293 -1.808386
    37 1.099670 0.000001 0.000004 0.072020 -0.125295 -0.669563
    38 0.806049 -0.348922 1.321259 -0.786557 -0.413955 -0.992027
    39 1.789787 0.000000 0.000004 0.004363 0.030240 0.718398
    40 1.207001 0.000000 -0.000004 0.102533 0.030240 0.502412
    41 3.859665 -0.132565 1.193108 0.693436 -0.009816 -1.600821
    42 1.312561 0.000000 0.000000 0.110761 -0.297055 -1.436131
    43 0.729366 0.000002 0.000000 0.157637 -0.341681 -1.408413
    44 3.942291 0.050330 0.431042 0.331346 -0.008608 -1.603851
    45 1.539097 0.000003 0.000000 0.050214 -0.153911 -1.591790
    46 1.196320 0.000000 0.000000 0.132539 -0.225789 -1.824936
    47 3.883648 -0.050325 -0.431044 -0.022374 -0.010304 -1.305812
    48 1.719574 -0.000005 0.000000 0.038733 -0.074557 -1.586292
    49 1.209183 -0.000001 0.000000 0.047518 -0.079997 -1.582092
    50 3.859825 -0.148935 -1.331284 -0.549062 -0.024858 -1.454209
    51 1.719425 0.000000 0.000000 -0.002108 0.024344 -1.684730
    52 1.099663 0.000000 0.000000 -0.007967 0.046800 -1.711623
    53 0.806015 -0.359835 -1.318335 1.200555 0.246503 -0.836612
    54 1.789780 0.000001 0.000000 0.046975 0.150711 0.289172
    55 1.207001 0.000000 0.000004 0.215983 -0.000003 0.942472
    56 3.643179 -1.117762 -6.586830 1.677301 0.043048 -2.001890
  time 12
    0 1.610982 -0.335943 36.457478 1.654691 -0.002893 0.088830
    1 -0.124999 3.345128 -2.981903 1.567674 0.102068 1.597305
    2 4.018331 0.000000 0.000000 -0.087297 0.022939 0.158568
    3 3.518564 0.000000 0.000000 -0.029493 0.013878 0.218191
    4 8.942642 0.000000 0.000000 -0.046870 -0.091910 0.245029
    5 3.307269 0.000000 -0.000004 3.137477 0.001222 0.577187
    6 3.593710 -0.000001 -0.000004 -0.021917 -0.089633 1.144040
    7 1.999994 -3.000001 0.000004 -1.570793 0.000002 -1.326448
    8 2.033349 1.000771 -1.937607 -1.374810 1.273190 -3.051196
    9 6.028143 0.000002 -0.000004 1.713263 -0.205754 -0.658260
    10 11.692545 0.000000 0.000000 -0.000011 0.000000 -1.962955
    11 11.481701 0.000000 0.000000 -0.859193 0.300029 -0.015306
    12 2.676086 -1.712440 0.000000 -1.570792 0.000003 -1.570793
    13 2.033341 1.000767 1.937660 2.412169 -1.487395 2.120588
    14 6.028140 0.000002 0.000000 -1.334566 -0.158708 -1.047336
    15 11.692553 0.000000 0.000011 -0.000013 0.000000 -1.936611
    16 11.481667 0.000000 -0.000031 1.575391 -0.108951 -0.097558
    17 2.676086 -1.712440 0.000004 1.570795 0.000001 1.570795
    18 -3.890452 0.000004 0.000004 -1.316944 -0.150516 -1.466737
    19 17.848171 0.000000 0.000004 0.000009 0.000000 1.086463
    20 16.525251 0.000000 0.000004 -0.011614 -0.095278 -0.626024
    21 6.879454 0.000000 0.000008 -0.079950 -0.001959 -0.613530
    22 3.890452 -0.000004 -0.000004 -1.035945 -0.413389 -2.057335
    23 17.848175 0.000000 -0.000004 0.000010 0.000000 0.612340
    24 16.525246 0.000000 0.000004 -0.190462 -0.504407 -0.884709
    25 6.879452 0.000000 0.000000 -0.005657 -0.002884 -0.732854
    26 3.859703 -0.142403 -1.191975 -0.568926 -0.013610 -1.526889
    27 1.312565 0.000001 0.000004 -0.086569 0.239740 -1.554263
    28 0.729362 0.000002 0.000004 -0.176890 0.315566 -1.429227
    29 3.942326 0.046774 -0.431438 0.030309 -0.060027 -1.757075
    30 1.539093 0.000001 0.000000 -0.058663 0.149388 -1.571890
    31 1.196320 -0.000001 0.000004 -0.107662 0.188362 -1.488327
    32 3.883686 -0.046767 0.431446 0.134425 0.056053 -1.771010
    33 1.719570 0.000002 0.000004 -0.030687 0.057172 -1.750786
    34 1.209183 -0.000001 -0.000004 -0.034252 0.059379 -1.537043
    35 3.859859 -0.137950 1.332462 0.524258 -0.087937 -1.819439
    36 1.719429 0.000002 0.000000 0.072018 -0.125293 -1.808386
    37 1.099670 0.000001 0.000004 0.072020 -0.125295 -0.669563
    38 0.806049 -0.348922 1.321259 -0.786557 -0.413955 -0.992027
    39 1.789787 0.000000 0.000004 0.004363 0.030240 0.718398
    40 1.207001 0.000000 -0.000004 0.102533 0.030240 0.502412
    41 3.859665 -0.132565 1.193108 0.693436 -0.009816 -1.600821
    42 1.312561 0.000000 0.000000 0.110761 -0.297055 -1.436131
    43 0.729366 0.000002 0.000000 0.157637 -0.341681 -1.408413
    44 3.942291 0.050330 0.431042 0.331346 -0.008608 -1.603851
    45 1.539097 0.000003 0.000000 0.050214 -0.153911 -1.591790
    46 1.196320 0.000000 0.000000 0.132539 -0.225789 -1.824936
    47 3.883648 -0.050325 -0.431044 -0.022374 -0.010304 -1.305812
    48 1.719574 -0.000005 0.000000 0.038733 -0.074557 -1.586292
    49 1.209183 -0.000001 0.000000 0.047518 -0.079997 -1.582092
    50 3.859825 -0.148935 -1.331284 -0.549062 -0.024858 -1.454209
    51 1.719425 0.000000 0.000000 -0.002108 0.024344 -1.684730
    52 1.099663 0.000000 0.000000 -0.007967 0.046800 -1.711623
    53 0.806015 -0.359835 -1.318335 1.200555 0.246503 -0.836612
    54 1.789780 0.000001 0.000000 0.046975 0.150711 0.289172
    55 1.207001 0.000000 0.000004 0.215983 -0.000003 0.942472
    56 3.643179 -1.117762 -6.586830 1.677301 0.043048 -2.001890
  time 13
    0 1.610982 -0.335943 37.336411 1.663240 -0.002043 0.134180
    1 -0.128905 3.345128 -2.981903 1.568405 0.102068 1.599234
    2 4.018331 0.000000 0.000000 -0.078547 0.037368 0.165579
    3 3.518564 0.000000 0.000000 -0.023213 0.015880 0.233867
    4 8.942642 0.000000 0.000000 -0.035376 -0.099880 0.245460
    5 3.307269 0.000000 -0.000004 3.137477 0.001222 0.577187
    6 3.593710 -0.000001 -0.000004 -0.104956 -0.072339 1.144428
    7 1.999994 -3.000001 0.000004 -1.570793 0.000002 -1.326448
    8 2.033349 1.000771 -1.937607 -1.376665 1.273310 -3.053297
    9 6.028143 0.000002 -0.000004 1.774745 -0.124551 -0.685436
    10 11.692545 0.000000 0.000000 -0.000011 0.000000 -1.958812
    11 11.481701 0.000000 0.000000 -0.861675 0.338867 -0.015845
    12 2.676086 -1.712440 0.000000 -1.570792 0.000003 -1.570793
    13 2.033341 1.000767 1.937660 2.412169 -1.487395 2.120588
    14 6.028140 0.000002 0.000000 -1.290253 -0.081603 -0.992699
    15 11.692553 0.000000 0.000011 -0.000013 0.000000 -1.968782
    16 11.481667 0.000000 -0.000031 1.575452 -0.108951 -0.097558
    17 2.676086 -1.712440 0.000004 1.570795 0.000001 1.570795
    18 -3.890452 0.000004 0.000004 -1.289979 -0.147949 -1.341887
    19 17.848171 0.000000 0.000004 0.000009 0.000000 0.895108
    20 16.525251 0.000000 0.000004 -0.037109 0.004740 -0.436098
    21 6.879454 0.000000 0.000008 -0.078823 -0.002366 -0.816820
    22 3.890452 -0.000004 -0.000004 -0.948569 -0.382336 -2.151238
    23 17.848175 0.000000 -0.000004 0.000010 0.000000 0.506913
    24 16.525246 0.000000 0.000004 -0.272776 -0.331117 -0.477679
    25 6.879452 0.000000 0.000000 -0.004075 -0.003052 -0.979783
    26 3.859703 -0.142403 -1.191975 -0.568926 -0.013610 -1.526889
    27 1.312565 0.000001 0.000004 -0.086569 0.239740 -1.554310
    28 0.729362 0.000002 0.000004 -0.176890 0.315566 -1.429227
    29 3.942326 0.046774 -0.431438 0.030309 -0.060027 -1.757075
    30 1.539093 0.000001 0.000000 -0.058663 0.149388 -1.571890
    31 1.196320 -0.000001 0.000004 -0.107662 0.188362 -1.488327
    32 3.883686 -0.046767 0.431446 0.134425 0.056053 -1.771010
    33 1.719570 0.000002 0.000004 -0.030687 0.057172 -1.750786
    34 1.209183 -0.000001 -0.000004 -0.034252 0.059379 -1.537043
    35 3.859859 -0.137950 1.332462 0.524258 -0.087937 -1.819439
    36 1.719429 0.000002 0.000000 0.072018 -0.125293 -1.808386
    37 1.099670 0.000001 0.000004 0.072020 -0.125295 -0.669563
    38 0.806049 -0.348922 1.321259 -0.786557 -0.413955 -0.992027
    39 1.789787 0.000000 0.000004 0.004363 0.030240 0.718398
    40 1.207001 0.000000 -0.000004 0.102533 0.030240 0.502412
    41 3.859665 -0.132565 1.193108 0.693436 -0.009816 -1.600821
    42 1.312561 0.000000 0.000000 0.110761 -0.297055 -1.436131
    43 0.729366 0.000002 0.000000 0.157637 -0.341681 -1.408413
    44 3.942291 0.050330 0.431042 0.331346 -0.008608 -1.603851
    45 1.539097 0.000003 0.000000 0.050214 -0.153911 -1.591790
    46 1.196320 0.000000 0.000000 0.132539 -0.225789 -1.824936
    47 3.883648 -0.050325 -0.431044 -0.022374 -0.010304 -1.305812
    48 1.719574 -0.000005 0.000000 0.038733 -0.074557 -1.586292
    49 1.209183 -0.000001 0.000000 0.047518 -0.079997 -1.582092
    50 3.859825 -0.148935 -1.331284 -0.549062 -0.024858 -1.454253
    51 1.719425 0.000000 0.000000 -0.002108 0.024344 -1.684730
    52 1.099663 0.000000 0.000000 -0.007967 0.046800 -1.711623
    53 0.806015 -0.359835 -1.318335 1.200555 0.246503 -0.836612
    54 1.789780 0.000001 0.000000 0.046975 0.150711 0.289172
    55 1.207001 0.000000 0.000004 0.215983 -0.000003 0.942472
    56 3.643179 -1.117762 -6.586830 1.677301 0.043048 -2.001890
  time 14
    0 1.610982 -0.335943 37.953617 1.673750 0.001277 0.167190
    1 -0.124999 3.345128 -2.981903 1.569476 0.102068 1.601906
    2 4.018331 0.000000 0.000000 -0.069368 0.049472 0.172662
    3 3.518564 0.000000 0.000000 -0.016525 0.017414 0.247961
    4 8.942642 0.000000 0.000000 -0.022378 -0.106687 0.245337
    5 3.307269 0.000000 -0.000004 3.137477 0.001222 0.577187
    6 3.593710 -0.000001 -0.000004 -0.167397 -0.058760 1.145589
    7 1.999994 -3.000001 0.000004 -1.570793 0.000002 -1.326448
    8 2.033349 1.000771 -1.937607 -1.379819 1.273471 -3.056542
    9 6.028143 0.000002 -0.000004 1.824831 -0.012868 -0.699395
    10 11.692545 0.000000 0.000000 -0.000011 0.000000 -1.937831
    11 11.481701 0.000000 0.000000 -0.863617 0.369723 -0.016336
    12 2.676086 -1.712440 0.000000 -1.570792 0.000003 -1.570793
    13 2.033341 1.000767 1.937660 2.412169 -1.487395 2.120588
    14 6.028140 0.000002 0.000000 -1.257983 0.014221 -0.924247
    15 11.692553 0.000000 0.000011 -0.000013 0.000000 -1.975146
    16 11.481667 0.000000 -0.000031 1.575391 -0.108951 -0.097558
    17 2.676086 -1.712440 0.000004 1.570795 0.000001 1.570795
    18 -3.890452 0.000004 0.000004 -1.291926 -0.141960 -1.232508
    19 17.848171 0.000000 0.000004 0.000009 0.000000 0.684991
    20 16.525251 0.000000 0.000004 -0.016865 0.105722 -0.327863
    21 6.879454 0.000000 0.000008 -0.078056 -0.002558 -0.969239
    22 3.890452 -0.000004 -0.000004 -0.891623 -0.363275 -2.205339
    23 17.848175 0.000000 -0.000004 0.000010 0.000000 0.483123
    24 16.525246 0.000000 0.000004 -0.120857 -0.104844 -0.377233
    25 6.879452 0.000000 0.000000 -0.003871 -0.003088 -1.023744
    26 3.859703 -0.142403 -1.191975 -0.568926 -0.013610 -1.526889
    27 1.312565 0.000001 0.000004 -0.086569 0.239740 -1.554263
    28 0.729362 0.000002 0.000004 -0.176890 0.315566 -1.429270
    29 3.942326 0.046774 -0.431438 0.030309 -0.060027 -1.757075
    30 1.539093 0.000001 0.000000 -0.058663 0.149388 -1.571890
    31 1.196320 -0.000001 0.000004 -0.107662 0.188362 -1.488327
    32 3.883686 -0.046767 0.431446 0.134425 0.056053 -1.771064
    33 1.719570 0.000002 0.000004 -0.030687 0.057172 -1.750786
    34 1.209183 -0.000001 -0.000004 -0.034252 0.059379 -1.537043
    35 3.859859 -0.137950 1.332462 0.524258 -0.087937 -1.819439
    36 1.719429 0.000002 0.000000 0.072018 -0.125293 -1.808386
    37 1.099670 0.000001 0.000004 0.072020 -0.125295 -0.669563
    38 0.806049 -0.348922 1.321259 -0.786557 -0.413955 -0.992027
    39 1.789787 0.000000 0.000004 0.004363 0.030240 0.718398
    40 1.207001 0.000000 -0.000004 0.102533 0.030240 0.502412
    41 3.859665 -0.132565 1.193108 0.693436 -0.009816 -1.600821
    42 1.312561 0.000000 0.000000 0.110761 -0.297055 -1.436131
    43 0.729366 0.000002 0.000000 0.157637 -0.341681 -1.408413
    44 3.942291 0.050330 0.431042 0.331346 -0.008608 -1.603851
    45 1.539097 0.000003 0.000000 0.050214 -0.153911 -1.591790
    46 1.196320 0.000000 0.000000 0.132539 -0.225789 -1.824936
    47 3.883648 -0.050325 -0.431044 -0.022374 -0.010304 -1.305812
    48 1.719574 -0.000005 0.000000 0.038733 -0.074557 -1.586292
    49 1.209183 -0.000001 0.000000 0.047518 -0.079997 -1.582092
    50 3.859825 -0.148935 -1.331284 -0.549062 -0.024858 -1.454209
    51 1.719425 0.000000 0.000000 -0.002108 0.024344 -1.684730
    52 1.099663 0.000000 0.000000 -0.007967 0.046800 -1.711623
    53 0.806015 -0.359835 -1.318335 1.200555 0.246503 -0.836612
    54 1.789780 0.000001 0.000000 0.046975 0.150711 0.289172
    55 1.207001 0.000000 0.000004 0.215983 -0.000003 0.942472
    56 3.643179 -1.117762 -6.586830 1.677301 0.043060 -2.001890
  time 15
    0 1.610982 -0.335943 38.066902 1.683606 0.006227 0.185663
    1 -0.124999 3.345128 -2.981903 1.570790 0.102068 1.605121
    2 4.018331 0.000000 0.000000 -0.060263 0.057730 0.175898
    3 3.518564 0.000000 0.000000 -0.009982 0.018420 0.255488
    4 8.942642 0.000000 0.000000 -0.009228 -0.111433 0.245198
    5 3.307269 0.000000 -0.000004 3.137477 0.001222 0.577187
    6 3.593710 -0.000001 -0.000004 -0.192502 -0.051546 1.146293
    7 1.999994 -3.000001 0.000004 -1.570793 0.000002 -1.326448
    8 2.033349 1.000771 -1.937607 -1.384457 1.273752 -3.061316
    9 6.028143 0.000002 -0.000004 1.857915 0.110759 -0.701480
    10 11.692545 0.000000 0.000000 -0.000011 0.000000 -1.897776
    11 11.481701 0.000000 0.000000 -0.864750 0.386640 -0.016630
    12 2.676086 -1.712440 0.000000 -1.570792 0.000003 -1.570793
    13 2.033341 1.000767 1.937660 2.412169 -1.487395 2.120588
    14 6.028140 0.000002 0.000000 -1.232144 0.115981 -0.856302
    15 11.692553 0.000000 0.000011 -0.000013 0.000000 -1.943675
    16 11.481667 0.000000 -0.000031 1.575452 -0.108951 -0.097558
    17 2.676086 -1.712440 0.000004 1.570795 0.000001 1.570795
    18 -3.890452 0.000004 0.000004 -1.277883 -0.175958 -1.168197
    19 17.848171 0.000000 0.000004 0.000009 0.000000 0.604861
    20 16.525251 0.000000 0.000004 -0.040963 0.221944 -0.541266
    21 6.879454 0.000000 0.000008 -0.077792 -0.002486 -1.010460
    22 3.890452 -0.000004 -0.000004 -0.856624 -0.423067 -2.243354
    23 17.848175 0.000000 -0.000004 0.000010 0.000000 0.672691
    24 16.525246 0.000000 0.000004 0.034913 -0.047919 -0.479006
    25 6.879452 0.000000 0.000000 -0.004471 -0.003064 -0.919193
    26 3.859703 -0.142403 -1.191975 -0.568926 -0.013610 -1.526889
    27 1.312565 0.000001 0.000004 -0.086569 0.239740 -1.554310
    28 0.729362 0.000002 0.000004 -0.176890 0.315566 -1.429227
    29 3.942326 0.046774 -0.431438 0.030309 -0.060027 -1.757075
    30 1.539093 0.000001 0.000000 -0.058663 0.149388 -1.571938
    31 1.196320 -0.000001 0.000004 -0.107662 0.188362 -1.488327
    32 3.883686 -0.046767 0.431446 0.134425 0.056053 -1.771010
    33 1.719570 0.000002 0.000004 -0.030687 0.057172 -1.750786
    34 1.209183 -0.000001 -0.000004 -0.034252 0.059379 -1.537043
    35 3.859859 -0.137950 1.332462 0.524258 -0.087937 -1.819439
    36 1.719429 0.000002 0.000000 0.072018 -0.125293 -1.808386
    37 1.099670 0.000001 0.000004 0.072020 -0.125295 -0.669563
    38 0.806049 -0.348922 1.321259 -0.786557 -0.413955 -0.992027
    39 1.789787 0.000000 0.000004 0.004363 0.030240 0.718398
    40 1.207001 0.000000 -0.000004 0.102533 0.030240 0.502412
    41 3.859665 -0.132565 1.193108 0.693436 -0.009816 -1.600821
    42 1.312561 0.000000 0.000000 0.110761 -0.297055 -1.436131
    43 0.729366 0.000002 0.000000 0.157637 -0.341681 -1.408413
    44 3.942291 0.050330 0.431042 0.331346 -0.008608 -1.603851
    45 1.539097 0.000003 0.000000 0.050214 -0.153911 -1.591790
    46 1.196320 0.000000 0.000000 0.132539 -0.225789 -1.824936
    47 3.883648 -0.050325 -0.431044 -0.022374 -0.010304 -1.305812
    48 1.719574 -0.000005 0.000000 0.038733 -0.074557 -1.586292
    49 1.209183 -0.000001 0.000000 0.047518 -0.079997 -1.582140
    50 3.859825 -0.148935 -1.331284 -0.549062 -0.024858 -1.454253
    51 1.719425 0.000000 0.000000 -0.002108 0.024344 -1.684730
    52 1.099663 0.000000 0.000000 -0.007967 0.046800 -1.711623
    53 0.806015 -0.359835 -1.318335 1.200555 0.246503 -0.836612
    54 1.789780 0.000001 0.000000 0.046975 0.150711 0.289172
    55 1.207001 0.000000 0.000004 0.215983 -0.000003 0.942472
    56 3.643179 -1.117762 -6.586830 1.677301 0.043048 -2.001890
  time 16
    0 1.610982 -0.335943 37.566887 1.689759 0.012123 0.194672
    1 -0.124999 3.345128 -2.981903 1.572202 0.102068 1.608732
    2 4.018331 0.000000 0.000000 -0.054074 0.060199 0.174879
    3 3.518564 0.000000 0.000000 -0.003941 0.019032 0.257705
    4 8.942642 0.000000 0.000000 0.002011 -0.113218 0.246197
    5 3.307269 0.000000 -0.000004 3.137477 0.001222 0.577187
    6 3.593710 -0.000001 -0.000004 -0.193238 -0.048729 1.137038
    7 1.999994 -3.000001 0.000004 -1.570793 0.000002 -1.326448
    8 2.033349 1.000771 -1.937607 -1.388168 1.273912 -3.065230
    9 6.028143 0.000002 -0.000004 1.874825 0.234456 -0.703777
    10 11.692545 0.000000 0.000000 -0.000011 0.000000 -1.842133
    11 11.481701 0.000000 0.000000 -0.864642 0.385689 -0.016630
    12 2.676086 -1.712440 0.000000 -1.570792 0.000003 -1.570793
    13 2.033341 1.000767 1.937660 2.412169 -1.487395 2.120588
    14 6.028140 0.000002 0.000000 -1.210747 0.205902 -0.797723
    15 11.692553 0.000000 0.000011 -0.000013 0.000000 -1.875067
    16 11.481667 0.000000 -0.000031 1.575391 -0.108951 -0.097558
    17 2.676086 -1.712440 0.000004 1.570795 0.000001 1.570795
    18 -3.890452 0.000004 0.000004 -1.254812 -0.185884 -1.119037
    19 17.848171 0.000000 0.000004 0.000009 0.000000 0.518527
    20 16.525251 0.000000 0.000004 -0.114990 0.334378 -0.738481
    21 6.879454 0.000000 0.000008 -0.077625 -0.002522 -1.050198
    22 3.890452 -0.000004 -0.000004 -0.838839 -0.545049 -2.251672
    23 17.848175 0.000000 -0.000004 0.000010 0.000000 0.975637
    24 16.525246 0.000000 0.000004 -0.014458 -0.023923 -0.687133
    25 6.879452 0.000000 0.000000 -0.005561 -0.003004 -0.763602
    26 3.859703 -0.142403 -1.191975 -0.568926 -0.013610 -1.526889
    27 1.312565 0.000001 0.000004 -0.086569 0.239740 -1.554263
    28 0.729362 0.000002 0.000004 -0.176890 0.315566 -1.429227
    29 3.942326 0.046774 -0.431438 0.030309 -0.060027 -1.757075
    30 1.539093 0.000001 0.000000 -0.058663 0.149388 -1.571890
    31 1.196320 -0.000001 0.000004 -0.107662 0.188362 -1.488327
    32 3.883686 -0.046767 0.431446 0.134425 0.056053 -1.771010
    33 1.719570 0.000002 0.000004 -0.030687 0.057172 -1.750786
    34 1.209183 -0.000001 -0.000004 -0.034252 0.059379 -1.537043
    35 3.859859 -0.137950 1.332462 0.524258 -0.087937 -1.819439
    36 1.719429 0.000002 0.000000 0.072018 -0.125293 -1.808386
    37 1.099670 0.000001 0.000004 0.072020 -0.125295 -0.669563
    38 0.806049 -0.348922 1.321259 -0.786557 -0.413955 -0.992027
    39 1.789787 0.000000 0.000004 0.004363 0.030240 0.718398
    40 1.207001 0.000000 -0.000004 0.102533 0.030240 0.502412
    41 3.859665 -0.132565 1.193108 0.693436 -0.009816 -1.600821
    42 1.312561 0.000000 0.000000 0.110761 -0.297055 -1.436131
    43 0.729366 0.000002 0.000000 0.157637 -0.341681 -1.408413
    44 3.942291 0.050330 0.431042 0.331346 -0.008608 -1.603851
    45 1.539097 0.000003 0.000000 0.050214 -0.153911 -1.591790
    46 1.196320 0.000000 0.000000 0.132539 -0.225789 -1.824936
    47 3.883648 -0.050325 -0.431044 -0.022374 -0.010304 -1.305812
    48 1.719574 -0.000005 0.000000 0.038733 -0.074557 -1.586292
    49 1.209183 -0.000001 0.000000 0.047518 -0.079997 -1.582092
    50 3.859825 -0.148935 -1.331284 -0.549062 -0.024858 -1.454209
    51 1.719425 0.000000 0.000000 -0.002108 0.024344 -1.684730
    52 1.099663 0.000000 0.000000 -0.007967 0.046800 -1.711623
    53 0.806015 -0.359835 -1.318335 1.200555 0.246503 -0.836612
    54 1.789780 0.000001 0.000000 0.046975 0.150711 0.289172
    55 1.207001 0.000000 0.000004 0.215983 -0.000003 0.942472
    56 3.643179 -1.117762 -6.586830 1.677301 0.043048 -2.001890
  time 17
    0 1.610982 -0.335943 36.660609 1.684314 0.018367 0.197701
    1 -0.124999 3.345128 -2.981903 1.573761 0.102068 1.612641
    2 4.018331 0.000000 0.000000 -0.051476 0.058137 0.172590
    3 3.518564 0.000000 0.000000 0.001236 0.019067 0.258532
    4 8.942642 0.000000 0.000000 0.011772 -0.112523 0.248426
    5 3.307269 0.000000 -0.000004 3.137477 0.001222 0.577187
    6 3.593710 -0.000001 -0.000004 -0.193835 -0.046368 1.113672
    7 1.999994 -3.000001 0.000004 -1.570793 0.000002 -1.326448
    8 2.033349 1.000771 -1.937607 -1.388354 1.273912 -3.065325
    9 6.028143 0.000002 -0.000004 1.877122 0.344029 -0.717453
    10 11.692545 0.000000 0.000000 -0.000011 0.000000 -1.779716
    11 11.481701 0.000000 0.000000 -0.863671 0.370420 -0.016336
    12 2.676086 -1.712440 0.000000 -1.570792 0.000003 -1.570793
    13 2.033341 1.000767 1.937660 2.412169 -1.487395 2.120588
    14 6.028140 0.000002 0.000000 -1.190111 0.274878 -0.753194
    15 11.692553 0.000000 0.000011 -0.000013 0.000000 -1.781842
    16 11.481667 0.000000 -0.000031 1.575452 -0.108951 -0.097558
    17 2.676086 -1.712440 0.000004 1.570795 0.000001 1.570795
    18 -3.890452 0.000004 0.000004 -1.215337 -0.122593 -1.083749
    19 17.848171 0.000000 0.000004 0.000009 0.000000 0.333451
    20 16.525251 0.000000 0.000004 -0.250367 0.346882 -0.909254
    21 6.879454 0.000000 0.000008 -0.077613 -0.002810 -1.085796
    22 3.890452 -0.000004 -0.000004 -0.860377 -0.677087 -2.185679
    23 17.848175 0.000000 -0.000004 0.000010 0.000000 1.267439
    24 16.525246 0.000000 0.000004 -0.152717 -0.064772 -0.876991
    25 6.879452 0.000000 0.000000 -0.007071 -0.002944 -0.602536
    26 3.859703 -0.142403 -1.191975 -0.568926 -0.013610 -1.526889
    27 1.312565 0.000001 0.000004 -0.086569 0.239740 -1.554263
    28 0.729362 0.000002 0.000004 -0.176890 0.315566 -1.429227
    29 3.942326 0.046774 -0.431438 0.030309 -0.060027 -1.757075
    30 1.539093 0.000001 0.000000 -0.058663 0.149388 -1.571890
    31 1.196320 -0.000001 0.000004 -0.107662 0.188362 -1.488327
    32 3.883686 -0.046767 0.431446 0.134425 0.056053 -1.771010
    33 1.719570 0.000002 0.000004 -0.030687 0.057172 -1.750786
    34 1.209183 -0.000001 -0.000004 -0.034252 0.059379 -1.537043
    35 3.859859 -0.137950 1.332462 0.524258 -0.087937 -1.819439
    36 1.719429 0.000002 0.000000 0.072018 -0.125293 -1.808386
    37 1.099670 0.000001 0.000004 0.072020 -0.125295 -0.669563
    38 0.806049 -0.348922 1.321259 -0.786557 -0.413955 -0.992027
    39 1.789787 0.000000 0.000004 0.004363 0.030240 0.718398
    40 1.207001 0.000000 -0.000004 0.102533 0.030240 0.502412
    41 3.859665 -0.132565 1.193108 0.693436 -0.009816 -1.600821
    42 1.312561 0.000000 0.000000 0.110761 -0.297055 -1.436131
    43 0.729366 0.000002 0.000000 0.157637 -0.341681 -1.408413
    44 3.942291 0.050330 0.431042 0.331346 -0.008608 -1.603851
    45 1.539097 0.000003 0.000000 0.050214 -0.153911 -1.591790
    46 1.196320 0.000000 0.000000 0.132539 -0.225789 -1.824936
    47 3.883648 -0.050325 -0.431044 -0.022374 -0.010304 -1.305812
    48 1.719574 -0.000005 0.000000 0.038733 -0.074557 -1.586292
    49 1.209183 -0.000001 0.000000 0.047518 -0.079997 -1.582092
    50 3.859825 -0.148935 -1.331284 -0.549062 -0.024858 -1.454209
    51 1.719425 0.000000 0.000000 -0.002108 0.024344 -1.684730
    52 1.099663 0.000000 0.000000 -0.007967 0.046800 -1.711623
    53 0.806015 -0.359835 -1.318335 1.200555 0.246503 -0.836612
    54 1.789780 0.000001 0.000000 0.046975 0.150711 0.289172
    55 1.207001 0.000000 0.000004 0.215983 -0.000003 0.942472
    56 3.643179 -1.117762 -6.586830 1.677301 0.043048 -2.001890
  time 18
    0 1.610982 -0.335943 35.891055 1.667869 0.024731 0.192401
    1 -0.124999 3.345128 -2.981903 1.575319 0.102068 1.616549
    2 4.018331 0.000000 0.000000 -0.051120 0.053283 0.169510
    3 3.518564 0.000000 0.000000 0.004975 0.018121 0.258100
    4 8.942642 0.000000 0.000000 0.020680 -0.110043 0.250592
    5 3.307269 0.000000 -0.000004 3.137477 0.001222 0.577187
    6 3.593710 -0.000001 -0.000004 -0.194387 -0.044331 1.089004
    7 1.999994 -3.000001 0.000004 -1.570793 0.000002 -1.326448
    8 2.033349 1.000771 -1.937607 -1.384921 1.273752 -3.061793
    9 6.028143 0.000002 -0.000004 1.862234 0.426383 -0.747774
    10 11.692545 0.000000 0.000000 -0.000011 0.000000 -1.723349
    11 11.481701 0.000000 0.000000 -0.862214 0.347991 -0.015944
    12 2.676086 -1.712440 0.000000 -1.570792 0.000003 -1.570793
    13 2.033341 1.000767 1.937660 2.412169 -1.487395 2.120588
    14 6.028140 0.000002 0.000000 -1.170410 0.327327 -0.724198
    15 11.692553 0.000000 0.000011 -0.000013 0.000000 -1.684770
    16 11.481667 0.000000 -0.000031 1.575391 -0.108951 -0.097558
    17 2.676086 -1.712440 0.000004 1.570795 0.000001 1.570795
    18 -3.890452 0.000004 0.000004 -1.138277 -0.144070 -1.161996
    19 17.848171 0.000000 0.000004 0.000009 0.000000 0.396314
    20 16.525251 0.000000 0.000004 -0.341261 0.193470 -1.186351
    21 6.879454 0.000000 0.000008 -0.078607 -0.002930 -0.924296
    22 3.890452 -0.000004 -0.000004 -0.944245 -0.825872 -2.025369
    23 17.848175 0.000000 -0.000004 0.000010 0.000000 1.511036
    24 16.525246 0.000000 0.000004 -0.146011 -0.109546 -0.996308
    25 6.879452 0.000000 0.000000 -0.007611 -0.003124 -0.582737
    26 3.859703 -0.142403 -1.191975 -0.568926 -0.013610 -1.526889
    27 1.312565 0.000001 0.000004 -0.086569 0.239740 -1.554310
    28 0.729362 0.000002 0.000004 -0.176890 0.315566 -1.429227
    29 3.942326 0.046774 -0.431438 0.030309 -0.060027 -1.757075
    30 1.539093 0.000001 0.000000 -0.058663 0.149388 -1.571890
    31 1.196320 -0.000001 0.000004 -0.107662 0.188362 -1.488327
    32 3.883686 -0.046767 0.431446 0.134425 0.056053 -1.771010
    33 1.719570 0.000002 0.000004 -0.030687 0.057172 -1.750786
    34 1.209183 -0.000001 -0.000004 -0.034252 0.059379 -1.537043
    35 3.859859 -0.137950 1.332462 0.524258 -0.087937 -1.819439
    36 1.719429 0.000002 0.000000 0.072018 -0.125293 -1.808386
    37 1.099670 0.000001 0.000004 0.072020 -0.125295 -0.669563
    38 0.806049 -0.348922 1.321259 -0.786557 -0.413955 -0.992027
    39 1.789787 0.000000 0.000004 0.004363 0.030240 0.718398
    40 1.207001 0.000000 -0.000004 0.102533 0.030240 0.502412
    41 3.859665 -0.132565 1.193108 0.693436 -0.009816 -1.600821
    42 1.312561 0.000000 0.000000 0.110761 -0.297055 -1.436131
    43 0.729366 0.000002 0.000000 0.157637 -0.341681 -1.408456
    44 3.942291 0.050330 0.431042 0.331346 -0.008608 -1.603851
    45 1.539097 0.000003 0.000000 0.050214 -0.153911 -1.591790
    46 1.196320 0.000000 0.000000 0.132539 -0.225789 -1.824936
    47 3.883648 -0.050325 -0.431044 -0.022374 -0.010304 -1.305812
    48 1.719574 -0.000005 0.000000 0.038733 -0.074557 -1.586292
    49 1.209183 -0.000001 0.000000 0.047518 -0.079997 -1.582092
    50 3.859825 -0.148935 -1.331284 -0.549062 -0.024858 -1.454209
    51 1.719425 0.000000 0.000000 -0.002108 0.024344 -1.684730
    52 1.099663 0.000000 0.000000 -0.007955 0.046800 -1.711623
    53 0.806015 -0.359835 -1.318335 1.200555 0.246503 -0.836612
    54 1.789780 0.000001 0.000000 0.046975 0.150711 0.289172
    55 1.207001 0.000000 0.000004 0.215983 -0.000003 0.942472
    56 3.643179 -1.117762 -6.586830 1.677301 0.043048 -2.001890
  time 19
    0 1.610982 -0.335943 35.457448 1.654364 0.030819 0.175442
    1 -0.124999 3.345128 -2.981903 1.576682 0.102068 1.620061
    2 4.018331 0.000000 0.000000 -0.052653 0.046237 0.165783
    3 3.518564 0.000000 0.000000 0.006449 0.015712 0.257177
    4 8.942642 0.000000 0.000000 0.028644 -0.106231 0.251515
    5 3.307269 0.000000 -0.000004 3.137477 0.001222 0.577187
    6 3.593710 -0.000001 -0.000004 -0.194801 -0.042593 1.072958
    7 1.999994 -3.000001 0.000004 -1.570793 0.000002 -1.326448
    8 2.033349 1.000771 -1.937607 -1.379726 1.273471 -3.056447
    9 6.028143 0.000002 -0.000004 1.832826 0.478309 -0.786505
    10 11.692545 0.000000 0.000000 -0.000011 0.000000 -1.687964
    11 11.481701 0.000000 0.000000 -0.860650 0.322964 -0.015600
    12 2.676086 -1.712440 0.000000 -1.570792 0.000003 -1.570793
    13 2.033341 1.000767 1.937660 2.412169 -1.487395 2.120588
    14 6.028140 0.000002 0.000000 -1.164564 0.366857 -0.713348
    15 11.692553 0.000000 0.000011 -0.000013 0.000000 -1.608819
    16 11.481667 0.000000 -0.000031 1.575452 -0.108951 -0.097558
    17 2.676086 -1.712440 0.000004 1.570795 0.000001 1.570795
    18 -3.890452 0.000004 0.000004 -1.038086 -0.141960 -1.360682
    19 17.848171 0.000000 0.000004 0.000009 0.000000 0.596340
    20 16.525251 0.000000 0.000004 -0.236382 -0.003860 -1.505475
    21 6.879454 0.000000 0.000008 -0.080249 -0.002930 -0.715080
    22 3.890452 -0.000004 -0.000004 -1.134662 -0.934347 -1.735204
    23 17.848175 0.000000 -0.000004 0.000010 0.000000 1.616400
    24 16.525246 0.000000 0.000004 -0.084561 -0.128262 -1.023319
    25 6.879452 0.000000 0.000000 -0.007886 -0.003315 -0.584013
    26 3.859703 -0.142403 -1.191975 -0.568926 -0.013610 -1.526889
    27 1.312565 0.000001 0.000004 -0.086569 0.239740 -1.554263
    28 0.729362 0.000002 0.000004 -0.176890 0.315566 -1.429227
    29 3.942326 0.046774 -0.431438 0.030309 -0.060027 -1.757075
    30 1.539093 0.000001 0.000000 -0.058663 0.149388 -1.571890
    31 1.196320 -0.000001 0.000004 -0.107662 0.188362 -1.488327
    32 3.883686 -0.046767 0.431446 0.134425 0.056053 -1.771010
    33 1.719570 0.000002 0.000004 -0.030687 0.057172 -1.750786
    34 1.209183 -0.000001 -0.000004 -0.034252 0.059379 -1.537043
    35 3.859859 -0.137950 1.332462 0.524258 -0.087937 -1.819439
    36 1.719429 0.000002 0.000000 0.072018 -0.125293 -1.808386
    37 1.099670 0.000001 0.000004 0.072020 -0.125295 -0.669563
    38 0.806049 -0.348922 1.321259 -0.786557 -0.413955 -0.992027
    39 1.789787 0.000000 0.000004 0.004363 0.030240 0.718398
    40 1.207001 0.000000 -0.000004 0.102533 0.030240 0.502412
    41 3.859665 -0.132565 1.193108 0.693436 -0.009816 -1.600821
    42 1.312561 0.000000 0.000000 0.110761 -0.297055 -1.436131
    43 0.729366 0.000002 0.000000 0.157637 -0.341681 -1.408413
    44 3.942291 0.050330 0.431042 0.331346 -0.008608 -1.603851
    45 1.539097 0.000003 0.000000 0.050214 -0.153911 -1.591790
    46 1.196320 0.000000 0.000000 0.132539 -0.225789 -1.824936
    47 3.883648 -0.050325 -0.431044 -0.022374 -0.010304 -1.305812
    48 1.719574 -0.000005 0.000000 0.038733 -0.074557 -1.586292
    49 1.209183 -0.000001 0.000000 0.047518 -0.079997 -1.582092
    50 3.859825 -0.148935 -1.331284 -0.549062 -0.024858 -1.454209
    51 1.719425 0.000000 0.000000 -0.002108 0.024344 -1.684730
    52 1.099663 0.000000 0.000000 -0.007967 0.046800 -1.711623
    53 0.806015 -0.359835 -1.318335 1.200555 0.246503 -0.836612
    54 1.789780 0.000001 0.000000 0.046975 0.150711 0.289172
    55 1.207001 0.000000 0.000004 0.215983 -0.000003 0.942472
    56 3.643179 -1.117762 -6.586830 1.677301 0.043060 -2.001890
  time 20
    0 1.610982 -0.335943 35.320725 1.650117 0.036512 0.140389
    1 -0.124999 3.345128 -2.981903 1.577412 0.102068 1.622238
    2 4.018331 0.000000 0.000000 -0.056729 0.036769 0.161265
    3 3.518564 0.000000 0.000000 0.004196 0.011481 0.256770
    4 8.942642 0.000000 0.000000 0.033830 -0.101186 0.250362
    5 3.307269 0.000000 -0.000004 3.137477 0.001222 0.577187
    6 3.593710 -0.000001 -0.000004 -0.195123 -0.041431 1.067891
    7 1.999994 -3.000001 0.000004 -1.570793 0.000002 -1.326448
    8 2.033349 1.000771 -1.937607 -1.394662 1.274274 -3.072104
    9 6.028143 0.000002 -0.000004 1.791287 0.484744 -0.801419
    10 11.692545 0.000000 0.000000 -0.000011 0.000000 -1.685596
    11 11.481701 0.000000 0.000000 -0.859193 0.299934 -0.015306
    12 2.676086 -1.712440 0.000000 -1.570792 0.000003 -1.570793
    13 2.033341 1.000767 1.937660 2.412169 -1.487395 2.120588
    14 6.028140 0.000002 0.000000 -1.186019 0.406286 -0.724939
    15 11.692553 0.000000 0.000011 -0.000013 0.000000 -1.579586
    16 11.481667 0.000000 -0.000031 1.575391 -0.108951 -0.097558
    17 2.676086 -1.712440 0.000004 1.570795 0.000001 1.570795
    18 -3.890452 0.000004 0.000004 -1.001798 -0.128640 -1.542875
    19 17.848171 0.000000 0.000004 0.000009 0.000000 0.689775
    20 16.525251 0.000000 0.000004 -0.064778 -0.070723 -1.626478
    21 6.879454 0.000000 0.000008 -0.081316 -0.002942 -0.617063
    22 3.890452 -0.000004 -0.000004 -1.378189 -0.962707 -1.417817
    23 17.848175 0.000000 -0.000004 0.000010 0.000000 1.607635
    24 16.525246 0.000000 0.000004 -0.025819 -0.071969 -1.002338
    25 6.879452 0.000000 0.000000 -0.007982 -0.003387 -0.584342
    26 3.859703 -0.142403 -1.191975 -0.568926 -0.013610 -1.526889
    27 1.312565 0.000001 0.000004 -0.086569 0.239740 -1.554263
    28 0.729362 0.000002 0.000004 -0.176890 0.315566 -1.429227
    29 3.942326 0.046774 -0.431438 0.030309 -0.060027 -1.757075
    30 1.539093 0.000001 0.000000 -0.058663 0.149388 -1.571890
    31 1.196320 -0.000001 0.000004 -0.107662 0.188362 -1.488327
    32 3.883686 -0.046767 0.431446 0.134425 0.056053 -1.771010
    33 1.719570 0.000002 0.000004 -0.030687 0.057172 -1.750786
    34 1.209183 -0.000001 -0.000004 -0.034252 0.059379 -1.537043
    35 3.859859 -0.137950 1.332462 0.524258 -0.087937 -1.819439
    36 1.719429 0.000002 0.000000 0.072018 -0.125293 -1.808386
    37 1.099670 0.000001 0.000004 0.072020 -0.125295 -0.669563
    38 0.806049 -0.348922 1.321259 -0.786557 -0.413955 -0.992027
    39 1.789787 0.000000 0.000004 0.004363 0.030240 0.718398
    40 1.207001 0.000000 -0.000004 0.102533 0.030240 0.502412
    41 3.859665 -0.132565 1.193108 0.693436 -0.009816 -1.600821
    42 1.312561 0.000000 0.000000 0.110761 -0.297055 -1.436131
    43 0.729366 0.000002 0.000000 0.157637 -0.341681 -1.408413
    44 3.942291 0.050330 0.431042 0.331346 -0.008608 -1.603851
    45 1.539097 0.000003 0.000000 0.050214 -0.153911 -1.591790
    46 1.196320 0.000000 0.000000 0.132539 -0.225789 -1.824936
    47 3.883648 -0.050325 -0.431044 -0.022374 -0.010304 -1.305812
    48 1.719574 -0.000005 0.000000 0.038733 -0.074557 -1.586292
    49 1.209183 -0.000001 0.000000 0.047518 -0.079997 -1.582092
    50 3.859825 -0.148935 -1.331284 -0.549062 -0.024858 -1.454209
    51 1.719425 0.000000 0.000000 -0.002108 0.024344 -1.684730
    52 1.099663 0.000000 0.000000 -0.007967 0.046800 -1.711623
    53 0.806015 -0.359835 -1.318335 1.200555 0.246503 -0.836612
    54 1.789780 0.000001 0.000000 0.046975 0.150711 0.289172
    55 1.207001 0.000000 0.000004 0.215983 -0.000003 0.942472
    56 3.643179 -1.117762 -6.586830 1.677301 0.043060 -2.001890
end
