// Created by Crowbar 0.71
version 1
nodes
  0 "ValveBiped.Bip01_Pelvis" -1
  1 "ValveBiped.Bip01_Spine" 0
  2 "ValveBiped.Bip01_Spine1" 1
  3 "ValveBiped.Bip01_Spine2" 2
  4 "ValveBiped.Bip01_Spine4" 3
  5 "ValveBiped.Bip01_Neck1" 4
  6 "ValveBiped.Bip01_Head1" 5
  7 "ValveBiped.forward" 6
  8 "ValveBiped.Bip01_R_Clavicle" 4
  9 "ValveBiped.Bip01_R_UpperArm" 8
  10 "ValveBiped.Bip01_R_Forearm" 9
  11 "ValveBiped.Bip01_R_Hand" 10
  12 "ValveBiped.Anim_Attachment_RH" 11
  13 "ValveBiped.Bip01_L_Clavicle" 4
  14 "ValveBiped.Bip01_L_UpperArm" 13
  15 "ValveBiped.Bip01_L_Forearm" 14
  16 "ValveBiped.Bip01_L_Hand" 15
  17 "ValveBiped.Anim_Attachment_LH" 16
  18 "ValveBiped.Bip01_R_Thigh" 0
  19 "ValveBiped.Bip01_R_Calf" 18
  20 "ValveBiped.Bip01_R_Foot" 19
  21 "ValveBiped.Bip01_R_Toe0" 20
  22 "ValveBiped.Bip01_L_Thigh" 0
  23 "ValveBiped.Bip01_L_Calf" 22
  24 "ValveBiped.Bip01_L_Foot" 23
  25 "ValveBiped.Bip01_L_Toe0" 24
  26 "ValveBiped.Bip01_L_Finger4" 16
  27 "ValveBiped.Bip01_L_Finger41" 26
  28 "ValveBiped.Bip01_L_Finger42" 27
  29 "ValveBiped.Bip01_L_Finger3" 16
  30 "ValveBiped.Bip01_L_Finger31" 29
  31 "ValveBiped.Bip01_L_Finger32" 30
  32 "ValveBiped.Bip01_L_Finger2" 16
  33 "ValveBiped.Bip01_L_Finger21" 32
  34 "ValveBiped.Bip01_L_Finger22" 33
  35 "ValveBiped.Bip01_L_Finger1" 16
  36 "ValveBiped.Bip01_L_Finger11" 35
  37 "ValveBiped.Bip01_L_Finger12" 36
  38 "ValveBiped.Bip01_L_Finger0" 16
  39 "ValveBiped.Bip01_L_Finger01" 38
  40 "ValveBiped.Bip01_L_Finger02" 39
  41 "ValveBiped.Bip01_R_Finger4" 11
  42 "ValveBiped.Bip01_R_Finger41" 41
  43 "ValveBiped.Bip01_R_Finger42" 42
  44 "ValveBiped.Bip01_R_Finger3" 11
  45 "ValveBiped.Bip01_R_Finger31" 44
  46 "ValveBiped.Bip01_R_Finger32" 45
  47 "ValveBiped.Bip01_R_Finger2" 11
  48 "ValveBiped.Bip01_R_Finger21" 47
  49 "ValveBiped.Bip01_R_Finger22" 48
  50 "ValveBiped.Bip01_R_Finger1" 11
  51 "ValveBiped.Bip01_R_Finger11" 50
  52 "ValveBiped.Bip01_R_Finger12" 51
  53 "ValveBiped.Bip01_R_Finger0" 11
  54 "ValveBiped.Bip01_R_Finger01" 53
  55 "ValveBiped.Bip01_R_Finger02" 54
  56 "ValveBiped.baton_parent" 11
end
skeleton
  time 0
    0 1.610982 -0.335943 36.820770 1.452939 0.042264 -0.041693
    1 -0.124999 3.345128 -2.981903 1.573663 0.102068 1.613284
    2 4.018331 0.000000 0.000000 -0.051831 0.061960 0.276125
    3 3.518564 0.000000 0.000000 -0.000778 0.013830 0.255643
    4 8.942642 0.000000 0.000000 0.007516 -0.114716 0.246259
    5 3.307269 0.000000 -0.000004 -2.906805 -0.179539 0.555960
    6 3.593710 -0.000001 -0.000004 -0.227446 0.035510 1.001348
    7 1.999994 -3.000001 0.000004 -1.570793 0.000002 -1.326448
    8 2.033349 1.000771 -1.937607 -1.389096 1.273953 -3.066089
    9 6.028143 0.000002 -0.000004 1.626233 -0.138953 -0.601930
    10 11.692545 0.000000 0.000000 -0.000011 0.000000 -1.935266
    11 11.481701 0.000000 0.000000 -0.857952 0.279310 -0.015061
    12 2.676086 -1.712440 0.000000 -1.570792 0.000005 -1.570792
    13 2.033341 1.000767 1.937660 2.412174 -1.487397 2.120583
    14 6.028140 0.000002 0.000000 -1.283530 0.059856 -1.081367
    15 11.692553 0.000000 0.000011 -0.000013 0.000000 -1.886397
    16 11.481667 0.000000 -0.000031 1.575391 -0.108951 -0.097558
    17 2.676086 -1.712440 0.000004 1.570793 0.000005 1.570793
    18 -3.890452 0.000004 0.000004 -1.177692 -0.129382 -1.572473
    19 17.848171 0.000000 0.000004 0.000009 0.000000 0.621754
    20 16.525251 0.000000 0.000004 -0.113964 -0.032027 -1.389197
    21 6.879454 0.000000 0.000008 -0.081352 -0.002954 -0.617063
    22 3.890452 -0.000004 -0.000004 -1.841014 -0.335168 -1.382414
    23 17.848175 0.000000 -0.000004 0.000010 0.000000 1.517359
    24 16.525246 0.000000 0.000004 0.157872 -0.084953 -0.994500
    25 6.879452 0.000000 0.000000 -0.006568 -0.002968 -0.651724
    26 3.859703 -0.142403 -1.191975 -0.568926 -0.013610 -1.526889
    27 1.312565 0.000001 0.000004 -0.086569 0.239740 -1.554263
    28 0.729362 0.000002 0.000004 -0.176890 0.315566 -1.429227
    29 3.942326 0.046774 -0.431438 0.030304 -0.060024 -1.757047
    30 1.539093 0.000001 0.000000 -0.058663 0.149388 -1.571890
    31 1.196320 -0.000001 0.000004 -0.107662 0.188362 -1.488327
    32 3.883686 -0.046767 0.431446 0.134425 0.056053 -1.771010
    33 1.719570 0.000002 0.000004 -0.030687 0.057172 -1.750786
    34 1.209183 -0.000001 -0.000004 -0.034252 0.059379 -1.537043
    35 3.859859 -0.137950 1.332462 0.524258 -0.087938 -1.819436
    36 1.719429 0.000002 0.000000 0.072018 -0.125293 -1.808386
    37 1.099670 0.000001 0.000004 0.072020 -0.125295 -0.669563
    38 0.806049 -0.348922 1.321259 -0.786557 -0.413955 -0.992027
    39 1.789787 0.000000 0.000004 0.004364 0.030238 0.718398
    40 1.207001 0.000000 -0.000004 0.102534 0.030239 0.502412
    41 3.859665 -0.132565 1.193108 0.693436 -0.009816 -1.600821
    42 1.312561 0.000000 0.000000 0.110761 -0.297055 -1.436131
    43 0.729366 0.000002 0.000000 0.157645 -0.341689 -1.408420
    44 3.942291 0.050330 0.431042 0.331339 -0.008608 -1.603808
    45 1.539097 0.000003 0.000000 0.050205 -0.153906 -1.591787
    46 1.196320 0.000000 0.000000 0.132539 -0.225789 -1.824936
    47 3.883648 -0.050325 -0.431044 -0.022374 -0.010304 -1.305812
    48 1.719574 -0.000005 0.000000 0.038733 -0.074557 -1.586292
    49 1.209183 -0.000001 0.000000 0.047515 -0.079999 -1.582137
    50 3.859825 -0.148935 -1.331284 -0.549076 -0.024863 -1.454250
    51 1.719425 0.000000 0.000000 -0.002107 0.024342 -1.684730
    52 1.099663 0.000000 0.000000 -0.007967 0.046800 -1.711623
    53 0.806015 -0.359835 -1.318335 1.200555 0.246503 -0.836612
    54 1.789780 0.000001 0.000000 0.046973 0.150711 0.289172
    55 1.207001 0.000000 0.000004 0.215981 -0.000002 0.942472
    56 3.643179 -1.117762 -6.586830 1.677301 0.043048 -2.001890
  time 1
    0 1.610982 -0.335943 37.566887 1.459691 0.046579 -0.032910
    1 -0.124999 3.345128 -2.981903 1.575075 0.102068 1.616499
    2 4.018331 0.000000 0.000000 -0.046783 0.061565 0.276053
    3 3.518564 0.000000 0.000000 0.004627 0.016874 0.253462
    4 8.942642 0.000000 0.000000 0.023164 -0.115579 0.248118
    5 3.307269 0.000000 -0.000004 -2.906805 -0.179539 0.555960
    6 3.593710 -0.000001 -0.000004 -0.258023 0.037799 1.003037
    7 1.999994 -3.000001 0.000004 -1.570793 0.000002 -1.326448
    8 2.033349 1.000771 -1.937607 -1.392157 1.274113 -3.069526
    9 6.028143 0.000002 -0.000004 1.665567 -0.258552 -0.620871
    10 11.692545 0.000000 0.000000 -0.000011 0.000000 -1.957102
    11 11.481701 0.000000 0.000000 -0.856711 0.258877 -0.014864
    12 2.676086 -1.712440 0.000000 -1.570792 0.000005 -1.570792
    13 2.033341 1.000767 1.937660 2.412174 -1.487397 2.120583
    14 6.028140 0.000002 0.000000 -1.243076 -0.060894 -1.132023
    15 11.692553 0.000000 0.000011 -0.000013 0.000000 -1.879613
    16 11.481667 0.000000 -0.000031 1.575391 -0.108951 -0.097558
    17 2.676086 -1.712440 0.000004 1.570793 0.000005 1.570793
    18 -3.890452 0.000004 0.000004 -1.173031 -0.194355 -1.522610
    19 17.848171 0.000000 0.000004 0.000009 0.000000 0.402294
    20 16.525251 0.000000 0.000004 -0.161754 -0.002719 -1.233506
    21 6.879454 0.000000 0.000008 -0.081603 -0.003145 -0.617063
    22 3.890452 -0.000004 -0.000004 -1.871445 0.042853 -1.372172
    23 17.848175 0.000000 -0.000004 0.000010 0.000000 1.149805
    24 16.525246 0.000000 0.000004 0.197755 0.038554 -0.982502
    25 6.879452 0.000000 0.000000 -0.003883 -0.003124 -1.023456
    26 3.859703 -0.142403 -1.191975 -0.568926 -0.013610 -1.526889
    27 1.312565 0.000001 0.000004 -0.086569 0.239740 -1.554263
    28 0.729362 0.000002 0.000004 -0.176890 0.315566 -1.429227
    29 3.942326 0.046774 -0.431438 0.030304 -0.060024 -1.757047
    30 1.539093 0.000001 0.000000 -0.058663 0.149388 -1.571890
    31 1.196320 -0.000001 0.000004 -0.107662 0.188362 -1.488327
    32 3.883686 -0.046767 0.431446 0.134425 0.056053 -1.771010
    33 1.719570 0.000002 0.000004 -0.030687 0.057172 -1.750786
    34 1.209183 -0.000001 -0.000004 -0.034252 0.059379 -1.537043
    35 3.859859 -0.137950 1.332462 0.524258 -0.087938 -1.819436
    36 1.719429 0.000002 0.000000 0.072018 -0.125293 -1.808386
    37 1.099670 0.000001 0.000004 0.072020 -0.125295 -0.669563
    38 0.806049 -0.348922 1.321259 -0.786557 -0.413955 -0.992027
    39 1.789787 0.000000 0.000004 0.004364 0.030238 0.718398
    40 1.207001 0.000000 -0.000004 0.102534 0.030239 0.502412
    41 3.859665 -0.132565 1.193108 0.693436 -0.009816 -1.600821
    42 1.312561 0.000000 0.000000 0.110761 -0.297055 -1.436131
    43 0.729366 0.000002 0.000000 0.157645 -0.341689 -1.408420
    44 3.942291 0.050330 0.431042 0.331339 -0.008608 -1.603808
    45 1.539097 0.000003 0.000000 0.050205 -0.153906 -1.591835
    46 1.196320 0.000000 0.000000 0.132539 -0.225789 -1.824936
    47 3.883648 -0.050325 -0.431044 -0.022374 -0.010304 -1.305812
    48 1.719574 -0.000005 0.000000 0.038733 -0.074557 -1.586292
    49 1.209183 -0.000001 0.000000 0.047515 -0.079999 -1.582137
    50 3.859825 -0.148935 -1.331284 -0.549076 -0.024863 -1.454250
    51 1.719425 0.000000 0.000000 -0.002107 0.024342 -1.684730
    52 1.099663 0.000000 0.000000 -0.007967 0.046800 -1.711623
    53 0.806015 -0.359835 -1.318335 1.200555 0.246503 -0.836612
    54 1.789780 0.000001 0.000000 0.046973 0.150711 0.289172
    55 1.207001 0.000000 0.000004 0.215981 -0.000002 0.942472
    56 3.643179 -1.117762 -6.586830 1.677301 0.043048 -2.001890
  time 2
    0 1.610982 -0.335943 38.438007 1.471344 0.049539 -0.016330
    1 -0.124999 3.345128 -2.981903 1.576244 0.102068 1.619220
    2 4.018331 0.000000 0.000000 -0.046764 0.056555 0.272973
    3 3.518564 0.000000 0.000000 0.006245 0.017078 0.245001
    4 8.942642 0.000000 0.000000 0.034671 -0.113794 0.249855
    5 3.307269 0.000000 -0.000004 -2.906805 -0.179539 0.555960
    6 3.593710 -0.000001 -0.000004 -0.294531 0.040556 1.005324
    7 1.999994 -3.000001 0.000004 -1.570793 0.000002 -1.326448
    8 2.033349 1.000771 -1.937607 -1.394105 1.274234 -3.071435
    9 6.028143 0.000002 -0.000004 1.700030 -0.349520 -0.650238
    10 11.692545 0.000000 0.000000 -0.000011 0.000000 -1.970388
    11 11.481701 0.000000 0.000000 -0.855471 0.238698 -0.014668
    12 2.676086 -1.712440 0.000000 -1.570792 0.000005 -1.570792
    13 2.033341 1.000767 1.937660 2.412174 -1.487397 2.120583
    14 6.028140 0.000002 0.000000 -1.198646 -0.153783 -1.191656
    15 11.692553 0.000000 0.000011 -0.000013 0.000000 -1.860940
    16 11.481667 0.000000 -0.000031 1.575391 -0.108951 -0.097558
    17 2.676086 -1.712440 0.000004 1.570793 0.000005 1.570793
    18 -3.890452 0.000004 0.000004 -1.169903 -0.110243 -1.437011
    19 17.848171 0.000000 0.000004 0.000009 0.000000 0.000000
    20 16.525251 0.000000 0.000004 -0.178356 -0.026893 -1.149653
    21 6.879454 0.000000 0.000008 -0.089465 -0.005758 -0.642973
    22 3.890452 -0.000004 -0.000004 -1.918029 0.282735 -1.353817
    23 17.848175 0.000000 -0.000004 0.000010 0.000000 0.817309
    24 16.525246 0.000000 0.000004 0.250215 0.121085 -0.707089
    25 6.879452 0.000000 0.000000 -0.003248 -0.002668 -1.094871
    26 3.859703 -0.142403 -1.191975 -0.568926 -0.013610 -1.526889
    27 1.312565 0.000001 0.000004 -0.086569 0.239740 -1.554263
    28 0.729362 0.000002 0.000004 -0.176890 0.315566 -1.429227
    29 3.942326 0.046774 -0.431438 0.030304 -0.060024 -1.757047
    30 1.539093 0.000001 0.000000 -0.058651 0.149388 -1.571890
    31 1.196320 -0.000001 0.000004 -0.107662 0.188362 -1.488327
    32 3.883686 -0.046767 0.431446 0.134425 0.056053 -1.771010
    33 1.719570 0.000002 0.000004 -0.030687 0.057172 -1.750786
    34 1.209183 -0.000001 -0.000004 -0.034252 0.059379 -1.537043
    35 3.859859 -0.137950 1.332462 0.524258 -0.087938 -1.819436
    36 1.719429 0.000002 0.000000 0.072018 -0.125293 -1.808386
    37 1.099670 0.000001 0.000004 0.072020 -0.125295 -0.669563
    38 0.806049 -0.348922 1.321259 -0.786557 -0.413955 -0.992027
    39 1.789787 0.000000 0.000004 0.004364 0.030238 0.718398
    40 1.207001 0.000000 -0.000004 0.102534 0.030239 0.502412
    41 3.859665 -0.132565 1.193108 0.693436 -0.009816 -1.600821
    42 1.312561 0.000000 0.000000 0.110761 -0.297055 -1.436131
    43 0.729366 0.000002 0.000000 0.157645 -0.341689 -1.408420
    44 3.942291 0.050330 0.431042 0.331339 -0.008608 -1.603808
    45 1.539097 0.000003 0.000000 0.050205 -0.153906 -1.591787
    46 1.196320 0.000000 0.000000 0.132539 -0.225789 -1.824936
    47 3.883648 -0.050325 -0.431044 -0.022374 -0.010304 -1.305812
    48 1.719574 -0.000005 0.000000 0.038733 -0.074557 -1.586292
    49 1.209183 -0.000001 0.000000 0.047515 -0.079999 -1.582137
    50 3.859825 -0.148935 -1.331284 -0.549076 -0.024863 -1.454250
    51 1.719425 0.000000 0.000000 -0.002107 0.024342 -1.684730
    52 1.099663 0.000000 0.000000 -0.007967 0.046800 -1.711623
    53 0.806015 -0.359835 -1.318335 1.200555 0.246503 -0.836612
    54 1.789780 0.000001 0.000000 0.046973 0.150711 0.289172
    55 1.207001 0.000000 0.000004 0.215981 -0.000002 0.942472
    56 3.643179 -1.117762 -6.586830 1.677301 0.043060 -2.001890
  time 3
    0 1.610982 -0.335943 39.090371 1.484141 0.050390 0.005323
    1 -0.124999 3.345128 -2.981903 1.577023 0.102068 1.621149
    2 4.018331 0.000000 0.000000 -0.050410 0.047831 0.267005
    3 3.518564 0.000000 0.000000 0.004783 0.013878 0.231087
    4 8.942642 0.000000 0.000000 0.038596 -0.108916 0.250854
    5 3.307269 0.000000 -0.000004 -2.906805 -0.179539 0.555960
    6 3.593710 -0.000001 -0.000004 -0.325061 0.042953 1.007506
    7 1.999994 -3.000001 0.000004 -1.570793 0.000002 -1.326448
    8 2.033349 1.000771 -1.937607 -1.394847 1.274274 -3.072294
    9 6.028143 0.000002 -0.000004 1.721810 -0.406992 -0.680453
    10 11.692545 0.000000 0.000000 -0.000011 0.000000 -1.981503
    11 11.481701 0.000000 0.000000 -0.854284 0.218391 -0.014521
    12 2.676086 -1.712440 0.000000 -1.570792 0.000005 -1.570792
    13 2.033341 1.000767 1.937660 2.412174 -1.487397 2.120583
    14 6.028140 0.000002 0.000000 -1.158134 -0.207008 -1.250039
    15 11.692553 0.000000 0.000011 -0.000013 0.000000 -1.839609
    16 11.481667 0.000000 -0.000031 1.575391 -0.108951 -0.097558
    17 2.676086 -1.712440 0.000004 1.570793 0.000005 1.570793
    18 -3.890452 0.000004 0.000004 -1.151140 -0.168770 -1.436819
    19 17.848171 0.000000 0.000004 0.000009 0.000000 0.000000
    20 16.525251 0.000000 0.000004 -0.195576 -0.004620 -1.045691
    21 6.879454 0.000000 0.000008 -0.088219 -0.005315 -0.635527
    22 3.890452 -0.000004 -0.000004 -1.940546 0.422053 -1.358629
    23 17.848175 0.000000 -0.000004 0.000010 0.000000 0.509730
    24 16.525246 0.000000 0.000004 0.288488 0.146184 -0.358965
    25 6.879452 0.000000 0.000000 -0.003368 -0.002836 -1.086927
    26 3.859703 -0.142403 -1.191975 -0.568926 -0.013610 -1.526889
    27 1.312565 0.000001 0.000004 -0.086569 0.239740 -1.554310
    28 0.729362 0.000002 0.000004 -0.176890 0.315566 -1.429227
    29 3.942326 0.046774 -0.431438 0.030304 -0.060024 -1.757047
    30 1.539093 0.000001 0.000000 -0.058663 0.149388 -1.571890
    31 1.196320 -0.000001 0.000004 -0.107662 0.188362 -1.488327
    32 3.883686 -0.046767 0.431446 0.134425 0.056053 -1.771010
    33 1.719570 0.000002 0.000004 -0.030687 0.057172 -1.750786
    34 1.209183 -0.000001 -0.000004 -0.034252 0.059379 -1.537043
    35 3.859859 -0.137950 1.332462 0.524258 -0.087938 -1.819436
    36 1.719429 0.000002 0.000000 0.072018 -0.125293 -1.808386
    37 1.099670 0.000001 0.000004 0.072020 -0.125295 -0.669563
    38 0.806049 -0.348922 1.321259 -0.786557 -0.413955 -0.992027
    39 1.789787 0.000000 0.000004 0.004364 0.030238 0.718398
    40 1.207001 0.000000 -0.000004 0.102534 0.030239 0.502412
    41 3.859665 -0.132565 1.193108 0.693436 -0.009816 -1.600821
    42 1.312561 0.000000 0.000000 0.110761 -0.297055 -1.436131
    43 0.729366 0.000002 0.000000 0.157645 -0.341689 -1.408420
    44 3.942291 0.050330 0.431042 0.331339 -0.008608 -1.603808
    45 1.539097 0.000003 0.000000 0.050205 -0.153906 -1.591787
    46 1.196320 0.000000 0.000000 0.132539 -0.225789 -1.824936
    47 3.883648 -0.050325 -0.431044 -0.022374 -0.010304 -1.305812
    48 1.719574 -0.000005 0.000000 0.038733 -0.074557 -1.586292
    49 1.209183 -0.000001 0.000000 0.047515 -0.079999 -1.582137
    50 3.859825 -0.148935 -1.331284 -0.549076 -0.024863 -1.454250
    51 1.719425 0.000000 0.000000 -0.002107 0.024342 -1.684730
    52 1.099663 0.000000 0.000000 -0.007967 0.046800 -1.711623
    53 0.806015 -0.359835 -1.318335 1.200555 0.246503 -0.836612
    54 1.789780 0.000001 0.000000 0.046973 0.150711 0.289172
    55 1.207001 0.000000 0.000004 0.215981 -0.000002 0.942472
    56 3.643179 -1.117762 -6.586830 1.677301 0.043048 -2.001890
  time 4
    0 1.610982 -0.335943 39.250532 1.494487 0.048053 0.029020
    1 -0.124999 3.345128 -2.981903 1.577412 0.102068 1.622238
    2 4.018331 0.000000 0.000000 -0.056729 0.036769 0.261000
    3 3.518564 0.000000 0.000000 0.000409 0.007227 0.216885
    4 8.942642 0.000000 0.000000 0.033830 -0.101186 0.250362
    5 3.307269 0.000000 -0.000004 -2.906805 -0.179539 0.555960
    6 3.593710 -0.000001 -0.000004 -0.337890 0.043995 1.008456
    7 1.999994 -3.000001 0.000004 -1.570793 0.000002 -1.326448
    8 2.033349 1.000771 -1.937607 -1.394662 1.274274 -3.072104
    9 6.028143 0.000002 -0.000004 1.727876 -0.422389 -0.703777
    10 11.692545 0.000000 0.000000 -0.000011 0.000000 -1.995447
    11 11.481701 0.000000 0.000000 -0.853043 0.197800 -0.014374
    12 2.676086 -1.712440 0.000000 -1.570792 0.000005 -1.570792
    13 2.033341 1.000767 1.937660 2.412174 -1.487397 2.120583
    14 6.028140 0.000002 0.000000 -1.138783 -0.221713 -1.277982
    15 11.692553 0.000000 0.000011 -0.000013 0.000000 -1.830028
    16 11.481667 0.000000 -0.000031 1.575391 -0.108951 -0.097558
    17 2.676086 -1.712440 0.000004 1.570793 0.000005 1.570793
    18 -3.890452 0.000004 0.000004 -1.110308 -0.341927 -1.513468
    19 17.848171 0.000000 0.000004 0.000009 0.000000 0.356474
    20 16.525251 0.000000 0.000004 -0.220098 0.038040 -1.119842
    21 6.879454 0.000000 0.000008 -0.081663 -0.003181 -0.617063
    22 3.890452 -0.000004 -0.000004 -1.951887 0.583377 -1.411287
    23 17.848175 0.000000 -0.000004 0.000010 0.000000 0.127777
    24 16.525246 0.000000 0.000004 0.265633 0.195533 -0.190510
    25 6.879452 0.000000 0.000000 -0.003464 -0.002920 -1.078612
    26 3.859703 -0.142403 -1.191975 -0.568926 -0.013610 -1.526889
    27 1.312565 0.000001 0.000004 -0.086569 0.239740 -1.554310
    28 0.729362 0.000002 0.000004 -0.176890 0.315566 -1.429227
    29 3.942326 0.046774 -0.431438 0.030304 -0.060024 -1.757047
    30 1.539093 0.000001 0.000000 -0.058651 0.149388 -1.571890
    31 1.196320 -0.000001 0.000004 -0.107662 0.188362 -1.488327
    32 3.883686 -0.046767 0.431446 0.134425 0.056053 -1.771010
    33 1.719570 0.000002 0.000004 -0.030687 0.057172 -1.750786
    34 1.209183 -0.000001 -0.000004 -0.034252 0.059379 -1.537043
    35 3.859859 -0.137950 1.332462 0.524258 -0.087938 -1.819436
    36 1.719429 0.000002 0.000000 0.072018 -0.125293 -1.808386
    37 1.099670 0.000001 0.000004 0.072020 -0.125295 -0.669563
    38 0.806049 -0.348922 1.321259 -0.786557 -0.413955 -0.992027
    39 1.789787 0.000000 0.000004 0.004364 0.030238 0.718398
    40 1.207001 0.000000 -0.000004 0.102534 0.030239 0.502412
    41 3.859665 -0.132565 1.193108 0.693436 -0.009816 -1.600821
    42 1.312561 0.000000 0.000000 0.110761 -0.297055 -1.436131
    43 0.729366 0.000002 0.000000 0.157645 -0.341689 -1.408420
    44 3.942291 0.050330 0.431042 0.331339 -0.008608 -1.603808
    45 1.539097 0.000003 0.000000 0.050205 -0.153906 -1.591787
    46 1.196320 0.000000 0.000000 0.132539 -0.225789 -1.824936
    47 3.883648 -0.050325 -0.431044 -0.022374 -0.010304 -1.305812
    48 1.719574 -0.000005 0.000000 0.038733 -0.074557 -1.586292
    49 1.209183 -0.000001 0.000000 0.047515 -0.079999 -1.582137
    50 3.859825 -0.148935 -1.331284 -0.549076 -0.024863 -1.454250
    51 1.719425 0.000000 0.000000 -0.002107 0.024342 -1.684730
    52 1.099663 0.000000 0.000000 -0.007967 0.046800 -1.711623
    53 0.806015 -0.359835 -1.318335 1.200555 0.246503 -0.836612
    54 1.789780 0.000001 0.000000 0.046973 0.150711 0.289172
    55 1.207001 0.000000 0.000004 0.215981 -0.000002 0.942472
    56 3.643179 -1.117762 -6.586830 1.677301 0.043048 -2.001890
  time 5
    0 1.610982 -0.335943 38.809112 1.498571 0.042648 0.052793
    1 -0.124999 3.345128 -2.981903 1.577510 0.102068 1.622485
    2 4.018331 0.000000 0.000000 -0.064694 0.024808 0.256686
    3 3.518564 0.000000 0.000000 -0.005847 -0.001941 0.205476
    4 8.942642 0.000000 0.000000 0.025178 -0.092389 0.247626
    5 3.307269 0.000000 -0.000004 -2.906805 -0.179539 0.555960
    6 3.593710 -0.000001 -0.000004 -0.333568 0.041658 1.008174
    7 1.999994 -3.000001 0.000004 -1.570793 0.000002 -1.326448
    8 2.033349 1.000771 -1.937607 -1.393641 1.274194 -3.070958
    9 6.028143 0.000002 -0.000004 1.721167 -0.394106 -0.720245
    10 11.692545 0.000000 0.000000 -0.000011 0.000000 -2.008798
    11 11.481701 0.000000 0.000000 -0.852072 0.181675 -0.014276
    12 2.676086 -1.712440 0.000000 -1.570792 0.000005 -1.570792
    13 2.033341 1.000767 1.937660 2.412174 -1.487397 2.120583
    14 6.028140 0.000002 0.000000 -1.145272 -0.188322 -1.246371
    15 11.692553 0.000000 0.000011 -0.000013 0.000000 -1.845344
    16 11.481667 0.000000 -0.000031 1.575391 -0.108951 -0.097558
    17 2.676086 -1.712440 0.000004 1.570793 0.000005 1.570793
    18 -3.890452 0.000004 0.000004 -1.041921 -0.512888 -1.636336
    19 17.848171 0.000000 0.000004 0.000009 0.000000 0.804439
    20 16.525251 0.000000 0.000004 -0.203868 0.084897 -1.148295
    21 6.879454 0.000000 0.000008 -0.080357 -0.002954 -0.707520
    22 3.890452 -0.000004 -0.000004 -1.886620 0.560571 -1.409224
    23 17.848175 0.000000 -0.000004 0.000010 0.000000 0.139421
    24 16.525246 0.000000 0.000004 0.162484 0.234972 -0.404365
    25 6.879452 0.000000 0.000000 -0.003368 -0.002692 -1.070833
    26 3.859703 -0.142403 -1.191975 -0.568926 -0.013610 -1.526889
    27 1.312565 0.000001 0.000004 -0.086569 0.239740 -1.554310
    28 0.729362 0.000002 0.000004 -0.176890 0.315566 -1.429227
    29 3.942326 0.046774 -0.431438 0.030304 -0.060024 -1.757047
    30 1.539093 0.000001 0.000000 -0.058663 0.149388 -1.571890
    31 1.196320 -0.000001 0.000004 -0.107662 0.188362 -1.488327
    32 3.883686 -0.046767 0.431446 0.134425 0.056053 -1.771010
    33 1.719570 0.000002 0.000004 -0.030687 0.057172 -1.750786
    34 1.209183 -0.000001 -0.000004 -0.034252 0.059379 -1.537043
    35 3.859859 -0.137950 1.332462 0.524258 -0.087938 -1.819436
    36 1.719429 0.000002 0.000000 0.072018 -0.125293 -1.808386
    37 1.099670 0.000001 0.000004 0.072020 -0.125295 -0.669563
    38 0.806049 -0.348922 1.321259 -0.786557 -0.413955 -0.992027
    39 1.789787 0.000000 0.000004 0.004364 0.030238 0.718398
    40 1.207001 0.000000 -0.000004 0.102534 0.030239 0.502412
    41 3.859665 -0.132565 1.193108 0.693436 -0.009816 -1.600821
    42 1.312561 0.000000 0.000000 0.110761 -0.297055 -1.436131
    43 0.729366 0.000002 0.000000 0.157645 -0.341689 -1.408420
    44 3.942291 0.050330 0.431042 0.331339 -0.008608 -1.603808
    45 1.539097 0.000003 0.000000 0.050205 -0.153906 -1.591787
    46 1.196320 0.000000 0.000000 0.132539 -0.225789 -1.824936
    47 3.883648 -0.050325 -0.431044 -0.022374 -0.010304 -1.305812
    48 1.719574 -0.000005 0.000000 0.038733 -0.074557 -1.586292
    49 1.209183 -0.000001 0.000000 0.047515 -0.079999 -1.582137
    50 3.859825 -0.148935 -1.331284 -0.549076 -0.024863 -1.454250
    51 1.719425 0.000000 0.000000 -0.002107 0.024342 -1.684730
    52 1.099663 0.000000 0.000000 -0.007967 0.046800 -1.711623
    53 0.806015 -0.359835 -1.318335 1.200555 0.246503 -0.836612
    54 1.789780 0.000001 0.000000 0.046973 0.150711 0.289172
    55 1.207001 0.000000 0.000004 0.215981 -0.000002 0.942472
    56 3.643179 -1.117762 -6.586830 1.677301 0.043060 -2.001890
  time 6
    0 1.610982 -0.335943 37.926273 1.491983 0.034666 0.074976
    1 -0.124999 3.345128 -2.981903 1.577315 0.102068 1.621496
    2 4.018331 0.000000 0.000000 -0.073443 0.012800 0.256362
    3 3.518564 0.000000 0.000000 -0.012978 -0.011266 0.204805
    4 8.942642 0.000000 0.000000 0.013709 -0.083401 0.243262
    5 3.307269 0.000000 -0.000004 -2.906805 -0.179539 0.555960
    6 3.593710 -0.000001 -0.000004 -0.321659 0.035403 1.007471
    7 1.999994 -3.000001 0.000004 -1.570793 0.000002 -1.326448
    8 2.033349 1.000771 -1.937607 -1.391971 1.274113 -3.069239
    9 6.028143 0.000002 -0.000004 1.707382 -0.322301 -0.732366
    10 11.692545 0.000000 0.000000 -0.000011 0.000000 -2.011824
    11 11.481701 0.000000 0.000000 -0.851748 0.175909 -0.014276
    12 2.676086 -1.712440 0.000000 -1.570792 0.000005 -1.570792
    13 2.033341 1.000767 1.937660 2.412174 -1.487397 2.120583
    14 6.028140 0.000002 0.000000 -1.161407 -0.112128 -1.190875
    15 11.692553 0.000000 0.000011 -0.000013 0.000000 -1.870451
    16 11.481667 0.000000 -0.000031 1.575391 -0.108951 -0.097558
    17 2.676086 -1.712440 0.000004 1.570793 0.000005 1.570793
    18 -3.890452 0.000004 0.000004 -0.963563 -0.621499 -1.776081
    19 17.848171 0.000000 0.000004 0.000009 0.000000 1.207181
    20 16.525251 0.000000 0.000004 -0.168101 0.115740 -1.144575
    21 6.879454 0.000000 0.000008 -0.078428 -0.003001 -0.963047
    22 3.890452 -0.000004 -0.000004 -1.770771 0.415068 -1.413486
    23 17.848175 0.000000 -0.000004 0.000010 0.000000 0.363422
    24 16.525246 0.000000 0.000004 0.008266 0.188896 -0.846785
    25 6.879452 0.000000 0.000000 -0.003392 -0.002644 -1.064329
    26 3.859703 -0.142403 -1.191975 -0.568926 -0.013610 -1.526889
    27 1.312565 0.000001 0.000004 -0.086569 0.239740 -1.554310
    28 0.729362 0.000002 0.000004 -0.176890 0.315566 -1.429227
    29 3.942326 0.046774 -0.431438 0.030304 -0.060024 -1.757047
    30 1.539093 0.000001 0.000000 -0.058651 0.149388 -1.571890
    31 1.196320 -0.000001 0.000004 -0.107662 0.188362 -1.488327
    32 3.883686 -0.046767 0.431446 0.134425 0.056053 -1.771010
    33 1.719570 0.000002 0.000004 -0.030687 0.057172 -1.750786
    34 1.209183 -0.000001 -0.000004 -0.034252 0.059379 -1.537043
    35 3.859859 -0.137950 1.332462 0.524258 -0.087938 -1.819436
    36 1.719429 0.000002 0.000000 0.072018 -0.125293 -1.808386
    37 1.099670 0.000001 0.000004 0.072020 -0.125295 -0.669563
    38 0.806049 -0.348922 1.321259 -0.786557 -0.413955 -0.992027
    39 1.789787 0.000000 0.000004 0.004364 0.030238 0.718398
    40 1.207001 0.000000 -0.000004 0.102534 0.030239 0.502412
    41 3.859665 -0.132565 1.193108 0.693436 -0.009816 -1.600821
    42 1.312561 0.000000 0.000000 0.110761 -0.297055 -1.436131
    43 0.729366 0.000002 0.000000 0.157645 -0.341689 -1.408420
    44 3.942291 0.050330 0.431042 0.331339 -0.008608 -1.603808
    45 1.539097 0.000003 0.000000 0.050205 -0.153906 -1.591787
    46 1.196320 0.000000 0.000000 0.132539 -0.225789 -1.824936
    47 3.883648 -0.050325 -0.431044 -0.022374 -0.010304 -1.305812
    48 1.719574 -0.000005 0.000000 0.038733 -0.074557 -1.586292
    49 1.209183 -0.000001 0.000000 0.047515 -0.079999 -1.582137
    50 3.859825 -0.148935 -1.331284 -0.549076 -0.024863 -1.454250
    51 1.719425 0.000000 0.000000 -0.002107 0.024342 -1.684730
    52 1.099663 0.000000 0.000000 -0.007967 0.046800 -1.711623
    53 0.806015 -0.359835 -1.318335 1.200555 0.246503 -0.836612
    54 1.789780 0.000001 0.000000 0.046973 0.150711 0.289172
    55 1.207001 0.000000 0.000004 0.215981 -0.000002 0.942472
    56 3.643179 -1.117762 -6.586830 1.677301 0.043048 -2.001890
  time 7
    0 1.610982 -0.335943 37.098123 1.477280 0.025043 0.093752
    1 -0.124999 3.345128 -2.981903 1.576633 0.102068 1.619368
    2 4.018331 0.000000 0.000000 -0.082287 0.001330 0.260569
    3 3.518564 0.000000 0.000000 -0.020253 -0.018816 0.216885
    4 8.942642 0.000000 0.000000 0.000342 -0.074928 0.238144
    5 3.307269 0.000000 -0.000004 -2.906805 -0.179539 0.555960
    6 3.593710 -0.000001 -0.000004 -0.303681 0.026270 1.006380
    7 1.999994 -3.000001 0.000004 -1.570793 0.000002 -1.326448
    8 2.033349 1.000771 -1.937607 -1.389745 1.273993 -3.066853
    9 6.028143 0.000002 -0.000004 1.691942 -0.210392 -0.743286
    10 11.692545 0.000000 0.000000 -0.000011 0.000000 -1.997617
    11 11.481701 0.000000 0.000000 -0.852072 0.181073 -0.014276
    12 2.676086 -1.712440 0.000000 -1.570792 0.000005 -1.570792
    13 2.033341 1.000767 1.937660 2.412174 -1.487397 2.120583
    14 6.028140 0.000002 0.000000 -1.183330 -0.012122 -1.124179
    15 11.692553 0.000000 0.000011 -0.000013 0.000000 -1.892411
    16 11.481667 0.000000 -0.000031 1.575391 -0.108951 -0.097558
    17 2.676086 -1.712440 0.000004 1.570793 0.000005 1.570793
    18 -3.890452 0.000004 0.000004 -0.922495 -0.626063 -1.881050
    19 17.848171 0.000000 0.000004 0.000009 0.000000 1.475303
    20 16.525251 0.000000 0.000004 -0.126729 0.106541 -1.112401
    21 6.879454 0.000000 0.000008 -0.077385 -0.002894 -1.140655
    22 3.890452 -0.000004 -0.000004 -1.668220 0.389064 -1.478311
    23 17.848175 0.000000 -0.000004 0.000010 0.000000 0.262566
    24 16.525246 0.000000 0.000004 -0.089832 0.046113 -1.215770
    25 6.879452 0.000000 0.000000 -0.004782 -0.002944 -0.855186
    26 3.859703 -0.142403 -1.191975 -0.568926 -0.013610 -1.526889
    27 1.312565 0.000001 0.000004 -0.086569 0.239740 -1.554263
    28 0.729362 0.000002 0.000004 -0.176890 0.315566 -1.429227
    29 3.942326 0.046774 -0.431438 0.030304 -0.060024 -1.757047
    30 1.539093 0.000001 0.000000 -0.058663 0.149388 -1.571890
    31 1.196320 -0.000001 0.000004 -0.107662 0.188362 -1.488327
    32 3.883686 -0.046767 0.431446 0.134425 0.056053 -1.771010
    33 1.719570 0.000002 0.000004 -0.030687 0.057172 -1.750786
    34 1.209183 -0.000001 -0.000004 -0.034252 0.059379 -1.537043
    35 3.859859 -0.137950 1.332462 0.524258 -0.087938 -1.819436
    36 1.719429 0.000002 0.000000 0.072018 -0.125293 -1.808386
    37 1.099670 0.000001 0.000004 0.072020 -0.125295 -0.669563
    38 0.806049 -0.348922 1.321259 -0.786557 -0.413955 -0.992027
    39 1.789787 0.000000 0.000004 0.004364 0.030238 0.718398
    40 1.207001 0.000000 -0.000004 0.102534 0.030239 0.502412
    41 3.859665 -0.132565 1.193108 0.693436 -0.009816 -1.600821
    42 1.312561 0.000000 0.000000 0.110761 -0.297055 -1.436131
    43 0.729366 0.000002 0.000000 0.157645 -0.341689 -1.408420
    44 3.942291 0.050330 0.431042 0.331339 -0.008608 -1.603808
    45 1.539097 0.000003 0.000000 0.050205 -0.153906 -1.591787
    46 1.196320 0.000000 0.000000 0.132539 -0.225789 -1.824936
    47 3.883648 -0.050325 -0.431044 -0.022374 -0.010304 -1.305812
    48 1.719574 -0.000005 0.000000 0.038733 -0.074557 -1.586292
    49 1.209183 -0.000001 0.000000 0.047515 -0.079999 -1.582137
    50 3.859825 -0.148935 -1.331284 -0.549076 -0.024863 -1.454250
    51 1.719425 0.000000 0.000000 -0.002107 0.024342 -1.684730
    52 1.099663 0.000000 0.000000 -0.007967 0.046800 -1.711623
    53 0.806015 -0.359835 -1.318335 1.200555 0.246503 -0.836612
    54 1.789780 0.000001 0.000000 0.046973 0.150711 0.289172
    55 1.207001 0.000000 0.000004 0.215981 -0.000002 0.942472
    56 3.643179 -1.117762 -6.586830 1.677301 0.043060 -2.001890
  time 8
    0 1.610982 -0.335943 36.664516 1.461434 0.015083 0.106925
    1 -0.124999 3.345128 -2.981903 1.575562 0.102068 1.616450
    2 4.018331 0.000000 0.000000 -0.090588 -0.008940 0.267580
    3 3.518564 0.000000 0.000000 -0.027108 -0.024137 0.236096
    4 8.942642 0.000000 0.000000 -0.014057 -0.067749 0.233150
    5 3.307269 0.000000 -0.000004 -2.906805 -0.179539 0.555960
    6 3.593710 -0.000001 -0.000004 -0.281243 0.015400 1.005007
    7 1.999994 -3.000001 0.000004 -1.570793 0.000002 -1.326448
    8 2.033349 1.000771 -1.937607 -1.387148 1.273872 -3.064275
    9 6.028143 0.000002 -0.000004 1.675125 -0.068945 -0.755902
    10 11.692545 0.000000 0.000000 -0.000011 0.000000 -1.962166
    11 11.481701 0.000000 0.000000 -0.853043 0.197451 -0.014374
    12 2.676086 -1.712440 0.000000 -1.570792 0.000005 -1.570792
    13 2.033341 1.000767 1.937660 2.412174 -1.487397 2.120583
    14 6.028140 0.000002 0.000000 -1.209052 0.097767 -1.057444
    15 11.692553 0.000000 0.000011 -0.000013 0.000000 -1.898706
    16 11.481667 0.000000 -0.000031 1.575452 -0.108951 -0.097558
    17 2.676086 -1.712440 0.000004 1.570793 0.000005 1.570793
    18 -3.890452 0.000004 0.000004 -0.931051 -0.545431 -1.944658
    19 17.848171 0.000000 0.000004 0.000009 0.000000 1.639898
    20 16.525251 0.000000 0.000004 -0.103816 0.047794 -1.115971
    21 6.879454 0.000000 0.000008 -0.077265 -0.002618 -1.140655
    22 3.890452 -0.000004 -0.000004 -1.598792 0.128438 -1.514470
    23 17.848175 0.000000 -0.000004 0.000010 0.000000 0.557811
    24 16.525246 0.000000 0.000004 -0.090227 -0.051355 -1.448617
    25 6.879452 0.000000 0.000000 -0.006388 -0.002764 -0.641557
    26 3.859703 -0.142403 -1.191975 -0.568926 -0.013610 -1.526889
    27 1.312565 0.000001 0.000004 -0.086569 0.239740 -1.554263
    28 0.729362 0.000002 0.000004 -0.176890 0.315566 -1.429227
    29 3.942326 0.046774 -0.431438 0.030304 -0.060024 -1.757047
    30 1.539093 0.000001 0.000000 -0.058651 0.149388 -1.571890
    31 1.196320 -0.000001 0.000004 -0.107662 0.188362 -1.488327
    32 3.883686 -0.046767 0.431446 0.134425 0.056053 -1.771010
    33 1.719570 0.000002 0.000004 -0.030687 0.057172 -1.750786
    34 1.209183 -0.000001 -0.000004 -0.034252 0.059379 -1.537043
    35 3.859859 -0.137950 1.332462 0.524258 -0.087938 -1.819436
    36 1.719429 0.000002 0.000000 0.072018 -0.125293 -1.808386
    37 1.099670 0.000001 0.000004 0.072020 -0.125295 -0.669563
    38 0.806049 -0.348922 1.321259 -0.786557 -0.413955 -0.992027
    39 1.789787 0.000000 0.000004 0.004364 0.030238 0.718398
    40 1.207001 0.000000 -0.000004 0.102534 0.030239 0.502412
    41 3.859665 -0.132565 1.193108 0.693436 -0.009816 -1.600821
    42 1.312561 0.000000 0.000000 0.110761 -0.297055 -1.436131
    43 0.729366 0.000002 0.000000 0.157645 -0.341689 -1.408420
    44 3.942291 0.050330 0.431042 0.331339 -0.008608 -1.603808
    45 1.539097 0.000003 0.000000 0.050205 -0.153906 -1.591787
    46 1.196320 0.000000 0.000000 0.132539 -0.225789 -1.824936
    47 3.883648 -0.050325 -0.431044 -0.022374 -0.010304 -1.305812
    48 1.719574 -0.000005 0.000000 0.038733 -0.074557 -1.586292
    49 1.209183 -0.000001 0.000000 0.047515 -0.079999 -1.582137
    50 3.859825 -0.148935 -1.331284 -0.549076 -0.024863 -1.454250
    51 1.719425 0.000000 0.000000 -0.002107 0.024342 -1.684730
    52 1.099663 0.000000 0.000000 -0.007967 0.046800 -1.711623
    53 0.806015 -0.359835 -1.318335 1.200555 0.246503 -0.836612
    54 1.789780 0.000001 0.000000 0.046973 0.150711 0.289172
    55 1.207001 0.000000 0.000004 0.215981 -0.000002 0.942472
    56 3.643179 -1.117762 -6.586830 1.677301 0.043048 -2.001890
  time 9
    0 1.610982 -0.335943 36.543418 1.451687 0.006323 0.112073
    1 -0.124999 3.345128 -2.981903 1.574247 0.102068 1.612937
    2 4.018331 0.000000 0.000000 -0.097767 -0.017486 0.274615
    3 3.518564 0.000000 0.000000 -0.033160 -0.027445 0.253186
    4 8.942642 0.000000 0.000000 -0.028635 -0.062607 0.229200
    5 3.307269 0.000000 -0.000004 -2.906805 -0.179539 0.555960
    6 3.593710 -0.000001 -0.000004 -0.255770 0.003847 1.003600
    7 1.999994 -3.000001 0.000004 -1.570793 0.000002 -1.326448
    8 2.033349 1.000771 -1.937607 -1.384457 1.273752 -3.061316
    9 6.028143 0.000002 -0.000004 1.653436 0.086295 -0.771981
    10 11.692545 0.000000 0.000000 -0.000011 0.000000 -1.906326
    11 11.481701 0.000000 0.000000 -0.854661 0.224442 -0.014570
    12 2.676086 -1.712440 0.000000 -1.570792 0.000005 -1.570792
    13 2.033341 1.000767 1.937660 2.412174 -1.487397 2.120583
    14 6.028140 0.000002 0.000000 -1.238633 0.207083 -1.000036
    15 11.692553 0.000000 0.000011 -0.000013 0.000000 -1.882061
    16 11.481667 0.000000 -0.000031 1.575452 -0.108951 -0.097558
    17 2.676086 -1.712440 0.000004 1.570793 0.000005 1.570793
    18 -3.890452 0.000004 0.000004 -0.979376 -0.369822 -1.965562
    19 17.848171 0.000000 0.000004 0.000009 0.000000 1.656118
    20 16.525251 0.000000 0.000004 -0.107865 -0.058819 -1.169359
    21 6.879454 0.000000 0.000008 -0.077229 -0.002558 -1.140655
    22 3.890452 -0.000004 -0.000004 -1.561019 -0.098358 -1.555579
    23 17.848175 0.000000 -0.000004 0.000010 0.000000 0.716202
    24 16.525246 0.000000 0.000004 -0.083404 -0.105116 -1.435835
    25 6.879452 0.000000 0.000000 -0.007011 -0.002716 -0.580555
    26 3.859703 -0.142403 -1.191975 -0.568926 -0.013610 -1.526889
    27 1.312565 0.000001 0.000004 -0.086569 0.239740 -1.554263
    28 0.729362 0.000002 0.000004 -0.176890 0.315566 -1.429227
    29 3.942326 0.046774 -0.431438 0.030304 -0.060024 -1.757047
    30 1.539093 0.000001 0.000000 -0.058651 0.149388 -1.571890
    31 1.196320 -0.000001 0.000004 -0.107662 0.188362 -1.488327
    32 3.883686 -0.046767 0.431446 0.134425 0.056053 -1.771010
    33 1.719570 0.000002 0.000004 -0.030687 0.057172 -1.750786
    34 1.209183 -0.000001 -0.000004 -0.034252 0.059379 -1.537043
    35 3.859859 -0.137950 1.332462 0.524258 -0.087938 -1.819436
    36 1.719429 0.000002 0.000000 0.072018 -0.125293 -1.808386
    37 1.099670 0.000001 0.000004 0.072020 -0.125295 -0.669563
    38 0.806049 -0.348922 1.321259 -0.786557 -0.413955 -0.992027
    39 1.789787 0.000000 0.000004 0.004364 0.030238 0.718398
    40 1.207001 0.000000 -0.000004 0.102534 0.030239 0.502412
    41 3.859665 -0.132565 1.193108 0.693436 -0.009816 -1.600821
    42 1.312561 0.000000 0.000000 0.110761 -0.297055 -1.436131
    43 0.729366 0.000002 0.000000 0.157645 -0.341689 -1.408420
    44 3.942291 0.050330 0.431042 0.331339 -0.008608 -1.603808
    45 1.539097 0.000003 0.000000 0.050205 -0.153906 -1.591787
    46 1.196320 0.000000 0.000000 0.132539 -0.225789 -1.824936
    47 3.883648 -0.050325 -0.431044 -0.022374 -0.010304 -1.305812
    48 1.719574 -0.000005 0.000000 0.038733 -0.074557 -1.586292
    49 1.209183 -0.000001 0.000000 0.047515 -0.079999 -1.582137
    50 3.859825 -0.148935 -1.331284 -0.549076 -0.024863 -1.454250
    51 1.719425 0.000000 0.000000 -0.002107 0.024342 -1.684730
    52 1.099663 0.000000 0.000000 -0.007967 0.046800 -1.711623
    53 0.806015 -0.359835 -1.318335 1.200555 0.246503 -0.836612
    54 1.789780 0.000001 0.000000 0.046973 0.150711 0.289172
    55 1.207001 0.000000 0.000004 0.215981 -0.000002 0.942472
    56 3.643179 -1.117762 -6.586830 1.677301 0.043060 -2.001890
  time 10
    0 1.610982 -0.335943 36.867647 1.451687 0.000043 0.108061
    1 -0.128905 3.345128 -2.981903 1.572689 0.102068 1.609178
    2 4.018331 0.000000 0.000000 -0.103320 -0.023382 0.278474
    3 3.518564 0.000000 0.000000 -0.038098 -0.029111 0.257609
    4 8.942642 0.000000 0.000000 -0.042372 -0.060151 0.227202
    5 3.307269 0.000000 -0.000004 -2.906805 -0.179539 0.555960
    6 3.593710 -0.000001 -0.000004 -0.228964 -0.007287 1.002192
    7 1.999994 -3.000001 0.000004 -1.570793 0.000002 -1.326448
    8 2.033349 1.000771 -1.937607 -1.381674 1.273591 -3.058547
    9 6.028143 0.000002 -0.000004 1.621363 0.234508 -0.793185
    10 11.692545 0.000000 0.000000 -0.000011 0.000000 -1.836279
    11 11.481701 0.000000 0.000000 -0.856765 0.259954 -0.014864
    12 2.676086 -1.712440 0.000000 -1.570792 0.000005 -1.570792
    13 2.033341 1.000767 1.937660 2.412174 -1.487397 2.120583
    14 6.028140 0.000002 0.000000 -1.269091 0.310698 -0.958200
    15 11.692553 0.000000 0.000011 -0.000013 0.000000 -1.842547
    16 11.481667 0.000000 -0.000031 1.575391 -0.108951 -0.097558
    17 2.676086 -1.712440 0.000004 1.570793 0.000005 1.570793
    18 -3.890452 0.000004 0.000004 -1.021506 -0.163950 -1.965945
    19 17.848171 0.000000 0.000004 0.000009 0.000000 1.526131
    20 16.525251 0.000000 0.000004 -0.131485 -0.161557 -1.126176
    21 6.879454 0.000000 0.000008 -0.077217 -0.002534 -1.140655
    22 3.890452 -0.000004 -0.000004 -1.541275 -0.246722 -1.587682
    23 17.848175 0.000000 -0.000004 0.000010 0.000000 0.673505
    24 16.525246 0.000000 0.000004 -0.081179 -0.138244 -1.268164
    25 6.879452 0.000000 0.000000 -0.007215 -0.002728 -0.565326
    26 3.859703 -0.142403 -1.191975 -0.568926 -0.013610 -1.526889
    27 1.312565 0.000001 0.000004 -0.086569 0.239740 -1.554263
    28 0.729362 0.000002 0.000004 -0.176890 0.315566 -1.429227
    29 3.942326 0.046774 -0.431438 0.030304 -0.060024 -1.757047
    30 1.539093 0.000001 0.000000 -0.058651 0.149388 -1.571890
    31 1.196320 -0.000001 0.000004 -0.107662 0.188362 -1.488327
    32 3.883686 -0.046767 0.431446 0.134425 0.056053 -1.771010
    33 1.719570 0.000002 0.000004 -0.030687 0.057172 -1.750786
    34 1.209183 -0.000001 -0.000004 -0.034252 0.059379 -1.537043
    35 3.859859 -0.137950 1.332462 0.524258 -0.087938 -1.819436
    36 1.719429 0.000002 0.000000 0.072018 -0.125293 -1.808386
    37 1.099670 0.000001 0.000004 0.072020 -0.125295 -0.669563
    38 0.806049 -0.348922 1.321259 -0.786557 -0.413955 -0.992027
    39 1.789787 0.000000 0.000004 0.004364 0.030238 0.718398
    40 1.207001 0.000000 -0.000004 0.102534 0.030239 0.502412
    41 3.859665 -0.132565 1.193108 0.693436 -0.009816 -1.600821
    42 1.312561 0.000000 0.000000 0.110761 -0.297055 -1.436131
    43 0.729366 0.000002 0.000000 0.157645 -0.341689 -1.408420
    44 3.942291 0.050330 0.431042 0.331339 -0.008608 -1.603808
    45 1.539097 0.000003 0.000000 0.050205 -0.153906 -1.591787
    46 1.196320 0.000000 0.000000 0.132539 -0.225789 -1.824936
    47 3.883648 -0.050325 -0.431044 -0.022374 -0.010304 -1.305812
    48 1.719574 -0.000005 0.000000 0.038733 -0.074557 -1.586292
    49 1.209183 -0.000001 0.000000 0.047515 -0.079999 -1.582137
    50 3.859825 -0.148935 -1.331284 -0.549076 -0.024863 -1.454250
    51 1.719425 0.000000 0.000000 -0.002107 0.024342 -1.684730
    52 1.099663 0.000000 0.000000 -0.007967 0.046800 -1.711623
    53 0.806015 -0.359835 -1.318335 1.200555 0.246503 -0.836612
    54 1.789780 0.000001 0.000000 0.046973 0.150711 0.289172
    55 1.207001 0.000000 0.000004 0.215981 -0.000002 0.942472
    56 3.643179 -1.117762 -6.586830 1.677301 0.043048 -2.001890
  time 11
    0 1.610982 -0.335943 37.660640 1.458602 -0.002965 0.096856
    1 -0.124999 3.345128 -2.981903 1.571034 0.102068 1.605270
    2 4.018331 0.000000 0.000000 -0.106760 -0.025395 0.276508
    3 3.518564 0.000000 0.000000 -0.041669 -0.029482 0.252288
    4 8.942642 0.000000 0.000000 -0.053968 -0.060342 0.228094
    5 3.307269 0.000000 -0.000004 -2.906805 -0.179539 0.555960
    6 3.593710 -0.000001 -0.000004 -0.202342 -0.017006 1.000890
    7 1.999994 -3.000001 0.000004 -1.570793 0.000002 -1.326448
    8 2.033349 1.000771 -1.937607 -1.379170 1.273431 -3.055779
    9 6.028143 0.000002 -0.000004 1.580834 0.360576 -0.819866
    10 11.692545 0.000000 0.000000 -0.000011 0.000000 -1.762352
    11 11.481701 0.000000 0.000000 -0.859193 0.300029 -0.015306
    12 2.676086 -1.712440 0.000000 -1.570792 0.000005 -1.570792
    13 2.033341 1.000767 1.937660 2.412174 -1.487397 2.120583
    14 6.028140 0.000002 0.000000 -1.297736 0.399136 -0.933418
    15 11.692553 0.000000 0.000011 -0.000013 0.000000 -1.787437
    16 11.481667 0.000000 -0.000031 1.575391 -0.108951 -0.097558
    17 2.676086 -1.712440 0.000004 1.570793 0.000005 1.570793
    18 -3.890452 0.000004 0.000004 -1.042453 0.010889 -1.941461
    19 17.848171 0.000000 0.000004 0.000009 0.000000 1.287012
    20 16.525251 0.000000 0.000004 -0.181096 -0.206659 -0.887637
    21 6.879454 0.000000 0.000008 -0.077253 -0.002606 -1.140655
    22 3.890452 -0.000004 -0.000004 -1.535238 -0.304199 -1.603218
    23 17.848175 0.000000 -0.000004 0.000010 0.000000 0.480494
    24 16.525246 0.000000 0.000004 -0.072438 -0.157575 -1.053646
    25 6.879452 0.000000 0.000000 -0.006376 -0.003843 -0.767018
    26 3.859703 -0.142403 -1.191975 -0.568926 -0.013610 -1.526889
    27 1.312565 0.000001 0.000004 -0.086569 0.239740 -1.554263
    28 0.729362 0.000002 0.000004 -0.176890 0.315566 -1.429227
    29 3.942326 0.046774 -0.431438 0.030304 -0.060024 -1.757047
    30 1.539093 0.000001 0.000000 -0.058663 0.149388 -1.571890
    31 1.196320 -0.000001 0.000004 -0.107662 0.188362 -1.488372
    32 3.883686 -0.046767 0.431446 0.134425 0.056053 -1.771064
    33 1.719570 0.000002 0.000004 -0.030687 0.057172 -1.750786
    34 1.209183 -0.000001 -0.000004 -0.034252 0.059379 -1.537043
    35 3.859859 -0.137950 1.332462 0.524258 -0.087938 -1.819436
    36 1.719429 0.000002 0.000000 0.072018 -0.125293 -1.808386
    37 1.099670 0.000001 0.000004 0.072020 -0.125295 -0.669563
    38 0.806049 -0.348922 1.321259 -0.786557 -0.413955 -0.992027
    39 1.789787 0.000000 0.000004 0.004364 0.030238 0.718398
    40 1.207001 0.000000 -0.000004 0.102534 0.030239 0.502412
    41 3.859665 -0.132565 1.193108 0.693436 -0.009816 -1.600821
    42 1.312561 0.000000 0.000000 0.110761 -0.297055 -1.436131
    43 0.729366 0.000002 0.000000 0.157645 -0.341689 -1.408420
    44 3.942291 0.050330 0.431042 0.331339 -0.008608 -1.603808
    45 1.539097 0.000003 0.000000 0.050205 -0.153906 -1.591787
    46 1.196320 0.000000 0.000000 0.132539 -0.225789 -1.824936
    47 3.883648 -0.050325 -0.431044 -0.022374 -0.010304 -1.305812
    48 1.719574 -0.000005 0.000000 0.038733 -0.074557 -1.586292
    49 1.209183 -0.000001 0.000000 0.047515 -0.079999 -1.582137
    50 3.859825 -0.148935 -1.331284 -0.549076 -0.024863 -1.454250
    51 1.719425 0.000000 0.000000 -0.002107 0.024342 -1.684730
    52 1.099663 0.000000 0.000000 -0.007955 0.046800 -1.711623
    53 0.806015 -0.359835 -1.318335 1.200555 0.246503 -0.836612
    54 1.789780 0.000001 0.000000 0.046973 0.150711 0.289172
    55 1.207001 0.000000 0.000004 0.215981 -0.000002 0.942472
    56 3.643179 -1.117762 -6.586830 1.677301 0.043048 -2.001890
  time 12
    0 1.610982 -0.335943 38.539573 1.469765 -0.002390 0.079821
    1 -0.124999 3.345128 -2.981903 1.569378 0.102068 1.601510
    2 4.018331 0.000000 0.000000 -0.107657 -0.022759 0.270133
    3 3.518564 0.000000 0.000000 -0.043658 -0.028607 0.240339
    4 8.942642 0.000000 0.000000 -0.061766 -0.063147 0.231382
    5 3.307269 0.000000 -0.000004 -2.906805 -0.179539 0.555960
    6 3.593710 -0.000001 -0.000004 -0.177466 -0.024245 0.999729
    7 1.999994 -3.000001 0.000004 -1.570793 0.000002 -1.326448
    8 2.033349 1.000771 -1.937607 -1.376943 1.273310 -3.053583
    9 6.028143 0.000002 -0.000004 1.537274 0.453898 -0.846476
    10 11.692545 0.000000 0.000000 -0.000011 0.000000 -1.697896
    11 11.481701 0.000000 0.000000 -0.861675 0.338867 -0.015845
    12 2.676086 -1.712440 0.000000 -1.570792 0.000005 -1.570792
    13 2.033341 1.000767 1.937660 2.412174 -1.487397 2.120583
    14 6.028140 0.000002 0.000000 -1.322932 0.466425 -0.923622
    15 11.692553 0.000000 0.000011 -0.000013 0.000000 -1.729250
    16 11.481667 0.000000 -0.000031 1.575452 -0.108951 -0.097558
    17 2.676086 -1.712440 0.000004 1.570793 0.000005 1.570793
    18 -3.890452 0.000004 0.000004 -1.050182 0.155096 -1.895753
    19 17.848171 0.000000 0.000004 0.000009 0.000000 1.009921
    20 16.525251 0.000000 0.000004 -0.238468 -0.203822 -0.575300
    21 6.879454 0.000000 0.000008 -0.077373 -0.002870 -1.140655
    22 3.890452 -0.000004 -0.000004 -1.552207 -0.289767 -1.605692
    23 17.848175 0.000000 -0.000004 0.000010 0.000000 0.206534
    24 16.525246 0.000000 0.000004 -0.021983 -0.162457 -0.959169
    25 6.879452 0.000000 0.000000 -0.006784 -0.003962 -0.741415
    26 3.859703 -0.142403 -1.191975 -0.568926 -0.013610 -1.526889
    27 1.312565 0.000001 0.000004 -0.086569 0.239740 -1.554263
    28 0.729362 0.000002 0.000004 -0.176890 0.315566 -1.429227
    29 3.942326 0.046774 -0.431438 0.030304 -0.060024 -1.757047
    30 1.539093 0.000001 0.000000 -0.058651 0.149388 -1.571890
    31 1.196320 -0.000001 0.000004 -0.107662 0.188362 -1.488327
    32 3.883686 -0.046767 0.431446 0.134425 0.056053 -1.771010
    33 1.719570 0.000002 0.000004 -0.030687 0.057172 -1.750786
    34 1.209183 -0.000001 -0.000004 -0.034252 0.059379 -1.537043
    35 3.859859 -0.137950 1.332462 0.524258 -0.087938 -1.819436
    36 1.719429 0.000002 0.000000 0.072018 -0.125293 -1.808386
    37 1.099670 0.000001 0.000004 0.072020 -0.125295 -0.669563
    38 0.806049 -0.348922 1.321259 -0.786557 -0.413955 -0.992027
    39 1.789787 0.000000 0.000004 0.004364 0.030238 0.718398
    40 1.207001 0.000000 -0.000004 0.102534 0.030239 0.502412
    41 3.859665 -0.132565 1.193108 0.693436 -0.009816 -1.600821
    42 1.312561 0.000000 0.000000 0.110761 -0.297055 -1.436131
    43 0.729366 0.000002 0.000000 0.157645 -0.341689 -1.408420
    44 3.942291 0.050330 0.431042 0.331339 -0.008608 -1.603808
    45 1.539097 0.000003 0.000000 0.050205 -0.153906 -1.591787
    46 1.196320 0.000000 0.000000 0.132539 -0.225789 -1.824936
    47 3.883648 -0.050325 -0.431044 -0.022374 -0.010304 -1.305812
    48 1.719574 -0.000005 0.000000 0.038733 -0.074557 -1.586292
    49 1.209183 -0.000001 0.000000 0.047515 -0.079999 -1.582137
    50 3.859825 -0.148935 -1.331284 -0.549076 -0.024863 -1.454250
    51 1.719425 0.000000 0.000000 -0.002107 0.024342 -1.684730
    52 1.099663 0.000000 0.000000 -0.007967 0.046800 -1.711623
    53 0.806015 -0.359835 -1.318335 1.200555 0.246503 -0.836612
    54 1.789780 0.000001 0.000000 0.046973 0.150711 0.289172
    55 1.207001 0.000000 0.000004 0.215981 -0.000002 0.942472
    56 3.643179 -1.117762 -6.586830 1.677301 0.043048 -2.001890
  time 13
    0 1.610982 -0.335943 39.148966 1.482126 0.000822 0.058320
    1 -0.124999 3.345128 -2.981903 1.567966 0.102068 1.598294
    2 4.018331 0.000000 0.000000 -0.105750 -0.015916 0.263242
    3 3.518564 0.000000 0.000000 -0.043850 -0.026342 0.226533
    4 8.942642 0.000000 0.000000 -0.064340 -0.068372 0.235901
    5 3.307269 0.000000 -0.000004 -2.906805 -0.179539 0.555960
    6 3.593710 -0.000001 -0.000004 -0.155994 -0.027972 0.998849
    7 1.999994 -3.000001 0.000004 -1.570793 0.000002 -1.326448
    8 2.033349 1.000771 -1.937607 -1.375274 1.273230 -3.051674
    9 6.028143 0.000002 -0.000004 1.501432 0.507551 -0.859551
    10 11.692545 0.000000 0.000000 -0.000011 0.000000 -1.657249
    11 11.481701 0.000000 0.000000 -0.863617 0.369723 -0.016336
    12 2.676086 -1.712440 0.000000 -1.570792 0.000005 -1.570792
    13 2.033341 1.000767 1.937660 2.412174 -1.487397 2.120583
    14 6.028140 0.000002 0.000000 -1.343276 0.508384 -0.924949
    15 11.692553 0.000000 0.000011 -0.000013 0.000000 -1.684071
    16 11.481667 0.000000 -0.000031 1.575452 -0.108951 -0.097558
    17 2.676086 -1.712440 0.000004 1.570793 0.000005 1.570793
    18 -3.890452 0.000004 0.000004 -1.050359 0.281078 -1.832977
    19 17.848171 0.000000 0.000004 0.000009 0.000000 0.724533
    20 16.525251 0.000000 0.000004 -0.280529 -0.176898 -0.279753
    21 6.879454 0.000000 0.000008 -0.077577 -0.003301 -1.140655
    22 3.890452 -0.000004 -0.000004 -1.585412 -0.341564 -1.602874
    23 17.848175 0.000000 -0.000004 0.000010 0.000000 0.191822
    24 16.525246 0.000000 0.000004 0.042703 -0.138551 -1.076496
    25 6.879452 0.000000 0.000000 -0.008066 -0.003435 -0.584342
    26 3.859703 -0.142403 -1.191975 -0.568926 -0.013610 -1.526889
    27 1.312565 0.000001 0.000004 -0.086569 0.239740 -1.554263
    28 0.729362 0.000002 0.000004 -0.176890 0.315566 -1.429270
    29 3.942326 0.046774 -0.431438 0.030304 -0.060024 -1.757047
    30 1.539093 0.000001 0.000000 -0.058651 0.149388 -1.571890
    31 1.196320 -0.000001 0.000004 -0.107662 0.188362 -1.488327
    32 3.883686 -0.046767 0.431446 0.134425 0.056053 -1.771010
    33 1.719570 0.000002 0.000004 -0.030687 0.057172 -1.750786
    34 1.209183 -0.000001 -0.000004 -0.034252 0.059379 -1.537043
    35 3.859859 -0.137950 1.332462 0.524258 -0.087938 -1.819436
    36 1.719429 0.000002 0.000000 0.072018 -0.125293 -1.808386
    37 1.099670 0.000001 0.000004 0.072020 -0.125295 -0.669563
    38 0.806049 -0.348922 1.321259 -0.786557 -0.413955 -0.992027
    39 1.789787 0.000000 0.000004 0.004364 0.030238 0.718398
    40 1.207001 0.000000 -0.000004 0.102534 0.030239 0.502412
    41 3.859665 -0.132565 1.193108 0.693436 -0.009816 -1.600821
    42 1.312561 0.000000 0.000000 0.110761 -0.297055 -1.436131
    43 0.729366 0.000002 0.000000 0.157645 -0.341689 -1.408420
    44 3.942291 0.050330 0.431042 0.331339 -0.008608 -1.603808
    45 1.539097 0.000003 0.000000 0.050205 -0.153906 -1.591787
    46 1.196320 0.000000 0.000000 0.132539 -0.225789 -1.824936
    47 3.883648 -0.050325 -0.431044 -0.022374 -0.010304 -1.305812
    48 1.719574 -0.000005 0.000000 0.038733 -0.074557 -1.586292
    49 1.209183 -0.000001 0.000000 0.047515 -0.079999 -1.582137
    50 3.859825 -0.148935 -1.331284 -0.549076 -0.024863 -1.454250
    51 1.719425 0.000000 0.000000 -0.002107 0.024342 -1.684730
    52 1.099663 0.000000 0.000000 -0.007967 0.046800 -1.711623
    53 0.806015 -0.359835 -1.318335 1.200555 0.246503 -0.836612
    54 1.789780 0.000001 0.000000 0.046973 0.150711 0.289172
    55 1.207001 0.000000 0.000004 0.215981 -0.000002 0.942472
    56 3.643179 -1.117762 -6.586830 1.677301 0.043048 -2.001890
  time 14
    0 1.610982 -0.335943 39.262251 1.492854 0.005831 0.034547
    1 -0.124999 3.345128 -2.981903 1.567236 0.102056 1.596365
    2 4.018331 0.000000 0.000000 -0.101394 -0.005309 0.257693
    3 3.518564 0.000000 0.000000 -0.042148 -0.022603 0.214249
    4 8.942642 0.000000 0.000000 -0.062251 -0.075395 0.240373
    5 3.307269 0.000000 -0.000004 -2.906805 -0.179539 0.555960
    6 3.593710 -0.000001 -0.000004 -0.139441 -0.027097 0.998216
    7 1.999994 -3.000001 0.000004 -1.570793 0.000002 -1.326448
    8 2.033349 1.000771 -1.937607 -1.374253 1.273150 -3.050623
    9 6.028143 0.000002 -0.000004 1.484614 0.512555 -0.835733
    10 11.692545 0.000000 0.000000 -0.000011 0.000000 -1.651132
    11 11.481701 0.000000 0.000000 -0.864750 0.386640 -0.016630
    12 2.676086 -1.712440 0.000000 -1.570792 0.000005 -1.570792
    13 2.033341 1.000767 1.937660 2.412174 -1.487397 2.120583
    14 6.028140 0.000002 0.000000 -1.357073 0.525383 -0.935369
    15 11.692553 0.000000 0.000011 -0.000013 0.000000 -1.667076
    16 11.481667 0.000000 -0.000031 1.575391 -0.108951 -0.097558
    17 2.676086 -1.712440 0.000004 1.570793 0.000005 1.570793
    18 -3.890452 0.000004 0.000004 -1.050890 0.374059 -1.770648
    19 17.848171 0.000000 0.000004 0.000009 0.000000 0.501634
    20 16.525251 0.000000 0.000004 -0.295734 -0.154771 -0.098524
    21 6.879454 0.000000 0.000008 -0.077744 -0.003649 -1.140655
    22 3.890452 -0.000004 -0.000004 -1.631425 -0.522327 -1.581495
    23 17.848175 0.000000 -0.000004 0.000010 0.000000 0.523879
    24 16.525246 0.000000 0.000004 0.078472 -0.105640 -1.200577
    25 6.879452 0.000000 0.000000 -0.008222 -0.004154 -0.643245
    26 3.859703 -0.142403 -1.191975 -0.568926 -0.013610 -1.526889
    27 1.312565 0.000001 0.000004 -0.086569 0.239740 -1.554263
    28 0.729362 0.000002 0.000004 -0.176890 0.315566 -1.429270
    29 3.942326 0.046774 -0.431438 0.030304 -0.060024 -1.757047
    30 1.539093 0.000001 0.000000 -0.058663 0.149388 -1.571890
    31 1.196320 -0.000001 0.000004 -0.107662 0.188362 -1.488327
    32 3.883686 -0.046767 0.431446 0.134425 0.056053 -1.771010
    33 1.719570 0.000002 0.000004 -0.030687 0.057172 -1.750786
    34 1.209183 -0.000001 -0.000004 -0.034252 0.059379 -1.537043
    35 3.859859 -0.137950 1.332462 0.524258 -0.087938 -1.819436
    36 1.719429 0.000002 0.000000 0.072018 -0.125293 -1.808386
    37 1.099670 0.000001 0.000004 0.072020 -0.125295 -0.669563
    38 0.806049 -0.348922 1.321259 -0.786557 -0.413955 -0.992027
    39 1.789787 0.000000 0.000004 0.004364 0.030238 0.718398
    40 1.207001 0.000000 -0.000004 0.102534 0.030239 0.502412
    41 3.859665 -0.132565 1.193108 0.693436 -0.009816 -1.600821
    42 1.312561 0.000000 0.000000 0.110761 -0.297055 -1.436131
    43 0.729366 0.000002 0.000000 0.157645 -0.341689 -1.408420
    44 3.942291 0.050330 0.431042 0.331339 -0.008608 -1.603808
    45 1.539097 0.000003 0.000000 0.050205 -0.153906 -1.591787
    46 1.196320 0.000000 0.000000 0.132539 -0.225789 -1.824936
    47 3.883648 -0.050325 -0.431044 -0.022374 -0.010304 -1.305812
    48 1.719574 -0.000005 0.000000 0.038733 -0.074557 -1.586292
    49 1.209183 -0.000001 0.000000 0.047515 -0.079999 -1.582137
    50 3.859825 -0.148935 -1.331284 -0.549076 -0.024863 -1.454250
    51 1.719425 0.000000 0.000000 -0.002107 0.024342 -1.684730
    52 1.099663 0.000000 0.000000 -0.007967 0.046800 -1.711623
    53 0.806015 -0.359835 -1.318335 1.200555 0.246503 -0.836612
    54 1.789780 0.000001 0.000000 0.046973 0.150711 0.289172
    55 1.207001 0.000000 0.000004 0.215981 -0.000002 0.942472
    56 3.643179 -1.117762 -6.586830 1.677301 0.043048 -2.001890
  time 15
    0 1.610982 -0.335943 38.758330 1.498953 0.011943 0.010395
    1 -0.124999 3.345128 -2.981903 1.567382 0.102068 1.596563
    2 4.018331 0.000000 0.000000 -0.095075 0.008114 0.255356
    3 3.518564 0.000000 0.000000 -0.038625 -0.017210 0.204996
    4 8.942642 0.000000 0.000000 -0.056249 -0.083461 0.243569
    5 3.307269 0.000000 -0.000004 -2.906805 -0.179539 0.555960
    6 3.593710 -0.000001 -0.000004 -0.138614 -0.018444 0.998145
    7 1.999994 -3.000001 0.000004 -1.570793 0.000002 -1.326448
    8 2.033349 1.000771 -1.937607 -1.374068 1.273150 -3.050433
    9 6.028143 0.000002 -0.000004 1.487647 0.467481 -0.776469
    10 11.692545 0.000000 0.000000 -0.000011 0.000000 -1.679348
    11 11.481701 0.000000 0.000000 -0.864642 0.385689 -0.016630
    12 2.676086 -1.712440 0.000000 -1.570792 0.000005 -1.570792
    13 2.033341 1.000767 1.937660 2.412174 -1.487397 2.120583
    14 6.028140 0.000002 0.000000 -1.362159 0.517457 -0.953126
    15 11.692553 0.000000 0.000011 -0.000013 0.000000 -1.685190
    16 11.481667 0.000000 -0.000031 1.575391 -0.108951 -0.097558
    17 2.676086 -1.712440 0.000004 1.570793 0.000005 1.570793
    18 -3.890452 0.000004 0.000004 -1.075082 0.356804 -1.756200
    19 17.848171 0.000000 0.000004 0.000009 0.000000 0.534748
    20 16.525251 0.000000 0.000004 -0.276993 -0.157052 -0.182679
    21 6.879454 0.000000 0.000008 -0.077637 -0.003433 -1.140655
    22 3.890452 -0.000004 -0.000004 -1.693021 -0.697663 -1.535506
    23 17.848175 0.000000 -0.000004 0.000010 0.000000 0.874467
    24 16.525246 0.000000 0.000004 0.101327 -0.091427 -1.151801
    25 6.879452 0.000000 0.000000 -0.008150 -0.004034 -0.637112
    26 3.859703 -0.142403 -1.191975 -0.568926 -0.013610 -1.526889
    27 1.312565 0.000001 0.000004 -0.086569 0.239740 -1.554263
    28 0.729362 0.000002 0.000004 -0.176890 0.315566 -1.429227
    29 3.942326 0.046774 -0.431438 0.030304 -0.060024 -1.757047
    30 1.539093 0.000001 0.000000 -0.058663 0.149388 -1.571890
    31 1.196320 -0.000001 0.000004 -0.107662 0.188362 -1.488327
    32 3.883686 -0.046767 0.431446 0.134425 0.056053 -1.771010
    33 1.719570 0.000002 0.000004 -0.030687 0.057172 -1.750786
    34 1.209183 -0.000001 -0.000004 -0.034252 0.059379 -1.537043
    35 3.859859 -0.137950 1.332462 0.524258 -0.087938 -1.819436
    36 1.719429 0.000002 0.000000 0.072018 -0.125293 -1.808386
    37 1.099670 0.000001 0.000004 0.072020 -0.125295 -0.669563
    38 0.806049 -0.348922 1.321259 -0.786557 -0.413955 -0.992027
    39 1.789787 0.000000 0.000004 0.004364 0.030238 0.718398
    40 1.207001 0.000000 -0.000004 0.102534 0.030239 0.502412
    41 3.859665 -0.132565 1.193108 0.693436 -0.009816 -1.600821
    42 1.312561 0.000000 0.000000 0.110761 -0.297055 -1.436131
    43 0.729366 0.000002 0.000000 0.157645 -0.341689 -1.408420
    44 3.942291 0.050330 0.431042 0.331339 -0.008608 -1.603808
    45 1.539097 0.000003 0.000000 0.050205 -0.153906 -1.591787
    46 1.196320 0.000000 0.000000 0.132539 -0.225789 -1.824936
    47 3.883648 -0.050325 -0.431044 -0.022374 -0.010304 -1.305812
    48 1.719574 -0.000005 0.000000 0.038733 -0.074557 -1.586292
    49 1.209183 -0.000001 0.000000 0.047515 -0.079999 -1.582137
    50 3.859825 -0.148935 -1.331284 -0.549076 -0.024863 -1.454250
    51 1.719425 0.000000 0.000000 -0.002107 0.024342 -1.684730
    52 1.099663 0.000000 0.000000 -0.007967 0.046800 -1.711623
    53 0.806015 -0.359835 -1.318335 1.200555 0.246503 -0.836612
    54 1.789780 0.000001 0.000000 0.046973 0.150711 0.289172
    55 1.207001 0.000000 0.000004 0.215981 -0.000002 0.942472
    56 3.643179 -1.117762 -6.586830 1.677301 0.043048 -2.001890
  time 16
    0 1.610982 -0.335943 37.855958 1.493725 0.018583 -0.011712
    1 -0.128905 3.345128 -2.981903 1.568161 0.102068 1.598443
    2 4.018331 0.000000 0.000000 -0.087297 0.022939 0.258448
    3 3.518564 0.000000 0.000000 -0.033376 -0.009779 0.206782
    4 8.942642 0.000000 0.000000 -0.047087 -0.091850 0.245029
    5 3.307269 0.000000 -0.000004 -2.906805 -0.179539 0.555960
    6 3.593710 -0.000001 -0.000004 -0.156224 -0.002900 0.998673
    7 1.999994 -3.000001 0.000004 -1.570793 0.000002 -1.326448
    8 2.033349 1.000771 -1.937607 -1.374810 1.273190 -3.051196
    9 6.028143 0.000002 -0.000004 1.502443 0.386086 -0.712576
    10 11.692545 0.000000 0.000000 -0.000011 0.000000 -1.730650
    11 11.481701 0.000000 0.000000 -0.863779 0.371655 -0.016385
    12 2.676086 -1.712440 0.000000 -1.570792 0.000005 -1.570792
    13 2.033341 1.000767 1.937660 2.412174 -1.487397 2.120583
    14 6.028140 0.000002 0.000000 -1.360990 0.481030 -0.974552
    15 11.692553 0.000000 0.000011 -0.000013 0.000000 -1.730019
    16 11.481667 0.000000 -0.000031 1.575391 -0.108951 -0.097558
    17 2.676086 -1.712440 0.000004 1.570793 0.000005 1.570793
    18 -3.890452 0.000004 0.000004 -1.112610 0.270354 -1.747762
    19 17.848171 0.000000 0.000004 0.000009 0.000000 0.717133
    20 16.525251 0.000000 0.000004 -0.196796 -0.190631 -0.603050
    21 6.879454 0.000000 0.000008 -0.077289 -0.002690 -1.140655
    22 3.890452 -0.000004 -0.000004 -1.766283 -0.820191 -1.469375
    23 17.848175 0.000000 -0.000004 0.000010 0.000000 1.189058
    24 16.525246 0.000000 0.000004 0.119907 -0.104139 -1.016868
    25 6.879452 0.000000 0.000000 -0.007946 -0.003735 -0.622499
    26 3.859703 -0.142403 -1.191975 -0.568926 -0.013610 -1.526889
    27 1.312565 0.000001 0.000004 -0.086569 0.239740 -1.554310
    28 0.729362 0.000002 0.000004 -0.176890 0.315566 -1.429227
    29 3.942326 0.046774 -0.431438 0.030304 -0.060024 -1.757047
    30 1.539093 0.000001 0.000000 -0.058651 0.149388 -1.571890
    31 1.196320 -0.000001 0.000004 -0.107662 0.188362 -1.488327
    32 3.883686 -0.046767 0.431446 0.134425 0.056053 -1.771010
    33 1.719570 0.000002 0.000004 -0.030687 0.057172 -1.750786
    34 1.209183 -0.000001 -0.000004 -0.034252 0.059379 -1.537043
    35 3.859859 -0.137950 1.332462 0.524258 -0.087938 -1.819436
    36 1.719429 0.000002 0.000000 0.072018 -0.125293 -1.808386
    37 1.099670 0.000001 0.000004 0.072020 -0.125295 -0.669563
    38 0.806049 -0.348922 1.321259 -0.786557 -0.413955 -0.992027
    39 1.789787 0.000000 0.000004 0.004364 0.030238 0.718398
    40 1.207001 0.000000 -0.000004 0.102534 0.030239 0.502412
    41 3.859665 -0.132565 1.193108 0.693436 -0.009816 -1.600821
    42 1.312561 0.000000 0.000000 0.110761 -0.297055 -1.436131
    43 0.729366 0.000002 0.000000 0.157645 -0.341689 -1.408420
    44 3.942291 0.050330 0.431042 0.331339 -0.008608 -1.603808
    45 1.539097 0.000003 0.000000 0.050205 -0.153906 -1.591787
    46 1.196320 0.000000 0.000000 0.132539 -0.225789 -1.824936
    47 3.883648 -0.050325 -0.431044 -0.022374 -0.010304 -1.305812
    48 1.719574 -0.000005 0.000000 0.038733 -0.074557 -1.586292
    49 1.209183 -0.000001 0.000000 0.047515 -0.079999 -1.582137
    50 3.859825 -0.148935 -1.331284 -0.549076 -0.024863 -1.454250
    51 1.719425 0.000000 0.000000 -0.002107 0.024342 -1.684730
    52 1.099663 0.000000 0.000000 -0.007967 0.046800 -1.711623
    53 0.806015 -0.359835 -1.318335 1.200555 0.246503 -0.836612
    54 1.789780 0.000001 0.000000 0.046973 0.150711 0.289172
    55 1.207001 0.000000 0.000004 0.215981 -0.000002 0.942472
    56 3.643179 -1.117762 -6.586830 1.677301 0.043048 -2.001890
  time 17
    0 1.610982 -0.335943 37.086403 1.478369 0.025402 -0.029352
    1 -0.128905 3.345128 -2.981903 1.569671 0.102068 1.601757
    2 4.018331 0.000000 0.000000 -0.078547 0.037368 0.265435
    3 3.518564 0.000000 0.000000 -0.026592 -0.001606 0.223081
    4 8.942642 0.000000 0.000000 -0.035503 -0.099844 0.245444
    5 3.307269 0.000000 -0.000004 -2.906805 -0.179539 0.555960
    6 3.593710 -0.000001 -0.000004 -0.181697 0.014501 0.999518
    7 1.999994 -3.000001 0.000004 -1.570793 0.000002 -1.326448
    8 2.033349 1.000771 -1.937607 -1.376665 1.273310 -3.053297
    9 6.028143 0.000002 -0.000004 1.528543 0.277699 -0.655574
    10 11.692545 0.000000 0.000000 -0.000011 0.000000 -1.791752
    11 11.481701 0.000000 0.000000 -0.862538 0.351951 -0.016042
    12 2.676086 -1.712440 0.000000 -1.570792 0.000005 -1.570792
    13 2.033341 1.000767 1.937660 2.412174 -1.487397 2.120583
    14 6.028140 0.000002 0.000000 -1.355144 0.409356 -0.996680
    15 11.692553 0.000000 0.000011 -0.000013 0.000000 -1.786877
    16 11.481667 0.000000 -0.000031 1.575391 -0.108951 -0.097558
    17 2.676086 -1.712440 0.000004 1.570793 0.000005 1.570793
    18 -3.890452 0.000004 0.000004 -1.138336 0.245910 -1.670538
    19 17.848171 0.000000 0.000004 0.000009 0.000000 0.662567
    20 16.525251 0.000000 0.000004 -0.085464 -0.180393 -1.064040
    21 6.879454 0.000000 0.000008 -0.077301 -0.002714 -1.140655
    22 3.890452 -0.000004 -0.000004 -1.829266 -0.854653 -1.407093
    23 17.848175 0.000000 -0.000004 0.000010 0.000000 1.432404
    24 16.525246 0.000000 0.000004 0.122967 -0.136598 -0.850463
    25 6.879452 0.000000 0.000000 -0.007742 -0.003423 -0.605047
    26 3.859703 -0.142403 -1.191975 -0.568926 -0.013610 -1.526889
    27 1.312565 0.000001 0.000004 -0.086569 0.239740 -1.554263
    28 0.729362 0.000002 0.000004 -0.176890 0.315566 -1.429227
    29 3.942326 0.046774 -0.431438 0.030304 -0.060024 -1.757047
    30 1.539093 0.000001 0.000000 -0.058651 0.149388 -1.571890
    31 1.196320 -0.000001 0.000004 -0.107662 0.188362 -1.488327
    32 3.883686 -0.046767 0.431446 0.134425 0.056053 -1.771010
    33 1.719570 0.000002 0.000004 -0.030687 0.057172 -1.750786
    34 1.209183 -0.000001 -0.000004 -0.034252 0.059379 -1.537043
    35 3.859859 -0.137950 1.332462 0.524258 -0.087938 -1.819436
    36 1.719429 0.000002 0.000000 0.072018 -0.125293 -1.808386
    37 1.099670 0.000001 0.000004 0.072020 -0.125295 -0.669563
    38 0.806049 -0.348922 1.321259 -0.786557 -0.413955 -0.992027
    39 1.789787 0.000000 0.000004 0.004364 0.030238 0.718398
    40 1.207001 0.000000 -0.000004 0.102534 0.030239 0.502412
    41 3.859665 -0.132565 1.193108 0.693436 -0.009816 -1.600821
    42 1.312561 0.000000 0.000000 0.110761 -0.297055 -1.436131
    43 0.729366 0.000002 0.000000 0.157645 -0.341689 -1.408420
    44 3.942291 0.050330 0.431042 0.331339 -0.008596 -1.603808
    45 1.539097 0.000003 0.000000 0.050205 -0.153906 -1.591787
    46 1.196320 0.000000 0.000000 0.132539 -0.225789 -1.824936
    47 3.883648 -0.050325 -0.431044 -0.022374 -0.010304 -1.305812
    48 1.719574 -0.000005 0.000000 0.038733 -0.074557 -1.586292
    49 1.209183 -0.000001 0.000000 0.047515 -0.079999 -1.582137
    50 3.859825 -0.148935 -1.331284 -0.549076 -0.024863 -1.454250
    51 1.719425 0.000000 0.000000 -0.002107 0.024342 -1.684730
    52 1.099663 0.000000 0.000000 -0.007967 0.046800 -1.711623
    53 0.806015 -0.359835 -1.318335 1.200555 0.246503 -0.836612
    54 1.789780 0.000001 0.000000 0.046973 0.150711 0.289172
    55 1.207001 0.000000 0.000004 0.215981 -0.000002 0.942472
    56 3.643179 -1.117762 -6.586830 1.677301 0.043048 -2.001890
  time 18
    0 1.610982 -0.335943 36.660609 1.462251 0.031958 -0.039724
    1 -0.124999 3.345128 -2.981903 1.571326 0.102068 1.605814
    2 4.018331 0.000000 0.000000 -0.069368 0.049472 0.272446
    3 3.518564 0.000000 0.000000 -0.018551 0.005513 0.244689
    4 8.942642 0.000000 0.000000 -0.022417 -0.106675 0.245337
    5 3.307269 0.000000 -0.000004 -2.906805 -0.179539 0.555960
    6 3.593710 -0.000001 -0.000004 -0.204641 0.028727 1.000327
    7 1.999994 -3.000001 0.000004 -1.570793 0.000002 -1.326448
    8 2.033349 1.000771 -1.937607 -1.379819 1.273471 -3.056542
    9 6.028143 0.000002 -0.000004 1.561719 0.148614 -0.616560
    10 11.692545 0.000000 0.000000 -0.000011 0.000000 -1.850946
    11 11.481701 0.000000 0.000000 -0.860973 0.328350 -0.015649
    12 2.676086 -1.712440 0.000000 -1.570792 0.000005 -1.570792
    13 2.033341 1.000767 1.937660 2.412174 -1.487397 2.120583
    14 6.028140 0.000002 0.000000 -1.342341 0.304829 -1.018379
    15 11.692553 0.000000 0.000011 -0.000013 0.000000 -1.839050
    16 11.481667 0.000000 -0.000031 1.575391 -0.108951 -0.097558
    17 2.676086 -1.712440 0.000004 1.570793 0.000005 1.570793
    18 -3.890452 0.000004 0.000004 -1.158102 0.213452 -1.597533
    19 17.848171 0.000000 0.000004 0.000009 0.000000 0.532879
    20 16.525251 0.000000 0.000004 -0.036560 -0.131562 -1.396737
    21 6.879454 0.000000 0.000008 -0.079338 -0.002978 -0.828217
    22 3.890452 -0.000004 -0.000004 -1.854883 -0.788129 -1.376571
    23 17.848175 0.000000 -0.000004 0.000010 0.000000 1.603253
    24 16.525246 0.000000 0.000004 0.113860 -0.162837 -0.752187
    25 6.879452 0.000000 0.000000 -0.007587 -0.003183 -0.590475
    26 3.859703 -0.142403 -1.191975 -0.568926 -0.013610 -1.526889
    27 1.312565 0.000001 0.000004 -0.086569 0.239740 -1.554263
    28 0.729362 0.000002 0.000004 -0.176890 0.315566 -1.429227
    29 3.942326 0.046774 -0.431438 0.030304 -0.060024 -1.757047
    30 1.539093 0.000001 0.000000 -0.058663 0.149388 -1.571890
    31 1.196320 -0.000001 0.000004 -0.107662 0.188362 -1.488327
    32 3.883686 -0.046767 0.431446 0.134425 0.056053 -1.771010
    33 1.719570 0.000002 0.000004 -0.030687 0.057172 -1.750786
    34 1.209183 -0.000001 -0.000004 -0.034252 0.059379 -1.537043
    35 3.859859 -0.137950 1.332462 0.524258 -0.087938 -1.819436
    36 1.719429 0.000002 0.000000 0.072018 -0.125293 -1.808386
    37 1.099670 0.000001 0.000004 0.072020 -0.125295 -0.669563
    38 0.806049 -0.348922 1.321259 -0.786557 -0.413955 -0.992027
    39 1.789787 0.000000 0.000004 0.004364 0.030238 0.718398
    40 1.207001 0.000000 -0.000004 0.102534 0.030239 0.502412
    41 3.859665 -0.132565 1.193108 0.693436 -0.009816 -1.600821
    42 1.312561 0.000000 0.000000 0.110761 -0.297055 -1.436131
    43 0.729366 0.000002 0.000000 0.157645 -0.341689 -1.408420
    44 3.942291 0.050330 0.431042 0.331339 -0.008608 -1.603808
    45 1.539097 0.000003 0.000000 0.050205 -0.153906 -1.591787
    46 1.196320 0.000000 0.000000 0.132539 -0.225789 -1.824936
    47 3.883648 -0.050325 -0.431044 -0.022374 -0.010304 -1.305812
    48 1.719574 -0.000005 0.000000 0.038733 -0.074557 -1.586292
    49 1.209183 -0.000001 0.000000 0.047515 -0.079999 -1.582137
    50 3.859825 -0.148935 -1.331284 -0.549076 -0.024863 -1.454250
    51 1.719425 0.000000 0.000000 -0.002107 0.024342 -1.684730
    52 1.099663 0.000000 0.000000 -0.007967 0.046800 -1.711623
    53 0.806015 -0.359835 -1.318335 1.200555 0.246503 -0.836612
    54 1.789780 0.000001 0.000000 0.046973 0.150711 0.289172
    55 1.207001 0.000000 0.000004 0.215981 -0.000002 0.942472
    56 3.643179 -1.117762 -6.586830 1.677301 0.043048 -2.001890
  time 19
    0 1.610982 -0.335943 36.523886 1.454790 0.036332 -0.040481
    1 -0.124999 3.345128 -2.981903 1.572056 0.102068 1.609722
    2 4.018331 0.000000 0.000000 -0.060263 0.057730 0.275622
    3 3.518564 0.000000 0.000000 -0.009574 0.008881 0.255488
    4 8.942642 0.000000 0.000000 -0.009228 -0.111433 0.245198
    5 3.307269 0.000000 -0.000004 -2.906805 -0.179539 0.555960
    6 3.593710 -0.000001 -0.000004 -0.214618 0.034588 1.000714
    7 1.999994 -3.000001 0.000004 -1.570793 0.000002 -1.326448
    8 2.033349 1.000771 -1.937607 -1.384457 1.273752 -3.061316
    9 6.028143 0.000002 -0.000004 1.594987 0.004150 -0.600975
    10 11.692545 0.000000 0.000000 -0.000011 0.000000 -1.900143
    11 11.481701 0.000000 0.000000 -0.859193 0.299934 -0.015306
    12 2.676086 -1.712440 0.000000 -1.570792 0.000005 -1.570792
    13 2.033341 1.000767 1.937660 2.412174 -1.487397 2.120583
    14 6.028140 0.000002 0.000000 -1.317437 0.182967 -1.042926
    15 11.692553 0.000000 0.000011 -0.000013 0.000000 -1.873948
    16 11.481667 0.000000 -0.000031 1.575452 -0.108951 -0.097558
    17 2.676086 -1.712440 0.000004 1.570793 0.000005 1.570793
    18 -3.890452 0.000004 0.000004 -1.173267 0.055184 -1.581231
    19 17.848171 0.000000 0.000004 0.000009 0.000000 0.580942
    20 16.525251 0.000000 0.000004 -0.061949 -0.082555 -1.503967
    21 6.879454 0.000000 0.000008 -0.081316 -0.002942 -0.617063
    22 3.890452 -0.000004 -0.000004 -1.843135 -0.578837 -1.381864
    23 17.848175 0.000000 -0.000004 0.000010 0.000000 1.668926
    24 16.525246 0.000000 0.000004 0.130331 -0.147358 -0.868671
    25 6.879452 0.000000 0.000000 -0.007527 -0.003088 -0.584342
    26 3.859703 -0.142403 -1.191975 -0.568926 -0.013610 -1.526889
    27 1.312565 0.000001 0.000004 -0.086569 0.239740 -1.554263
    28 0.729362 0.000002 0.000004 -0.176890 0.315566 -1.429227
    29 3.942326 0.046774 -0.431438 0.030304 -0.060024 -1.757047
    30 1.539093 0.000001 0.000000 -0.058651 0.149388 -1.571890
    31 1.196320 -0.000001 0.000004 -0.107662 0.188362 -1.488327
    32 3.883686 -0.046767 0.431446 0.134425 0.056053 -1.771010
    33 1.719570 0.000002 0.000004 -0.030687 0.057172 -1.750786
    34 1.209183 -0.000001 -0.000004 -0.034252 0.059379 -1.537043
    35 3.859859 -0.137950 1.332462 0.524258 -0.087938 -1.819436
    36 1.719429 0.000002 0.000000 0.072018 -0.125293 -1.808386
    37 1.099670 0.000001 0.000004 0.072020 -0.125295 -0.669563
    38 0.806049 -0.348922 1.321259 -0.786557 -0.413955 -0.992027
    39 1.789787 0.000000 0.000004 0.004364 0.030238 0.718398
    40 1.207001 0.000000 -0.000004 0.102534 0.030239 0.502412
    41 3.859665 -0.132565 1.193108 0.693436 -0.009816 -1.600821
    42 1.312561 0.000000 0.000000 0.110761 -0.297055 -1.436131
    43 0.729366 0.000002 0.000000 0.157645 -0.341689 -1.408420
    44 3.942291 0.050330 0.431042 0.331339 -0.008608 -1.603808
    45 1.539097 0.000003 0.000000 0.050205 -0.153906 -1.591787
    46 1.196320 0.000000 0.000000 0.132539 -0.225789 -1.824936
    47 3.883648 -0.050325 -0.431044 -0.022374 -0.010304 -1.305812
    48 1.719574 -0.000005 0.000000 0.038733 -0.074557 -1.586292
    49 1.209183 -0.000001 0.000000 0.047515 -0.079999 -1.582137
    50 3.859825 -0.148935 -1.331284 -0.549076 -0.024863 -1.454250
    51 1.719425 0.000000 0.000000 -0.002107 0.024342 -1.684730
    52 1.099663 0.000000 0.000000 -0.007967 0.046800 -1.711623
    53 0.806015 -0.359835 -1.318335 1.200555 0.246503 -0.836612
    54 1.789780 0.000001 0.000000 0.046973 0.150711 0.289172
    55 1.207001 0.000000 0.000004 0.215981 -0.000002 0.942472
    56 3.643179 -1.117762 -6.586830 1.677301 0.043048 -2.001890
  time 20
    0 1.610982 -0.335943 36.820770 1.452939 0.042264 -0.041693
    1 -0.124999 3.345128 -2.981903 1.573663 0.102068 1.613284
    2 4.018331 0.000000 0.000000 -0.051831 0.061960 0.276125
    3 3.518564 0.000000 0.000000 -0.000778 0.013830 0.255643
    4 8.942642 0.000000 0.000000 0.007516 -0.114716 0.246259
    5 3.307269 0.000000 -0.000004 -2.906805 -0.179539 0.555960
    6 3.593710 -0.000001 -0.000004 -0.227446 0.035510 1.001348
    7 1.999994 -3.000001 0.000004 -1.570793 0.000002 -1.326448
    8 2.033349 1.000771 -1.937607 -1.389096 1.273953 -3.066089
    9 6.028143 0.000002 -0.000004 1.626233 -0.138953 -0.601930
    10 11.692545 0.000000 0.000000 -0.000011 0.000000 -1.935266
    11 11.481701 0.000000 0.000000 -0.857952 0.279310 -0.015061
    12 2.676086 -1.712440 0.000000 -1.570792 0.000005 -1.570792
    13 2.033341 1.000767 1.937660 2.412174 -1.487397 2.120583
    14 6.028140 0.000002 0.000000 -1.283530 0.059856 -1.081367
    15 11.692553 0.000000 0.000011 -0.000013 0.000000 -1.886397
    16 11.481667 0.000000 -0.000031 1.575391 -0.108951 -0.097558
    17 2.676086 -1.712440 0.000004 1.570793 0.000005 1.570793
    18 -3.890452 0.000004 0.000004 -1.177692 -0.129382 -1.572473
    19 17.848171 0.000000 0.000004 0.000009 0.000000 0.621754
    20 16.525251 0.000000 0.000004 -0.113964 -0.032027 -1.389197
    21 6.879454 0.000000 0.000008 -0.081352 -0.002954 -0.617063
    22 3.890452 -0.000004 -0.000004 -1.841014 -0.335168 -1.382414
    23 17.848175 0.000000 -0.000004 0.000010 0.000000 1.517359
    24 16.525246 0.000000 0.000004 0.157872 -0.084953 -0.994500
    25 6.879452 0.000000 0.000000 -0.006568 -0.002968 -0.651724
    26 3.859703 -0.142403 -1.191975 -0.568926 -0.013610 -1.526889
    27 1.312565 0.000001 0.000004 -0.086569 0.239740 -1.554263
    28 0.729362 0.000002 0.000004 -0.176890 0.315566 -1.429227
    29 3.942326 0.046774 -0.431438 0.030304 -0.060024 -1.757047
    30 1.539093 0.000001 0.000000 -0.058663 0.149388 -1.571890
    31 1.196320 -0.000001 0.000004 -0.107662 0.188362 -1.488327
    32 3.883686 -0.046767 0.431446 0.134425 0.056053 -1.771010
    33 1.719570 0.000002 0.000004 -0.030687 0.057172 -1.750786
    34 1.209183 -0.000001 -0.000004 -0.034252 0.059379 -1.537043
    35 3.859859 -0.137950 1.332462 0.524258 -0.087938 -1.819436
    36 1.719429 0.000002 0.000000 0.072018 -0.125293 -1.808386
    37 1.099670 0.000001 0.000004 0.072020 -0.125295 -0.669563
    38 0.806049 -0.348922 1.321259 -0.786557 -0.413955 -0.992027
    39 1.789787 0.000000 0.000004 0.004364 0.030238 0.718398
    40 1.207001 0.000000 -0.000004 0.102534 0.030239 0.502412
    41 3.859665 -0.132565 1.193108 0.693436 -0.009816 -1.600821
    42 1.312561 0.000000 0.000000 0.110761 -0.297055 -1.436131
    43 0.729366 0.000002 0.000000 0.157645 -0.341689 -1.408420
    44 3.942291 0.050330 0.431042 0.331339 -0.008608 -1.603808
    45 1.539097 0.000003 0.000000 0.050205 -0.153906 -1.591787
    46 1.196320 0.000000 0.000000 0.132539 -0.225789 -1.824936
    47 3.883648 -0.050325 -0.431044 -0.022374 -0.010304 -1.305812
    48 1.719574 -0.000005 0.000000 0.038733 -0.074557 -1.586292
    49 1.209183 -0.000001 0.000000 0.047515 -0.079999 -1.582137
    50 3.859825 -0.148935 -1.331284 -0.549076 -0.024863 -1.454250
    51 1.719425 0.000000 0.000000 -0.002107 0.024342 -1.684730
    52 1.099663 0.000000 0.000000 -0.007967 0.046800 -1.711623
    53 0.806015 -0.359835 -1.318335 1.200555 0.246503 -0.836612
    54 1.789780 0.000001 0.000000 0.046973 0.150711 0.289172
    55 1.207001 0.000000 0.000004 0.215981 -0.000002 0.942472
    56 3.643179 -1.117762 -6.586830 1.677301 0.043048 -2.001890
end
