// Created by Crowbar 0.71
version 1
nodes
  0 "ValveBiped.Bip01_Pelvis" -1
  1 "ValveBiped.Bip01_Spine" 0
  2 "ValveBiped.Bip01_Spine1" 1
  3 "ValveBiped.Bip01_Spine2" 2
  4 "ValveBiped.Bip01_Spine4" 3
  5 "ValveBiped.Bip01_Neck1" 4
  6 "ValveBiped.Bip01_Head1" 5
  7 "ValveBiped.forward" 6
  8 "ValveBiped.Bip01_R_Clavicle" 4
  9 "ValveBiped.Bip01_R_UpperArm" 8
  10 "ValveBiped.Bip01_R_Forearm" 9
  11 "ValveBiped.Bip01_R_Hand" 10
  12 "ValveBiped.Anim_Attachment_RH" 11
  13 "ValveBiped.Bip01_L_Clavicle" 4
  14 "ValveBiped.Bip01_L_UpperArm" 13
  15 "ValveBiped.Bip01_L_Forearm" 14
  16 "ValveBiped.Bip01_L_Hand" 15
  17 "ValveBiped.Anim_Attachment_LH" 16
  18 "ValveBiped.Bip01_R_Thigh" 0
  19 "ValveBiped.Bip01_R_Calf" 18
  20 "ValveBiped.Bip01_R_Foot" 19
  21 "ValveBiped.Bip01_R_Toe0" 20
  22 "ValveBiped.Bip01_L_Thigh" 0
  23 "ValveBiped.Bip01_L_Calf" 22
  24 "ValveBiped.Bip01_L_Foot" 23
  25 "ValveBiped.Bip01_L_Toe0" 24
  26 "ValveBiped.Bip01_L_Finger4" 16
  27 "ValveBiped.Bip01_L_Finger41" 26
  28 "ValveBiped.Bip01_L_Finger42" 27
  29 "ValveBiped.Bip01_L_Finger3" 16
  30 "ValveBiped.Bip01_L_Finger31" 29
  31 "ValveBiped.Bip01_L_Finger32" 30
  32 "ValveBiped.Bip01_L_Finger2" 16
  33 "ValveBiped.Bip01_L_Finger21" 32
  34 "ValveBiped.Bip01_L_Finger22" 33
  35 "ValveBiped.Bip01_L_Finger1" 16
  36 "ValveBiped.Bip01_L_Finger11" 35
  37 "ValveBiped.Bip01_L_Finger12" 36
  38 "ValveBiped.Bip01_L_Finger0" 16
  39 "ValveBiped.Bip01_L_Finger01" 38
  40 "ValveBiped.Bip01_L_Finger02" 39
  41 "ValveBiped.Bip01_R_Finger4" 11
  42 "ValveBiped.Bip01_R_Finger41" 41
  43 "ValveBiped.Bip01_R_Finger42" 42
  44 "ValveBiped.Bip01_R_Finger3" 11
  45 "ValveBiped.Bip01_R_Finger31" 44
  46 "ValveBiped.Bip01_R_Finger32" 45
  47 "ValveBiped.Bip01_R_Finger2" 11
  48 "ValveBiped.Bip01_R_Finger21" 47
  49 "ValveBiped.Bip01_R_Finger22" 48
  50 "ValveBiped.Bip01_R_Finger1" 11
  51 "ValveBiped.Bip01_R_Finger11" 50
  52 "ValveBiped.Bip01_R_Finger12" 51
  53 "ValveBiped.Bip01_R_Finger0" 11
  54 "ValveBiped.Bip01_R_Finger01" 53
  55 "ValveBiped.Bip01_R_Finger02" 54
  56 "ValveBiped.baton_parent" 11
end
skeleton
  time 0
    0 1.610982 -0.335943 35.742612 1.768282 0.032197 -0.072961
    1 -0.124999 3.345128 -2.981903 1.571521 0.102068 1.606556
    2 4.018331 0.000000 0.000000 -0.069255 0.046356 0.169055
    3 3.518564 0.000000 0.000000 -0.016645 0.003979 0.244689
    4 8.942642 0.000000 0.000000 -0.021117 -0.103487 0.244399
    5 3.307269 0.000000 -0.000004 3.137477 0.001222 0.577187
    6 3.593710 -0.000001 -0.000004 -0.004537 -0.051462 1.082917
    7 1.999994 -3.000001 0.000004 -1.570753 -0.000007 -1.326410
    8 2.033349 1.000771 -1.937607 -1.384408 1.273734 -3.061307
    9 6.028143 0.000002 -0.000004 1.722545 0.167603 -0.613874
    10 11.692545 0.000000 0.000000 -0.000011 0.000000 -1.931780
    11 11.481701 0.000000 0.000000 -0.860920 0.326924 -0.015649
    12 2.676086 -1.712440 0.000000 -1.570792 0.000005 -1.570792
    13 2.033341 1.000767 1.937660 2.412174 -1.487397 2.120583
    14 6.028140 0.000002 0.000000 -1.405068 -0.168995 -1.049170
    15 11.692553 0.000000 0.000011 -0.000013 0.000000 -1.988294
    16 11.481667 0.000000 -0.000031 1.575391 -0.108951 -0.097558
    17 2.676086 -1.712440 0.000004 1.570793 0.000005 1.570793
    18 -3.890452 0.000004 0.000004 -1.074610 -0.482483 -1.745205
    19 17.848171 0.000000 0.000004 0.000009 0.000000 0.820061
    20 16.525251 0.000000 0.000004 -0.016511 -0.120462 -1.465961
    21 6.879454 0.000000 0.000008 -0.081340 -0.002882 -0.608249
    22 3.890452 -0.000004 -0.000004 -1.613885 -0.564404 -1.499690
    23 17.848175 0.000000 -0.000004 0.000010 0.000000 1.543215
    24 16.525246 0.000000 0.000004 -0.031544 -0.086743 -1.109958
    25 6.879452 0.000000 0.000000 -0.007431 -0.003028 -0.584342
    26 3.859703 -0.142403 -1.191975 -0.568914 -0.013600 -1.526846
    27 1.312565 0.000001 0.000004 -0.086569 0.239740 -1.554263
    28 0.729362 0.000002 0.000004 -0.176890 0.315566 -1.429227
    29 3.942326 0.046774 -0.431438 0.030302 -0.060016 -1.757025
    30 1.539093 0.000001 0.000000 -0.058651 0.149388 -1.571890
    31 1.196320 -0.000001 0.000004 -0.107662 0.188362 -1.488327
    32 3.883686 -0.046767 0.431446 0.134425 0.056053 -1.771010
    33 1.719570 0.000002 0.000004 -0.030677 0.057167 -1.750736
    34 1.209183 -0.000001 -0.000004 -0.034252 0.059379 -1.537043
    35 3.859859 -0.137950 1.332462 0.524231 -0.087929 -1.819390
    36 1.719429 0.000002 0.000000 0.072023 -0.125294 -1.808387
    37 1.099670 0.000001 0.000004 0.072020 -0.125295 -0.669563
    38 0.806049 -0.348922 1.321259 -0.786557 -0.413955 -0.992027
    39 1.789787 0.000000 0.000004 0.004364 0.030238 0.718398
    40 1.207001 0.000000 -0.000004 0.102534 0.030239 0.502412
    41 3.859665 -0.132565 1.193108 0.693436 -0.009816 -1.600821
    42 1.312561 0.000000 0.000000 0.110761 -0.297055 -1.436131
    43 0.729366 0.000002 0.000000 0.157645 -0.341689 -1.408420
    44 3.942291 0.050330 0.431042 0.331344 -0.008610 -1.603851
    45 1.539097 0.000003 0.000000 0.050214 -0.153911 -1.591790
    46 1.196320 0.000000 0.000000 0.132539 -0.225789 -1.824936
    47 3.883648 -0.050325 -0.431044 -0.022374 -0.010304 -1.305812
    48 1.719574 -0.000005 0.000000 0.038733 -0.074557 -1.586292
    49 1.209183 -0.000001 0.000000 0.047506 -0.079997 -1.582092
    50 3.859825 -0.148935 -1.331284 -0.549076 -0.024863 -1.454250
    51 1.719425 0.000000 0.000000 -0.002107 0.024342 -1.684730
    52 1.099663 0.000000 0.000000 -0.007967 0.046800 -1.711623
    53 0.806015 -0.359835 -1.318335 1.200555 0.246504 -0.836614
    54 1.789780 0.000001 0.000000 0.046975 0.150711 0.289172
    55 1.207001 0.000000 0.000004 0.215981 -0.000002 0.942472
    56 3.643179 -1.117762 -6.586830 1.677301 0.043048 -2.001890
  time 1
    0 1.610982 -0.335943 35.320725 1.740238 0.036044 -0.098550
    1 -0.124999 3.345128 -2.981903 1.572056 0.102068 1.609722
    2 4.018331 0.000000 0.000000 -0.060263 0.057730 0.175898
    3 3.518564 0.000000 0.000000 -0.009574 0.008881 0.255488
    4 8.942642 0.000000 0.000000 -0.009228 -0.111433 0.245198
    5 3.307269 0.000000 -0.000004 3.137477 0.001222 0.577187
    6 3.593710 -0.000001 -0.000004 0.061812 -0.015125 1.082917
    7 1.999994 -3.000001 0.000004 -1.570753 -0.000007 -1.326410
    8 2.033349 1.000771 -1.937607 -1.384408 1.273734 -3.061307
    9 6.028143 0.000002 -0.000004 1.710414 0.274316 -0.609209
    10 11.692545 0.000000 0.000000 -0.000011 0.000000 -1.906326
    11 11.481701 0.000000 0.000000 -0.859193 0.299934 -0.015306
    12 2.676086 -1.712440 0.000000 -1.570792 0.000005 -1.570792
    13 2.033341 1.000767 1.937660 2.412174 -1.487397 2.120583
    14 6.028140 0.000002 0.000000 -1.396592 -0.000485 -1.037619
    15 11.692553 0.000000 0.000011 -0.000013 0.000000 -2.001023
    16 11.481667 0.000000 -0.000031 1.575452 -0.108951 -0.097558
    17 2.676086 -1.712440 0.000004 1.570793 0.000005 1.570793
    18 -3.890452 0.000004 0.000004 -1.148013 -0.345036 -1.623998
    19 17.848171 0.000000 0.000004 0.000009 0.000000 0.806681
    20 16.525251 0.000000 0.000004 -0.044145 -0.091827 -1.595612
    21 6.879454 0.000000 0.000008 -0.081316 -0.002942 -0.617063
    22 3.890452 -0.000004 -0.000004 -1.562977 -0.693876 -1.591188
    23 17.848175 0.000000 -0.000004 0.000010 0.000000 1.697474
    24 16.525246 0.000000 0.000004 -0.095908 -0.151065 -1.056781
    25 6.879452 0.000000 0.000000 -0.007527 -0.003088 -0.584342
    26 3.859703 -0.142403 -1.191975 -0.568914 -0.013600 -1.526846
    27 1.312565 0.000001 0.000004 -0.086569 0.239740 -1.554310
    28 0.729362 0.000002 0.000004 -0.176890 0.315566 -1.429227
    29 3.942326 0.046774 -0.431438 0.030302 -0.060016 -1.757025
    30 1.539093 0.000001 0.000000 -0.058651 0.149388 -1.571938
    31 1.196320 -0.000001 0.000004 -0.107662 0.188362 -1.488327
    32 3.883686 -0.046767 0.431446 0.134425 0.056053 -1.771010
    33 1.719570 0.000002 0.000004 -0.030677 0.057167 -1.750790
    34 1.209183 -0.000001 -0.000004 -0.034252 0.059379 -1.537043
    35 3.859859 -0.137950 1.332462 0.524231 -0.087929 -1.819390
    36 1.719429 0.000002 0.000000 0.072023 -0.125294 -1.808387
    37 1.099670 0.000001 0.000004 0.072020 -0.125295 -0.669563
    38 0.806049 -0.348922 1.321259 -0.786557 -0.413955 -0.992027
    39 1.789787 0.000000 0.000004 0.004364 0.030238 0.718398
    40 1.207001 0.000000 -0.000004 0.102534 0.030239 0.502412
    41 3.859665 -0.132565 1.193108 0.693436 -0.009816 -1.600821
    42 1.312561 0.000000 0.000000 0.110761 -0.297055 -1.436131
    43 0.729366 0.000002 0.000000 0.157645 -0.341689 -1.408420
    44 3.942291 0.050330 0.431042 0.331344 -0.008610 -1.603851
    45 1.539097 0.000003 0.000000 0.050214 -0.153911 -1.591790
    46 1.196320 0.000000 0.000000 0.132539 -0.225789 -1.824936
    47 3.883648 -0.050325 -0.431044 -0.022374 -0.010304 -1.305812
    48 1.719574 -0.000005 0.000000 0.038733 -0.074557 -1.586292
    49 1.209183 -0.000001 0.000000 0.047506 -0.079997 -1.582140
    50 3.859825 -0.148935 -1.331284 -0.549076 -0.024863 -1.454250
    51 1.719425 0.000000 0.000000 -0.002107 0.024342 -1.684730
    52 1.099663 0.000000 0.000000 -0.007967 0.046800 -1.711623
    53 0.806015 -0.359835 -1.318335 1.200555 0.246504 -0.836614
    54 1.789780 0.000001 0.000000 0.046975 0.150711 0.289172
    55 1.207001 0.000000 0.000004 0.215981 -0.000002 0.942472
    56 3.643179 -1.117762 -6.586830 1.677301 0.043048 -2.001890
  time 2
    0 1.610982 -0.335943 35.840272 1.696838 0.040179 -0.036620
    1 -0.124999 3.345128 -2.981903 1.572543 0.102068 1.612542
    2 4.018331 0.000000 0.000000 -0.052018 0.061157 0.176881
    3 3.518564 0.000000 0.000000 -0.006902 0.008941 0.256147
    4 8.942642 0.000000 0.000000 0.009619 -0.111732 0.246674
    5 3.307269 0.000000 -0.000004 3.137477 0.001222 0.577187
    6 3.593710 -0.000001 -0.000004 -0.007433 -0.041658 1.083409
    7 1.999994 -3.000001 0.000004 -1.570753 -0.000007 -1.326410
    8 2.033349 1.000771 -1.937607 -1.384408 1.273734 -3.061307
    9 6.028143 0.000002 -0.000004 1.746439 0.283941 -0.655115
    10 11.692545 0.000000 0.000000 -0.000011 0.000000 -1.861864
    11 11.481701 0.000000 0.000000 -0.857952 0.279089 -0.015061
    12 2.676086 -1.712440 0.000000 -1.570792 0.000005 -1.570792
    13 2.033341 1.000767 1.937660 2.412174 -1.487397 2.120583
    14 6.028140 0.000002 0.000000 -1.334215 0.174298 -0.919486
    15 11.692553 0.000000 0.000011 -0.000013 0.000000 -1.966684
    16 11.481667 0.000000 -0.000031 1.575452 -0.108951 -0.097558
    17 2.676086 -1.712440 0.000004 1.570793 0.000005 1.570793
    18 -3.890452 0.000004 0.000004 -1.118628 -0.194383 -1.518263
    19 17.848171 0.000000 0.000004 0.000009 0.000000 0.769382
    20 16.525251 0.000000 0.000004 -0.112744 -0.013746 -1.491650
    21 6.879454 0.000000 0.000008 -0.079554 -0.002702 -0.763974
    22 3.890452 -0.000004 -0.000004 -1.563956 -0.830206 -1.515570
    23 17.848175 0.000000 -0.000004 0.000010 0.000000 1.635056
    24 16.525246 0.000000 0.000004 -0.035014 -0.024682 -1.271239
    25 6.879452 0.000000 0.000000 -0.007611 -0.003136 -0.584342
    26 3.859703 -0.142403 -1.191975 -0.568914 -0.013600 -1.526846
    27 1.312565 0.000001 0.000004 -0.086569 0.239740 -1.554263
    28 0.729362 0.000002 0.000004 -0.176890 0.315566 -1.429227
    29 3.942326 0.046774 -0.431438 0.030302 -0.060016 -1.757079
    30 1.539093 0.000001 0.000000 -0.058651 0.149388 -1.571890
    31 1.196320 -0.000001 0.000004 -0.107662 0.188362 -1.488327
    32 3.883686 -0.046767 0.431446 0.134425 0.056053 -1.771010
    33 1.719570 0.000002 0.000004 -0.030677 0.057167 -1.750736
    34 1.209183 -0.000001 -0.000004 -0.034252 0.059379 -1.537043
    35 3.859859 -0.137950 1.332462 0.524231 -0.087929 -1.819445
    36 1.719429 0.000002 0.000000 0.072023 -0.125294 -1.808387
    37 1.099670 0.000001 0.000004 0.072020 -0.125295 -0.669563
    38 0.806049 -0.348922 1.321259 -0.786557 -0.413955 -0.992027
    39 1.789787 0.000000 0.000004 0.004364 0.030238 0.718398
    40 1.207001 0.000000 -0.000004 0.102534 0.030239 0.502412
    41 3.859665 -0.132565 1.193108 0.693436 -0.009816 -1.600821
    42 1.312561 0.000000 0.000000 0.110761 -0.297055 -1.436131
    43 0.729366 0.000002 0.000000 0.157645 -0.341689 -1.408420
    44 3.942291 0.050330 0.431042 0.331344 -0.008610 -1.603851
    45 1.539097 0.000003 0.000000 0.050214 -0.153911 -1.591790
    46 1.196320 0.000000 0.000000 0.132539 -0.225789 -1.824936
    47 3.883648 -0.050325 -0.431044 -0.022374 -0.010304 -1.305812
    48 1.719574 -0.000005 0.000000 0.038733 -0.074557 -1.586292
    49 1.209183 -0.000001 0.000000 0.047506 -0.079997 -1.582092
    50 3.859825 -0.148935 -1.331284 -0.549076 -0.024863 -1.454250
    51 1.719425 0.000000 0.000000 -0.002107 0.024342 -1.684730
    52 1.099663 0.000000 0.000000 -0.007967 0.046800 -1.711623
    53 0.806015 -0.359835 -1.318335 1.200555 0.246504 -0.836614
    54 1.789780 0.000001 0.000000 0.046975 0.150711 0.289172
    55 1.207001 0.000000 0.000004 0.215981 -0.000002 0.942472
    56 3.643179 -1.117762 -6.586830 1.677301 0.043060 -2.001890
  time 3
    0 1.610982 -0.335943 36.371538 1.705605 0.044913 -0.062816
    1 -0.124999 3.345128 -2.981903 1.573176 0.102068 1.615757
    2 4.018331 0.000000 0.000000 -0.046783 0.061565 0.176317
    3 3.518564 0.000000 0.000000 -0.003522 0.009384 0.253462
    4 8.942642 0.000000 0.000000 0.024579 -0.110378 0.248472
    5 3.307269 0.000000 -0.000004 3.137477 0.001222 0.577187
    6 3.593710 -0.000001 -0.000004 0.002130 -0.035462 1.084606
    7 1.999994 -3.000001 0.000004 -1.570753 -0.000007 -1.326410
    8 2.033349 1.000771 -1.937607 -1.384408 1.273734 -3.061307
    9 6.028143 0.000002 -0.000004 1.749656 0.398536 -0.668014
    10 11.692545 0.000000 0.000000 -0.000011 0.000000 -1.800960
    11 11.481701 0.000000 0.000000 -0.856657 0.257768 -0.014864
    12 2.676086 -1.712440 0.000000 -1.570792 0.000005 -1.570792
    13 2.033341 1.000767 1.937660 2.412174 -1.487397 2.120583
    14 6.028140 0.000002 0.000000 -1.325037 0.304290 -0.907036
    15 11.692553 0.000000 0.000011 -0.000013 0.000000 -1.890383
    16 11.481667 0.000000 -0.000031 1.575452 -0.108951 -0.097558
    17 2.676086 -1.712440 0.000004 1.570793 0.000005 1.570793
    18 -3.890452 0.000004 0.000004 -1.169018 -0.173933 -1.440975
    19 17.848171 0.000000 0.000004 0.000009 0.000000 0.790386
    20 16.525251 0.000000 0.000004 -0.130814 -0.032758 -1.148949
    21 6.879454 0.000000 0.000008 -0.078487 -0.002414 -0.874338
    22 3.890452 -0.000004 -0.000004 -1.412454 -0.903799 -1.757271
    23 17.848175 0.000000 -0.000004 0.000010 0.000000 1.386514
    24 16.525246 0.000000 0.000004 -0.082321 -0.146652 -1.531699
    25 6.879452 0.000000 0.000000 -0.007778 -0.003243 -0.584342
    26 3.859703 -0.142403 -1.191975 -0.568914 -0.013600 -1.526846
    27 1.312565 0.000001 0.000004 -0.086569 0.239740 -1.554263
    28 0.729362 0.000002 0.000004 -0.176890 0.315566 -1.429227
    29 3.942326 0.046774 -0.431438 0.030302 -0.060016 -1.757025
    30 1.539093 0.000001 0.000000 -0.058651 0.149388 -1.571890
    31 1.196320 -0.000001 0.000004 -0.107662 0.188362 -1.488327
    32 3.883686 -0.046767 0.431446 0.134425 0.056053 -1.771010
    33 1.719570 0.000002 0.000004 -0.030677 0.057167 -1.750736
    34 1.209183 -0.000001 -0.000004 -0.034252 0.059379 -1.537043
    35 3.859859 -0.137950 1.332462 0.524231 -0.087929 -1.819390
    36 1.719429 0.000002 0.000000 0.072023 -0.125294 -1.808387
    37 1.099670 0.000001 0.000004 0.072020 -0.125295 -0.669563
    38 0.806049 -0.348922 1.321259 -0.786557 -0.413955 -0.992027
    39 1.789787 0.000000 0.000004 0.004364 0.030238 0.718398
    40 1.207001 0.000000 -0.000004 0.102534 0.030239 0.502412
    41 3.859665 -0.132565 1.193108 0.693436 -0.009816 -1.600821
    42 1.312561 0.000000 0.000000 0.110761 -0.297055 -1.436131
    43 0.729366 0.000002 0.000000 0.157645 -0.341689 -1.408420
    44 3.942291 0.050330 0.431042 0.331344 -0.008610 -1.603851
    45 1.539097 0.000003 0.000000 0.050214 -0.153911 -1.591790
    46 1.196320 0.000000 0.000000 0.132539 -0.225789 -1.824936
    47 3.883648 -0.050325 -0.431044 -0.022374 -0.010304 -1.305812
    48 1.719574 -0.000005 0.000000 0.038733 -0.074557 -1.586292
    49 1.209183 -0.000001 0.000000 0.047506 -0.079997 -1.582092
    50 3.859825 -0.148935 -1.331284 -0.549076 -0.024863 -1.454250
    51 1.719425 0.000000 0.000000 -0.002107 0.024342 -1.684730
    52 1.099663 0.000000 0.000000 -0.007967 0.046800 -1.711623
    53 0.806015 -0.359835 -1.318335 1.200555 0.246504 -0.836614
    54 1.789780 0.000001 0.000000 0.046975 0.150711 0.289172
    55 1.207001 0.000000 0.000004 0.215981 -0.000002 0.942472
    56 3.643179 -1.117762 -6.586830 1.677301 0.043048 -2.001890
  time 4
    0 1.610982 -0.335943 37.039527 1.716278 0.049228 -0.087573
    1 -0.124999 3.345128 -2.981903 1.573809 0.102068 1.618775
    2 4.018331 0.000000 0.000000 -0.047624 0.055465 0.171883
    3 3.518564 0.000000 0.000000 -0.000490 0.009636 0.242700
    4 8.942642 0.000000 0.000000 0.032722 -0.106855 0.250085
    5 3.307269 0.000000 -0.000004 3.137477 0.001222 0.577187
    6 3.593710 -0.000001 -0.000004 0.013028 -0.030141 1.085908
    7 1.999994 -3.000001 0.000004 -1.570753 -0.000007 -1.326410
    8 2.033349 1.000771 -1.937607 -1.384408 1.273734 -3.061307
    9 6.028143 0.000002 -0.000004 1.731276 0.505581 -0.698900
    10 11.692545 0.000000 0.000000 -0.000011 0.000000 -1.734333
    11 11.481701 0.000000 0.000000 -0.855417 0.236702 -0.014668
    12 2.676086 -1.712440 0.000000 -1.570792 0.000005 -1.570792
    13 2.033341 1.000767 1.937660 2.412174 -1.487397 2.120583
    14 6.028140 0.000002 0.000000 -1.315157 0.402441 -0.910705
    15 11.692553 0.000000 0.000011 -0.000013 0.000000 -1.787087
    16 11.481667 0.000000 -0.000031 1.575452 -0.108951 -0.097558
    17 2.676086 -1.712440 0.000004 1.570793 0.000005 1.570793
    18 -3.890452 0.000004 0.000004 -1.210617 -0.197549 -1.400189
    19 17.848171 0.000000 0.000004 0.000009 0.000000 0.891894
    20 16.525251 0.000000 0.000004 -0.182758 -0.101815 -0.949873
    21 6.879454 0.000000 0.000008 -0.078715 -0.001911 -0.759643
    22 3.890452 -0.000004 -0.000004 -1.382676 -0.849141 -1.823814
    23 17.848175 0.000000 -0.000004 0.000010 0.000000 1.009820
    24 16.525246 0.000000 0.000004 -0.055190 -0.229346 -1.596452
    25 6.879452 0.000000 0.000000 -0.007922 -0.003351 -0.584342
    26 3.859703 -0.142403 -1.191975 -0.568914 -0.013600 -1.526846
    27 1.312565 0.000001 0.000004 -0.086569 0.239740 -1.554263
    28 0.729362 0.000002 0.000004 -0.176890 0.315566 -1.429227
    29 3.942326 0.046774 -0.431438 0.030302 -0.060016 -1.757025
    30 1.539093 0.000001 0.000000 -0.058651 0.149388 -1.571890
    31 1.196320 -0.000001 0.000004 -0.107662 0.188362 -1.488327
    32 3.883686 -0.046767 0.431446 0.134425 0.056053 -1.771010
    33 1.719570 0.000002 0.000004 -0.030677 0.057167 -1.750736
    34 1.209183 -0.000001 -0.000004 -0.034252 0.059379 -1.537043
    35 3.859859 -0.137950 1.332462 0.524231 -0.087929 -1.819390
    36 1.719429 0.000002 0.000000 0.072023 -0.125294 -1.808387
    37 1.099670 0.000001 0.000004 0.072020 -0.125295 -0.669563
    38 0.806049 -0.348922 1.321259 -0.786557 -0.413955 -0.992027
    39 1.789787 0.000000 0.000004 0.004364 0.030238 0.718398
    40 1.207001 0.000000 -0.000004 0.102534 0.030239 0.502412
    41 3.859665 -0.132565 1.193108 0.693436 -0.009816 -1.600821
    42 1.312561 0.000000 0.000000 0.110761 -0.297055 -1.436131
    43 0.729366 0.000002 0.000000 0.157645 -0.341689 -1.408420
    44 3.942291 0.050330 0.431042 0.331344 -0.008610 -1.603851
    45 1.539097 0.000003 0.000000 0.050214 -0.153911 -1.591790
    46 1.196320 0.000000 0.000000 0.132539 -0.225789 -1.824936
    47 3.883648 -0.050325 -0.431044 -0.022374 -0.010304 -1.305812
    48 1.719574 -0.000005 0.000000 0.038733 -0.074557 -1.586292
    49 1.209183 -0.000001 0.000000 0.047506 -0.079997 -1.582092
    50 3.859825 -0.148935 -1.331284 -0.549076 -0.024863 -1.454250
    51 1.719425 0.000000 0.000000 -0.002107 0.024342 -1.684730
    52 1.099663 0.000000 0.000000 -0.007967 0.046800 -1.711623
    53 0.806015 -0.359835 -1.318335 1.200555 0.246504 -0.836614
    54 1.789780 0.000001 0.000000 0.046975 0.150711 0.289172
    55 1.207001 0.000000 0.000004 0.215981 -0.000002 0.942472
    56 3.643179 -1.117762 -6.586830 1.677301 0.043048 -2.001890
  time 5
    0 1.610982 -0.335943 37.711423 1.727169 0.051660 -0.104531
    1 -0.124999 3.345128 -2.981903 1.574296 0.102068 1.621149
    2 4.018331 0.000000 0.000000 -0.051176 0.046644 0.165807
    3 3.518564 0.000000 0.000000 0.001164 0.009096 0.228978
    4 8.942642 0.000000 0.000000 0.037258 -0.102265 0.250869
    5 3.307269 0.000000 -0.000004 3.137477 0.001222 0.577187
    6 3.593710 -0.000001 -0.000004 0.017442 -0.027205 1.087210
    7 1.999994 -3.000001 0.000004 -1.570753 -0.000007 -1.326410
    8 2.033349 1.000771 -1.937607 -1.384408 1.273734 -3.061307
    9 6.028143 0.000002 -0.000004 1.705636 0.579077 -0.739823
    10 11.692545 0.000000 0.000000 -0.000011 0.000000 -1.680071
    11 11.481701 0.000000 0.000000 -0.854176 0.216522 -0.014472
    12 2.676086 -1.712440 0.000000 -1.570792 0.000005 -1.570792
    13 2.033341 1.000767 1.937660 2.412174 -1.487397 2.120583
    14 6.028140 0.000002 0.000000 -1.316794 0.460320 -0.912032
    15 11.692553 0.000000 0.000011 -0.000013 0.000000 -1.684280
    16 11.481667 0.000000 -0.000031 1.575391 -0.108951 -0.097558
    17 2.676086 -1.712440 0.000004 1.570793 0.000005 1.570793
    18 -3.890452 0.000004 0.000004 -1.243778 -0.233658 -1.366627
    19 17.848171 0.000000 0.000004 0.000009 0.000000 1.010145
    20 16.525251 0.000000 0.000004 -0.234685 -0.099432 -0.808962
    21 6.879454 0.000000 0.000008 -0.078895 -0.001659 -0.689056
    22 3.890452 -0.000004 -0.000004 -1.398667 -0.718954 -1.815359
    23 17.848175 0.000000 -0.000004 0.000010 0.000000 0.633375
    24 16.525246 0.000000 0.000004 -0.007664 -0.284590 -1.456394
    25 6.879452 0.000000 0.000000 -0.007982 -0.003387 -0.584342
    26 3.859703 -0.142403 -1.191975 -0.568914 -0.013600 -1.526846
    27 1.312565 0.000001 0.000004 -0.086569 0.239740 -1.554310
    28 0.729362 0.000002 0.000004 -0.176890 0.315566 -1.429227
    29 3.942326 0.046774 -0.431438 0.030302 -0.060016 -1.757025
    30 1.539093 0.000001 0.000000 -0.058663 0.149388 -1.571890
    31 1.196320 -0.000001 0.000004 -0.107662 0.188362 -1.488327
    32 3.883686 -0.046767 0.431446 0.134425 0.056053 -1.771010
    33 1.719570 0.000002 0.000004 -0.030677 0.057167 -1.750736
    34 1.209183 -0.000001 -0.000004 -0.034252 0.059379 -1.537043
    35 3.859859 -0.137950 1.332462 0.524231 -0.087929 -1.819390
    36 1.719429 0.000002 0.000000 0.072023 -0.125294 -1.808387
    37 1.099670 0.000001 0.000004 0.072020 -0.125295 -0.669563
    38 0.806049 -0.348922 1.321259 -0.786557 -0.413955 -0.992027
    39 1.789787 0.000000 0.000004 0.004364 0.030238 0.718398
    40 1.207001 0.000000 -0.000004 0.102534 0.030239 0.502412
    41 3.859665 -0.132565 1.193108 0.693436 -0.009816 -1.600821
    42 1.312561 0.000000 0.000000 0.110761 -0.297055 -1.436131
    43 0.729366 0.000002 0.000000 0.157645 -0.341689 -1.408420
    44 3.942291 0.050330 0.431042 0.331344 -0.008610 -1.603851
    45 1.539097 0.000003 0.000000 0.050214 -0.153911 -1.591790
    46 1.196320 0.000000 0.000000 0.132539 -0.225789 -1.824936
    47 3.883648 -0.050325 -0.431044 -0.022374 -0.010304 -1.305812
    48 1.719574 -0.000005 0.000000 0.038733 -0.074557 -1.586292
    49 1.209183 -0.000001 0.000000 0.047506 -0.079997 -1.582092
    50 3.859825 -0.148935 -1.331284 -0.549076 -0.024863 -1.454250
    51 1.719425 0.000000 0.000000 -0.002107 0.024342 -1.684730
    52 1.099663 0.000000 0.000000 -0.007967 0.046800 -1.711623
    53 0.806015 -0.359835 -1.318335 1.200555 0.246504 -0.836614
    54 1.789780 0.000001 0.000000 0.046975 0.150711 0.289172
    55 1.207001 0.000000 0.000004 0.215981 -0.000002 0.942472
    56 3.643179 -1.117762 -6.586830 1.677301 0.043048 -2.001890
  time 6
    0 1.610982 -0.335943 38.062996 1.735283 0.050953 -0.104910
    1 -0.124999 3.345128 -2.981903 1.574734 0.102068 1.622238
    2 4.018331 0.000000 0.000000 -0.056729 0.036769 0.160054
    3 3.518564 0.000000 0.000000 0.000409 0.007227 0.216885
    4 8.942642 0.000000 0.000000 0.035194 -0.096080 0.250224
    5 3.307269 0.000000 -0.000004 3.137477 0.001222 0.577187
    6 3.593710 -0.000001 -0.000004 0.020292 -0.031316 1.088406
    7 1.999994 -3.000001 0.000004 -1.570753 -0.000007 -1.326410
    8 2.033349 1.000771 -1.937607 -1.384408 1.273734 -3.061307
    9 6.028143 0.000002 -0.000004 1.684590 0.598240 -0.775126
    10 11.692545 0.000000 0.000000 -0.000011 0.000000 -1.660077
    11 11.481701 0.000000 0.000000 -0.853043 0.197800 -0.014374
    12 2.676086 -1.712440 0.000000 -1.570792 0.000005 -1.570792
    13 2.033341 1.000767 1.937660 2.412174 -1.487397 2.120583
    14 6.028140 0.000002 0.000000 -1.315800 0.486123 -0.913359
    15 11.692553 0.000000 0.000011 -0.000013 0.000000 -1.645256
    16 11.481667 0.000000 -0.000031 1.575391 -0.108951 -0.097558
    17 2.676086 -1.712440 0.000004 1.570793 0.000005 1.570793
    18 -3.890452 0.000004 0.000004 -1.252924 -0.241815 -1.349878
    19 17.848171 0.000000 0.000004 0.000009 0.000000 1.054621
    20 16.525251 0.000000 0.000004 -0.233040 -0.042513 -0.710631
    21 6.879454 0.000000 0.000008 -0.079099 -0.001671 -0.663830
    22 3.890452 -0.000004 -0.000004 -1.410741 -0.574545 -1.792605
    23 17.848175 0.000000 -0.000004 0.000010 0.000000 0.330868
    24 16.525246 0.000000 0.000004 0.008412 -0.329779 -1.202205
    25 6.879452 0.000000 0.000000 -0.007778 -0.003255 -0.584342
    26 3.859703 -0.142403 -1.191975 -0.568914 -0.013600 -1.526846
    27 1.312565 0.000001 0.000004 -0.086569 0.239740 -1.554263
    28 0.729362 0.000002 0.000004 -0.176890 0.315566 -1.429270
    29 3.942326 0.046774 -0.431438 0.030302 -0.060016 -1.757079
    30 1.539093 0.000001 0.000000 -0.058663 0.149388 -1.571890
    31 1.196320 -0.000001 0.000004 -0.107662 0.188362 -1.488327
    32 3.883686 -0.046767 0.431446 0.134425 0.056053 -1.771010
    33 1.719570 0.000002 0.000004 -0.030677 0.057167 -1.750736
    34 1.209183 -0.000001 -0.000004 -0.034252 0.059379 -1.537043
    35 3.859859 -0.137950 1.332462 0.524231 -0.087929 -1.819390
    36 1.719429 0.000002 0.000000 0.072023 -0.125294 -1.808387
    37 1.099670 0.000001 0.000004 0.072020 -0.125295 -0.669563
    38 0.806049 -0.348922 1.321259 -0.786557 -0.413955 -0.992027
    39 1.789787 0.000000 0.000004 0.004364 0.030238 0.718398
    40 1.207001 0.000000 -0.000004 0.102534 0.030239 0.502412
    41 3.859665 -0.132565 1.193108 0.693436 -0.009816 -1.600821
    42 1.312561 0.000000 0.000000 0.110761 -0.297055 -1.436131
    43 0.729366 0.000002 0.000000 0.157645 -0.341689 -1.408420
    44 3.942291 0.050330 0.431042 0.331344 -0.008610 -1.603851
    45 1.539097 0.000003 0.000000 0.050214 -0.153911 -1.591790
    46 1.196320 0.000000 0.000000 0.132539 -0.225789 -1.824936
    47 3.883648 -0.050325 -0.431044 -0.022374 -0.010304 -1.305812
    48 1.719574 -0.000005 0.000000 0.038733 -0.074557 -1.586292
    49 1.209183 -0.000001 0.000000 0.047506 -0.079997 -1.582092
    50 3.859825 -0.148935 -1.331284 -0.549076 -0.024863 -1.454250
    51 1.719425 0.000000 0.000000 -0.002107 0.024342 -1.684730
    52 1.099663 0.000000 0.000000 -0.007967 0.046800 -1.711623
    53 0.806015 -0.359835 -1.318335 1.200555 0.246504 -0.836614
    54 1.789780 0.000001 0.000000 0.046975 0.150711 0.289172
    55 1.207001 0.000000 0.000004 0.215981 -0.000002 0.942472
    56 3.643179 -1.117762 -6.586830 1.677301 0.043048 -2.001890
  time 7
    0 1.610982 -0.335943 37.547355 1.737515 0.045021 -0.091661
    1 -0.124999 3.345128 -2.981903 1.574978 0.102068 1.621891
    2 4.018331 0.000000 0.000000 -0.064376 0.025455 0.156627
    3 3.518564 0.000000 0.000000 -0.004097 -0.001043 0.206578
    4 8.942642 0.000000 0.000000 0.026032 -0.088434 0.247227
    5 3.307269 0.000000 -0.000004 3.137477 0.001222 0.577187
    6 3.593710 -0.000001 -0.000004 0.020017 -0.044031 1.089427
    7 1.999994 -3.000001 0.000004 -1.570753 -0.000007 -1.326410
    8 2.033349 1.000771 -1.937607 -1.384408 1.273734 -3.061307
    9 6.028143 0.000002 -0.000004 1.669611 0.549556 -0.794739
    10 11.692545 0.000000 0.000000 -0.000011 0.000000 -1.688293
    11 11.481701 0.000000 0.000000 -0.852072 0.181073 -0.014276
    12 2.676086 -1.712440 0.000000 -1.570792 0.000005 -1.570792
    13 2.033341 1.000767 1.937660 2.412174 -1.487397 2.120583
    14 6.028140 0.000002 0.000000 -1.318665 0.490575 -0.908012
    15 11.692553 0.000000 0.000011 -0.000013 0.000000 -1.700086
    16 11.481667 0.000000 -0.000031 1.575391 -0.108951 -0.097558
    17 2.676086 -1.712440 0.000004 1.570793 0.000005 1.570793
    18 -3.890452 0.000004 0.000004 -1.234632 -0.274844 -1.371422
    19 17.848171 0.000000 0.000004 0.000009 0.000000 1.139983
    20 16.525251 0.000000 0.000004 -0.197097 0.016117 -0.690774
    21 6.879454 0.000000 0.000008 -0.079626 -0.001479 -0.568245
    22 3.890452 -0.000004 -0.000004 -1.404541 -0.550813 -1.789718
    23 17.848175 0.000000 -0.000004 0.000010 0.000000 0.351590
    24 16.525246 0.000000 0.000004 -0.015863 -0.371424 -1.061604
    25 6.879452 0.000000 0.000000 -0.007467 -0.003040 -0.584342
    26 3.859703 -0.142403 -1.191975 -0.568914 -0.013600 -1.526892
    27 1.312565 0.000001 0.000004 -0.086569 0.239740 -1.554263
    28 0.729362 0.000002 0.000004 -0.176890 0.315566 -1.429270
    29 3.942326 0.046774 -0.431438 0.030302 -0.060016 -1.757025
    30 1.539093 0.000001 0.000000 -0.058663 0.149388 -1.571890
    31 1.196320 -0.000001 0.000004 -0.107662 0.188362 -1.488372
    32 3.883686 -0.046767 0.431446 0.134425 0.056053 -1.771064
    33 1.719570 0.000002 0.000004 -0.030677 0.057167 -1.750736
    34 1.209183 -0.000001 -0.000004 -0.034252 0.059379 -1.537043
    35 3.859859 -0.137950 1.332462 0.524231 -0.087929 -1.819390
    36 1.719429 0.000002 0.000000 0.072023 -0.125294 -1.808387
    37 1.099670 0.000001 0.000004 0.072020 -0.125295 -0.669563
    38 0.806049 -0.348922 1.321259 -0.786557 -0.413955 -0.992027
    39 1.789787 0.000000 0.000004 0.004364 0.030238 0.718398
    40 1.207001 0.000000 -0.000004 0.102534 0.030239 0.502412
    41 3.859665 -0.132565 1.193108 0.693436 -0.009816 -1.600821
    42 1.312561 0.000000 0.000000 0.110761 -0.297055 -1.436131
    43 0.729366 0.000002 0.000000 0.157645 -0.341689 -1.408420
    44 3.942291 0.050330 0.431042 0.331344 -0.008610 -1.603851
    45 1.539097 0.000003 0.000000 0.050214 -0.153911 -1.591790
    46 1.196320 0.000000 0.000000 0.132539 -0.225789 -1.824936
    47 3.883648 -0.050325 -0.431044 -0.022374 -0.010304 -1.305812
    48 1.719574 -0.000005 0.000000 0.038733 -0.074557 -1.586292
    49 1.209183 -0.000001 0.000000 0.047506 -0.079997 -1.582092
    50 3.859825 -0.148935 -1.331284 -0.549076 -0.024863 -1.454250
    51 1.719425 0.000000 0.000000 -0.002107 0.024342 -1.684730
    52 1.099663 0.000000 0.000000 -0.007967 0.046800 -1.711623
    53 0.806015 -0.359835 -1.318335 1.200555 0.246504 -0.836614
    54 1.789780 0.000001 0.000000 0.046975 0.150711 0.289172
    55 1.207001 0.000000 0.000004 0.215981 -0.000002 0.942472
    56 3.643179 -1.117762 -6.586830 1.677301 0.043048 -2.001890
  time 8
    0 1.610982 -0.335943 36.723111 1.732941 0.034738 -0.074626
    1 -0.124999 3.345128 -2.981903 1.575026 0.102068 1.620457
    2 4.018331 0.000000 0.000000 -0.073630 0.012572 0.157513
    3 3.518564 0.000000 0.000000 -0.011420 -0.011349 0.204805
    4 8.942642 0.000000 0.000000 0.012766 -0.080393 0.242248
    5 3.307269 0.000000 -0.000004 3.137477 0.001222 0.577187
    6 3.593710 -0.000001 -0.000004 0.019465 -0.060366 1.090130
    7 1.999994 -3.000001 0.000004 -1.570753 -0.000007 -1.326410
    8 2.033349 1.000771 -1.937607 -1.384408 1.273734 -3.061307
    9 6.028143 0.000002 -0.000004 1.661248 0.455990 -0.794421
    10 11.692545 0.000000 0.000000 -0.000011 0.000000 -1.747948
    11 11.481701 0.000000 0.000000 -0.851748 0.175909 -0.014276
    12 2.676086 -1.712440 0.000000 -1.570792 0.000005 -1.570792
    13 2.033341 1.000767 1.937660 2.412174 -1.487397 2.120583
    14 6.028140 0.000002 0.000000 -1.342049 0.457723 -0.902782
    15 11.692553 0.000000 0.000011 -0.000013 0.000000 -1.803382
    16 11.481667 0.000000 -0.000031 1.575391 -0.108951 -0.097558
    17 2.676086 -1.712440 0.000004 1.570793 0.000005 1.570793
    18 -3.890452 0.000004 0.000004 -1.199288 -0.352566 -1.429596
    19 17.848171 0.000000 0.000004 0.000009 0.000000 1.287835
    20 16.525251 0.000000 0.000004 -0.139159 0.074543 -0.711586
    21 6.879454 0.000000 0.000008 -0.080237 -0.001300 -0.478092
    22 3.890452 -0.000004 -0.000004 -1.402664 -0.556241 -1.783531
    23 17.848175 0.000000 -0.000004 0.000010 0.000000 0.507790
    24 16.525246 0.000000 0.000004 -0.047313 -0.396668 -1.080657
    25 6.879452 0.000000 0.000000 -0.007155 -0.002944 -0.597473
    26 3.859703 -0.142403 -1.191975 -0.568914 -0.013600 -1.526846
    27 1.312565 0.000001 0.000004 -0.086569 0.239740 -1.554263
    28 0.729362 0.000002 0.000004 -0.176890 0.315566 -1.429270
    29 3.942326 0.046774 -0.431438 0.030302 -0.060016 -1.757025
    30 1.539093 0.000001 0.000000 -0.058663 0.149388 -1.571890
    31 1.196320 -0.000001 0.000004 -0.107662 0.188362 -1.488327
    32 3.883686 -0.046767 0.431446 0.134425 0.056053 -1.771010
    33 1.719570 0.000002 0.000004 -0.030677 0.057167 -1.750736
    34 1.209183 -0.000001 -0.000004 -0.034252 0.059379 -1.537043
    35 3.859859 -0.137950 1.332462 0.524231 -0.087929 -1.819390
    36 1.719429 0.000002 0.000000 0.072023 -0.125294 -1.808387
    37 1.099670 0.000001 0.000004 0.072020 -0.125295 -0.669563
    38 0.806049 -0.348922 1.321259 -0.786557 -0.413955 -0.992027
    39 1.789787 0.000000 0.000004 0.004364 0.030238 0.718398
    40 1.207001 0.000000 -0.000004 0.102534 0.030239 0.502412
    41 3.859665 -0.132565 1.193108 0.693436 -0.009816 -1.600821
    42 1.312561 0.000000 0.000000 0.110761 -0.297055 -1.436131
    43 0.729366 0.000002 0.000000 0.157645 -0.341689 -1.408420
    44 3.942291 0.050330 0.431042 0.331344 -0.008610 -1.603851
    45 1.539097 0.000003 0.000000 0.050214 -0.153911 -1.591790
    46 1.196320 0.000000 0.000000 0.132539 -0.225789 -1.824936
    47 3.883648 -0.050325 -0.431044 -0.022374 -0.010304 -1.305812
    48 1.719574 -0.000005 0.000000 0.038733 -0.074557 -1.586292
    49 1.209183 -0.000001 0.000000 0.047506 -0.079997 -1.582092
    50 3.859825 -0.148935 -1.331284 -0.549076 -0.024863 -1.454250
    51 1.719425 0.000000 0.000000 -0.002107 0.024342 -1.684730
    52 1.099663 0.000000 0.000000 -0.007967 0.046800 -1.711623
    53 0.806015 -0.359835 -1.318335 1.200555 0.246504 -0.836614
    54 1.789780 0.000001 0.000000 0.046975 0.150711 0.289172
    55 1.207001 0.000000 0.000004 0.215981 -0.000002 0.942472
    56 3.643179 -1.117762 -6.586830 1.677301 0.043048 -2.001890
  time 9
    0 1.610982 -0.335943 36.086373 1.719491 0.023353 -0.055320
    1 -0.124999 3.345128 -2.981903 1.574929 0.102068 1.618231
    2 4.018331 0.000000 0.000000 -0.083165 -0.000096 0.164824
    3 3.518564 0.000000 0.000000 -0.019641 -0.018276 0.220313
    4 8.942642 0.000000 0.000000 -0.002283 -0.072806 0.236654
    5 3.307269 0.000000 -0.000004 3.137477 0.001222 0.577187
    6 3.593710 -0.000001 -0.000004 0.021626 -0.077828 1.090588
    7 1.999994 -3.000001 0.000004 -1.570753 -0.000007 -1.326410
    8 2.033349 1.000771 -1.937607 -1.384408 1.273734 -3.061307
    9 6.028143 0.000002 -0.000004 1.665107 0.347185 -0.780109
    10 11.692545 0.000000 0.000000 -0.000011 0.000000 -1.814377
    11 11.481701 0.000000 0.000000 -0.852288 0.184970 -0.014325
    12 2.676086 -1.712440 0.000000 -1.570792 0.000005 -1.570792
    13 2.033341 1.000767 1.937660 2.412174 -1.487397 2.120583
    14 6.028140 0.000002 0.000000 -1.381392 0.362337 -0.904304
    15 11.692553 0.000000 0.000011 -0.000013 0.000000 -1.904720
    16 11.481667 0.000000 -0.000031 1.575391 -0.108951 -0.097558
    17 2.676086 -1.712440 0.000004 1.570793 0.000005 1.570793
    18 -3.890452 0.000004 0.000004 -1.145534 -0.461919 -1.522034
    19 17.848171 0.000000 0.000004 0.000009 0.000000 1.435612
    20 16.525251 0.000000 0.000004 -0.077402 0.123287 -0.721339
    21 6.879454 0.000000 0.000008 -0.080836 -0.001156 -0.410658
    22 3.890452 -0.000004 -0.000004 -1.454552 -0.567097 -1.702964
    23 17.848175 0.000000 -0.000004 0.000010 0.000000 0.767288
    24 16.525246 0.000000 0.000004 -0.079143 -0.311624 -1.313382
    25 6.879452 0.000000 0.000000 -0.007155 -0.002944 -0.597308
    26 3.859703 -0.142403 -1.191975 -0.568914 -0.013600 -1.526846
    27 1.312565 0.000001 0.000004 -0.086569 0.239740 -1.554263
    28 0.729362 0.000002 0.000004 -0.176890 0.315566 -1.429227
    29 3.942326 0.046774 -0.431438 0.030302 -0.060016 -1.757025
    30 1.539093 0.000001 0.000000 -0.058651 0.149388 -1.571890
    31 1.196320 -0.000001 0.000004 -0.107662 0.188362 -1.488327
    32 3.883686 -0.046767 0.431446 0.134425 0.056053 -1.771010
    33 1.719570 0.000002 0.000004 -0.030677 0.057167 -1.750736
    34 1.209183 -0.000001 -0.000004 -0.034252 0.059379 -1.537043
    35 3.859859 -0.137950 1.332462 0.524231 -0.087929 -1.819390
    36 1.719429 0.000002 0.000000 0.072023 -0.125294 -1.808387
    37 1.099670 0.000001 0.000004 0.072020 -0.125295 -0.669563
    38 0.806049 -0.348922 1.321259 -0.786557 -0.413955 -0.992027
    39 1.789787 0.000000 0.000004 0.004364 0.030238 0.718398
    40 1.207001 0.000000 -0.000004 0.102534 0.030239 0.502412
    41 3.859665 -0.132565 1.193108 0.693436 -0.009816 -1.600821
    42 1.312561 0.000000 0.000000 0.110761 -0.297055 -1.436131
    43 0.729366 0.000002 0.000000 0.157645 -0.341689 -1.408420
    44 3.942291 0.050330 0.431042 0.331344 -0.008610 -1.603851
    45 1.539097 0.000003 0.000000 0.050214 -0.153911 -1.591790
    46 1.196320 0.000000 0.000000 0.132539 -0.225789 -1.824936
    47 3.883648 -0.050325 -0.431044 -0.022374 -0.010304 -1.305812
    48 1.719574 -0.000005 0.000000 0.038733 -0.074557 -1.586292
    49 1.209183 -0.000001 0.000000 0.047506 -0.079997 -1.582092
    50 3.859825 -0.148935 -1.331284 -0.549076 -0.024863 -1.454250
    51 1.719425 0.000000 0.000000 -0.002107 0.024342 -1.684730
    52 1.099663 0.000000 0.000000 -0.007967 0.046800 -1.711623
    53 0.806015 -0.359835 -1.318335 1.200555 0.246504 -0.836614
    54 1.789780 0.000001 0.000000 0.046975 0.150711 0.289172
    55 1.207001 0.000000 0.000004 0.215981 -0.000002 0.942472
    56 3.643179 -1.117762 -6.586830 1.677301 0.043048 -2.001890
  time 10
    0 1.610982 -0.335943 35.508230 1.702774 0.013813 -0.035257
    1 -0.124999 3.345128 -2.981903 1.574637 0.102068 1.615658
    2 4.018331 0.000000 0.000000 -0.091653 -0.010714 0.174604
    3 3.518564 0.000000 0.000000 -0.027443 -0.024185 0.241729
    4 8.942642 0.000000 0.000000 -0.016861 -0.066586 0.231828
    5 3.307269 0.000000 -0.000004 3.137477 0.001222 0.577187
    6 3.593710 -0.000001 -0.000004 0.024477 -0.095134 1.090693
    7 1.999994 -3.000001 0.000004 -1.570753 -0.000007 -1.326410
    8 2.033349 1.000771 -1.937607 -1.384408 1.273734 -3.061307
    9 6.028143 0.000002 -0.000004 1.673654 0.237594 -0.768235
    10 11.692545 0.000000 0.000000 -0.000011 0.000000 -1.869362
    11 11.481701 0.000000 0.000000 -0.853259 0.201316 -0.014374
    12 2.676086 -1.712440 0.000000 -1.570792 0.000005 -1.570792
    13 2.033341 1.000767 1.937660 2.412174 -1.487397 2.120583
    14 6.028140 0.000002 0.000000 -1.418748 0.216223 -0.902860
    15 11.692553 0.000000 0.000011 -0.000013 0.000000 -1.969272
    16 11.481667 0.000000 -0.000031 1.575391 -0.108951 -0.097558
    17 2.676086 -1.712440 0.000004 1.570793 0.000005 1.570793
    18 -3.890452 0.000004 0.000004 -1.071719 -0.574809 -1.647332
    19 17.848171 0.000000 0.000004 0.000009 0.000000 1.554984
    20 16.525251 0.000000 0.000004 -0.041705 0.148324 -0.756981
    21 6.879454 0.000000 0.000008 -0.081508 -0.001024 -0.350480
    22 3.890452 -0.000004 -0.000004 -1.525040 -0.497670 -1.590088
    23 17.848175 0.000000 -0.000004 0.000010 0.000000 0.874593
    24 16.525246 0.000000 0.000004 -0.116333 -0.205802 -1.471045
    25 6.879452 0.000000 0.000000 -0.007155 -0.002944 -0.597185
    26 3.859703 -0.142403 -1.191975 -0.568914 -0.013600 -1.526846
    27 1.312565 0.000001 0.000004 -0.086569 0.239740 -1.554263
    28 0.729362 0.000002 0.000004 -0.176890 0.315566 -1.429227
    29 3.942326 0.046774 -0.431438 0.030302 -0.060016 -1.757025
    30 1.539093 0.000001 0.000000 -0.058651 0.149388 -1.571890
    31 1.196320 -0.000001 0.000004 -0.107662 0.188362 -1.488327
    32 3.883686 -0.046767 0.431446 0.134425 0.056053 -1.771010
    33 1.719570 0.000002 0.000004 -0.030677 0.057167 -1.750736
    34 1.209183 -0.000001 -0.000004 -0.034252 0.059379 -1.537043
    35 3.859859 -0.137950 1.332462 0.524231 -0.087929 -1.819390
    36 1.719429 0.000002 0.000000 0.072023 -0.125294 -1.808387
    37 1.099670 0.000001 0.000004 0.072020 -0.125295 -0.669563
    38 0.806049 -0.348922 1.321259 -0.786557 -0.413955 -0.992027
    39 1.789787 0.000000 0.000004 0.004364 0.030238 0.718398
    40 1.207001 0.000000 -0.000004 0.102534 0.030239 0.502412
    41 3.859665 -0.132565 1.193108 0.693436 -0.009816 -1.600821
    42 1.312561 0.000000 0.000000 0.110761 -0.297055 -1.436131
    43 0.729366 0.000002 0.000000 0.157645 -0.341689 -1.408420
    44 3.942291 0.050330 0.431042 0.331344 -0.008610 -1.603851
    45 1.539097 0.000003 0.000000 0.050214 -0.153911 -1.591790
    46 1.196320 0.000000 0.000000 0.132539 -0.225789 -1.824936
    47 3.883648 -0.050325 -0.431044 -0.022374 -0.010304 -1.305812
    48 1.719574 -0.000005 0.000000 0.038733 -0.074557 -1.586292
    49 1.209183 -0.000001 0.000000 0.047506 -0.079997 -1.582092
    50 3.859825 -0.148935 -1.331284 -0.549076 -0.024863 -1.454250
    51 1.719425 0.000000 0.000000 -0.002107 0.024342 -1.684730
    52 1.099663 0.000000 0.000000 -0.007955 0.046800 -1.711623
    53 0.806015 -0.359835 -1.318335 1.200555 0.246504 -0.836614
    54 1.789780 0.000001 0.000000 0.046975 0.150711 0.289172
    55 1.207001 0.000000 0.000004 0.215981 -0.000002 0.942472
    56 3.643179 -1.117762 -6.586830 1.677301 0.043048 -2.001890
  time 11
    0 1.610982 -0.335943 35.340256 1.694224 0.009259 -0.015270
    1 -0.124999 3.345128 -2.981903 1.574247 0.102068 1.612937
    2 4.018331 0.000000 0.000000 -0.097767 -0.017486 0.179697
    3 3.518564 0.000000 0.000000 -0.033160 -0.027445 0.253186
    4 8.942642 0.000000 0.000000 -0.028635 -0.062607 0.229200
    5 3.307269 0.000000 -0.000004 3.137477 0.001222 0.577187
    6 3.593710 -0.000001 -0.000004 0.027603 -0.110534 1.090412
    7 1.999994 -3.000001 0.000004 -1.570753 -0.000007 -1.326410
    8 2.033349 1.000771 -1.937607 -1.384408 1.273734 -3.061307
    9 6.028143 0.000002 -0.000004 1.680363 0.140750 -0.764030
    10 11.692545 0.000000 0.000000 -0.000011 0.000000 -1.905668
    11 11.481701 0.000000 0.000000 -0.854661 0.224442 -0.014570
    12 2.676086 -1.712440 0.000000 -1.570792 0.000005 -1.570792
    13 2.033341 1.000767 1.937660 2.412174 -1.487397 2.120583
    14 6.028140 0.000002 0.000000 -1.437397 0.063161 -0.900831
    15 11.692553 0.000000 0.000011 -0.000013 0.000000 -1.990043
    16 11.481667 0.000000 -0.000031 1.575452 -0.108951 -0.097558
    17 2.676086 -1.712440 0.000004 1.570793 0.000005 1.570793
    18 -3.890452 0.000004 0.000004 -0.986988 -0.657637 -1.789378
    19 17.848171 0.000000 0.000004 0.000009 0.000000 1.587350
    20 16.525251 0.000000 0.000004 -0.051341 0.131330 -0.805745
    21 6.879454 0.000000 0.000008 -0.082203 -0.000952 -0.308386
    22 3.890452 -0.000004 -0.000004 -1.606624 -0.365127 -1.459613
    23 17.848175 0.000000 -0.000004 0.000010 0.000000 0.830268
    24 16.525246 0.000000 0.000004 -0.159569 -0.076743 -1.546169
    25 6.879452 0.000000 0.000000 -0.007155 -0.002944 -0.597020
    26 3.859703 -0.142403 -1.191975 -0.568914 -0.013600 -1.526846
    27 1.312565 0.000001 0.000004 -0.086569 0.239740 -1.554263
    28 0.729362 0.000002 0.000004 -0.176890 0.315566 -1.429227
    29 3.942326 0.046774 -0.431438 0.030302 -0.060016 -1.757025
    30 1.539093 0.000001 0.000000 -0.058651 0.149388 -1.571890
    31 1.196320 -0.000001 0.000004 -0.107662 0.188362 -1.488327
    32 3.883686 -0.046767 0.431446 0.134425 0.056053 -1.771010
    33 1.719570 0.000002 0.000004 -0.030677 0.057167 -1.750736
    34 1.209183 -0.000001 -0.000004 -0.034252 0.059379 -1.537043
    35 3.859859 -0.137950 1.332462 0.524231 -0.087929 -1.819390
    36 1.719429 0.000002 0.000000 0.072023 -0.125294 -1.808387
    37 1.099670 0.000001 0.000004 0.072020 -0.125295 -0.669563
    38 0.806049 -0.348922 1.321259 -0.786557 -0.413955 -0.992027
    39 1.789787 0.000000 0.000004 0.004364 0.030238 0.718398
    40 1.207001 0.000000 -0.000004 0.102534 0.030239 0.502412
    41 3.859665 -0.132565 1.193108 0.693436 -0.009816 -1.600821
    42 1.312561 0.000000 0.000000 0.110761 -0.297055 -1.436131
    43 0.729366 0.000002 0.000000 0.157645 -0.341689 -1.408420
    44 3.942291 0.050330 0.431042 0.331344 -0.008610 -1.603851
    45 1.539097 0.000003 0.000000 0.050214 -0.153911 -1.591790
    46 1.196320 0.000000 0.000000 0.132539 -0.225789 -1.824936
    47 3.883648 -0.050325 -0.431044 -0.022374 -0.010304 -1.305812
    48 1.719574 -0.000005 0.000000 0.038733 -0.074557 -1.586292
    49 1.209183 -0.000001 0.000000 0.047506 -0.079997 -1.582092
    50 3.859825 -0.148935 -1.331284 -0.549076 -0.024863 -1.454250
    51 1.719425 0.000000 0.000000 -0.002107 0.024342 -1.684730
    52 1.099663 0.000000 0.000000 -0.007967 0.046800 -1.711623
    53 0.806015 -0.359835 -1.318335 1.200555 0.246504 -0.836614
    54 1.789780 0.000001 0.000000 0.046975 0.150711 0.289172
    55 1.207001 0.000000 0.000004 0.215981 -0.000002 0.942472
    56 3.643179 -1.117762 -6.586830 1.677301 0.043048 -2.001890
  time 12
    0 1.610982 -0.335943 35.703549 1.696838 0.009043 0.009184
    1 -0.124999 3.345128 -2.981903 1.573225 0.102068 1.609672
    2 4.018331 0.000000 0.000000 -0.101618 -0.019834 0.178367
    3 3.518564 0.000000 0.000000 -0.037115 -0.028427 0.251137
    4 8.942642 0.000000 0.000000 -0.038422 -0.060822 0.229431
    5 3.307269 0.000000 -0.000004 3.137477 0.001222 0.577187
    6 3.593710 -0.000001 -0.000004 0.031052 -0.122279 1.089884
    7 1.999994 -3.000001 0.000004 -1.570753 -0.000007 -1.326450
    8 2.033349 1.000771 -1.937607 -1.384408 1.273734 -3.061307
    9 6.028143 0.000002 -0.000004 1.686704 0.041134 -0.765938
    10 11.692545 0.000000 0.000000 -0.000011 0.000000 -1.933227
    11 11.481701 0.000000 0.000000 -0.856496 0.254791 -0.014815
    12 2.676086 -1.712440 0.000000 -1.570792 0.000005 -1.570792
    13 2.033341 1.000767 1.937660 2.412174 -1.487397 2.120583
    14 6.028140 0.000002 0.000000 -1.428452 -0.104438 -0.917378
    15 11.692553 0.000000 0.000011 -0.000013 0.000000 -1.979273
    16 11.481667 0.000000 -0.000031 1.575452 -0.108951 -0.097558
    17 2.676086 -1.712440 0.000004 1.570793 0.000005 1.570793
    18 -3.890452 0.000004 0.000004 -0.895530 -0.711315 -1.932128
    19 17.848171 0.000000 0.000004 0.000009 0.000000 1.528449
    20 16.525251 0.000000 0.000004 -0.077278 0.079135 -0.828116
    21 6.879454 0.000000 0.000008 -0.082239 -0.001252 -0.345390
    22 3.890452 -0.000004 -0.000004 -1.698079 -0.249204 -1.319583
    23 17.848175 0.000000 -0.000004 0.000010 0.000000 0.747817
    24 16.525246 0.000000 0.000004 -0.198164 0.110018 -1.430228
    25 6.879452 0.000000 0.000000 -0.005741 -0.003028 -0.744338
    26 3.859703 -0.142403 -1.191975 -0.568914 -0.013600 -1.526846
    27 1.312565 0.000001 0.000004 -0.086569 0.239740 -1.554263
    28 0.729362 0.000002 0.000004 -0.176890 0.315566 -1.429227
    29 3.942326 0.046774 -0.431438 0.030302 -0.060016 -1.757025
    30 1.539093 0.000001 0.000000 -0.058651 0.149388 -1.571890
    31 1.196320 -0.000001 0.000004 -0.107662 0.188362 -1.488327
    32 3.883686 -0.046767 0.431446 0.134425 0.056053 -1.771010
    33 1.719570 0.000002 0.000004 -0.030677 0.057167 -1.750736
    34 1.209183 -0.000001 -0.000004 -0.034252 0.059379 -1.537043
    35 3.859859 -0.137950 1.332462 0.524231 -0.087929 -1.819390
    36 1.719429 0.000002 0.000000 0.072023 -0.125294 -1.808387
    37 1.099670 0.000001 0.000004 0.072020 -0.125295 -0.669563
    38 0.806049 -0.348922 1.321259 -0.786557 -0.413955 -0.992027
    39 1.789787 0.000000 0.000004 0.004364 0.030238 0.718398
    40 1.207001 0.000000 -0.000004 0.102534 0.030239 0.502412
    41 3.859665 -0.132565 1.193108 0.693436 -0.009816 -1.600821
    42 1.312561 0.000000 0.000000 0.110761 -0.297055 -1.436131
    43 0.729366 0.000002 0.000000 0.157645 -0.341689 -1.408420
    44 3.942291 0.050330 0.431042 0.331344 -0.008610 -1.603851
    45 1.539097 0.000003 0.000000 0.050214 -0.153911 -1.591790
    46 1.196320 0.000000 0.000000 0.132539 -0.225789 -1.824936
    47 3.883648 -0.050325 -0.431044 -0.022374 -0.010304 -1.305812
    48 1.719574 -0.000005 0.000000 0.038733 -0.074557 -1.586292
    49 1.209183 -0.000001 0.000000 0.047506 -0.079997 -1.582092
    50 3.859825 -0.148935 -1.331284 -0.549076 -0.024863 -1.454250
    51 1.719425 0.000000 0.000000 -0.002107 0.024342 -1.684730
    52 1.099663 0.000000 0.000000 -0.007967 0.046800 -1.711623
    53 0.806015 -0.359835 -1.318335 1.200555 0.246504 -0.836614
    54 1.789780 0.000001 0.000000 0.046975 0.150711 0.289172
    55 1.207001 0.000000 0.000004 0.215981 -0.000002 0.942472
    56 3.643179 -1.117762 -6.586830 1.677301 0.043060 -2.001890
  time 13
    0 1.610982 -0.335943 36.332474 1.704244 0.010038 0.030534
    1 -0.124999 3.345128 -2.981903 1.571423 0.102068 1.605418
    2 4.018331 0.000000 0.000000 -0.104086 -0.019044 0.174556
    3 3.518564 0.000000 0.000000 -0.040459 -0.028583 0.243994
    4 8.942642 0.000000 0.000000 -0.047698 -0.060618 0.231567
    5 3.307269 0.000000 -0.000004 3.137477 0.001222 0.577187
    6 3.593710 -0.000001 -0.000004 0.033994 -0.128786 1.089110
    7 1.999994 -3.000001 0.000004 -1.570753 -0.000007 -1.326410
    8 2.033349 1.000771 -1.937607 -1.384408 1.273734 -3.061307
    9 6.028143 0.000002 -0.000004 1.691023 -0.065701 -0.766892
    10 11.692545 0.000000 0.000000 -0.000011 0.000000 -1.954931
    11 11.481701 0.000000 0.000000 -0.858654 0.290398 -0.015208
    12 2.676086 -1.712440 0.000000 -1.570792 0.000005 -1.570792
    13 2.033341 1.000767 1.937660 2.412174 -1.487397 2.120583
    14 6.028140 0.000002 0.000000 -1.416059 -0.293556 -0.940248
    15 11.692553 0.000000 0.000011 -0.000013 0.000000 -1.928359
    16 11.481667 0.000000 -0.000031 1.575391 -0.108951 -0.097558
    17 2.676086 -1.712440 0.000004 1.570793 0.000005 1.570793
    18 -3.890452 0.000004 0.000004 -0.836525 -0.714937 -2.026293
    19 17.848171 0.000000 0.000004 0.000009 0.000000 1.383886
    20 16.525251 0.000000 0.000004 -0.089672 0.014392 -0.854307
    21 6.879454 0.000000 0.000008 -0.082203 -0.001539 -0.386496
    22 3.890452 -0.000004 -0.000004 -1.799651 -0.106857 -1.193164
    23 17.848175 0.000000 -0.000004 0.000010 0.000000 0.556434
    24 16.525246 0.000000 0.000004 -0.164664 0.328299 -1.158312
    25 6.879452 0.000000 0.000000 -0.004267 -0.003112 -0.956774
    26 3.859703 -0.142403 -1.191975 -0.568914 -0.013600 -1.526846
    27 1.312565 0.000001 0.000004 -0.086569 0.239740 -1.554310
    28 0.729362 0.000002 0.000004 -0.176890 0.315566 -1.429227
    29 3.942326 0.046774 -0.431438 0.030302 -0.060016 -1.757025
    30 1.539093 0.000001 0.000000 -0.058663 0.149388 -1.571890
    31 1.196320 -0.000001 0.000004 -0.107662 0.188362 -1.488327
    32 3.883686 -0.046767 0.431446 0.134425 0.056053 -1.771010
    33 1.719570 0.000002 0.000004 -0.030677 0.057167 -1.750736
    34 1.209183 -0.000001 -0.000004 -0.034252 0.059379 -1.537043
    35 3.859859 -0.137950 1.332462 0.524231 -0.087929 -1.819390
    36 1.719429 0.000002 0.000000 0.072023 -0.125294 -1.808387
    37 1.099670 0.000001 0.000004 0.072020 -0.125295 -0.669563
    38 0.806049 -0.348922 1.321259 -0.786557 -0.413955 -0.992027
    39 1.789787 0.000000 0.000004 0.004364 0.030238 0.718398
    40 1.207001 0.000000 -0.000004 0.102534 0.030239 0.502412
    41 3.859665 -0.132565 1.193108 0.693436 -0.009816 -1.600821
    42 1.312561 0.000000 0.000000 0.110761 -0.297055 -1.436131
    43 0.729366 0.000002 0.000000 0.157645 -0.341689 -1.408420
    44 3.942291 0.050330 0.431042 0.331344 -0.008610 -1.603851
    45 1.539097 0.000003 0.000000 0.050214 -0.153911 -1.591790
    46 1.196320 0.000000 0.000000 0.132539 -0.225789 -1.824936
    47 3.883648 -0.050325 -0.431044 -0.022374 -0.010304 -1.305812
    48 1.719574 -0.000005 0.000000 0.038733 -0.074557 -1.586292
    49 1.209183 -0.000001 0.000000 0.047506 -0.079997 -1.582092
    50 3.859825 -0.148935 -1.331284 -0.549076 -0.024863 -1.454250
    51 1.719425 0.000000 0.000000 -0.002107 0.024342 -1.684730
    52 1.099663 0.000000 0.000000 -0.007967 0.046800 -1.711623
    53 0.806015 -0.359835 -1.318335 1.200555 0.246504 -0.836614
    54 1.789780 0.000001 0.000000 0.046975 0.150711 0.289172
    55 1.207001 0.000000 0.000004 0.215981 -0.000002 0.942472
    56 3.643179 -1.117762 -6.586830 1.677301 0.043048 -2.001890
  time 14
    0 1.610982 -0.335943 37.055153 1.714263 0.011872 0.042799
    1 -0.124999 3.345128 -2.981903 1.569573 0.102068 1.601213
    2 4.018331 0.000000 0.000000 -0.104983 -0.015832 0.169462
    3 3.518564 0.000000 0.000000 -0.042676 -0.027744 0.233915
    4 8.942642 0.000000 0.000000 -0.055331 -0.062104 0.234702
    5 3.307269 0.000000 -0.000004 3.137477 0.001222 0.577187
    6 3.593710 -0.000001 -0.000004 0.035972 -0.131783 1.088230
    7 1.999994 -3.000001 0.000004 -1.570753 -0.000007 -1.326410
    8 2.033349 1.000771 -1.937607 -1.384408 1.273734 -3.061307
    9 6.028143 0.000002 -0.000004 1.690656 -0.158639 -0.763358
    10 11.692545 0.000000 0.000000 -0.000011 0.000000 -1.966244
    11 11.481701 0.000000 0.000000 -0.860920 0.327051 -0.015649
    12 2.676086 -1.712440 0.000000 -1.570792 0.000005 -1.570792
    13 2.033341 1.000767 1.937660 2.412174 -1.487397 2.120583
    14 6.028140 0.000002 0.000000 -1.401561 -0.465709 -0.969088
    15 11.692553 0.000000 0.000011 -0.000013 0.000000 -1.848701
    16 11.481667 0.000000 -0.000031 1.575391 -0.108951 -0.097558
    17 2.676086 -1.712440 0.000004 1.570793 0.000005 1.570793
    18 -3.890452 0.000004 0.000004 -0.823957 -0.681510 -2.053845
    19 17.848171 0.000000 0.000004 0.000009 0.000000 1.173096
    20 16.525251 0.000000 0.000004 -0.080513 -0.050249 -0.888944
    21 6.879454 0.000000 0.000008 -0.082107 -0.001839 -0.429502
    22 3.890452 -0.000004 -0.000004 -1.820455 -0.056449 -1.171304
    23 17.848175 0.000000 -0.000004 0.000010 0.000000 0.498962
    24 16.525246 0.000000 0.000004 -0.043301 0.396182 -0.914191
    25 6.879452 0.000000 0.000000 -0.003680 -0.003148 -1.065194
    26 3.859703 -0.142403 -1.191975 -0.568914 -0.013600 -1.526846
    27 1.312565 0.000001 0.000004 -0.086569 0.239740 -1.554263
    28 0.729362 0.000002 0.000004 -0.176890 0.315566 -1.429227
    29 3.942326 0.046774 -0.431438 0.030302 -0.060016 -1.757025
    30 1.539093 0.000001 0.000000 -0.058663 0.149388 -1.571890
    31 1.196320 -0.000001 0.000004 -0.107662 0.188362 -1.488327
    32 3.883686 -0.046767 0.431446 0.134425 0.056053 -1.771010
    33 1.719570 0.000002 0.000004 -0.030677 0.057167 -1.750736
    34 1.209183 -0.000001 -0.000004 -0.034252 0.059379 -1.537043
    35 3.859859 -0.137950 1.332462 0.524231 -0.087929 -1.819390
    36 1.719429 0.000002 0.000000 0.072023 -0.125294 -1.808387
    37 1.099670 0.000001 0.000004 0.072020 -0.125295 -0.669563
    38 0.806049 -0.348922 1.321259 -0.786557 -0.413955 -0.992027
    39 1.789787 0.000000 0.000004 0.004364 0.030238 0.718398
    40 1.207001 0.000000 -0.000004 0.102534 0.030239 0.502412
    41 3.859665 -0.132565 1.193108 0.693436 -0.009816 -1.600821
    42 1.312561 0.000000 0.000000 0.110761 -0.297055 -1.436131
    43 0.729366 0.000002 0.000000 0.157645 -0.341689 -1.408420
    44 3.942291 0.050330 0.431042 0.331344 -0.008610 -1.603851
    45 1.539097 0.000003 0.000000 0.050214 -0.153911 -1.591790
    46 1.196320 0.000000 0.000000 0.132539 -0.225789 -1.824936
    47 3.883648 -0.050325 -0.431044 -0.022374 -0.010304 -1.305812
    48 1.719574 -0.000005 0.000000 0.038733 -0.074557 -1.586292
    49 1.209183 -0.000001 0.000000 0.047506 -0.079997 -1.582092
    50 3.859825 -0.148935 -1.331284 -0.549076 -0.024863 -1.454250
    51 1.719425 0.000000 0.000000 -0.002107 0.024342 -1.684730
    52 1.099663 0.000000 0.000000 -0.007967 0.046800 -1.711623
    53 0.806015 -0.359835 -1.318335 1.200555 0.246504 -0.836614
    54 1.789780 0.000001 0.000000 0.046975 0.150711 0.289172
    55 1.207001 0.000000 0.000004 0.215981 -0.000002 0.942472
    56 3.643179 -1.117762 -6.586830 1.677301 0.043060 -2.001890
  time 15
    0 1.610982 -0.335943 37.691891 1.724337 0.014376 0.050749
    1 -0.124999 3.345128 -2.981903 1.567966 0.102068 1.597899
    2 4.018331 0.000000 0.000000 -0.104161 -0.011002 0.164213
    3 3.518564 0.000000 0.000000 -0.043383 -0.025803 0.223021
    4 8.942642 0.000000 0.000000 -0.060135 -0.065328 0.237914
    5 3.307269 0.000000 -0.000004 3.137477 0.001222 0.577187
    6 3.593710 -0.000001 -0.000004 0.036615 -0.132478 1.087175
    7 1.999994 -3.000001 0.000004 -1.570753 -0.000007 -1.326410
    8 2.033349 1.000771 -1.937607 -1.384408 1.273734 -3.061307
    9 6.028143 0.000002 -0.000004 1.689645 -0.224934 -0.757810
    10 11.692545 0.000000 0.000000 -0.000011 0.000000 -1.970190
    11 11.481701 0.000000 0.000000 -0.863078 0.360536 -0.016189
    12 2.676086 -1.712440 0.000000 -1.570792 0.000005 -1.570792
    13 2.033341 1.000767 1.937660 2.412174 -1.487397 2.120583
    14 6.028140 0.000002 0.000000 -1.368589 -0.594553 -1.024115
    15 11.692553 0.000000 0.000011 -0.000013 0.000000 -1.766526
    16 11.481667 0.000000 -0.000031 1.575452 -0.108951 -0.097558
    17 2.676086 -1.712440 0.000004 1.570793 0.000005 1.570793
    18 -3.890452 0.000004 0.000004 -0.843310 -0.616337 -2.025845
    19 17.848171 0.000000 0.000004 0.000009 0.000000 0.913571
    20 16.525251 0.000000 0.000004 -0.051642 -0.103804 -0.922727
    21 6.879454 0.000000 0.000008 -0.081975 -0.002127 -0.472203
    22 3.890452 -0.000004 -0.000004 -1.809278 -0.011889 -1.190346
    23 17.848175 0.000000 -0.000004 0.000010 0.000000 0.445059
    24 16.525246 0.000000 0.000004 0.029642 0.381119 -0.801024
    25 6.879452 0.000000 0.000000 -0.003835 -0.003136 -1.034363
    26 3.859703 -0.142403 -1.191975 -0.568914 -0.013600 -1.526846
    27 1.312565 0.000001 0.000004 -0.086569 0.239740 -1.554310
    28 0.729362 0.000002 0.000004 -0.176890 0.315566 -1.429227
    29 3.942326 0.046774 -0.431438 0.030302 -0.060016 -1.757025
    30 1.539093 0.000001 0.000000 -0.058651 0.149388 -1.571890
    31 1.196320 -0.000001 0.000004 -0.107662 0.188362 -1.488327
    32 3.883686 -0.046767 0.431446 0.134425 0.056053 -1.771010
    33 1.719570 0.000002 0.000004 -0.030677 0.057167 -1.750736
    34 1.209183 -0.000001 -0.000004 -0.034252 0.059379 -1.537043
    35 3.859859 -0.137950 1.332462 0.524231 -0.087929 -1.819390
    36 1.719429 0.000002 0.000000 0.072023 -0.125294 -1.808387
    37 1.099670 0.000001 0.000004 0.072020 -0.125295 -0.669563
    38 0.806049 -0.348922 1.321259 -0.786557 -0.413955 -0.992027
    39 1.789787 0.000000 0.000004 0.004364 0.030238 0.718398
    40 1.207001 0.000000 -0.000004 0.102534 0.030239 0.502412
    41 3.859665 -0.132565 1.193108 0.693436 -0.009816 -1.600821
    42 1.312561 0.000000 0.000000 0.110761 -0.297055 -1.436131
    43 0.729366 0.000002 0.000000 0.157645 -0.341689 -1.408420
    44 3.942291 0.050330 0.431042 0.331344 -0.008610 -1.603851
    45 1.539097 0.000003 0.000000 0.050214 -0.153911 -1.591790
    46 1.196320 0.000000 0.000000 0.132539 -0.225789 -1.824936
    47 3.883648 -0.050325 -0.431044 -0.022374 -0.010304 -1.305812
    48 1.719574 -0.000005 0.000000 0.038733 -0.074557 -1.586292
    49 1.209183 -0.000001 0.000000 0.047506 -0.079997 -1.582092
    50 3.859825 -0.148935 -1.331284 -0.549076 -0.024863 -1.454250
    51 1.719425 0.000000 0.000000 -0.002107 0.024342 -1.684730
    52 1.099663 0.000000 0.000000 -0.007967 0.046800 -1.711623
    53 0.806015 -0.359835 -1.318335 1.200555 0.246504 -0.836614
    54 1.789780 0.000001 0.000000 0.046975 0.150711 0.289172
    55 1.207001 0.000000 0.000004 0.215981 -0.000002 0.942472
    56 3.643179 -1.117762 -6.586830 1.677301 0.043048 -2.001890
  time 16
    0 1.610982 -0.335943 38.066902 1.732179 0.017384 0.050673
    1 -0.124999 3.345128 -2.981903 1.567236 0.102056 1.596365
    2 4.018331 0.000000 0.000000 -0.101394 -0.005309 0.160078
    3 3.518564 0.000000 0.000000 -0.042148 -0.022603 0.213458
    4 8.942642 0.000000 0.000000 -0.060874 -0.070314 0.240280
    5 3.307269 0.000000 -0.000004 3.137477 0.001222 0.577187
    6 3.593710 -0.000001 -0.000004 0.034454 -0.128655 1.086119
    7 1.999994 -3.000001 0.000004 -1.570753 -0.000007 -1.326410
    8 2.033349 1.000771 -1.937607 -1.384408 1.273734 -3.061307
    9 6.028143 0.000002 -0.000004 1.686428 -0.249398 -0.747597
    10 11.692545 0.000000 0.000000 -0.000011 0.000000 -1.973084
    11 11.481701 0.000000 0.000000 -0.864750 0.386640 -0.016630
    12 2.676086 -1.712440 0.000000 -1.570792 0.000005 -1.570792
    13 2.033341 1.000767 1.937660 2.412174 -1.487397 2.120583
    14 6.028140 0.000002 0.000000 -1.350935 -0.638974 -1.049834
    15 11.692553 0.000000 0.000011 -0.000013 0.000000 -1.733026
    16 11.481667 0.000000 -0.000031 1.575452 -0.108951 -0.097558
    17 2.676086 -1.712440 0.000004 1.570793 0.000005 1.570793
    18 -3.890452 0.000004 0.000004 -0.883611 -0.526635 -1.958594
    19 17.848171 0.000000 0.000004 0.000009 0.000000 0.623773
    20 16.525251 0.000000 0.000004 -0.013134 -0.140103 -0.938713
    21 6.879454 0.000000 0.000008 -0.081819 -0.002378 -0.512360
    22 3.890452 -0.000004 -0.000004 -1.778358 -0.042437 -1.218599
    23 17.848175 0.000000 -0.000004 0.000010 0.000000 0.539530
    24 16.525246 0.000000 0.000004 0.068691 0.322675 -0.801446
    25 6.879452 0.000000 0.000000 -0.004291 -0.003112 -0.954839
    26 3.859703 -0.142403 -1.191975 -0.568914 -0.013600 -1.526846
    27 1.312565 0.000001 0.000004 -0.086569 0.239740 -1.554263
    28 0.729362 0.000002 0.000004 -0.176890 0.315566 -1.429270
    29 3.942326 0.046774 -0.431438 0.030302 -0.060016 -1.757025
    30 1.539093 0.000001 0.000000 -0.058651 0.149388 -1.571890
    31 1.196320 -0.000001 0.000004 -0.107662 0.188362 -1.488327
    32 3.883686 -0.046767 0.431446 0.134425 0.056053 -1.771010
    33 1.719570 0.000002 0.000004 -0.030677 0.057167 -1.750736
    34 1.209183 -0.000001 -0.000004 -0.034252 0.059379 -1.537043
    35 3.859859 -0.137950 1.332462 0.524231 -0.087929 -1.819390
    36 1.719429 0.000002 0.000000 0.072023 -0.125294 -1.808387
    37 1.099670 0.000001 0.000004 0.072020 -0.125295 -0.669563
    38 0.806049 -0.348922 1.321259 -0.786557 -0.413955 -0.992027
    39 1.789787 0.000000 0.000004 0.004364 0.030238 0.718398
    40 1.207001 0.000000 -0.000004 0.102534 0.030239 0.502412
    41 3.859665 -0.132565 1.193108 0.693436 -0.009816 -1.600821
    42 1.312561 0.000000 0.000000 0.110761 -0.297055 -1.436131
    43 0.729366 0.000002 0.000000 0.157645 -0.341689 -1.408420
    44 3.942291 0.050330 0.431042 0.331344 -0.008610 -1.603851
    45 1.539097 0.000003 0.000000 0.050214 -0.153911 -1.591790
    46 1.196320 0.000000 0.000000 0.132539 -0.225789 -1.824936
    47 3.883648 -0.050325 -0.431044 -0.022374 -0.010304 -1.305812
    48 1.719574 -0.000005 0.000000 0.038733 -0.074557 -1.586292
    49 1.209183 -0.000001 0.000000 0.047506 -0.079997 -1.582092
    50 3.859825 -0.148935 -1.331284 -0.549076 -0.024863 -1.454250
    51 1.719425 0.000000 0.000000 -0.002107 0.024342 -1.684730
    52 1.099663 0.000000 0.000000 -0.007967 0.046800 -1.711623
    53 0.806015 -0.359835 -1.318335 1.200555 0.246504 -0.836614
    54 1.789780 0.000001 0.000000 0.046975 0.150711 0.289172
    55 1.207001 0.000000 0.000004 0.215981 -0.000002 0.942472
    56 3.643179 -1.117762 -6.586830 1.677301 0.043060 -2.001890
  time 17
    0 1.610982 -0.335943 37.551261 1.743886 0.020704 0.033487
    1 -0.128905 3.345128 -2.981903 1.567528 0.102068 1.597156
    2 4.018331 0.000000 0.000000 -0.096122 0.007095 0.157130
    3 3.518564 0.000000 0.000000 -0.038277 -0.017689 0.207345
    4 8.942642 0.000000 0.000000 -0.056121 -0.077217 0.241710
    5 3.307269 0.000000 -0.000004 3.137477 0.001222 0.577187
    6 3.593710 -0.000001 -0.000004 0.027511 -0.114345 1.085309
    7 1.999994 -3.000001 0.000004 -1.570753 -0.000007 -1.326410
    8 2.033349 1.000771 -1.937607 -1.384408 1.273734 -3.061307
    9 6.028143 0.000002 -0.000004 1.685142 -0.210392 -0.724238
    10 11.692545 0.000000 0.000000 -0.000011 0.000000 -1.978083
    11 11.481701 0.000000 0.000000 -0.864858 0.388604 -0.016679
    12 2.676086 -1.712440 0.000000 -1.570792 0.000005 -1.570792
    13 2.033341 1.000767 1.937660 2.412174 -1.487397 2.120583
    14 6.028140 0.000002 0.000000 -1.363620 -0.589224 -1.042848
    15 11.692553 0.000000 0.000011 -0.000013 0.000000 -1.774848
    16 11.481667 0.000000 -0.000031 1.575452 -0.108951 -0.097558
    17 2.676086 -1.712440 0.000004 1.570793 0.000005 1.570793
    18 -3.890452 0.000004 0.000004 -0.897418 -0.531028 -1.959233
    19 17.848171 0.000000 0.000004 0.000009 0.000000 0.551043
    20 16.525251 0.000000 0.000004 -0.000405 -0.161557 -0.878236
    21 6.879454 0.000000 0.000008 -0.080597 -0.002606 -0.639060
    22 3.890452 -0.000004 -0.000004 -1.751925 -0.159412 -1.248159
    23 17.848175 0.000000 -0.000004 0.000010 0.000000 0.815619
    24 16.525246 0.000000 0.000004 0.083113 0.244466 -0.919437
    25 6.879452 0.000000 0.000000 -0.004986 -0.003076 -0.845678
    26 3.859703 -0.142403 -1.191975 -0.568914 -0.013600 -1.526846
    27 1.312565 0.000001 0.000004 -0.086569 0.239740 -1.554263
    28 0.729362 0.000002 0.000004 -0.176890 0.315566 -1.429227
    29 3.942326 0.046774 -0.431438 0.030302 -0.060016 -1.757025
    30 1.539093 0.000001 0.000000 -0.058651 0.149388 -1.571890
    31 1.196320 -0.000001 0.000004 -0.107662 0.188362 -1.488327
    32 3.883686 -0.046767 0.431446 0.134425 0.056053 -1.771010
    33 1.719570 0.000002 0.000004 -0.030677 0.057167 -1.750736
    34 1.209183 -0.000001 -0.000004 -0.034252 0.059379 -1.537043
    35 3.859859 -0.137950 1.332462 0.524231 -0.087929 -1.819390
    36 1.719429 0.000002 0.000000 0.072023 -0.125294 -1.808387
    37 1.099670 0.000001 0.000004 0.072020 -0.125295 -0.669563
    38 0.806049 -0.348922 1.321259 -0.786557 -0.413955 -0.992027
    39 1.789787 0.000000 0.000004 0.004364 0.030238 0.718398
    40 1.207001 0.000000 -0.000004 0.102534 0.030239 0.502412
    41 3.859665 -0.132565 1.193108 0.693436 -0.009816 -1.600821
    42 1.312561 0.000000 0.000000 0.110761 -0.297055 -1.436131
    43 0.729366 0.000002 0.000000 0.157645 -0.341689 -1.408420
    44 3.942291 0.050330 0.431042 0.331344 -0.008610 -1.603851
    45 1.539097 0.000003 0.000000 0.050214 -0.153911 -1.591790
    46 1.196320 0.000000 0.000000 0.132539 -0.225789 -1.824936
    47 3.883648 -0.050325 -0.431044 -0.022374 -0.010304 -1.305812
    48 1.719574 -0.000005 0.000000 0.038733 -0.074557 -1.586292
    49 1.209183 -0.000001 0.000000 0.047506 -0.079997 -1.582092
    50 3.859825 -0.148935 -1.331284 -0.549076 -0.024863 -1.454250
    51 1.719425 0.000000 0.000000 -0.002107 0.024342 -1.684730
    52 1.099663 0.000000 0.000000 -0.007967 0.046800 -1.711623
    53 0.806015 -0.359835 -1.318335 1.200555 0.246504 -0.836614
    54 1.789780 0.000001 0.000000 0.046975 0.150711 0.289172
    55 1.207001 0.000000 0.000004 0.215981 -0.000002 0.942472
    56 3.643179 -1.117762 -6.586830 1.677301 0.043060 -2.001890
  time 18
    0 1.610982 -0.335943 36.660609 1.760386 0.024336 0.002976
    1 -0.124999 3.345128 -2.981903 1.568551 0.102068 1.599581
    2 4.018331 0.000000 0.000000 -0.088381 0.022915 0.157358
    3 3.518564 0.000000 0.000000 -0.032057 -0.011170 0.206782
    4 8.942642 0.000000 0.000000 -0.046577 -0.085582 0.242785
    5 3.307269 0.000000 -0.000004 3.137477 0.001222 0.577187
    6 3.593710 -0.000001 -0.000004 0.017488 -0.093779 1.084606
    7 1.999994 -3.000001 0.000004 -1.570753 -0.000007 -1.326410
    8 2.033349 1.000771 -1.937607 -1.384408 1.273734 -3.061307
    9 6.028143 0.000002 -0.000004 1.690564 -0.113112 -0.692398
    10 11.692545 0.000000 0.000000 -0.000011 0.000000 -1.978214
    11 11.481701 0.000000 0.000000 -0.863779 0.371655 -0.016385
    12 2.676086 -1.712440 0.000000 -1.570792 0.000005 -1.570792
    13 2.033341 1.000767 1.937660 2.412174 -1.487397 2.120583
    14 6.028140 0.000002 0.000000 -1.381100 -0.475389 -1.042653
    15 11.692553 0.000000 0.000011 -0.000013 0.000000 -1.856744
    16 11.481667 0.000000 -0.000031 1.575452 -0.108951 -0.097558
    17 2.676086 -1.712440 0.000004 1.570793 0.000005 1.570793
    18 -3.890452 0.000004 0.000004 -0.930874 -0.534422 -1.936986
    19 17.848171 0.000000 0.000004 0.000009 0.000000 0.558293
    20 16.525251 0.000000 0.000004 0.025744 -0.175319 -1.011607
    21 6.879454 0.000000 0.000008 -0.080860 -0.002726 -0.631082
    22 3.890452 -0.000004 -0.000004 -1.721331 -0.293343 -1.302947
    23 17.848175 0.000000 -0.000004 0.000010 0.000000 1.101536
    24 16.525246 0.000000 0.000004 0.071824 0.144159 -1.043155
    25 6.879452 0.000000 0.000000 -0.005897 -0.003016 -0.725939
    26 3.859703 -0.142403 -1.191975 -0.568914 -0.013600 -1.526846
    27 1.312565 0.000001 0.000004 -0.086569 0.239740 -1.554263
    28 0.729362 0.000002 0.000004 -0.176890 0.315566 -1.429270
    29 3.942326 0.046774 -0.431438 0.030302 -0.060016 -1.757025
    30 1.539093 0.000001 0.000000 -0.058651 0.149388 -1.571890
    31 1.196320 -0.000001 0.000004 -0.107662 0.188362 -1.488327
    32 3.883686 -0.046767 0.431446 0.134425 0.056053 -1.771010
    33 1.719570 0.000002 0.000004 -0.030677 0.057167 -1.750736
    34 1.209183 -0.000001 -0.000004 -0.034252 0.059379 -1.537043
    35 3.859859 -0.137950 1.332462 0.524231 -0.087929 -1.819390
    36 1.719429 0.000002 0.000000 0.072023 -0.125294 -1.808387
    37 1.099670 0.000001 0.000004 0.072020 -0.125295 -0.669563
    38 0.806049 -0.348922 1.321259 -0.786557 -0.413955 -0.992027
    39 1.789787 0.000000 0.000004 0.004364 0.030238 0.718398
    40 1.207001 0.000000 -0.000004 0.102534 0.030239 0.502412
    41 3.859665 -0.132565 1.193108 0.693436 -0.009816 -1.600821
    42 1.312561 0.000000 0.000000 0.110761 -0.297055 -1.436131
    43 0.729366 0.000002 0.000000 0.157645 -0.341689 -1.408420
    44 3.942291 0.050330 0.431042 0.331344 -0.008610 -1.603851
    45 1.539097 0.000003 0.000000 0.050214 -0.153911 -1.591790
    46 1.196320 0.000000 0.000000 0.132539 -0.225789 -1.824936
    47 3.883648 -0.050325 -0.431044 -0.022374 -0.010304 -1.305812
    48 1.719574 -0.000005 0.000000 0.038733 -0.074557 -1.586292
    49 1.209183 -0.000001 0.000000 0.047506 -0.079997 -1.582092
    50 3.859825 -0.148935 -1.331284 -0.549076 -0.024863 -1.454250
    51 1.719425 0.000000 0.000000 -0.002107 0.024342 -1.684730
    52 1.099663 0.000000 0.000000 -0.007967 0.046800 -1.711623
    53 0.806015 -0.359835 -1.318335 1.200555 0.246504 -0.836614
    54 1.789780 0.000001 0.000000 0.046975 0.150711 0.289172
    55 1.207001 0.000000 0.000004 0.215981 -0.000002 0.942472
    56 3.643179 -1.117762 -6.586830 1.677301 0.043048 -2.001890
  time 19
    0 1.610982 -0.335943 36.168407 1.771767 0.028171 -0.033895
    1 -0.124999 3.345128 -2.981903 1.570060 0.102068 1.602944
    2 4.018331 0.000000 0.000000 -0.079015 0.034971 0.162199
    3 3.518564 0.000000 0.000000 -0.024507 -0.003691 0.223081
    4 8.942642 0.000000 0.000000 -0.034255 -0.094594 0.243631
    5 3.307269 0.000000 -0.000004 3.137477 0.001222 0.577187
    6 3.593710 -0.000001 -0.000004 0.005947 -0.070146 1.083832
    7 1.999994 -3.000001 0.000004 -1.570753 -0.000007 -1.326410
    8 2.033349 1.000771 -1.937607 -1.384408 1.273734 -3.061307
    9 6.028143 0.000002 -0.000004 1.706830 0.026034 -0.657801
    10 11.692545 0.000000 0.000000 -0.000011 0.000000 -1.963876
    11 11.481701 0.000000 0.000000 -0.862430 0.351381 -0.016042
    12 2.676086 -1.712440 0.000000 -1.570792 0.000005 -1.570792
    13 2.033341 1.000767 1.937660 2.412174 -1.487397 2.120583
    14 6.028140 0.000002 0.000000 -1.398346 -0.330186 -1.042302
    15 11.692553 0.000000 0.000011 -0.000013 0.000000 -1.937730
    16 11.481667 0.000000 -0.000031 1.575391 -0.108951 -0.097558
    17 2.676086 -1.712440 0.000004 1.570793 0.000005 1.570793
    18 -3.890452 0.000004 0.000004 -0.992357 -0.535934 -1.855096
    19 17.848171 0.000000 0.000004 0.000009 0.000000 0.734325
    20 16.525251 0.000000 0.000004 0.010769 -0.148424 -1.291067
    21 6.879454 0.000000 0.000008 -0.081388 -0.002822 -0.596700
    22 3.890452 -0.000004 -0.000004 -1.670586 -0.419238 -1.394307
    23 17.848175 0.000000 -0.000004 0.000010 0.000000 1.324786
    24 16.525246 0.000000 0.000004 0.030784 0.023853 -1.103447
    25 6.879452 0.000000 0.000000 -0.006975 -0.002956 -0.614720
    26 3.859703 -0.142403 -1.191975 -0.568914 -0.013600 -1.526846
    27 1.312565 0.000001 0.000004 -0.086569 0.239740 -1.554263
    28 0.729362 0.000002 0.000004 -0.176890 0.315566 -1.429227
    29 3.942326 0.046774 -0.431438 0.030302 -0.060016 -1.757025
    30 1.539093 0.000001 0.000000 -0.058651 0.149388 -1.571890
    31 1.196320 -0.000001 0.000004 -0.107662 0.188362 -1.488372
    32 3.883686 -0.046767 0.431446 0.134425 0.056053 -1.771010
    33 1.719570 0.000002 0.000004 -0.030677 0.057167 -1.750736
    34 1.209183 -0.000001 -0.000004 -0.034252 0.059379 -1.537043
    35 3.859859 -0.137950 1.332462 0.524231 -0.087929 -1.819390
    36 1.719429 0.000002 0.000000 0.072023 -0.125294 -1.808387
    37 1.099670 0.000001 0.000004 0.072020 -0.125295 -0.669563
    38 0.806049 -0.348922 1.321259 -0.786557 -0.413955 -0.992027
    39 1.789787 0.000000 0.000004 0.004364 0.030238 0.718398
    40 1.207001 0.000000 -0.000004 0.102534 0.030239 0.502412
    41 3.859665 -0.132565 1.193108 0.693436 -0.009816 -1.600821
    42 1.312561 0.000000 0.000000 0.110761 -0.297055 -1.436131
    43 0.729366 0.000002 0.000000 0.157645 -0.341689 -1.408420
    44 3.942291 0.050330 0.431042 0.331344 -0.008610 -1.603851
    45 1.539097 0.000003 0.000000 0.050214 -0.153911 -1.591790
    46 1.196320 0.000000 0.000000 0.132539 -0.225789 -1.824936
    47 3.883648 -0.050325 -0.431044 -0.022374 -0.010304 -1.305812
    48 1.719574 -0.000005 0.000000 0.038733 -0.074557 -1.586292
    49 1.209183 -0.000001 0.000000 0.047506 -0.079997 -1.582092
    50 3.859825 -0.148935 -1.331284 -0.549076 -0.024863 -1.454250
    51 1.719425 0.000000 0.000000 -0.002107 0.024342 -1.684730
    52 1.099663 0.000000 0.000000 -0.007967 0.046800 -1.711623
    53 0.806015 -0.359835 -1.318335 1.200555 0.246504 -0.836614
    54 1.789780 0.000001 0.000000 0.046975 0.150711 0.289172
    55 1.207001 0.000000 0.000004 0.215981 -0.000002 0.942472
    56 3.643179 -1.117762 -6.586830 1.677301 0.043060 -2.001890
  time 20
    0 1.610982 -0.335943 35.742612 1.768282 0.032197 -0.072961
    1 -0.124999 3.345128 -2.981903 1.571521 0.102068 1.606556
    2 4.018331 0.000000 0.000000 -0.069255 0.046356 0.169055
    3 3.518564 0.000000 0.000000 -0.016645 0.003979 0.244689
    4 8.942642 0.000000 0.000000 -0.021117 -0.103487 0.244399
    5 3.307269 0.000000 -0.000004 3.137477 0.001222 0.577187
    6 3.593710 -0.000001 -0.000004 -0.004537 -0.051462 1.082917
    7 1.999994 -3.000001 0.000004 -1.570753 -0.000007 -1.326410
    8 2.033349 1.000771 -1.937607 -1.384408 1.273734 -3.061307
    9 6.028143 0.000002 -0.000004 1.722545 0.167603 -0.613874
    10 11.692545 0.000000 0.000000 -0.000011 0.000000 -1.931780
    11 11.481701 0.000000 0.000000 -0.860920 0.326924 -0.015649
    12 2.676086 -1.712440 0.000000 -1.570792 0.000005 -1.570792
    13 2.033341 1.000767 1.937660 2.412174 -1.487397 2.120583
    14 6.028140 0.000002 0.000000 -1.405068 -0.168995 -1.049170
    15 11.692553 0.000000 0.000011 -0.000013 0.000000 -1.988294
    16 11.481667 0.000000 -0.000031 1.575391 -0.108951 -0.097558
    17 2.676086 -1.712440 0.000004 1.570793 0.000005 1.570793
    18 -3.890452 0.000004 0.000004 -1.074610 -0.482483 -1.745205
    19 17.848171 0.000000 0.000004 0.000009 0.000000 0.820061
    20 16.525251 0.000000 0.000004 -0.016511 -0.120462 -1.465961
    21 6.879454 0.000000 0.000008 -0.081340 -0.002882 -0.608249
    22 3.890452 -0.000004 -0.000004 -1.613885 -0.564404 -1.499690
    23 17.848175 0.000000 -0.000004 0.000010 0.000000 1.543215
    24 16.525246 0.000000 0.000004 -0.031544 -0.086743 -1.109958
    25 6.879452 0.000000 0.000000 -0.007431 -0.003028 -0.584342
    26 3.859703 -0.142403 -1.191975 -0.568914 -0.013600 -1.526846
    27 1.312565 0.000001 0.000004 -0.086569 0.239740 -1.554263
    28 0.729362 0.000002 0.000004 -0.176890 0.315566 -1.429227
    29 3.942326 0.046774 -0.431438 0.030302 -0.060016 -1.757025
    30 1.539093 0.000001 0.000000 -0.058651 0.149388 -1.571890
    31 1.196320 -0.000001 0.000004 -0.107662 0.188362 -1.488327
    32 3.883686 -0.046767 0.431446 0.134425 0.056053 -1.771010
    33 1.719570 0.000002 0.000004 -0.030677 0.057167 -1.750736
    34 1.209183 -0.000001 -0.000004 -0.034252 0.059379 -1.537043
    35 3.859859 -0.137950 1.332462 0.524231 -0.087929 -1.819390
    36 1.719429 0.000002 0.000000 0.072023 -0.125294 -1.808387
    37 1.099670 0.000001 0.000004 0.072020 -0.125295 -0.669563
    38 0.806049 -0.348922 1.321259 -0.786557 -0.413955 -0.992027
    39 1.789787 0.000000 0.000004 0.004364 0.030238 0.718398
    40 1.207001 0.000000 -0.000004 0.102534 0.030239 0.502412
    41 3.859665 -0.132565 1.193108 0.693436 -0.009816 -1.600821
    42 1.312561 0.000000 0.000000 0.110761 -0.297055 -1.436131
    43 0.729366 0.000002 0.000000 0.157645 -0.341689 -1.408420
    44 3.942291 0.050330 0.431042 0.331344 -0.008610 -1.603851
    45 1.539097 0.000003 0.000000 0.050214 -0.153911 -1.591790
    46 1.196320 0.000000 0.000000 0.132539 -0.225789 -1.824936
    47 3.883648 -0.050325 -0.431044 -0.022374 -0.010304 -1.305812
    48 1.719574 -0.000005 0.000000 0.038733 -0.074557 -1.586292
    49 1.209183 -0.000001 0.000000 0.047506 -0.079997 -1.582092
    50 3.859825 -0.148935 -1.331284 -0.549076 -0.024863 -1.454250
    51 1.719425 0.000000 0.000000 -0.002107 0.024342 -1.684730
    52 1.099663 0.000000 0.000000 -0.007967 0.046800 -1.711623
    53 0.806015 -0.359835 -1.318335 1.200555 0.246504 -0.836614
    54 1.789780 0.000001 0.000000 0.046975 0.150711 0.289172
    55 1.207001 0.000000 0.000004 0.215981 -0.000002 0.942472
    56 3.643179 -1.117762 -6.586830 1.677301 0.043048 -2.001890
end
