// Created by Crowbar 0.71
version 1
nodes
  0 "ValveBiped.Bip01_Pelvis" -1
  1 "ValveBiped.Bip01_Spine" 0
  2 "ValveBiped.Bip01_Spine1" 1
  3 "ValveBiped.Bip01_Spine2" 2
  4 "ValveBiped.Bip01_Spine4" 3
  5 "ValveBiped.Bip01_Neck1" 4
  6 "ValveBiped.Bip01_Head1" 5
  7 "ValveBiped.forward" 6
  8 "ValveBiped.Bip01_R_Clavicle" 4
  9 "ValveBiped.Bip01_R_UpperArm" 8
  10 "ValveBiped.Bip01_R_Forearm" 9
  11 "ValveBiped.Bip01_R_Hand" 10
  12 "ValveBiped.Anim_Attachment_RH" 11
  13 "ValveBiped.Bip01_L_Clavicle" 4
  14 "ValveBiped.Bip01_L_UpperArm" 13
  15 "ValveBiped.Bip01_L_Forearm" 14
  16 "ValveBiped.Bip01_L_Hand" 15
  17 "ValveBiped.Anim_Attachment_LH" 16
  18 "ValveBiped.Bip01_R_Thigh" 0
  19 "ValveBiped.Bip01_R_Calf" 18
  20 "ValveBiped.Bip01_R_Foot" 19
  21 "ValveBiped.Bip01_R_Toe0" 20
  22 "ValveBiped.Bip01_L_Thigh" 0
  23 "ValveBiped.Bip01_L_Calf" 22
  24 "ValveBiped.Bip01_L_Foot" 23
  25 "ValveBiped.Bip01_L_Toe0" 24
  26 "ValveBiped.Bip01_L_Finger4" 16
  27 "ValveBiped.Bip01_L_Finger41" 26
  28 "ValveBiped.Bip01_L_Finger42" 27
  29 "ValveBiped.Bip01_L_Finger3" 16
  30 "ValveBiped.Bip01_L_Finger31" 29
  31 "ValveBiped.Bip01_L_Finger32" 30
  32 "ValveBiped.Bip01_L_Finger2" 16
  33 "ValveBiped.Bip01_L_Finger21" 32
  34 "ValveBiped.Bip01_L_Finger22" 33
  35 "ValveBiped.Bip01_L_Finger1" 16
  36 "ValveBiped.Bip01_L_Finger11" 35
  37 "ValveBiped.Bip01_L_Finger12" 36
  38 "ValveBiped.Bip01_L_Finger0" 16
  39 "ValveBiped.Bip01_L_Finger01" 38
  40 "ValveBiped.Bip01_L_Finger02" 39
  41 "ValveBiped.Bip01_R_Finger4" 11
  42 "ValveBiped.Bip01_R_Finger41" 41
  43 "ValveBiped.Bip01_R_Finger42" 42
  44 "ValveBiped.Bip01_R_Finger3" 11
  45 "ValveBiped.Bip01_R_Finger31" 44
  46 "ValveBiped.Bip01_R_Finger32" 45
  47 "ValveBiped.Bip01_R_Finger2" 11
  48 "ValveBiped.Bip01_R_Finger21" 47
  49 "ValveBiped.Bip01_R_Finger22" 48
  50 "ValveBiped.Bip01_R_Finger1" 11
  51 "ValveBiped.Bip01_R_Finger11" 50
  52 "ValveBiped.Bip01_R_Finger12" 51
  53 "ValveBiped.Bip01_R_Finger0" 11
  54 "ValveBiped.Bip01_R_Finger01" 53
  55 "ValveBiped.Bip01_R_Finger02" 54
  56 "ValveBiped.baton_parent" 11
end
skeleton
  time 0
    0 1.610982 -0.335943 35.547294 1.701031 0.028494 0.168325
    1 -0.124999 3.345128 -2.981903 1.571569 0.102080 1.607248
    2 4.018331 0.000000 0.000000 -0.098010 -0.012021 0.168276
    3 3.518564 0.000000 0.000000 -0.033927 -0.008605 0.224891
    4 8.942642 0.000000 0.000000 -0.038791 -0.068204 0.234686
    5 3.307269 0.000000 -0.000004 3.137477 0.001222 0.577187
    6 3.593710 -0.000001 -0.000004 0.040156 -0.117437 1.080348
    7 1.999994 -3.000001 0.000004 -1.570793 0.000002 -1.326448
    8 2.033349 1.000771 -1.937607 -1.379634 1.273471 -3.056351
    9 6.028143 0.000002 -0.000004 1.597285 0.417856 -0.768235
    10 11.692545 0.000000 0.000000 -0.000011 0.000000 -1.780834
    11 11.481701 0.000000 0.000000 -0.860866 0.326196 -0.015649
    12 2.676086 -1.712440 0.000000 -1.570793 0.000003 -1.570792
    13 2.033341 1.000767 1.937660 2.412174 -1.487397 2.120583
    14 6.028140 0.000002 0.000000 -1.363445 0.471889 -0.874957
    15 11.692553 0.000000 0.000011 -0.000013 0.000000 -1.818559
    16 11.481667 0.000000 -0.000031 1.575391 -0.108951 -0.097558
    17 2.676086 -1.712440 0.000004 1.570793 0.000005 1.570793
    18 -3.890452 0.000004 0.000004 -1.327152 -0.337478 -1.436244
    19 17.848171 0.000000 0.000004 0.000009 0.000000 0.732681
    20 16.525251 0.000000 0.000004 -0.052791 0.186304 -1.550216
    21 6.879454 0.000000 0.000008 -0.081352 -0.002714 -0.587620
    22 3.890452 -0.000004 -0.000004 -1.926677 -0.648643 -1.369078
    23 17.848175 0.000000 -0.000004 0.000010 0.000000 1.626667
    24 16.525246 0.000000 0.000004 0.213685 0.014052 -1.325320
    25 6.879452 0.000000 0.000000 -0.007479 -0.002860 -0.560715
    26 3.859703 -0.142403 -1.191975 -0.568926 -0.013610 -1.526889
    27 1.312565 0.000001 0.000004 -0.086569 0.239740 -1.554263
    28 0.729362 0.000002 0.000004 -0.176890 0.315566 -1.429227
    29 3.942326 0.046774 -0.431438 0.030304 -0.060024 -1.757047
    30 1.539093 0.000001 0.000000 -0.058663 0.149388 -1.571890
    31 1.196320 -0.000001 0.000004 -0.107662 0.188362 -1.488327
    32 3.883686 -0.046767 0.431446 0.134425 0.056053 -1.771010
    33 1.719570 0.000002 0.000004 -0.030687 0.057172 -1.750786
    34 1.209183 -0.000001 -0.000004 -0.034252 0.059379 -1.537043
    35 3.859859 -0.137950 1.332462 0.524258 -0.087937 -1.819439
    36 1.719429 0.000002 0.000000 0.072020 -0.125287 -1.808335
    37 1.099670 0.000001 0.000004 0.072020 -0.125295 -0.669563
    38 0.806049 -0.348922 1.321259 -0.786547 -0.413953 -0.991999
    39 1.789787 0.000000 0.000004 0.004360 0.030237 0.718378
    40 1.207001 0.000000 -0.000004 0.102533 0.030240 0.502412
    41 3.859665 -0.132565 1.193108 0.693418 -0.009806 -1.600810
    42 1.312561 0.000000 0.000000 0.110761 -0.297055 -1.436131
    43 0.729366 0.000002 0.000000 0.157643 -0.341690 -1.408450
    44 3.942291 0.050330 0.431042 0.331339 -0.008608 -1.603808
    45 1.539097 0.000003 0.000000 0.050214 -0.153911 -1.591790
    46 1.196320 0.000000 0.000000 0.132537 -0.225779 -1.824896
    47 3.883648 -0.050325 -0.431044 -0.022374 -0.010304 -1.305812
    48 1.719574 -0.000005 0.000000 0.038733 -0.074557 -1.586292
    49 1.209183 -0.000001 0.000000 0.047516 -0.080001 -1.582137
    50 3.859825 -0.148935 -1.331284 -0.549062 -0.024858 -1.454209
    51 1.719425 0.000000 0.000000 -0.002107 0.024342 -1.684730
    52 1.099663 0.000000 0.000000 -0.007967 0.046800 -1.711623
    53 0.806015 -0.359835 -1.318335 1.200555 0.246503 -0.836612
    54 1.789780 0.000001 0.000000 0.046975 0.150711 0.289172
    55 1.207001 0.000000 0.000004 0.215983 -0.000003 0.942472
    56 3.643179 -1.117762 -6.586830 1.677301 0.043060 -2.001890
  time 1
    0 1.610982 -0.335943 35.320725 1.695204 0.034355 0.150458
    1 -0.124999 3.345128 -2.981903 1.570790 0.102080 1.604676
    2 4.018331 0.000000 0.000000 -0.099543 -0.011373 0.168935
    3 3.518564 0.000000 0.000000 -0.035880 -0.009168 0.229265
    4 8.942642 0.000000 0.000000 -0.045290 -0.069079 0.234733
    5 3.307269 0.000000 -0.000004 3.137477 0.001222 0.577187
    6 3.593710 -0.000001 -0.000004 0.058226 -0.116910 1.072289
    7 1.999994 -3.000001 0.000004 -1.570793 0.000002 -1.326448
    8 2.033349 1.000771 -1.937607 -1.389560 1.273993 -3.066662
    9 6.028143 0.000002 -0.000004 1.580834 0.365197 -0.752085
    10 11.692545 0.000000 0.000000 -0.000011 0.000000 -1.812141
    11 11.481701 0.000000 0.000000 -0.859193 0.299934 -0.015306
    12 2.676086 -1.712440 0.000000 -1.570793 0.000003 -1.570792
    13 2.033341 1.000767 1.937660 2.412174 -1.487397 2.120583
    14 6.028140 0.000002 0.000000 -1.392500 0.451652 -0.896928
    15 11.692553 0.000000 0.000011 -0.000013 0.000000 -1.854086
    16 11.481667 0.000000 -0.000031 1.575391 -0.108951 -0.097558
    17 2.676086 -1.712440 0.000004 1.570793 0.000005 1.570793
    18 -3.890452 0.000004 0.000004 -1.248793 -0.180379 -1.539551
    19 17.848171 0.000000 0.000004 0.000009 0.000000 0.695008
    20 16.525251 0.000000 0.000004 0.028096 0.062872 -1.646587
    21 6.879454 0.000000 0.000008 -0.081496 -0.002750 -0.579642
    22 3.890452 -0.000004 -0.000004 -1.890209 -0.701492 -1.356636
    23 17.848175 0.000000 -0.000004 0.000010 0.000000 1.685892
    24 16.525246 0.000000 0.000004 0.274374 -0.133813 -1.415577
    25 6.879452 0.000000 0.000000 -0.007742 -0.003231 -0.584342
    26 3.859703 -0.142403 -1.191975 -0.568926 -0.013610 -1.526889
    27 1.312565 0.000001 0.000004 -0.086569 0.239740 -1.554263
    28 0.729362 0.000002 0.000004 -0.176890 0.315566 -1.429227
    29 3.942326 0.046774 -0.431438 0.030304 -0.060024 -1.757047
    30 1.539093 0.000001 0.000000 -0.058651 0.149388 -1.571890
    31 1.196320 -0.000001 0.000004 -0.107662 0.188362 -1.488327
    32 3.883686 -0.046767 0.431446 0.134425 0.056053 -1.771010
    33 1.719570 0.000002 0.000004 -0.030687 0.057172 -1.750786
    34 1.209183 -0.000001 -0.000004 -0.034252 0.059379 -1.537043
    35 3.859859 -0.137950 1.332462 0.524258 -0.087937 -1.819439
    36 1.719429 0.000002 0.000000 0.072020 -0.125287 -1.808335
    37 1.099670 0.000001 0.000004 0.072020 -0.125295 -0.669563
    38 0.806049 -0.348922 1.321259 -0.786547 -0.413953 -0.991999
    39 1.789787 0.000000 0.000004 0.004360 0.030237 0.718378
    40 1.207001 0.000000 -0.000004 0.102533 0.030240 0.502412
    41 3.859665 -0.132565 1.193108 0.693418 -0.009806 -1.600810
    42 1.312561 0.000000 0.000000 0.110761 -0.297055 -1.436131
    43 0.729366 0.000002 0.000000 0.157643 -0.341690 -1.408450
    44 3.942291 0.050330 0.431042 0.331339 -0.008608 -1.603808
    45 1.539097 0.000003 0.000000 0.050214 -0.153911 -1.591790
    46 1.196320 0.000000 0.000000 0.132537 -0.225779 -1.824896
    47 3.883648 -0.050325 -0.431044 -0.022374 -0.010304 -1.305812
    48 1.719574 -0.000005 0.000000 0.038733 -0.074557 -1.586292
    49 1.209183 -0.000001 0.000000 0.047516 -0.080001 -1.582137
    50 3.859825 -0.148935 -1.331284 -0.549062 -0.024858 -1.454209
    51 1.719425 0.000000 0.000000 -0.002107 0.024342 -1.684730
    52 1.099663 0.000000 0.000000 -0.007967 0.046800 -1.711623
    53 0.806015 -0.359835 -1.318335 1.200555 0.246503 -0.836612
    54 1.789780 0.000001 0.000000 0.046975 0.150711 0.289172
    55 1.207001 0.000000 0.000004 0.215983 -0.000003 0.942472
    56 3.643179 -1.117762 -6.586830 1.677301 0.043048 -2.001890
  time 2
    0 1.610982 -0.335943 35.719174 1.698363 0.040539 0.121007
    1 -0.124999 3.345128 -2.981903 1.570060 0.102080 1.602598
    2 4.018331 0.000000 0.000000 -0.098945 -0.007347 0.168228
    3 3.518564 0.000000 0.000000 -0.035988 -0.008857 0.232621
    4 8.942642 0.000000 0.000000 -0.048807 -0.071943 0.235532
    5 3.307269 0.000000 -0.000004 3.137477 0.001222 0.577187
    6 3.593710 -0.000001 -0.000004 0.064157 -0.115352 1.072360
    7 1.999994 -3.000001 0.000004 -1.570793 0.000002 -1.326448
    8 2.033349 1.000771 -1.937607 -1.390951 1.274033 -3.068094
    9 6.028143 0.000002 -0.000004 1.569714 0.303017 -0.722895
    10 11.692545 0.000000 0.000000 -0.000011 0.000000 -1.848842
    11 11.481701 0.000000 0.000000 -0.857952 0.279025 -0.015061
    12 2.676086 -1.712440 0.000000 -1.570793 0.000003 -1.570792
    13 2.033341 1.000767 1.937660 2.412174 -1.487397 2.120583
    14 6.028140 0.000002 0.000000 -1.430966 0.394481 -0.929398
    15 11.692553 0.000000 0.000011 -0.000013 0.000000 -1.903601
    16 11.481667 0.000000 -0.000031 1.575452 -0.108951 -0.097558
    17 2.676086 -1.712440 0.000004 1.570793 0.000005 1.570793
    18 -3.890452 0.000004 0.000004 -1.268265 -0.021711 -1.611277
    19 17.848171 0.000000 0.000004 0.000009 0.000000 0.547380
    20 16.525251 0.000000 0.000004 0.130199 -0.016598 -1.521964
    21 6.879454 0.000000 0.000008 -0.080537 -0.002774 -0.666261
    22 3.890452 -0.000004 -0.000004 -1.985744 -0.745210 -1.237435
    23 17.848175 0.000000 -0.000004 0.000010 0.000000 1.621972
    24 16.525246 0.000000 0.000004 0.271621 -0.120721 -1.168441
    25 6.879452 0.000000 0.000000 -0.007503 -0.002896 -0.563062
    26 3.859703 -0.142403 -1.191975 -0.568926 -0.013610 -1.526889
    27 1.312565 0.000001 0.000004 -0.086569 0.239740 -1.554263
    28 0.729362 0.000002 0.000004 -0.176890 0.315566 -1.429270
    29 3.942326 0.046774 -0.431438 0.030304 -0.060024 -1.757047
    30 1.539093 0.000001 0.000000 -0.058651 0.149388 -1.571890
    31 1.196320 -0.000001 0.000004 -0.107662 0.188362 -1.488327
    32 3.883686 -0.046767 0.431446 0.134425 0.056053 -1.771010
    33 1.719570 0.000002 0.000004 -0.030687 0.057172 -1.750786
    34 1.209183 -0.000001 -0.000004 -0.034252 0.059379 -1.537043
    35 3.859859 -0.137950 1.332462 0.524258 -0.087937 -1.819439
    36 1.719429 0.000002 0.000000 0.072020 -0.125287 -1.808335
    37 1.099670 0.000001 0.000004 0.072020 -0.125295 -0.669563
    38 0.806049 -0.348922 1.321259 -0.786547 -0.413953 -0.991999
    39 1.789787 0.000000 0.000004 0.004360 0.030237 0.718378
    40 1.207001 0.000000 -0.000004 0.102533 0.030240 0.502412
    41 3.859665 -0.132565 1.193108 0.693418 -0.009806 -1.600810
    42 1.312561 0.000000 0.000000 0.110761 -0.297055 -1.436131
    43 0.729366 0.000002 0.000000 0.157643 -0.341690 -1.408450
    44 3.942291 0.050330 0.431042 0.331339 -0.008608 -1.603808
    45 1.539097 0.000003 0.000000 0.050214 -0.153911 -1.591790
    46 1.196320 0.000000 0.000000 0.132537 -0.225779 -1.824896
    47 3.883648 -0.050325 -0.431044 -0.022374 -0.010304 -1.305812
    48 1.719574 -0.000005 0.000000 0.038733 -0.074557 -1.586292
    49 1.209183 -0.000001 0.000000 0.047516 -0.080001 -1.582137
    50 3.859825 -0.148935 -1.331284 -0.549062 -0.024858 -1.454209
    51 1.719425 0.000000 0.000000 -0.002107 0.024342 -1.684730
    52 1.099663 0.000000 0.000000 -0.007967 0.046800 -1.711623
    53 0.806015 -0.359835 -1.318335 1.200555 0.246503 -0.836612
    54 1.789780 0.000001 0.000000 0.046975 0.150711 0.289172
    55 1.207001 0.000000 0.000004 0.215983 -0.000003 0.942472
    56 3.643179 -1.117762 -6.586830 1.677301 0.043048 -2.001890
  time 3
    0 1.610982 -0.335943 36.371538 1.705496 0.045908 0.093373
    1 -0.124999 3.345128 -2.981903 1.569671 0.102080 1.601065
    2 4.018331 0.000000 0.000000 -0.096439 -0.000587 0.167545
    3 3.518564 0.000000 0.000000 -0.034334 -0.007994 0.235222
    4 8.942642 0.000000 0.000000 -0.049431 -0.076390 0.236961
    5 3.307269 0.000000 -0.000004 3.137477 0.001222 0.577187
    6 3.593710 -0.000001 -0.000004 0.078227 -0.111696 1.072641
    7 1.999994 -3.000001 0.000004 -1.570793 0.000002 -1.326448
    8 2.033349 1.000771 -1.937607 -1.391322 1.274073 -3.068571
    9 6.028143 0.000002 -0.000004 1.570909 0.230306 -0.690489
    10 11.692545 0.000000 0.000000 -0.000011 0.000000 -1.882714
    11 11.481701 0.000000 0.000000 -0.856657 0.257927 -0.014864
    12 2.676086 -1.712440 0.000000 -1.570793 0.000003 -1.570792
    13 2.033341 1.000767 1.937660 2.412174 -1.487397 2.120583
    14 6.028140 0.000002 0.000000 -1.463002 0.294407 -0.957419
    15 11.692553 0.000000 0.000011 -0.000013 0.000000 -1.948081
    16 11.481667 0.000000 -0.000031 1.575391 -0.108951 -0.097558
    17 2.676086 -1.712440 0.000004 1.570793 0.000005 1.570793
    18 -3.890452 0.000004 0.000004 -1.322372 0.107864 -1.689844
    19 17.848171 0.000000 0.000004 0.000009 0.000000 0.392054
    20 16.525251 0.000000 0.000004 0.220050 -0.109332 -1.242052
    21 6.879454 0.000000 0.000008 -0.078655 -0.002894 -0.913393
    22 3.890452 -0.000004 -0.000004 -2.076955 -0.783458 -1.115347
    23 17.848175 0.000000 -0.000004 0.000010 0.000000 1.497450
    24 16.525246 0.000000 0.000004 0.242221 -0.083796 -0.958385
    25 6.879452 0.000000 0.000000 -0.006316 -0.002680 -0.637029
    26 3.859703 -0.142403 -1.191975 -0.568926 -0.013610 -1.526889
    27 1.312565 0.000001 0.000004 -0.086569 0.239740 -1.554263
    28 0.729362 0.000002 0.000004 -0.176890 0.315566 -1.429227
    29 3.942326 0.046774 -0.431438 0.030304 -0.060024 -1.757047
    30 1.539093 0.000001 0.000000 -0.058663 0.149388 -1.571890
    31 1.196320 -0.000001 0.000004 -0.107662 0.188362 -1.488327
    32 3.883686 -0.046767 0.431446 0.134425 0.056053 -1.771010
    33 1.719570 0.000002 0.000004 -0.030687 0.057172 -1.750786
    34 1.209183 -0.000001 -0.000004 -0.034252 0.059379 -1.537043
    35 3.859859 -0.137950 1.332462 0.524258 -0.087937 -1.819439
    36 1.719429 0.000002 0.000000 0.072020 -0.125287 -1.808335
    37 1.099670 0.000001 0.000004 0.072020 -0.125295 -0.669563
    38 0.806049 -0.348922 1.321259 -0.786547 -0.413953 -0.991999
    39 1.789787 0.000000 0.000004 0.004360 0.030237 0.718378
    40 1.207001 0.000000 -0.000004 0.102533 0.030240 0.502412
    41 3.859665 -0.132565 1.193108 0.693418 -0.009806 -1.600810
    42 1.312561 0.000000 0.000000 0.110761 -0.297055 -1.436131
    43 0.729366 0.000002 0.000000 0.157643 -0.341690 -1.408450
    44 3.942291 0.050330 0.431042 0.331339 -0.008608 -1.603808
    45 1.539097 0.000003 0.000000 0.050214 -0.153911 -1.591790
    46 1.196320 0.000000 0.000000 0.132537 -0.225779 -1.824896
    47 3.883648 -0.050325 -0.431044 -0.022374 -0.010304 -1.305812
    48 1.719574 -0.000005 0.000000 0.038733 -0.074557 -1.586292
    49 1.209183 -0.000001 0.000000 0.047516 -0.080001 -1.582137
    50 3.859825 -0.148935 -1.331284 -0.549062 -0.024858 -1.454209
    51 1.719425 0.000000 0.000000 -0.002107 0.024342 -1.684730
    52 1.099663 0.000000 0.000000 -0.007967 0.046800 -1.711623
    53 0.806015 -0.359835 -1.318335 1.200555 0.246503 -0.836612
    54 1.789780 0.000001 0.000000 0.046975 0.150711 0.289172
    55 1.207001 0.000000 0.000004 0.215983 -0.000003 0.942472
    56 3.643179 -1.117762 -6.586830 1.677301 0.043048 -2.001890
  time 4
    0 1.610982 -0.335943 37.195782 1.716278 0.049863 0.072023
    1 -0.124999 3.345128 -2.981903 1.569622 0.102080 1.600125
    2 4.018331 0.000000 0.000000 -0.092364 0.007886 0.168024
    3 3.518564 0.000000 0.000000 -0.031290 -0.006580 0.236660
    4 8.942642 0.000000 0.000000 -0.047329 -0.081831 0.238851
    5 3.307269 0.000000 -0.000004 3.137477 0.001222 0.577187
    6 3.593710 -0.000001 -0.000004 0.095056 -0.107274 1.073028
    7 1.999994 -3.000001 0.000004 -1.570793 0.000002 -1.326448
    8 2.033349 1.000771 -1.937607 -1.391044 1.274073 -3.068285
    9 6.028143 0.000002 -0.000004 1.584143 0.154002 -0.661511
    10 11.692545 0.000000 0.000000 -0.000011 0.000000 -1.908825
    11 11.481701 0.000000 0.000000 -0.855417 0.237050 -0.014668
    12 2.676086 -1.712440 0.000000 -1.570793 0.000003 -1.570792
    13 2.033341 1.000767 1.937660 2.412174 -1.487397 2.120583
    14 6.028140 0.000002 0.000000 -1.484516 0.157603 -0.975879
    15 11.692553 0.000000 0.000011 -0.000013 0.000000 -1.973048
    16 11.481667 0.000000 -0.000031 1.575391 -0.108951 -0.097558
    17 2.676086 -1.712440 0.000004 1.570793 0.000005 1.570793
    18 -3.890452 0.000004 0.000004 -1.379784 0.076205 -1.821981
    19 17.848171 0.000000 0.000004 0.000009 0.000000 0.479060
    20 16.525251 0.000000 0.000004 0.215753 -0.301002 -0.836813
    21 6.879454 0.000000 0.000008 -0.077373 -0.002522 -1.103158
    22 3.890452 -0.000004 -0.000004 -2.138061 -0.782027 -1.024812
    23 17.848175 0.000000 -0.000004 0.000010 0.000000 1.333926
    24 16.525246 0.000000 0.000004 0.171474 0.003871 -0.961279
    25 6.879452 0.000000 0.000000 -0.005465 -0.002572 -0.715237
    26 3.859703 -0.142403 -1.191975 -0.568926 -0.013610 -1.526889
    27 1.312565 0.000001 0.000004 -0.086569 0.239740 -1.554263
    28 0.729362 0.000002 0.000004 -0.176890 0.315566 -1.429270
    29 3.942326 0.046774 -0.431438 0.030304 -0.060024 -1.757047
    30 1.539093 0.000001 0.000000 -0.058663 0.149388 -1.571890
    31 1.196320 -0.000001 0.000004 -0.107662 0.188362 -1.488372
    32 3.883686 -0.046767 0.431446 0.134425 0.056053 -1.771010
    33 1.719570 0.000002 0.000004 -0.030687 0.057172 -1.750786
    34 1.209183 -0.000001 -0.000004 -0.034252 0.059379 -1.537043
    35 3.859859 -0.137950 1.332462 0.524258 -0.087937 -1.819439
    36 1.719429 0.000002 0.000000 0.072020 -0.125287 -1.808335
    37 1.099670 0.000001 0.000004 0.072020 -0.125295 -0.669563
    38 0.806049 -0.348922 1.321259 -0.786547 -0.413953 -0.991999
    39 1.789787 0.000000 0.000004 0.004360 0.030237 0.718378
    40 1.207001 0.000000 -0.000004 0.102533 0.030240 0.502412
    41 3.859665 -0.132565 1.193108 0.693418 -0.009806 -1.600810
    42 1.312561 0.000000 0.000000 0.110761 -0.297055 -1.436131
    43 0.729366 0.000002 0.000000 0.157643 -0.341690 -1.408450
    44 3.942291 0.050330 0.431042 0.331339 -0.008608 -1.603808
    45 1.539097 0.000003 0.000000 0.050214 -0.153911 -1.591790
    46 1.196320 0.000000 0.000000 0.132537 -0.225779 -1.824896
    47 3.883648 -0.050325 -0.431044 -0.022374 -0.010304 -1.305812
    48 1.719574 -0.000005 0.000000 0.038733 -0.074557 -1.586292
    49 1.209183 -0.000001 0.000000 0.047516 -0.080001 -1.582137
    50 3.859825 -0.148935 -1.331284 -0.549062 -0.024858 -1.454209
    51 1.719425 0.000000 0.000000 -0.002107 0.024342 -1.684730
    52 1.099663 0.000000 0.000000 -0.007967 0.046800 -1.711623
    53 0.806015 -0.359835 -1.318335 1.200555 0.246503 -0.836612
    54 1.789780 0.000001 0.000000 0.046975 0.150711 0.289172
    55 1.207001 0.000000 0.000004 0.215983 -0.000003 0.942472
    56 3.643179 -1.117762 -6.586830 1.677301 0.043060 -2.001890
  time 5
    0 1.610982 -0.335943 37.863771 1.727114 0.051732 0.060061
    1 -0.124999 3.345128 -2.981903 1.569817 0.102080 1.599976
    2 4.018331 0.000000 0.000000 -0.087091 0.017162 0.168479
    3 3.518564 0.000000 0.000000 -0.027216 -0.004626 0.236612
    4 8.942642 0.000000 0.000000 -0.042703 -0.087679 0.240987
    5 3.307269 0.000000 -0.000004 3.137477 0.001222 0.577187
    6 3.593710 -0.000001 -0.000004 0.109125 -0.103607 1.073415
    7 1.999994 -3.000001 0.000004 -1.570793 0.000002 -1.326448
    8 2.033349 1.000771 -1.937607 -1.390116 1.274033 -3.067330
    9 6.028143 0.000002 -0.000004 1.606199 0.077612 -0.640272
    10 11.692545 0.000000 0.000000 -0.000011 0.000000 -1.926584
    11 11.481701 0.000000 0.000000 -0.854230 0.216871 -0.014521
    12 2.676086 -1.712440 0.000000 -1.570793 0.000003 -1.570792
    13 2.033341 1.000767 1.937660 2.412174 -1.487397 2.120583
    14 6.028140 0.000002 0.000000 -1.492349 0.005384 -0.984465
    15 11.692553 0.000000 0.000011 -0.000013 0.000000 -1.973818
    16 11.481667 0.000000 -0.000031 1.575452 -0.108951 -0.097558
    17 2.676086 -1.712440 0.000004 1.570793 0.000005 1.570793
    18 -3.890452 0.000004 0.000004 -1.442212 -0.160556 -1.885845
    19 17.848171 0.000000 0.000004 0.000009 0.000000 0.887334
    20 16.525251 0.000000 0.000004 0.161069 -0.286524 -0.721238
    21 6.879454 0.000000 0.000008 -0.077373 -0.002522 -1.103158
    22 3.890452 -0.000004 -0.000004 -2.143853 -0.716976 -1.002058
    23 17.848175 0.000000 -0.000004 0.000010 0.000000 1.139036
    24 16.525246 0.000000 0.000004 0.058896 0.084630 -1.135221
    25 6.879452 0.000000 0.000000 -0.005465 -0.002392 -0.689593
    26 3.859703 -0.142403 -1.191975 -0.568926 -0.013610 -1.526889
    27 1.312565 0.000001 0.000004 -0.086569 0.239740 -1.554263
    28 0.729362 0.000002 0.000004 -0.176890 0.315566 -1.429270
    29 3.942326 0.046774 -0.431438 0.030304 -0.060024 -1.757047
    30 1.539093 0.000001 0.000000 -0.058651 0.149388 -1.571890
    31 1.196320 -0.000001 0.000004 -0.107662 0.188362 -1.488327
    32 3.883686 -0.046767 0.431446 0.134425 0.056053 -1.771010
    33 1.719570 0.000002 0.000004 -0.030687 0.057172 -1.750786
    34 1.209183 -0.000001 -0.000004 -0.034252 0.059379 -1.537043
    35 3.859859 -0.137950 1.332462 0.524258 -0.087937 -1.819439
    36 1.719429 0.000002 0.000000 0.072020 -0.125287 -1.808390
    37 1.099670 0.000001 0.000004 0.072020 -0.125295 -0.669563
    38 0.806049 -0.348922 1.321259 -0.786547 -0.413953 -0.992029
    39 1.789787 0.000000 0.000004 0.004360 0.030237 0.718378
    40 1.207001 0.000000 -0.000004 0.102533 0.030240 0.502412
    41 3.859665 -0.132565 1.193108 0.693418 -0.009806 -1.600810
    42 1.312561 0.000000 0.000000 0.110761 -0.297055 -1.436131
    43 0.729366 0.000002 0.000000 0.157643 -0.341690 -1.408450
    44 3.942291 0.050330 0.431042 0.331339 -0.008596 -1.603808
    45 1.539097 0.000003 0.000000 0.050214 -0.153911 -1.591790
    46 1.196320 0.000000 0.000000 0.132537 -0.225779 -1.824896
    47 3.883648 -0.050325 -0.431044 -0.022374 -0.010304 -1.305812
    48 1.719574 -0.000005 0.000000 0.038733 -0.074557 -1.586292
    49 1.209183 -0.000001 0.000000 0.047516 -0.080001 -1.582137
    50 3.859825 -0.148935 -1.331284 -0.549062 -0.024858 -1.454209
    51 1.719425 0.000000 0.000000 -0.002107 0.024342 -1.684730
    52 1.099663 0.000000 0.000000 -0.007967 0.046800 -1.711623
    53 0.806015 -0.359835 -1.318335 1.200555 0.246503 -0.836612
    54 1.789780 0.000001 0.000000 0.046975 0.150711 0.289172
    55 1.207001 0.000000 0.000004 0.215983 -0.000003 0.942472
    56 3.643179 -1.117762 -6.586830 1.677301 0.043048 -2.001890
  time 6
    0 1.610982 -0.335943 38.062996 1.735283 0.050953 0.059228
    1 -0.124999 3.345128 -2.981903 1.570304 0.102080 1.600768
    2 4.018331 0.000000 0.000000 -0.080959 0.026270 0.167676
    3 3.518564 0.000000 0.000000 -0.022518 -0.002157 0.234718
    4 8.942642 0.000000 0.000000 -0.035746 -0.093384 0.243154
    5 3.307269 0.000000 -0.000004 3.137477 0.001222 0.577187
    6 3.593710 -0.000001 -0.000004 0.115057 -0.102061 1.073591
    7 1.999994 -3.000001 0.000004 -1.570793 0.000002 -1.326448
    8 2.033349 1.000771 -1.937607 -1.388817 1.273953 -3.065803
    9 6.028143 0.000002 -0.000004 1.633034 0.005633 -0.628611
    10 11.692545 0.000000 0.000000 -0.000011 0.000000 -1.938751
    11 11.481701 0.000000 0.000000 -0.853043 0.197800 -0.014374
    12 2.676086 -1.712440 0.000000 -1.570793 0.000003 -1.570792
    13 2.033341 1.000767 1.937660 2.412174 -1.487397 2.120583
    14 6.028140 0.000002 0.000000 -1.485393 -0.135468 -0.985909
    15 11.692553 0.000000 0.000011 -0.000013 0.000000 -1.956963
    16 11.481667 0.000000 -0.000031 1.575391 -0.108951 -0.097558
    17 2.676086 -1.712440 0.000004 1.570793 0.000005 1.570793
    18 -3.890452 0.000004 0.000004 -1.483574 -0.356844 -1.849662
    19 17.848171 0.000000 0.000004 0.000009 0.000000 1.166070
    20 16.525251 0.000000 0.000004 0.198851 -0.183435 -0.895228
    21 6.879454 0.000000 0.000008 -0.077361 -0.002474 -1.103158
    22 3.890452 -0.000004 -0.000004 -2.092211 -0.586453 -1.063309
    23 17.848175 0.000000 -0.000004 0.000010 0.000000 0.859818
    24 16.525246 0.000000 0.000004 -0.051779 0.116185 -1.308197
    25 6.879452 0.000000 0.000000 -0.006364 -0.002057 -0.545980
    26 3.859703 -0.142403 -1.191975 -0.568926 -0.013610 -1.526889
    27 1.312565 0.000001 0.000004 -0.086569 0.239740 -1.554263
    28 0.729362 0.000002 0.000004 -0.176890 0.315566 -1.429227
    29 3.942326 0.046774 -0.431438 0.030304 -0.060024 -1.757047
    30 1.539093 0.000001 0.000000 -0.058663 0.149388 -1.571890
    31 1.196320 -0.000001 0.000004 -0.107662 0.188362 -1.488327
    32 3.883686 -0.046767 0.431446 0.134425 0.056053 -1.771010
    33 1.719570 0.000002 0.000004 -0.030687 0.057172 -1.750786
    34 1.209183 -0.000001 -0.000004 -0.034252 0.059379 -1.537043
    35 3.859859 -0.137950 1.332462 0.524258 -0.087937 -1.819439
    36 1.719429 0.000002 0.000000 0.072020 -0.125287 -1.808335
    37 1.099670 0.000001 0.000004 0.072020 -0.125295 -0.669563
    38 0.806049 -0.348922 1.321259 -0.786547 -0.413953 -0.991999
    39 1.789787 0.000000 0.000004 0.004360 0.030237 0.718378
    40 1.207001 0.000000 -0.000004 0.102533 0.030240 0.502412
    41 3.859665 -0.132565 1.193108 0.693418 -0.009806 -1.600810
    42 1.312561 0.000000 0.000000 0.110761 -0.297055 -1.436131
    43 0.729366 0.000002 0.000000 0.157643 -0.341690 -1.408450
    44 3.942291 0.050330 0.431042 0.331339 -0.008608 -1.603808
    45 1.539097 0.000003 0.000000 0.050214 -0.153911 -1.591790
    46 1.196320 0.000000 0.000000 0.132537 -0.225779 -1.824896
    47 3.883648 -0.050325 -0.431044 -0.022374 -0.010304 -1.305812
    48 1.719574 -0.000005 0.000000 0.038733 -0.074557 -1.586292
    49 1.209183 -0.000001 0.000000 0.047516 -0.080001 -1.582137
    50 3.859825 -0.148935 -1.331284 -0.549062 -0.024858 -1.454209
    51 1.719425 0.000000 0.000000 -0.002107 0.024342 -1.684730
    52 1.099663 0.000000 0.000000 -0.007967 0.046800 -1.711623
    53 0.806015 -0.359835 -1.318335 1.200555 0.246503 -0.836612
    54 1.789780 0.000001 0.000000 0.046975 0.150711 0.289172
    55 1.207001 0.000000 0.000004 0.215983 -0.000003 0.942472
    56 3.643179 -1.117762 -6.586830 1.677301 0.043048 -2.001890
  time 7
    0 1.610982 -0.335943 37.570793 1.738005 0.046579 0.068162
    1 -0.124999 3.345128 -2.981903 1.570985 0.102080 1.602895
    2 4.018331 0.000000 0.000000 -0.074603 0.037236 0.165579
    3 3.518564 0.000000 0.000000 -0.017520 0.000875 0.231722
    4 8.942642 0.000000 0.000000 -0.026864 -0.098441 0.245183
    5 3.307269 0.000000 -0.000004 3.137477 0.001222 0.577187
    6 3.593710 -0.000001 -0.000004 0.100251 -0.092114 1.075773
    7 1.999994 -3.000001 0.000004 -1.570793 0.000002 -1.326448
    8 2.033349 1.000771 -1.937607 -1.387055 1.273832 -3.064084
    9 6.028143 0.000002 -0.000004 1.662810 -0.056687 -0.621649
    10 11.692545 0.000000 0.000000 -0.000011 0.000000 -1.948880
    11 11.481701 0.000000 0.000000 -0.852180 0.182308 -0.014276
    12 2.676086 -1.712440 0.000000 -1.570793 0.000003 -1.570792
    13 2.033341 1.000767 1.937660 2.412174 -1.487397 2.120583
    14 6.028140 0.000002 0.000000 -1.462885 -0.239387 -0.991411
    15 11.692553 0.000000 0.000011 -0.000013 0.000000 -1.936541
    16 11.481667 0.000000 -0.000031 1.575391 -0.108951 -0.097558
    17 2.676086 -1.712440 0.000004 1.570793 0.000005 1.570793
    18 -3.890452 0.000004 0.000004 -1.495493 -0.574980 -1.784072
    19 17.848171 0.000000 0.000004 0.000009 0.000000 1.402648
    20 16.525251 0.000000 0.000004 0.202829 -0.113223 -1.035637
    21 6.879454 0.000000 0.000008 -0.077349 -0.002474 -1.103158
    22 3.890452 -0.000004 -0.000004 -2.017969 -0.421174 -1.167454
    23 17.848175 0.000000 -0.000004 0.000010 0.000000 0.527009
    24 16.525246 0.000000 0.000004 -0.089451 0.181211 -1.266054
    25 6.879452 0.000000 0.000000 -0.007886 -0.001817 -0.405001
    26 3.859703 -0.142403 -1.191975 -0.568926 -0.013610 -1.526889
    27 1.312565 0.000001 0.000004 -0.086569 0.239740 -1.554310
    28 0.729362 0.000002 0.000004 -0.176890 0.315566 -1.429227
    29 3.942326 0.046774 -0.431438 0.030304 -0.060024 -1.757047
    30 1.539093 0.000001 0.000000 -0.058651 0.149388 -1.571890
    31 1.196320 -0.000001 0.000004 -0.107662 0.188362 -1.488327
    32 3.883686 -0.046767 0.431446 0.134425 0.056053 -1.771010
    33 1.719570 0.000002 0.000004 -0.030687 0.057172 -1.750786
    34 1.209183 -0.000001 -0.000004 -0.034252 0.059379 -1.537043
    35 3.859859 -0.137950 1.332462 0.524258 -0.087937 -1.819439
    36 1.719429 0.000002 0.000000 0.072020 -0.125287 -1.808335
    37 1.099670 0.000001 0.000004 0.072020 -0.125295 -0.669563
    38 0.806049 -0.348922 1.321259 -0.786547 -0.413953 -0.991999
    39 1.789787 0.000000 0.000004 0.004360 0.030237 0.718378
    40 1.207001 0.000000 -0.000004 0.102533 0.030240 0.502412
    41 3.859665 -0.132565 1.193108 0.693418 -0.009806 -1.600810
    42 1.312561 0.000000 0.000000 0.110761 -0.297055 -1.436131
    43 0.729366 0.000002 0.000000 0.157643 -0.341690 -1.408450
    44 3.942291 0.050330 0.431042 0.331339 -0.008608 -1.603808
    45 1.539097 0.000003 0.000000 0.050214 -0.153911 -1.591790
    46 1.196320 0.000000 0.000000 0.132537 -0.225779 -1.824896
    47 3.883648 -0.050325 -0.431044 -0.022374 -0.010304 -1.305812
    48 1.719574 -0.000005 0.000000 0.038733 -0.074557 -1.586292
    49 1.209183 -0.000001 0.000000 0.047516 -0.080001 -1.582137
    50 3.859825 -0.148935 -1.331284 -0.549062 -0.024858 -1.454209
    51 1.719425 0.000000 0.000000 -0.002107 0.024342 -1.684730
    52 1.099663 0.000000 0.000000 -0.007967 0.046800 -1.711623
    53 0.806015 -0.359835 -1.318335 1.200555 0.246503 -0.836612
    54 1.789780 0.000001 0.000000 0.046975 0.150711 0.289172
    55 1.207001 0.000000 0.000004 0.215983 -0.000003 0.942472
    56 3.643179 -1.117762 -6.586830 1.677301 0.043060 -2.001890
  time 8
    0 1.610982 -0.335943 36.723111 1.732887 0.038945 0.083077
    1 -0.124999 3.345128 -2.981903 1.571862 0.102080 1.606209
    2 4.018331 0.000000 0.000000 -0.068713 0.047831 0.164800
    3 3.518564 0.000000 0.000000 -0.012630 0.004195 0.232537
    4 8.942642 0.000000 0.000000 -0.017014 -0.102564 0.246827
    5 3.307269 0.000000 -0.000004 3.137477 0.001222 0.577187
    6 3.593710 -0.000001 -0.000004 0.062962 -0.068588 1.081755
    7 1.999994 -3.000001 0.000004 -1.570793 0.000002 -1.326448
    8 2.033349 1.000771 -1.937607 -1.385107 1.273752 -3.062079
    9 6.028143 0.000002 -0.000004 1.694883 -0.101987 -0.618115
    10 11.692545 0.000000 0.000000 -0.000011 0.000000 -1.958746
    11 11.481701 0.000000 0.000000 -0.851748 0.175909 -0.014276
    12 2.676086 -1.712440 0.000000 -1.570793 0.000003 -1.570792
    13 2.033341 1.000767 1.937660 2.412174 -1.487397 2.120583
    14 6.028140 0.000002 0.000000 -1.427634 -0.301212 -1.006944
    15 11.692553 0.000000 0.000011 -0.000013 0.000000 -1.924442
    16 11.481667 0.000000 -0.000031 1.575391 -0.108951 -0.097558
    17 2.676086 -1.712440 0.000004 1.570793 0.000005 1.570793
    18 -3.890452 0.000004 0.000004 -1.471478 -0.751103 -1.773269
    19 17.848171 0.000000 0.000004 0.000009 0.000000 1.511705
    20 16.525251 0.000000 0.000004 0.189834 -0.095132 -1.114412
    21 6.879454 0.000000 0.000008 -0.077409 -0.002582 -1.103158
    22 3.890452 -0.000004 -0.000004 -1.962085 -0.400135 -1.213169
    23 17.848175 0.000000 -0.000004 0.000010 0.000000 0.579660
    24 16.525246 0.000000 0.000004 -0.116669 0.209909 -1.361254
    25 6.879452 0.000000 0.000000 -0.007994 -0.002333 -0.463039
    26 3.859703 -0.142403 -1.191975 -0.568926 -0.013610 -1.526889
    27 1.312565 0.000001 0.000004 -0.086569 0.239740 -1.554310
    28 0.729362 0.000002 0.000004 -0.176890 0.315566 -1.429227
    29 3.942326 0.046774 -0.431438 0.030304 -0.060024 -1.757047
    30 1.539093 0.000001 0.000000 -0.058663 0.149388 -1.571890
    31 1.196320 -0.000001 0.000004 -0.107662 0.188362 -1.488327
    32 3.883686 -0.046767 0.431446 0.134425 0.056053 -1.771010
    33 1.719570 0.000002 0.000004 -0.030687 0.057172 -1.750786
    34 1.209183 -0.000001 -0.000004 -0.034252 0.059379 -1.537043
    35 3.859859 -0.137950 1.332462 0.524258 -0.087937 -1.819439
    36 1.719429 0.000002 0.000000 0.072020 -0.125287 -1.808335
    37 1.099670 0.000001 0.000004 0.072020 -0.125295 -0.669563
    38 0.806049 -0.348922 1.321259 -0.786547 -0.413953 -0.991999
    39 1.789787 0.000000 0.000004 0.004360 0.030237 0.718378
    40 1.207001 0.000000 -0.000004 0.102533 0.030240 0.502412
    41 3.859665 -0.132565 1.193108 0.693418 -0.009806 -1.600810
    42 1.312561 0.000000 0.000000 0.110761 -0.297055 -1.436131
    43 0.729366 0.000002 0.000000 0.157643 -0.341690 -1.408450
    44 3.942291 0.050330 0.431042 0.331339 -0.008608 -1.603808
    45 1.539097 0.000003 0.000000 0.050214 -0.153911 -1.591790
    46 1.196320 0.000000 0.000000 0.132537 -0.225779 -1.824896
    47 3.883648 -0.050325 -0.431044 -0.022374 -0.010304 -1.305812
    48 1.719574 -0.000005 0.000000 0.038733 -0.074557 -1.586292
    49 1.209183 -0.000001 0.000000 0.047516 -0.080001 -1.582137
    50 3.859825 -0.148935 -1.331284 -0.549062 -0.024858 -1.454209
    51 1.719425 0.000000 0.000000 -0.002107 0.024342 -1.684730
    52 1.099663 0.000000 0.000000 -0.007967 0.046800 -1.711623
    53 0.806015 -0.359835 -1.318335 1.200555 0.246503 -0.836612
    54 1.789780 0.000001 0.000000 0.046975 0.150711 0.289172
    55 1.207001 0.000000 0.000004 0.215983 -0.000003 0.942472
    56 3.643179 -1.117762 -6.586830 1.677301 0.043048 -2.001890
  time 9
    0 1.610982 -0.335943 35.961369 1.719709 0.029345 0.102458
    1 -0.124999 3.345128 -2.981903 1.572884 0.102080 1.609969
    2 4.018331 0.000000 0.000000 -0.063591 0.051294 0.166885
    3 3.518564 0.000000 0.000000 -0.008268 0.007239 0.240519
    4 8.942642 0.000000 0.000000 -0.006679 -0.105476 0.247934
    5 3.307269 0.000000 -0.000004 3.137477 0.001222 0.577187
    6 3.593710 -0.000001 -0.000004 0.013855 -0.040843 1.090729
    7 1.999994 -3.000001 0.000004 -1.570793 0.000002 -1.326448
    8 2.033349 1.000771 -1.937607 -1.383066 1.273672 -3.059884
    9 6.028143 0.000002 -0.000004 1.727232 -0.123365 -0.623451
    10 11.692545 0.000000 0.000000 -0.000011 0.000000 -1.968546
    11 11.481701 0.000000 0.000000 -0.852072 0.181390 -0.014276
    12 2.676086 -1.712440 0.000000 -1.570793 0.000003 -1.570792
    13 2.033341 1.000767 1.937660 2.412174 -1.487397 2.120583
    14 6.028140 0.000002 0.000000 -1.384724 -0.324924 -1.024974
    15 11.692553 0.000000 0.000011 -0.000013 0.000000 -1.925422
    16 11.481667 0.000000 -0.000031 1.575391 -0.108951 -0.097558
    17 2.676086 -1.712440 0.000004 1.570793 0.000005 1.570793
    18 -3.890452 0.000004 0.000004 -1.439025 -0.870667 -1.749743
    19 17.848171 0.000000 0.000004 0.000009 0.000000 1.523291
    20 16.525251 0.000000 0.000004 0.173781 -0.063981 -1.168957
    21 6.879454 0.000000 0.000008 -0.077577 -0.002906 -1.103158
    22 3.890452 -0.000004 -0.000004 -1.863042 -0.370471 -1.316627
    23 17.848175 0.000000 -0.000004 0.000010 0.000000 0.752513
    24 16.525246 0.000000 0.000004 -0.095073 0.133219 -1.579932
    25 6.879452 0.000000 0.000000 -0.007874 -0.002596 -0.502266
    26 3.859703 -0.142403 -1.191975 -0.568926 -0.013610 -1.526889
    27 1.312565 0.000001 0.000004 -0.086569 0.239740 -1.554263
    28 0.729362 0.000002 0.000004 -0.176890 0.315566 -1.429270
    29 3.942326 0.046774 -0.431438 0.030304 -0.060024 -1.757047
    30 1.539093 0.000001 0.000000 -0.058651 0.149388 -1.571890
    31 1.196320 -0.000001 0.000004 -0.107662 0.188362 -1.488372
    32 3.883686 -0.046767 0.431446 0.134425 0.056053 -1.771064
    33 1.719570 0.000002 0.000004 -0.030687 0.057172 -1.750786
    34 1.209183 -0.000001 -0.000004 -0.034252 0.059379 -1.537043
    35 3.859859 -0.137950 1.332462 0.524258 -0.087937 -1.819439
    36 1.719429 0.000002 0.000000 0.072020 -0.125287 -1.808335
    37 1.099670 0.000001 0.000004 0.072020 -0.125295 -0.669563
    38 0.806049 -0.348922 1.321259 -0.786547 -0.413953 -0.991999
    39 1.789787 0.000000 0.000004 0.004360 0.030237 0.718400
    40 1.207001 0.000000 -0.000004 0.102533 0.030240 0.502412
    41 3.859665 -0.132565 1.193108 0.693418 -0.009806 -1.600810
    42 1.312561 0.000000 0.000000 0.110761 -0.297055 -1.436131
    43 0.729366 0.000002 0.000000 0.157643 -0.341690 -1.408450
    44 3.942291 0.050330 0.431042 0.331339 -0.008608 -1.603808
    45 1.539097 0.000003 0.000000 0.050214 -0.153911 -1.591790
    46 1.196320 0.000000 0.000000 0.132537 -0.225779 -1.824896
    47 3.883648 -0.050325 -0.431044 -0.022374 -0.010304 -1.305812
    48 1.719574 -0.000005 0.000000 0.038733 -0.074557 -1.586292
    49 1.209183 -0.000001 0.000000 0.047516 -0.080001 -1.582137
    50 3.859825 -0.148935 -1.331284 -0.549062 -0.024858 -1.454209
    51 1.719425 0.000000 0.000000 -0.002107 0.024342 -1.684730
    52 1.099663 0.000000 0.000000 -0.007955 0.046800 -1.711623
    53 0.806015 -0.359835 -1.318335 1.200555 0.246503 -0.836612
    54 1.789780 0.000001 0.000000 0.046975 0.150711 0.289172
    55 1.207001 0.000000 0.000004 0.215983 -0.000003 0.942472
    56 3.643179 -1.117762 -6.586830 1.677301 0.043048 -2.001890
  time 10
    0 1.610982 -0.335943 35.461354 1.704462 0.019038 0.124792
    1 -0.124999 3.345128 -2.981903 1.573907 0.102080 1.613531
    2 4.018331 0.000000 0.000000 -0.060001 0.050347 0.168779
    3 3.518564 0.000000 0.000000 -0.004804 0.009420 0.250598
    4 8.942642 0.000000 0.000000 0.003668 -0.106927 0.248287
    5 3.307269 0.000000 -0.000004 3.137477 0.001222 0.577187
    6 3.593710 -0.000001 -0.000004 -0.036309 -0.018253 1.101778
    7 1.999994 -3.000001 0.000004 -1.570793 0.000002 -1.326448
    8 2.033349 1.000771 -1.937607 -1.381118 1.273551 -3.057879
    9 6.028143 0.000002 -0.000004 1.756365 -0.118971 -0.633099
    10 11.692545 0.000000 0.000000 -0.000011 0.000000 -1.976307
    11 11.481701 0.000000 0.000000 -0.853043 0.197895 -0.014374
    12 2.676086 -1.712440 0.000000 -1.570793 0.000003 -1.570792
    13 2.033341 1.000767 1.937660 2.412174 -1.487397 2.120583
    14 6.028140 0.000002 0.000000 -1.340470 -0.308228 -1.036916
    15 11.692553 0.000000 0.000011 -0.000013 0.000000 -1.940108
    16 11.481667 0.000000 -0.000031 1.575452 -0.108951 -0.097558
    17 2.676086 -1.712440 0.000004 1.570793 0.000005 1.570793
    18 -3.890452 0.000004 0.000004 -1.394654 -0.947648 -1.725899
    19 17.848171 0.000000 0.000004 0.000009 0.000000 1.491224
    20 16.525251 0.000000 0.000004 0.147119 -0.028093 -1.228076
    21 6.879454 0.000000 0.000008 -0.078559 -0.002894 -0.928513
    22 3.890452 -0.000004 -0.000004 -1.744664 -0.256442 -1.454457
    23 17.848175 0.000000 -0.000004 0.000010 0.000000 0.759274
    24 16.525246 0.000000 0.000004 -0.058938 0.035643 -1.711549
    25 6.879452 0.000000 0.000000 -0.007838 -0.002668 -0.513256
    26 3.859703 -0.142403 -1.191975 -0.568926 -0.013610 -1.526889
    27 1.312565 0.000001 0.000004 -0.086569 0.239740 -1.554310
    28 0.729362 0.000002 0.000004 -0.176890 0.315566 -1.429227
    29 3.942326 0.046774 -0.431438 0.030304 -0.060024 -1.757047
    30 1.539093 0.000001 0.000000 -0.058651 0.149388 -1.571890
    31 1.196320 -0.000001 0.000004 -0.107662 0.188362 -1.488327
    32 3.883686 -0.046767 0.431446 0.134425 0.056053 -1.771010
    33 1.719570 0.000002 0.000004 -0.030687 0.057172 -1.750786
    34 1.209183 -0.000001 -0.000004 -0.034252 0.059379 -1.537043
    35 3.859859 -0.137950 1.332462 0.524258 -0.087937 -1.819439
    36 1.719429 0.000002 0.000000 0.072020 -0.125287 -1.808335
    37 1.099670 0.000001 0.000004 0.072020 -0.125295 -0.669563
    38 0.806049 -0.348922 1.321259 -0.786547 -0.413953 -0.991999
    39 1.789787 0.000000 0.000004 0.004360 0.030237 0.718378
    40 1.207001 0.000000 -0.000004 0.102533 0.030240 0.502412
    41 3.859665 -0.132565 1.193108 0.693418 -0.009806 -1.600810
    42 1.312561 0.000000 0.000000 0.110761 -0.297055 -1.436131
    43 0.729366 0.000002 0.000000 0.157643 -0.341690 -1.408450
    44 3.942291 0.050330 0.431042 0.331339 -0.008608 -1.603808
    45 1.539097 0.000003 0.000000 0.050214 -0.153911 -1.591790
    46 1.196320 0.000000 0.000000 0.132537 -0.225779 -1.824896
    47 3.883648 -0.050325 -0.431044 -0.022374 -0.010304 -1.305812
    48 1.719574 -0.000005 0.000000 0.038733 -0.074557 -1.586292
    49 1.209183 -0.000001 0.000000 0.047516 -0.080001 -1.582137
    50 3.859825 -0.148935 -1.331284 -0.549062 -0.024858 -1.454209
    51 1.719425 0.000000 0.000000 -0.002107 0.024342 -1.684730
    52 1.099663 0.000000 0.000000 -0.007967 0.046800 -1.711623
    53 0.806015 -0.359835 -1.318335 1.200555 0.246503 -0.836612
    54 1.789780 0.000001 0.000000 0.046975 0.150711 0.289172
    55 1.207001 0.000000 0.000004 0.215983 -0.000003 0.942472
    56 3.643179 -1.117762 -6.586830 1.677301 0.043048 -2.001890
  time 11
    0 1.610982 -0.335943 35.340256 1.694224 0.009259 0.148792
    1 -0.124999 3.345128 -2.981903 1.574734 0.102080 1.616004
    2 4.018331 0.000000 0.000000 -0.058524 0.047231 0.168599
    3 3.518564 0.000000 0.000000 -0.002683 0.010187 0.256123
    4 8.942642 0.000000 0.000000 0.012282 -0.106267 0.247734
    5 3.307269 0.000000 -0.000004 3.137477 0.001222 0.577187
    6 3.593710 -0.000001 -0.000004 -0.076863 -0.010199 1.114024
    7 1.999994 -3.000001 0.000004 -1.570793 0.000002 -1.326448
    8 2.033349 1.000771 -1.937607 -1.379263 1.273471 -3.055970
    9 6.028143 0.000002 -0.000004 1.777410 -0.085109 -0.643064
    10 11.692545 0.000000 0.000000 -0.000011 0.000000 -1.977557
    11 11.481701 0.000000 0.000000 -0.854661 0.224442 -0.014570
    12 2.676086 -1.712440 0.000000 -1.570793 0.000003 -1.570792
    13 2.033341 1.000767 1.937660 2.412174 -1.487397 2.120583
    14 6.028140 0.000002 0.000000 -1.305277 -0.249034 -1.029579
    15 11.692553 0.000000 0.000011 -0.000013 0.000000 -1.964656
    16 11.481667 0.000000 -0.000031 1.575452 -0.108951 -0.097558
    17 2.676086 -1.712440 0.000004 1.570793 0.000005 1.570793
    18 -3.890452 0.000004 0.000004 -1.350813 -0.962023 -1.693040
    19 17.848171 0.000000 0.000004 0.000009 0.000000 1.380597
    20 16.525251 0.000000 0.000004 0.107020 0.005266 -1.268796
    21 6.879454 0.000000 0.000008 -0.079806 -0.002822 -0.748778
    22 3.890452 -0.000004 -0.000004 -1.621227 -0.060783 -1.593181
    23 17.848175 0.000000 -0.000004 0.000010 0.000000 0.587611
    24 16.525246 0.000000 0.000004 -0.005687 -0.082765 -1.741454
    25 6.879452 0.000000 0.000000 -0.007802 -0.002740 -0.524575
    26 3.859703 -0.142403 -1.191975 -0.568926 -0.013610 -1.526889
    27 1.312565 0.000001 0.000004 -0.086569 0.239740 -1.554310
    28 0.729362 0.000002 0.000004 -0.176890 0.315566 -1.429227
    29 3.942326 0.046774 -0.431438 0.030304 -0.060024 -1.757047
    30 1.539093 0.000001 0.000000 -0.058651 0.149388 -1.571890
    31 1.196320 -0.000001 0.000004 -0.107662 0.188362 -1.488327
    32 3.883686 -0.046767 0.431446 0.134425 0.056053 -1.771010
    33 1.719570 0.000002 0.000004 -0.030687 0.057172 -1.750786
    34 1.209183 -0.000001 -0.000004 -0.034252 0.059379 -1.537043
    35 3.859859 -0.137950 1.332462 0.524258 -0.087937 -1.819439
    36 1.719429 0.000002 0.000000 0.072020 -0.125287 -1.808335
    37 1.099670 0.000001 0.000004 0.072020 -0.125295 -0.669563
    38 0.806049 -0.348922 1.321259 -0.786547 -0.413953 -0.991999
    39 1.789787 0.000000 0.000004 0.004360 0.030237 0.718378
    40 1.207001 0.000000 -0.000004 0.102533 0.030240 0.502412
    41 3.859665 -0.132565 1.193108 0.693418 -0.009806 -1.600810
    42 1.312561 0.000000 0.000000 0.110761 -0.297055 -1.436131
    43 0.729366 0.000002 0.000000 0.157643 -0.341690 -1.408450
    44 3.942291 0.050330 0.431042 0.331339 -0.008608 -1.603808
    45 1.539097 0.000003 0.000000 0.050214 -0.153911 -1.591790
    46 1.196320 0.000000 0.000000 0.132537 -0.225779 -1.824896
    47 3.883648 -0.050325 -0.431044 -0.022374 -0.010304 -1.305812
    48 1.719574 -0.000005 0.000000 0.038733 -0.074557 -1.586292
    49 1.209183 -0.000001 0.000000 0.047516 -0.080001 -1.582137
    50 3.859825 -0.148935 -1.331284 -0.549062 -0.024858 -1.454209
    51 1.719425 0.000000 0.000000 -0.002107 0.024342 -1.684730
    52 1.099663 0.000000 0.000000 -0.007967 0.046800 -1.711623
    53 0.806015 -0.359835 -1.318335 1.200555 0.246503 -0.836612
    54 1.789780 0.000001 0.000000 0.046975 0.150711 0.289172
    55 1.207001 0.000000 0.000004 0.215983 -0.000003 0.942472
    56 3.643179 -1.117762 -6.586830 1.677301 0.043048 -2.001890
  time 12
    0 1.610982 -0.335943 35.723081 1.693244 0.002056 0.173171
    1 -0.124999 3.345128 -2.981903 1.575319 0.102068 1.617439
    2 4.018331 0.000000 0.000000 -0.059309 0.042270 0.168324
    3 3.518564 0.000000 0.000000 -0.002419 0.009791 0.256302
    4 8.942642 0.000000 0.000000 0.016130 -0.103091 0.246458
    5 3.307269 0.000000 -0.000004 3.137477 0.001222 0.577187
    6 3.593710 -0.000001 -0.000004 -0.099899 -0.022843 1.126199
    7 1.999994 -3.000001 0.000004 -1.570793 0.000002 -1.326448
    8 2.033349 1.000771 -1.937607 -1.377964 1.273390 -3.054538
    9 6.028143 0.000002 -0.000004 1.789449 -0.014071 -0.654443
    10 11.692545 0.000000 0.000000 -0.000011 0.000000 -1.967428
    11 11.481701 0.000000 0.000000 -0.856765 0.260018 -0.014864
    12 2.676086 -1.712440 0.000000 -1.570793 0.000003 -1.570792
    13 2.033341 1.000767 1.937660 2.412174 -1.487397 2.120583
    14 6.028140 0.000002 0.000000 -1.287739 -0.151017 -0.995470
    15 11.692553 0.000000 0.000011 -0.000013 0.000000 -1.988085
    16 11.481667 0.000000 -0.000031 1.575452 -0.108951 -0.097558
    17 2.676086 -1.712440 0.000004 1.570793 0.000005 1.570793
    18 -3.890452 0.000004 0.000004 -1.320897 -0.914876 -1.643880
    19 17.848171 0.000000 0.000004 0.000009 0.000000 1.188345
    20 16.525251 0.000000 0.000004 0.057763 0.027335 -1.276538
    21 6.879454 0.000000 0.000008 -0.081244 -0.002726 -0.598409
    22 3.890452 -0.000004 -0.000004 -1.524632 0.107736 -1.695333
    23 17.848175 0.000000 -0.000004 0.000010 0.000000 0.400359
    24 16.525246 0.000000 0.000004 0.012600 -0.192782 -1.464293
    25 6.879452 0.000000 0.000000 -0.005945 -0.002824 -0.694697
    26 3.859703 -0.142403 -1.191975 -0.568926 -0.013610 -1.526889
    27 1.312565 0.000001 0.000004 -0.086569 0.239740 -1.554263
    28 0.729362 0.000002 0.000004 -0.176890 0.315566 -1.429227
    29 3.942326 0.046774 -0.431438 0.030304 -0.060024 -1.757047
    30 1.539093 0.000001 0.000000 -0.058651 0.149388 -1.571890
    31 1.196320 -0.000001 0.000004 -0.107662 0.188362 -1.488327
    32 3.883686 -0.046767 0.431446 0.134425 0.056053 -1.771010
    33 1.719570 0.000002 0.000004 -0.030687 0.057172 -1.750786
    34 1.209183 -0.000001 -0.000004 -0.034252 0.059379 -1.537043
    35 3.859859 -0.137950 1.332462 0.524258 -0.087937 -1.819439
    36 1.719429 0.000002 0.000000 0.072020 -0.125287 -1.808335
    37 1.099670 0.000001 0.000004 0.072020 -0.125295 -0.669563
    38 0.806049 -0.348922 1.321259 -0.786547 -0.413953 -0.991999
    39 1.789787 0.000000 0.000004 0.004360 0.030237 0.718378
    40 1.207001 0.000000 -0.000004 0.102533 0.030240 0.502412
    41 3.859665 -0.132565 1.193108 0.693418 -0.009806 -1.600810
    42 1.312561 0.000000 0.000000 0.110761 -0.297055 -1.436131
    43 0.729366 0.000002 0.000000 0.157643 -0.341690 -1.408450
    44 3.942291 0.050330 0.431042 0.331339 -0.008608 -1.603808
    45 1.539097 0.000003 0.000000 0.050214 -0.153911 -1.591790
    46 1.196320 0.000000 0.000000 0.132537 -0.225779 -1.824896
    47 3.883648 -0.050325 -0.431044 -0.022374 -0.010304 -1.305812
    48 1.719574 -0.000005 0.000000 0.038733 -0.074557 -1.586292
    49 1.209183 -0.000001 0.000000 0.047516 -0.080001 -1.582137
    50 3.859825 -0.148935 -1.331284 -0.549062 -0.024858 -1.454209
    51 1.719425 0.000000 0.000000 -0.002107 0.024342 -1.684730
    52 1.099663 0.000000 0.000000 -0.007967 0.046800 -1.711623
    53 0.806015 -0.359835 -1.318335 1.200555 0.246503 -0.836612
    54 1.789780 0.000001 0.000000 0.046975 0.150711 0.289172
    55 1.207001 0.000000 0.000004 0.215983 -0.000003 0.942472
    56 3.643179 -1.117762 -6.586830 1.677301 0.043048 -2.001890
  time 13
    0 1.610982 -0.335943 36.469197 1.699016 -0.001659 0.194445
    1 -0.124999 3.345128 -2.981903 1.575611 0.102068 1.618280
    2 4.018331 0.000000 0.000000 -0.061777 0.035462 0.168959
    3 3.518564 0.000000 0.000000 -0.004013 0.008881 0.254996
    4 8.942642 0.000000 0.000000 0.018297 -0.098981 0.244845
    5 3.307269 0.000000 -0.000004 3.137477 0.001222 0.577187
    6 3.593710 -0.000001 -0.000004 -0.108635 -0.049772 1.137038
    7 1.999994 -3.000001 0.000004 -1.570793 0.000002 -1.326448
    8 2.033349 1.000771 -1.937607 -1.377222 1.273350 -3.053869
    9 6.028143 0.000002 -0.000004 1.796250 0.083819 -0.669851
    10 11.692545 0.000000 0.000000 -0.000011 0.000000 -1.943684
    11 11.481701 0.000000 0.000000 -0.859247 0.300219 -0.015306
    12 2.676086 -1.712440 0.000000 -1.570793 0.000003 -1.570792
    13 2.033341 1.000767 1.937660 2.412174 -1.487397 2.120583
    14 6.028140 0.000002 0.000000 -1.280081 -0.037014 -0.949614
    15 11.692553 0.000000 0.000011 -0.000013 0.000000 -1.992700
    16 11.481667 0.000000 -0.000031 1.575452 -0.108951 -0.097558
    17 2.676086 -1.712440 0.000004 1.570793 0.000005 1.570793
    18 -3.890452 0.000004 0.000004 -1.299892 -0.851443 -1.592482
    19 17.848171 0.000000 0.000004 0.000009 0.000000 0.995420
    20 16.525251 0.000000 0.000004 0.004316 0.038142 -1.270103
    21 6.879454 0.000000 0.000008 -0.081675 -0.002858 -0.579642
    22 3.890452 -0.000004 -0.000004 -1.513863 0.241415 -1.738298
    23 17.848175 0.000000 -0.000004 0.000010 0.000000 0.217553
    24 16.525246 0.000000 0.000004 -0.005029 -0.184663 -1.016808
    25 6.879452 0.000000 0.000000 -0.003716 -0.003291 -1.072191
    26 3.859703 -0.142403 -1.191975 -0.568926 -0.013610 -1.526889
    27 1.312565 0.000001 0.000004 -0.086569 0.239740 -1.554263
    28 0.729362 0.000002 0.000004 -0.176890 0.315566 -1.429227
    29 3.942326 0.046774 -0.431438 0.030304 -0.060024 -1.757047
    30 1.539093 0.000001 0.000000 -0.058651 0.149388 -1.571890
    31 1.196320 -0.000001 0.000004 -0.107662 0.188362 -1.488327
    32 3.883686 -0.046767 0.431446 0.134425 0.056053 -1.771010
    33 1.719570 0.000002 0.000004 -0.030687 0.057172 -1.750786
    34 1.209183 -0.000001 -0.000004 -0.034252 0.059379 -1.537043
    35 3.859859 -0.137950 1.332462 0.524258 -0.087937 -1.819439
    36 1.719429 0.000002 0.000000 0.072020 -0.125287 -1.808335
    37 1.099670 0.000001 0.000004 0.072020 -0.125295 -0.669563
    38 0.806049 -0.348922 1.321259 -0.786547 -0.413953 -0.991999
    39 1.789787 0.000000 0.000004 0.004360 0.030237 0.718378
    40 1.207001 0.000000 -0.000004 0.102533 0.030240 0.502412
    41 3.859665 -0.132565 1.193108 0.693418 -0.009806 -1.600810
    42 1.312561 0.000000 0.000000 0.110761 -0.297055 -1.436131
    43 0.729366 0.000002 0.000000 0.157643 -0.341690 -1.408450
    44 3.942291 0.050330 0.431042 0.331339 -0.008608 -1.603808
    45 1.539097 0.000003 0.000000 0.050214 -0.153911 -1.591790
    46 1.196320 0.000000 0.000000 0.132537 -0.225779 -1.824896
    47 3.883648 -0.050325 -0.431044 -0.022374 -0.010304 -1.305812
    48 1.719574 -0.000005 0.000000 0.038733 -0.074557 -1.586292
    49 1.209183 -0.000001 0.000000 0.047516 -0.080001 -1.582137
    50 3.859825 -0.148935 -1.331284 -0.549062 -0.024858 -1.454209
    51 1.719425 0.000000 0.000000 -0.002107 0.024342 -1.684730
    52 1.099663 0.000000 0.000000 -0.007967 0.046800 -1.711623
    53 0.806015 -0.359835 -1.318335 1.200555 0.246503 -0.836612
    54 1.789780 0.000001 0.000000 0.046975 0.150711 0.289172
    55 1.207001 0.000000 0.000004 0.215983 -0.000003 0.942472
    56 3.643179 -1.117762 -6.586830 1.677301 0.043048 -2.001890
  time 14
    0 1.610982 -0.335943 37.301254 1.709036 -0.002462 0.208830
    1 -0.124999 3.345128 -2.981903 1.575659 0.102068 1.618577
    2 4.018331 0.000000 0.000000 -0.065759 0.027445 0.169870
    3 3.518564 0.000000 0.000000 -0.007093 0.007323 0.250322
    4 8.942642 0.000000 0.000000 0.016717 -0.093731 0.243077
    5 3.307269 0.000000 -0.000004 3.137477 0.001222 0.577187
    6 3.593710 -0.000001 -0.000004 -0.108911 -0.081351 1.145554
    7 1.999994 -3.000001 0.000004 -1.570793 0.000002 -1.326448
    8 2.033349 1.000771 -1.937607 -1.376943 1.273310 -3.053583
    9 6.028143 0.000002 -0.000004 1.792574 0.191579 -0.688086
    10 11.692545 0.000000 0.000000 -0.000011 0.000000 -1.907839
    11 11.481701 0.000000 0.000000 -0.861675 0.338804 -0.015796
    12 2.676086 -1.712440 0.000000 -1.570793 0.000003 -1.570792
    13 2.033341 1.000767 1.937660 2.412174 -1.487397 2.120583
    14 6.028140 0.000002 0.000000 -1.284056 0.082927 -0.900012
    15 11.692553 0.000000 0.000011 -0.000013 0.000000 -1.971650
    16 11.481667 0.000000 -0.000031 1.575391 -0.108951 -0.097558
    17 2.676086 -1.712440 0.000004 1.570793 0.000005 1.570793
    18 -3.890452 0.000004 0.000004 -1.306559 -0.749649 -1.510400
    19 17.848171 0.000000 0.000004 0.000009 0.000000 0.753834
    20 16.525251 0.000000 0.000004 -0.057441 0.061088 -1.221038
    21 6.879454 0.000000 0.000008 -0.081831 -0.002954 -0.579642
    22 3.890452 -0.000004 -0.000004 -1.590552 0.181203 -1.747372
    23 17.848175 0.000000 -0.000004 0.000010 0.000000 0.353656
    24 16.525246 0.000000 0.000004 0.110273 -0.060125 -0.772204
    25 6.879452 0.000000 0.000000 -0.003092 -0.003076 -1.171597
    26 3.859703 -0.142403 -1.191975 -0.568926 -0.013610 -1.526889
    27 1.312565 0.000001 0.000004 -0.086569 0.239740 -1.554310
    28 0.729362 0.000002 0.000004 -0.176890 0.315566 -1.429227
    29 3.942326 0.046774 -0.431438 0.030304 -0.060024 -1.757047
    30 1.539093 0.000001 0.000000 -0.058663 0.149388 -1.571890
    31 1.196320 -0.000001 0.000004 -0.107662 0.188362 -1.488327
    32 3.883686 -0.046767 0.431446 0.134425 0.056053 -1.771010
    33 1.719570 0.000002 0.000004 -0.030687 0.057172 -1.750786
    34 1.209183 -0.000001 -0.000004 -0.034252 0.059379 -1.537043
    35 3.859859 -0.137950 1.332462 0.524258 -0.087937 -1.819439
    36 1.719429 0.000002 0.000000 0.072020 -0.125287 -1.808335
    37 1.099670 0.000001 0.000004 0.072020 -0.125295 -0.669563
    38 0.806049 -0.348922 1.321259 -0.786547 -0.413953 -0.991999
    39 1.789787 0.000000 0.000004 0.004360 0.030237 0.718378
    40 1.207001 0.000000 -0.000004 0.102533 0.030240 0.502412
    41 3.859665 -0.132565 1.193108 0.693418 -0.009806 -1.600810
    42 1.312561 0.000000 0.000000 0.110761 -0.297055 -1.436131
    43 0.729366 0.000002 0.000000 0.157643 -0.341690 -1.408450
    44 3.942291 0.050330 0.431042 0.331339 -0.008608 -1.603808
    45 1.539097 0.000003 0.000000 0.050214 -0.153911 -1.591790
    46 1.196320 0.000000 0.000000 0.132537 -0.225779 -1.824896
    47 3.883648 -0.050325 -0.431044 -0.022374 -0.010304 -1.305812
    48 1.719574 -0.000005 0.000000 0.038733 -0.074557 -1.586292
    49 1.209183 -0.000001 0.000000 0.047516 -0.080001 -1.582137
    50 3.859825 -0.148935 -1.331284 -0.549078 -0.024858 -1.454209
    51 1.719425 0.000000 0.000000 -0.002107 0.024342 -1.684730
    52 1.099663 0.000000 0.000000 -0.007967 0.046800 -1.711623
    53 0.806015 -0.359835 -1.318335 1.200555 0.246503 -0.836612
    54 1.789780 0.000001 0.000000 0.046975 0.150711 0.289172
    55 1.207001 0.000000 0.000004 0.215983 -0.000003 0.942472
    56 3.643179 -1.117762 -6.586830 1.677301 0.043048 -2.001890
  time 15
    0 1.610982 -0.335943 37.930179 1.720471 -0.000772 0.215492
    1 -0.124999 3.345128 -2.981903 1.575416 0.102068 1.618181
    2 4.018331 0.000000 0.000000 -0.070975 0.018804 0.170493
    3 3.518564 0.000000 0.000000 -0.011252 0.005046 0.243155
    4 8.942642 0.000000 0.000000 0.011224 -0.087775 0.241218
    5 3.307269 0.000000 -0.000004 3.137477 0.001222 0.577187
    6 3.593710 -0.000001 -0.000004 -0.106750 -0.107885 1.151043
    7 1.999994 -3.000001 0.000004 -1.570793 0.000002 -1.326448
    8 2.033349 1.000771 -1.937607 -1.377036 1.273310 -3.053678
    9 6.028143 0.000002 -0.000004 1.777961 0.296252 -0.706286
    10 11.692545 0.000000 0.000000 -0.000011 0.000000 -1.861799
    11 11.481701 0.000000 0.000000 -0.863617 0.369691 -0.016336
    12 2.676086 -1.712440 0.000000 -1.570793 0.000003 -1.570792
    13 2.033341 1.000767 1.937660 2.412174 -1.487397 2.120583
    14 6.028140 0.000002 0.000000 -1.288558 0.196559 -0.865981
    15 11.692553 0.000000 0.000011 -0.000013 0.000000 -1.931926
    16 11.481667 0.000000 -0.000031 1.575452 -0.108951 -0.097558
    17 2.676086 -1.712440 0.000004 1.570793 0.000005 1.570793
    18 -3.890452 0.000004 0.000004 -1.337360 -0.589869 -1.399166
    19 17.848171 0.000000 0.000004 0.000009 0.000000 0.386672
    20 16.525251 0.000000 0.000004 -0.109951 0.124062 -0.939015
    21 6.879454 0.000000 0.000008 -0.081484 -0.002738 -0.579642
    22 3.890452 -0.000004 -0.000004 -1.671809 0.037299 -1.748609
    23 17.848175 0.000000 -0.000004 0.000010 0.000000 0.611213
    24 16.525246 0.000000 0.000004 0.316922 -0.028697 -0.706305
    25 6.879452 0.000000 0.000000 -0.003332 -0.002848 -1.097752
    26 3.859703 -0.142403 -1.191975 -0.568926 -0.013610 -1.526889
    27 1.312565 0.000001 0.000004 -0.086569 0.239740 -1.554263
    28 0.729362 0.000002 0.000004 -0.176890 0.315566 -1.429227
    29 3.942326 0.046774 -0.431438 0.030304 -0.060024 -1.757047
    30 1.539093 0.000001 0.000000 -0.058651 0.149388 -1.571890
    31 1.196320 -0.000001 0.000004 -0.107662 0.188362 -1.488327
    32 3.883686 -0.046767 0.431446 0.134425 0.056053 -1.771010
    33 1.719570 0.000002 0.000004 -0.030687 0.057172 -1.750786
    34 1.209183 -0.000001 -0.000004 -0.034252 0.059379 -1.537043
    35 3.859859 -0.137950 1.332462 0.524258 -0.087937 -1.819439
    36 1.719429 0.000002 0.000000 0.072020 -0.125287 -1.808335
    37 1.099670 0.000001 0.000004 0.072020 -0.125295 -0.669563
    38 0.806049 -0.348922 1.321259 -0.786547 -0.413953 -0.991999
    39 1.789787 0.000000 0.000004 0.004360 0.030237 0.718378
    40 1.207001 0.000000 -0.000004 0.102533 0.030240 0.502412
    41 3.859665 -0.132565 1.193108 0.693418 -0.009806 -1.600810
    42 1.312561 0.000000 0.000000 0.110761 -0.297055 -1.436131
    43 0.729366 0.000002 0.000000 0.157643 -0.341690 -1.408450
    44 3.942291 0.050330 0.431042 0.331339 -0.008608 -1.603808
    45 1.539097 0.000003 0.000000 0.050214 -0.153911 -1.591790
    46 1.196320 0.000000 0.000000 0.132537 -0.225779 -1.824896
    47 3.883648 -0.050325 -0.431044 -0.022374 -0.010304 -1.305812
    48 1.719574 -0.000005 0.000000 0.038733 -0.074557 -1.586292
    49 1.209183 -0.000001 0.000000 0.047516 -0.080001 -1.582137
    50 3.859825 -0.148935 -1.331284 -0.549062 -0.024858 -1.454209
    51 1.719425 0.000000 0.000000 -0.002107 0.024342 -1.684730
    52 1.099663 0.000000 0.000000 -0.007967 0.046800 -1.711623
    53 0.806015 -0.359835 -1.318335 1.200555 0.246503 -0.836612
    54 1.789780 0.000001 0.000000 0.046975 0.150711 0.289172
    55 1.207001 0.000000 0.000004 0.215983 -0.000003 0.942472
    56 3.643179 -1.117762 -6.586830 1.677301 0.043048 -2.001890
  time 16
    0 1.610982 -0.335943 38.066902 1.730436 0.002835 0.214811
    1 -0.124999 3.345128 -2.981903 1.574929 0.102068 1.617142
    2 4.018331 0.000000 0.000000 -0.077239 0.010163 0.170193
    3 3.518564 0.000000 0.000000 -0.016130 0.001977 0.234994
    4 8.942642 0.000000 0.000000 0.002381 -0.081639 0.239420
    5 3.307269 0.000000 -0.000004 3.137477 0.001222 0.577187
    6 3.593710 -0.000001 -0.000004 -0.108037 -0.119750 1.153049
    7 1.999994 -3.000001 0.000004 -1.570793 0.000002 -1.326448
    8 2.033349 1.000771 -1.937607 -1.377407 1.273350 -3.054060
    9 6.028143 0.000002 -0.000004 1.753056 0.378693 -0.721093
    10 11.692545 0.000000 0.000000 -0.000011 0.000000 -1.816087
    11 11.481701 0.000000 0.000000 -0.864750 0.386640 -0.016630
    12 2.676086 -1.712440 0.000000 -1.570793 0.000003 -1.570792
    13 2.033341 1.000767 1.937660 2.412174 -1.487397 2.120583
    14 6.028140 0.000002 0.000000 -1.291831 0.293868 -0.851931
    15 11.692553 0.000000 0.000011 -0.000013 0.000000 -1.888425
    16 11.481667 0.000000 -0.000031 1.575391 -0.108951 -0.097558
    17 2.676086 -1.712440 0.000004 1.570793 0.000005 1.570793
    18 -3.890452 0.000004 0.000004 -1.351934 -0.592122 -1.332170
    19 17.848171 0.000000 0.000004 0.000009 0.000000 0.360211
    20 16.525251 0.000000 0.000004 -0.121160 0.231933 -0.717518
    21 6.879454 0.000000 0.000008 -0.079290 -0.002846 -0.817769
    22 3.890452 -0.000004 -0.000004 -1.804220 -0.116535 -1.669555
    23 17.848175 0.000000 -0.000004 0.000010 0.000000 0.880665
    24 16.525246 0.000000 0.000004 0.344506 0.087957 -0.711189
    25 6.879452 0.000000 0.000000 -0.004183 -0.002380 -0.875561
    26 3.859703 -0.142403 -1.191975 -0.568926 -0.013610 -1.526889
    27 1.312565 0.000001 0.000004 -0.086569 0.239740 -1.554263
    28 0.729362 0.000002 0.000004 -0.176890 0.315566 -1.429227
    29 3.942326 0.046774 -0.431438 0.030304 -0.060024 -1.757047
    30 1.539093 0.000001 0.000000 -0.058663 0.149388 -1.571890
    31 1.196320 -0.000001 0.000004 -0.107662 0.188362 -1.488327
    32 3.883686 -0.046767 0.431446 0.134425 0.056053 -1.771010
    33 1.719570 0.000002 0.000004 -0.030687 0.057172 -1.750786
    34 1.209183 -0.000001 -0.000004 -0.034252 0.059379 -1.537043
    35 3.859859 -0.137950 1.332462 0.524258 -0.087937 -1.819439
    36 1.719429 0.000002 0.000000 0.072020 -0.125287 -1.808335
    37 1.099670 0.000001 0.000004 0.072020 -0.125295 -0.669563
    38 0.806049 -0.348922 1.321259 -0.786547 -0.413953 -0.991999
    39 1.789787 0.000000 0.000004 0.004360 0.030237 0.718378
    40 1.207001 0.000000 -0.000004 0.102533 0.030240 0.502412
    41 3.859665 -0.132565 1.193108 0.693418 -0.009806 -1.600810
    42 1.312561 0.000000 0.000000 0.110761 -0.297055 -1.436131
    43 0.729366 0.000002 0.000000 0.157643 -0.341690 -1.408450
    44 3.942291 0.050330 0.431042 0.331339 -0.008608 -1.603808
    45 1.539097 0.000003 0.000000 0.050214 -0.153911 -1.591790
    46 1.196320 0.000000 0.000000 0.132537 -0.225779 -1.824896
    47 3.883648 -0.050325 -0.431044 -0.022374 -0.010304 -1.305812
    48 1.719574 -0.000005 0.000000 0.038733 -0.074557 -1.586292
    49 1.209183 -0.000001 0.000000 0.047516 -0.080001 -1.582137
    50 3.859825 -0.148935 -1.331284 -0.549062 -0.024858 -1.454209
    51 1.719425 0.000000 0.000000 -0.002107 0.024342 -1.684730
    52 1.099663 0.000000 0.000000 -0.007967 0.046800 -1.711623
    53 0.806015 -0.359835 -1.318335 1.200555 0.246503 -0.836612
    54 1.789780 0.000001 0.000000 0.046975 0.150711 0.289172
    55 1.207001 0.000000 0.000004 0.215983 -0.000003 0.942472
    56 3.643179 -1.117762 -6.586830 1.677301 0.043048 -2.001890
  time 17
    0 1.610982 -0.335943 37.527823 1.735609 0.008060 0.208451
    1 -0.124999 3.345128 -2.981903 1.574247 0.102080 1.615262
    2 4.018331 0.000000 0.000000 -0.083782 0.002121 0.168551
    3 3.518564 0.000000 0.000000 -0.021259 -0.001390 0.226677
    4 8.942642 0.000000 0.000000 -0.008399 -0.076162 0.237745
    5 3.307269 0.000000 -0.000004 3.137477 0.001222 0.577187
    6 3.593710 -0.000001 -0.000004 -0.093921 -0.120313 1.144392
    7 1.999994 -3.000001 0.000004 -1.570793 0.000002 -1.326448
    8 2.033349 1.000771 -1.937607 -1.377964 1.273390 -3.054538
    9 6.028143 0.000002 -0.000004 1.717675 0.428109 -0.736783
    10 11.692545 0.000000 0.000000 -0.000011 0.000000 -1.783991
    11 11.481701 0.000000 0.000000 -0.864642 0.385309 -0.016630
    12 2.676086 -1.712440 0.000000 -1.570793 0.000003 -1.570792
    13 2.033341 1.000767 1.937660 2.412174 -1.487397 2.120583
    14 6.028140 0.000002 0.000000 -1.304810 0.363383 -0.847443
    15 11.692553 0.000000 0.000011 -0.000013 0.000000 -1.847163
    16 11.481667 0.000000 -0.000031 1.575452 -0.108951 -0.097558
    17 2.676086 -1.712440 0.000004 1.570793 0.000005 1.570793
    18 -3.890452 0.000004 0.000004 -1.371937 -0.580770 -1.277449
    19 17.848171 0.000000 0.000004 0.000009 0.000000 0.418141
    20 16.525251 0.000000 0.000004 -0.134084 0.314152 -0.767237
    21 6.879454 0.000000 0.000008 -0.078811 -0.002882 -0.888737
    22 3.890452 -0.000004 -0.000004 -1.939975 -0.242135 -1.544442
    23 17.848175 0.000000 -0.000004 0.000010 0.000000 1.121382
    24 16.525246 0.000000 0.000004 0.317522 0.276256 -0.706788
    25 6.879452 0.000000 0.000000 -0.004351 -0.002632 -0.882353
    26 3.859703 -0.142403 -1.191975 -0.568926 -0.013610 -1.526889
    27 1.312565 0.000001 0.000004 -0.086569 0.239740 -1.554263
    28 0.729362 0.000002 0.000004 -0.176890 0.315566 -1.429227
    29 3.942326 0.046774 -0.431438 0.030304 -0.060024 -1.757047
    30 1.539093 0.000001 0.000000 -0.058651 0.149388 -1.571890
    31 1.196320 -0.000001 0.000004 -0.107662 0.188362 -1.488327
    32 3.883686 -0.046767 0.431446 0.134425 0.056053 -1.771010
    33 1.719570 0.000002 0.000004 -0.030687 0.057172 -1.750786
    34 1.209183 -0.000001 -0.000004 -0.034252 0.059379 -1.537043
    35 3.859859 -0.137950 1.332462 0.524258 -0.087937 -1.819439
    36 1.719429 0.000002 0.000000 0.072020 -0.125287 -1.808335
    37 1.099670 0.000001 0.000004 0.072020 -0.125295 -0.669563
    38 0.806049 -0.348922 1.321259 -0.786547 -0.413953 -0.991999
    39 1.789787 0.000000 0.000004 0.004360 0.030237 0.718378
    40 1.207001 0.000000 -0.000004 0.102533 0.030240 0.502412
    41 3.859665 -0.132565 1.193108 0.693418 -0.009806 -1.600810
    42 1.312561 0.000000 0.000000 0.110761 -0.297055 -1.436131
    43 0.729366 0.000002 0.000000 0.157643 -0.341690 -1.408450
    44 3.942291 0.050330 0.431042 0.331339 -0.008608 -1.603808
    45 1.539097 0.000003 0.000000 0.050214 -0.153911 -1.591790
    46 1.196320 0.000000 0.000000 0.132537 -0.225779 -1.824896
    47 3.883648 -0.050325 -0.431044 -0.022374 -0.010304 -1.305812
    48 1.719574 -0.000005 0.000000 0.038733 -0.074557 -1.586292
    49 1.209183 -0.000001 0.000000 0.047516 -0.080001 -1.582137
    50 3.859825 -0.148935 -1.331284 -0.549062 -0.024858 -1.454209
    51 1.719425 0.000000 0.000000 -0.002107 0.024342 -1.684730
    52 1.099663 0.000000 0.000000 -0.007967 0.046800 -1.711623
    53 0.806015 -0.359835 -1.318335 1.200555 0.246503 -0.836612
    54 1.789780 0.000001 0.000000 0.046975 0.150711 0.289172
    55 1.207001 0.000000 0.000004 0.215983 -0.000003 0.942472
    56 3.643179 -1.117762 -6.586830 1.677301 0.043048 -2.001890
  time 18
    0 1.610982 -0.335943 36.660609 1.731416 0.014376 0.198231
    1 -0.124999 3.345128 -2.981903 1.573468 0.102080 1.612789
    2 4.018331 0.000000 0.000000 -0.089709 -0.004626 0.166969
    3 3.518564 0.000000 0.000000 -0.026209 -0.004446 0.221056
    4 8.942642 0.000000 0.000000 -0.019460 -0.071967 0.236316
    5 3.307269 0.000000 -0.000004 3.137477 0.001222 0.577187
    6 3.593710 -0.000001 -0.000004 -0.053045 -0.119750 1.123877
    7 1.999994 -3.000001 0.000004 -1.570793 0.000002 -1.326448
    8 2.033349 1.000771 -1.937607 -1.378613 1.273431 -3.055206
    9 6.028143 0.000002 -0.000004 1.675584 0.454421 -0.753216
    10 11.692545 0.000000 0.000000 -0.000011 0.000000 -1.762681
    11 11.481701 0.000000 0.000000 -0.863671 0.371054 -0.016385
    12 2.676086 -1.712440 0.000000 -1.570793 0.000003 -1.570792
    13 2.033341 1.000767 1.937660 2.412174 -1.487397 2.120583
    14 6.028140 0.000002 0.000000 -1.319425 0.420925 -0.850019
    15 11.692553 0.000000 0.000011 -0.000013 0.000000 -1.817160
    16 11.481667 0.000000 -0.000031 1.575391 -0.108951 -0.097558
    17 2.676086 -1.712440 0.000004 1.570793 0.000005 1.570793
    18 -3.890452 0.000004 0.000004 -1.389520 -0.507183 -1.246508
    19 17.848171 0.000000 0.000004 0.000009 0.000000 0.473305
    20 16.525251 0.000000 0.000004 -0.178833 0.334042 -1.032017
    21 6.879454 0.000000 0.000008 -0.079554 -0.002834 -0.781070
    22 3.890452 -0.000004 -0.000004 -2.027188 -0.381116 -1.431291
    23 17.848175 0.000000 -0.000004 0.000010 0.000000 1.382821
    24 16.525246 0.000000 0.000004 0.305824 0.252730 -0.952898
    25 6.879452 0.000000 0.000000 -0.005082 -0.002596 -0.767430
    26 3.859703 -0.142403 -1.191975 -0.568926 -0.013610 -1.526889
    27 1.312565 0.000001 0.000004 -0.086569 0.239740 -1.554310
    28 0.729362 0.000002 0.000004 -0.176890 0.315566 -1.429227
    29 3.942326 0.046774 -0.431438 0.030304 -0.060024 -1.757047
    30 1.539093 0.000001 0.000000 -0.058663 0.149388 -1.571890
    31 1.196320 -0.000001 0.000004 -0.107662 0.188362 -1.488327
    32 3.883686 -0.046767 0.431446 0.134425 0.056053 -1.771010
    33 1.719570 0.000002 0.000004 -0.030687 0.057172 -1.750786
    34 1.209183 -0.000001 -0.000004 -0.034252 0.059379 -1.537043
    35 3.859859 -0.137950 1.332462 0.524258 -0.087937 -1.819439
    36 1.719429 0.000002 0.000000 0.072020 -0.125287 -1.808335
    37 1.099670 0.000001 0.000004 0.072020 -0.125295 -0.669563
    38 0.806049 -0.348922 1.321259 -0.786547 -0.413953 -0.991999
    39 1.789787 0.000000 0.000004 0.004360 0.030237 0.718378
    40 1.207001 0.000000 -0.000004 0.102533 0.030240 0.502412
    41 3.859665 -0.132565 1.193108 0.693418 -0.009806 -1.600810
    42 1.312561 0.000000 0.000000 0.110761 -0.297055 -1.436131
    43 0.729366 0.000002 0.000000 0.157643 -0.341690 -1.408450
    44 3.942291 0.050330 0.431042 0.331339 -0.008608 -1.603808
    45 1.539097 0.000003 0.000000 0.050214 -0.153911 -1.591790
    46 1.196320 0.000000 0.000000 0.132537 -0.225779 -1.824896
    47 3.883648 -0.050325 -0.431044 -0.022374 -0.010304 -1.305812
    48 1.719574 -0.000005 0.000000 0.038733 -0.074557 -1.586292
    49 1.209183 -0.000001 0.000000 0.047516 -0.080001 -1.582137
    50 3.859825 -0.148935 -1.331284 -0.549062 -0.024858 -1.454209
    51 1.719425 0.000000 0.000000 -0.002107 0.024342 -1.684730
    52 1.099663 0.000000 0.000000 -0.007967 0.046800 -1.711623
    53 0.806015 -0.359835 -1.318335 1.200555 0.246503 -0.836612
    54 1.789780 0.000001 0.000000 0.046975 0.150711 0.289172
    55 1.207001 0.000000 0.000004 0.215983 -0.000003 0.942472
    56 3.643179 -1.117762 -6.586830 1.677301 0.043048 -2.001890
  time 19
    0 1.610982 -0.335943 35.969182 1.715679 0.021411 0.184527
    1 -0.124999 3.345128 -2.981903 1.572543 0.102080 1.610019
    2 4.018331 0.000000 0.000000 -0.094588 -0.009564 0.167173
    3 3.518564 0.000000 0.000000 -0.030571 -0.006939 0.221128
    4 8.942642 0.000000 0.000000 -0.029884 -0.069259 0.235255
    5 3.307269 0.000000 -0.000004 3.137477 0.001222 0.577187
    6 3.593710 -0.000001 -0.000004 -0.002605 -0.118564 1.099913
    7 1.999994 -3.000001 0.000004 -1.570793 0.000002 -1.326448
    8 2.033349 1.000771 -1.937607 -1.379170 1.273471 -3.055874
    9 6.028143 0.000002 -0.000004 1.631931 0.447882 -0.766610
    10 11.692545 0.000000 0.000000 -0.000011 0.000000 -1.762812
    11 11.481701 0.000000 0.000000 -0.862376 0.350462 -0.015993
    12 2.676086 -1.712440 0.000000 -1.570793 0.000003 -1.570792
    13 2.033341 1.000767 1.937660 2.412174 -1.487397 2.120583
    14 6.028140 0.000002 0.000000 -1.338424 0.458870 -0.859268
    15 11.692553 0.000000 0.000011 -0.000013 0.000000 -1.806180
    16 11.481667 0.000000 -0.000031 1.575452 -0.108951 -0.097558
    17 2.676086 -1.712440 0.000004 1.570793 0.000005 1.570793
    18 -3.890452 0.000004 0.000004 -1.352524 -0.456557 -1.346426
    19 17.848171 0.000000 0.000004 0.000009 0.000000 0.680506
    20 16.525251 0.000000 0.000004 -0.133130 0.253563 -1.364312
    21 6.879454 0.000000 0.000008 -0.080633 -0.002762 -0.656574
    22 3.890452 -0.000004 -0.000004 -2.012259 -0.513743 -1.378221
    23 17.848175 0.000000 -0.000004 0.000010 0.000000 1.539145
    24 16.525246 0.000000 0.000004 0.253188 0.154738 -1.178570
    25 6.879452 0.000000 0.000000 -0.006196 -0.002656 -0.646291
    26 3.859703 -0.142403 -1.191975 -0.568926 -0.013610 -1.526889
    27 1.312565 0.000001 0.000004 -0.086569 0.239740 -1.554263
    28 0.729362 0.000002 0.000004 -0.176890 0.315566 -1.429270
    29 3.942326 0.046774 -0.431438 0.030304 -0.060024 -1.757047
    30 1.539093 0.000001 0.000000 -0.058651 0.149388 -1.571890
    31 1.196320 -0.000001 0.000004 -0.107662 0.188362 -1.488327
    32 3.883686 -0.046767 0.431446 0.134425 0.056053 -1.771010
    33 1.719570 0.000002 0.000004 -0.030687 0.057172 -1.750786
    34 1.209183 -0.000001 -0.000004 -0.034252 0.059379 -1.537043
    35 3.859859 -0.137950 1.332462 0.524258 -0.087937 -1.819439
    36 1.719429 0.000002 0.000000 0.072020 -0.125287 -1.808335
    37 1.099670 0.000001 0.000004 0.072020 -0.125295 -0.669563
    38 0.806049 -0.348922 1.321259 -0.786547 -0.413953 -0.991999
    39 1.789787 0.000000 0.000004 0.004360 0.030237 0.718378
    40 1.207001 0.000000 -0.000004 0.102533 0.030240 0.502412
    41 3.859665 -0.132565 1.193108 0.693439 -0.009806 -1.600810
    42 1.312561 0.000000 0.000000 0.110761 -0.297055 -1.436131
    43 0.729366 0.000002 0.000000 0.157643 -0.341690 -1.408450
    44 3.942291 0.050330 0.431042 0.331339 -0.008620 -1.603808
    45 1.539097 0.000003 0.000000 0.050214 -0.153911 -1.591790
    46 1.196320 0.000000 0.000000 0.132537 -0.225779 -1.824896
    47 3.883648 -0.050325 -0.431044 -0.022374 -0.010304 -1.305812
    48 1.719574 -0.000005 0.000000 0.038733 -0.074557 -1.586292
    49 1.209183 -0.000001 0.000000 0.047516 -0.080001 -1.582137
    50 3.859825 -0.148935 -1.331284 -0.549062 -0.024858 -1.454209
    51 1.719425 0.000000 0.000000 -0.002107 0.024342 -1.684730
    52 1.099663 0.000000 0.000000 -0.007967 0.046800 -1.711623
    53 0.806015 -0.359835 -1.318335 1.200555 0.246503 -0.836612
    54 1.789780 0.000001 0.000000 0.046975 0.150711 0.289172
    55 1.207001 0.000000 0.000004 0.215983 -0.000003 0.942472
    56 3.643179 -1.117762 -6.586830 1.677301 0.043048 -2.001890
  time 20
    0 1.610982 -0.335943 35.547294 1.701031 0.028494 0.168325
    1 -0.124999 3.345128 -2.981903 1.571569 0.102080 1.607248
    2 4.018331 0.000000 0.000000 -0.098010 -0.012021 0.168276
    3 3.518564 0.000000 0.000000 -0.033927 -0.008605 0.224891
    4 8.942642 0.000000 0.000000 -0.038791 -0.068204 0.234686
    5 3.307269 0.000000 -0.000004 3.137477 0.001222 0.577187
    6 3.593710 -0.000001 -0.000004 0.040156 -0.117437 1.080348
    7 1.999994 -3.000001 0.000004 -1.570793 0.000002 -1.326448
    8 2.033349 1.000771 -1.937607 -1.379634 1.273471 -3.056351
    9 6.028143 0.000002 -0.000004 1.597285 0.417856 -0.768235
    10 11.692545 0.000000 0.000000 -0.000011 0.000000 -1.780834
    11 11.481701 0.000000 0.000000 -0.860866 0.326196 -0.015649
    12 2.676086 -1.712440 0.000000 -1.570793 0.000003 -1.570792
    13 2.033341 1.000767 1.937660 2.412174 -1.487397 2.120583
    14 6.028140 0.000002 0.000000 -1.363445 0.471889 -0.874957
    15 11.692553 0.000000 0.000011 -0.000013 0.000000 -1.818559
    16 11.481667 0.000000 -0.000031 1.575391 -0.108951 -0.097558
    17 2.676086 -1.712440 0.000004 1.570793 0.000005 1.570793
    18 -3.890452 0.000004 0.000004 -1.327152 -0.337478 -1.436244
    19 17.848171 0.000000 0.000004 0.000009 0.000000 0.732681
    20 16.525251 0.000000 0.000004 -0.052791 0.186304 -1.550216
    21 6.879454 0.000000 0.000008 -0.081352 -0.002714 -0.587620
    22 3.890452 -0.000004 -0.000004 -1.926677 -0.648643 -1.369078
    23 17.848175 0.000000 -0.000004 0.000010 0.000000 1.626667
    24 16.525246 0.000000 0.000004 0.213685 0.014052 -1.325320
    25 6.879452 0.000000 0.000000 -0.007479 -0.002860 -0.560715
    26 3.859703 -0.142403 -1.191975 -0.568926 -0.013610 -1.526889
    27 1.312565 0.000001 0.000004 -0.086569 0.239740 -1.554263
    28 0.729362 0.000002 0.000004 -0.176890 0.315566 -1.429227
    29 3.942326 0.046774 -0.431438 0.030304 -0.060024 -1.757047
    30 1.539093 0.000001 0.000000 -0.058663 0.149388 -1.571890
    31 1.196320 -0.000001 0.000004 -0.107662 0.188362 -1.488327
    32 3.883686 -0.046767 0.431446 0.134425 0.056053 -1.771010
    33 1.719570 0.000002 0.000004 -0.030687 0.057172 -1.750786
    34 1.209183 -0.000001 -0.000004 -0.034252 0.059379 -1.537043
    35 3.859859 -0.137950 1.332462 0.524258 -0.087937 -1.819439
    36 1.719429 0.000002 0.000000 0.072020 -0.125287 -1.808335
    37 1.099670 0.000001 0.000004 0.072020 -0.125295 -0.669563
    38 0.806049 -0.348922 1.321259 -0.786547 -0.413953 -0.991999
    39 1.789787 0.000000 0.000004 0.004360 0.030237 0.718378
    40 1.207001 0.000000 -0.000004 0.102533 0.030240 0.502412
    41 3.859665 -0.132565 1.193108 0.693418 -0.009806 -1.600810
    42 1.312561 0.000000 0.000000 0.110761 -0.297055 -1.436131
    43 0.729366 0.000002 0.000000 0.157643 -0.341690 -1.408450
    44 3.942291 0.050330 0.431042 0.331339 -0.008608 -1.603808
    45 1.539097 0.000003 0.000000 0.050214 -0.153911 -1.591790
    46 1.196320 0.000000 0.000000 0.132537 -0.225779 -1.824896
    47 3.883648 -0.050325 -0.431044 -0.022374 -0.010304 -1.305812
    48 1.719574 -0.000005 0.000000 0.038733 -0.074557 -1.586292
    49 1.209183 -0.000001 0.000000 0.047516 -0.080001 -1.582137
    50 3.859825 -0.148935 -1.331284 -0.549062 -0.024858 -1.454209
    51 1.719425 0.000000 0.000000 -0.002107 0.024342 -1.684730
    52 1.099663 0.000000 0.000000 -0.007967 0.046800 -1.711623
    53 0.806015 -0.359835 -1.318335 1.200555 0.246503 -0.836612
    54 1.789780 0.000001 0.000000 0.046975 0.150711 0.289172
    55 1.207001 0.000000 0.000004 0.215983 -0.000003 0.942472
    56 3.643179 -1.117762 -6.586830 1.677301 0.043060 -2.001890
end
