// Created by Crowbar 0.71
version 1
nodes
  0 "ValveBiped.Bip01_Pelvis" -1
  1 "ValveBiped.Bip01_Spine" 0
  2 "ValveBiped.Bip01_Spine1" 1
  3 "ValveBiped.Bip01_Spine2" 2
  4 "ValveBiped.Bip01_Spine4" 3
  5 "ValveBiped.Bip01_Neck1" 4
  6 "ValveBiped.Bip01_Head1" 5
  7 "ValveBiped.forward" 6
  8 "ValveBiped.Bip01_R_Clavicle" 4
  9 "ValveBiped.Bip01_R_UpperArm" 8
  10 "ValveBiped.Bip01_R_Forearm" 9
  11 "ValveBiped.Bip01_R_Hand" 10
  12 "ValveBiped.Anim_Attachment_RH" 11
  13 "ValveBiped.Bip01_L_Clavicle" 4
  14 "ValveBiped.Bip01_L_UpperArm" 13
  15 "ValveBiped.Bip01_L_Forearm" 14
  16 "ValveBiped.Bip01_L_Hand" 15
  17 "ValveBiped.Anim_Attachment_LH" 16
  18 "ValveBiped.Bip01_R_Thigh" 0
  19 "ValveBiped.Bip01_R_Calf" 18
  20 "ValveBiped.Bip01_R_Foot" 19
  21 "ValveBiped.Bip01_R_Toe0" 20
  22 "ValveBiped.Bip01_L_Thigh" 0
  23 "ValveBiped.Bip01_L_Calf" 22
  24 "ValveBiped.Bip01_L_Foot" 23
  25 "ValveBiped.Bip01_L_Toe0" 24
  26 "ValveBiped.Bip01_L_Finger4" 16
  27 "ValveBiped.Bip01_L_Finger41" 26
  28 "ValveBiped.Bip01_L_Finger42" 27
  29 "ValveBiped.Bip01_L_Finger3" 16
  30 "ValveBiped.Bip01_L_Finger31" 29
  31 "ValveBiped.Bip01_L_Finger32" 30
  32 "ValveBiped.Bip01_L_Finger2" 16
  33 "ValveBiped.Bip01_L_Finger21" 32
  34 "ValveBiped.Bip01_L_Finger22" 33
  35 "ValveBiped.Bip01_L_Finger1" 16
  36 "ValveBiped.Bip01_L_Finger11" 35
  37 "ValveBiped.Bip01_L_Finger12" 36
  38 "ValveBiped.Bip01_L_Finger0" 16
  39 "ValveBiped.Bip01_L_Finger01" 38
  40 "ValveBiped.Bip01_L_Finger02" 39
  41 "ValveBiped.Bip01_R_Finger4" 11
  42 "ValveBiped.Bip01_R_Finger41" 41
  43 "ValveBiped.Bip01_R_Finger42" 42
  44 "ValveBiped.Bip01_R_Finger3" 11
  45 "ValveBiped.Bip01_R_Finger31" 44
  46 "ValveBiped.Bip01_R_Finger32" 45
  47 "ValveBiped.Bip01_R_Finger2" 11
  48 "ValveBiped.Bip01_R_Finger21" 47
  49 "ValveBiped.Bip01_R_Finger22" 48
  50 "ValveBiped.Bip01_R_Finger1" 11
  51 "ValveBiped.Bip01_R_Finger11" 50
  52 "ValveBiped.Bip01_R_Finger12" 51
  53 "ValveBiped.Bip01_R_Finger0" 11
  54 "ValveBiped.Bip01_R_Finger01" 53
  55 "ValveBiped.Bip01_R_Finger02" 54
  56 "ValveBiped.baton_parent" 11
end
skeleton
  time 0
    0 -0.002349 -0.531261 37.336411 1.570777 0.000007 -0.000052
    1 0.000005 3.345128 -2.981903 1.570790 0.086284 1.570789
    2 4.018331 0.000000 0.000000 0.031778 -0.056280 -0.069463
    3 3.518564 0.000000 0.000000 -0.131434 0.071512 0.142533
    4 8.942642 0.000000 0.000000 -0.015000 -0.038926 0.264624
    5 3.307269 0.000000 -0.000004 -2.940172 -0.142543 0.420470
    6 3.593710 -0.000001 -0.000004 0.001901 -0.122471 0.625103
    7 1.999994 -3.000001 0.000004 -1.570753 -0.000007 -1.326410
    8 2.033349 1.000771 -1.937607 -1.688728 1.147837 2.790133
    9 6.028143 0.000002 -0.000004 1.665868 0.041320 -0.700363
    10 11.692545 0.000000 0.000000 0.214178 0.005705 -1.664747
    11 11.481701 0.000000 0.000000 -1.605107 -0.192169 -0.199006
    12 2.676086 -1.712440 0.000000 -1.570753 -0.000007 -1.570752
    13 2.033341 1.000767 1.937660 0.320210 -1.329069 -2.545591
    14 6.028140 0.000002 0.000000 -1.643001 -0.230314 -1.163713
    15 11.692553 0.000000 0.000011 -0.189859 0.619857 -1.508460
    16 11.481667 0.000000 -0.000031 0.835173 -0.014261 -0.151440
    17 2.676086 -1.712440 0.000004 1.570753 0.000007 1.570752
    18 -3.890452 0.000004 0.000004 -1.568837 -0.194925 -1.633396
    19 17.848171 0.000000 0.000004 -0.010909 -0.003440 0.488329
    20 16.525251 0.000000 0.000004 0.038598 0.018589 -0.661918
    21 6.879454 0.000000 0.000008 -0.081332 -0.002951 -0.584373
    22 3.890452 -0.000004 -0.000004 -1.570727 -0.003768 -1.568227
    23 17.848175 0.000000 -0.000004 0.000010 0.000000 -0.001503
    24 16.525246 0.000000 0.000004 -0.045673 -0.017087 -1.129975
    25 6.879452 0.000000 0.000000 -0.005219 -0.002811 -0.539666
    26 3.859703 -0.142403 -1.191975 -0.479143 0.152189 -0.879872
    27 1.312565 0.000001 0.000004 0.000000 0.009664 -0.439719
    28 0.729362 0.000002 0.000004 -0.028979 0.117255 -0.451390
    29 3.942326 0.046774 -0.431438 -0.155013 0.073328 -0.810646
    30 1.539093 0.000001 0.000000 0.041407 0.089644 -0.699058
    31 1.196320 -0.000001 0.000004 -0.000002 0.007360 -0.430801
    32 3.883686 -0.046767 0.431446 0.812647 -0.191548 -1.550228
    33 1.719570 0.000002 0.000004 0.194938 -0.171308 -0.606847
    34 1.209183 -0.000001 -0.000004 0.409188 -0.306122 -0.737508
    35 3.859859 -0.137950 1.332462 0.716014 -0.200224 -1.353892
    36 1.719429 0.000002 0.000000 -0.000001 0.004072 -0.363008
    37 1.099670 0.000001 0.000004 0.133914 -0.229713 -0.543027
    38 0.806049 -0.348922 1.321259 -1.148537 -0.413342 -0.685814
    39 1.789787 0.000000 0.000004 0.143112 0.004764 0.680910
    40 1.207001 0.000000 -0.000004 -0.238537 -0.328321 0.202547
    41 3.859665 -0.132565 1.193108 0.479139 -0.158543 -0.879039
    42 1.312561 0.000000 0.000000 0.000000 -0.011932 -0.439671
    43 0.729366 0.000002 0.000000 0.000002 -0.006134 -0.244270
    44 3.942291 0.050330 0.431042 -0.174164 0.127577 -1.207787
    45 1.539097 0.000003 0.000000 0.000000 -0.005853 -0.247769
    46 1.196320 0.000000 0.000000 0.004942 -0.275387 -1.121008
    47 3.883648 -0.050325 -0.431044 -0.040059 -0.165983 -1.257799
    48 1.719574 -0.000005 0.000000 0.366781 -0.096847 -2.862813
    49 1.209183 -0.000001 0.000000 0.000001 -0.004461 -0.216374
    50 3.859825 -0.148935 -1.331284 -0.354417 0.038566 -0.532000
    51 1.719425 0.000000 0.000000 0.089602 0.216058 -1.899362
    52 1.099663 0.000000 0.000000 0.000002 -0.004208 -0.244311
    53 0.806015 -0.359835 -1.318335 0.934008 0.297778 -0.930654
    54 1.789780 0.000001 0.000000 0.009095 -0.315147 0.639494
    55 1.207001 0.000000 0.000004 0.000382 -0.070243 0.716387
    56 2.338451 -1.535743 -6.391512 1.520238 -0.094383 -2.001948
  time 1
    0 -0.002349 -0.667984 37.316879 1.570777 0.000007 -0.000052
    1 0.000005 3.345128 -2.981903 1.570790 0.086284 1.570789
    2 4.018331 0.000000 0.000000 0.027683 -0.056771 -0.073226
    3 3.518564 0.000000 0.000000 -0.131350 0.070973 0.144414
    4 8.942642 0.000000 0.000000 -0.017345 -0.039453 0.256817
    5 3.307269 0.000000 -0.000004 -2.940172 -0.142435 0.420206
    6 3.593710 -0.000001 -0.000004 0.009073 -0.121680 0.624998
    7 1.999994 -3.000001 0.000004 -1.570753 -0.000007 -1.326410
    8 2.033349 1.000771 -1.937607 -1.688728 1.147837 2.790133
    9 6.028143 0.000002 -0.000004 1.665868 0.041320 -0.700363
    10 11.692545 0.000000 0.000000 0.212668 0.003607 -1.659682
    11 11.481701 0.000000 0.000000 -1.605107 -0.192169 -0.199006
    12 2.676086 -1.712440 0.000000 -1.570753 -0.000007 -1.570752
    13 2.033341 1.000767 1.937660 0.389027 -1.370057 -2.646105
    14 6.028140 0.000002 0.000000 -1.652705 -0.255712 -1.151341
    15 11.692553 0.000000 0.000011 -0.190792 0.635827 -1.490486
    16 11.481667 0.000000 -0.000031 0.842708 -0.014261 -0.151440
    17 2.676086 -1.712440 0.000004 1.570753 0.000007 1.570752
    18 -3.890452 0.000004 0.000004 -1.569014 -0.200544 -1.633332
    19 17.848171 0.000000 0.000004 -0.010825 -0.003428 0.507539
    20 16.525251 0.000000 0.000004 0.038598 0.019072 -0.677200
    21 6.879454 0.000000 0.000008 -0.081332 -0.002951 -0.584373
    22 3.890452 -0.000004 -0.000004 -1.570727 -0.113716 -1.568159
    23 17.848175 0.000000 -0.000004 0.000010 0.000000 0.222436
    24 16.525246 0.000000 0.000004 -0.045644 -0.017232 -1.132749
    25 6.879452 0.000000 0.000000 -0.005219 -0.002811 -0.539666
    26 3.859703 -0.142403 -1.191975 -0.479143 0.152189 -0.879872
    27 1.312565 0.000001 0.000004 0.000000 0.009664 -0.439719
    28 0.729362 0.000002 0.000004 -0.028979 0.117255 -0.451390
    29 3.942326 0.046774 -0.431438 -0.155013 0.073328 -0.810646
    30 1.539093 0.000001 0.000000 0.041407 0.089644 -0.699058
    31 1.196320 -0.000001 0.000004 -0.000002 0.007360 -0.430801
    32 3.883686 -0.046767 0.431446 0.812647 -0.191548 -1.550228
    33 1.719570 0.000002 0.000004 0.194938 -0.171308 -0.606847
    34 1.209183 -0.000001 -0.000004 0.409188 -0.306122 -0.737508
    35 3.859859 -0.137950 1.332462 0.716014 -0.200224 -1.353892
    36 1.719429 0.000002 0.000000 -0.000001 0.004072 -0.363008
    37 1.099670 0.000001 0.000004 0.133914 -0.229713 -0.543027
    38 0.806049 -0.348922 1.321259 -1.148537 -0.413342 -0.685814
    39 1.789787 0.000000 0.000004 0.143112 0.004764 0.680910
    40 1.207001 0.000000 -0.000004 -0.238537 -0.328321 0.202547
    41 3.859665 -0.132565 1.193108 0.479139 -0.158543 -0.879039
    42 1.312561 0.000000 0.000000 0.000000 -0.011932 -0.439671
    43 0.729366 0.000002 0.000000 0.000002 -0.006134 -0.244270
    44 3.942291 0.050330 0.431042 -0.174164 0.127577 -1.207787
    45 1.539097 0.000003 0.000000 0.000000 -0.005853 -0.247769
    46 1.196320 0.000000 0.000000 0.004942 -0.275387 -1.121008
    47 3.883648 -0.050325 -0.431044 -0.040059 -0.165983 -1.257799
    48 1.719574 -0.000005 0.000000 0.366781 -0.096847 -2.862813
    49 1.209183 -0.000001 0.000000 0.000001 -0.004461 -0.216374
    50 3.859825 -0.148935 -1.331284 -0.354417 0.038566 -0.532000
    51 1.719425 0.000000 0.000000 0.089602 0.216058 -1.899362
    52 1.099663 0.000000 0.000000 0.000002 -0.004208 -0.244311
    53 0.806015 -0.359835 -1.318335 0.934008 0.297778 -0.930654
    54 1.789780 0.000001 0.000000 0.009095 -0.315147 0.639494
    55 1.207001 0.000000 0.000004 0.000382 -0.070243 0.716387
    56 2.338451 -1.535743 -6.391512 1.520238 -0.094383 -2.001948
  time 2
    0 -0.002349 -1.039089 37.250471 1.570777 0.000007 -0.000052
    1 0.000005 3.345128 -2.981903 1.570790 0.086284 1.570789
    2 4.018331 0.000000 0.000000 0.016709 -0.058077 -0.083281
    3 3.518564 0.000000 0.000000 -0.131086 0.069523 0.149448
    4 8.942642 0.000000 0.000000 -0.023640 -0.040879 0.235854
    5 3.307269 0.000000 -0.000004 -2.940172 -0.142160 0.419448
    6 3.593710 -0.000001 -0.000004 0.029534 -0.119438 0.624751
    7 1.999994 -3.000001 0.000004 -1.570753 -0.000007 -1.326410
    8 2.033349 1.000771 -1.937607 -1.688728 1.147837 2.790133
    9 6.028143 0.000002 -0.000004 1.665868 0.041320 -0.700363
    10 11.692545 0.000000 0.000000 0.208341 -0.002385 -1.645147
    11 11.481701 0.000000 0.000000 -1.605107 -0.192169 -0.199006
    12 2.676086 -1.712440 0.000000 -1.570753 -0.000007 -1.570752
    13 2.033341 1.000767 1.937660 0.490311 -1.430500 -2.794256
    14 6.028140 0.000002 0.000000 -1.678661 -0.323811 -1.118247
    15 11.692553 0.000000 0.000011 -0.193264 0.678633 -1.442300
    16 11.481667 0.000000 -0.000031 0.854556 -0.014261 -0.151440
    17 2.676086 -1.712440 0.000004 1.570753 0.000007 1.570752
    18 -3.890452 0.000004 0.000004 -1.569486 -0.216744 -1.633140
    19 17.848171 0.000000 0.000004 -0.010597 -0.003344 0.560611
    20 16.525251 0.000000 0.000004 0.038598 0.020329 -0.715155
    21 6.879454 0.000000 0.000008 -0.081332 -0.002951 -0.584373
    22 3.890452 -0.000004 -0.000004 -1.570727 -0.238180 -1.568159
    23 17.848175 0.000000 -0.000004 0.000010 0.000000 0.468912
    24 16.525246 0.000000 0.000004 -0.045556 -0.017576 -1.140225
    25 6.879452 0.000000 0.000000 -0.005219 -0.002811 -0.539666
    26 3.859703 -0.142403 -1.191975 -0.479143 0.152189 -0.879872
    27 1.312565 0.000001 0.000004 0.000000 0.009664 -0.439719
    28 0.729362 0.000002 0.000004 -0.028979 0.117255 -0.451390
    29 3.942326 0.046774 -0.431438 -0.155013 0.073328 -0.810646
    30 1.539093 0.000001 0.000000 0.041407 0.089644 -0.699058
    31 1.196320 -0.000001 0.000004 -0.000002 0.007360 -0.430801
    32 3.883686 -0.046767 0.431446 0.812647 -0.191548 -1.550228
    33 1.719570 0.000002 0.000004 0.194938 -0.171308 -0.606847
    34 1.209183 -0.000001 -0.000004 0.409188 -0.306122 -0.737508
    35 3.859859 -0.137950 1.332462 0.716014 -0.200224 -1.353892
    36 1.719429 0.000002 0.000000 -0.000001 0.004072 -0.363008
    37 1.099670 0.000001 0.000004 0.133914 -0.229713 -0.543027
    38 0.806049 -0.348922 1.321259 -1.148537 -0.413342 -0.685814
    39 1.789787 0.000000 0.000004 0.143112 0.004764 0.680910
    40 1.207001 0.000000 -0.000004 -0.238537 -0.328321 0.202547
    41 3.859665 -0.132565 1.193108 0.479139 -0.158543 -0.879039
    42 1.312561 0.000000 0.000000 0.000000 -0.011932 -0.439671
    43 0.729366 0.000002 0.000000 0.000002 -0.006134 -0.244270
    44 3.942291 0.050330 0.431042 -0.174164 0.127577 -1.207787
    45 1.539097 0.000003 0.000000 0.000000 -0.005853 -0.247769
    46 1.196320 0.000000 0.000000 0.004942 -0.275387 -1.121008
    47 3.883648 -0.050325 -0.431044 -0.040059 -0.165983 -1.257799
    48 1.719574 -0.000005 0.000000 0.366781 -0.096847 -2.862813
    49 1.209183 -0.000001 0.000000 0.000001 -0.004461 -0.216374
    50 3.859825 -0.148935 -1.331284 -0.354417 0.038566 -0.532000
    51 1.719425 0.000000 0.000000 0.089602 0.216058 -1.899362
    52 1.099663 0.000000 0.000000 0.000002 -0.004208 -0.244311
    53 0.806015 -0.359835 -1.318335 0.934008 0.297778 -0.930654
    54 1.789780 0.000001 0.000000 0.009095 -0.315147 0.639494
    55 1.207001 0.000000 0.000004 0.000382 -0.070243 0.716387
    56 2.338451 -1.535743 -6.391512 1.520238 -0.094383 -2.001948
  time 3
    0 -0.002349 -1.582075 37.152812 1.570777 0.000007 -0.000052
    1 0.000005 3.345128 -2.981903 1.570790 0.086284 1.570789
    2 4.018331 0.000000 0.000000 0.000836 -0.059971 -0.097854
    3 3.518564 0.000000 0.000000 -0.130726 0.067413 0.156734
    4 8.942642 0.000000 0.000000 -0.032764 -0.042929 0.205533
    5 3.307269 0.000000 -0.000004 -2.940172 -0.141704 0.418250
    6 3.593710 -0.000001 -0.000004 0.061812 -0.115903 0.624364
    7 1.999994 -3.000001 0.000004 -1.570753 -0.000007 -1.326410
    8 2.033349 1.000771 -1.937607 -1.688728 1.147837 2.790133
    9 6.028143 0.000002 -0.000004 1.665868 0.041320 -0.700363
    10 11.692545 0.000000 0.000000 0.201546 -0.011805 -1.622258
    11 11.481701 0.000000 0.000000 -1.605107 -0.192169 -0.199006
    12 2.676086 -1.712440 0.000000 -1.570753 -0.000007 -1.570752
    13 2.033341 1.000767 1.937660 0.613314 -1.503864 -2.974133
    14 6.028140 0.000002 0.000000 -1.716309 -0.422434 -1.070284
    15 11.692553 0.000000 0.000011 -0.196865 0.740622 -1.372574
    16 11.481667 0.000000 -0.000031 0.870051 -0.014261 -0.151440
    17 2.676086 -1.712440 0.000004 1.570753 0.000007 1.570752
    18 -3.890452 0.000004 0.000004 -1.570253 -0.240788 -1.632820
    19 17.848171 0.000000 0.000004 -0.010201 -0.003140 0.637526
    20 16.525251 0.000000 0.000004 0.038598 0.022055 -0.764422
    21 6.879454 0.000000 0.000008 -0.081332 -0.002951 -0.584373
    22 3.890452 -0.000004 -0.000004 -1.570727 -0.350989 -1.568021
    23 17.848175 0.000000 -0.000004 0.000010 0.000000 0.685338
    24 16.525246 0.000000 0.000004 -0.045439 -0.018082 -1.150957
    25 6.879452 0.000000 0.000000 -0.005219 -0.002811 -0.539666
    26 3.859703 -0.142403 -1.191975 -0.479143 0.152189 -0.879872
    27 1.312565 0.000001 0.000004 0.000000 0.009664 -0.439719
    28 0.729362 0.000002 0.000004 -0.028979 0.117255 -0.451390
    29 3.942326 0.046774 -0.431438 -0.155013 0.073328 -0.810646
    30 1.539093 0.000001 0.000000 0.041407 0.089644 -0.699058
    31 1.196320 -0.000001 0.000004 -0.000002 0.007360 -0.430801
    32 3.883686 -0.046767 0.431446 0.812647 -0.191548 -1.550228
    33 1.719570 0.000002 0.000004 0.194938 -0.171308 -0.606847
    34 1.209183 -0.000001 -0.000004 0.409188 -0.306122 -0.737508
    35 3.859859 -0.137950 1.332462 0.716014 -0.200224 -1.353892
    36 1.719429 0.000002 0.000000 -0.000001 0.004072 -0.363008
    37 1.099670 0.000001 0.000004 0.133914 -0.229713 -0.543027
    38 0.806049 -0.348922 1.321259 -1.148537 -0.413342 -0.685814
    39 1.789787 0.000000 0.000004 0.143112 0.004764 0.680910
    40 1.207001 0.000000 -0.000004 -0.238537 -0.328321 0.202547
    41 3.859665 -0.132565 1.193108 0.479139 -0.158543 -0.879039
    42 1.312561 0.000000 0.000000 0.000000 -0.011932 -0.439671
    43 0.729366 0.000002 0.000000 0.000002 -0.006134 -0.244270
    44 3.942291 0.050330 0.431042 -0.174164 0.127577 -1.207787
    45 1.539097 0.000003 0.000000 0.000000 -0.005853 -0.247769
    46 1.196320 0.000000 0.000000 0.004942 -0.275387 -1.121008
    47 3.883648 -0.050325 -0.431044 -0.040059 -0.165983 -1.257799
    48 1.719574 -0.000005 0.000000 0.366781 -0.096847 -2.862813
    49 1.209183 -0.000001 0.000000 0.000001 -0.004461 -0.216374
    50 3.859825 -0.148935 -1.331284 -0.354417 0.038566 -0.532000
    51 1.719425 0.000000 0.000000 0.089602 0.216058 -1.899362
    52 1.099663 0.000000 0.000000 0.000002 -0.004208 -0.244311
    53 0.806015 -0.359835 -1.318335 0.934008 0.297778 -0.930654
    54 1.789780 0.000001 0.000000 0.009095 -0.315147 0.639494
    55 1.207001 0.000000 0.000004 0.000382 -0.070243 0.716387
    56 2.338451 -1.535743 -6.391512 1.520238 -0.094383 -2.001948
  time 4
    0 -0.002349 -2.238345 37.023902 1.570777 0.000007 -0.000052
    1 0.000005 3.345128 -2.981903 1.570790 0.086284 1.570789
    2 4.018331 0.000000 0.000000 -0.017972 -0.062224 -0.115124
    3 3.518564 0.000000 0.000000 -0.130295 0.064921 0.165375
    4 8.942642 0.000000 0.000000 -0.043570 -0.045374 0.169572
    5 3.307269 0.000000 -0.000004 -2.940172 -0.141117 0.416683
    6 3.593710 -0.000001 -0.000004 0.104252 -0.111253 0.623837
    7 1.999994 -3.000001 0.000004 -1.570753 -0.000007 -1.326410
    8 2.033349 1.000771 -1.937607 -1.688728 1.147837 2.790133
    9 6.028143 0.000002 -0.000004 1.665868 0.041320 -0.700363
    10 11.692545 0.000000 0.000000 0.192593 -0.024221 -1.592135
    11 11.481701 0.000000 0.000000 -1.605107 -0.192169 -0.199006
    12 2.676086 -1.712440 0.000000 -1.570753 -0.000007 -1.570752
    13 2.033341 1.000767 1.937660 -2.394374 -1.557870 -0.028266
    14 6.028140 0.000002 0.000000 -1.760914 -0.539305 -1.013422
    15 11.692553 0.000000 0.000011 -0.201116 0.814074 -1.289909
    16 11.481667 0.000000 -0.000031 0.888645 -0.014261 -0.151440
    17 2.676086 -1.712440 0.000004 1.570753 0.000007 1.570752
    18 -3.890452 0.000004 0.000004 -1.571197 -0.270366 -1.632245
    19 17.848171 0.000000 0.000004 -0.009650 -0.002816 0.729392
    20 16.525251 0.000000 0.000004 0.038598 0.023971 -0.814593
    21 6.879454 0.000000 0.000008 -0.081332 -0.002951 -0.584373
    22 3.890452 -0.000004 -0.000004 -1.570645 -0.454288 -1.567952
    23 17.848175 0.000000 -0.000004 0.000010 0.000000 0.878099
    24 16.525246 0.000000 0.000004 -0.045292 -0.018697 -1.163739
    25 6.879452 0.000000 0.000000 -0.005219 -0.002811 -0.539666
    26 3.859703 -0.142403 -1.191975 -0.479143 0.152189 -0.879872
    27 1.312565 0.000001 0.000004 0.000000 0.009664 -0.439719
    28 0.729362 0.000002 0.000004 -0.028979 0.117255 -0.451390
    29 3.942326 0.046774 -0.431438 -0.155013 0.073328 -0.810646
    30 1.539093 0.000001 0.000000 0.041407 0.089644 -0.699058
    31 1.196320 -0.000001 0.000004 -0.000002 0.007360 -0.430801
    32 3.883686 -0.046767 0.431446 0.812647 -0.191548 -1.550228
    33 1.719570 0.000002 0.000004 0.194938 -0.171308 -0.606847
    34 1.209183 -0.000001 -0.000004 0.409188 -0.306122 -0.737508
    35 3.859859 -0.137950 1.332462 0.716014 -0.200224 -1.353892
    36 1.719429 0.000002 0.000000 -0.000001 0.004072 -0.363008
    37 1.099670 0.000001 0.000004 0.133914 -0.229713 -0.543027
    38 0.806049 -0.348922 1.321259 -1.148537 -0.413342 -0.685814
    39 1.789787 0.000000 0.000004 0.143112 0.004764 0.680910
    40 1.207001 0.000000 -0.000004 -0.238537 -0.328321 0.202547
    41 3.859665 -0.132565 1.193108 0.479139 -0.158543 -0.879039
    42 1.312561 0.000000 0.000000 0.000000 -0.011932 -0.439671
    43 0.729366 0.000002 0.000000 0.000002 -0.006134 -0.244270
    44 3.942291 0.050330 0.431042 -0.174164 0.127577 -1.207787
    45 1.539097 0.000003 0.000000 0.000000 -0.005853 -0.247769
    46 1.196320 0.000000 0.000000 0.004942 -0.275387 -1.121008
    47 3.883648 -0.050325 -0.431044 -0.040059 -0.165983 -1.257799
    48 1.719574 -0.000005 0.000000 0.366781 -0.096847 -2.862900
    49 1.209183 -0.000001 0.000000 0.000001 -0.004461 -0.216374
    50 3.859825 -0.148935 -1.331284 -0.354417 0.038566 -0.532000
    51 1.719425 0.000000 0.000000 0.089602 0.216058 -1.899362
    52 1.099663 0.000000 0.000000 0.000002 -0.004208 -0.244311
    53 0.806015 -0.359835 -1.318335 0.934008 0.297778 -0.930654
    54 1.789780 0.000001 0.000000 0.009095 -0.315147 0.639494
    55 1.207001 0.000000 0.000004 0.000382 -0.070243 0.716387
    56 2.338451 -1.535743 -6.391512 1.520238 -0.094383 -2.001948
  time 5
    0 -0.002349 -2.949304 36.879366 1.570777 0.000007 -0.000052
    1 0.000005 3.345128 -2.981903 1.570790 0.086284 1.570789
    2 4.018331 0.000000 0.000000 -0.037771 -0.064585 -0.133293
    3 3.518564 0.000000 0.000000 -0.129840 0.062296 0.174472
    4 8.942642 0.000000 0.000000 -0.054936 -0.047938 0.131735
    5 3.307269 0.000000 -0.000004 -2.940172 -0.140410 0.414780
    6 3.593710 -0.000001 -0.000004 0.155289 -0.105656 0.623203
    7 1.999994 -3.000001 0.000004 -1.570753 -0.000007 -1.326410
    8 2.033349 1.000771 -1.937607 -1.688728 1.147837 2.790133
    9 6.028143 0.000002 -0.000004 1.665868 0.041320 -0.700363
    10 11.692545 0.000000 0.000000 0.181831 -0.039142 -1.555960
    11 11.481701 0.000000 0.000000 -1.605107 -0.192169 -0.199006
    12 2.676086 -1.712440 0.000000 -1.570753 -0.000007 -1.570752
    13 2.033341 1.000767 1.937660 -2.260474 -1.478022 -0.224053
    14 6.028140 0.000002 0.000000 -1.807858 -0.662315 -0.953634
    15 11.692553 0.000000 0.000011 -0.205606 0.891370 -1.202908
    16 11.481667 0.000000 -0.000031 0.909669 -0.014261 -0.151440
    17 2.676086 -1.712440 0.000004 1.570753 0.000007 1.570752
    18 -3.890452 0.000004 0.000004 -1.572318 -0.303251 -1.631478
    19 17.848171 0.000000 0.000004 -0.008955 -0.002385 0.828807
    20 16.525251 0.000000 0.000004 0.038598 0.025931 -0.860491
    21 6.879454 0.000000 0.000008 -0.081332 -0.002951 -0.584373
    22 3.890452 -0.000004 -0.000004 -1.570645 -0.546522 -1.567884
    23 17.848175 0.000000 -0.000004 0.000010 0.000000 1.046131
    24 16.525246 0.000000 0.000004 -0.045131 -0.019330 -1.177184
    25 6.879452 0.000000 0.000000 -0.005219 -0.002811 -0.539666
    26 3.859703 -0.142403 -1.191975 -0.479143 0.152189 -0.879872
    27 1.312565 0.000001 0.000004 0.000000 0.009664 -0.439719
    28 0.729362 0.000002 0.000004 -0.028979 0.117255 -0.451390
    29 3.942326 0.046774 -0.431438 -0.155013 0.073328 -0.810646
    30 1.539093 0.000001 0.000000 0.041407 0.089644 -0.699058
    31 1.196320 -0.000001 0.000004 -0.000002 0.007360 -0.430801
    32 3.883686 -0.046767 0.431446 0.812647 -0.191548 -1.550228
    33 1.719570 0.000002 0.000004 0.194938 -0.171308 -0.606847
    34 1.209183 -0.000001 -0.000004 0.409188 -0.306122 -0.737508
    35 3.859859 -0.137950 1.332462 0.716014 -0.200224 -1.353892
    36 1.719429 0.000002 0.000000 -0.000001 0.004072 -0.363008
    37 1.099670 0.000001 0.000004 0.133914 -0.229713 -0.543027
    38 0.806049 -0.348922 1.321259 -1.148537 -0.413342 -0.685814
    39 1.789787 0.000000 0.000004 0.143112 0.004764 0.680910
    40 1.207001 0.000000 -0.000004 -0.238537 -0.328321 0.202547
    41 3.859665 -0.132565 1.193108 0.479139 -0.158543 -0.879039
    42 1.312561 0.000000 0.000000 0.000000 -0.011932 -0.439671
    43 0.729366 0.000002 0.000000 0.000002 -0.006134 -0.244270
    44 3.942291 0.050330 0.431042 -0.174164 0.127577 -1.207787
    45 1.539097 0.000003 0.000000 0.000000 -0.005853 -0.247769
    46 1.196320 0.000000 0.000000 0.004942 -0.275387 -1.121008
    47 3.883648 -0.050325 -0.431044 -0.040059 -0.165983 -1.257799
    48 1.719574 -0.000005 0.000000 0.366781 -0.096847 -2.862900
    49 1.209183 -0.000001 0.000000 0.000001 -0.004461 -0.216374
    50 3.859825 -0.148935 -1.331284 -0.354417 0.038566 -0.532000
    51 1.719425 0.000000 0.000000 0.089602 0.216058 -1.899362
    52 1.099663 0.000000 0.000000 0.000002 -0.004208 -0.244311
    53 0.806015 -0.359835 -1.318335 0.934008 0.297778 -0.930654
    54 1.789780 0.000001 0.000000 0.009095 -0.315147 0.639494
    55 1.207001 0.000000 0.000004 0.000382 -0.070243 0.716387
    56 2.338451 -1.535743 -6.391512 1.520238 -0.094383 -2.001948
  time 6
    0 -0.002349 -3.652450 36.715298 1.570777 0.000007 -0.000052
    1 0.000005 3.345128 -2.981903 1.570790 0.086284 1.570789
    2 4.018331 0.000000 0.000000 -0.056598 -0.066838 -0.150562
    3 3.518564 0.000000 0.000000 -0.129396 0.059791 0.183113
    4 8.942642 0.000000 0.000000 -0.065742 -0.050371 0.095789
    5 3.307269 0.000000 -0.000004 -2.940172 -0.139595 0.412631
    6 3.593710 -0.000001 -0.000004 0.213407 -0.099292 0.622499
    7 1.999994 -3.000001 0.000004 -1.570753 -0.000007 -1.326410
    8 2.033349 1.000771 -1.937607 -1.688728 1.147837 2.790133
    9 6.028143 0.000002 -0.000004 1.665868 0.041320 -0.700363
    10 11.692545 0.000000 0.000000 0.169583 -0.056124 -1.514787
    11 11.481701 0.000000 0.000000 -1.605107 -0.192169 -0.199006
    12 2.676086 -1.712440 0.000000 -1.570753 -0.000007 -1.570752
    13 2.033341 1.000767 1.937660 -2.137470 -1.404658 -0.403930
    14 6.028140 0.000002 0.000000 -1.852463 -0.779186 -0.896772
    15 11.692553 0.000000 0.000011 -0.209857 0.964856 -1.120243
    16 11.481667 0.000000 -0.000031 0.932576 -0.014261 -0.151440
    17 2.676086 -1.712440 0.000004 1.570753 0.000007 1.570752
    18 -3.890452 0.000004 0.000004 -1.573439 -0.338077 -1.630583
    19 17.848171 0.000000 0.000004 -0.008152 -0.001906 0.930614
    20 16.525251 0.000000 0.000004 0.038598 0.027846 -0.900155
    21 6.879454 0.000000 0.000008 -0.081332 -0.002951 -0.584373
    22 3.890452 -0.000004 -0.000004 -1.570645 -0.625290 -1.567746
    23 17.848175 0.000000 -0.000004 0.000010 0.000000 1.187681
    24 16.525246 0.000000 0.000004 -0.045000 -0.019926 -1.189965
    25 6.879452 0.000000 0.000000 -0.005219 -0.002811 -0.539666
    26 3.859703 -0.142403 -1.191975 -0.479143 0.152189 -0.879872
    27 1.312565 0.000001 0.000004 0.000000 0.009664 -0.439719
    28 0.729362 0.000002 0.000004 -0.028979 0.117255 -0.451390
    29 3.942326 0.046774 -0.431438 -0.155013 0.073328 -0.810646
    30 1.539093 0.000001 0.000000 0.041407 0.089644 -0.699058
    31 1.196320 -0.000001 0.000004 -0.000002 0.007360 -0.430801
    32 3.883686 -0.046767 0.431446 0.812672 -0.191548 -1.550228
    33 1.719570 0.000002 0.000004 0.194938 -0.171308 -0.606847
    34 1.209183 -0.000001 -0.000004 0.409188 -0.306122 -0.737508
    35 3.859859 -0.137950 1.332462 0.716036 -0.200224 -1.353892
    36 1.719429 0.000002 0.000000 -0.000001 0.004072 -0.363008
    37 1.099670 0.000001 0.000004 0.133914 -0.229713 -0.543027
    38 0.806049 -0.348922 1.321259 -1.148537 -0.413342 -0.685814
    39 1.789787 0.000000 0.000004 0.143112 0.004764 0.680910
    40 1.207001 0.000000 -0.000004 -0.238537 -0.328321 0.202547
    41 3.859665 -0.132565 1.193108 0.479139 -0.158543 -0.879039
    42 1.312561 0.000000 0.000000 0.000000 -0.011932 -0.439671
    43 0.729366 0.000002 0.000000 0.000002 -0.006134 -0.244270
    44 3.942291 0.050330 0.431042 -0.174164 0.127577 -1.207787
    45 1.539097 0.000003 0.000000 0.000000 -0.005853 -0.247769
    46 1.196320 0.000000 0.000000 0.004942 -0.275387 -1.121008
    47 3.883648 -0.050325 -0.431044 -0.040059 -0.165983 -1.257799
    48 1.719574 -0.000005 0.000000 0.366781 -0.096847 -2.862813
    49 1.209183 -0.000001 0.000000 0.000001 -0.004461 -0.216374
    50 3.859825 -0.148935 -1.331284 -0.354417 0.038566 -0.532000
    51 1.719425 0.000000 0.000000 0.089602 0.216058 -1.899362
    52 1.099663 0.000000 0.000000 0.000002 -0.004208 -0.244311
    53 0.806015 -0.359835 -1.318335 0.934008 0.297778 -0.930654
    54 1.789780 0.000001 0.000000 0.009095 -0.315147 0.639494
    55 1.207001 0.000000 0.000004 0.000382 -0.070243 0.716387
    56 2.338451 -1.535743 -6.391512 1.520238 -0.094383 -2.001948
  time 7
    0 -0.002349 -4.289188 36.547325 1.570777 0.000007 -0.000052
    1 0.000005 3.345128 -2.981903 1.570790 0.086284 1.570789
    2 4.018331 0.000000 0.000000 -0.072471 -0.068732 -0.165136
    3 3.518564 0.000000 0.000000 -0.129037 0.057694 0.190399
    4 8.942642 0.000000 0.000000 -0.074866 -0.052433 0.065453
    5 3.307269 0.000000 -0.000004 -2.940172 -0.138708 0.410288
    6 3.593710 -0.000001 -0.000004 0.276997 -0.092317 0.621725
    7 1.999994 -3.000001 0.000004 -1.570753 -0.000007 -1.326410
    8 2.033349 1.000771 -1.937607 -1.688728 1.147837 2.790133
    9 6.028143 0.000002 -0.000004 1.665868 0.041320 -0.700363
    10 11.692545 0.000000 0.000000 0.156172 -0.074724 -1.469668
    11 11.481701 0.000000 0.000000 -1.605107 -0.192169 -0.199006
    12 2.676086 -1.712440 0.000000 -1.570753 -0.000007 -1.570752
    13 2.033341 1.000767 1.937660 -2.036186 -1.344216 -0.552081
    14 6.028140 0.000002 0.000000 -1.890111 -0.877775 -0.848809
    15 11.692553 0.000000 0.000011 -0.213457 1.026812 -1.050516
    16 11.481667 0.000000 -0.000031 0.956639 -0.014261 -0.151440
    17 2.676086 -1.712440 0.000004 1.570753 0.000007 1.570752
    18 -3.890452 0.000004 0.000004 -1.574619 -0.374471 -1.629560
    19 17.848171 0.000000 0.000004 -0.007265 -0.001426 1.031673
    20 16.525251 0.000000 0.000004 0.038598 0.029689 -0.933435
    21 6.879454 0.000000 0.000008 -0.081332 -0.002951 -0.584373
    22 3.890452 -0.000004 -0.000004 -1.570645 -0.687312 -1.567609
    23 17.848175 0.000000 -0.000004 0.000010 0.000000 1.299493
    24 16.525246 0.000000 0.000004 -0.044868 -0.020451 -1.200758
    25 6.879452 0.000000 0.000000 -0.005219 -0.002811 -0.539666
    26 3.859703 -0.142403 -1.191975 -0.479143 0.152189 -0.879872
    27 1.312565 0.000001 0.000004 0.000000 0.009664 -0.439719
    28 0.729362 0.000002 0.000004 -0.028979 0.117255 -0.451390
    29 3.942326 0.046774 -0.431438 -0.155013 0.073328 -0.810646
    30 1.539093 0.000001 0.000000 0.041407 0.089644 -0.699058
    31 1.196320 -0.000001 0.000004 -0.000002 0.007360 -0.430801
    32 3.883686 -0.046767 0.431446 0.812647 -0.191548 -1.550228
    33 1.719570 0.000002 0.000004 0.194938 -0.171308 -0.606847
    34 1.209183 -0.000001 -0.000004 0.409188 -0.306122 -0.737508
    35 3.859859 -0.137950 1.332462 0.716014 -0.200224 -1.353892
    36 1.719429 0.000002 0.000000 -0.000001 0.004072 -0.363008
    37 1.099670 0.000001 0.000004 0.133914 -0.229713 -0.543027
    38 0.806049 -0.348922 1.321259 -1.148537 -0.413342 -0.685814
    39 1.789787 0.000000 0.000004 0.143112 0.004764 0.680910
    40 1.207001 0.000000 -0.000004 -0.238537 -0.328321 0.202547
    41 3.859665 -0.132565 1.193108 0.479139 -0.158543 -0.879039
    42 1.312561 0.000000 0.000000 0.000000 -0.011932 -0.439671
    43 0.729366 0.000002 0.000000 0.000002 -0.006134 -0.244270
    44 3.942291 0.050330 0.431042 -0.174164 0.127577 -1.207787
    45 1.539097 0.000003 0.000000 0.000000 -0.005853 -0.247769
    46 1.196320 0.000000 0.000000 0.004942 -0.275387 -1.121008
    47 3.883648 -0.050325 -0.431044 -0.040059 -0.165983 -1.257799
    48 1.719574 -0.000005 0.000000 0.366781 -0.096847 -2.862813
    49 1.209183 -0.000001 0.000000 0.000001 -0.004461 -0.216374
    50 3.859825 -0.148935 -1.331284 -0.354417 0.038566 -0.532000
    51 1.719425 0.000000 0.000000 0.089602 0.216058 -1.899362
    52 1.099663 0.000000 0.000000 0.000002 -0.004208 -0.244311
    53 0.806015 -0.359835 -1.318335 0.934008 0.297778 -0.930654
    54 1.789780 0.000001 0.000000 0.009095 -0.315147 0.639494
    55 1.207001 0.000000 0.000004 0.000382 -0.070243 0.716387
    56 2.338451 -1.535743 -6.391512 1.520238 -0.094383 -2.001948
  time 8
    0 -0.002349 -4.793110 36.379351 1.570777 0.000007 -0.000052
    1 0.000005 3.345128 -2.981903 1.570790 0.086284 1.570789
    2 4.018331 0.000000 0.000000 -0.083446 -0.070038 -0.175203
    3 3.518564 0.000000 0.000000 -0.128785 0.056232 0.195445
    4 8.942642 0.000000 0.000000 -0.081161 -0.053847 0.044506
    5 3.307269 0.000000 -0.000004 -2.940172 -0.137773 0.407787
    6 3.593710 -0.000001 -0.000004 0.344496 -0.084923 0.620881
    7 1.999994 -3.000001 0.000004 -1.570753 -0.000007 -1.326410
    8 2.033349 1.000771 -1.937607 -1.688728 1.147837 2.790133
    9 6.028143 0.000002 -0.000004 1.665868 0.041320 -0.700363
    10 11.692545 0.000000 0.000000 0.141934 -0.094451 -1.421852
    11 11.481701 0.000000 0.000000 -1.605107 -0.192169 -0.199006
    12 2.676086 -1.712440 0.000000 -1.570753 -0.000007 -1.570752
    13 2.033341 1.000767 1.937660 -1.967370 -1.303179 -0.652595
    14 6.028140 0.000002 0.000000 -1.916126 -0.945908 -0.815676
    15 11.692553 0.000000 0.000011 -0.215930 1.069618 -1.002330
    16 11.481667 0.000000 -0.000031 0.981369 -0.014261 -0.151440
    17 2.676086 -1.712440 0.000004 1.570753 0.000007 1.570752
    18 -3.890452 0.000004 0.000004 -1.575622 -0.412833 -1.628473
    19 17.848171 0.000000 0.000004 -0.006318 -0.000995 1.130116
    20 16.525251 0.000000 0.000004 0.038598 0.031459 -0.960732
    21 6.879454 0.000000 0.000008 -0.081332 -0.002951 -0.584373
    22 3.890452 -0.000004 -0.000004 -1.570401 -0.728253 -1.567677
    23 17.848175 0.000000 -0.000004 0.000010 0.000000 1.377249
    24 16.525246 0.000000 0.000004 -0.044795 -0.020794 -1.208234
    25 6.879452 0.000000 0.000000 -0.005219 -0.002811 -0.539666
    26 3.859703 -0.142403 -1.191975 -0.479143 0.152189 -0.879872
    27 1.312565 0.000001 0.000004 0.000000 0.009664 -0.439719
    28 0.729362 0.000002 0.000004 -0.028979 0.117255 -0.451390
    29 3.942326 0.046774 -0.431438 -0.155013 0.073328 -0.810646
    30 1.539093 0.000001 0.000000 0.041407 0.089644 -0.699058
    31 1.196320 -0.000001 0.000004 -0.000002 0.007360 -0.430801
    32 3.883686 -0.046767 0.431446 0.812647 -0.191548 -1.550228
    33 1.719570 0.000002 0.000004 0.194938 -0.171308 -0.606847
    34 1.209183 -0.000001 -0.000004 0.409188 -0.306122 -0.737508
    35 3.859859 -0.137950 1.332462 0.716014 -0.200224 -1.353892
    36 1.719429 0.000002 0.000000 -0.000001 0.004072 -0.363008
    37 1.099670 0.000001 0.000004 0.133914 -0.229713 -0.543027
    38 0.806049 -0.348922 1.321259 -1.148537 -0.413342 -0.685814
    39 1.789787 0.000000 0.000004 0.143112 0.004764 0.680910
    40 1.207001 0.000000 -0.000004 -0.238537 -0.328321 0.202547
    41 3.859665 -0.132565 1.193108 0.479139 -0.158543 -0.879039
    42 1.312561 0.000000 0.000000 0.000000 -0.011932 -0.439671
    43 0.729366 0.000002 0.000000 0.000002 -0.006134 -0.244270
    44 3.942291 0.050330 0.431042 -0.174164 0.127577 -1.207787
    45 1.539097 0.000003 0.000000 0.000000 -0.005853 -0.247769
    46 1.196320 0.000000 0.000000 0.004942 -0.275387 -1.121008
    47 3.883648 -0.050325 -0.431044 -0.040059 -0.165983 -1.257799
    48 1.719574 -0.000005 0.000000 0.366781 -0.096847 -2.862813
    49 1.209183 -0.000001 0.000000 0.000001 -0.004461 -0.216374
    50 3.859825 -0.148935 -1.331284 -0.354417 0.038566 -0.532000
    51 1.719425 0.000000 0.000000 0.089602 0.216058 -1.899362
    52 1.099663 0.000000 0.000000 0.000002 -0.004208 -0.244311
    53 0.806015 -0.359835 -1.318335 0.934008 0.297778 -0.930654
    54 1.789780 0.000001 0.000000 0.009095 -0.315147 0.639494
    55 1.207001 0.000000 0.000004 0.000382 -0.070243 0.716387
    56 2.338451 -1.535743 -6.391512 1.520238 -0.094383 -2.001948
  time 9
    0 -0.002349 -5.113432 36.215283 1.570777 0.000007 -0.000052
    1 0.000005 3.345128 -2.981903 1.570790 0.086284 1.570789
    2 4.018331 0.000000 0.000000 -0.087540 -0.070529 -0.178954
    3 3.518564 0.000000 0.000000 -0.128689 0.055692 0.197314
    4 8.942642 0.000000 0.000000 -0.083506 -0.054386 0.036684
    5 3.307269 0.000000 -0.000004 -2.940172 -0.136803 0.405198
    6 3.593710 -0.000001 -0.000004 0.414339 -0.077265 0.620036
    7 1.999994 -3.000001 0.000004 -1.570753 -0.000007 -1.326410
    8 2.033349 1.000771 -1.937607 -1.688728 1.147837 2.790133
    9 6.028143 0.000002 -0.000004 1.665868 0.041320 -0.700363
    10 11.692545 0.000000 0.000000 0.127205 -0.114872 -1.372326
    11 11.481701 0.000000 0.000000 -1.605107 -0.192169 -0.199006
    12 2.676086 -1.712440 0.000000 -1.570753 -0.000007 -1.570752
    13 2.033341 1.000767 1.937660 -1.942068 -1.288080 -0.689657
    14 6.028140 0.000002 0.000000 -1.925830 -0.971306 -0.803343
    15 11.692553 0.000000 0.000011 -0.216862 1.085620 -0.984356
    16 11.481667 0.000000 -0.000031 1.006039 -0.014261 -0.151440
    17 2.676086 -1.712440 0.000004 1.570753 0.000007 1.570752
    18 -3.890452 0.000004 0.000004 -1.576507 -0.454104 -1.627387
    19 17.848171 0.000000 0.000004 -0.005336 -0.000623 1.225046
    20 16.525251 0.000000 0.000004 0.038598 0.033126 -0.982952
    21 6.879454 0.000000 0.000008 -0.081332 -0.002951 -0.584373
    22 3.890452 -0.000004 -0.000004 -1.570564 -0.743064 -1.567471
    23 17.848175 0.000000 -0.000004 0.000010 0.000000 1.415125
    24 16.525246 0.000000 0.000004 -0.044751 -0.020921 -1.211007
    25 6.879452 0.000000 0.000000 -0.005219 -0.002811 -0.539666
    26 3.859703 -0.142403 -1.191975 -0.479143 0.152189 -0.879872
    27 1.312565 0.000001 0.000004 0.000000 0.009664 -0.439719
    28 0.729362 0.000002 0.000004 -0.028979 0.117255 -0.451390
    29 3.942326 0.046774 -0.431438 -0.155013 0.073328 -0.810646
    30 1.539093 0.000001 0.000000 0.041407 0.089644 -0.699058
    31 1.196320 -0.000001 0.000004 -0.000002 0.007360 -0.430801
    32 3.883686 -0.046767 0.431446 0.812647 -0.191548 -1.550228
    33 1.719570 0.000002 0.000004 0.194938 -0.171308 -0.606847
    34 1.209183 -0.000001 -0.000004 0.409188 -0.306122 -0.737508
    35 3.859859 -0.137950 1.332462 0.716014 -0.200224 -1.353892
    36 1.719429 0.000002 0.000000 -0.000001 0.004072 -0.363008
    37 1.099670 0.000001 0.000004 0.133914 -0.229713 -0.543027
    38 0.806049 -0.348922 1.321259 -1.148537 -0.413342 -0.685814
    39 1.789787 0.000000 0.000004 0.143112 0.004764 0.680910
    40 1.207001 0.000000 -0.000004 -0.238537 -0.328321 0.202547
    41 3.859665 -0.132565 1.193108 0.479139 -0.158543 -0.879039
    42 1.312561 0.000000 0.000000 0.000000 -0.011932 -0.439671
    43 0.729366 0.000002 0.000000 0.000002 -0.006134 -0.244270
    44 3.942291 0.050330 0.431042 -0.174164 0.127577 -1.207787
    45 1.539097 0.000003 0.000000 0.000000 -0.005853 -0.247769
    46 1.196320 0.000000 0.000000 0.004942 -0.275387 -1.121008
    47 3.883648 -0.050325 -0.431044 -0.040059 -0.165983 -1.257799
    48 1.719574 -0.000005 0.000000 0.366781 -0.096847 -2.862813
    49 1.209183 -0.000001 0.000000 0.000001 -0.004461 -0.216374
    50 3.859825 -0.148935 -1.331284 -0.354417 0.038566 -0.532000
    51 1.719425 0.000000 0.000000 0.089602 0.216058 -1.899362
    52 1.099663 0.000000 0.000000 0.000002 -0.004208 -0.244311
    53 0.806015 -0.359835 -1.318335 0.934008 0.297778 -0.930654
    54 1.789780 0.000001 0.000000 0.009095 -0.315147 0.639494
    55 1.207001 0.000000 0.000004 0.000382 -0.070243 0.716387
    56 2.338451 -1.535743 -6.391512 1.520238 -0.094383 -2.001948
  time 10
    0 -0.002349 -5.230623 35.875429 1.570777 0.000007 -0.000052
    1 0.000005 3.345128 -2.981903 1.570790 0.086284 1.570789
    2 4.018331 0.000000 0.000000 -0.100104 -0.068025 -0.169798
    3 3.518564 0.000000 0.000000 -0.128761 0.052948 0.196212
    4 8.942642 0.000000 0.000000 -0.092706 -0.053248 0.043261
    5 3.307269 0.000000 -0.000004 -2.940172 -0.135820 0.402591
    6 3.593710 -0.000001 -0.000004 0.484964 -0.069523 0.619156
    7 1.999994 -3.000001 0.000004 -1.570753 -0.000007 -1.326410
    8 2.033349 1.000771 -1.937607 -1.688728 1.147837 2.790133
    9 6.028143 0.000002 -0.000004 1.665868 0.041320 -0.700363
    10 11.692545 0.000000 0.000000 0.112309 -0.135522 -1.322208
    11 11.481701 0.000000 0.000000 -1.605107 -0.192169 -0.199006
    12 2.676086 -1.712440 0.000000 -1.570753 -0.000007 -1.570752
    13 2.033341 1.000767 1.937660 -1.967370 -1.303179 -0.652595
    14 6.028140 0.000002 0.000000 -1.914489 -0.933259 -0.797060
    15 11.692553 0.000000 0.000011 -0.215279 1.075515 -0.996035
    16 11.481667 0.000000 -0.000031 1.030162 -0.014261 -0.151440
    17 2.676086 -1.712440 0.000004 1.570753 0.000007 1.570752
    18 -3.890452 0.000004 0.000004 -1.577274 -0.507469 -1.626428
    19 17.848171 0.000000 0.000004 -0.004125 -0.000276 1.334328
    20 16.525251 0.000000 0.000004 0.038598 0.035042 -1.003664
    21 6.879454 0.000000 0.000008 -0.081332 -0.002951 -0.584373
    22 3.890452 -0.000004 -0.000004 -1.570482 -0.625206 -1.567884
    23 17.848175 0.000000 -0.000004 0.000010 0.000000 1.075054
    24 16.525246 0.000000 0.000004 -0.044282 -0.021482 -1.225960
    25 6.879452 0.000000 0.000000 -0.005219 -0.002811 -0.539666
    26 3.859703 -0.142403 -1.191975 -0.479143 0.152189 -0.879872
    27 1.312565 0.000001 0.000004 0.000000 0.009664 -0.439719
    28 0.729362 0.000002 0.000004 -0.028979 0.117255 -0.451390
    29 3.942326 0.046774 -0.431438 -0.155013 0.073328 -0.810646
    30 1.539093 0.000001 0.000000 0.041407 0.089644 -0.699058
    31 1.196320 -0.000001 0.000004 -0.000002 0.007360 -0.430801
    32 3.883686 -0.046767 0.431446 0.812647 -0.191548 -1.550228
    33 1.719570 0.000002 0.000004 0.194938 -0.171308 -0.606847
    34 1.209183 -0.000001 -0.000004 0.409188 -0.306122 -0.737508
    35 3.859859 -0.137950 1.332462 0.716014 -0.200224 -1.353892
    36 1.719429 0.000002 0.000000 -0.000001 0.004072 -0.363008
    37 1.099670 0.000001 0.000004 0.133914 -0.229713 -0.543027
    38 0.806049 -0.348922 1.321259 -1.148537 -0.413342 -0.685814
    39 1.789787 0.000000 0.000004 0.143112 0.004764 0.680910
    40 1.207001 0.000000 -0.000004 -0.238537 -0.328321 0.202547
    41 3.859665 -0.132565 1.193108 0.479139 -0.158543 -0.879039
    42 1.312561 0.000000 0.000000 0.000000 -0.011932 -0.439671
    43 0.729366 0.000002 0.000000 0.000002 -0.006134 -0.244270
    44 3.942291 0.050330 0.431042 -0.174164 0.127577 -1.207787
    45 1.539097 0.000003 0.000000 0.000000 -0.005853 -0.247769
    46 1.196320 0.000000 0.000000 0.004942 -0.275387 -1.121008
    47 3.883648 -0.050325 -0.431044 -0.040059 -0.165983 -1.257799
    48 1.719574 -0.000005 0.000000 0.366781 -0.096847 -2.862813
    49 1.209183 -0.000001 0.000000 0.000001 -0.004461 -0.216374
    50 3.859825 -0.148935 -1.331284 -0.354417 0.038566 -0.532000
    51 1.719425 0.000000 0.000000 0.089602 0.216058 -1.899362
    52 1.099663 0.000000 0.000000 0.000002 -0.004208 -0.244311
    53 0.806015 -0.359835 -1.318335 0.934008 0.297778 -0.930654
    54 1.789780 0.000001 0.000000 0.009095 -0.315147 0.639494
    55 1.207001 0.000000 0.000004 0.000382 -0.070243 0.716387
    56 2.338451 -1.535743 -6.391512 1.520238 -0.094383 -2.001948
  time 11
    0 -0.002349 -5.250155 35.613702 1.570777 0.000007 -0.000052
    1 0.000005 3.345128 -2.981903 1.570790 0.086284 1.570789
    2 4.018331 0.000000 0.000000 -0.134187 -0.061241 -0.144930
    3 3.518564 0.000000 0.000000 -0.128953 0.045494 0.193192
    4 8.942642 0.000000 0.000000 -0.117656 -0.050156 0.061119
    5 3.307269 0.000000 -0.000004 -2.940172 -0.134849 0.400001
    6 3.593710 -0.000001 -0.000004 0.554853 -0.061876 0.618312
    7 1.999994 -3.000001 0.000004 -1.570800 -0.000007 -1.326410
    8 2.033349 1.000771 -1.937607 -1.688728 1.147837 2.790133
    9 6.028143 0.000002 -0.000004 1.665868 0.041320 -0.700363
    10 11.692545 0.000000 0.000000 0.097580 -0.155943 -1.272748
    11 11.481701 0.000000 0.000000 -1.605107 -0.192169 -0.199006
    12 2.676086 -1.712440 0.000000 -1.570753 -0.000007 -1.570752
    13 2.033341 1.000767 1.937660 -2.036186 -1.344216 -0.552081
    14 6.028140 0.000002 0.000000 -1.885317 -0.835176 -0.779342
    15 11.692553 0.000000 0.000011 -0.211006 1.048182 -1.027927
    16 11.481667 0.000000 -0.000031 1.053009 -0.014261 -0.151440
    17 2.676086 -1.712440 0.000004 1.570753 0.000007 1.570752
    18 -3.890452 0.000004 0.000004 -1.577982 -0.555614 -1.625405
    19 17.848171 0.000000 0.000004 -0.002999 0.000000 1.429258
    20 16.525251 0.000000 0.000004 0.038598 0.036694 -1.018444
    21 6.879454 0.000000 0.000008 -0.081332 -0.002951 -0.584373
    22 3.890452 -0.000004 -0.000004 -1.570401 -0.412927 -1.568159
    23 17.848175 0.000000 -0.000004 0.000010 0.000000 0.554117
    24 16.525246 0.000000 0.000004 -0.043008 -0.023001 -1.266415
    25 6.879452 0.000000 0.000000 -0.005219 -0.002811 -0.539666
    26 3.859703 -0.142403 -1.191975 -0.479143 0.152189 -0.879872
    27 1.312565 0.000001 0.000004 0.000000 0.009664 -0.439719
    28 0.729362 0.000002 0.000004 -0.028979 0.117255 -0.451390
    29 3.942326 0.046774 -0.431438 -0.155013 0.073328 -0.810646
    30 1.539093 0.000001 0.000000 0.041407 0.089644 -0.699058
    31 1.196320 -0.000001 0.000004 -0.000002 0.007360 -0.430801
    32 3.883686 -0.046767 0.431446 0.812647 -0.191548 -1.550228
    33 1.719570 0.000002 0.000004 0.194938 -0.171308 -0.606847
    34 1.209183 -0.000001 -0.000004 0.409188 -0.306122 -0.737508
    35 3.859859 -0.137950 1.332462 0.716014 -0.200224 -1.353892
    36 1.719429 0.000002 0.000000 -0.000001 0.004072 -0.363008
    37 1.099670 0.000001 0.000004 0.133914 -0.229713 -0.543027
    38 0.806049 -0.348922 1.321259 -1.148537 -0.413342 -0.685814
    39 1.789787 0.000000 0.000004 0.143112 0.004764 0.680910
    40 1.207001 0.000000 -0.000004 -0.238537 -0.328321 0.202547
    41 3.859665 -0.132565 1.193108 0.479139 -0.158543 -0.879039
    42 1.312561 0.000000 0.000000 0.000000 -0.011932 -0.439671
    43 0.729366 0.000002 0.000000 0.000002 -0.006134 -0.244270
    44 3.942291 0.050330 0.431042 -0.174164 0.127577 -1.207787
    45 1.539097 0.000003 0.000000 0.000000 -0.005853 -0.247769
    46 1.196320 0.000000 0.000000 0.004942 -0.275387 -1.121008
    47 3.883648 -0.050325 -0.431044 -0.040059 -0.165983 -1.257799
    48 1.719574 -0.000005 0.000000 0.366781 -0.096847 -2.862813
    49 1.209183 -0.000001 0.000000 0.000001 -0.004461 -0.216374
    50 3.859825 -0.148935 -1.331284 -0.354417 0.038566 -0.532000
    51 1.719425 0.000000 0.000000 0.089602 0.216058 -1.899362
    52 1.099663 0.000000 0.000000 0.000002 -0.004208 -0.244311
    53 0.806015 -0.359835 -1.318335 0.934008 0.297778 -0.930654
    54 1.789780 0.000001 0.000000 0.009095 -0.315147 0.639494
    55 1.207001 0.000000 0.000004 0.000382 -0.070243 0.716387
    56 2.338451 -1.535743 -6.391512 1.520238 -0.094383 -2.001948
  time 12
    0 -0.002349 -4.859518 34.445698 1.570777 0.000007 -0.000052
    1 0.000005 3.345128 -2.981903 1.570790 0.086284 1.570789
    2 4.018331 0.000000 0.000000 -0.184441 -0.051234 -0.108281
    3 3.518564 0.000000 0.000000 -0.129228 0.034504 0.188733
    4 8.942642 0.000000 0.000000 -0.154445 -0.045613 0.087429
    5 3.307269 0.000000 -0.000004 -2.940268 -0.133902 0.397500
    6 3.593710 -0.000001 -0.000004 0.622351 -0.054470 0.617467
    7 1.999994 -3.000001 0.000004 -1.570753 -0.000007 -1.326410
    8 2.033349 1.000771 -1.937607 -1.688728 1.147837 2.790133
    9 6.028143 0.000002 -0.000004 1.665868 0.041320 -0.700363
    10 11.692545 0.000000 0.000000 0.083342 -0.175682 -1.224866
    11 11.481701 0.000000 0.000000 -1.605107 -0.192169 -0.199006
    12 2.676086 -1.712440 0.000000 -1.570753 -0.000007 -1.570752
    13 2.033341 1.000767 1.937660 -2.137470 -1.404658 -0.403930
    14 6.028140 0.000002 0.000000 -1.845448 -0.701069 -0.751828
    15 11.692553 0.000000 0.000011 -0.204716 1.007894 -1.074924
    16 11.481667 0.000000 -0.000031 1.074033 -0.014261 -0.151440
    17 2.676086 -1.712440 0.000004 1.570753 0.000007 1.570752
    18 -3.890452 0.000004 0.000004 -1.580756 -0.641579 -1.624766
    19 17.848171 0.000000 0.000004 -0.000578 0.000000 1.618221
    20 16.525251 0.000000 0.000004 0.038598 0.040014 -1.039658
    21 6.879454 0.000000 0.000008 -0.081332 -0.002951 -0.584373
    22 3.890452 -0.000004 -0.000004 -1.570238 -0.525399 -1.568159
    23 17.848175 0.000000 -0.000004 0.000010 0.000000 0.752763
    24 16.525246 0.000000 0.000004 -0.041120 -0.025207 -1.326164
    25 6.879452 0.000000 0.000000 -0.005219 -0.002811 -0.539666
    26 3.859703 -0.142403 -1.191975 -0.479143 0.152189 -0.879872
    27 1.312565 0.000001 0.000004 0.000000 0.009664 -0.439719
    28 0.729362 0.000002 0.000004 -0.028979 0.117255 -0.451390
    29 3.942326 0.046774 -0.431438 -0.155013 0.073328 -0.810646
    30 1.539093 0.000001 0.000000 0.041407 0.089644 -0.699058
    31 1.196320 -0.000001 0.000004 -0.000002 0.007360 -0.430801
    32 3.883686 -0.046767 0.431446 0.812647 -0.191548 -1.550228
    33 1.719570 0.000002 0.000004 0.194938 -0.171308 -0.606847
    34 1.209183 -0.000001 -0.000004 0.409188 -0.306122 -0.737508
    35 3.859859 -0.137950 1.332462 0.716014 -0.200224 -1.353892
    36 1.719429 0.000002 0.000000 -0.000001 0.004072 -0.363008
    37 1.099670 0.000001 0.000004 0.133914 -0.229713 -0.543027
    38 0.806049 -0.348922 1.321259 -1.148537 -0.413342 -0.685814
    39 1.789787 0.000000 0.000004 0.143112 0.004764 0.680910
    40 1.207001 0.000000 -0.000004 -0.238537 -0.328321 0.202547
    41 3.859665 -0.132565 1.193108 0.479139 -0.158543 -0.879039
    42 1.312561 0.000000 0.000000 0.000000 -0.011932 -0.439671
    43 0.729366 0.000002 0.000000 0.000002 -0.006134 -0.244270
    44 3.942291 0.050330 0.431042 -0.174164 0.127577 -1.207787
    45 1.539097 0.000003 0.000000 0.000000 -0.005853 -0.247769
    46 1.196320 0.000000 0.000000 0.004942 -0.275387 -1.121008
    47 3.883648 -0.050325 -0.431044 -0.040059 -0.165983 -1.257799
    48 1.719574 -0.000005 0.000000 0.366781 -0.096847 -2.862813
    49 1.209183 -0.000001 0.000000 0.000001 -0.004461 -0.216374
    50 3.859825 -0.148935 -1.331284 -0.354417 0.038566 -0.532000
    51 1.719425 0.000000 0.000000 0.089602 0.216058 -1.899362
    52 1.099663 0.000000 0.000000 0.000002 -0.004208 -0.244311
    53 0.806015 -0.359835 -1.318335 0.934008 0.297778 -0.930654
    54 1.789780 0.000001 0.000000 0.009095 -0.315147 0.639494
    55 1.207001 0.000000 0.000004 0.000382 -0.070243 0.716387
    56 2.338451 -1.535743 -6.391512 1.520238 -0.094383 -2.001948
  time 13
    0 -0.002349 -3.976679 31.679989 1.570777 0.000007 -0.000052
    1 0.000005 3.345128 -2.981903 1.570790 0.086284 1.570789
    2 4.018331 0.000000 0.000000 -0.245446 -0.039094 -0.063782
    3 3.518564 0.000000 0.000000 -0.129576 0.021153 0.183328
    4 8.942642 0.000000 0.000000 -0.199096 -0.040088 0.119380
    5 3.307269 0.000000 -0.000004 -2.940268 -0.133015 0.395139
    6 3.593710 -0.000001 -0.000004 0.685941 -0.047507 0.616693
    7 1.999994 -3.000001 0.000004 -1.570753 -0.000007 -1.326410
    8 2.033349 1.000771 -1.937607 -1.688728 1.147837 2.790133
    9 6.028143 0.000002 -0.000004 1.665868 0.041320 -0.700363
    10 11.692545 0.000000 0.000000 0.069943 -0.194270 -1.179746
    11 11.481701 0.000000 0.000000 -1.605107 -0.192169 -0.199006
    12 2.676086 -1.712440 0.000000 -1.570753 -0.000007 -1.570752
    13 2.033341 1.000767 1.937660 -2.260474 -1.478022 -0.224053
    14 6.028140 0.000002 0.000000 -1.801953 -0.554955 -0.716041
    15 11.692553 0.000000 0.000011 -0.197060 0.958992 -1.131922
    16 11.481667 0.000000 -0.000031 1.092627 -0.014261 -0.151440
    17 2.676086 -1.712440 0.000004 1.570753 0.000007 1.570752
    18 -3.890452 0.000004 0.000004 -1.589429 -0.763111 -1.623487
    19 17.848171 0.000000 0.000004 0.003845 -0.000863 1.927603
    20 16.525251 0.000000 0.000004 0.038598 0.045484 -1.054740
    21 6.879454 0.000000 0.000008 -0.081332 -0.002951 -0.584373
    22 3.890452 -0.000004 -0.000004 -1.570238 -0.730062 -1.567952
    23 17.848175 0.000000 -0.000004 0.000010 0.000000 1.088389
    24 16.525246 0.000000 0.000004 -0.038821 -0.027919 -1.398635
    25 6.879452 0.000000 0.000000 -0.005219 -0.002811 -0.539666
    26 3.859703 -0.142403 -1.191975 -0.479143 0.152189 -0.879872
    27 1.312565 0.000001 0.000004 0.000000 0.009664 -0.439719
    28 0.729362 0.000002 0.000004 -0.028979 0.117255 -0.451390
    29 3.942326 0.046774 -0.431438 -0.155013 0.073328 -0.810646
    30 1.539093 0.000001 0.000000 0.041407 0.089644 -0.699058
    31 1.196320 -0.000001 0.000004 -0.000002 0.007360 -0.430801
    32 3.883686 -0.046767 0.431446 0.812647 -0.191548 -1.550228
    33 1.719570 0.000002 0.000004 0.194938 -0.171308 -0.606847
    34 1.209183 -0.000001 -0.000004 0.409188 -0.306122 -0.737508
    35 3.859859 -0.137950 1.332462 0.716014 -0.200224 -1.353892
    36 1.719429 0.000002 0.000000 -0.000001 0.004072 -0.363008
    37 1.099670 0.000001 0.000004 0.133914 -0.229713 -0.543027
    38 0.806049 -0.348922 1.321259 -1.148537 -0.413342 -0.685814
    39 1.789787 0.000000 0.000004 0.143112 0.004764 0.680910
    40 1.207001 0.000000 -0.000004 -0.238537 -0.328321 0.202547
    41 3.859665 -0.132565 1.193108 0.479139 -0.158543 -0.879039
    42 1.312561 0.000000 0.000000 0.000000 -0.011932 -0.439671
    43 0.729366 0.000002 0.000000 0.000002 -0.006134 -0.244270
    44 3.942291 0.050330 0.431042 -0.174164 0.127577 -1.207787
    45 1.539097 0.000003 0.000000 0.000000 -0.005853 -0.247769
    46 1.196320 0.000000 0.000000 0.004942 -0.275387 -1.121008
    47 3.883648 -0.050325 -0.431044 -0.040059 -0.165983 -1.257799
    48 1.719574 -0.000005 0.000000 0.366781 -0.096847 -2.862900
    49 1.209183 -0.000001 0.000000 0.000001 -0.004461 -0.216374
    50 3.859825 -0.148935 -1.331284 -0.354417 0.038566 -0.532000
    51 1.719425 0.000000 0.000000 0.089602 0.216058 -1.899362
    52 1.099663 0.000000 0.000000 0.000002 -0.004208 -0.244311
    53 0.806015 -0.359835 -1.318335 0.934008 0.297778 -0.930654
    54 1.789780 0.000001 0.000000 0.009095 -0.315147 0.639494
    55 1.207001 0.000000 0.000004 0.000382 -0.070243 0.716387
    56 2.338451 -1.535743 -6.391512 1.520238 -0.094383 -2.001948
  time 14
    0 -0.002349 -3.043057 28.422077 1.570777 0.000007 -0.000052
    1 0.000005 3.345128 -2.981903 1.570790 0.086284 1.570789
    2 4.018331 0.000000 0.000000 -0.311836 -0.025875 -0.015364
    3 3.518564 0.000000 0.000000 -0.129947 0.006639 0.177444
    4 8.942642 0.000000 0.000000 -0.247684 -0.034072 0.154142
    5 3.307269 0.000000 -0.000004 -2.940268 -0.132212 0.392990
    6 3.593710 -0.000001 -0.000004 0.744014 -0.041143 0.615989
    7 1.999994 -3.000001 0.000004 -1.570753 -0.000007 -1.326410
    8 2.033349 1.000771 -1.937607 -1.688728 1.147837 2.790133
    9 6.028143 0.000002 -0.000004 1.665868 0.041320 -0.700363
    10 11.692545 0.000000 0.000000 0.057683 -0.211252 -1.138573
    11 11.481701 0.000000 0.000000 -1.605107 -0.192169 -0.199006
    12 2.676086 -1.712440 0.000000 -1.570753 -0.000007 -1.570752
    13 2.033341 1.000767 1.937660 -2.394300 -1.557870 -0.028266
    14 6.028140 0.000002 0.000000 -1.762084 -0.420849 -0.673698
    15 11.692553 0.000000 0.000011 -0.188753 0.905749 -1.193956
    16 11.481667 0.000000 -0.000031 1.108122 -0.014261 -0.151440
    17 2.676086 -1.712440 0.000004 1.570753 0.000007 1.570752
    18 -3.890452 0.000004 0.000004 -1.607367 -0.827314 -1.617478
    19 17.848171 0.000000 0.000004 0.008542 -0.003176 2.219794
    20 16.525251 0.000000 0.000004 0.038598 0.050763 -1.050266
    21 6.879454 0.000000 0.000008 -0.081332 -0.002951 -0.584373
    22 3.890452 -0.000004 -0.000004 -1.570156 -0.929887 -1.567677
    23 17.848175 0.000000 -0.000004 0.000010 0.000000 1.384887
    24 16.525246 0.000000 0.000004 -0.036332 -0.030849 -1.477557
    25 6.879452 0.000000 0.000000 -0.005219 -0.002811 -0.539666
    26 3.859703 -0.142403 -1.191975 -0.479143 0.152189 -0.879872
    27 1.312565 0.000001 0.000004 0.000000 0.009664 -0.439719
    28 0.729362 0.000002 0.000004 -0.028979 0.117255 -0.451390
    29 3.942326 0.046774 -0.431438 -0.155013 0.073328 -0.810646
    30 1.539093 0.000001 0.000000 0.041407 0.089644 -0.699058
    31 1.196320 -0.000001 0.000004 -0.000002 0.007360 -0.430801
    32 3.883686 -0.046767 0.431446 0.812647 -0.191548 -1.550228
    33 1.719570 0.000002 0.000004 0.194938 -0.171308 -0.606847
    34 1.209183 -0.000001 -0.000004 0.409188 -0.306122 -0.737508
    35 3.859859 -0.137950 1.332462 0.716014 -0.200224 -1.353892
    36 1.719429 0.000002 0.000000 -0.000001 0.004072 -0.363008
    37 1.099670 0.000001 0.000004 0.133914 -0.229713 -0.543027
    38 0.806049 -0.348922 1.321259 -1.148537 -0.413342 -0.685814
    39 1.789787 0.000000 0.000004 0.143112 0.004764 0.680910
    40 1.207001 0.000000 -0.000004 -0.238537 -0.328321 0.202547
    41 3.859665 -0.132565 1.193108 0.479139 -0.158543 -0.879039
    42 1.312561 0.000000 0.000000 0.000000 -0.011932 -0.439671
    43 0.729366 0.000002 0.000000 0.000002 -0.006134 -0.244270
    44 3.942291 0.050330 0.431042 -0.174164 0.127577 -1.207787
    45 1.539097 0.000003 0.000000 0.000000 -0.005853 -0.247769
    46 1.196320 0.000000 0.000000 0.004942 -0.275387 -1.121008
    47 3.883648 -0.050325 -0.431044 -0.040059 -0.165983 -1.257799
    48 1.719574 -0.000005 0.000000 0.366781 -0.096847 -2.862813
    49 1.209183 -0.000001 0.000000 0.000001 -0.004461 -0.216374
    50 3.859825 -0.148935 -1.331284 -0.354417 0.038566 -0.532000
    51 1.719425 0.000000 0.000000 0.089602 0.216058 -1.899362
    52 1.099663 0.000000 0.000000 0.000002 -0.004208 -0.244311
    53 0.806015 -0.359835 -1.318335 0.934008 0.297778 -0.930654
    54 1.789780 0.000001 0.000000 0.009095 -0.315147 0.639494
    55 1.207001 0.000000 0.000004 0.000382 -0.070243 0.716387
    56 2.338451 -1.535743 -6.391512 1.520238 -0.094383 -2.001948
  time 15
    0 -0.002349 -2.488352 25.773558 1.570777 0.000007 -0.000052
    1 0.000005 3.345128 -2.981903 1.570790 0.086284 1.570789
    2 4.018331 0.000000 0.000000 -0.378225 -0.012656 0.033042
    3 3.518564 0.000000 0.000000 -0.130331 -0.007874 0.171559
    4 8.942642 0.000000 0.000000 -0.296285 -0.028068 0.188920
    5 3.307269 0.000000 -0.000004 -2.940268 -0.131505 0.391106
    6 3.593710 -0.000001 -0.000004 0.795097 -0.035546 0.615356
    7 1.999994 -3.000001 0.000004 -1.570753 -0.000007 -1.326410
    8 2.033349 1.000771 -1.937607 -1.688728 1.147837 2.790133
    9 6.028143 0.000002 -0.000004 1.665868 0.041320 -0.700363
    10 11.692545 0.000000 0.000000 0.046921 -0.226185 -1.102399
    11 11.481701 0.000000 0.000000 -1.605107 -0.192169 -0.199006
    12 2.676086 -1.712440 0.000000 -1.570753 -0.000007 -1.570752
    13 2.033341 1.000767 1.937660 0.613314 -1.503864 -2.974133
    14 6.028140 0.000002 0.000000 -1.732912 -0.322765 -0.626359
    15 11.692553 0.000000 0.000011 -0.180424 0.852540 -1.255989
    16 11.481667 0.000000 -0.000031 1.119970 -0.014261 -0.151440
    17 2.676086 -1.712440 0.000004 1.570753 0.000007 1.570752
    18 -3.890452 0.000004 0.000004 -1.628550 -0.752643 -1.606418
    19 17.848171 0.000000 0.000004 0.011670 -0.005345 2.398740
    20 16.525251 0.000000 0.000004 0.038598 0.054068 -1.040412
    21 6.879454 0.000000 0.000008 -0.081332 -0.002951 -0.584373
    22 3.890452 -0.000004 -0.000004 -1.569503 -1.076231 -1.567815
    23 17.848175 0.000000 -0.000004 0.000010 0.000000 1.589292
    24 16.525246 0.000000 0.000004 -0.033843 -0.033796 -1.556418
    25 6.879452 0.000000 0.000000 -0.005219 -0.002811 -0.539666
    26 3.859703 -0.142403 -1.191975 -0.479143 0.152189 -0.879872
    27 1.312565 0.000001 0.000004 0.000000 0.009664 -0.439719
    28 0.729362 0.000002 0.000004 -0.028979 0.117255 -0.451390
    29 3.942326 0.046774 -0.431438 -0.155013 0.073328 -0.810646
    30 1.539093 0.000001 0.000000 0.041407 0.089644 -0.699058
    31 1.196320 -0.000001 0.000004 -0.000002 0.007360 -0.430801
    32 3.883686 -0.046767 0.431446 0.812647 -0.191548 -1.550228
    33 1.719570 0.000002 0.000004 0.194938 -0.171308 -0.606847
    34 1.209183 -0.000001 -0.000004 0.409188 -0.306122 -0.737508
    35 3.859859 -0.137950 1.332462 0.716014 -0.200224 -1.353892
    36 1.719429 0.000002 0.000000 -0.000001 0.004072 -0.363008
    37 1.099670 0.000001 0.000004 0.133914 -0.229713 -0.543027
    38 0.806049 -0.348922 1.321259 -1.148537 -0.413342 -0.685814
    39 1.789787 0.000000 0.000004 0.143112 0.004764 0.680910
    40 1.207001 0.000000 -0.000004 -0.238537 -0.328321 0.202547
    41 3.859665 -0.132565 1.193108 0.479139 -0.158543 -0.879039
    42 1.312561 0.000000 0.000000 0.000000 -0.011932 -0.439671
    43 0.729366 0.000002 0.000000 0.000002 -0.006134 -0.244270
    44 3.942291 0.050330 0.431042 -0.174164 0.127577 -1.207787
    45 1.539097 0.000003 0.000000 0.000000 -0.005853 -0.247769
    46 1.196320 0.000000 0.000000 0.004942 -0.275387 -1.121008
    47 3.883648 -0.050325 -0.431044 -0.040059 -0.165983 -1.257799
    48 1.719574 -0.000005 0.000000 0.366781 -0.096847 -2.862813
    49 1.209183 -0.000001 0.000000 0.000001 -0.004461 -0.216374
    50 3.859825 -0.148935 -1.331284 -0.354417 0.038566 -0.532000
    51 1.719425 0.000000 0.000000 0.089602 0.216058 -1.899420
    52 1.099663 0.000000 0.000000 0.000002 -0.004208 -0.244311
    53 0.806015 -0.359835 -1.318335 0.934008 0.297778 -0.930654
    54 1.789780 0.000001 0.000000 0.009095 -0.315147 0.639494
    55 1.207001 0.000000 0.000004 0.000382 -0.070243 0.716387
    56 2.338451 -1.535743 -6.391512 1.520238 -0.094383 -2.001948
  time 16
    0 -0.002349 -2.320378 23.738340 1.570777 0.000007 -0.000052
    1 0.000005 3.345128 -2.981903 1.570790 0.086284 1.570789
    2 4.018331 0.000000 0.000000 -0.439230 -0.000515 0.077540
    3 3.518564 0.000000 0.000000 -0.130667 -0.021213 0.166154
    4 8.942642 0.000000 0.000000 -0.340936 -0.022543 0.220871
    5 3.307269 0.000000 -0.000004 -2.940268 -0.130906 0.389538
    6 3.593710 -0.000001 -0.000004 0.837537 -0.030896 0.614828
    7 1.999994 -3.000001 0.000004 -1.570753 -0.000007 -1.326410
    8 2.033349 1.000771 -1.937607 -1.688728 1.147837 2.790133
    9 6.028143 0.000002 -0.000004 1.665868 0.041320 -0.700363
    10 11.692545 0.000000 0.000000 0.037968 -0.238589 -1.072275
    11 11.481701 0.000000 0.000000 -1.605107 -0.192169 -0.199006
    12 2.676086 -1.712440 0.000000 -1.570753 -0.000007 -1.570752
    13 2.033341 1.000767 1.937660 0.490311 -1.430500 -2.794256
    14 6.028140 0.000002 0.000000 -1.721629 -0.284753 -0.575624
    15 11.692553 0.000000 0.000011 -0.172790 0.803605 -1.313058
    16 11.481667 0.000000 -0.000031 1.127566 -0.014261 -0.151440
    17 2.676086 -1.712440 0.000004 1.570753 0.000007 1.570752
    18 -3.890452 0.000004 0.000004 -1.636515 -0.549282 -1.598939
    19 17.848171 0.000000 0.000004 0.012569 -0.006052 2.449195
    20 16.525251 0.000000 0.000004 0.038598 0.055004 -1.036893
    21 6.879454 0.000000 0.000008 -0.081332 -0.002951 -0.584373
    22 3.890452 -0.000004 -0.000004 -1.569666 -1.179699 -1.567334
    23 17.848175 0.000000 -0.000004 0.000010 0.000000 1.736477
    24 16.525246 0.000000 0.000004 -0.031544 -0.036491 -1.628949
    25 6.879452 0.000000 0.000000 -0.005219 -0.002811 -0.539666
    26 3.859703 -0.142403 -1.191975 -0.479143 0.152189 -0.879872
    27 1.312565 0.000001 0.000004 0.000000 0.009664 -0.439719
    28 0.729362 0.000002 0.000004 -0.028979 0.117255 -0.451390
    29 3.942326 0.046774 -0.431438 -0.155013 0.073328 -0.810646
    30 1.539093 0.000001 0.000000 0.041407 0.089644 -0.699058
    31 1.196320 -0.000001 0.000004 -0.000002 0.007360 -0.430801
    32 3.883686 -0.046767 0.431446 0.812647 -0.191548 -1.550228
    33 1.719570 0.000002 0.000004 0.194938 -0.171308 -0.606847
    34 1.209183 -0.000001 -0.000004 0.409188 -0.306122 -0.737508
    35 3.859859 -0.137950 1.332462 0.716014 -0.200224 -1.353892
    36 1.719429 0.000002 0.000000 -0.000001 0.004072 -0.363008
    37 1.099670 0.000001 0.000004 0.133914 -0.229713 -0.543027
    38 0.806049 -0.348922 1.321259 -1.148537 -0.413342 -0.685814
    39 1.789787 0.000000 0.000004 0.143112 0.004764 0.680910
    40 1.207001 0.000000 -0.000004 -0.238537 -0.328321 0.202547
    41 3.859665 -0.132565 1.193108 0.479139 -0.158543 -0.879039
    42 1.312561 0.000000 0.000000 0.000000 -0.011932 -0.439671
    43 0.729366 0.000002 0.000000 0.000002 -0.006134 -0.244270
    44 3.942291 0.050330 0.431042 -0.174164 0.127577 -1.207787
    45 1.539097 0.000003 0.000000 0.000000 -0.005853 -0.247769
    46 1.196320 0.000000 0.000000 0.004942 -0.275387 -1.121008
    47 3.883648 -0.050325 -0.431044 -0.040059 -0.165983 -1.257799
    48 1.719574 -0.000005 0.000000 0.366781 -0.096847 -2.862813
    49 1.209183 -0.000001 0.000000 0.000001 -0.004461 -0.216374
    50 3.859825 -0.148935 -1.331284 -0.354417 0.038566 -0.532000
    51 1.719425 0.000000 0.000000 0.089602 0.216058 -1.899362
    52 1.099663 0.000000 0.000000 0.000002 -0.004208 -0.244311
    53 0.806015 -0.359835 -1.318335 0.934008 0.297778 -0.930654
    54 1.789780 0.000001 0.000000 0.009095 -0.315147 0.639494
    55 1.207001 0.000000 0.000004 0.000382 -0.070243 0.716387
    56 2.338451 -1.535743 -6.391512 1.520238 -0.094383 -2.001948
  time 17
    0 -0.002349 -2.230532 21.820313 1.570777 0.000007 -0.000052
    1 0.000005 3.345128 -2.981903 1.570790 0.086284 1.570789
    2 4.018331 0.000000 0.000000 -0.489485 0.009468 0.114177
    3 3.518564 0.000000 0.000000 -0.130954 -0.032203 0.161708
    4 8.942642 0.000000 0.000000 -0.377712 -0.018001 0.247181
    5 3.307269 0.000000 -0.000004 -2.940268 -0.130463 0.388340
    6 3.593710 -0.000001 -0.000004 0.869769 -0.027361 0.614441
    7 1.999994 -3.000001 0.000004 -1.570753 -0.000007 -1.326410
    8 2.033349 1.000771 -1.937607 -1.688728 1.147837 2.790133
    9 6.028143 0.000002 -0.000004 1.665868 0.041320 -0.700363
    10 11.692545 0.000000 0.000000 0.031173 -0.248021 -1.049453
    11 11.481701 0.000000 0.000000 -1.605107 -0.192169 -0.199006
    12 2.676086 -1.712440 0.000000 -1.570753 -0.000007 -1.570752
    13 2.033341 1.000767 1.937660 0.389027 -1.370057 -2.646105
    14 6.028140 0.000002 0.000000 -1.759921 -0.329376 -0.458389
    15 11.692553 0.000000 0.000011 -0.166478 0.763317 -1.359985
    16 11.481667 0.000000 -0.000031 1.130179 -0.014261 -0.151440
    17 2.676086 -1.712440 0.000004 1.570753 0.000007 1.570752
    18 -3.890452 0.000004 0.000004 -1.630025 -0.308756 -1.596126
    19 17.848171 0.000000 0.000004 0.011862 -0.005501 2.409504
    20 16.525251 0.000000 0.000004 0.038598 0.054273 -1.039658
    21 6.879454 0.000000 0.000008 -0.081332 -0.002951 -0.584373
    22 3.890452 -0.000004 -0.000004 -1.569993 -1.275088 -1.566715
    23 17.848175 0.000000 -0.000004 0.000010 0.000000 1.866946
    24 16.525246 0.000000 0.000004 -0.029655 -0.038715 -1.688638
    25 6.879452 0.000000 0.000000 -0.005219 -0.002811 -0.539666
    26 3.859703 -0.142403 -1.191975 -0.479143 0.152189 -0.879872
    27 1.312565 0.000001 0.000004 0.000000 0.009664 -0.439719
    28 0.729362 0.000002 0.000004 -0.028979 0.117255 -0.451390
    29 3.942326 0.046774 -0.431438 -0.155013 0.073328 -0.810646
    30 1.539093 0.000001 0.000000 0.041407 0.089644 -0.699058
    31 1.196320 -0.000001 0.000004 -0.000002 0.007360 -0.430801
    32 3.883686 -0.046767 0.431446 0.812647 -0.191548 -1.550228
    33 1.719570 0.000002 0.000004 0.194938 -0.171308 -0.606847
    34 1.209183 -0.000001 -0.000004 0.409188 -0.306122 -0.737508
    35 3.859859 -0.137950 1.332462 0.716014 -0.200224 -1.353892
    36 1.719429 0.000002 0.000000 -0.000001 0.004072 -0.363008
    37 1.099670 0.000001 0.000004 0.133914 -0.229713 -0.543027
    38 0.806049 -0.348922 1.321259 -1.148537 -0.413342 -0.685814
    39 1.789787 0.000000 0.000004 0.143112 0.004764 0.680910
    40 1.207001 0.000000 -0.000004 -0.238537 -0.328321 0.202547
    41 3.859665 -0.132565 1.193108 0.479139 -0.158543 -0.879039
    42 1.312561 0.000000 0.000000 0.000000 -0.011932 -0.439671
    43 0.729366 0.000002 0.000000 0.000002 -0.006134 -0.244270
    44 3.942291 0.050330 0.431042 -0.174164 0.127577 -1.207787
    45 1.539097 0.000003 0.000000 0.000000 -0.005853 -0.247769
    46 1.196320 0.000000 0.000000 0.004942 -0.275387 -1.121008
    47 3.883648 -0.050325 -0.431044 -0.040059 -0.165983 -1.257799
    48 1.719574 -0.000005 0.000000 0.366781 -0.096847 -2.862900
    49 1.209183 -0.000001 0.000000 0.000001 -0.004461 -0.216374
    50 3.859825 -0.148935 -1.331284 -0.354417 0.038566 -0.532000
    51 1.719425 0.000000 0.000000 0.089602 0.216058 -1.899362
    52 1.099663 0.000000 0.000000 0.000002 -0.004208 -0.244311
    53 0.806015 -0.359835 -1.318335 0.934008 0.297778 -0.930654
    54 1.789780 0.000001 0.000000 0.009095 -0.315147 0.639494
    55 1.207001 0.000000 0.000004 0.000382 -0.070243 0.716387
    56 2.338451 -1.535743 -6.391512 1.520238 -0.094383 -2.001948
  time 18
    0 -0.002349 -2.199281 20.398394 1.570777 0.000007 -0.000052
    1 0.000005 3.345128 -2.981903 1.570790 0.086284 1.570789
    2 4.018331 0.000000 0.000000 -0.523586 0.016263 0.139045
    3 3.518564 0.000000 0.000000 -0.131146 -0.039657 0.158688
    4 8.942642 0.000000 0.000000 -0.402675 -0.014909 0.265039
    5 3.307269 0.000000 -0.000004 -2.940268 -0.130175 0.387583
    6 3.593710 -0.000001 -0.000004 0.890276 -0.025108 0.614195
    7 1.999994 -3.000001 0.000004 -1.570753 -0.000007 -1.326410
    8 2.033349 1.000771 -1.937607 -1.688728 1.147837 2.790133
    9 6.028143 0.000002 -0.000004 1.665868 0.041320 -0.700363
    10 11.692545 0.000000 0.000000 0.026846 -0.254013 -1.034917
    11 11.481701 0.000000 0.000000 -1.605107 -0.192169 -0.199006
    12 2.676086 -1.712440 0.000000 -1.570800 -0.000007 -1.570752
    13 2.033341 1.000767 1.937660 0.320210 -1.329069 -2.545591
    14 6.028140 0.000002 0.000000 -1.768923 -0.388975 -0.336471
    15 11.692553 0.000000 0.000011 -0.162205 0.735983 -1.391876
    16 11.481667 0.000000 -0.000031 1.066499 -0.014261 -0.151440
    17 2.676086 -1.712440 0.000004 1.570753 0.000007 1.570752
    18 -3.890452 0.000004 0.000004 -1.591022 0.012144 -1.587240
    19 17.848171 0.000000 0.000004 0.005594 -0.001594 2.040174
    20 16.525251 0.000000 0.000004 0.038598 0.047502 -1.054790
    21 6.879454 0.000000 0.000008 -0.081332 -0.002951 -0.584373
    22 3.890452 -0.000004 -0.000004 -1.570482 -1.345946 -1.565959
    23 17.848175 0.000000 -0.000004 0.000010 0.000000 1.959351
    24 16.525246 0.000000 0.000004 -0.028382 -0.040216 -1.729154
    25 6.879452 0.000000 0.000000 -0.005219 -0.002811 -0.539666
    26 3.859703 -0.142403 -1.191975 -0.479143 0.152189 -0.879872
    27 1.312565 0.000001 0.000004 0.000000 0.009664 -0.439719
    28 0.729362 0.000002 0.000004 -0.028979 0.117255 -0.451390
    29 3.942326 0.046774 -0.431438 -0.155013 0.073328 -0.810646
    30 1.539093 0.000001 0.000000 0.041407 0.089644 -0.699058
    31 1.196320 -0.000001 0.000004 -0.000002 0.007360 -0.430801
    32 3.883686 -0.046767 0.431446 0.812647 -0.191548 -1.550228
    33 1.719570 0.000002 0.000004 0.194938 -0.171308 -0.606847
    34 1.209183 -0.000001 -0.000004 0.409188 -0.306122 -0.737508
    35 3.859859 -0.137950 1.332462 0.716014 -0.200224 -1.353892
    36 1.719429 0.000002 0.000000 -0.000001 0.004072 -0.363008
    37 1.099670 0.000001 0.000004 0.133914 -0.229713 -0.543027
    38 0.806049 -0.348922 1.321259 -1.148537 -0.413342 -0.685814
    39 1.789787 0.000000 0.000004 0.143112 0.004764 0.680910
    40 1.207001 0.000000 -0.000004 -0.238537 -0.328321 0.202547
    41 3.859665 -0.132565 1.193108 0.479139 -0.158543 -0.879039
    42 1.312561 0.000000 0.000000 0.000000 -0.011932 -0.439671
    43 0.729366 0.000002 0.000000 0.000002 -0.006134 -0.244270
    44 3.942291 0.050330 0.431042 -0.174164 0.127577 -1.207787
    45 1.539097 0.000003 0.000000 0.000000 -0.005853 -0.247769
    46 1.196320 0.000000 0.000000 0.004942 -0.275387 -1.121008
    47 3.883648 -0.050325 -0.431044 -0.040059 -0.165983 -1.257799
    48 1.719574 -0.000005 0.000000 0.366781 -0.096847 -2.862813
    49 1.209183 -0.000001 0.000000 0.000001 -0.004461 -0.216374
    50 3.859825 -0.148935 -1.331284 -0.354417 0.038566 -0.532000
    51 1.719425 0.000000 0.000000 0.089602 0.216058 -1.899420
    52 1.099663 0.000000 0.000000 0.000002 -0.004208 -0.244311
    53 0.806015 -0.359835 -1.318335 0.934008 0.297778 -0.930654
    54 1.789780 0.000001 0.000000 0.009095 -0.315147 0.639494
    55 1.207001 0.000000 0.000004 0.000382 -0.070243 0.716387
    56 2.338451 -1.535743 -6.391512 1.520238 -0.094383 -2.001948
  time 19
    0 -0.002349 -2.195374 19.839783 1.570777 0.000007 -0.000052
    1 0.000005 3.345128 -2.981903 1.570790 0.086284 1.570789
    2 4.018331 0.000000 0.000000 -0.536131 0.018756 0.148213
    3 3.518564 0.000000 0.000000 -0.131218 -0.042401 0.157573
    4 8.942642 0.000000 0.000000 -0.411863 -0.013770 0.271616
    5 3.307269 0.000000 -0.000004 -2.940268 -0.130079 0.387318
    6 3.593710 -0.000001 -0.000004 0.897448 -0.024329 0.614089
    7 1.999994 -3.000001 0.000004 -1.570753 -0.000007 -1.326410
    8 2.033349 1.000771 -1.937607 -1.688728 1.147837 2.790133
    9 6.028143 0.000002 -0.000004 1.665868 0.041320 -0.700363
    10 11.692545 0.000000 0.000000 0.025336 -0.256111 -1.029787
    11 11.481701 0.000000 0.000000 -1.605107 -0.192169 -0.199006
    12 2.676086 -1.712440 0.000000 -1.570753 -0.000007 -1.570752
    13 2.033341 1.000767 1.937660 0.294908 -1.313922 -2.508530
    14 6.028140 0.000002 0.000000 -1.714497 -0.410191 -0.297483
    15 11.692553 0.000000 0.000011 -0.160644 0.725911 -1.403625
    16 11.481667 0.000000 -0.000031 1.002758 -0.014261 -0.151440
    17 2.676086 -1.712440 0.000004 1.570753 0.000007 1.570752
    18 -3.890452 0.000004 0.000004 -1.570961 0.229025 -1.575733
    19 17.848171 0.000000 0.000004 0.000009 0.000000 1.661799
    20 16.525251 0.000000 0.000004 0.038598 0.040775 -1.043379
    21 6.879454 0.000000 0.000008 -0.081332 -0.002951 -0.584373
    22 3.890452 -0.000004 -0.000004 -1.570727 -1.373843 -1.565546
    23 17.848175 0.000000 -0.000004 0.000010 0.000000 1.994660
    24 16.525246 0.000000 0.000004 -0.027913 -0.040776 -1.744106
    25 6.879452 0.000000 0.000000 -0.005219 -0.002811 -0.539666
    26 3.859703 -0.142403 -1.191975 -0.479143 0.152189 -0.879872
    27 1.312565 0.000001 0.000004 0.000000 0.009664 -0.439719
    28 0.729362 0.000002 0.000004 -0.028979 0.117255 -0.451390
    29 3.942326 0.046774 -0.431438 -0.155013 0.073328 -0.810646
    30 1.539093 0.000001 0.000000 0.041407 0.089644 -0.699058
    31 1.196320 -0.000001 0.000004 -0.000002 0.007360 -0.430801
    32 3.883686 -0.046767 0.431446 0.812647 -0.191548 -1.550228
    33 1.719570 0.000002 0.000004 0.194938 -0.171308 -0.606847
    34 1.209183 -0.000001 -0.000004 0.409188 -0.306122 -0.737508
    35 3.859859 -0.137950 1.332462 0.716014 -0.200224 -1.353892
    36 1.719429 0.000002 0.000000 -0.000001 0.004072 -0.363008
    37 1.099670 0.000001 0.000004 0.133914 -0.229713 -0.543027
    38 0.806049 -0.348922 1.321259 -1.148537 -0.413342 -0.685814
    39 1.789787 0.000000 0.000004 0.143112 0.004764 0.680910
    40 1.207001 0.000000 -0.000004 -0.238537 -0.328321 0.202547
    41 3.859665 -0.132565 1.193108 0.479139 -0.158543 -0.879039
    42 1.312561 0.000000 0.000000 0.000000 -0.011932 -0.439671
    43 0.729366 0.000002 0.000000 0.000002 -0.006134 -0.244270
    44 3.942291 0.050330 0.431042 -0.174164 0.127577 -1.207787
    45 1.539097 0.000003 0.000000 0.000000 -0.005853 -0.247769
    46 1.196320 0.000000 0.000000 0.004942 -0.275387 -1.121008
    47 3.883648 -0.050325 -0.431044 -0.040059 -0.165983 -1.257799
    48 1.719574 -0.000005 0.000000 0.366781 -0.096847 -2.862900
    49 1.209183 -0.000001 0.000000 0.000001 -0.004461 -0.216374
    50 3.859825 -0.148935 -1.331284 -0.354417 0.038566 -0.532000
    51 1.719425 0.000000 0.000000 0.089602 0.216058 -1.899362
    52 1.099663 0.000000 0.000000 0.000002 -0.004208 -0.244311
    53 0.806015 -0.359835 -1.318335 0.934008 0.297778 -0.930654
    54 1.789780 0.000001 0.000000 0.009095 -0.315147 0.639494
    55 1.207001 0.000000 0.000004 0.000382 -0.070243 0.716387
    56 2.338451 -1.535743 -6.391512 1.520238 -0.094383 -2.001948
  time 20
    0 -0.002349 -2.195374 19.839783 1.570777 0.000007 -0.000052
    1 0.000005 3.345128 -2.981903 1.596791 0.080435 1.580287
    2 4.018331 0.000000 0.000000 -0.544152 0.009875 0.137571
    3 3.518564 0.000000 0.000000 -0.131218 -0.042401 0.157573
    4 8.942642 0.000000 0.000000 -0.411863 -0.013770 0.271616
    5 3.307269 0.000000 -0.000004 -2.940268 -0.130079 0.387318
    6 3.593710 -0.000001 -0.000004 0.897448 -0.024329 0.614089
    7 1.999994 -3.000001 0.000004 -1.570753 -0.000007 -1.326410
    8 2.033349 1.000771 -1.937607 -1.688728 1.147837 2.790133
    9 6.028143 0.000002 -0.000004 1.665868 0.041320 -0.700363
    10 11.692545 0.000000 0.000000 0.025336 -0.256111 -1.029787
    11 11.481701 0.000000 0.000000 -1.605107 -0.192169 -0.199006
    12 2.676086 -1.712440 0.000000 -1.570753 -0.000007 -1.570752
    13 2.033341 1.000767 1.937660 0.294908 -1.313922 -2.508530
    14 6.028140 0.000002 0.000000 -1.670418 -0.421557 -0.284449
    15 11.692553 0.000000 0.000011 -0.160644 0.725911 -1.403625
    16 11.481667 0.000000 -0.000031 0.985015 -0.014261 -0.151440
    17 2.676086 -1.712440 0.000004 1.570800 0.000007 1.570752
    18 -3.890452 0.000004 0.000004 -1.570961 0.229025 -1.575733
    19 17.848171 0.000000 0.000004 0.000009 0.000000 1.661799
    20 16.525251 0.000000 0.000004 0.038598 0.040775 -1.043379
    21 6.879454 0.000000 0.000008 -0.081332 -0.002951 -0.584373
    22 3.890452 -0.000004 -0.000004 -1.570727 -1.373843 -1.565546
    23 17.848175 0.000000 -0.000004 0.000010 0.000000 1.994660
    24 16.525246 0.000000 0.000004 -0.027913 -0.040776 -1.744106
    25 6.879452 0.000000 0.000000 -0.005219 -0.002811 -0.539666
    26 3.859703 -0.142403 -1.191975 -0.479143 0.152189 -0.879872
    27 1.312565 0.000001 0.000004 0.000000 0.009664 -0.439719
    28 0.729362 0.000002 0.000004 -0.028979 0.117255 -0.451390
    29 3.942326 0.046774 -0.431438 -0.155013 0.073328 -0.810646
    30 1.539093 0.000001 0.000000 0.041407 0.089644 -0.699058
    31 1.196320 -0.000001 0.000004 -0.000002 0.007360 -0.430801
    32 3.883686 -0.046767 0.431446 0.812647 -0.191548 -1.550228
    33 1.719570 0.000002 0.000004 0.194938 -0.171308 -0.606847
    34 1.209183 -0.000001 -0.000004 0.409188 -0.306122 -0.737508
    35 3.859859 -0.137950 1.332462 0.716014 -0.200224 -1.353892
    36 1.719429 0.000002 0.000000 -0.000001 0.004072 -0.363008
    37 1.099670 0.000001 0.000004 0.133914 -0.229713 -0.543027
    38 0.806049 -0.348922 1.321259 -1.148537 -0.413342 -0.685814
    39 1.789787 0.000000 0.000004 0.143112 0.004764 0.680910
    40 1.207001 0.000000 -0.000004 -0.238537 -0.328321 0.202547
    41 3.859665 -0.132565 1.193108 0.479139 -0.158543 -0.879039
    42 1.312561 0.000000 0.000000 0.000000 -0.011932 -0.439671
    43 0.729366 0.000002 0.000000 0.000002 -0.006134 -0.244270
    44 3.942291 0.050330 0.431042 -0.174164 0.127577 -1.207787
    45 1.539097 0.000003 0.000000 0.000000 -0.005853 -0.247769
    46 1.196320 0.000000 0.000000 0.004942 -0.275387 -1.121008
    47 3.883648 -0.050325 -0.431044 -0.040059 -0.165983 -1.257799
    48 1.719574 -0.000005 0.000000 0.366781 -0.096847 -2.862813
    49 1.209183 -0.000001 0.000000 0.000001 -0.004461 -0.216374
    50 3.859825 -0.148935 -1.331284 -0.354417 0.038566 -0.532000
    51 1.719425 0.000000 0.000000 0.089602 0.216058 -1.899362
    52 1.099663 0.000000 0.000000 0.000002 -0.004208 -0.244311
    53 0.806015 -0.359835 -1.318335 0.934008 0.297778 -0.930654
    54 1.789780 0.000001 0.000000 0.009095 -0.315147 0.639494
    55 1.207001 0.000000 0.000004 0.000382 -0.070243 0.716387
    56 2.338451 -1.535743 -6.391512 1.520238 -0.094383 -2.001948
  time 21
    0 -0.002349 -2.195374 19.839783 1.570777 0.000007 -0.000052
    1 0.000005 3.345128 -2.981903 1.622840 0.074575 1.589785
    2 4.018331 0.000000 0.000000 -0.563240 -0.011301 0.112200
    3 3.518564 0.000000 0.000000 -0.131218 -0.042401 0.157573
    4 8.942642 0.000000 0.000000 -0.411863 -0.013770 0.271616
    5 3.307269 0.000000 -0.000004 -2.940268 -0.130079 0.387318
    6 3.593710 -0.000001 -0.000004 0.897448 -0.024329 0.614089
    7 1.999994 -3.000001 0.000004 -1.570753 -0.000007 -1.326410
    8 2.033349 1.000771 -1.937607 -1.688820 1.147837 2.790133
    9 6.028143 0.000002 -0.000004 1.665868 0.041320 -0.700363
    10 11.692545 0.000000 0.000000 0.025336 -0.256111 -1.029787
    11 11.481701 0.000000 0.000000 -1.605107 -0.192169 -0.199006
    12 2.676086 -1.712440 0.000000 -1.570753 -0.000007 -1.570752
    13 2.033341 1.000767 1.937660 0.294908 -1.313922 -2.508530
    14 6.028140 0.000002 0.000000 -1.652296 -0.434240 -0.269618
    15 11.692553 0.000000 0.000011 -0.160644 0.725911 -1.403625
    16 11.481667 0.000000 -0.000031 0.942785 -0.014261 -0.151440
    17 2.676086 -1.712440 0.000004 1.570753 0.000007 1.570752
    18 -3.890452 0.000004 0.000004 -1.570961 0.229025 -1.575733
    19 17.848171 0.000000 0.000004 0.000009 0.000000 1.661799
    20 16.525251 0.000000 0.000004 0.038598 0.040775 -1.043379
    21 6.879454 0.000000 0.000008 -0.081332 -0.002951 -0.584373
    22 3.890452 -0.000004 -0.000004 -1.570727 -1.373843 -1.565546
    23 17.848175 0.000000 -0.000004 0.000010 0.000000 1.994660
    24 16.525246 0.000000 0.000004 -0.027913 -0.040776 -1.744106
    25 6.879452 0.000000 0.000000 -0.005219 -0.002811 -0.539666
    26 3.859703 -0.142403 -1.191975 -0.479143 0.152189 -0.879872
    27 1.312565 0.000001 0.000004 0.000000 0.009664 -0.439719
    28 0.729362 0.000002 0.000004 -0.028979 0.117255 -0.451390
    29 3.942326 0.046774 -0.431438 -0.155013 0.073328 -0.810646
    30 1.539093 0.000001 0.000000 0.041407 0.089644 -0.699058
    31 1.196320 -0.000001 0.000004 -0.000002 0.007360 -0.430801
    32 3.883686 -0.046767 0.431446 0.812647 -0.191548 -1.550228
    33 1.719570 0.000002 0.000004 0.194938 -0.171308 -0.606847
    34 1.209183 -0.000001 -0.000004 0.409188 -0.306122 -0.737508
    35 3.859859 -0.137950 1.332462 0.716014 -0.200224 -1.353892
    36 1.719429 0.000002 0.000000 -0.000001 0.004072 -0.363008
    37 1.099670 0.000001 0.000004 0.133914 -0.229713 -0.543027
    38 0.806049 -0.348922 1.321259 -1.148537 -0.413342 -0.685814
    39 1.789787 0.000000 0.000004 0.143112 0.004764 0.680910
    40 1.207001 0.000000 -0.000004 -0.238537 -0.328321 0.202547
    41 3.859665 -0.132565 1.193108 0.479139 -0.158543 -0.879039
    42 1.312561 0.000000 0.000000 0.000000 -0.011932 -0.439671
    43 0.729366 0.000002 0.000000 0.000002 -0.006134 -0.244270
    44 3.942291 0.050330 0.431042 -0.174164 0.127577 -1.207787
    45 1.539097 0.000003 0.000000 0.000000 -0.005853 -0.247769
    46 1.196320 0.000000 0.000000 0.004942 -0.275387 -1.121008
    47 3.883648 -0.050325 -0.431044 -0.040059 -0.165983 -1.257799
    48 1.719574 -0.000005 0.000000 0.366781 -0.096847 -2.862813
    49 1.209183 -0.000001 0.000000 0.000001 -0.004461 -0.216374
    50 3.859825 -0.148935 -1.331284 -0.354417 0.038566 -0.532000
    51 1.719425 0.000000 0.000000 0.089602 0.216058 -1.899362
    52 1.099663 0.000000 0.000000 0.000002 -0.004208 -0.244311
    53 0.806015 -0.359835 -1.318335 0.934008 0.297778 -0.930654
    54 1.789780 0.000001 0.000000 0.009095 -0.315147 0.639494
    55 1.207001 0.000000 0.000004 0.000382 -0.070243 0.716387
    56 2.338451 -1.535743 -6.391512 1.520238 -0.094383 -2.001948
  time 22
    0 -0.002349 -2.195374 19.839783 1.570777 0.000007 -0.000052
    1 0.000005 3.345128 -2.981903 1.609304 0.077619 1.584838
    2 4.018331 0.000000 0.000000 -0.586031 -0.036601 0.081927
    3 3.518564 0.000000 0.000000 -0.131218 -0.042401 0.157573
    4 8.942642 0.000000 0.000000 -0.411863 -0.013770 0.271616
    5 3.307269 0.000000 -0.000004 -2.940268 -0.130079 0.387318
    6 3.593710 -0.000001 -0.000004 0.897448 -0.024329 0.614089
    7 1.999994 -3.000001 0.000004 -1.570753 -0.000007 -1.326410
    8 2.033349 1.000771 -1.937607 -1.688820 1.147837 2.790133
    9 6.028143 0.000002 -0.000004 1.665868 0.041320 -0.700363
    10 11.692545 0.000000 0.000000 0.025336 -0.256111 -1.029787
    11 11.481701 0.000000 0.000000 -1.605107 -0.192169 -0.199006
    12 2.676086 -1.712440 0.000000 -1.570753 -0.000007 -1.570752
    13 2.033341 1.000767 1.937660 0.294908 -1.313922 -2.508530
    14 6.028140 0.000002 0.000000 -1.681409 -0.456737 -0.237149
    15 11.692553 0.000000 0.000011 -0.160644 0.725911 -1.403625
    16 11.481667 0.000000 -0.000031 0.892412 -0.014261 -0.151440
    17 2.676086 -1.712440 0.000004 1.570753 0.000007 1.570752
    18 -3.890452 0.000004 0.000004 -1.570961 0.229025 -1.575733
    19 17.848171 0.000000 0.000004 0.000009 0.000000 1.661799
    20 16.525251 0.000000 0.000004 0.038598 0.040775 -1.043379
    21 6.879454 0.000000 0.000008 -0.081332 -0.002951 -0.584373
    22 3.890452 -0.000004 -0.000004 -1.570727 -1.373843 -1.565546
    23 17.848175 0.000000 -0.000004 0.000010 0.000000 1.994660
    24 16.525246 0.000000 0.000004 -0.027913 -0.040776 -1.744106
    25 6.879452 0.000000 0.000000 -0.005219 -0.002811 -0.539666
    26 3.859703 -0.142403 -1.191975 -0.479143 0.152189 -0.879872
    27 1.312565 0.000001 0.000004 0.000000 0.009664 -0.439719
    28 0.729362 0.000002 0.000004 -0.028979 0.117255 -0.451390
    29 3.942326 0.046774 -0.431438 -0.155013 0.073328 -0.810646
    30 1.539093 0.000001 0.000000 0.041407 0.089644 -0.699058
    31 1.196320 -0.000001 0.000004 -0.000002 0.007360 -0.430801
    32 3.883686 -0.046767 0.431446 0.812647 -0.191548 -1.550228
    33 1.719570 0.000002 0.000004 0.194938 -0.171308 -0.606847
    34 1.209183 -0.000001 -0.000004 0.409188 -0.306122 -0.737508
    35 3.859859 -0.137950 1.332462 0.716014 -0.200224 -1.353892
    36 1.719429 0.000002 0.000000 -0.000001 0.004072 -0.363008
    37 1.099670 0.000001 0.000004 0.133914 -0.229713 -0.543027
    38 0.806049 -0.348922 1.321259 -1.148537 -0.413342 -0.685814
    39 1.789787 0.000000 0.000004 0.143112 0.004764 0.680910
    40 1.207001 0.000000 -0.000004 -0.238537 -0.328321 0.202547
    41 3.859665 -0.132565 1.193108 0.479139 -0.158543 -0.879039
    42 1.312561 0.000000 0.000000 0.000000 -0.011932 -0.439671
    43 0.729366 0.000002 0.000000 0.000002 -0.006134 -0.244270
    44 3.942291 0.050330 0.431042 -0.174164 0.127577 -1.207787
    45 1.539097 0.000003 0.000000 0.000000 -0.005853 -0.247769
    46 1.196320 0.000000 0.000000 0.004942 -0.275387 -1.121008
    47 3.883648 -0.050325 -0.431044 -0.040059 -0.165983 -1.257799
    48 1.719574 -0.000005 0.000000 0.366781 -0.096847 -2.862813
    49 1.209183 -0.000001 0.000000 0.000001 -0.004461 -0.216374
    50 3.859825 -0.148935 -1.331284 -0.354417 0.038566 -0.532000
    51 1.719425 0.000000 0.000000 0.089602 0.216058 -1.899362
    52 1.099663 0.000000 0.000000 0.000002 -0.004208 -0.244311
    53 0.806015 -0.359835 -1.318335 0.934008 0.297778 -0.930654
    54 1.789780 0.000001 0.000000 0.009095 -0.315147 0.639494
    55 1.207001 0.000000 0.000004 0.000382 -0.070243 0.716387
    56 2.338451 -1.535743 -6.391512 1.520238 -0.094383 -2.001948
  time 23
    0 -0.002349 -2.195374 19.839783 1.570777 0.000007 -0.000052
    1 0.000005 3.345128 -2.981903 1.584278 0.083252 1.575687
    2 4.018331 0.000000 0.000000 -0.605119 -0.057790 0.056567
    3 3.518564 0.000000 0.000000 -0.131218 -0.042401 0.157573
    4 8.942642 0.000000 0.000000 -0.411863 -0.013770 0.271616
    5 3.307269 0.000000 -0.000004 -2.940268 -0.130079 0.387318
    6 3.593710 -0.000001 -0.000004 0.897448 -0.024329 0.614089
    7 1.999994 -3.000001 0.000004 -1.570753 -0.000007 -1.326410
    8 2.033349 1.000771 -1.937607 -1.688728 1.147837 2.790133
    9 6.028143 0.000002 -0.000004 1.665868 0.041320 -0.700363
    10 11.692545 0.000000 0.000000 0.025336 -0.256111 -1.029787
    11 11.481701 0.000000 0.000000 -1.605107 -0.192169 -0.199006
    12 2.676086 -1.712440 0.000000 -1.570753 -0.000007 -1.570752
    13 2.033341 1.000767 1.937660 0.294908 -1.313922 -2.508530
    14 6.028140 0.000002 0.000000 -1.735484 -0.480549 -0.202961
    15 11.692553 0.000000 0.000011 -0.160644 0.725911 -1.403625
    16 11.481667 0.000000 -0.000031 0.850181 -0.014261 -0.151440
    17 2.676086 -1.712440 0.000004 1.570753 0.000007 1.570752
    18 -3.890452 0.000004 0.000004 -1.570961 0.229025 -1.575733
    19 17.848171 0.000000 0.000004 0.000009 0.000000 1.661799
    20 16.525251 0.000000 0.000004 0.038598 0.040775 -1.043379
    21 6.879454 0.000000 0.000008 -0.081332 -0.002951 -0.584373
    22 3.890452 -0.000004 -0.000004 -1.570727 -1.373843 -1.565546
    23 17.848175 0.000000 -0.000004 0.000010 0.000000 1.994660
    24 16.525246 0.000000 0.000004 -0.027913 -0.040776 -1.744106
    25 6.879452 0.000000 0.000000 -0.005219 -0.002811 -0.539666
    26 3.859703 -0.142403 -1.191975 -0.479143 0.152189 -0.879872
    27 1.312565 0.000001 0.000004 0.000000 0.009664 -0.439719
    28 0.729362 0.000002 0.000004 -0.028979 0.117255 -0.451390
    29 3.942326 0.046774 -0.431438 -0.155013 0.073328 -0.810646
    30 1.539093 0.000001 0.000000 0.041407 0.089644 -0.699058
    31 1.196320 -0.000001 0.000004 -0.000002 0.007360 -0.430801
    32 3.883686 -0.046767 0.431446 0.812647 -0.191548 -1.550228
    33 1.719570 0.000002 0.000004 0.194938 -0.171308 -0.606847
    34 1.209183 -0.000001 -0.000004 0.409188 -0.306122 -0.737508
    35 3.859859 -0.137950 1.332462 0.716014 -0.200224 -1.353892
    36 1.719429 0.000002 0.000000 -0.000001 0.004072 -0.363008
    37 1.099670 0.000001 0.000004 0.133914 -0.229713 -0.543027
    38 0.806049 -0.348922 1.321259 -1.148537 -0.413342 -0.685814
    39 1.789787 0.000000 0.000004 0.143112 0.004764 0.680910
    40 1.207001 0.000000 -0.000004 -0.238537 -0.328321 0.202547
    41 3.859665 -0.132565 1.193108 0.479139 -0.158543 -0.879039
    42 1.312561 0.000000 0.000000 0.000000 -0.011932 -0.439671
    43 0.729366 0.000002 0.000000 0.000002 -0.006134 -0.244270
    44 3.942291 0.050330 0.431042 -0.174164 0.127577 -1.207787
    45 1.539097 0.000003 0.000000 0.000000 -0.005853 -0.247769
    46 1.196320 0.000000 0.000000 0.004942 -0.275387 -1.121008
    47 3.883648 -0.050325 -0.431044 -0.040059 -0.165983 -1.257799
    48 1.719574 -0.000005 0.000000 0.366781 -0.096847 -2.862813
    49 1.209183 -0.000001 0.000000 0.000001 -0.004461 -0.216374
    50 3.859825 -0.148935 -1.331284 -0.354417 0.038566 -0.532000
    51 1.719425 0.000000 0.000000 0.089602 0.216058 -1.899362
    52 1.099663 0.000000 0.000000 0.000002 -0.004208 -0.244311
    53 0.806015 -0.359835 -1.318335 0.934008 0.297778 -0.930654
    54 1.789780 0.000001 0.000000 0.009095 -0.315147 0.639494
    55 1.207001 0.000000 0.000004 0.000382 -0.070243 0.716387
    56 2.338451 -1.535743 -6.391512 1.520238 -0.094383 -2.001948
  time 24
    0 -0.002349 -2.195374 19.839783 1.570777 0.000007 -0.000052
    1 0.000005 3.345128 -2.981903 1.570790 0.086284 1.570789
    2 4.018331 0.000000 0.000000 -0.613140 -0.066670 0.045925
    3 3.518564 0.000000 0.000000 -0.131218 -0.042401 0.157573
    4 8.942642 0.000000 0.000000 -0.411863 -0.013770 0.271616
    5 3.307269 0.000000 -0.000004 -2.940268 -0.130079 0.387318
    6 3.593710 -0.000001 -0.000004 0.897448 -0.024329 0.614089
    7 1.999994 -3.000001 0.000004 -1.570800 -0.000007 -1.326410
    8 2.033349 1.000771 -1.937607 -1.688728 1.147837 2.790133
    9 6.028143 0.000002 -0.000004 1.665868 0.041320 -0.700363
    10 11.692545 0.000000 0.000000 0.025336 -0.256111 -1.029787
    11 11.481701 0.000000 0.000000 -1.605107 -0.192169 -0.199006
    12 2.676086 -1.712440 0.000000 -1.570753 -0.000007 -1.570752
    13 2.033341 1.000767 1.937660 0.294908 -1.313922 -2.508530
    14 6.028140 0.000002 0.000000 -1.764597 -0.491612 -0.187078
    15 11.692553 0.000000 0.000011 -0.160644 0.725911 -1.403625
    16 11.481667 0.000000 -0.000031 0.832499 -0.014261 -0.151440
    17 2.676086 -1.712440 0.000004 1.570753 0.000007 1.570800
    18 -3.890452 0.000004 0.000004 -1.570961 0.229025 -1.575733
    19 17.848171 0.000000 0.000004 0.000009 0.000000 1.661799
    20 16.525251 0.000000 0.000004 0.038598 0.040775 -1.043379
    21 6.879454 0.000000 0.000008 -0.081332 -0.002951 -0.584373
    22 3.890452 -0.000004 -0.000004 -1.570727 -1.373843 -1.565546
    23 17.848175 0.000000 -0.000004 0.000010 0.000000 1.994660
    24 16.525246 0.000000 0.000004 -0.027913 -0.040776 -1.744106
    25 6.879452 0.000000 0.000000 -0.005219 -0.002811 -0.539666
    26 3.859703 -0.142403 -1.191975 -0.479143 0.152189 -0.879872
    27 1.312565 0.000001 0.000004 0.000000 0.009664 -0.439719
    28 0.729362 0.000002 0.000004 -0.028979 0.117255 -0.451390
    29 3.942326 0.046774 -0.431438 -0.155013 0.073328 -0.810646
    30 1.539093 0.000001 0.000000 0.041407 0.089644 -0.699058
    31 1.196320 -0.000001 0.000004 -0.000002 0.007360 -0.430801
    32 3.883686 -0.046767 0.431446 0.812647 -0.191548 -1.550228
    33 1.719570 0.000002 0.000004 0.194938 -0.171308 -0.606847
    34 1.209183 -0.000001 -0.000004 0.409188 -0.306122 -0.737508
    35 3.859859 -0.137950 1.332462 0.716014 -0.200224 -1.353892
    36 1.719429 0.000002 0.000000 -0.000001 0.004072 -0.363008
    37 1.099670 0.000001 0.000004 0.133914 -0.229713 -0.543027
    38 0.806049 -0.348922 1.321259 -1.148537 -0.413342 -0.685814
    39 1.789787 0.000000 0.000004 0.143112 0.004764 0.680910
    40 1.207001 0.000000 -0.000004 -0.238537 -0.328321 0.202547
    41 3.859665 -0.132565 1.193108 0.479139 -0.158543 -0.879039
    42 1.312561 0.000000 0.000000 0.000000 -0.011932 -0.439671
    43 0.729366 0.000002 0.000000 0.000002 -0.006134 -0.244270
    44 3.942291 0.050330 0.431042 -0.174164 0.127577 -1.207787
    45 1.539097 0.000003 0.000000 0.000000 -0.005853 -0.247769
    46 1.196320 0.000000 0.000000 0.004942 -0.275387 -1.121008
    47 3.883648 -0.050325 -0.431044 -0.040059 -0.165983 -1.257799
    48 1.719574 -0.000005 0.000000 0.366781 -0.096847 -2.862900
    49 1.209183 -0.000001 0.000000 0.000001 -0.004461 -0.216374
    50 3.859825 -0.148935 -1.331284 -0.354417 0.038566 -0.532000
    51 1.719425 0.000000 0.000000 0.089602 0.216058 -1.899362
    52 1.099663 0.000000 0.000000 0.000002 -0.004208 -0.244311
    53 0.806015 -0.359835 -1.318335 0.934008 0.297778 -0.930654
    54 1.789780 0.000001 0.000000 0.009095 -0.315147 0.639494
    55 1.207001 0.000000 0.000004 0.000382 -0.070243 0.716387
    56 2.338451 -1.535743 -6.391512 1.520238 -0.094383 -2.001948
end
