// Created by Crowbar 0.71
version 1
nodes
  0 "ValveBiped.Bip01_Pelvis" -1
  1 "ValveBiped.Bip01_Spine" 0
  2 "ValveBiped.Bip01_Spine1" 1
  3 "ValveBiped.Bip01_Spine2" 2
  4 "ValveBiped.Bip01_Spine4" 3
  5 "ValveBiped.Bip01_Neck1" 4
  6 "ValveBiped.Bip01_Head1" 5
  7 "ValveBiped.forward" 6
  8 "ValveBiped.Bip01_R_Clavicle" 4
  9 "ValveBiped.Bip01_R_UpperArm" 8
  10 "ValveBiped.Bip01_R_Forearm" 9
  11 "ValveBiped.Bip01_R_Hand" 10
  12 "ValveBiped.Anim_Attachment_RH" 11
  13 "ValveBiped.Bip01_L_Clavicle" 4
  14 "ValveBiped.Bip01_L_UpperArm" 13
  15 "ValveBiped.Bip01_L_Forearm" 14
  16 "ValveBiped.Bip01_L_Hand" 15
  17 "ValveBiped.Anim_Attachment_LH" 16
  18 "ValveBiped.Bip01_R_Thigh" 0
  19 "ValveBiped.Bip01_R_Calf" 18
  20 "ValveBiped.Bip01_R_Foot" 19
  21 "ValveBiped.Bip01_R_Toe0" 20
  22 "ValveBiped.Bip01_L_Thigh" 0
  23 "ValveBiped.Bip01_L_Calf" 22
  24 "ValveBiped.Bip01_L_Foot" 23
  25 "ValveBiped.Bip01_L_Toe0" 24
  26 "ValveBiped.Bip01_L_Finger4" 16
  27 "ValveBiped.Bip01_L_Finger41" 26
  28 "ValveBiped.Bip01_L_Finger42" 27
  29 "ValveBiped.Bip01_L_Finger3" 16
  30 "ValveBiped.Bip01_L_Finger31" 29
  31 "ValveBiped.Bip01_L_Finger32" 30
  32 "ValveBiped.Bip01_L_Finger2" 16
  33 "ValveBiped.Bip01_L_Finger21" 32
  34 "ValveBiped.Bip01_L_Finger22" 33
  35 "ValveBiped.Bip01_L_Finger1" 16
  36 "ValveBiped.Bip01_L_Finger11" 35
  37 "ValveBiped.Bip01_L_Finger12" 36
  38 "ValveBiped.Bip01_L_Finger0" 16
  39 "ValveBiped.Bip01_L_Finger01" 38
  40 "ValveBiped.Bip01_L_Finger02" 39
  41 "ValveBiped.Bip01_R_Finger4" 11
  42 "ValveBiped.Bip01_R_Finger41" 41
  43 "ValveBiped.Bip01_R_Finger42" 42
  44 "ValveBiped.Bip01_R_Finger3" 11
  45 "ValveBiped.Bip01_R_Finger31" 44
  46 "ValveBiped.Bip01_R_Finger32" 45
  47 "ValveBiped.Bip01_R_Finger2" 11
  48 "ValveBiped.Bip01_R_Finger21" 47
  49 "ValveBiped.Bip01_R_Finger22" 48
  50 "ValveBiped.Bip01_R_Finger1" 11
  51 "ValveBiped.Bip01_R_Finger11" 50
  52 "ValveBiped.Bip01_R_Finger12" 51
  53 "ValveBiped.Bip01_R_Finger0" 11
  54 "ValveBiped.Bip01_R_Finger01" 53
  55 "ValveBiped.Bip01_R_Finger02" 54
  56 "ValveBiped.baton_parent" 11
end
skeleton
  time 0
    0 -0.533615 0.000005 38.566917 0.000000 0.027416 -1.570796
    1 0.000005 3.345128 -2.981903 0.027416 0.027416 0.001506
    2 4.018331 0.000000 0.000000 -0.000510 0.000000 0.000000
    3 3.518564 0.000000 0.000000 0.001751 0.000000 0.000000
    4 8.942642 0.000000 0.000000 0.003388 0.000000 0.000000
    5 3.307269 0.000000 -0.000004 0.006990 0.054831 0.000000
    6 3.593710 -0.000001 -0.000004 0.007096 0.000000 0.000000
    7 1.999994 -3.000001 0.000004 -0.023151 -0.027416 0.000000
    8 2.033349 1.000771 -1.937607 0.051364 -0.029120 0.022454
    9 6.028143 0.000002 -0.000004 -0.010242 0.028614 -0.000141
    10 11.692545 0.000000 0.000000 -0.001054 0.000000 0.000000
    11 11.481701 0.000000 0.000000 0.000771 -0.027313 0.001861
    12 2.676086 -1.712440 0.000000 -0.027416 -0.027416 0.000000
    13 2.033341 1.000767 1.937660 1.962486 -1.292386 2.671509
    14 6.028140 0.000002 0.000000 -0.322859 -1.132799 -1.161496
    15 11.692553 0.000000 0.000011 -0.220167 0.263306 -1.107938
    16 11.481667 0.000000 -0.000031 1.260278 -0.132674 -0.388506
    17 2.676086 -1.712440 0.000004 0.027416 0.027416 0.000000
    18 -3.890452 0.000004 0.000004 -0.027507 -0.027416 0.000905
    19 17.848171 0.000000 0.000004 0.000597 0.000000 0.000000
    20 16.525251 0.000000 0.000004 -0.018704 0.000674 0.000712
    21 6.879454 0.000000 0.000008 -0.010199 -0.001420 -0.000052
    22 3.890452 -0.000004 -0.000004 -0.027324 -0.027416 0.000905
    23 17.848175 0.000000 -0.000004 0.000597 0.000000 0.000000
    24 16.525246 0.000000 0.000004 -0.018704 -0.000487 -0.000712
    25 6.879452 0.000000 0.000000 -0.010199 -0.000127 -0.000051
    26 3.859703 -0.142403 -1.191975 -0.479143 0.152189 -0.879872
    27 1.312565 0.000001 0.000004 0.000000 0.009664 -0.439719
    28 0.729362 0.000002 0.000004 -0.028979 0.117255 -0.451390
    29 3.942326 0.046774 -0.431438 -0.155013 0.073328 -0.810646
    30 1.539093 0.000001 0.000000 0.041407 0.089644 -0.699058
    31 1.196320 -0.000001 0.000004 -0.000002 0.007360 -0.430801
    32 3.883686 -0.046767 0.431446 0.812670 -0.191549 -1.550266
    33 1.719570 0.000002 0.000004 0.194938 -0.171308 -0.606847
    34 1.209183 -0.000001 -0.000004 0.409190 -0.306121 -0.737508
    35 3.859859 -0.137950 1.332462 0.716035 -0.200231 -1.353928
    36 1.719429 0.000002 0.000000 -0.000001 0.004072 -0.363008
    37 1.099670 0.000001 0.000004 0.133914 -0.229713 -0.543027
    38 0.806049 -0.348922 1.321259 -1.148537 -0.413342 -0.685814
    39 1.789787 0.000000 0.000004 0.143112 0.004764 0.680910
    40 1.207001 0.000000 -0.000004 -0.238537 -0.328321 0.202547
    41 3.859665 -0.132565 1.193108 -0.015342 0.008363 -0.002767
    42 1.312561 0.000000 0.000000 -0.007674 0.000000 -0.000208
    43 0.729366 0.000002 0.000000 -0.004263 0.000000 -0.000107
    44 3.942291 0.050330 0.431042 -0.014141 0.002705 -0.001384
    45 1.539097 0.000003 0.000000 -0.004324 0.000000 -0.000102
    46 1.196320 0.000000 0.000000 -0.007518 0.000000 -0.000169
    47 3.883648 -0.050325 -0.431044 -0.010257 -0.001499 -0.000461
    48 1.719574 -0.000005 0.000000 -0.006396 0.000000 -0.000139
    49 1.209183 -0.000001 0.000000 -0.003776 0.000000 -0.000078
    50 3.859825 -0.148935 -1.331284 -0.009285 -0.006186 0.000673
    51 1.719425 0.000000 0.000000 -0.006335 0.000000 -0.000115
    52 1.099663 0.000000 0.000000 -0.004264 0.000000 -0.000073
    53 0.806015 -0.359835 -1.318335 -0.013857 0.021017 0.011757
    54 1.789780 0.000001 0.000000 0.003989 0.000000 -0.000110
    55 1.207001 0.000000 0.000004 0.006334 0.000000 -0.000168
    56 2.338451 -1.535743 -6.391512 -0.034941 0.026533 -0.001647
end
