// Created by Crowbar 0.71
version 1
nodes
  0 "ValveBiped.Bip01_Pelvis" -1
  1 "ValveBiped.Bip01_Spine" 0
  2 "ValveBiped.Bip01_Spine1" 1
  3 "ValveBiped.Bip01_Spine2" 2
  4 "ValveBiped.Bip01_Spine4" 3
  5 "ValveBiped.Bip01_Neck1" 4
  6 "ValveBiped.Bip01_Head1" 5
  7 "ValveBiped.forward" 6
  8 "ValveBiped.Bip01_R_Clavicle" 4
  9 "ValveBiped.Bip01_R_UpperArm" 8
  10 "ValveBiped.Bip01_R_Forearm" 9
  11 "ValveBiped.Bip01_R_Hand" 10
  12 "ValveBiped.Anim_Attachment_RH" 11
  13 "ValveBiped.Bip01_L_Clavicle" 4
  14 "ValveBiped.Bip01_L_UpperArm" 13
  15 "ValveBiped.Bip01_L_Forearm" 14
  16 "ValveBiped.Bip01_L_Hand" 15
  17 "ValveBiped.Anim_Attachment_LH" 16
  18 "ValveBiped.Bip01_R_Thigh" 0
  19 "ValveBiped.Bip01_R_Calf" 18
  20 "ValveBiped.Bip01_R_Foot" 19
  21 "ValveBiped.Bip01_R_Toe0" 20
  22 "ValveBiped.Bip01_L_Thigh" 0
  23 "ValveBiped.Bip01_L_Calf" 22
  24 "ValveBiped.Bip01_L_Foot" 23
  25 "ValveBiped.Bip01_L_Toe0" 24
  26 "ValveBiped.Bip01_L_Finger4" 16
  27 "ValveBiped.Bip01_L_Finger41" 26
  28 "ValveBiped.Bip01_L_Finger42" 27
  29 "ValveBiped.Bip01_L_Finger3" 16
  30 "ValveBiped.Bip01_L_Finger31" 29
  31 "ValveBiped.Bip01_L_Finger32" 30
  32 "ValveBiped.Bip01_L_Finger2" 16
  33 "ValveBiped.Bip01_L_Finger21" 32
  34 "ValveBiped.Bip01_L_Finger22" 33
  35 "ValveBiped.Bip01_L_Finger1" 16
  36 "ValveBiped.Bip01_L_Finger11" 35
  37 "ValveBiped.Bip01_L_Finger12" 36
  38 "ValveBiped.Bip01_L_Finger0" 16
  39 "ValveBiped.Bip01_L_Finger01" 38
  40 "ValveBiped.Bip01_L_Finger02" 39
  41 "ValveBiped.Bip01_R_Finger4" 11
  42 "ValveBiped.Bip01_R_Finger41" 41
  43 "ValveBiped.Bip01_R_Finger42" 42
  44 "ValveBiped.Bip01_R_Finger3" 11
  45 "ValveBiped.Bip01_R_Finger31" 44
  46 "ValveBiped.Bip01_R_Finger32" 45
  47 "ValveBiped.Bip01_R_Finger2" 11
  48 "ValveBiped.Bip01_R_Finger21" 47
  49 "ValveBiped.Bip01_R_Finger22" 48
  50 "ValveBiped.Bip01_R_Finger1" 11
  51 "ValveBiped.Bip01_R_Finger11" 50
  52 "ValveBiped.Bip01_R_Finger12" 51
  53 "ValveBiped.Bip01_R_Finger0" 11
  54 "ValveBiped.Bip01_R_Finger01" 53
  55 "ValveBiped.Bip01_R_Finger02" 54
  56 "ValveBiped.baton_parent" 11
end
skeleton
  time 0
    0 -0.002349 -0.531261 19.839783 1.570777 0.000007 -0.000052
    1 0.000005 3.345128 -2.981903 1.570797 0.086293 1.570797
    2 4.018331 0.000000 0.000000 -0.613140 -0.066670 0.045925
    3 3.518564 0.000000 0.000000 -0.131218 -0.042401 0.157573
    4 8.942642 0.000000 0.000000 -0.411863 -0.013770 0.271616
    5 3.307269 0.000000 -0.000004 -2.940268 -0.130079 0.387318
    6 3.593710 -0.000001 -0.000004 0.897448 -0.024329 0.614089
    7 1.999994 -3.000001 0.000004 -1.570800 -0.000007 -1.326410
    8 2.033349 1.000771 -1.937607 -1.688728 1.147837 2.790133
    9 6.028143 0.000002 -0.000004 1.665843 0.041308 -0.700349
    10 11.692545 0.000000 0.000000 0.025336 -0.256111 -1.029787
    11 11.481701 0.000000 0.000000 -1.605107 -0.192141 -0.198988
    12 2.676086 -1.712440 0.000000 -1.570797 0.000001 -1.570797
    13 2.033341 1.000767 1.937660 0.294931 -1.313958 -2.508565
    14 6.028140 0.000002 0.000000 -1.764597 -0.491612 -0.187078
    15 11.692553 0.000000 0.000011 -0.160644 0.725911 -1.403625
    16 11.481667 0.000000 -0.000031 0.832526 -0.014268 -0.151440
    17 2.676086 -1.712440 0.000004 1.570753 0.000007 1.570800
    18 -3.890452 0.000004 0.000004 -1.570961 0.229025 -1.575733
    19 17.848171 0.000000 0.000004 0.000009 0.000000 1.661799
    20 16.525251 0.000000 0.000004 0.038598 0.040775 -1.043379
    21 6.879454 0.000000 0.000008 -0.081332 -0.002951 -0.584373
    22 3.890452 -0.000004 -0.000004 -1.570727 -1.373843 -1.565546
    23 17.848175 0.000000 -0.000004 0.000010 0.000000 1.994660
    24 16.525246 0.000000 0.000004 -0.027913 -0.040776 -1.744106
    25 6.879452 0.000000 0.000000 -0.005219 -0.002811 -0.539668
    26 3.859703 -0.142403 -1.191975 -0.479143 0.152189 -0.879872
    27 1.312565 0.000001 0.000004 0.000000 0.009664 -0.439719
    28 0.729362 0.000002 0.000004 -0.028979 0.117255 -0.451390
    29 3.942326 0.046774 -0.431438 -0.155011 0.073329 -0.810646
    30 1.539093 0.000001 0.000000 0.041407 0.089644 -0.699058
    31 1.196320 -0.000001 0.000004 -0.000002 0.007360 -0.430801
    32 3.883686 -0.046767 0.431446 0.812670 -0.191549 -1.550266
    33 1.719570 0.000002 0.000004 0.194938 -0.171308 -0.606847
    34 1.209183 -0.000001 -0.000004 0.409190 -0.306121 -0.737508
    35 3.859859 -0.137950 1.332462 0.716033 -0.200230 -1.353927
    36 1.719429 0.000002 0.000000 -0.000001 0.004072 -0.363008
    37 1.099670 0.000001 0.000004 0.133914 -0.229713 -0.543027
    38 0.806049 -0.348922 1.321259 -1.148537 -0.413342 -0.685814
    39 1.789787 0.000000 0.000004 0.143112 0.004764 0.680910
    40 1.207001 0.000000 -0.000004 -0.238537 -0.328319 0.202547
    41 3.859665 -0.132565 1.193108 0.479138 -0.158546 -0.879039
    42 1.312561 0.000000 0.000000 0.000000 -0.011932 -0.439671
    43 0.729366 0.000002 0.000000 0.000002 -0.006134 -0.244270
    44 3.942291 0.050330 0.431042 -0.174164 0.127577 -1.207787
    45 1.539097 0.000003 0.000000 0.000000 -0.005853 -0.247769
    46 1.196320 0.000000 0.000000 0.004942 -0.275387 -1.121008
    47 3.883648 -0.050325 -0.431044 -0.040059 -0.165983 -1.257799
    48 1.719574 -0.000005 0.000000 0.366781 -0.096847 -2.862900
    49 1.209183 -0.000001 0.000000 0.000001 -0.004461 -0.216376
    50 3.859825 -0.148935 -1.331284 -0.354417 0.038566 -0.532000
    51 1.719425 0.000000 0.000000 0.089611 0.216063 -1.899416
    52 1.099663 0.000000 0.000000 0.000002 -0.004208 -0.244311
    53 0.806015 -0.359835 -1.318335 0.934008 0.297777 -0.930652
    54 1.789780 0.000001 0.000000 0.009096 -0.315147 0.639492
    55 1.207001 0.000000 0.000004 0.000381 -0.070245 0.716387
    56 2.338451 -1.535743 -6.391512 1.520238 -0.094383 -2.001948
  time 1
    0 -0.002349 -0.183594 19.902285 1.570777 0.000007 -0.000052
    1 0.000005 3.345128 -2.981903 1.570797 0.086293 1.570797
    2 4.018331 0.000000 0.000000 -0.612785 -0.069690 0.041599
    3 3.518564 0.000000 0.000000 -0.130930 -0.043216 0.151377
    4 8.942642 0.000000 0.000000 -0.411863 -0.013770 0.271616
    5 3.307269 0.000000 -0.000004 -2.954163 -0.116728 0.374001
    6 3.593710 -0.000001 -0.000004 0.901633 -0.012224 0.595333
    7 1.999994 -3.000001 0.000004 -1.570800 -0.000007 -1.326410
    8 2.033349 1.000771 -1.937607 -1.724442 1.148279 2.700681
    9 6.028143 0.000002 -0.000004 1.828139 0.025423 -0.502804
    10 11.692545 0.000000 0.000000 0.058102 -0.241334 -1.097334
    11 11.481701 0.000000 0.000000 -1.452320 -0.206333 -0.186824
    12 2.676086 -1.712440 0.000000 -1.570797 0.000001 -1.570797
    13 2.033341 1.000767 1.937660 0.294931 -1.313958 -2.508565
    14 6.028140 0.000002 0.000000 -1.756062 -0.495120 -0.177594
    15 11.692553 0.000000 0.000011 -0.173310 0.694370 -1.395093
    16 11.481667 0.000000 -0.000031 0.832526 -0.014268 -0.151440
    17 2.676086 -1.712440 0.000004 1.570753 0.000007 1.570752
    18 -3.890452 0.000004 0.000004 -1.570784 0.209402 -1.575797
    19 17.848171 0.000000 0.000004 0.000297 0.000000 1.682430
    20 16.525251 0.000000 0.000004 0.038598 0.041140 -1.044686
    21 6.879454 0.000000 0.000008 -0.081332 -0.002951 -0.584373
    22 3.890452 -0.000004 -0.000004 -1.569014 -1.382974 -1.567059
    23 17.848175 0.000000 -0.000004 0.000010 0.000000 1.980386
    24 16.525246 0.000000 0.000004 -0.027913 -0.040776 -1.744106
    25 6.879452 0.000000 0.000000 -0.005219 -0.002811 -0.539668
    26 3.859703 -0.142403 -1.191975 -0.479143 0.152189 -0.879872
    27 1.312565 0.000001 0.000004 0.000000 0.009664 -0.439719
    28 0.729362 0.000002 0.000004 -0.028979 0.117255 -0.451390
    29 3.942326 0.046774 -0.431438 -0.155011 0.073329 -0.810646
    30 1.539093 0.000001 0.000000 0.041407 0.089644 -0.699058
    31 1.196320 -0.000001 0.000004 -0.000002 0.007360 -0.430801
    32 3.883686 -0.046767 0.431446 0.812670 -0.191549 -1.550266
    33 1.719570 0.000002 0.000004 0.194938 -0.171308 -0.606847
    34 1.209183 -0.000001 -0.000004 0.409190 -0.306121 -0.737508
    35 3.859859 -0.137950 1.332462 0.716033 -0.200230 -1.353927
    36 1.719429 0.000002 0.000000 -0.000001 0.004072 -0.363008
    37 1.099670 0.000001 0.000004 0.133914 -0.229713 -0.543027
    38 0.806049 -0.348922 1.321259 -1.148537 -0.413342 -0.685814
    39 1.789787 0.000000 0.000004 0.143112 0.004764 0.680910
    40 1.207001 0.000000 -0.000004 -0.238537 -0.328319 0.202547
    41 3.859665 -0.132565 1.193108 0.479138 -0.158546 -0.879039
    42 1.312561 0.000000 0.000000 0.000000 -0.011932 -0.439671
    43 0.729366 0.000002 0.000000 0.000002 -0.006134 -0.244270
    44 3.942291 0.050330 0.431042 -0.174164 0.127577 -1.207787
    45 1.539097 0.000003 0.000000 0.000000 -0.005853 -0.247769
    46 1.196320 0.000000 0.000000 0.004942 -0.275387 -1.121008
    47 3.883648 -0.050325 -0.431044 -0.040059 -0.165983 -1.257799
    48 1.719574 -0.000005 0.000000 0.366781 -0.096847 -2.862813
    49 1.209183 -0.000001 0.000000 0.000001 -0.004461 -0.216376
    50 3.859825 -0.148935 -1.331284 -0.354417 0.038566 -0.532000
    51 1.719425 0.000000 0.000000 0.089611 0.216063 -1.899416
    52 1.099663 0.000000 0.000000 0.000002 -0.004208 -0.244311
    53 0.806015 -0.359835 -1.318335 0.934008 0.297777 -0.930652
    54 1.789780 0.000001 0.000000 0.009096 -0.315147 0.639492
    55 1.207001 0.000000 0.000004 0.000381 -0.070245 0.716387
    56 2.338451 -1.535743 -6.391512 1.520238 -0.094383 -2.001948
  time 2
    0 -0.002349 0.460957 20.015570 1.570777 0.000007 -0.000052
    1 0.000005 3.345128 -2.981903 1.570797 0.086293 1.570797
    2 4.018331 0.000000 0.000000 -0.611943 -0.076893 0.031304
    3 3.518564 0.000000 0.000000 -0.130247 -0.045146 0.136612
    4 8.942642 0.000000 0.000000 -0.411863 -0.013770 0.271616
    5 3.307269 0.000000 -0.000004 -2.990769 -0.081530 0.338912
    6 3.593710 -0.000001 -0.000004 0.911610 0.016635 0.550537
    7 1.999994 -3.000001 0.000004 -1.570753 -0.000007 -1.326410
    8 2.033349 1.000771 -1.937607 -1.809601 1.149323 2.487599
    9 6.028143 0.000002 -0.000004 2.129574 -0.004115 -0.135949
    10 11.692545 0.000000 0.000000 0.136230 -0.206099 -1.258278
    11 11.481701 0.000000 0.000000 -1.088049 -0.240198 -0.157886
    12 2.676086 -1.712440 0.000000 -1.570797 0.000001 -1.570797
    13 2.033341 1.000767 1.937660 0.294931 -1.313958 -2.508565
    14 6.028140 0.000002 0.000000 -1.733497 -0.504362 -0.152539
    15 11.692553 0.000000 0.000011 -0.206755 0.611243 -1.372574
    16 11.481667 0.000000 -0.000031 0.832526 -0.014268 -0.151440
    17 2.676086 -1.712440 0.000004 1.570800 0.000007 1.570752
    18 -3.890452 0.000004 0.000004 -1.570784 0.173122 -1.575350
    19 17.848171 0.000000 0.000004 0.000800 -0.000108 1.719729
    20 16.525251 0.000000 0.000004 0.038598 0.041798 -1.047099
    21 6.879454 0.000000 0.000008 -0.081332 -0.002951 -0.584373
    22 3.890452 -0.000004 -0.000004 -1.570645 -1.398584 -1.565684
    23 17.848175 0.000000 -0.000004 0.000010 0.000000 1.952902
    24 16.525246 0.000000 0.000004 -0.027913 -0.040776 -1.744106
    25 6.879452 0.000000 0.000000 -0.005219 -0.002811 -0.539668
    26 3.859703 -0.142403 -1.191975 -0.479143 0.152189 -0.879872
    27 1.312565 0.000001 0.000004 0.000000 0.009664 -0.439719
    28 0.729362 0.000002 0.000004 -0.028979 0.117255 -0.451390
    29 3.942326 0.046774 -0.431438 -0.155011 0.073329 -0.810646
    30 1.539093 0.000001 0.000000 0.041407 0.089644 -0.699058
    31 1.196320 -0.000001 0.000004 -0.000002 0.007360 -0.430801
    32 3.883686 -0.046767 0.431446 0.812670 -0.191549 -1.550266
    33 1.719570 0.000002 0.000004 0.194938 -0.171308 -0.606847
    34 1.209183 -0.000001 -0.000004 0.409190 -0.306121 -0.737508
    35 3.859859 -0.137950 1.332462 0.716033 -0.200230 -1.353927
    36 1.719429 0.000002 0.000000 -0.000001 0.004072 -0.363008
    37 1.099670 0.000001 0.000004 0.133914 -0.229713 -0.543027
    38 0.806049 -0.348922 1.321259 -1.148537 -0.413342 -0.685814
    39 1.789787 0.000000 0.000004 0.143112 0.004764 0.680910
    40 1.207001 0.000000 -0.000004 -0.238537 -0.328319 0.202547
    41 3.859665 -0.132565 1.193108 0.479138 -0.158546 -0.879039
    42 1.312561 0.000000 0.000000 0.000000 -0.011932 -0.439671
    43 0.729366 0.000002 0.000000 0.000002 -0.006134 -0.244270
    44 3.942291 0.050330 0.431042 -0.174164 0.127577 -1.207787
    45 1.539097 0.000003 0.000000 0.000000 -0.005853 -0.247769
    46 1.196320 0.000000 0.000000 0.004942 -0.275387 -1.121008
    47 3.883648 -0.050325 -0.431044 -0.040059 -0.165983 -1.257799
    48 1.719574 -0.000005 0.000000 0.366781 -0.096847 -2.862813
    49 1.209183 -0.000001 0.000000 0.000001 -0.004461 -0.216376
    50 3.859825 -0.148935 -1.331284 -0.354417 0.038566 -0.532000
    51 1.719425 0.000000 0.000000 0.089611 0.216063 -1.899416
    52 1.099663 0.000000 0.000000 0.000002 -0.004208 -0.244311
    53 0.806015 -0.359835 -1.318335 0.934008 0.297777 -0.930652
    54 1.789780 0.000001 0.000000 0.009096 -0.315147 0.639492
    55 1.207001 0.000000 0.000004 0.000381 -0.070245 0.716387
    56 2.338451 -1.535743 -6.391512 1.520238 -0.094383 -2.001948
  time 3
    0 -0.002349 0.808623 20.078072 1.570777 0.000007 -0.000052
    1 0.000005 3.345128 -2.981903 1.570797 0.086293 1.570797
    2 4.018331 0.000000 0.000000 -0.610953 -0.085486 0.019008
    3 3.518564 0.000000 0.000000 -0.129432 -0.047447 0.118983
    4 8.942642 0.000000 0.000000 -0.411863 -0.013770 0.271616
    5 3.307269 0.000000 -0.000004 -3.042515 -0.031770 0.289291
    6 3.593710 -0.000001 -0.000004 0.923473 0.051090 0.497120
    7 1.999994 -3.000001 0.000004 -1.570753 -0.000007 -1.326410
    8 2.033349 1.000771 -1.937607 -1.911179 1.150567 2.233179
    9 6.028143 0.000002 -0.000004 2.291962 -0.020017 0.061561
    10 11.692545 0.000000 0.000000 0.229470 -0.164057 -1.450331
    11 11.481701 0.000000 0.000000 -0.653374 -0.280557 -0.123308
    12 2.676086 -1.712440 0.000000 -1.570797 0.000001 -1.570797
    13 2.033341 1.000767 1.937660 0.294931 -1.313958 -2.508565
    14 6.028140 0.000002 0.000000 -1.701578 -0.517449 -0.117103
    15 11.692553 0.000000 0.000011 -0.254016 0.493693 -1.340752
    16 11.481667 0.000000 -0.000031 0.832526 -0.014268 -0.151440
    17 2.676086 -1.712440 0.000004 1.570753 0.000007 1.570800
    18 -3.890452 0.000004 0.000004 -1.570784 0.153670 -1.575094
    19 17.848171 0.000000 0.000004 0.001076 -0.000144 1.739238
    20 16.525251 0.000000 0.000004 0.038598 0.042135 -1.048305
    21 6.879454 0.000000 0.000008 -0.081332 -0.002951 -0.584373
    22 3.890452 -0.000004 -0.000004 -1.570564 -1.406200 -1.565753
    23 17.848175 0.000000 -0.000004 0.000010 0.000000 1.937376
    24 16.525246 0.000000 0.000004 -0.027913 -0.040776 -1.744106
    25 6.879452 0.000000 0.000000 -0.005219 -0.002811 -0.539668
    26 3.859703 -0.142403 -1.191975 -0.479143 0.152189 -0.879872
    27 1.312565 0.000001 0.000004 0.000000 0.009664 -0.439719
    28 0.729362 0.000002 0.000004 -0.028979 0.117255 -0.451390
    29 3.942326 0.046774 -0.431438 -0.155011 0.073329 -0.810646
    30 1.539093 0.000001 0.000000 0.041407 0.089644 -0.699058
    31 1.196320 -0.000001 0.000004 -0.000002 0.007360 -0.430801
    32 3.883686 -0.046767 0.431446 0.812670 -0.191549 -1.550266
    33 1.719570 0.000002 0.000004 0.194938 -0.171308 -0.606847
    34 1.209183 -0.000001 -0.000004 0.409190 -0.306121 -0.737508
    35 3.859859 -0.137950 1.332462 0.716033 -0.200230 -1.353927
    36 1.719429 0.000002 0.000000 -0.000001 0.004072 -0.363008
    37 1.099670 0.000001 0.000004 0.133914 -0.229713 -0.543027
    38 0.806049 -0.348922 1.321259 -1.148537 -0.413342 -0.685814
    39 1.789787 0.000000 0.000004 0.143112 0.004764 0.680910
    40 1.207001 0.000000 -0.000004 -0.238537 -0.328319 0.202547
    41 3.859665 -0.132565 1.193108 0.479138 -0.158546 -0.879039
    42 1.312561 0.000000 0.000000 0.000000 -0.011932 -0.439671
    43 0.729366 0.000002 0.000000 0.000002 -0.006134 -0.244270
    44 3.942291 0.050330 0.431042 -0.174164 0.127577 -1.207787
    45 1.539097 0.000003 0.000000 0.000000 -0.005853 -0.247769
    46 1.196320 0.000000 0.000000 0.004942 -0.275387 -1.121008
    47 3.883648 -0.050325 -0.431044 -0.040059 -0.165983 -1.257799
    48 1.719574 -0.000005 0.000000 0.366781 -0.096847 -2.862813
    49 1.209183 -0.000001 0.000000 0.000001 -0.004461 -0.216376
    50 3.859825 -0.148935 -1.331284 -0.354417 0.038566 -0.532000
    51 1.719425 0.000000 0.000000 0.089611 0.216063 -1.899416
    52 1.099663 0.000000 0.000000 0.000002 -0.004208 -0.244311
    53 0.806015 -0.359835 -1.318335 0.934008 0.297777 -0.930652
    54 1.789780 0.000001 0.000000 0.009096 -0.315147 0.639492
    55 1.207001 0.000000 0.000004 0.000381 -0.070245 0.716387
    56 2.338451 -1.535743 -6.391512 1.520238 -0.094383 -2.001948
  time 4
    0 -0.002349 0.460957 20.015570 1.570777 0.000007 -0.000052
    1 0.000005 3.345128 -2.981903 1.570797 0.086293 1.570797
    2 4.018331 0.000000 0.000000 -0.610111 -0.092689 0.008701
    3 3.518564 0.000000 0.000000 -0.128749 -0.049365 0.104218
    4 8.942642 0.000000 0.000000 -0.411863 -0.013770 0.271616
    5 3.307269 0.000000 -0.000004 -3.101832 0.025277 0.232430
    6 3.593710 -0.000001 -0.000004 0.933405 0.079961 0.452359
    7 1.999994 -3.000001 0.000004 -1.570800 -0.000007 -1.326410
    8 2.033349 1.000771 -1.937607 -1.996245 1.151611 2.020098
    9 6.028143 0.000002 -0.000004 2.277717 0.288318 0.037389
    10 11.692545 0.000000 0.000000 0.307597 -0.128822 -1.611274
    11 11.481701 0.000000 0.000000 -0.289103 -0.314423 -0.094321
    12 2.676086 -1.712440 0.000000 -1.570797 0.000001 -1.570797
    13 2.033341 1.000767 1.937660 0.294931 -1.313958 -2.508565
    14 6.028140 0.000002 0.000000 -1.665040 -0.532425 -0.076516
    15 11.692553 0.000000 0.000011 -0.308218 0.358980 -1.304316
    16 11.481667 0.000000 -0.000031 0.832526 -0.014268 -0.151440
    17 2.676086 -1.712440 0.000004 1.570753 0.000007 1.570752
    18 -3.890452 0.000004 0.000004 -1.570784 0.173122 -1.575350
    19 17.848171 0.000000 0.000004 0.000800 -0.000108 1.719729
    20 16.525251 0.000000 0.000004 0.038598 0.041798 -1.047099
    21 6.879454 0.000000 0.000008 -0.081332 -0.002951 -0.584373
    22 3.890452 -0.000004 -0.000004 -1.570645 -1.398584 -1.565684
    23 17.848175 0.000000 -0.000004 0.000010 0.000000 1.952902
    24 16.525246 0.000000 0.000004 -0.027913 -0.040776 -1.744106
    25 6.879452 0.000000 0.000000 -0.005219 -0.002811 -0.539668
    26 3.859703 -0.142403 -1.191975 -0.479143 0.152189 -0.879872
    27 1.312565 0.000001 0.000004 0.000000 0.009664 -0.439719
    28 0.729362 0.000002 0.000004 -0.028979 0.117255 -0.451390
    29 3.942326 0.046774 -0.431438 -0.155011 0.073329 -0.810646
    30 1.539093 0.000001 0.000000 0.041407 0.089644 -0.699058
    31 1.196320 -0.000001 0.000004 -0.000002 0.007360 -0.430801
    32 3.883686 -0.046767 0.431446 0.812670 -0.191549 -1.550266
    33 1.719570 0.000002 0.000004 0.194938 -0.171308 -0.606847
    34 1.209183 -0.000001 -0.000004 0.409190 -0.306121 -0.737508
    35 3.859859 -0.137950 1.332462 0.716033 -0.200230 -1.353927
    36 1.719429 0.000002 0.000000 -0.000001 0.004072 -0.363008
    37 1.099670 0.000001 0.000004 0.133914 -0.229713 -0.543027
    38 0.806049 -0.348922 1.321259 -1.148537 -0.413342 -0.685814
    39 1.789787 0.000000 0.000004 0.143112 0.004764 0.680910
    40 1.207001 0.000000 -0.000004 -0.238537 -0.328319 0.202547
    41 3.859665 -0.132565 1.193108 0.479138 -0.158546 -0.879039
    42 1.312561 0.000000 0.000000 0.000000 -0.011932 -0.439671
    43 0.729366 0.000002 0.000000 0.000002 -0.006134 -0.244270
    44 3.942291 0.050330 0.431042 -0.174164 0.127577 -1.207787
    45 1.539097 0.000003 0.000000 0.000000 -0.005853 -0.247769
    46 1.196320 0.000000 0.000000 0.004942 -0.275387 -1.121008
    47 3.883648 -0.050325 -0.431044 -0.040059 -0.165983 -1.257799
    48 1.719574 -0.000005 0.000000 0.366781 -0.096847 -2.862813
    49 1.209183 -0.000001 0.000000 0.000001 -0.004461 -0.216376
    50 3.859825 -0.148935 -1.331284 -0.354417 0.038566 -0.532000
    51 1.719425 0.000000 0.000000 0.089611 0.216063 -1.899416
    52 1.099663 0.000000 0.000000 0.000002 -0.004208 -0.244311
    53 0.806015 -0.359835 -1.318335 0.934008 0.297777 -0.930652
    54 1.789780 0.000001 0.000000 0.009096 -0.315147 0.639492
    55 1.207001 0.000000 0.000004 0.000381 -0.070245 0.716387
    56 2.338451 -1.535743 -6.391512 1.520238 -0.094383 -2.001948
  time 5
    0 -0.002349 -0.183594 19.902285 1.570777 0.000007 -0.000052
    1 0.000005 3.345128 -2.981903 1.570797 0.086293 1.570797
    2 4.018331 0.000000 0.000000 -0.609756 -0.095709 0.004386
    3 3.518564 0.000000 0.000000 -0.128461 -0.050179 0.098022
    4 8.942642 0.000000 0.000000 -0.411863 -0.013770 0.271616
    5 3.307269 0.000000 -0.000004 3.121944 0.082300 0.175551
    6 3.593710 -0.000001 -0.000004 0.937589 0.092066 0.433568
    7 1.999994 -3.000001 0.000004 -1.570753 -0.000007 -1.326410
    8 2.033349 1.000771 -1.937607 -2.031959 1.152053 1.930645
    9 6.028143 0.000002 -0.000004 2.263565 0.596670 0.013182
    10 11.692545 0.000000 0.000000 0.340363 -0.114045 -1.678756
    11 11.481701 0.000000 0.000000 -0.136370 -0.328615 -0.082157
    12 2.676086 -1.712440 0.000000 -1.570797 0.000001 -1.570797
    13 2.033341 1.000767 1.937660 0.294931 -1.313958 -2.508565
    14 6.028140 0.000002 0.000000 -1.628444 -0.547434 -0.035929
    15 11.692553 0.000000 0.000011 -0.362398 0.224234 -1.267879
    16 11.481667 0.000000 -0.000031 0.832526 -0.014268 -0.151440
    17 2.676086 -1.712440 0.000004 1.570753 0.000007 1.570800
    18 -3.890452 0.000004 0.000004 -1.570784 0.209402 -1.575797
    19 17.848171 0.000000 0.000004 0.000297 0.000000 1.682430
    20 16.525251 0.000000 0.000004 0.038598 0.041140 -1.044686
    21 6.879454 0.000000 0.000008 -0.081332 -0.002951 -0.584373
    22 3.890452 -0.000004 -0.000004 -1.569014 -1.382974 -1.567059
    23 17.848175 0.000000 -0.000004 0.000010 0.000000 1.980386
    24 16.525246 0.000000 0.000004 -0.027913 -0.040776 -1.744106
    25 6.879452 0.000000 0.000000 -0.005219 -0.002811 -0.539668
    26 3.859703 -0.142403 -1.191975 -0.479143 0.152189 -0.879872
    27 1.312565 0.000001 0.000004 0.000000 0.009664 -0.439719
    28 0.729362 0.000002 0.000004 -0.028979 0.117255 -0.451390
    29 3.942326 0.046774 -0.431438 -0.155011 0.073329 -0.810646
    30 1.539093 0.000001 0.000000 0.041407 0.089644 -0.699058
    31 1.196320 -0.000001 0.000004 -0.000002 0.007360 -0.430801
    32 3.883686 -0.046767 0.431446 0.812670 -0.191549 -1.550266
    33 1.719570 0.000002 0.000004 0.194938 -0.171308 -0.606847
    34 1.209183 -0.000001 -0.000004 0.409190 -0.306121 -0.737508
    35 3.859859 -0.137950 1.332462 0.716033 -0.200230 -1.353927
    36 1.719429 0.000002 0.000000 -0.000001 0.004072 -0.363008
    37 1.099670 0.000001 0.000004 0.133914 -0.229713 -0.543027
    38 0.806049 -0.348922 1.321259 -1.148537 -0.413342 -0.685814
    39 1.789787 0.000000 0.000004 0.143112 0.004764 0.680910
    40 1.207001 0.000000 -0.000004 -0.238537 -0.328319 0.202547
    41 3.859665 -0.132565 1.193108 0.479138 -0.158546 -0.879039
    42 1.312561 0.000000 0.000000 0.000000 -0.011932 -0.439671
    43 0.729366 0.000002 0.000000 0.000002 -0.006134 -0.244270
    44 3.942291 0.050330 0.431042 -0.174164 0.127577 -1.207787
    45 1.539097 0.000003 0.000000 0.000000 -0.005853 -0.247769
    46 1.196320 0.000000 0.000000 0.004942 -0.275387 -1.121008
    47 3.883648 -0.050325 -0.431044 -0.040059 -0.165983 -1.257799
    48 1.719574 -0.000005 0.000000 0.366781 -0.096847 -2.862813
    49 1.209183 -0.000001 0.000000 0.000001 -0.004461 -0.216376
    50 3.859825 -0.148935 -1.331284 -0.354417 0.038566 -0.532000
    51 1.719425 0.000000 0.000000 0.089611 0.216063 -1.899416
    52 1.099663 0.000000 0.000000 0.000002 -0.004208 -0.244311
    53 0.806015 -0.359835 -1.318335 0.934008 0.297777 -0.930652
    54 1.789780 0.000001 0.000000 0.009096 -0.315147 0.639492
    55 1.207001 0.000000 0.000004 0.000381 -0.070245 0.716387
    56 2.338451 -1.535743 -6.391512 1.520238 -0.094383 -2.001948
  time 6
    0 -0.002349 -0.531261 19.839783 1.570777 0.000007 -0.000052
    1 0.000005 3.345128 -2.981903 1.570797 0.086293 1.570797
    2 4.018331 0.000000 0.000000 -0.539235 -0.088183 0.015149
    3 3.518564 0.000000 0.000000 -0.088780 -0.060271 0.161624
    4 8.942642 0.000000 0.000000 -0.298770 -0.034204 0.331752
    5 3.307269 0.000000 -0.000004 3.070198 0.132060 0.125930
    6 3.593710 -0.000001 -0.000004 0.936485 0.088806 0.438635
    7 1.999994 -3.000001 0.000004 -1.570800 -0.000007 -1.326410
    8 2.033349 1.000771 -1.937607 -2.363224 0.916284 1.800142
    9 6.028143 0.000002 -0.000004 2.297108 0.554770 0.084850
    10 11.692545 0.000000 0.000000 0.224197 -0.035379 -1.294123
    11 11.481701 0.000000 0.000000 -0.332478 -0.519609 0.081317
    12 2.676086 -1.712440 0.000000 -1.570797 0.000001 -1.570797
    13 2.033341 1.000767 1.937660 0.294931 -1.313958 -2.508565
    14 6.028140 0.000002 0.000000 -1.596583 -0.560487 -0.000532
    15 11.692553 0.000000 0.000011 -0.409659 0.106717 -1.236058
    16 11.481667 0.000000 -0.000031 0.832526 -0.014268 -0.151440
    17 2.676086 -1.712440 0.000004 1.570800 0.000007 1.570752
    18 -3.890452 0.000004 0.000004 -1.570961 0.229025 -1.575733
    19 17.848171 0.000000 0.000004 0.000009 0.000000 1.661799
    20 16.525251 0.000000 0.000004 0.038598 0.040775 -1.043379
    21 6.879454 0.000000 0.000008 -0.081332 -0.002951 -0.584373
    22 3.890452 -0.000004 -0.000004 -1.570727 -1.373843 -1.565546
    23 17.848175 0.000000 -0.000004 0.000010 0.000000 1.994660
    24 16.525246 0.000000 0.000004 -0.027913 -0.040776 -1.744106
    25 6.879452 0.000000 0.000000 -0.005219 -0.002811 -0.539668
    26 3.859703 -0.142403 -1.191975 -0.479143 0.152189 -0.879872
    27 1.312565 0.000001 0.000004 0.000000 0.009664 -0.439719
    28 0.729362 0.000002 0.000004 -0.028979 0.117255 -0.451390
    29 3.942326 0.046774 -0.431438 -0.155011 0.073329 -0.810646
    30 1.539093 0.000001 0.000000 0.041407 0.089644 -0.699058
    31 1.196320 -0.000001 0.000004 -0.000002 0.007360 -0.430801
    32 3.883686 -0.046767 0.431446 0.812670 -0.191549 -1.550266
    33 1.719570 0.000002 0.000004 0.194938 -0.171308 -0.606847
    34 1.209183 -0.000001 -0.000004 0.409190 -0.306121 -0.737508
    35 3.859859 -0.137950 1.332462 0.716033 -0.200230 -1.353927
    36 1.719429 0.000002 0.000000 -0.000001 0.004072 -0.363008
    37 1.099670 0.000001 0.000004 0.133914 -0.229713 -0.543027
    38 0.806049 -0.348922 1.321259 -1.148537 -0.413342 -0.685814
    39 1.789787 0.000000 0.000004 0.143112 0.004764 0.680910
    40 1.207001 0.000000 -0.000004 -0.238537 -0.328319 0.202547
    41 3.859665 -0.132565 1.193108 0.479138 -0.158546 -0.879039
    42 1.312561 0.000000 0.000000 0.000000 -0.011932 -0.439671
    43 0.729366 0.000002 0.000000 0.000002 -0.006134 -0.244270
    44 3.942291 0.050330 0.431042 -0.174164 0.127577 -1.207787
    45 1.539097 0.000003 0.000000 0.000000 -0.005853 -0.247769
    46 1.196320 0.000000 0.000000 0.004942 -0.275387 -1.121008
    47 3.883648 -0.050325 -0.431044 -0.040059 -0.165983 -1.257799
    48 1.719574 -0.000005 0.000000 0.366781 -0.096847 -2.862900
    49 1.209183 -0.000001 0.000000 0.000001 -0.004461 -0.216376
    50 3.859825 -0.148935 -1.331284 -0.354417 0.038566 -0.532000
    51 1.719425 0.000000 0.000000 0.089611 0.216063 -1.899416
    52 1.099663 0.000000 0.000000 0.000002 -0.004208 -0.244311
    53 0.806015 -0.359835 -1.318335 0.934008 0.297777 -0.930652
    54 1.789780 0.000001 0.000000 0.009096 -0.315147 0.639492
    55 1.207001 0.000000 0.000004 0.000381 -0.070245 0.716387
    56 2.338451 -1.535743 -6.391512 1.520238 -0.094383 -2.001948
  time 7
    0 -0.002349 -2.554760 20.093697 1.570777 0.000007 -0.000052
    1 0.000005 3.345128 -2.981903 1.570797 0.086293 1.570797
    2 4.018331 0.000000 0.000000 -0.408288 -0.074209 0.035151
    3 3.518564 0.000000 0.000000 -0.015087 -0.079014 0.279744
    4 8.942642 0.000000 0.000000 -0.088768 -0.072147 0.443416
    5 3.307269 0.000000 -0.000004 3.033592 0.167259 0.090840
    6 3.593710 -0.000001 -0.000004 0.933405 0.079961 0.452359
    7 1.999994 -3.000001 0.000004 -1.570753 -0.000007 -1.326410
    8 2.033349 1.000771 -1.937607 -2.978444 0.478473 1.557561
    9 6.028143 0.000002 -0.000004 2.359325 0.476949 0.217972
    10 11.692545 0.000000 0.000000 0.008474 0.110690 -0.579909
    11 11.481701 0.000000 0.000000 -0.696695 -0.874354 0.385018
    12 2.676086 -1.712440 0.000000 -1.570797 0.000001 -1.570797
    13 2.033341 1.000767 1.937660 0.294931 -1.313958 -2.508565
    14 6.028140 0.000002 0.000000 -1.574018 -0.569729 0.024484
    15 11.692553 0.000000 0.000011 -0.443103 0.023557 -1.213538
    16 11.481667 0.000000 -0.000031 0.832526 -0.014268 -0.151440
    17 2.676086 -1.712440 0.000004 1.570753 0.000007 1.570752
    18 -3.890452 0.000004 0.000004 -1.571079 0.342400 -1.577395
    19 17.848171 0.000000 0.000004 -0.002052 0.000000 1.505351
    20 16.525251 0.000000 0.000004 0.038598 0.038025 -1.028297
    21 6.879454 0.000000 0.000008 -0.081332 -0.002951 -0.584373
    22 3.890452 -0.000004 -0.000004 -1.570645 -1.282451 -1.565684
    23 17.848175 0.000000 -0.000004 0.000010 0.000000 2.030658
    24 16.525246 0.000000 0.000004 -0.022847 -0.043434 -1.860228
    25 6.879452 0.000000 0.000000 -0.005219 -0.002811 -0.539668
    26 3.859703 -0.142403 -1.191975 -0.479143 0.152189 -0.879872
    27 1.312565 0.000001 0.000004 0.000000 0.009664 -0.439719
    28 0.729362 0.000002 0.000004 -0.028979 0.117255 -0.451390
    29 3.942326 0.046774 -0.431438 -0.155011 0.073329 -0.810646
    30 1.539093 0.000001 0.000000 0.041407 0.089644 -0.699058
    31 1.196320 -0.000001 0.000004 -0.000002 0.007360 -0.430801
    32 3.883686 -0.046767 0.431446 0.812670 -0.191549 -1.550266
    33 1.719570 0.000002 0.000004 0.194938 -0.171308 -0.606847
    34 1.209183 -0.000001 -0.000004 0.409190 -0.306121 -0.737508
    35 3.859859 -0.137950 1.332462 0.716033 -0.200230 -1.353927
    36 1.719429 0.000002 0.000000 -0.000001 0.004072 -0.363008
    37 1.099670 0.000001 0.000004 0.133914 -0.229713 -0.543027
    38 0.806049 -0.348922 1.321259 -1.148537 -0.413342 -0.685814
    39 1.789787 0.000000 0.000004 0.143112 0.004764 0.680910
    40 1.207001 0.000000 -0.000004 -0.238537 -0.328319 0.202547
    41 3.859665 -0.132565 1.193108 0.479138 -0.158546 -0.879039
    42 1.312561 0.000000 0.000000 0.000000 -0.011932 -0.439671
    43 0.729366 0.000002 0.000000 0.000002 -0.006134 -0.244270
    44 3.942291 0.050330 0.431042 -0.174164 0.127577 -1.207787
    45 1.539097 0.000003 0.000000 0.000000 -0.005853 -0.247769
    46 1.196320 0.000000 0.000000 0.004942 -0.275387 -1.121008
    47 3.883648 -0.050325 -0.431044 -0.040059 -0.165983 -1.257799
    48 1.719574 -0.000005 0.000000 0.366781 -0.096847 -2.862900
    49 1.209183 -0.000001 0.000000 0.000001 -0.004461 -0.216376
    50 3.859825 -0.148935 -1.331284 -0.354417 0.038566 -0.532000
    51 1.719425 0.000000 0.000000 0.089611 0.216063 -1.899416
    52 1.099663 0.000000 0.000000 0.000002 -0.004208 -0.244311
    53 0.806015 -0.359835 -1.318335 0.934008 0.297777 -0.930652
    54 1.789780 0.000001 0.000000 0.009096 -0.315147 0.639492
    55 1.207001 0.000000 0.000004 0.000381 -0.070245 0.716387
    56 2.338451 -1.535743 -6.391512 1.520238 -0.094383 -2.001948
  time 8
    0 -0.002349 -4.574353 20.343705 1.570777 0.000007 -0.000052
    1 0.000005 3.345128 -2.981903 1.570797 0.086293 1.570797
    2 4.018331 0.000000 0.000000 -0.337767 -0.066670 0.045925
    3 3.518564 0.000000 0.000000 0.024582 -0.089105 0.343347
    4 8.942642 0.000000 0.000000 0.024311 -0.092569 0.503567
    5 3.307269 0.000000 -0.000004 3.019697 0.180609 0.077524
    6 3.593710 -0.000001 -0.000004 0.928944 0.066922 0.472593
    7 1.999994 -3.000001 0.000004 -1.570753 -0.000007 -1.326410
    8 2.033349 1.000771 -1.937607 2.973379 0.242745 1.427058
    9 6.028143 0.000002 -0.000004 2.392869 0.435049 0.289675
    10 11.692545 0.000000 0.000000 -0.107681 0.189357 -0.195276
    11 11.481701 0.000000 0.000000 -0.892858 -1.065380 0.548542
    12 2.676086 -1.712440 0.000000 -1.570797 0.000001 -1.570797
    13 2.033341 1.000767 1.937660 0.294931 -1.313958 -2.508565
    14 6.028140 0.000002 0.000000 -1.565424 -0.573237 0.033968
    15 11.692553 0.000000 0.000011 -0.455792 -0.007952 -1.205006
    16 11.481667 0.000000 -0.000031 0.832526 -0.014268 -0.151440
    17 2.676086 -1.712440 0.000004 1.570753 0.000007 1.570752
    18 -3.890452 0.000004 0.000004 -1.571551 0.460595 -1.579122
    19 17.848171 0.000000 0.000004 -0.004173 -0.000288 1.329843
    20 16.525251 0.000000 0.000004 0.038598 0.034969 -1.002910
    21 6.879454 0.000000 0.000008 -0.081332 -0.002951 -0.584373
    22 3.890452 -0.000004 -0.000004 -1.570645 -1.179404 -1.565821
    23 17.848175 0.000000 -0.000004 0.000010 0.000000 2.051317
    24 16.525246 0.000000 0.000004 -0.017796 -0.046093 -1.976350
    25 6.879452 0.000000 0.000000 -0.005219 -0.002811 -0.539668
    26 3.859703 -0.142403 -1.191975 -0.479143 0.152189 -0.879872
    27 1.312565 0.000001 0.000004 0.000000 0.009664 -0.439719
    28 0.729362 0.000002 0.000004 -0.028979 0.117255 -0.451390
    29 3.942326 0.046774 -0.431438 -0.155011 0.073329 -0.810646
    30 1.539093 0.000001 0.000000 0.041407 0.089644 -0.699058
    31 1.196320 -0.000001 0.000004 -0.000002 0.007360 -0.430801
    32 3.883686 -0.046767 0.431446 0.812670 -0.191549 -1.550266
    33 1.719570 0.000002 0.000004 0.194938 -0.171308 -0.606847
    34 1.209183 -0.000001 -0.000004 0.409190 -0.306121 -0.737508
    35 3.859859 -0.137950 1.332462 0.716033 -0.200230 -1.353927
    36 1.719429 0.000002 0.000000 -0.000001 0.004072 -0.363008
    37 1.099670 0.000001 0.000004 0.133914 -0.229713 -0.543027
    38 0.806049 -0.348922 1.321259 -1.148537 -0.413342 -0.685814
    39 1.789787 0.000000 0.000004 0.143112 0.004764 0.680910
    40 1.207001 0.000000 -0.000004 -0.238537 -0.328319 0.202547
    41 3.859665 -0.132565 1.193108 0.479138 -0.158546 -0.879039
    42 1.312561 0.000000 0.000000 0.000000 -0.011932 -0.439671
    43 0.729366 0.000002 0.000000 0.000002 -0.006134 -0.244270
    44 3.942291 0.050330 0.431042 -0.174164 0.127577 -1.207787
    45 1.539097 0.000003 0.000000 0.000000 -0.005853 -0.247769
    46 1.196320 0.000000 0.000000 0.004942 -0.275387 -1.121008
    47 3.883648 -0.050325 -0.431044 -0.040059 -0.165983 -1.257799
    48 1.719574 -0.000005 0.000000 0.366781 -0.096847 -2.862813
    49 1.209183 -0.000001 0.000000 0.000001 -0.004461 -0.216376
    50 3.859825 -0.148935 -1.331284 -0.354417 0.038566 -0.532000
    51 1.719425 0.000000 0.000000 0.089611 0.216063 -1.899416
    52 1.099663 0.000000 0.000000 0.000002 -0.004208 -0.244311
    53 0.806015 -0.359835 -1.318335 0.934008 0.297777 -0.930652
    54 1.789780 0.000001 0.000000 0.009096 -0.315147 0.639492
    55 1.207001 0.000000 0.000004 0.000381 -0.070245 0.716387
    56 2.338451 -1.535743 -6.391512 1.520238 -0.094383 -2.001948
  time 9
    0 -0.002349 -4.351690 20.316360 1.570777 0.000007 -0.000052
    1 0.000005 3.345128 -2.981903 1.570797 0.086293 1.570797
    2 4.018331 0.000000 0.000000 -0.353023 -0.066670 0.045925
    3 3.518564 0.000000 0.000000 0.015953 -0.086517 0.333064
    4 8.942642 0.000000 0.000000 0.000151 -0.088207 0.490704
    5 3.307269 0.000000 -0.000004 3.037617 0.163400 0.094698
    6 3.593710 -0.000001 -0.000004 0.923473 0.051090 0.497120
    7 1.999994 -3.000001 0.000004 -1.570753 -0.000007 -1.326410
    8 2.033349 1.000771 -1.937607 3.063176 0.292854 1.502572
    9 6.028143 0.000002 -0.000004 2.352617 0.413235 0.234829
    10 11.692545 0.000000 0.000000 -0.128414 0.053008 -0.427319
    11 11.481701 0.000000 0.000000 -0.932295 -1.016974 0.507146
    12 2.676086 -1.712440 0.000000 -1.570797 0.000001 -1.570797
    13 2.033341 1.000767 1.937660 0.294931 -1.313958 -2.508565
    14 6.028140 0.000002 0.000000 -1.576473 -0.568717 0.021713
    15 11.692553 0.000000 0.000011 -0.439438 0.032701 -1.216056
    16 11.481667 0.000000 -0.000031 0.832526 -0.014268 -0.151440
    17 2.676086 -1.712440 0.000004 1.570753 0.000007 1.570752
    18 -3.890452 0.000004 0.000004 -1.571433 0.447161 -1.578930
    19 17.848171 0.000000 0.000004 -0.003933 -0.000240 1.350324
    20 16.525251 0.000000 0.000004 0.038598 0.035320 -1.006278
    21 6.879454 0.000000 0.000008 -0.081332 -0.002951 -0.584373
    22 3.890452 -0.000004 -0.000004 -1.570645 -1.191312 -1.565753
    23 17.848175 0.000000 -0.000004 0.000010 0.000000 2.049815
    24 16.525246 0.000000 0.000004 -0.018352 -0.045803 -1.963448
    25 6.879452 0.000000 0.000000 -0.005219 -0.002811 -0.539668
    26 3.859703 -0.142403 -1.191975 -0.479143 0.152189 -0.879872
    27 1.312565 0.000001 0.000004 0.000000 0.009664 -0.439719
    28 0.729362 0.000002 0.000004 -0.028979 0.117255 -0.451390
    29 3.942326 0.046774 -0.431438 -0.155011 0.073329 -0.810646
    30 1.539093 0.000001 0.000000 0.041407 0.089644 -0.699058
    31 1.196320 -0.000001 0.000004 -0.000002 0.007360 -0.430801
    32 3.883686 -0.046767 0.431446 0.812670 -0.191549 -1.550266
    33 1.719570 0.000002 0.000004 0.194938 -0.171308 -0.606847
    34 1.209183 -0.000001 -0.000004 0.409190 -0.306121 -0.737508
    35 3.859859 -0.137950 1.332462 0.716033 -0.200230 -1.353927
    36 1.719429 0.000002 0.000000 -0.000001 0.004072 -0.363008
    37 1.099670 0.000001 0.000004 0.133914 -0.229713 -0.543027
    38 0.806049 -0.348922 1.321259 -1.148537 -0.413342 -0.685814
    39 1.789787 0.000000 0.000004 0.143112 0.004764 0.680910
    40 1.207001 0.000000 -0.000004 -0.238537 -0.328319 0.202547
    41 3.859665 -0.132565 1.193108 0.479138 -0.158546 -0.879039
    42 1.312561 0.000000 0.000000 0.000000 -0.011932 -0.439671
    43 0.729366 0.000002 0.000000 0.000002 -0.006134 -0.244270
    44 3.942291 0.050330 0.431042 -0.174164 0.127577 -1.207787
    45 1.539097 0.000003 0.000000 0.000000 -0.005853 -0.247769
    46 1.196320 0.000000 0.000000 0.004942 -0.275387 -1.121008
    47 3.883648 -0.050325 -0.431044 -0.040059 -0.165983 -1.257799
    48 1.719574 -0.000005 0.000000 0.366781 -0.096847 -2.862900
    49 1.209183 -0.000001 0.000000 0.000001 -0.004461 -0.216376
    50 3.859825 -0.148935 -1.331284 -0.354417 0.038566 -0.532000
    51 1.719425 0.000000 0.000000 0.089611 0.216063 -1.899416
    52 1.099663 0.000000 0.000000 0.000002 -0.004208 -0.244311
    53 0.806015 -0.359835 -1.318335 0.934008 0.297777 -0.930652
    54 1.789780 0.000001 0.000000 0.009096 -0.315147 0.639492
    55 1.207001 0.000000 0.000004 0.000381 -0.070245 0.716387
    56 2.338451 -1.535743 -6.391512 1.520238 -0.094383 -2.001948
  time 10
    0 -0.002349 -3.773548 20.246046 1.570777 0.000007 -0.000052
    1 0.000005 3.345128 -2.981903 1.570797 0.086293 1.570797
    2 4.018331 0.000000 0.000000 -0.392359 -0.066670 0.045925
    3 3.518564 0.000000 0.000000 -0.006290 -0.079853 0.306518
    4 8.942642 0.000000 0.000000 -0.062161 -0.076953 0.457570
    5 3.307269 0.000000 -0.000004 3.083805 0.119009 0.138947
    6 3.593710 -0.000001 -0.000004 0.917542 0.033868 0.523828
    7 1.999994 -3.000001 0.000004 -1.570753 -0.000007 -1.326410
    8 2.033349 1.000771 -1.937607 -2.988370 0.422181 1.697229
    9 6.028143 0.000002 -0.000004 2.248677 0.356984 0.093366
    10 11.692545 0.000000 0.000000 -0.166908 -0.200179 -0.858189
    11 11.481701 0.000000 0.000000 -1.034045 -0.892253 0.400321
    12 2.676086 -1.712440 0.000000 -1.570797 0.000001 -1.570797
    13 2.033341 1.000767 1.937660 0.294931 -1.313958 -2.508565
    14 6.028140 0.000002 0.000000 -1.604943 -0.557047 -0.009820
    15 11.692553 0.000000 0.000011 -0.397274 0.137529 -1.244380
    16 11.481667 0.000000 -0.000031 0.832526 -0.014268 -0.151440
    17 2.676086 -1.712440 0.000004 1.570753 0.000007 1.570752
    18 -3.890452 0.000004 0.000004 -1.571374 0.413049 -1.578227
    19 17.848171 0.000000 0.000004 -0.003322 -0.000108 1.401975
    20 16.525251 0.000000 0.000004 0.038598 0.036226 -1.014724
    21 6.879454 0.000000 0.000008 -0.081332 -0.002951 -0.584373
    22 3.890452 -0.000004 -0.000004 -1.570645 -1.221481 -1.565753
    23 17.848175 0.000000 -0.000004 0.000010 0.000000 2.044994
    24 16.525246 0.000000 0.000004 -0.019787 -0.045044 -1.930287
    25 6.879452 0.000000 0.000000 -0.005219 -0.002811 -0.539668
    26 3.859703 -0.142403 -1.191975 -0.479143 0.152189 -0.879872
    27 1.312565 0.000001 0.000004 0.000000 0.009664 -0.439719
    28 0.729362 0.000002 0.000004 -0.028979 0.117255 -0.451390
    29 3.942326 0.046774 -0.431438 -0.155011 0.073329 -0.810646
    30 1.539093 0.000001 0.000000 0.041407 0.089644 -0.699058
    31 1.196320 -0.000001 0.000004 -0.000002 0.007360 -0.430801
    32 3.883686 -0.046767 0.431446 0.812670 -0.191549 -1.550266
    33 1.719570 0.000002 0.000004 0.194938 -0.171308 -0.606847
    34 1.209183 -0.000001 -0.000004 0.409190 -0.306121 -0.737508
    35 3.859859 -0.137950 1.332462 0.716033 -0.200230 -1.353927
    36 1.719429 0.000002 0.000000 -0.000001 0.004072 -0.363008
    37 1.099670 0.000001 0.000004 0.133914 -0.229713 -0.543027
    38 0.806049 -0.348922 1.321259 -1.148537 -0.413342 -0.685814
    39 1.789787 0.000000 0.000004 0.143112 0.004764 0.680910
    40 1.207001 0.000000 -0.000004 -0.238537 -0.328319 0.202547
    41 3.859665 -0.132565 1.193108 0.479138 -0.158546 -0.879039
    42 1.312561 0.000000 0.000000 0.000000 -0.011932 -0.439671
    43 0.729366 0.000002 0.000000 0.000002 -0.006134 -0.244270
    44 3.942291 0.050330 0.431042 -0.174164 0.127577 -1.207787
    45 1.539097 0.000003 0.000000 0.000000 -0.005853 -0.247769
    46 1.196320 0.000000 0.000000 0.004942 -0.275387 -1.121008
    47 3.883648 -0.050325 -0.431044 -0.040059 -0.165983 -1.257799
    48 1.719574 -0.000005 0.000000 0.366781 -0.096847 -2.862900
    49 1.209183 -0.000001 0.000000 0.000001 -0.004461 -0.216376
    50 3.859825 -0.148935 -1.331284 -0.354417 0.038566 -0.532000
    51 1.719425 0.000000 0.000000 0.089611 0.216063 -1.899416
    52 1.099663 0.000000 0.000000 0.000002 -0.004208 -0.244311
    53 0.806015 -0.359835 -1.318335 0.934008 0.297777 -0.930652
    54 1.789780 0.000001 0.000000 0.009096 -0.315147 0.639492
    55 1.207001 0.000000 0.000004 0.000381 -0.070245 0.716387
    56 2.338451 -1.535743 -6.391512 1.520238 -0.094383 -2.001948
  time 11
    0 -0.002349 -2.984461 20.148387 1.570777 0.000007 -0.000052
    1 0.000005 3.345128 -2.981903 1.570797 0.086293 1.570797
    2 4.018331 0.000000 0.000000 -0.446148 -0.066670 0.045925
    3 3.518564 0.000000 0.000000 -0.036731 -0.070733 0.270229
    4 8.942642 0.000000 0.000000 -0.147360 -0.061565 0.412265
    5 3.307269 0.000000 -0.000004 3.146955 0.058319 0.199455
    6 3.593710 -0.000001 -0.000004 0.911610 0.016635 0.550537
    7 1.999994 -3.000001 0.000004 -1.570753 -0.000007 -1.326410
    8 2.033349 1.000771 -1.937607 -2.671669 0.598968 1.963486
    9 6.028143 0.000002 -0.000004 2.106690 0.280070 -0.099974
    10 11.692545 0.000000 0.000000 -0.187630 -0.336527 -1.090165
    11 11.481701 0.000000 0.000000 -1.173183 -0.721660 0.254307
    12 2.676086 -1.712440 0.000000 -1.570797 0.000001 -1.570797
    13 2.033341 1.000767 1.937660 0.294931 -1.313958 -2.508565
    14 6.028140 0.000002 0.000000 -1.643819 -0.541127 -0.053022
    15 11.692553 0.000000 0.000011 -0.339624 0.280889 -1.283195
    16 11.481667 0.000000 -0.000031 0.832526 -0.014268 -0.151440
    17 2.676086 -1.712440 0.000004 1.570753 0.000007 1.570752
    18 -3.890452 0.000004 0.000004 -1.571138 0.367072 -1.577651
    19 17.848171 0.000000 0.000004 -0.002495 0.000000 1.469697
    20 16.525251 0.000000 0.000004 0.038598 0.037411 -1.023923
    21 6.879454 0.000000 0.000008 -0.081332 -0.002951 -0.584373
    22 3.890452 -0.000004 -0.000004 -1.571706 -1.261413 -1.564790
    23 17.848175 0.000000 -0.000004 0.000010 0.000000 2.036355
    24 16.525246 0.000000 0.000004 -0.021764 -0.043995 -1.884948
    25 6.879452 0.000000 0.000000 -0.005219 -0.002811 -0.539668
    26 3.859703 -0.142403 -1.191975 -0.479143 0.152189 -0.879872
    27 1.312565 0.000001 0.000004 0.000000 0.009664 -0.439719
    28 0.729362 0.000002 0.000004 -0.028979 0.117255 -0.451390
    29 3.942326 0.046774 -0.431438 -0.155011 0.073329 -0.810646
    30 1.539093 0.000001 0.000000 0.041407 0.089644 -0.699058
    31 1.196320 -0.000001 0.000004 -0.000002 0.007360 -0.430801
    32 3.883686 -0.046767 0.431446 0.812670 -0.191549 -1.550266
    33 1.719570 0.000002 0.000004 0.194938 -0.171308 -0.606847
    34 1.209183 -0.000001 -0.000004 0.409190 -0.306121 -0.737508
    35 3.859859 -0.137950 1.332462 0.716033 -0.200230 -1.353927
    36 1.719429 0.000002 0.000000 -0.000001 0.004072 -0.363008
    37 1.099670 0.000001 0.000004 0.133914 -0.229713 -0.543027
    38 0.806049 -0.348922 1.321259 -1.148537 -0.413342 -0.685814
    39 1.789787 0.000000 0.000004 0.143112 0.004764 0.680910
    40 1.207001 0.000000 -0.000004 -0.238537 -0.328319 0.202547
    41 3.859665 -0.132565 1.193108 0.479138 -0.158546 -0.879039
    42 1.312561 0.000000 0.000000 0.000000 -0.011932 -0.439671
    43 0.729366 0.000002 0.000000 0.000002 -0.006134 -0.244270
    44 3.942291 0.050330 0.431042 -0.174164 0.127577 -1.207787
    45 1.539097 0.000003 0.000000 0.000000 -0.005853 -0.247769
    46 1.196320 0.000000 0.000000 0.004942 -0.275387 -1.121008
    47 3.883648 -0.050325 -0.431044 -0.040059 -0.165983 -1.257799
    48 1.719574 -0.000005 0.000000 0.366781 -0.096847 -2.862813
    49 1.209183 -0.000001 0.000000 0.000001 -0.004461 -0.216376
    50 3.859825 -0.148935 -1.331284 -0.354417 0.038566 -0.532000
    51 1.719425 0.000000 0.000000 0.089611 0.216063 -1.899416
    52 1.099663 0.000000 0.000000 0.000002 -0.004208 -0.244311
    53 0.806015 -0.359835 -1.318335 0.934008 0.297777 -0.930652
    54 1.789780 0.000001 0.000000 0.009096 -0.315147 0.639492
    55 1.207001 0.000000 0.000004 0.000381 -0.070245 0.716387
    56 2.338451 -1.535743 -6.391512 1.520238 -0.094383 -2.001948
  time 12
    0 -0.002349 -2.125060 20.039008 1.570777 0.000007 -0.000052
    1 0.000005 3.345128 -2.981903 1.570797 0.086293 1.570797
    2 4.018331 0.000000 0.000000 -0.504759 -0.066670 0.045925
    3 3.518564 0.000000 0.000000 -0.069893 -0.060786 0.230691
    4 8.942642 0.000000 0.000000 -0.240191 -0.044786 0.362903
    5 3.307269 0.000000 -0.000004 -3.067430 -0.007788 0.265387
    6 3.593710 -0.000001 -0.000004 0.906139 0.000803 0.575099
    7 1.999994 -3.000001 0.000004 -1.570753 -0.000007 -1.326410
    8 2.033349 1.000771 -1.937607 -2.326768 0.791574 2.253609
    9 6.028143 0.000002 -0.000004 1.951929 0.196287 -0.310665
    10 11.692545 0.000000 0.000000 -0.149255 -0.318227 -1.045901
    11 11.481701 0.000000 0.000000 -1.324728 -0.535829 0.095198
    12 2.676086 -1.712440 0.000000 -1.570797 0.000001 -1.570797
    13 2.033341 1.000767 1.937660 0.294931 -1.313958 -2.508565
    14 6.028140 0.000002 0.000000 -1.686203 -0.523756 -0.100049
    15 11.692553 0.000000 0.000011 -0.276812 0.437071 -1.325436
    16 11.481667 0.000000 -0.000031 0.832526 -0.014268 -0.151440
    17 2.676086 -1.712440 0.000004 1.570753 0.000007 1.570752
    18 -3.890452 0.000004 0.000004 -1.570961 0.317957 -1.577076
    19 17.848171 0.000000 0.000004 -0.001608 0.000000 1.540035
    20 16.525251 0.000000 0.000004 0.038598 0.038639 -1.032118
    21 6.879454 0.000000 0.000008 -0.081332 -0.002951 -0.584373
    22 3.890452 -0.000004 -0.000004 -1.570645 -1.302943 -1.565684
    23 17.848175 0.000000 -0.000004 0.000010 0.000000 2.024272
    24 16.525246 0.000000 0.000004 -0.023916 -0.042874 -1.835509
    25 6.879452 0.000000 0.000000 -0.005219 -0.002811 -0.539668
    26 3.859703 -0.142403 -1.191975 -0.479143 0.152189 -0.879872
    27 1.312565 0.000001 0.000004 0.000000 0.009664 -0.439719
    28 0.729362 0.000002 0.000004 -0.028979 0.117255 -0.451390
    29 3.942326 0.046774 -0.431438 -0.155011 0.073329 -0.810646
    30 1.539093 0.000001 0.000000 0.041407 0.089644 -0.699058
    31 1.196320 -0.000001 0.000004 -0.000002 0.007360 -0.430801
    32 3.883686 -0.046767 0.431446 0.812670 -0.191549 -1.550266
    33 1.719570 0.000002 0.000004 0.194938 -0.171308 -0.606847
    34 1.209183 -0.000001 -0.000004 0.409190 -0.306121 -0.737508
    35 3.859859 -0.137950 1.332462 0.716033 -0.200230 -1.353927
    36 1.719429 0.000002 0.000000 -0.000001 0.004072 -0.363008
    37 1.099670 0.000001 0.000004 0.133914 -0.229713 -0.543027
    38 0.806049 -0.348922 1.321259 -1.148537 -0.413342 -0.685814
    39 1.789787 0.000000 0.000004 0.143112 0.004764 0.680910
    40 1.207001 0.000000 -0.000004 -0.238537 -0.328319 0.202547
    41 3.859665 -0.132565 1.193108 0.479138 -0.158546 -0.879039
    42 1.312561 0.000000 0.000000 0.000000 -0.011932 -0.439671
    43 0.729366 0.000002 0.000000 0.000002 -0.006134 -0.244270
    44 3.942291 0.050330 0.431042 -0.174164 0.127577 -1.207787
    45 1.539097 0.000003 0.000000 0.000000 -0.005853 -0.247769
    46 1.196320 0.000000 0.000000 0.004942 -0.275387 -1.121008
    47 3.883648 -0.050325 -0.431044 -0.040059 -0.165983 -1.257799
    48 1.719574 -0.000005 0.000000 0.366781 -0.096847 -2.862813
    49 1.209183 -0.000001 0.000000 0.000001 -0.004461 -0.216376
    50 3.859825 -0.148935 -1.331284 -0.354417 0.038566 -0.532000
    51 1.719425 0.000000 0.000000 0.089611 0.216063 -1.899416
    52 1.099663 0.000000 0.000000 0.000002 -0.004208 -0.244311
    53 0.806015 -0.359835 -1.318335 0.934008 0.297777 -0.930652
    54 1.789780 0.000001 0.000000 0.009096 -0.315147 0.639492
    55 1.207001 0.000000 0.000004 0.000381 -0.070245 0.716387
    56 2.338451 -1.535743 -6.391512 1.520238 -0.094383 -2.001948
  time 13
    0 -0.002349 -1.332067 19.941349 1.570777 0.000007 -0.000052
    1 0.000005 3.345128 -2.981903 1.570797 0.086293 1.570797
    2 4.018331 0.000000 0.000000 -0.558529 -0.066670 0.045925
    3 3.518564 0.000000 0.000000 -0.100322 -0.051666 0.194402
    4 8.942642 0.000000 0.000000 -0.325390 -0.029398 0.317597
    5 3.307269 0.000000 -0.000004 -3.004280 -0.068478 0.325895
    6 3.593710 -0.000001 -0.000004 0.901633 -0.012224 0.595333
    7 1.999994 -3.000001 0.000004 -1.570753 -0.000007 -1.326410
    8 2.033349 1.000771 -1.937607 -2.010160 0.968401 2.519866
    9 6.028143 0.000002 -0.000004 1.809943 0.119373 -0.504076
    10 11.692545 0.000000 0.000000 -0.077983 -0.284227 -0.963752
    11 11.481701 0.000000 0.000000 -1.463866 -0.365268 -0.050767
    12 2.676086 -1.712440 0.000000 -1.570797 0.000001 -1.570797
    13 2.033341 1.000767 1.937660 0.294931 -1.313958 -2.508565
    14 6.028140 0.000002 0.000000 -1.725137 -0.507802 -0.143251
    15 11.692553 0.000000 0.000011 -0.219161 0.580398 -1.364251
    16 11.481667 0.000000 -0.000031 0.832526 -0.014268 -0.151440
    17 2.676086 -1.712440 0.000004 1.570753 0.000007 1.570752
    18 -3.890452 0.000004 0.000004 -1.570843 0.273520 -1.576501
    19 17.848171 0.000000 0.000004 -0.000794 0.000000 1.601776
    20 16.525251 0.000000 0.000004 0.038598 0.039722 -1.038251
    21 6.879454 0.000000 0.000008 -0.081332 -0.002951 -0.584373
    22 3.890452 -0.000004 -0.000004 -1.572114 -1.339129 -1.564378
    23 17.848175 0.000000 -0.000004 0.000010 0.000000 2.010749
    24 16.525246 0.000000 0.000004 -0.025893 -0.041825 -1.790169
    25 6.879452 0.000000 0.000000 -0.005219 -0.002811 -0.539668
    26 3.859703 -0.142403 -1.191975 -0.479143 0.152189 -0.879872
    27 1.312565 0.000001 0.000004 0.000000 0.009664 -0.439719
    28 0.729362 0.000002 0.000004 -0.028979 0.117255 -0.451390
    29 3.942326 0.046774 -0.431438 -0.155011 0.073329 -0.810646
    30 1.539093 0.000001 0.000000 0.041407 0.089644 -0.699058
    31 1.196320 -0.000001 0.000004 -0.000002 0.007360 -0.430801
    32 3.883686 -0.046767 0.431446 0.812670 -0.191549 -1.550266
    33 1.719570 0.000002 0.000004 0.194938 -0.171308 -0.606847
    34 1.209183 -0.000001 -0.000004 0.409190 -0.306121 -0.737508
    35 3.859859 -0.137950 1.332462 0.716033 -0.200230 -1.353927
    36 1.719429 0.000002 0.000000 -0.000001 0.004072 -0.363008
    37 1.099670 0.000001 0.000004 0.133914 -0.229713 -0.543027
    38 0.806049 -0.348922 1.321259 -1.148537 -0.413342 -0.685814
    39 1.789787 0.000000 0.000004 0.143112 0.004764 0.680910
    40 1.207001 0.000000 -0.000004 -0.238537 -0.328319 0.202547
    41 3.859665 -0.132565 1.193108 0.479138 -0.158546 -0.879039
    42 1.312561 0.000000 0.000000 0.000000 -0.011932 -0.439671
    43 0.729366 0.000002 0.000000 0.000002 -0.006134 -0.244270
    44 3.942291 0.050330 0.431042 -0.174164 0.127577 -1.207787
    45 1.539097 0.000003 0.000000 0.000000 -0.005853 -0.247769
    46 1.196320 0.000000 0.000000 0.004942 -0.275387 -1.121008
    47 3.883648 -0.050325 -0.431044 -0.040059 -0.165983 -1.257799
    48 1.719574 -0.000005 0.000000 0.366781 -0.096847 -2.862813
    49 1.209183 -0.000001 0.000000 0.000001 -0.004461 -0.216376
    50 3.859825 -0.148935 -1.331284 -0.354417 0.038566 -0.532000
    51 1.719425 0.000000 0.000000 0.089611 0.216063 -1.899416
    52 1.099663 0.000000 0.000000 0.000002 -0.004208 -0.244311
    53 0.806015 -0.359835 -1.318335 0.934008 0.297777 -0.930652
    54 1.789780 0.000001 0.000000 0.009096 -0.315147 0.639492
    55 1.207001 0.000000 0.000004 0.000381 -0.070245 0.716387
    56 2.338451 -1.535743 -6.391512 1.520238 -0.094383 -2.001948
  time 14
    0 -0.002349 -0.753924 19.867128 1.570777 0.000007 -0.000052
    1 0.000005 3.345128 -2.981903 1.570797 0.086293 1.570797
    2 4.018331 0.000000 0.000000 -0.597884 -0.066670 0.045925
    3 3.518564 0.000000 0.000000 -0.122589 -0.044990 0.167868
    4 8.942642 0.000000 0.000000 -0.387702 -0.018145 0.284464
    5 3.307269 0.000000 -0.000004 -2.958187 -0.112857 0.370144
    6 3.593710 -0.000001 -0.000004 0.898598 -0.021069 0.609057
    7 1.999994 -3.000001 0.000004 -1.570753 -0.000007 -1.326410
    8 2.033349 1.000771 -1.937607 -1.778617 1.097688 2.714619
    9 6.028143 0.000002 -0.000004 1.706095 0.063122 -0.645503
    10 11.692545 0.000000 0.000000 -0.039608 -0.265926 -0.919488
    11 11.481701 0.000000 0.000000 -1.565616 -0.240515 -0.157543
    12 2.676086 -1.712440 0.000000 -1.570797 0.000001 -1.570797
    13 2.033341 1.000767 1.937660 0.294931 -1.313958 -2.508565
    14 6.028140 0.000002 0.000000 -1.753548 -0.496132 -0.174823
    15 11.692553 0.000000 0.000011 -0.176976 0.685259 -1.392575
    16 11.481667 0.000000 -0.000031 0.832526 -0.014268 -0.151440
    17 2.676086 -1.712440 0.000004 1.570753 0.000007 1.570752
    18 -3.890452 0.000004 0.000004 -1.570784 0.241404 -1.576117
    19 17.848171 0.000000 0.000004 -0.000218 0.000000 1.645205
    20 16.525251 0.000000 0.000004 0.038598 0.040482 -1.041971
    21 6.879454 0.000000 0.000008 -0.081332 -0.002951 -0.584373
    22 3.890452 -0.000004 -0.000004 -1.570727 -1.364333 -1.565546
    23 17.848175 0.000000 -0.000004 0.000010 0.000000 1.999355
    24 16.525246 0.000000 0.000004 -0.027342 -0.041066 -1.756948
    25 6.879452 0.000000 0.000000 -0.005219 -0.002811 -0.539668
    26 3.859703 -0.142403 -1.191975 -0.479143 0.152189 -0.879872
    27 1.312565 0.000001 0.000004 0.000000 0.009664 -0.439719
    28 0.729362 0.000002 0.000004 -0.028979 0.117255 -0.451390
    29 3.942326 0.046774 -0.431438 -0.155011 0.073329 -0.810646
    30 1.539093 0.000001 0.000000 0.041407 0.089644 -0.699058
    31 1.196320 -0.000001 0.000004 -0.000002 0.007360 -0.430801
    32 3.883686 -0.046767 0.431446 0.812670 -0.191549 -1.550266
    33 1.719570 0.000002 0.000004 0.194938 -0.171308 -0.606847
    34 1.209183 -0.000001 -0.000004 0.409190 -0.306121 -0.737508
    35 3.859859 -0.137950 1.332462 0.716033 -0.200230 -1.353927
    36 1.719429 0.000002 0.000000 -0.000001 0.004072 -0.363008
    37 1.099670 0.000001 0.000004 0.133914 -0.229713 -0.543027
    38 0.806049 -0.348922 1.321259 -1.148537 -0.413342 -0.685814
    39 1.789787 0.000000 0.000004 0.143112 0.004764 0.680910
    40 1.207001 0.000000 -0.000004 -0.238537 -0.328319 0.202547
    41 3.859665 -0.132565 1.193108 0.479138 -0.158546 -0.879039
    42 1.312561 0.000000 0.000000 0.000000 -0.011932 -0.439671
    43 0.729366 0.000002 0.000000 0.000002 -0.006134 -0.244270
    44 3.942291 0.050330 0.431042 -0.174164 0.127577 -1.207787
    45 1.539097 0.000003 0.000000 0.000000 -0.005853 -0.247769
    46 1.196320 0.000000 0.000000 0.004942 -0.275387 -1.121008
    47 3.883648 -0.050325 -0.431044 -0.040059 -0.165983 -1.257799
    48 1.719574 -0.000005 0.000000 0.366781 -0.096847 -2.862813
    49 1.209183 -0.000001 0.000000 0.000001 -0.004461 -0.216376
    50 3.859825 -0.148935 -1.331284 -0.354417 0.038566 -0.532000
    51 1.719425 0.000000 0.000000 0.089611 0.216063 -1.899416
    52 1.099663 0.000000 0.000000 0.000002 -0.004208 -0.244311
    53 0.806015 -0.359835 -1.318335 0.934008 0.297777 -0.930652
    54 1.789780 0.000001 0.000000 0.009096 -0.315147 0.639492
    55 1.207001 0.000000 0.000004 0.000381 -0.070245 0.716387
    56 2.338451 -1.535743 -6.391512 1.520238 -0.094383 -2.001948
  time 15
    0 -0.002349 -0.531261 19.839783 1.570777 0.000007 -0.000052
    1 0.000005 3.345128 -2.981903 1.570797 0.086293 1.570797
    2 4.018331 0.000000 0.000000 -0.613140 -0.066670 0.045925
    3 3.518564 0.000000 0.000000 -0.131218 -0.042401 0.157573
    4 8.942642 0.000000 0.000000 -0.411863 -0.013770 0.271616
    5 3.307269 0.000000 -0.000004 -2.940268 -0.130079 0.387318
    6 3.593710 -0.000001 -0.000004 0.897448 -0.024329 0.614089
    7 1.999994 -3.000001 0.000004 -1.570800 -0.000007 -1.326410
    8 2.033349 1.000771 -1.937607 -1.688728 1.147837 2.790133
    9 6.028143 0.000002 -0.000004 1.665843 0.041308 -0.700349
    10 11.692545 0.000000 0.000000 0.025336 -0.256111 -1.029787
    11 11.481701 0.000000 0.000000 -1.605107 -0.192141 -0.198988
    12 2.676086 -1.712440 0.000000 -1.570797 0.000001 -1.570797
    13 2.033341 1.000767 1.937660 0.294931 -1.313958 -2.508565
    14 6.028140 0.000002 0.000000 -1.764597 -0.491612 -0.187078
    15 11.692553 0.000000 0.000011 -0.160644 0.725911 -1.403625
    16 11.481667 0.000000 -0.000031 0.832526 -0.014268 -0.151440
    17 2.676086 -1.712440 0.000004 1.570753 0.000007 1.570800
    18 -3.890452 0.000004 0.000004 -1.570961 0.229025 -1.575733
    19 17.848171 0.000000 0.000004 0.000009 0.000000 1.661799
    20 16.525251 0.000000 0.000004 0.038598 0.040775 -1.043379
    21 6.879454 0.000000 0.000008 -0.081332 -0.002951 -0.584373
    22 3.890452 -0.000004 -0.000004 -1.570727 -1.373843 -1.565546
    23 17.848175 0.000000 -0.000004 0.000010 0.000000 1.994660
    24 16.525246 0.000000 0.000004 -0.027913 -0.040776 -1.744106
    25 6.879452 0.000000 0.000000 -0.005219 -0.002811 -0.539668
    26 3.859703 -0.142403 -1.191975 -0.479143 0.152189 -0.879872
    27 1.312565 0.000001 0.000004 0.000000 0.009664 -0.439719
    28 0.729362 0.000002 0.000004 -0.028979 0.117255 -0.451390
    29 3.942326 0.046774 -0.431438 -0.155011 0.073329 -0.810646
    30 1.539093 0.000001 0.000000 0.041407 0.089644 -0.699058
    31 1.196320 -0.000001 0.000004 -0.000002 0.007360 -0.430801
    32 3.883686 -0.046767 0.431446 0.812670 -0.191549 -1.550266
    33 1.719570 0.000002 0.000004 0.194938 -0.171308 -0.606847
    34 1.209183 -0.000001 -0.000004 0.409190 -0.306121 -0.737508
    35 3.859859 -0.137950 1.332462 0.716033 -0.200230 -1.353927
    36 1.719429 0.000002 0.000000 -0.000001 0.004072 -0.363008
    37 1.099670 0.000001 0.000004 0.133914 -0.229713 -0.543027
    38 0.806049 -0.348922 1.321259 -1.148537 -0.413342 -0.685814
    39 1.789787 0.000000 0.000004 0.143112 0.004764 0.680910
    40 1.207001 0.000000 -0.000004 -0.238537 -0.328319 0.202547
    41 3.859665 -0.132565 1.193108 0.479138 -0.158546 -0.879039
    42 1.312561 0.000000 0.000000 0.000000 -0.011932 -0.439671
    43 0.729366 0.000002 0.000000 0.000002 -0.006134 -0.244270
    44 3.942291 0.050330 0.431042 -0.174164 0.127577 -1.207787
    45 1.539097 0.000003 0.000000 0.000000 -0.005853 -0.247769
    46 1.196320 0.000000 0.000000 0.004942 -0.275387 -1.121008
    47 3.883648 -0.050325 -0.431044 -0.040059 -0.165983 -1.257799
    48 1.719574 -0.000005 0.000000 0.366781 -0.096847 -2.862900
    49 1.209183 -0.000001 0.000000 0.000001 -0.004461 -0.216376
    50 3.859825 -0.148935 -1.331284 -0.354417 0.038566 -0.532000
    51 1.719425 0.000000 0.000000 0.089611 0.216063 -1.899416
    52 1.099663 0.000000 0.000000 0.000002 -0.004208 -0.244311
    53 0.806015 -0.359835 -1.318335 0.934008 0.297777 -0.930652
    54 1.789780 0.000001 0.000000 0.009096 -0.315147 0.639492
    55 1.207001 0.000000 0.000004 0.000381 -0.070245 0.716387
    56 2.338451 -1.535743 -6.391512 1.520238 -0.094383 -2.001948
end
