version 1
nodes
0 "APC" -1
1 "APC.Frame" 0
2 "APC.Wheel_RL_Shock" 1
3 "APC.Wheel_RL_Rotate" 2
4 "APC.Wheel_FL_Shock" 1
5 "APC.Wheel_FL_Turn" 4
6 "APC.Wheel_FL_Rotate" 5
7 "APC.Wheel_FR_Shock" 1
8 "APC.Wheel_FR_Turn" 7
9 "APC.Wheel_FR_Rotate" 8
10 "APC.Wheel_RR_Shock" 1
11 "APC.Wheel_RR_Rotate" 10
12 "APC.piston" 1
13 "APC.Gun_Base" 12
end
skeleton
time 0
0  0.000000 0.000000 0.000000  1.570796 -0.000000 0.000000
1  0.000000 60.718807 -6.742481  0.000000 -0.000000 0.000000
2  47.470718 -32.811935 -69.652481  0.000000 -0.000000 0.000000
3  5.529282 -0.000001 0.000003  0.000000 -0.000000 0.000000
4  46.157730 -32.811935 73.942673  0.000000 -0.000000 0.000000
5  0.000000 0.000001 0.000003  0.000000 -0.000000 0.000000
6  6.842270 0.000001 0.000000  0.000000 -0.000000 0.000000
7  -45.946465 -32.811935 73.942673  -0.000000 3.141593 -0.000000
8  0.000001 0.000001 -0.000002  -0.000000 0.000000 0.000000
9  6.842272 -0.000001 0.000003  0.000000 0.000000 0.000000
10  -47.470718 -32.811935 -69.652481  -0.000000 3.141593 -0.000000
11  5.529282 -0.000001 -0.000003  -0.000000 0.000000 -0.000000
12  14.458628 38.283417 -1.261086  0.000000 -0.000000 0.000000
13  0.003263 1.102089 0.007911  -0.000000 -0.000000 0.000000
end
triangles
  phy
0  -7.270363 -77.867432 92.173706  -0.724930 -0.474720 0.499117  0.000000 0.000000 1 0 1.000000
0  -29.470097 -95.958740 -35.132538  -0.877847 -0.460382 0.132036  0.000000 0.000000 1 0 1.000000
0  0.431923 -83.592842 92.115074  0.045234 -0.853549 0.519045  0.000000 0.000000 1 0 1.000000
  phy
0  -29.470097 -95.958740 -35.132538  -0.877847 -0.460382 0.132036  0.000000 0.000000 1 0 1.000000
0  -29.264706 -96.694084 -37.281273  -0.771839 -0.635559 -0.018166  0.000000 0.000000 1 0 1.000000
0  0.431923 -83.592842 92.115074  0.045234 -0.853549 0.519045  0.000000 0.000000 1 0 1.000000
  phy
0  -29.470097 -95.958740 -35.132538  -0.877847 -0.460382 0.132036  0.000000 0.000000 1 0 1.000000
0  -43.028431 -36.416241 -44.179264  -0.677700 0.717415 -0.161366  0.000000 0.000000 1 0 1.000000
0  -29.264706 -96.694084 -37.281273  -0.771839 -0.635559 -0.018166  0.000000 0.000000 1 0 1.000000
  phy
0  -29.264706 -96.694084 -37.281273  -0.771839 -0.635559 -0.018166  0.000000 0.000000 1 0 1.000000
0  -43.028431 -36.416241 -44.179264  -0.677700 0.717415 -0.161366  0.000000 0.000000 1 0 1.000000
0  -29.725533 -89.191612 -112.750534  -0.471931 -0.307194 -0.826386  0.000000 0.000000 1 0 1.000000
  phy
0  -29.470097 -95.958740 -35.132538  -0.877847 -0.460382 0.132036  0.000000 0.000000 1 0 1.000000
0  -7.270363 -77.867432 92.173706  -0.724930 -0.474720 0.499117  0.000000 0.000000 1 0 1.000000
0  -10.645222 -35.188225 117.035385  0.410954 0.595248 0.690505  0.000000 0.000000 1 0 1.000000
  phy
0  -29.470097 -95.958740 -35.132538  -0.877847 -0.460382 0.132036  0.000000 0.000000 1 0 1.000000
0  -10.645222 -35.188225 117.035385  0.410954 0.595248 0.690505  0.000000 0.000000 1 0 1.000000
0  -43.028431 -36.416241 -44.179264  -0.677700 0.717415 -0.161366  0.000000 0.000000 1 0 1.000000
  phy
0  30.162188 -95.639481 -34.819603  0.871136 -0.453451 0.188427  0.000000 0.000000 1 0 1.000000
0  29.932642 -96.486519 -37.246193  0.777481 -0.624797 0.071772  0.000000 0.000000 1 0 1.000000
0  43.279213 -36.117924 -44.179073  0.685493 0.714950 -0.137648  0.000000 0.000000 1 0 1.000000
  phy
0  29.932642 -96.486519 -37.246193  0.777481 -0.624797 0.071772  0.000000 0.000000 1 0 1.000000
0  30.340988 -88.984192 -112.751114  0.473660 -0.301862 -0.827361  0.000000 0.000000 1 0 1.000000
0  43.279213 -36.117924 -44.179073  0.685493 0.714950 -0.137648  0.000000 0.000000 1 0 1.000000
  phy
0  7.885529 -77.815224 92.173759  0.733187 -0.464836 0.496351  0.000000 0.000000 1 0 1.000000
0  0.431923 -83.592842 92.115074  0.045234 -0.853549 0.519045  0.000000 0.000000 1 0 1.000000
0  30.162188 -95.639481 -34.819603  0.871136 -0.453451 0.188427  0.000000 0.000000 1 0 1.000000
  phy
0  0.431923 -83.592842 92.115074  0.045234 -0.853549 0.519045  0.000000 0.000000 1 0 1.000000
0  29.932642 -96.486519 -37.246193  0.777481 -0.624797 0.071772  0.000000 0.000000 1 0 1.000000
0  30.162188 -95.639481 -34.819603  0.871136 -0.453451 0.188427  0.000000 0.000000 1 0 1.000000
  phy
0  30.162188 -95.639481 -34.819603  0.871136 -0.453451 0.188427  0.000000 0.000000 1 0 1.000000
0  10.920750 -35.114250 117.035622  -0.917812 0.015125 0.396727  0.000000 0.000000 1 0 1.000000
0  7.885529 -77.815224 92.173759  0.733187 -0.464836 0.496351  0.000000 0.000000 1 0 1.000000
  phy
0  30.162188 -95.639481 -34.819603  0.871136 -0.453451 0.188427  0.000000 0.000000 1 0 1.000000
0  43.279213 -36.117924 -44.179073  0.685493 0.714950 -0.137648  0.000000 0.000000 1 0 1.000000
0  10.920750 -35.114250 117.035622  -0.917812 0.015125 0.396727  0.000000 0.000000 1 0 1.000000
  phy
0  -29.725533 -89.191612 -112.750534  -0.471931 -0.307194 -0.826386  0.000000 0.000000 1 0 1.000000
0  0.581401 -116.184822 -30.033567  0.215346 -0.975723 0.039888  0.000000 0.000000 1 0 1.000000
0  -29.264706 -96.694084 -37.281273  -0.771839 -0.635559 -0.018166  0.000000 0.000000 1 0 1.000000
  phy
0  -29.264706 -96.694084 -37.281273  -0.771839 -0.635559 -0.018166  0.000000 0.000000 1 0 1.000000
0  0.581401 -116.184822 -30.033567  0.215346 -0.975723 0.039888  0.000000 0.000000 1 0 1.000000
0  0.431923 -83.592842 92.115074  0.045234 -0.853549 0.519045  0.000000 0.000000 1 0 1.000000
  phy
0  29.932642 -96.486519 -37.246193  0.777481 -0.624797 0.071772  0.000000 0.000000 1 0 1.000000
0  0.581401 -116.184822 -30.033567  0.215346 -0.975723 0.039888  0.000000 0.000000 1 0 1.000000
0  30.340988 -88.984192 -112.751114  0.473660 -0.301862 -0.827361  0.000000 0.000000 1 0 1.000000
  phy
0  0.431923 -83.592842 92.115074  0.045234 -0.853549 0.519045  0.000000 0.000000 1 0 1.000000
0  0.581401 -116.184822 -30.033567  0.215346 -0.975723 0.039888  0.000000 0.000000 1 0 1.000000
0  29.932642 -96.486519 -37.246193  0.777481 -0.624797 0.071772  0.000000 0.000000 1 0 1.000000
  phy
0  0.431923 -83.592842 92.115074  0.045234 -0.853549 0.519045  0.000000 0.000000 1 0 1.000000
0  -10.645222 -35.188225 117.035385  0.410954 0.595248 0.690505  0.000000 0.000000 1 0 1.000000
0  -7.270363 -77.867432 92.173706  -0.724930 -0.474720 0.499117  0.000000 0.000000 1 0 1.000000
  phy
0  7.885529 -77.815224 92.173759  0.733187 -0.464836 0.496351  0.000000 0.000000 1 0 1.000000
0  10.920750 -35.114250 117.035622  -0.917812 0.015125 0.396727  0.000000 0.000000 1 0 1.000000
0  0.431923 -83.592842 92.115074  0.045234 -0.853549 0.519045  0.000000 0.000000 1 0 1.000000
  phy
0  -32.126198 -37.705097 -100.267845  -0.739058 0.666041 -0.100911  0.000000 0.000000 1 0 1.000000
0  32.385857 -37.482117 -100.268166  0.693987 0.659619 0.288589  0.000000 0.000000 1 0 1.000000
0  0.312856 -37.957691 -115.688927  -0.004357 0.992616 -0.121220  0.000000 0.000000 1 0 1.000000
  phy
0  32.385857 -37.482117 -100.268166  0.693987 0.659619 0.288589  0.000000 0.000000 1 0 1.000000
0  -32.126198 -37.705097 -100.267845  -0.739058 0.666041 -0.100911  0.000000 0.000000 1 0 1.000000
0  -43.028431 -36.416241 -44.179264  -0.677700 0.717415 -0.161366  0.000000 0.000000 1 0 1.000000
  phy
0  43.279213 -36.117924 -44.179073  0.685493 0.714950 -0.137648  0.000000 0.000000 1 0 1.000000
0  32.385857 -37.482117 -100.268166  0.693987 0.659619 0.288589  0.000000 0.000000 1 0 1.000000
0  -43.028431 -36.416241 -44.179264  -0.677700 0.717415 -0.161366  0.000000 0.000000 1 0 1.000000
  phy
0  32.385857 -37.482117 -100.268166  0.693987 0.659619 0.288589  0.000000 0.000000 1 0 1.000000
0  30.340988 -88.984192 -112.751114  0.473660 -0.301862 -0.827361  0.000000 0.000000 1 0 1.000000
0  0.312856 -37.957691 -115.688927  -0.004357 0.992616 -0.121220  0.000000 0.000000 1 0 1.000000
  phy
0  32.385857 -37.482117 -100.268166  0.693987 0.659619 0.288589  0.000000 0.000000 1 0 1.000000
0  43.279213 -36.117924 -44.179073  0.685493 0.714950 -0.137648  0.000000 0.000000 1 0 1.000000
0  30.340988 -88.984192 -112.751114  0.473660 -0.301862 -0.827361  0.000000 0.000000 1 0 1.000000
  phy
0  -29.725533 -89.191612 -112.750534  -0.471931 -0.307194 -0.826386  0.000000 0.000000 1 0 1.000000
0  -32.126198 -37.705097 -100.267845  -0.739058 0.666041 -0.100911  0.000000 0.000000 1 0 1.000000
0  0.312856 -37.957691 -115.688927  -0.004357 0.992616 -0.121220  0.000000 0.000000 1 0 1.000000
  phy
0  -32.126198 -37.705097 -100.267845  -0.739058 0.666041 -0.100911  0.000000 0.000000 1 0 1.000000
0  -29.725533 -89.191612 -112.750534  -0.471931 -0.307194 -0.826386  0.000000 0.000000 1 0 1.000000
0  -43.028431 -36.416241 -44.179264  -0.677700 0.717415 -0.161366  0.000000 0.000000 1 0 1.000000
  phy
0  0.431923 -83.592842 92.115074  0.045234 -0.853549 0.519045  0.000000 0.000000 1 0 1.000000
0  10.920750 -35.114250 117.035622  -0.917812 0.015125 0.396727  0.000000 0.000000 1 0 1.000000
0  -10.645222 -35.188225 117.035385  0.410954 0.595248 0.690505  0.000000 0.000000 1 0 1.000000
  phy
0  0.312856 -37.957691 -115.688927  -0.004357 0.992616 -0.121220  0.000000 0.000000 1 0 1.000000
0  30.340988 -88.984192 -112.751114  0.473660 -0.301862 -0.827361  0.000000 0.000000 1 0 1.000000
0  0.500074 -92.261192 -118.191406  0.019327 -0.583303 -0.812024  0.000000 0.000000 1 0 1.000000
  phy
0  30.340988 -88.984192 -112.751114  0.473660 -0.301862 -0.827361  0.000000 0.000000 1 0 1.000000
0  0.581401 -116.184822 -30.033567  0.215346 -0.975723 0.039888  0.000000 0.000000 1 0 1.000000
0  0.500074 -92.261192 -118.191406  0.019327 -0.583303 -0.812024  0.000000 0.000000 1 0 1.000000
  phy
0  -29.725533 -89.191612 -112.750534  -0.471931 -0.307194 -0.826386  0.000000 0.000000 1 0 1.000000
0  0.312856 -37.957691 -115.688927  -0.004357 0.992616 -0.121220  0.000000 0.000000 1 0 1.000000
0  0.500074 -92.261192 -118.191406  0.019327 -0.583303 -0.812024  0.000000 0.000000 1 0 1.000000
  phy
0  0.500074 -92.261192 -118.191406  0.019327 -0.583303 -0.812024  0.000000 0.000000 1 0 1.000000
0  0.581401 -116.184822 -30.033567  0.215346 -0.975723 0.039888  0.000000 0.000000 1 0 1.000000
0  -29.725533 -89.191612 -112.750534  -0.471931 -0.307194 -0.826386  0.000000 0.000000 1 0 1.000000
  phy
0  -10.645222 -35.188225 117.035385  0.410954 0.595248 0.690505  0.000000 0.000000 1 0 1.000000
0  10.920750 -35.114250 117.035622  -0.917812 0.015125 0.396727  0.000000 0.000000 1 0 1.000000
0  43.279213 -36.117924 -44.179073  0.685493 0.714950 -0.137648  0.000000 0.000000 1 0 1.000000
  phy
0  -10.645222 -35.188225 117.035385  0.410954 0.595248 0.690505  0.000000 0.000000 1 0 1.000000
0  43.279213 -36.117924 -44.179073  0.685493 0.714950 -0.137648  0.000000 0.000000 1 0 1.000000
0  -43.028431 -36.416241 -44.179264  -0.677700 0.717415 -0.161366  0.000000 0.000000 1 0 1.000000
  phy
0  0.016464 -18.738417 -42.420731  -0.003417 0.998793 -0.049008  0.000000 0.000000 1 0 1.000000
0  43.520714 -36.636078 -115.018074  0.890145 0.268580 -0.368112  0.000000 0.000000 1 0 1.000000
0  -0.086284 -33.019440 -126.304436  0.399261 0.595678 -0.696963  0.000000 0.000000 1 0 1.000000
  phy
0  43.520714 -36.636078 -115.018074  0.890145 0.268580 -0.368112  0.000000 0.000000 1 0 1.000000
0  0.016464 -18.738417 -42.420731  -0.003417 0.998793 -0.049008  0.000000 0.000000 1 0 1.000000
0  53.344631 -34.740082 -42.751328  0.702686 0.563834 -0.433963  0.000000 0.000000 1 0 1.000000
  phy
0  43.520714 -36.636078 -115.018074  0.890145 0.268580 -0.368112  0.000000 0.000000 1 0 1.000000
0  43.560417 -48.123848 -115.018074  0.738664 -0.552264 -0.386497  0.000000 0.000000 1 0 1.000000
0  -0.086284 -33.019440 -126.304436  0.399261 0.595678 -0.696963  0.000000 0.000000 1 0 1.000000
  phy
0  43.520714 -36.636078 -115.018074  0.890145 0.268580 -0.368112  0.000000 0.000000 1 0 1.000000
0  53.344631 -34.740082 -42.751328  0.702686 0.563834 -0.433963  0.000000 0.000000 1 0 1.000000
0  43.560417 -48.123848 -115.018074  0.738664 -0.552264 -0.386497  0.000000 0.000000 1 0 1.000000
  phy
0  43.560417 -48.123848 -115.018074  0.738664 -0.552264 -0.386497  0.000000 0.000000 1 0 1.000000
0  53.344631 -34.740082 -42.751328  0.702686 0.563834 -0.433963  0.000000 0.000000 1 0 1.000000
0  53.316818 -50.114895 -43.346565  0.748552 -0.655136 -0.102309  0.000000 0.000000 1 0 1.000000
  phy
0  53.316818 -50.114895 -43.346565  0.748552 -0.655136 -0.102309  0.000000 0.000000 1 0 1.000000
0  53.344631 -34.740082 -42.751328  0.702686 0.563834 -0.433963  0.000000 0.000000 1 0 1.000000
0  53.256668 -50.136753 -42.861198  0.709148 -0.694826 0.119696  0.000000 0.000000 1 0 1.000000
  phy
0  53.316818 -50.114895 -43.346565  0.748552 -0.655136 -0.102309  0.000000 0.000000 1 0 1.000000
0  0.035061 -53.651279 -43.328140  -0.009103 -0.999889 0.011764  0.000000 0.000000 1 0 1.000000
0  43.560417 -48.123848 -115.018074  0.738664 -0.552264 -0.386497  0.000000 0.000000 1 0 1.000000
  phy
0  53.256668 -50.136753 -42.861198  0.709148 -0.694826 0.119696  0.000000 0.000000 1 0 1.000000
0  0.035061 -53.651279 -43.328140  -0.009103 -0.999889 0.011764  0.000000 0.000000 1 0 1.000000
0  53.316818 -50.114895 -43.346565  0.748552 -0.655136 -0.102309  0.000000 0.000000 1 0 1.000000
  phy
0  -43.266075 -36.936066 -115.018135  -0.580014 0.208850 -0.787379  0.000000 0.000000 1 0 1.000000
0  -0.086284 -33.019440 -126.304436  0.399261 0.595678 -0.696963  0.000000 0.000000 1 0 1.000000
0  -43.226357 -48.423817 -115.018135  -0.363642 -0.840128 -0.402430  0.000000 0.000000 1 0 1.000000
  phy
0  -43.226357 -48.423817 -115.018135  -0.363642 -0.840128 -0.402430  0.000000 0.000000 1 0 1.000000
0  -0.086284 -33.019440 -126.304436  0.399261 0.595678 -0.696963  0.000000 0.000000 1 0 1.000000
0  -0.032703 -48.521423 -126.304436  -0.147595 -0.647418 -0.747707  0.000000 0.000000 1 0 1.000000
  phy
0  43.560417 -48.123848 -115.018074  0.738664 -0.552264 -0.386497  0.000000 0.000000 1 0 1.000000
0  -0.032703 -48.521423 -126.304436  -0.147595 -0.647418 -0.747707  0.000000 0.000000 1 0 1.000000
0  -0.086284 -33.019440 -126.304436  0.399261 0.595678 -0.696963  0.000000 0.000000 1 0 1.000000
  phy
0  43.560417 -48.123848 -115.018074  0.738664 -0.552264 -0.386497  0.000000 0.000000 1 0 1.000000
0  0.035061 -53.651279 -43.328140  -0.009103 -0.999889 0.011764  0.000000 0.000000 1 0 1.000000
0  -0.032703 -48.521423 -126.304436  -0.147595 -0.647418 -0.747707  0.000000 0.000000 1 0 1.000000
  phy
0  -0.032703 -48.521423 -126.304436  -0.147595 -0.647418 -0.747707  0.000000 0.000000 1 0 1.000000
0  0.035061 -53.651279 -43.328140  -0.009103 -0.999889 0.011764  0.000000 0.000000 1 0 1.000000
0  -43.226357 -48.423817 -115.018135  -0.363642 -0.840128 -0.402430  0.000000 0.000000 1 0 1.000000
  phy
0  0.087945 -25.467262 57.268360  0.231201 0.645601 0.727836  0.000000 0.000000 1 0 1.000000
0  0.124845 -36.142151 57.268368  0.263633 -0.545268 0.795726  0.000000 0.000000 1 0 1.000000
0  41.227112 -29.232258 39.095356  0.619870 0.401772 0.674048  0.000000 0.000000 1 0 1.000000
  phy
0  41.227112 -29.232258 39.095356  0.619870 0.401772 0.674048  0.000000 0.000000 1 0 1.000000
0  0.124845 -36.142151 57.268368  0.263633 -0.545268 0.795726  0.000000 0.000000 1 0 1.000000
0  41.258972 -38.449104 39.095352  0.747352 -0.521844 0.411270  0.000000 0.000000 1 0 1.000000
  phy
0  0.087945 -25.467262 57.268360  0.231201 0.645601 0.727836  0.000000 0.000000 1 0 1.000000
0  41.227112 -29.232258 39.095356  0.619870 0.401772 0.674048  0.000000 0.000000 1 0 1.000000
0  0.016464 -18.738417 -42.420731  -0.003417 0.998793 -0.049008  0.000000 0.000000 1 0 1.000000
  phy
0  0.016464 -18.738417 -42.420731  -0.003417 0.998793 -0.049008  0.000000 0.000000 1 0 1.000000
0  41.227112 -29.232258 39.095356  0.619870 0.401772 0.674048  0.000000 0.000000 1 0 1.000000
0  53.344631 -34.740082 -42.751328  0.702686 0.563834 -0.433963  0.000000 0.000000 1 0 1.000000
  phy
0  41.258972 -38.449104 39.095352  0.747352 -0.521844 0.411270  0.000000 0.000000 1 0 1.000000
0  48.421185 -47.727551 -3.619099  0.556103 -0.797830 0.232844  0.000000 0.000000 1 0 1.000000
0  41.227112 -29.232258 39.095356  0.619870 0.401772 0.674048  0.000000 0.000000 1 0 1.000000
  phy
0  48.421185 -47.727551 -3.619099  0.556103 -0.797830 0.232844  0.000000 0.000000 1 0 1.000000
0  53.344631 -34.740082 -42.751328  0.702686 0.563834 -0.433963  0.000000 0.000000 1 0 1.000000
0  41.227112 -29.232258 39.095356  0.619870 0.401772 0.674048  0.000000 0.000000 1 0 1.000000
  phy
0  -43.266075 -36.936066 -115.018135  -0.580014 0.208850 -0.787379  0.000000 0.000000 1 0 1.000000
0  -43.226357 -48.423817 -115.018135  -0.363642 -0.840128 -0.402430  0.000000 0.000000 1 0 1.000000
0  -52.968956 -50.482231 -43.346699  -0.883597 -0.467843 0.019455  0.000000 0.000000 1 0 1.000000
  phy
0  -43.266075 -36.936066 -115.018135  -0.580014 0.208850 -0.787379  0.000000 0.000000 1 0 1.000000
0  -52.968956 -50.482231 -43.346699  -0.883597 -0.467843 0.019455  0.000000 0.000000 1 0 1.000000
0  -53.103085 -35.108021 -42.751476  -0.857219 0.424489 0.291522  0.000000 0.000000 1 0 1.000000
  phy
0  -52.968956 -50.482231 -43.346699  -0.883597 -0.467843 0.019455  0.000000 0.000000 1 0 1.000000
0  -52.908665 -50.503712 -42.861343  -0.704439 -0.699590 0.119748  0.000000 0.000000 1 0 1.000000
0  -53.103085 -35.108021 -42.751476  -0.857219 0.424489 0.291522  0.000000 0.000000 1 0 1.000000
  phy
0  -52.968956 -50.482231 -43.346699  -0.883597 -0.467843 0.019455  0.000000 0.000000 1 0 1.000000
0  0.035061 -53.651279 -43.328140  -0.009103 -0.999889 0.011764  0.000000 0.000000 1 0 1.000000
0  -52.908665 -50.503712 -42.861343  -0.704439 -0.699590 0.119748  0.000000 0.000000 1 0 1.000000
  phy
0  -43.226357 -48.423817 -115.018135  -0.363642 -0.840128 -0.402430  0.000000 0.000000 1 0 1.000000
0  0.035061 -53.651279 -43.328140  -0.009103 -0.999889 0.011764  0.000000 0.000000 1 0 1.000000
0  -52.968956 -50.482231 -43.346699  -0.883597 -0.467843 0.019455  0.000000 0.000000 1 0 1.000000
  phy
0  -41.024170 -29.516563 39.095234  -0.497881 0.739685 0.452748  0.000000 0.000000 1 0 1.000000
0  0.087945 -25.467262 57.268360  0.231201 0.645601 0.727836  0.000000 0.000000 1 0 1.000000
0  0.016464 -18.738417 -42.420731  -0.003417 0.998793 -0.049008  0.000000 0.000000 1 0 1.000000
  phy
0  -41.024170 -29.516563 39.095234  -0.497881 0.739685 0.452748  0.000000 0.000000 1 0 1.000000
0  0.124845 -36.142151 57.268368  0.263633 -0.545268 0.795726  0.000000 0.000000 1 0 1.000000
0  0.087945 -25.467262 57.268360  0.231201 0.645601 0.727836  0.000000 0.000000 1 0 1.000000
  phy
0  -43.266075 -36.936066 -115.018135  -0.580014 0.208850 -0.787379  0.000000 0.000000 1 0 1.000000
0  0.016464 -18.738417 -42.420731  -0.003417 0.998793 -0.049008  0.000000 0.000000 1 0 1.000000
0  -0.086284 -33.019440 -126.304436  0.399261 0.595678 -0.696963  0.000000 0.000000 1 0 1.000000
  phy
0  0.016464 -18.738417 -42.420731  -0.003417 0.998793 -0.049008  0.000000 0.000000 1 0 1.000000
0  -43.266075 -36.936066 -115.018135  -0.580014 0.208850 -0.787379  0.000000 0.000000 1 0 1.000000
0  -53.103085 -35.108021 -42.751476  -0.857219 0.424489 0.291522  0.000000 0.000000 1 0 1.000000
  phy
0  -52.908665 -50.503712 -42.861343  -0.704439 -0.699590 0.119748  0.000000 0.000000 1 0 1.000000
0  -48.090073 -48.061150 -3.619235  -0.576547 -0.808704 0.116581  0.000000 0.000000 1 0 1.000000
0  -53.103085 -35.108021 -42.751476  -0.857219 0.424489 0.291522  0.000000 0.000000 1 0 1.000000
  phy
0  -52.908665 -50.503712 -42.861343  -0.704439 -0.699590 0.119748  0.000000 0.000000 1 0 1.000000
0  0.035061 -53.651279 -43.328140  -0.009103 -0.999889 0.011764  0.000000 0.000000 1 0 1.000000
0  -48.090073 -48.061150 -3.619235  -0.576547 -0.808704 0.116581  0.000000 0.000000 1 0 1.000000
  phy
0  -40.992306 -38.733402 39.095226  -0.570097 -0.440285 0.693642  0.000000 0.000000 1 0 1.000000
0  -41.024170 -29.516563 39.095234  -0.497881 0.739685 0.452748  0.000000 0.000000 1 0 1.000000
0  -48.090073 -48.061150 -3.619235  -0.576547 -0.808704 0.116581  0.000000 0.000000 1 0 1.000000
  phy
0  -48.090073 -48.061150 -3.619235  -0.576547 -0.808704 0.116581  0.000000 0.000000 1 0 1.000000
0  -41.024170 -29.516563 39.095234  -0.497881 0.739685 0.452748  0.000000 0.000000 1 0 1.000000
0  -53.103085 -35.108021 -42.751476  -0.857219 0.424489 0.291522  0.000000 0.000000 1 0 1.000000
  phy
0  -41.024170 -29.516563 39.095234  -0.497881 0.739685 0.452748  0.000000 0.000000 1 0 1.000000
0  0.016464 -18.738417 -42.420731  -0.003417 0.998793 -0.049008  0.000000 0.000000 1 0 1.000000
0  -53.103085 -35.108021 -42.751476  -0.857219 0.424489 0.291522  0.000000 0.000000 1 0 1.000000
  phy
0  -40.992306 -38.733402 39.095226  -0.570097 -0.440285 0.693642  0.000000 0.000000 1 0 1.000000
0  0.124845 -36.142151 57.268368  0.263633 -0.545268 0.795726  0.000000 0.000000 1 0 1.000000
0  -41.024170 -29.516563 39.095234  -0.497881 0.739685 0.452748  0.000000 0.000000 1 0 1.000000
  phy
0  0.172161 -49.805904 -3.619168  0.003461 -0.987476 0.157731  0.000000 0.000000 1 0 1.000000
0  0.035061 -53.651279 -43.328140  -0.009103 -0.999889 0.011764  0.000000 0.000000 1 0 1.000000
0  48.421185 -47.727551 -3.619099  0.556103 -0.797830 0.232844  0.000000 0.000000 1 0 1.000000
  phy
0  -48.090073 -48.061150 -3.619235  -0.576547 -0.808704 0.116581  0.000000 0.000000 1 0 1.000000
0  0.035061 -53.651279 -43.328140  -0.009103 -0.999889 0.011764  0.000000 0.000000 1 0 1.000000
0  0.172161 -49.805904 -3.619168  0.003461 -0.987476 0.157731  0.000000 0.000000 1 0 1.000000
  phy
0  48.421185 -47.727551 -3.619099  0.556103 -0.797830 0.232844  0.000000 0.000000 1 0 1.000000
0  0.124845 -36.142151 57.268368  0.263633 -0.545268 0.795726  0.000000 0.000000 1 0 1.000000
0  0.172161 -49.805904 -3.619168  0.003461 -0.987476 0.157731  0.000000 0.000000 1 0 1.000000
  phy
0  0.172161 -49.805904 -3.619168  0.003461 -0.987476 0.157731  0.000000 0.000000 1 0 1.000000
0  0.124845 -36.142151 57.268368  0.263633 -0.545268 0.795726  0.000000 0.000000 1 0 1.000000
0  -48.090073 -48.061150 -3.619235  -0.576547 -0.808704 0.116581  0.000000 0.000000 1 0 1.000000
  phy
0  48.421185 -47.727551 -3.619099  0.556103 -0.797830 0.232844  0.000000 0.000000 1 0 1.000000
0  0.035061 -53.651279 -43.328140  -0.009103 -0.999889 0.011764  0.000000 0.000000 1 0 1.000000
0  53.256668 -50.136753 -42.861198  0.709148 -0.694826 0.119696  0.000000 0.000000 1 0 1.000000
  phy
0  53.256668 -50.136753 -42.861198  0.709148 -0.694826 0.119696  0.000000 0.000000 1 0 1.000000
0  53.344631 -34.740082 -42.751328  0.702686 0.563834 -0.433963  0.000000 0.000000 1 0 1.000000
0  48.421185 -47.727551 -3.619099  0.556103 -0.797830 0.232844  0.000000 0.000000 1 0 1.000000
  phy
0  41.258972 -38.449104 39.095352  0.747352 -0.521844 0.411270  0.000000 0.000000 1 0 1.000000
0  0.124845 -36.142151 57.268368  0.263633 -0.545268 0.795726  0.000000 0.000000 1 0 1.000000
0  48.421185 -47.727551 -3.619099  0.556103 -0.797830 0.232844  0.000000 0.000000 1 0 1.000000
  phy
0  -48.090073 -48.061150 -3.619235  -0.576547 -0.808704 0.116581  0.000000 0.000000 1 0 1.000000
0  0.124845 -36.142151 57.268368  0.263633 -0.545268 0.795726  0.000000 0.000000 1 0 1.000000
0  -40.992306 -38.733402 39.095226  -0.570097 -0.440285 0.693642  0.000000 0.000000 1 0 1.000000
  phy
0  57.137657 -61.391113 92.277260  0.162259 -0.811821 0.560908  0.000000 0.000000 1 0 1.000000
0  61.904610 -35.730209 102.332726  0.112600 -0.052491 -0.992253  0.000000 0.000000 1 0 1.000000
0  9.313179 -63.491116 91.518578  0.009593 -0.727914 0.685601  0.000000 0.000000 1 0 1.000000
  phy
0  61.904610 -35.730209 102.332726  0.112600 -0.052491 -0.992253  0.000000 0.000000 1 0 1.000000
0  -8.874306 -63.553978 91.518547  -0.020440 -0.728689 0.684540  0.000000 0.000000 1 0 1.000000
0  9.313179 -63.491116 91.518578  0.009593 -0.727914 0.685601  0.000000 0.000000 1 0 1.000000
  phy
0  -8.874306 -63.553978 91.518547  -0.020440 -0.728689 0.684540  0.000000 0.000000 1 0 1.000000
0  7.547193 -74.617981 57.163090  0.425037 -0.179966 -0.887105  0.000000 0.000000 1 0 1.000000
0  9.313179 -63.491116 91.518578  0.009593 -0.727914 0.685601  0.000000 0.000000 1 0 1.000000
  phy
0  9.313179 -63.491116 91.518578  0.009593 -0.727914 0.685601  0.000000 0.000000 1 0 1.000000
0  7.547193 -74.617981 57.163090  0.425037 -0.179966 -0.887105  0.000000 0.000000 1 0 1.000000
0  57.137657 -61.391113 92.277260  0.162259 -0.811821 0.560908  0.000000 0.000000 1 0 1.000000
  phy
0  -8.874306 -63.553978 91.518547  -0.020440 -0.728689 0.684540  0.000000 0.000000 1 0 1.000000
0  -7.031348 -74.668373 57.163067  -0.138603 -0.824775 -0.548210  0.000000 0.000000 1 0 1.000000
0  7.547193 -74.617981 57.163090  0.425037 -0.179966 -0.887105  0.000000 0.000000 1 0 1.000000
  phy
0  -56.100727 -61.509766 91.324501  -0.692475 -0.544632 0.473132  0.000000 0.000000 1 0 1.000000
0  -7.031348 -74.668373 57.163067  -0.138603 -0.824775 -0.548210  0.000000 0.000000 1 0 1.000000
0  -8.874306 -63.553978 91.518547  -0.020440 -0.728689 0.684540  0.000000 0.000000 1 0 1.000000
  phy
0  -61.765839 -35.586403 101.626076  -0.923332 0.328774 -0.198407  0.000000 0.000000 1 0 1.000000
0  -56.100727 -61.509766 91.324501  -0.692475 -0.544632 0.473132  0.000000 0.000000 1 0 1.000000
0  -8.874306 -63.553978 91.518547  -0.020440 -0.728689 0.684540  0.000000 0.000000 1 0 1.000000
  phy
0  -8.874306 -63.553978 91.518547  -0.020440 -0.728689 0.684540  0.000000 0.000000 1 0 1.000000
0  61.904610 -35.730209 102.332726  0.112600 -0.052491 -0.992253  0.000000 0.000000 1 0 1.000000
0  -61.765839 -35.586403 101.626076  -0.923332 0.328774 -0.198407  0.000000 0.000000 1 0 1.000000
  phy
0  7.547193 -74.617981 57.163090  0.425037 -0.179966 -0.887105  0.000000 0.000000 1 0 1.000000
0  65.112717 -66.398087 64.627785  0.835938 -0.491796 0.243607  0.000000 0.000000 1 0 1.000000
0  57.137657 -61.391113 92.277260  0.162259 -0.811821 0.560908  0.000000 0.000000 1 0 1.000000
  phy
0  65.112717 -66.398087 64.627785  0.835938 -0.491796 0.243607  0.000000 0.000000 1 0 1.000000
0  61.904610 -35.730209 102.332726  0.112600 -0.052491 -0.992253  0.000000 0.000000 1 0 1.000000
0  57.137657 -61.391113 92.277260  0.162259 -0.811821 0.560908  0.000000 0.000000 1 0 1.000000
  phy
0  65.112717 -66.398087 64.627785  0.835938 -0.491796 0.243607  0.000000 0.000000 1 0 1.000000
0  7.547193 -74.617981 57.163090  0.425037 -0.179966 -0.887105  0.000000 0.000000 1 0 1.000000
0  73.277977 -43.574669 57.605595  -0.785127 0.618021 0.040321  0.000000 0.000000 1 0 1.000000
  phy
0  7.547193 -74.617981 57.163090  0.425037 -0.179966 -0.887105  0.000000 0.000000 1 0 1.000000
0  -7.031348 -74.668373 57.163067  -0.138603 -0.824775 -0.548210  0.000000 0.000000 1 0 1.000000
0  73.277977 -43.574669 57.605595  -0.785127 0.618021 0.040321  0.000000 0.000000 1 0 1.000000
  phy
0  -61.765839 -35.586403 101.626076  -0.923332 0.328774 -0.198407  0.000000 0.000000 1 0 1.000000
0  -63.203339 -66.993637 64.895103  -0.358905 -0.411832 -0.837605  0.000000 0.000000 1 0 1.000000
0  -56.100727 -61.509766 91.324501  -0.692475 -0.544632 0.473132  0.000000 0.000000 1 0 1.000000
  phy
0  -63.203339 -66.993637 64.895103  -0.358905 -0.411832 -0.837605  0.000000 0.000000 1 0 1.000000
0  -61.765839 -35.586403 101.626076  -0.923332 0.328774 -0.198407  0.000000 0.000000 1 0 1.000000
0  -73.227440 -43.791821 58.917709  -0.469246 -0.881663 -0.049779  0.000000 0.000000 1 0 1.000000
  phy
0  -63.203339 -66.993637 64.895103  -0.358905 -0.411832 -0.837605  0.000000 0.000000 1 0 1.000000
0  -7.031348 -74.668373 57.163067  -0.138603 -0.824775 -0.548210  0.000000 0.000000 1 0 1.000000
0  -56.100727 -61.509766 91.324501  -0.692475 -0.544632 0.473132  0.000000 0.000000 1 0 1.000000
  phy
0  -7.031348 -74.668373 57.163067  -0.138603 -0.824775 -0.548210  0.000000 0.000000 1 0 1.000000
0  -63.203339 -66.993637 64.895103  -0.358905 -0.411832 -0.837605  0.000000 0.000000 1 0 1.000000
0  -73.227440 -43.791821 58.917709  -0.469246 -0.881663 -0.049779  0.000000 0.000000 1 0 1.000000
  phy
0  65.112717 -66.398087 64.627785  0.835938 -0.491796 0.243607  0.000000 0.000000 1 0 1.000000
0  73.277977 -43.574669 57.605595  -0.785127 0.618021 0.040321  0.000000 0.000000 1 0 1.000000
0  61.904610 -35.730209 102.332726  0.112600 -0.052491 -0.992253  0.000000 0.000000 1 0 1.000000
  phy
0  -61.765839 -35.586403 101.626076  -0.923332 0.328774 -0.198407  0.000000 0.000000 1 0 1.000000
0  61.904610 -35.730209 102.332726  0.112600 -0.052491 -0.992253  0.000000 0.000000 1 0 1.000000
0  73.277977 -43.574669 57.605595  -0.785127 0.618021 0.040321  0.000000 0.000000 1 0 1.000000
  phy
0  -61.765839 -35.586403 101.626076  -0.923332 0.328774 -0.198407  0.000000 0.000000 1 0 1.000000
0  73.277977 -43.574669 57.605595  -0.785127 0.618021 0.040321  0.000000 0.000000 1 0 1.000000
0  -73.227440 -43.791821 58.917709  -0.469246 -0.881663 -0.049779  0.000000 0.000000 1 0 1.000000
  phy
0  73.277977 -43.574669 57.605595  -0.785127 0.618021 0.040321  0.000000 0.000000 1 0 1.000000
0  -7.031348 -74.668373 57.163067  -0.138603 -0.824775 -0.548210  0.000000 0.000000 1 0 1.000000
0  -73.227440 -43.791821 58.917709  -0.469246 -0.881663 -0.049779  0.000000 0.000000 1 0 1.000000
end
