// Created by Crowbar 0.71
version 1
nodes
  0 "door" -1
  1 "handle" 0
  2 "handle02" 0
end
skeleton
  time 0
    0 0.000000 0.000000 0.000000 1.570796 0.000000 0.000000
    1 43.810005 -10.390667 1.997513 0.000000 0.000000 0.000000
    2 43.810005 -10.390667 1.997513 0.000000 0.000000 0.000000
end
triangles
  phy
    0 -1.000000 0.999998 54.000001 -0.995868 -0.036884 -0.082989 0 0
    0 46.999999 1.000000 54.000001 -0.999090 -0.009251 0.041629 0 0
    0 -1.000000 1.000002 -54.000001 -0.999612 0.018511 -0.020825 0 0
  phy
    0 -1.000000 1.000002 -54.000001 -0.999612 0.018511 -0.020825 0 0
    0 46.999999 1.000000 54.000001 -0.999090 -0.009251 0.041629 0 0
    0 46.999999 1.000004 -54.000001 -0.998962 0.018499 0.041623 0 0
  phy
    0 -1.000000 -1.000002 54.000001 0.998962 -0.018499 -0.041623 0 0
    0 -1.000000 0.999998 54.000001 -0.995868 -0.036884 -0.082989 0 0
    0 -1.000000 -0.999998 -54.000001 0.999090 0.009251 -0.041629 0 0
  phy
    0 -1.000000 -0.999998 -54.000001 0.999090 0.009251 -0.041629 0 0
    0 -1.000000 0.999998 54.000001 -0.995868 -0.036884 -0.082989 0 0
    0 -1.000000 1.000002 -54.000001 -0.999612 0.018511 -0.020825 0 0
  phy
    0 -1.000000 -1.000002 54.000001 0.998962 -0.018499 -0.041623 0 0
    0 46.999999 -1.000000 54.000001 0.999612 -0.018511 0.020825 0 0
    0 -1.000000 0.999998 54.000001 -0.995868 -0.036884 -0.082989 0 0
  phy
    0 46.999999 -1.000000 54.000001 0.999612 -0.018511 0.020825 0 0
    0 46.999999 1.000000 54.000001 -0.999090 -0.009251 0.041629 0 0
    0 -1.000000 0.999998 54.000001 -0.995868 -0.036884 -0.082989 0 0
  phy
    0 -1.000000 -0.999998 -54.000001 0.999090 0.009251 -0.041629 0 0
    0 46.999999 -1.000000 54.000001 0.999612 -0.018511 0.020825 0 0
    0 -1.000000 -1.000002 54.000001 0.998962 -0.018499 -0.041623 0 0
  phy
    0 -1.000000 -0.999998 -54.000001 0.999090 0.009251 -0.041629 0 0
    0 46.999999 -0.999996 -54.000001 0.995868 0.036884 0.082989 0 0
    0 46.999999 -1.000000 54.000001 0.999612 -0.018511 0.020825 0 0
  phy
    0 46.999999 -1.000000 54.000001 0.999612 -0.018511 0.020825 0 0
    0 46.999999 -0.999996 -54.000001 0.995868 0.036884 0.082989 0 0
    0 46.999999 1.000000 54.000001 -0.999090 -0.009251 0.041629 0 0
  phy
    0 46.999999 -0.999996 -54.000001 0.995868 0.036884 0.082989 0 0
    0 46.999999 1.000004 -54.000001 -0.998962 0.018499 0.041623 0 0
    0 46.999999 1.000000 54.000001 -0.999090 -0.009251 0.041629 0 0
  phy
    0 46.999999 1.000004 -54.000001 -0.998962 0.018499 0.041623 0 0
    0 46.999999 -0.999996 -54.000001 0.995868 0.036884 0.082989 0 0
    0 -1.000000 1.000002 -54.000001 -0.999612 0.018511 -0.020825 0 0
  phy
    0 -1.000000 1.000002 -54.000001 -0.999612 0.018511 -0.020825 0 0
    0 46.999999 -0.999996 -54.000001 0.995868 0.036884 0.082989 0 0
    0 -1.000000 -0.999998 -54.000001 0.999090 0.009251 -0.041629 0 0
end
