// Created by Crowbar 0.71
version 1
nodes
  0 "door" -1
  1 "handle" 0
  2 "handle02" 0
end
skeleton
  time 0
    0 0.000000 0.000000 0.000000 1.570796 0.000000 0.000000
    1 43.810005 -10.390667 1.997513 0.000000 0.000000 0.000000
    2 43.810005 -10.390667 1.997513 0.000000 0.000000 0.000000
end
triangles
door03a_glass
  0 36.000000 -0.654461 36.000000 0.000000 1.000000 0.000000 0.668036 0.997960 1 0 1.000000
  0 30.000000 -0.654459 -4.500000 0.000000 1.000000 0.000000 0.488820 0.015346 1 0 1.000000
  0 30.000000 -0.654461 36.000000 0.000000 1.000000 0.000000 0.488820 0.997961 1 0 1.000000
door03a_glass
  0 36.000000 -0.654461 36.000000 0.000000 1.000000 0.000000 0.668036 0.997960 1 0 1.000000
  0 36.000000 -0.654459 -4.500000 0.000000 1.000000 0.000000 0.668035 0.015346 1 0 1.000000
  0 30.000000 -0.654459 -4.500000 0.000000 1.000000 0.000000 0.488820 0.015346 1 0 1.000000
door03a_glass
  0 30.000000 -1.000000 -4.500000 0.000000 -1.000000 0.000000 0.488974 0.000000 1 0 1.000000
  0 36.000000 -1.000002 36.000000 0.000000 -1.000000 0.000000 0.665177 1.000000 1 0 1.000000
  0 30.000000 -1.000002 36.000000 0.000000 -1.000000 0.000000 0.488974 1.000000 1 0 1.000000
door03a_glass
  0 30.000000 -1.000000 -4.500000 0.000000 -1.000000 0.000000 0.488974 0.000000 1 0 1.000000
  0 36.000000 -1.000000 -4.500000 0.000000 -1.000000 0.000000 0.665177 0.000000 1 0 1.000000
  0 36.000000 -1.000002 36.000000 0.000000 -1.000000 0.000000 0.665177 1.000000 1 0 1.000000
door01a_skin15
  0 36.000000 -2.000000 -4.500000 -1.000000 0.000000 0.000000 0.446056 0.381701 1 0 1.000000
  0 36.000000 -1.000002 36.000000 -1.000000 0.000000 0.000000 0.467311 0.708650 1 0 1.000000
  0 36.000000 -1.000000 -4.500000 -1.000000 0.000000 0.000000 0.467311 0.381701 1 0 1.000000
door01a_skin15
  0 36.000000 -2.000000 -4.500000 -1.000000 0.000000 0.000000 0.446056 0.381701 1 0 1.000000
  0 36.000000 -2.000002 36.000000 -1.000000 0.000000 0.000000 0.446056 0.708650 1 0 1.000000
  0 36.000000 -1.000002 36.000000 -1.000000 0.000000 0.000000 0.467311 0.708650 1 0 1.000000
door01a_skin15
  0 36.000000 -0.000002 54.000000 0.000000 1.000000 0.000000 0.625256 0.844951 1 0 1.000000
  0 48.000000 -0.000002 54.000000 0.000000 1.000000 0.000000 0.812569 0.844951 1 0 1.000000
  0 48.000000 -0.000002 36.000000 0.000000 1.000000 0.000000 0.812569 0.704516 1 0 1.000000
door01a_skin15
  0 36.000000 0.000002 -54.000000 0.000000 1.000000 0.000000 0.625256 0.002339 1 0 1.000000
  0 48.000000 0.000000 -4.500000 0.000000 1.000000 0.000000 0.812568 0.388536 1 0 1.000000
  0 48.000000 0.000002 -54.000000 0.000000 1.000000 0.000000 0.812568 0.002339 1 0 1.000000
door01a_skin15
  0 36.000000 0.000002 -54.000000 0.000000 1.000000 0.000000 0.625256 0.002339 1 0 1.000000
  0 36.000000 0.000000 -4.500000 0.000000 1.000000 0.000000 0.625256 0.388536 1 0 1.000000
  0 48.000000 0.000000 -4.500000 0.000000 1.000000 0.000000 0.812568 0.388536 1 0 1.000000
door01a_skin15
  0 36.000000 0.000000 -4.500000 0.000000 1.000000 0.000000 0.625256 0.388536 1 0 1.000000
  0 36.000000 0.000002 -54.000000 0.000000 1.000000 0.000000 0.625256 0.002339 1 0 1.000000
  0 30.000000 0.000002 -54.000000 0.000000 1.000000 0.000000 0.531599 0.002339 1 0 1.000000
door01a_skin15
  0 36.000000 0.000000 -4.500000 0.000000 1.000000 0.000000 0.625256 0.388536 1 0 1.000000
  0 30.000000 0.000002 -54.000000 0.000000 1.000000 0.000000 0.531599 0.002339 1 0 1.000000
  0 30.000000 0.000000 -4.500000 0.000000 1.000000 0.000000 0.531600 0.388536 1 0 1.000000
door01a_skin15
  0 0.000000 0.000002 -54.000000 0.000000 1.000000 0.000000 0.063318 0.002339 1 0 1.000000
  0 30.000000 0.000000 -4.500000 0.000000 1.000000 0.000000 0.531600 0.388536 1 0 1.000000
  0 30.000000 0.000002 -54.000000 0.000000 1.000000 0.000000 0.531599 0.002339 1 0 1.000000
door01a_skin15
  0 0.000000 0.000002 -54.000000 0.000000 1.000000 0.000000 0.063318 0.002339 1 0 1.000000
  0 0.000000 0.000000 -4.500000 0.000000 1.000000 0.000000 0.063318 0.388537 1 0 1.000000
  0 30.000000 0.000000 -4.500000 0.000000 1.000000 0.000000 0.531600 0.388536 1 0 1.000000
door01a_skin15
  0 0.000000 -0.000002 36.000000 0.000000 1.000000 0.000000 0.063318 0.704516 1 0 1.000000
  0 30.000000 0.000000 -4.500000 0.000000 1.000000 0.000000 0.531600 0.388536 1 0 1.000000
  0 0.000000 0.000000 -4.500000 0.000000 1.000000 0.000000 0.063318 0.388537 1 0 1.000000
door01a_skin15
  0 0.000000 -0.000002 36.000000 0.000000 1.000000 0.000000 0.063318 0.704516 1 0 1.000000
  0 30.000000 -0.000002 36.000000 0.000000 1.000000 0.000000 0.531600 0.704516 1 0 1.000000
  0 30.000000 0.000000 -4.500000 0.000000 1.000000 0.000000 0.531600 0.388536 1 0 1.000000
door01a_skin15
  0 0.000000 -0.000002 54.000000 0.000000 1.000000 0.000000 0.063318 0.844952 1 0 1.000000
  0 30.000000 -0.000002 36.000000 0.000000 1.000000 0.000000 0.531600 0.704516 1 0 1.000000
  0 0.000000 -0.000002 36.000000 0.000000 1.000000 0.000000 0.063318 0.704516 1 0 1.000000
door01a_skin15
  0 0.000000 -0.000002 54.000000 0.000000 1.000000 0.000000 0.063318 0.844952 1 0 1.000000
  0 30.000000 -0.000002 54.000000 0.000000 1.000000 0.000000 0.531600 0.844951 1 0 1.000000
  0 30.000000 -0.000002 36.000000 0.000000 1.000000 0.000000 0.531600 0.704516 1 0 1.000000
door01a_skin15
  0 36.000000 -0.000002 54.000000 0.000000 1.000000 0.000000 0.625256 0.844951 1 0 1.000000
  0 30.000000 -0.000002 36.000000 0.000000 1.000000 0.000000 0.531600 0.704516 1 0 1.000000
  0 30.000000 -0.000002 54.000000 0.000000 1.000000 0.000000 0.531600 0.844951 1 0 1.000000
door01a_skin15
  0 36.000000 -0.000002 54.000000 0.000000 1.000000 0.000000 0.625256 0.844951 1 0 1.000000
  0 36.000000 -0.000002 36.000000 0.000000 1.000000 0.000000 0.625256 0.704516 1 0 1.000000
  0 30.000000 -0.000002 36.000000 0.000000 1.000000 0.000000 0.531600 0.704516 1 0 1.000000
door01a_skin15
  0 36.000000 -0.000002 54.000000 0.000000 1.000000 0.000000 0.625256 0.844951 1 0 1.000000
  0 48.000000 -0.000002 36.000000 0.000000 1.000000 0.000000 0.812569 0.704516 1 0 1.000000
  0 36.000000 -0.000002 36.000000 0.000000 1.000000 0.000000 0.625256 0.704516 1 0 1.000000
door01a_skin15
  0 48.000000 0.000000 -4.500000 0.000000 1.000000 0.000000 0.812568 0.388536 1 0 1.000000
  0 36.000000 -0.000002 36.000000 0.000000 1.000000 0.000000 0.625256 0.704516 1 0 1.000000
  0 48.000000 -0.000002 36.000000 0.000000 1.000000 0.000000 0.812569 0.704516 1 0 1.000000
door01a_skin15
  0 48.000000 0.000000 -4.500000 0.000000 1.000000 0.000000 0.812568 0.388536 1 0 1.000000
  0 36.000000 0.000000 -4.500000 0.000000 1.000000 0.000000 0.625256 0.388536 1 0 1.000000
  0 36.000000 -0.000002 36.000000 0.000000 1.000000 0.000000 0.625256 0.704516 1 0 1.000000
door01a_skin15
  0 30.000000 -2.000000 -4.500000 0.000000 0.000000 1.000000 0.620403 0.725658 1 0 1.000000
  0 36.000000 -1.000000 -4.500000 0.000000 0.000000 1.000000 0.531216 0.715500 1 0 1.000000
  0 30.000000 -1.000000 -4.500000 0.000000 0.000000 1.000000 0.620403 0.715500 1 0 1.000000
door01a_skin15
  0 30.000000 -2.000000 -4.500000 0.000000 0.000000 1.000000 0.620403 0.725658 1 0 1.000000
  0 36.000000 -2.000000 -4.500000 0.000000 0.000000 1.000000 0.531216 0.725658 1 0 1.000000
  0 36.000000 -1.000000 -4.500000 0.000000 0.000000 1.000000 0.531216 0.715500 1 0 1.000000
door01a_skin15
  0 30.000000 -2.000002 36.000000 1.000000 0.000000 0.000000 0.446056 0.708650 1 0 1.000000
  0 30.000000 -1.000000 -4.500000 1.000000 0.000000 0.000000 0.467311 0.381701 1 0 1.000000
  0 30.000000 -1.000002 36.000000 1.000000 0.000000 0.000000 0.467311 0.708650 1 0 1.000000
door01a_skin15
  0 30.000000 -2.000002 36.000000 1.000000 0.000000 0.000000 0.446056 0.708650 1 0 1.000000
  0 30.000000 -2.000000 -4.500000 1.000000 0.000000 0.000000 0.446056 0.381701 1 0 1.000000
  0 30.000000 -1.000000 -4.500000 1.000000 0.000000 0.000000 0.467311 0.381701 1 0 1.000000
door01a_skin15
  0 36.000000 -2.000002 36.000000 0.000000 0.000000 -1.000000 0.531216 0.725658 1 0 1.000000
  0 30.000000 -1.000002 36.000000 0.000000 0.000000 -1.000000 0.620403 0.715500 1 0 1.000000
  0 36.000000 -1.000002 36.000000 0.000000 0.000000 -1.000000 0.531216 0.715500 1 0 1.000000
door01a_skin15
  0 36.000000 -2.000002 36.000000 0.000000 0.000000 -1.000000 0.531216 0.725658 1 0 1.000000
  0 30.000000 -2.000002 36.000000 0.000000 0.000000 -1.000000 0.620403 0.725658 1 0 1.000000
  0 30.000000 -1.000002 36.000000 0.000000 0.000000 -1.000000 0.620403 0.715500 1 0 1.000000
door01a_skin15
  0 30.000000 -0.000002 36.000000 0.000000 0.000000 -1.000000 0.620403 0.705341 1 0 1.000000
  0 36.000000 -0.654461 36.000000 0.000000 0.000000 -1.000000 0.531216 0.715500 1 0 1.000000
  0 30.000000 -0.654461 36.000000 0.000000 0.000000 -1.000000 0.620403 0.715500 1 0 1.000000
door01a_skin15
  0 30.000000 -0.000002 36.000000 0.000000 0.000000 -1.000000 0.620403 0.705341 1 0 1.000000
  0 36.000000 -0.000002 36.000000 0.000000 0.000000 -1.000000 0.531216 0.705341 1 0 1.000000
  0 36.000000 -0.654461 36.000000 0.000000 0.000000 -1.000000 0.531216 0.715500 1 0 1.000000
door01a_skin15
  0 30.000000 0.000000 -4.500000 1.000000 0.000000 0.000000 0.488565 0.381701 1 0 1.000000
  0 30.000000 -0.654461 36.000000 1.000000 0.000000 0.000000 0.467311 0.708650 1 0 1.000000
  0 30.000000 -0.654459 -4.500000 1.000000 0.000000 0.000000 0.467311 0.381701 1 0 1.000000
door01a_skin15
  0 30.000000 0.000000 -4.500000 1.000000 0.000000 0.000000 0.488565 0.381701 1 0 1.000000
  0 30.000000 -0.000002 36.000000 1.000000 0.000000 0.000000 0.488565 0.708650 1 0 1.000000
  0 30.000000 -0.654461 36.000000 1.000000 0.000000 0.000000 0.467311 0.708650 1 0 1.000000
door01a_skin15
  0 36.000000 0.000000 -4.500000 0.000000 0.000000 1.000000 0.531216 0.705341 1 0 1.000000
  0 30.000000 -0.654459 -4.500000 0.000000 0.000000 1.000000 0.620403 0.715500 1 0 1.000000
  0 36.000000 -0.654459 -4.500000 0.000000 0.000000 1.000000 0.531216 0.715500 1 0 1.000000
door01a_skin15
  0 36.000000 0.000000 -4.500000 0.000000 0.000000 1.000000 0.531216 0.705341 1 0 1.000000
  0 30.000000 0.000000 -4.500000 0.000000 0.000000 1.000000 0.620403 0.705341 1 0 1.000000
  0 30.000000 -0.654459 -4.500000 0.000000 0.000000 1.000000 0.620403 0.715500 1 0 1.000000
door01a_skin15
  0 36.000000 -0.000002 36.000000 -1.000000 0.000000 0.000000 0.488565 0.708650 1 0 1.000000
  0 36.000000 -0.654459 -4.500000 -1.000000 0.000000 0.000000 0.467311 0.381701 1 0 1.000000
  0 36.000000 -0.654461 36.000000 -1.000000 0.000000 0.000000 0.467311 0.708650 1 0 1.000000
door01a_skin15
  0 36.000000 -0.000002 36.000000 -1.000000 0.000000 0.000000 0.488565 0.708650 1 0 1.000000
  0 36.000000 0.000000 -4.500000 -1.000000 0.000000 0.000000 0.488565 0.381701 1 0 1.000000
  0 36.000000 -0.654459 -4.500000 -1.000000 0.000000 0.000000 0.467311 0.381701 1 0 1.000000
door01a_skin15
  0 0.000000 -1.999998 -54.000000 -1.000000 0.000000 0.000000 0.818632 0.001348 1 0 1.000000
  0 0.000000 0.000000 -4.500000 -1.000000 0.000000 0.000000 0.834249 0.387871 1 0 1.000000
  0 0.000000 0.000002 -54.000000 -1.000000 0.000000 0.000000 0.834249 0.001348 1 0 1.000000
door01a_skin15
  0 0.000000 -1.999998 -54.000000 -1.000000 0.000000 0.000000 0.818632 0.001348 1 0 1.000000
  0 0.000000 -2.000000 -4.500000 -1.000000 0.000000 0.000000 0.818632 0.387871 1 0 1.000000
  0 0.000000 0.000000 -4.500000 -1.000000 0.000000 0.000000 0.834249 0.387871 1 0 1.000000
door01a_skin15
  0 0.000000 0.000000 -4.500000 -1.000000 0.000000 0.000000 0.834249 0.387871 1 0 1.000000
  0 0.000000 -2.000000 -4.500000 -1.000000 0.000000 0.000000 0.818632 0.387871 1 0 1.000000
  0 0.000000 -2.000002 36.000000 -1.000000 0.000000 0.000000 0.818632 0.704117 1 0 1.000000
door01a_skin15
  0 0.000000 0.000000 -4.500000 -1.000000 0.000000 0.000000 0.834249 0.387871 1 0 1.000000
  0 0.000000 -2.000002 36.000000 -1.000000 0.000000 0.000000 0.818632 0.704117 1 0 1.000000
  0 0.000000 -0.000002 36.000000 -1.000000 0.000000 0.000000 0.834249 0.704117 1 0 1.000000
door01a_skin15
  0 0.000000 -2.000002 54.000000 -1.000000 0.000000 0.000000 0.818632 0.844670 1 0 1.000000
  0 0.000000 -0.000002 36.000000 -1.000000 0.000000 0.000000 0.834249 0.704117 1 0 1.000000
  0 0.000000 -2.000002 36.000000 -1.000000 0.000000 0.000000 0.818632 0.704117 1 0 1.000000
door01a_skin15
  0 0.000000 -2.000002 54.000000 -1.000000 0.000000 0.000000 0.818632 0.844670 1 0 1.000000
  0 0.000000 -0.000002 54.000000 -1.000000 0.000000 0.000000 0.834249 0.844670 1 0 1.000000
  0 0.000000 -0.000002 36.000000 -1.000000 0.000000 0.000000 0.834249 0.704117 1 0 1.000000
door01a_skin15
  0 0.000000 0.000002 -54.000000 0.000000 0.000000 -1.000000 0.063318 0.002339 1 0 1.000000
  0 30.000000 -1.999998 -54.000000 0.000000 0.000000 -1.000000 0.531599 0.002339 1 0 1.000000
  0 0.000000 -1.999998 -54.000000 0.000000 0.000000 -1.000000 0.063318 0.002339 1 0 1.000000
door01a_skin15
  0 0.000000 0.000002 -54.000000 0.000000 0.000000 -1.000000 0.063318 0.002339 1 0 1.000000
  0 30.000000 0.000002 -54.000000 0.000000 0.000000 -1.000000 0.531599 0.002339 1 0 1.000000
  0 30.000000 -1.999998 -54.000000 0.000000 0.000000 -1.000000 0.531599 0.002339 1 0 1.000000
door01a_skin15
  0 36.000000 0.000002 -54.000000 0.000000 0.000000 -1.000000 0.625256 0.002339 1 0 1.000000
  0 30.000000 -1.999998 -54.000000 0.000000 0.000000 -1.000000 0.531599 0.002339 1 0 1.000000
  0 30.000000 0.000002 -54.000000 0.000000 0.000000 -1.000000 0.531599 0.002339 1 0 1.000000
door01a_skin15
  0 36.000000 0.000002 -54.000000 0.000000 0.000000 -1.000000 0.625256 0.002339 1 0 1.000000
  0 36.000000 -1.999998 -54.000000 0.000000 0.000000 -1.000000 0.625255 0.002339 1 0 1.000000
  0 30.000000 -1.999998 -54.000000 0.000000 0.000000 -1.000000 0.531599 0.002339 1 0 1.000000
door01a_skin15
  0 48.000000 0.000002 -54.000000 0.000000 0.000000 -1.000000 0.812568 0.002339 1 0 1.000000
  0 36.000000 -1.999998 -54.000000 0.000000 0.000000 -1.000000 0.625255 0.002339 1 0 1.000000
  0 36.000000 0.000002 -54.000000 0.000000 0.000000 -1.000000 0.625256 0.002339 1 0 1.000000
door01a_skin15
  0 48.000000 0.000002 -54.000000 0.000000 0.000000 -1.000000 0.812568 0.002339 1 0 1.000000
  0 48.000000 -1.999998 -54.000000 0.000000 0.000000 -1.000000 0.812568 0.002339 1 0 1.000000
  0 36.000000 -1.999998 -54.000000 0.000000 0.000000 -1.000000 0.625255 0.002339 1 0 1.000000
door01a_skin15
  0 30.000000 -1.999998 -54.000000 0.000000 -1.000000 0.000000 0.531599 0.002339 1 0 1.000000
  0 0.000000 -2.000000 -4.500000 0.000000 -1.000000 0.000000 0.063318 0.388537 1 0 1.000000
  0 0.000000 -1.999998 -54.000000 0.000000 -1.000000 0.000000 0.063318 0.002339 1 0 1.000000
door01a_skin15
  0 48.000000 -1.999998 -54.000000 0.000000 -1.000000 0.000000 0.812568 0.002339 1 0 1.000000
  0 36.000000 -2.000000 -4.500000 0.000000 -1.000000 0.000000 0.625256 0.388536 1 0 1.000000
  0 36.000000 -1.999998 -54.000000 0.000000 -1.000000 0.000000 0.625255 0.002339 1 0 1.000000
door01a_skin15
  0 48.000000 -1.999998 -54.000000 0.000000 -1.000000 0.000000 0.812568 0.002339 1 0 1.000000
  0 48.000000 -2.000000 -4.500000 0.000000 -1.000000 0.000000 0.812568 0.388536 1 0 1.000000
  0 36.000000 -2.000000 -4.500000 0.000000 -1.000000 0.000000 0.625256 0.388536 1 0 1.000000
door01a_skin15
  0 48.000000 -2.000002 36.000000 0.000000 -1.000000 0.000000 0.812569 0.704516 1 0 1.000000
  0 36.000000 -2.000000 -4.500000 0.000000 -1.000000 0.000000 0.625256 0.388536 1 0 1.000000
  0 48.000000 -2.000000 -4.500000 0.000000 -1.000000 0.000000 0.812568 0.388536 1 0 1.000000
door01a_skin15
  0 48.000000 -2.000002 36.000000 0.000000 -1.000000 0.000000 0.812569 0.704516 1 0 1.000000
  0 36.000000 -2.000002 36.000000 0.000000 -1.000000 0.000000 0.625256 0.704516 1 0 1.000000
  0 36.000000 -2.000000 -4.500000 0.000000 -1.000000 0.000000 0.625256 0.388536 1 0 1.000000
door01a_skin15
  0 48.000000 -2.000002 54.000000 0.000000 -1.000000 0.000000 0.812569 0.844951 1 0 1.000000
  0 36.000000 -2.000002 36.000000 0.000000 -1.000000 0.000000 0.625256 0.704516 1 0 1.000000
  0 48.000000 -2.000002 36.000000 0.000000 -1.000000 0.000000 0.812569 0.704516 1 0 1.000000
door01a_skin15
  0 48.000000 -2.000002 54.000000 0.000000 -1.000000 0.000000 0.812569 0.844951 1 0 1.000000
  0 36.000000 -2.000002 54.000000 0.000000 -1.000000 0.000000 0.625256 0.844951 1 0 1.000000
  0 36.000000 -2.000002 36.000000 0.000000 -1.000000 0.000000 0.625256 0.704516 1 0 1.000000
door01a_skin15
  0 36.000000 -2.000002 36.000000 0.000000 -1.000000 0.000000 0.625256 0.704516 1 0 1.000000
  0 36.000000 -2.000002 54.000000 0.000000 -1.000000 0.000000 0.625256 0.844951 1 0 1.000000
  0 30.000000 -2.000002 54.000000 0.000000 -1.000000 0.000000 0.531600 0.844951 1 0 1.000000
door01a_skin15
  0 36.000000 -2.000002 36.000000 0.000000 -1.000000 0.000000 0.625256 0.704516 1 0 1.000000
  0 30.000000 -2.000002 54.000000 0.000000 -1.000000 0.000000 0.531600 0.844951 1 0 1.000000
  0 30.000000 -2.000002 36.000000 0.000000 -1.000000 0.000000 0.531600 0.704516 1 0 1.000000
door01a_skin15
  0 0.000000 -2.000002 54.000000 0.000000 -1.000000 0.000000 0.063318 0.844952 1 0 1.000000
  0 30.000000 -2.000002 36.000000 0.000000 -1.000000 0.000000 0.531600 0.704516 1 0 1.000000
  0 30.000000 -2.000002 54.000000 0.000000 -1.000000 0.000000 0.531600 0.844951 1 0 1.000000
door01a_skin15
  0 0.000000 -2.000002 54.000000 0.000000 -1.000000 0.000000 0.063318 0.844952 1 0 1.000000
  0 0.000000 -2.000002 36.000000 0.000000 -1.000000 0.000000 0.063318 0.704516 1 0 1.000000
  0 30.000000 -2.000002 36.000000 0.000000 -1.000000 0.000000 0.531600 0.704516 1 0 1.000000
door01a_skin15
  0 0.000000 -2.000000 -4.500000 0.000000 -1.000000 0.000000 0.063318 0.388537 1 0 1.000000
  0 30.000000 -2.000002 36.000000 0.000000 -1.000000 0.000000 0.531600 0.704516 1 0 1.000000
  0 0.000000 -2.000002 36.000000 0.000000 -1.000000 0.000000 0.063318 0.704516 1 0 1.000000
door01a_skin15
  0 0.000000 -2.000000 -4.500000 0.000000 -1.000000 0.000000 0.063318 0.388537 1 0 1.000000
  0 30.000000 -2.000000 -4.500000 0.000000 -1.000000 0.000000 0.531600 0.388536 1 0 1.000000
  0 30.000000 -2.000002 36.000000 0.000000 -1.000000 0.000000 0.531600 0.704516 1 0 1.000000
door01a_skin15
  0 30.000000 -1.999998 -54.000000 0.000000 -1.000000 0.000000 0.531599 0.002339 1 0 1.000000
  0 30.000000 -2.000000 -4.500000 0.000000 -1.000000 0.000000 0.531600 0.388536 1 0 1.000000
  0 0.000000 -2.000000 -4.500000 0.000000 -1.000000 0.000000 0.063318 0.388537 1 0 1.000000
door01a_skin15
  0 36.000000 -1.999998 -54.000000 0.000000 -1.000000 0.000000 0.625255 0.002339 1 0 1.000000
  0 30.000000 -2.000000 -4.500000 0.000000 -1.000000 0.000000 0.531600 0.388536 1 0 1.000000
  0 30.000000 -1.999998 -54.000000 0.000000 -1.000000 0.000000 0.531599 0.002339 1 0 1.000000
door01a_skin15
  0 36.000000 -1.999998 -54.000000 0.000000 -1.000000 0.000000 0.625255 0.002339 1 0 1.000000
  0 36.000000 -2.000000 -4.500000 0.000000 -1.000000 0.000000 0.625256 0.388536 1 0 1.000000
  0 30.000000 -2.000000 -4.500000 0.000000 -1.000000 0.000000 0.531600 0.388536 1 0 1.000000
door01a_skin15
  0 48.000000 0.000002 -54.000000 1.000000 0.000000 0.000000 0.834249 0.001348 1 0 1.000000
  0 48.000000 -2.000000 -4.500000 1.000000 0.000000 0.000000 0.818632 0.387871 1 0 1.000000
  0 48.000000 -1.999998 -54.000000 1.000000 0.000000 0.000000 0.818632 0.001348 1 0 1.000000
door01a_skin15
  0 48.000000 0.000002 -54.000000 1.000000 0.000000 0.000000 0.834249 0.001348 1 0 1.000000
  0 48.000000 0.000000 -4.500000 1.000000 0.000000 0.000000 0.834249 0.387871 1 0 1.000000
  0 48.000000 -2.000000 -4.500000 1.000000 0.000000 0.000000 0.818632 0.387871 1 0 1.000000
door01a_skin15
  0 48.000000 -0.000002 36.000000 1.000000 0.000000 0.000000 0.834249 0.704117 1 0 1.000000
  0 48.000000 -2.000000 -4.500000 1.000000 0.000000 0.000000 0.818632 0.387871 1 0 1.000000
  0 48.000000 0.000000 -4.500000 1.000000 0.000000 0.000000 0.834249 0.387871 1 0 1.000000
door01a_skin15
  0 48.000000 -0.000002 36.000000 1.000000 0.000000 0.000000 0.834249 0.704117 1 0 1.000000
  0 48.000000 -2.000002 36.000000 1.000000 0.000000 0.000000 0.818632 0.704117 1 0 1.000000
  0 48.000000 -2.000000 -4.500000 1.000000 0.000000 0.000000 0.818632 0.387871 1 0 1.000000
door01a_skin15
  0 48.000000 -0.000002 54.000000 1.000000 0.000000 0.000000 0.834249 0.844670 1 0 1.000000
  0 48.000000 -2.000002 36.000000 1.000000 0.000000 0.000000 0.818632 0.704117 1 0 1.000000
  0 48.000000 -0.000002 36.000000 1.000000 0.000000 0.000000 0.834249 0.704117 1 0 1.000000
door01a_skin15
  0 48.000000 -0.000002 54.000000 1.000000 0.000000 0.000000 0.834249 0.844670 1 0 1.000000
  0 48.000000 -2.000002 54.000000 1.000000 0.000000 0.000000 0.818632 0.844670 1 0 1.000000
  0 48.000000 -2.000002 36.000000 1.000000 0.000000 0.000000 0.818632 0.704117 1 0 1.000000
door01a_skin15
  0 48.000000 -0.000002 54.000000 0.000000 0.000000 1.000000 0.812569 0.844951 1 0 1.000000
  0 36.000000 -2.000002 54.000000 0.000000 0.000000 1.000000 0.625256 0.844951 1 0 1.000000
  0 48.000000 -2.000002 54.000000 0.000000 0.000000 1.000000 0.812569 0.844951 1 0 1.000000
door01a_skin15
  0 48.000000 -0.000002 54.000000 0.000000 0.000000 1.000000 0.812569 0.844951 1 0 1.000000
  0 36.000000 -0.000002 54.000000 0.000000 0.000000 1.000000 0.625256 0.844951 1 0 1.000000
  0 36.000000 -2.000002 54.000000 0.000000 0.000000 1.000000 0.625256 0.844951 1 0 1.000000
door01a_skin15
  0 36.000000 -2.000002 54.000000 0.000000 0.000000 1.000000 0.625256 0.844951 1 0 1.000000
  0 36.000000 -0.000002 54.000000 0.000000 0.000000 1.000000 0.625256 0.844951 1 0 1.000000
  0 30.000000 -0.000002 54.000000 0.000000 0.000000 1.000000 0.531600 0.844951 1 0 1.000000
door01a_skin15
  0 36.000000 -2.000002 54.000000 0.000000 0.000000 1.000000 0.625256 0.844951 1 0 1.000000
  0 30.000000 -0.000002 54.000000 0.000000 0.000000 1.000000 0.531600 0.844951 1 0 1.000000
  0 30.000000 -2.000002 54.000000 0.000000 0.000000 1.000000 0.531600 0.844951 1 0 1.000000
door01a_skin15
  0 0.000000 -2.000002 54.000000 0.000000 0.000000 1.000000 0.063318 0.844952 1 0 1.000000
  0 30.000000 -2.000002 54.000000 0.000000 0.000000 1.000000 0.531600 0.844951 1 0 1.000000
  0 30.000000 -0.000002 54.000000 0.000000 0.000000 1.000000 0.531600 0.844951 1 0 1.000000
door01a_skin15
  0 0.000000 -2.000002 54.000000 0.000000 0.000000 1.000000 0.063318 0.844952 1 0 1.000000
  0 30.000000 -0.000002 54.000000 0.000000 0.000000 1.000000 0.531600 0.844951 1 0 1.000000
  0 0.000000 -0.000002 54.000000 0.000000 0.000000 1.000000 0.063318 0.844952 1 0 1.000000
end
