// Created by Crowbar 0.74
version 1
nodes
  0 "ValveBiped.Bip01_Pelvis" -1
  1 "ValveBiped.Bip01_Spine" 0
  2 "ValveBiped.Bip01_Spine1" 1
  3 "ValveBiped.Bip01_Spine2" 2
  4 "ValveBiped.Bip01_Spine4" 3
  5 "ValveBiped.Bip01_Neck1" 4
  6 "ValveBiped.Bip01_Head1" 5
  7 "ValveBiped.forward" 6
  8 "ValveBiped.Bip01_R_Clavicle" 4
  9 "ValveBiped.Bip01_R_UpperArm" 8
  10 "ValveBiped.Bip01_R_Forearm" 9
  11 "ValveBiped.Bip01_R_Hand" 10
  12 "ValveBiped.Anim_Attachment_RH" 11
  13 "ValveBiped.Bip01_L_Clavicle" 4
  14 "ValveBiped.Bip01_L_UpperArm" 13
  15 "ValveBiped.Bip01_L_Forearm" 14
  16 "ValveBiped.Bip01_L_Hand" 15
  17 "ValveBiped.Anim_Attachment_LH" 16
  18 "ValveBiped.Bip01_R_Thigh" 0
  19 "ValveBiped.Bip01_R_Calf" 18
  20 "ValveBiped.Bip01_R_Foot" 19
  21 "ValveBiped.Bip01_R_Toe0" 20
  22 "ValveBiped.Bip01_L_Thigh" 0
  23 "ValveBiped.Bip01_L_Calf" 22
  24 "ValveBiped.Bip01_L_Foot" 23
  25 "ValveBiped.Bip01_L_Toe0" 24
  26 "ValveBiped.Bip01_L_Finger4" 16
  27 "ValveBiped.Bip01_L_Finger41" 26
  28 "ValveBiped.Bip01_L_Finger42" 27
  29 "ValveBiped.Bip01_L_Finger3" 16
  30 "ValveBiped.Bip01_L_Finger31" 29
  31 "ValveBiped.Bip01_L_Finger32" 30
  32 "ValveBiped.Bip01_L_Finger2" 16
  33 "ValveBiped.Bip01_L_Finger21" 32
  34 "ValveBiped.Bip01_L_Finger22" 33
  35 "ValveBiped.Bip01_L_Finger1" 16
  36 "ValveBiped.Bip01_L_Finger11" 35
  37 "ValveBiped.Bip01_L_Finger12" 36
  38 "ValveBiped.Bip01_L_Finger0" 16
  39 "ValveBiped.Bip01_L_Finger01" 38
  40 "ValveBiped.Bip01_L_Finger02" 39
  41 "ValveBiped.Bip01_R_Finger4" 11
  42 "ValveBiped.Bip01_R_Finger41" 41
  43 "ValveBiped.Bip01_R_Finger42" 42
  44 "ValveBiped.Bip01_R_Finger3" 11
  45 "ValveBiped.Bip01_R_Finger31" 44
  46 "ValveBiped.Bip01_R_Finger32" 45
  47 "ValveBiped.Bip01_R_Finger2" 11
  48 "ValveBiped.Bip01_R_Finger21" 47
  49 "ValveBiped.Bip01_R_Finger22" 48
  50 "ValveBiped.Bip01_R_Finger1" 11
  51 "ValveBiped.Bip01_R_Finger11" 50
  52 "ValveBiped.Bip01_R_Finger12" 51
  53 "ValveBiped.Bip01_R_Finger0" 11
  54 "ValveBiped.Bip01_R_Finger01" 53
  55 "ValveBiped.Bip01_R_Finger02" 54
end
skeleton
  time 0
    0 -0.004620 -0.003399 23.296875 1.205008 0.001604 1.568465
    1 0.000005 3.345127 -2.981901 1.574438 -0.244236 1.554947
    2 4.018326 0.000000 0.000000 -0.000031 -0.015878 0.189339
    3 3.518562 0.000000 0.000000 -0.001499 -0.014329 0.057988
    4 8.942642 0.000000 0.000000 0.000000 0.000000 0.155809
    5 3.307270 -0.000001 0.000000 -3.129109 0.023780 -0.031098
    6 3.593716 0.000004 0.000000 0.018809 -0.024808 0.107188
    7 1.999992 -3.000001 0.000000 -1.570796 0.000000 -1.326450
    8 2.033352 1.000772 -1.937610 -1.709998 1.334153 2.900206
    9 6.028144 0.000000 0.000000 1.563485 0.276670 -0.490789
    10 11.692551 0.000000 0.000004 -0.047705 -0.012239 -1.023770
    11 11.481701 0.000000 0.000000 -2.032048 0.385772 -0.024441
    12 2.676088 -1.712444 0.000000 -1.570796 0.000000 -1.570796
    13 2.033344 1.000767 1.937660 -2.970804 -1.249843 1.228859
    14 6.028142 0.000000 0.000000 -1.999115 -1.198606 -0.047196
    15 11.692551 0.000000 0.000004 0.033966 0.003528 -0.754617
    16 11.481672 0.000000 -0.000027 1.755234 -0.108489 0.704664
    17 2.676088 -1.712444 0.000000 1.570797 0.000000 1.570797
    18 -3.890452 0.000004 0.000007 -3.060634 -1.488157 -0.252607
    19 17.848169 0.000000 0.000000 -0.003352 0.000907 1.308404
    20 16.525251 0.000000 0.000000 0.196341 0.215208 -1.470869
    21 6.879454 0.000000 0.000000 -0.078649 -0.006181 -0.498939
    22 3.890452 -0.000004 -0.000003 -2.460500 -1.425741 -0.401423
    23 17.848171 0.000000 0.000000 0.003028 -0.000771 1.212078
    24 16.525249 0.000000 0.000000 -0.359690 -0.058778 -1.428257
    25 6.879452 0.000000 0.000000 -0.011148 0.000930 -0.500519
    26 3.859707 -0.142406 -1.191975 -0.029239 0.007438 -0.600248
    27 1.312561 0.000002 0.000000 -0.076788 0.060270 -1.225979
    28 0.729359 0.000003 0.000000 -0.007281 0.087400 -0.386258
    29 3.942326 0.046772 -0.431443 -0.249169 0.111190 -0.977389
    30 1.539097 0.000002 0.000000 -0.022818 0.014599 -1.199497
    31 1.196323 -0.000004 0.000000 -0.017608 0.035329 -0.759630
    32 3.883690 -0.046772 0.431443 0.025560 0.088829 -0.983118
    33 1.719576 0.000000 0.000000 0.004488 -0.001051 -1.584659
    34 1.209179 0.000000 0.000000 0.001721 -0.005539 -0.620369
    35 3.859863 -0.137951 1.332466 0.336488 0.114120 -0.886768
    36 1.719429 0.000000 0.000000 0.066439 -0.019589 -1.477938
    37 1.099667 0.000000 0.000001 0.034758 -0.060439 -0.692459
    38 0.806049 -0.348927 1.321258 -1.258478 -0.399608 -1.213989
    39 1.789783 -0.000002 0.000004 0.001199 -0.139429 0.598638
    40 1.206997 0.000000 -0.000002 -0.119089 -0.234569 0.624349
    41 3.859673 -0.132565 1.193108 0.416039 -0.089090 -0.826238
    42 1.312561 0.000002 -0.000002 0.076519 -0.060609 -1.221539
    43 0.729362 0.000004 0.000000 0.029119 -0.082750 -0.641948
    44 3.942293 0.050327 0.431043 0.250138 -0.108991 -0.986108
    45 1.539093 0.000004 0.000000 0.020258 -0.017990 -1.043219
    46 1.196320 -0.000002 0.000000 0.015668 -0.036229 -0.705570
    47 3.883656 -0.050327 -0.431043 -0.036169 -0.085079 -0.860939
    48 1.719576 -0.000004 0.000000 -0.004269 0.001739 -1.428337
    49 1.209183 0.000000 0.000000 -0.001430 0.005619 -0.566378
    50 3.859827 -0.148937 -1.331282 -0.348598 -0.066340 -0.752499
    51 1.719427 0.000000 0.000000 -0.062589 0.029671 -1.321899
    52 1.099667 0.000000 0.000001 -0.031450 0.062240 -0.638369
    53 0.806017 -0.359840 -1.318334 1.289007 0.530148 -0.654400
    54 1.789783 0.000001 -0.000004 -0.001790 0.370549 0.932379
    55 1.207001 0.000000 0.000004 0.000002 -0.013129 -0.286820
end
