version 1
nodes
 0 "ValveBiped.Bip01_Pelvis" -1
 1 "ValveBiped.Bip01_Spine" 0
 2 "ValveBiped.Bip01_Spine1" 1
 3 "ValveBiped.Bip01_Spine2" 2
 4 "ValveBiped.Bip01_Spine4" 3
 5 "ValveBiped.Bip01_Neck1" 4
 6 "ValveBiped.Bip01_Head1" 5
 7 "ValveBiped.forward" 6
 8 "ValveBiped.Bip01_R_Clavicle" 4
 9 "ValveBiped.Bip01_R_UpperArm" 8
 10 "ValveBiped.Bip01_R_Forearm" 9
 11 "ValveBiped.Bip01_R_Hand" 10
 12 "ValveBiped.Anim_Attachment_RH" 11
 13 "ValveBiped.Bip01_L_Clavicle" 4
 14 "ValveBiped.Bip01_L_UpperArm" 13
 15 "ValveBiped.Bip01_L_Forearm" 14
 16 "ValveBiped.Bip01_L_Hand" 15
 17 "ValveBiped.Anim_Attachment_LH" 16
 18 "ValveBiped.Bip01_R_Thigh" 0
 19 "ValveBiped.Bip01_R_Calf" 18
 20 "ValveBiped.Bip01_R_Foot" 19
 21 "ValveBiped.Bip01_R_Toe0" 20
 22 "ValveBiped.Bip01_L_Thigh" 0
 23 "ValveBiped.Bip01_L_Calf" 22
 24 "ValveBiped.Bip01_L_Foot" 23
 25 "ValveBiped.Bip01_L_Toe0" 24
 26 "ValveBiped.Bip01_L_Finger4" 16
 27 "ValveBiped.Bip01_L_Finger41" 26
 28 "ValveBiped.Bip01_L_Finger42" 27
 29 "ValveBiped.Bip01_L_Finger3" 16
 30 "ValveBiped.Bip01_L_Finger31" 29
 31 "ValveBiped.Bip01_L_Finger32" 30
 32 "ValveBiped.Bip01_L_Finger2" 16
 33 "ValveBiped.Bip01_L_Finger21" 32
 34 "ValveBiped.Bip01_L_Finger22" 33
 35 "ValveBiped.Bip01_L_Finger1" 16
 36 "ValveBiped.Bip01_L_Finger11" 35
 37 "ValveBiped.Bip01_L_Finger12" 36
 38 "ValveBiped.Bip01_L_Finger0" 16
 39 "ValveBiped.Bip01_L_Finger01" 38
 40 "ValveBiped.Bip01_L_Finger02" 39
 41 "ValveBiped.Bip01_R_Finger4" 11
 42 "ValveBiped.Bip01_R_Finger41" 41
 43 "ValveBiped.Bip01_R_Finger42" 42
 44 "ValveBiped.Bip01_R_Finger3" 11
 45 "ValveBiped.Bip01_R_Finger31" 44
 46 "ValveBiped.Bip01_R_Finger32" 45
 47 "ValveBiped.Bip01_R_Finger2" 11
 48 "ValveBiped.Bip01_R_Finger21" 47
 49 "ValveBiped.Bip01_R_Finger22" 48
 50 "ValveBiped.Bip01_R_Finger1" 11
 51 "ValveBiped.Bip01_R_Finger11" 50
 52 "ValveBiped.Bip01_R_Finger12" 51
 53 "ValveBiped.Bip01_R_Finger0" 11
 54 "ValveBiped.Bip01_R_Finger01" 53
 55 "ValveBiped.Bip01_R_Finger02" 54
end
skeleton
time 0
 0 0.00000 -0.00625 23.30864 1.20502 -0.00000 1.57071
 1 0.00001 3.34513 -2.98190 1.57439 -0.24424 1.55498
 2 4.01832 0.00001 0.00000 0.00000 -0.01587 0.18934
 3 3.51856 -0.00000 0.00000 -0.00148 -0.01433 0.05801
 4 8.94264 0.00000 0.00000 0.00000 -0.00000 0.15581
 5 3.30726 0.00000 0.00000 -3.12932 0.02377 -0.03109
 6 3.59371 0.00001 -0.00000 0.01880 -0.02478 0.10725
 7 1.99999 -3.00000 -0.00000 -1.57080 0.00000 -1.32645
 8 2.03335 1.00077 -1.93761 -1.70996 1.33414 2.90023
 9 6.02814 0.00000 0.00000 1.56203 0.27589 -0.49627
 10 11.69255 -0.00000 -0.00000 -0.05219 -0.00453 -1.02500
 11 11.48170 -0.00000 0.00000 -2.03205 0.38077 -0.02422
 12 2.67610 -1.71245 -0.00000 -1.57080 0.00000 -1.57080
 13 2.03334 1.00076 1.93766 3.12672 -1.25537 1.42428
 14 6.02814 0.00000 -0.00000 -1.84999 -0.73517 -0.18553
 15 11.69255 0.00000 0.00000 0.02744 -0.01085 -1.08564
 16 11.48167 -0.00000 -0.00000 0.81430 -0.01409 0.78655
 17 2.67608 -1.71244 0.00000 1.57080 -0.00000 1.57080
 18 -3.89045 0.00001 0.00001 -3.05977 -1.48852 -0.25340
 19 17.84817 0.00000 0.00000 -0.00364 0.00038 1.30839
 20 16.52524 0.00001 -0.00000 0.19587 0.21524 -1.47087
 21 6.87944 -0.00000 0.00000 -0.07865 -0.00619 -0.49894
 22 3.89045 -0.00000 -0.00001 -2.46189 -1.42548 -0.40001
 23 17.84818 -0.00000 0.00001 0.00332 -0.00030 1.21201
 24 16.52523 0.00001 0.00000 -0.35937 -0.05881 -1.42826
 25 6.87945 0.00000 0.00000 -0.01115 0.00093 -0.50051
 26 3.85970 -0.14240 -1.19197 -0.02926 0.00746 -0.60028
 27 1.31256 0.00000 -0.00000 -0.07678 0.06026 -1.22596
 28 0.72936 0.00001 0.00000 -0.00727 0.08739 -0.38625
 29 3.94232 0.04677 -0.43145 -0.24916 0.11118 -0.97738
 30 1.53911 0.00001 0.00000 -0.02282 0.01460 -1.19947
 31 1.19633 -0.00001 -0.00000 -0.01761 0.03532 -0.75958
 32 3.88369 -0.04677 0.43144 0.02558 0.08880 -0.98311
 33 1.71958 0.00000 0.00001 0.00449 -0.00104 -1.58461
 34 1.20918 0.00000 0.00000 0.00171 -0.00553 -0.62037
 35 3.85987 -0.13795 1.33247 0.33652 0.11412 -0.88673
 36 1.71943 0.00000 0.00000 0.06643 -0.01958 -1.47790
 37 1.09966 0.00000 0.00000 0.03476 -0.06044 -0.69240
 38 0.80604 -0.34892 1.32126 -1.25840 -0.39961 -1.21397
 39 1.78978 0.00000 0.00000 0.00118 -0.13940 0.59864
 40 1.20699 0.00000 0.00000 -0.11909 -0.23455 0.62432
 41 3.85967 -0.13257 1.19311 0.41606 -0.08910 -0.82627
 42 1.31256 0.00000 -0.00001 0.07652 -0.06060 -1.22154
 43 0.72937 0.00000 0.00000 0.02911 -0.08274 -0.64195
 44 3.94229 0.05032 0.43104 0.25010 -0.10896 -0.98610
 45 1.53909 0.00000 0.00000 0.02025 -0.01799 -1.04322
 46 1.19632 0.00000 -0.00000 0.01567 -0.03622 -0.70557
 47 3.88366 -0.05033 -0.43104 -0.03618 -0.08505 -0.86093
 48 1.71957 -0.00000 0.00000 -0.00427 0.00174 -1.42834
 49 1.20918 0.00000 -0.00000 -0.00143 0.00562 -0.56638
 50 3.85983 -0.14894 -1.33128 -0.34865 -0.06634 -0.75249
 51 1.71943 -0.00001 0.00000 -0.06259 0.02967 -1.32190
 52 1.09967 -0.00000 0.00000 -0.03145 0.06224 -0.63836
 53 0.80602 -0.35984 -1.31833 1.28897 0.53015 -0.65444
 54 1.78978 -0.00000 -0.00000 -0.00179 0.37055 0.93238
 55 1.20701 -0.00001 0.00000 0.00000 -0.01313 -0.28681
end
triangles
end
"
